M48
; DRILL file KiCad 10.0.3 date 2026-07-20T00:45:51
; FORMAT={-:-/ absolute / metric / decimal}
; #@! TF.CreationDate,2026-07-20T00:45:51-04:00
; #@! TF.GenerationSoftware,Kicad,Pcbnew,10.0.3
; #@! TF.FileFunction,MixedPlating,1,2
FMAT,2
METRIC
; #@! TA.AperFunction,Plated,PTH,ViaDrill
T1C0.300
; #@! TA.AperFunction,Plated,PTH,ComponentDrill
T2C0.300
%
G90
G05
T1
X2.6Y-12.0
X3.456Y-11.853
X4.95Y-14.267
X5.317Y-10.401
X6.788Y-10.07
X9.019Y-9.339
X10.255Y-11.753
X10.374Y-9.826
X17.015Y-3.994
X17.166Y-9.526
X17.459Y-7.163
X17.564Y-32.134
X18.114Y-21.287
X18.205Y-8.632
X19.006Y-3.431
X19.23Y-38.411
X19.358Y-13.129
X19.737Y-21.287
X19.788Y-24.142
X20.028Y-11.833
X20.064Y-23.192
X20.224Y-15.583
X20.315Y-7.757
X21.009Y-36.222
X21.447Y-14.952
X22.264Y-13.335
X22.799Y-44.971
X24.0Y-8.0
X24.09Y-11.873
X24.883Y-22.204
X24.933Y-23.639
X25.062Y-21.287
X25.18Y-25.001
X25.347Y-20.424
X30.187Y-4.905
X31.422Y-10.281
X32.059Y-8.067
X36.43Y-7.262
X36.864Y-34.064
X36.884Y-15.583
X39.147Y-9.49
X39.384Y-35.343
X39.71Y-41.41
X39.843Y-5.884
X40.433Y-39.188
X41.988Y-39.622
X42.073Y-23.02
X42.769Y-28.938
X43.0Y-2.4
X43.0Y-51.6
X43.117Y-4.764
X43.151Y-42.92
X43.168Y-13.636
X43.365Y-17.519
X43.368Y-23.228
X44.895Y-28.122
X44.953Y-36.734
X45.269Y-13.845
X45.816Y-24.313
X47.813Y-40.185
X48.0Y-27.0
X49.669Y-15.253
X52.0Y-40.0
X52.069Y-46.167
X53.908Y-10.353
X53.908Y-14.461
X56.278Y-6.103
X57.87Y-26.942
X60.764Y-36.158
X60.836Y-3.238
X63.031Y-31.29
X63.215Y-27.534
X63.307Y-43.898
X63.512Y-3.824
X63.846Y-49.149
X68.92Y-31.948
X68.964Y-27.0
X69.024Y-16.249
X69.101Y-10.797
X73.791Y-5.952
X83.0Y-12.0
X83.0Y-27.0
X83.0Y-51.0
T2
X8.0Y-14.2
X8.5Y-22.8
M30
