%TF.GenerationSoftware,KiCad,Pcbnew,10.0.3*%
%TF.CreationDate,2026-07-20T00:49:10-04:00*%
%TF.ProjectId,NeuralCard,4e657572-616c-4436-9172-642e6b696361,rev?*%
%TF.SameCoordinates,Original*%
%TF.FileFunction,Legend,Bot*%
%TF.FilePolarity,Positive*%
%FSLAX46Y46*%
G04 Gerber Fmt 4.6, Leading zero omitted, Abs format (unit mm)*
G04 Created by KiCad (PCBNEW 10.0.3) date 2026-07-20 00:49:10*
%MOMM*%
%LPD*%
G01*
G04 APERTURE LIST*
%ADD10C,0.150000*%
%ADD11C,0.160000*%
%ADD12C,0.170000*%
%ADD13C,0.120000*%
%ADD14C,0.060000*%
%ADD15C,0.250000*%
%ADD16C,0.000000*%
%ADD17C,0.300000*%
G04 APERTURE END LIST*
G36*
X32000000Y-45800000D02*
G01*
X45000000Y-45800000D01*
X45000000Y-49000000D01*
X32000000Y-49000000D01*
X32000000Y-45800000D01*
G37*
D10*
G36*
X13412389Y-51373500D02*
G01*
X13092553Y-51373500D01*
X13035322Y-51369795D01*
X12984431Y-51359147D01*
X12938954Y-51342010D01*
X12897031Y-51317852D01*
X12862703Y-51288957D01*
X12835090Y-51255127D01*
X12814600Y-51216743D01*
X12802196Y-51174668D01*
X12797941Y-51127962D01*
X12799863Y-51110322D01*
X12980500Y-51110322D01*
X12984772Y-51144790D01*
X12996938Y-51173066D01*
X13017045Y-51196601D01*
X13043070Y-51213962D01*
X13074867Y-51224819D01*
X13113985Y-51228694D01*
X13232302Y-51228694D01*
X13232302Y-50992004D01*
X13113985Y-50992004D01*
X13074867Y-50995879D01*
X13043070Y-51006737D01*
X13017045Y-51024098D01*
X12996935Y-51047632D01*
X12984770Y-51075890D01*
X12980500Y-51110322D01*
X12799863Y-51110322D01*
X12802980Y-51081706D01*
X12817787Y-51039910D01*
X12842674Y-51001457D01*
X12875226Y-50968649D01*
X12914527Y-50942037D01*
X12961596Y-50921498D01*
X12922675Y-50900162D01*
X12889965Y-50874210D01*
X12862787Y-50843462D01*
X12842213Y-50808330D01*
X12829859Y-50770007D01*
X12827518Y-50746467D01*
X13006933Y-50746467D01*
X13010864Y-50777654D01*
X13022149Y-50803678D01*
X13040950Y-50825767D01*
X13065184Y-50842165D01*
X13094529Y-50852366D01*
X13130361Y-50855992D01*
X13232302Y-50855992D01*
X13232302Y-50636887D01*
X13130361Y-50636887D01*
X13093677Y-50640490D01*
X13064184Y-50650533D01*
X13040346Y-50666508D01*
X13021999Y-50688181D01*
X13010856Y-50714377D01*
X13006933Y-50746467D01*
X12827518Y-50746467D01*
X12825638Y-50727563D01*
X12829759Y-50682514D01*
X12841749Y-50642124D01*
X12861523Y-50605453D01*
X12888183Y-50573181D01*
X12921462Y-50545539D01*
X12962255Y-50522362D01*
X13006437Y-50505917D01*
X13055875Y-50495694D01*
X13111457Y-50492137D01*
X13412389Y-50492137D01*
X13412389Y-51373500D01*
G37*
G36*
X12440589Y-50484245D02*
G01*
X12498765Y-50501799D01*
X12553228Y-50531155D01*
X12601059Y-50570649D01*
X12642987Y-50621489D01*
X12679129Y-50685412D01*
X12704424Y-50754551D01*
X12720578Y-50836258D01*
X12726335Y-50932818D01*
X12720578Y-51029379D01*
X12704424Y-51111085D01*
X12679129Y-51180224D01*
X12642993Y-51244115D01*
X12601065Y-51294958D01*
X12553228Y-51334482D01*
X12498765Y-51363838D01*
X12440589Y-51381392D01*
X12377538Y-51387348D01*
X12314522Y-51381393D01*
X12256364Y-51363840D01*
X12201903Y-51334482D01*
X12154066Y-51294958D01*
X12112138Y-51244115D01*
X12076002Y-51180224D01*
X12050706Y-51111085D01*
X12034552Y-51029379D01*
X12028796Y-50932818D01*
X12213883Y-50932818D01*
X12217519Y-51008219D01*
X12227392Y-51068012D01*
X12242213Y-51114907D01*
X12261089Y-51151263D01*
X12287680Y-51184564D01*
X12315568Y-51206621D01*
X12345208Y-51219370D01*
X12377538Y-51223638D01*
X12409896Y-51219369D01*
X12439554Y-51206617D01*
X12467451Y-51184560D01*
X12494042Y-51151263D01*
X12512918Y-51114907D01*
X12527738Y-51068012D01*
X12537612Y-51008219D01*
X12541248Y-50932818D01*
X12537612Y-50857418D01*
X12527738Y-50797625D01*
X12512918Y-50750729D01*
X12494042Y-50714374D01*
X12467447Y-50681048D01*
X12439550Y-50658974D01*
X12409893Y-50646215D01*
X12377538Y-50641943D01*
X12345211Y-50646214D01*
X12315573Y-50658971D01*
X12287684Y-50681044D01*
X12261089Y-50714374D01*
X12242213Y-50750729D01*
X12227392Y-50797625D01*
X12217519Y-50857418D01*
X12213883Y-50932818D01*
X12028796Y-50932818D01*
X12034552Y-50836258D01*
X12050706Y-50754551D01*
X12076002Y-50685412D01*
X12112143Y-50621489D01*
X12154071Y-50570649D01*
X12201903Y-50531155D01*
X12256364Y-50501797D01*
X12314522Y-50484243D01*
X12377538Y-50478288D01*
X12440589Y-50484245D01*
G37*
G36*
X11685293Y-50484245D02*
G01*
X11743469Y-50501799D01*
X11797931Y-50531155D01*
X11845762Y-50570649D01*
X11887691Y-50621489D01*
X11923832Y-50685412D01*
X11949128Y-50754551D01*
X11965282Y-50836258D01*
X11971038Y-50932818D01*
X11965282Y-51029379D01*
X11949128Y-51111085D01*
X11923832Y-51180224D01*
X11887696Y-51244115D01*
X11845768Y-51294958D01*
X11797931Y-51334482D01*
X11743469Y-51363838D01*
X11685293Y-51381392D01*
X11622241Y-51387348D01*
X11559226Y-51381393D01*
X11501068Y-51363840D01*
X11446606Y-51334482D01*
X11398769Y-51294958D01*
X11356841Y-51244115D01*
X11320705Y-51180224D01*
X11295410Y-51111085D01*
X11279255Y-51029379D01*
X11273499Y-50932818D01*
X11458586Y-50932818D01*
X11462222Y-51008219D01*
X11472096Y-51068012D01*
X11486916Y-51114907D01*
X11505792Y-51151263D01*
X11532384Y-51184564D01*
X11560272Y-51206621D01*
X11589912Y-51219370D01*
X11622241Y-51223638D01*
X11654599Y-51219369D01*
X11684257Y-51206617D01*
X11712154Y-51184560D01*
X11738745Y-51151263D01*
X11757621Y-51114907D01*
X11772441Y-51068012D01*
X11782315Y-51008219D01*
X11785951Y-50932818D01*
X11782315Y-50857418D01*
X11772441Y-50797625D01*
X11757621Y-50750729D01*
X11738745Y-50714374D01*
X11712151Y-50681048D01*
X11684253Y-50658974D01*
X11654596Y-50646215D01*
X11622241Y-50641943D01*
X11589915Y-50646214D01*
X11560276Y-50658971D01*
X11532387Y-50681044D01*
X11505792Y-50714374D01*
X11486916Y-50750729D01*
X11472096Y-50797625D01*
X11462222Y-50857418D01*
X11458586Y-50932818D01*
X11273499Y-50932818D01*
X11279255Y-50836258D01*
X11295410Y-50754551D01*
X11320705Y-50685412D01*
X11356847Y-50621489D01*
X11398775Y-50570649D01*
X11446606Y-50531155D01*
X11501068Y-50501797D01*
X11559226Y-50484243D01*
X11622241Y-50478288D01*
X11685293Y-50484245D01*
G37*
G36*
X10958884Y-51373500D02*
G01*
X10958884Y-50646999D01*
X11222061Y-50646999D01*
X11222061Y-50492137D01*
X10511883Y-50492137D01*
X10511883Y-50646999D01*
X10775060Y-50646999D01*
X10775060Y-51373500D01*
X10958884Y-51373500D01*
G37*
G36*
X25046060Y-51373500D02*
G01*
X24862237Y-51373500D01*
X24862237Y-51036078D01*
X24760241Y-51036078D01*
X24592794Y-51373500D01*
X24397595Y-51373500D01*
X24587739Y-51008381D01*
X24541143Y-50983545D01*
X24501960Y-50951988D01*
X24469366Y-50913309D01*
X24445098Y-50869132D01*
X24430365Y-50820217D01*
X24425522Y-50767844D01*
X24611644Y-50767844D01*
X24615918Y-50803162D01*
X24628097Y-50832286D01*
X24648189Y-50856651D01*
X24674308Y-50874744D01*
X24706104Y-50886002D01*
X24745129Y-50890009D01*
X24862237Y-50890009D01*
X24862237Y-50644471D01*
X24745129Y-50644471D01*
X24706153Y-50648546D01*
X24674357Y-50660012D01*
X24648189Y-50678488D01*
X24628078Y-50703188D01*
X24615906Y-50732510D01*
X24611644Y-50767844D01*
X24425522Y-50767844D01*
X24425293Y-50765371D01*
X24429838Y-50711936D01*
X24442960Y-50664668D01*
X24464365Y-50622434D01*
X24493403Y-50584875D01*
X24528833Y-50553096D01*
X24571362Y-50526758D01*
X24617846Y-50507901D01*
X24669967Y-50496206D01*
X24728752Y-50492137D01*
X25046060Y-50492137D01*
X25046060Y-51373500D01*
G37*
G36*
X23996152Y-51387348D02*
G01*
X24061065Y-51383830D01*
X24122172Y-51373491D01*
X24179975Y-51356519D01*
X24235654Y-51333116D01*
X24292231Y-51302473D01*
X24349950Y-51263975D01*
X24256747Y-51125434D01*
X24176170Y-51179533D01*
X24114524Y-51211109D01*
X24053318Y-51230076D01*
X23992360Y-51236278D01*
X23947123Y-51232458D01*
X23911014Y-51221912D01*
X23882176Y-51205448D01*
X23859146Y-51182443D01*
X23845789Y-51156176D01*
X23841235Y-51125434D01*
X23844376Y-51098911D01*
X23853243Y-51077486D01*
X23867723Y-51059983D01*
X23897336Y-51039321D01*
X23937625Y-51022834D01*
X24032697Y-50998929D01*
X24136561Y-50973759D01*
X24186948Y-50956114D01*
X24232237Y-50932818D01*
X24271316Y-50901916D01*
X24302084Y-50861707D01*
X24316139Y-50830769D01*
X24325227Y-50792485D01*
X24328517Y-50745203D01*
X24322821Y-50685692D01*
X24306495Y-50634440D01*
X24279891Y-50589798D01*
X24242294Y-50550664D01*
X24197598Y-50520297D01*
X24144490Y-50497750D01*
X24081358Y-50483402D01*
X24006209Y-50478288D01*
X23945374Y-50481458D01*
X23886095Y-50490906D01*
X23828046Y-50506645D01*
X23772007Y-50528429D01*
X23720296Y-50555467D01*
X23672524Y-50587813D01*
X23766991Y-50723771D01*
X23831892Y-50680059D01*
X23894097Y-50650588D01*
X23954407Y-50633626D01*
X24013737Y-50628095D01*
X24056545Y-50631706D01*
X24090361Y-50641632D01*
X24117052Y-50657056D01*
X24138471Y-50678501D01*
X24150700Y-50702098D01*
X24154806Y-50728827D01*
X24151611Y-50754418D01*
X24142575Y-50775018D01*
X24127713Y-50791805D01*
X24097569Y-50811342D01*
X24056602Y-50827031D01*
X23960266Y-50850331D01*
X23855138Y-50876819D01*
X23804007Y-50895399D01*
X23758143Y-50918970D01*
X23718488Y-50950118D01*
X23687032Y-50991345D01*
X23672568Y-51023097D01*
X23663282Y-51061826D01*
X23659939Y-51109058D01*
X23664780Y-51162350D01*
X23678878Y-51210276D01*
X23702144Y-51253918D01*
X23733488Y-51292321D01*
X23772396Y-51324976D01*
X23819857Y-51352122D01*
X23871360Y-51371221D01*
X23929736Y-51383168D01*
X23996152Y-51387348D01*
G37*
G36*
X23336531Y-51373500D02*
G01*
X23336531Y-50646999D01*
X23599709Y-50646999D01*
X23599709Y-50492137D01*
X22889530Y-50492137D01*
X22889530Y-50646999D01*
X23152708Y-50646999D01*
X23152708Y-51373500D01*
X23336531Y-51373500D01*
G37*
G36*
X30751448Y-47787348D02*
G01*
X30816361Y-47783830D01*
X30877469Y-47773491D01*
X30935272Y-47756519D01*
X30990951Y-47733116D01*
X31047528Y-47702473D01*
X31105246Y-47663975D01*
X31012043Y-47525434D01*
X30931467Y-47579533D01*
X30869821Y-47611109D01*
X30808614Y-47630076D01*
X30747657Y-47636278D01*
X30702419Y-47632458D01*
X30666311Y-47621912D01*
X30637472Y-47605448D01*
X30614442Y-47582443D01*
X30601085Y-47556176D01*
X30596531Y-47525434D01*
X30599673Y-47498911D01*
X30608539Y-47477486D01*
X30623019Y-47459983D01*
X30652633Y-47439321D01*
X30692922Y-47422834D01*
X30787993Y-47398929D01*
X30891857Y-47373759D01*
X30942245Y-47356114D01*
X30987534Y-47332818D01*
X31026612Y-47301916D01*
X31057381Y-47261707D01*
X31071436Y-47230769D01*
X31080523Y-47192485D01*
X31083814Y-47145203D01*
X31078118Y-47085692D01*
X31061791Y-47034440D01*
X31035187Y-46989798D01*
X30997590Y-46950664D01*
X30952895Y-46920297D01*
X30899787Y-46897750D01*
X30836655Y-46883402D01*
X30761505Y-46878288D01*
X30700670Y-46881458D01*
X30641392Y-46890906D01*
X30583342Y-46906645D01*
X30527304Y-46928429D01*
X30475592Y-46955467D01*
X30427821Y-46987813D01*
X30522288Y-47123771D01*
X30587189Y-47080059D01*
X30649393Y-47050588D01*
X30709703Y-47033626D01*
X30769034Y-47028095D01*
X30811841Y-47031706D01*
X30845658Y-47041632D01*
X30872349Y-47057056D01*
X30893768Y-47078501D01*
X30905997Y-47102098D01*
X30910102Y-47128827D01*
X30906908Y-47154418D01*
X30897872Y-47175018D01*
X30883010Y-47191805D01*
X30852866Y-47211342D01*
X30811898Y-47227031D01*
X30715563Y-47250331D01*
X30610435Y-47276819D01*
X30559304Y-47295399D01*
X30513440Y-47318970D01*
X30473785Y-47350118D01*
X30442329Y-47391345D01*
X30427864Y-47423097D01*
X30418578Y-47461826D01*
X30415236Y-47509058D01*
X30420076Y-47562350D01*
X30434174Y-47610276D01*
X30457441Y-47653918D01*
X30488784Y-47692321D01*
X30527692Y-47724976D01*
X30575154Y-47752122D01*
X30626657Y-47771221D01*
X30685032Y-47783168D01*
X30751448Y-47787348D01*
G37*
G36*
X30378911Y-48036677D02*
G01*
X29873988Y-46892137D01*
X29707805Y-46892137D01*
X30212728Y-48036677D01*
X30378911Y-48036677D01*
G37*
G36*
X29553107Y-47773500D02*
G01*
X29553107Y-46892137D01*
X29374285Y-46892137D01*
X29087202Y-47448663D01*
X29089730Y-46892137D01*
X28936132Y-46892137D01*
X28936132Y-47773500D01*
X29102315Y-47773500D01*
X29401982Y-47196806D01*
X29399509Y-47773500D01*
X29553107Y-47773500D01*
G37*
D11*
G36*
X80085030Y-44815000D02*
G01*
X80085030Y-43835708D01*
X79423315Y-43835708D01*
X79423315Y-44007777D01*
X79880782Y-44007777D01*
X79880782Y-44244204D01*
X79579997Y-44244204D01*
X79579997Y-44412060D01*
X79880782Y-44412060D01*
X79880782Y-44815000D01*
X80085030Y-44815000D01*
G37*
G36*
X79250025Y-44815000D02*
G01*
X79250025Y-43835708D01*
X79045777Y-43835708D01*
X79045777Y-44642930D01*
X78586906Y-44642930D01*
X78586906Y-44815000D01*
X79250025Y-44815000D01*
G37*
G36*
X78518518Y-44815000D02*
G01*
X78321292Y-44815000D01*
X78261147Y-44600921D01*
X77957553Y-44600921D01*
X77897408Y-44815000D01*
X77693099Y-44815000D01*
X77805297Y-44442834D01*
X78000906Y-44442834D01*
X78217733Y-44442834D01*
X78108617Y-44058152D01*
X78000906Y-44442834D01*
X77805297Y-44442834D01*
X77988328Y-43835708D01*
X78224755Y-43835708D01*
X78518518Y-44815000D01*
G37*
G36*
X77262438Y-44830387D02*
G01*
X77334563Y-44826478D01*
X77402460Y-44814990D01*
X77466686Y-44796132D01*
X77528552Y-44770129D01*
X77591415Y-44736081D01*
X77655547Y-44693306D01*
X77551988Y-44539371D01*
X77462458Y-44599481D01*
X77393963Y-44634565D01*
X77325955Y-44655640D01*
X77258225Y-44662531D01*
X77207961Y-44658287D01*
X77167840Y-44646569D01*
X77135798Y-44628276D01*
X77110209Y-44602715D01*
X77095368Y-44573529D01*
X77090308Y-44539371D01*
X77093798Y-44509902D01*
X77103650Y-44486096D01*
X77119739Y-44466648D01*
X77152642Y-44443691D01*
X77197408Y-44425371D01*
X77303043Y-44398810D01*
X77418448Y-44370844D01*
X77474434Y-44351237D01*
X77524755Y-44325354D01*
X77568175Y-44291018D01*
X77602363Y-44246341D01*
X77617980Y-44211965D01*
X77628076Y-44169428D01*
X77631733Y-44116892D01*
X77625404Y-44050769D01*
X77607263Y-43993823D01*
X77577703Y-43944220D01*
X77535929Y-43900737D01*
X77486267Y-43866997D01*
X77427258Y-43841944D01*
X77357112Y-43826002D01*
X77273612Y-43820321D01*
X77206018Y-43823842D01*
X77140152Y-43834340D01*
X77075653Y-43851828D01*
X77013388Y-43876032D01*
X76955931Y-43906075D01*
X76902851Y-43942015D01*
X77007815Y-44093079D01*
X77079927Y-44044510D01*
X77149043Y-44011765D01*
X77216054Y-43992918D01*
X77281977Y-43986772D01*
X77329541Y-43990784D01*
X77367115Y-44001813D01*
X77396771Y-44018951D01*
X77420571Y-44042779D01*
X77434158Y-44068997D01*
X77438720Y-44098696D01*
X77435170Y-44127131D01*
X77425130Y-44150020D01*
X77408617Y-44168672D01*
X77375124Y-44190380D01*
X77329605Y-44207812D01*
X77222565Y-44233702D01*
X77105756Y-44263133D01*
X77048944Y-44283777D01*
X76997984Y-44309966D01*
X76953923Y-44344575D01*
X76918971Y-44390383D01*
X76902900Y-44425664D01*
X76892582Y-44468696D01*
X76888868Y-44521175D01*
X76894247Y-44580389D01*
X76909911Y-44633640D01*
X76935763Y-44682131D01*
X76970589Y-44724802D01*
X77013820Y-44761085D01*
X77066555Y-44791247D01*
X77123780Y-44812468D01*
X77188642Y-44825742D01*
X77262438Y-44830387D01*
G37*
G36*
X76772975Y-44815000D02*
G01*
X76772975Y-43835708D01*
X76568727Y-43835708D01*
X76568727Y-44231625D01*
X76286077Y-44231625D01*
X76286077Y-43835708D01*
X76081829Y-43835708D01*
X76081829Y-44815000D01*
X76286077Y-44815000D01*
X76286077Y-44412060D01*
X76568727Y-44412060D01*
X76568727Y-44815000D01*
X76772975Y-44815000D01*
G37*
G36*
X75588153Y-44828982D02*
G01*
X75623870Y-44824567D01*
X75655231Y-44811655D01*
X75683347Y-44789842D01*
X75705234Y-44761755D01*
X75718110Y-44730842D01*
X75722487Y-44696053D01*
X75718058Y-44660401D01*
X75705137Y-44629316D01*
X75683347Y-44601653D01*
X75655278Y-44580243D01*
X75623915Y-44567536D01*
X75588153Y-44563185D01*
X75552434Y-44567535D01*
X75521111Y-44580242D01*
X75493082Y-44601653D01*
X75471255Y-44629321D01*
X75458315Y-44660405D01*
X75453881Y-44696053D01*
X75458263Y-44730838D01*
X75471157Y-44761751D01*
X75493082Y-44789842D01*
X75521159Y-44811656D01*
X75552479Y-44824568D01*
X75588153Y-44828982D01*
G37*
G36*
X75588153Y-44323949D02*
G01*
X75623870Y-44319534D01*
X75655231Y-44306621D01*
X75683347Y-44284809D01*
X75705234Y-44256722D01*
X75718110Y-44225809D01*
X75722487Y-44191020D01*
X75718058Y-44155368D01*
X75705137Y-44124283D01*
X75683347Y-44096620D01*
X75655278Y-44075210D01*
X75623915Y-44062503D01*
X75588153Y-44058152D01*
X75552434Y-44062502D01*
X75521111Y-44075209D01*
X75493082Y-44096620D01*
X75471255Y-44124288D01*
X75458315Y-44155372D01*
X75453881Y-44191020D01*
X75458263Y-44225805D01*
X75471157Y-44256717D01*
X75493082Y-44284809D01*
X75521159Y-44306623D01*
X75552479Y-44319535D01*
X75588153Y-44323949D01*
G37*
G36*
X74231506Y-44815000D02*
G01*
X74231506Y-43814703D01*
X74038432Y-43783928D01*
X74038432Y-44205003D01*
X73993579Y-44155108D01*
X73943784Y-44120763D01*
X73888001Y-44100164D01*
X73824414Y-44093079D01*
X73777680Y-44096744D01*
X73736001Y-44107338D01*
X73698507Y-44124586D01*
X73664749Y-44148287D01*
X73636436Y-44177264D01*
X73613144Y-44212025D01*
X73596314Y-44250391D01*
X73585956Y-44293015D01*
X73582370Y-44340741D01*
X73582370Y-44815000D01*
X73775444Y-44815000D01*
X73775444Y-44396673D01*
X73779957Y-44351454D01*
X73792523Y-44315288D01*
X73812508Y-44286214D01*
X73839575Y-44263964D01*
X73872346Y-44250395D01*
X73912525Y-44245608D01*
X73961853Y-44252445D01*
X74003150Y-44272234D01*
X74038432Y-44305753D01*
X74038432Y-44815000D01*
X74231506Y-44815000D01*
G37*
G36*
X73138210Y-44098615D02*
G01*
X73199871Y-44114772D01*
X73256611Y-44141378D01*
X73307852Y-44177509D01*
X73351015Y-44221130D01*
X73386731Y-44272903D01*
X73412894Y-44330047D01*
X73428828Y-44392378D01*
X73434298Y-44461031D01*
X73428863Y-44528798D01*
X73412962Y-44590953D01*
X73386731Y-44648548D01*
X73350981Y-44700709D01*
X73307813Y-44744544D01*
X73256611Y-44780744D01*
X73199874Y-44807315D01*
X73138213Y-44823453D01*
X73070498Y-44828982D01*
X73002823Y-44823454D01*
X72941182Y-44807317D01*
X72884446Y-44780744D01*
X72833244Y-44744544D01*
X72790076Y-44700709D01*
X72754325Y-44648548D01*
X72728095Y-44590953D01*
X72712193Y-44528798D01*
X72706759Y-44461031D01*
X72894216Y-44461031D01*
X72900110Y-44518901D01*
X72916829Y-44567203D01*
X72943919Y-44607943D01*
X72980220Y-44639908D01*
X73021814Y-44658787D01*
X73070498Y-44665279D01*
X73119222Y-44658786D01*
X73160836Y-44639905D01*
X73197138Y-44607943D01*
X73224192Y-44567207D01*
X73240892Y-44518905D01*
X73246780Y-44461031D01*
X73240909Y-44403183D01*
X73224222Y-44354635D01*
X73197138Y-44313447D01*
X73160782Y-44281041D01*
X73119170Y-44261939D01*
X73070498Y-44255378D01*
X73021866Y-44261937D01*
X72980274Y-44281037D01*
X72943919Y-44313447D01*
X72916800Y-44354639D01*
X72900093Y-44403187D01*
X72894216Y-44461031D01*
X72706759Y-44461031D01*
X72712229Y-44392378D01*
X72728163Y-44330047D01*
X72754325Y-44272903D01*
X72790041Y-44221130D01*
X72833205Y-44177509D01*
X72884446Y-44141378D01*
X72941185Y-44114770D01*
X73002826Y-44098613D01*
X73070498Y-44093079D01*
X73138210Y-44098615D01*
G37*
G36*
X72063423Y-44828982D02*
G01*
X72144435Y-44822628D01*
X72207429Y-44805321D01*
X72256156Y-44778797D01*
X72293405Y-44743456D01*
X72320729Y-44698317D01*
X72338245Y-44641150D01*
X72344608Y-44568742D01*
X72344608Y-43947632D01*
X72595079Y-43947632D01*
X72595079Y-43797911D01*
X72151534Y-43797911D01*
X72151534Y-44549202D01*
X72147706Y-44589179D01*
X72137554Y-44617826D01*
X72122164Y-44638046D01*
X72100851Y-44652254D01*
X72071008Y-44661712D01*
X72029840Y-44665279D01*
X71966215Y-44659722D01*
X71934245Y-44651996D01*
X71896911Y-44638717D01*
X71896911Y-44796803D01*
X71927496Y-44808029D01*
X71971832Y-44819152D01*
X72018520Y-44826565D01*
X72063423Y-44828982D01*
G37*
G36*
X71259193Y-43813299D02*
G01*
X71259193Y-44171420D01*
X71298065Y-44137872D01*
X71341014Y-44113412D01*
X71387841Y-44098208D01*
X71438223Y-44093079D01*
X71496482Y-44098524D01*
X71550249Y-44114567D01*
X71600583Y-44141378D01*
X71645346Y-44177067D01*
X71683708Y-44220612D01*
X71715988Y-44272903D01*
X71739388Y-44329761D01*
X71753694Y-44391673D01*
X71758608Y-44459626D01*
X71753693Y-44527620D01*
X71739386Y-44589552D01*
X71715988Y-44646411D01*
X71683755Y-44698715D01*
X71645608Y-44742257D01*
X71601255Y-44777936D01*
X71551409Y-44804743D01*
X71498349Y-44820750D01*
X71441032Y-44826174D01*
X71386272Y-44820640D01*
X71337584Y-44804534D01*
X71293639Y-44777826D01*
X71253575Y-44739467D01*
X71253575Y-44815000D01*
X71067523Y-44815000D01*
X71067523Y-44305753D01*
X71259193Y-44305753D01*
X71259193Y-44613560D01*
X71298578Y-44645459D01*
X71343223Y-44664391D01*
X71394870Y-44670896D01*
X71445235Y-44664147D01*
X71486969Y-44644740D01*
X71522181Y-44612156D01*
X71547919Y-44570586D01*
X71564020Y-44520469D01*
X71569748Y-44459626D01*
X71564019Y-44398784D01*
X71547917Y-44348689D01*
X71522181Y-44307158D01*
X71486969Y-44274574D01*
X71445235Y-44255166D01*
X71394870Y-44248417D01*
X71356661Y-44252286D01*
X71320742Y-44263804D01*
X71287796Y-44282029D01*
X71259193Y-44305753D01*
X71067523Y-44305753D01*
X71067523Y-43783928D01*
X71259193Y-43813299D01*
G37*
G36*
X70024240Y-44815000D02*
G01*
X69668867Y-44815000D01*
X69605277Y-44810883D01*
X69548731Y-44799052D01*
X69498202Y-44780012D01*
X69451621Y-44753169D01*
X69413478Y-44721063D01*
X69382797Y-44683475D01*
X69360031Y-44640825D01*
X69346248Y-44594076D01*
X69341520Y-44542180D01*
X69343655Y-44522580D01*
X69544364Y-44522580D01*
X69549110Y-44560878D01*
X69562628Y-44592295D01*
X69584969Y-44618445D01*
X69613886Y-44637735D01*
X69649216Y-44649799D01*
X69692680Y-44654105D01*
X69824144Y-44654105D01*
X69824144Y-44391116D01*
X69692680Y-44391116D01*
X69649216Y-44395422D01*
X69613886Y-44407485D01*
X69584969Y-44426775D01*
X69562625Y-44452924D01*
X69549108Y-44484323D01*
X69544364Y-44522580D01*
X69343655Y-44522580D01*
X69347119Y-44490784D01*
X69363572Y-44444345D01*
X69391224Y-44401618D01*
X69427393Y-44365166D01*
X69471061Y-44335597D01*
X69523359Y-44312775D01*
X69480113Y-44289068D01*
X69443769Y-44260234D01*
X69413572Y-44226069D01*
X69390711Y-44187034D01*
X69376985Y-44144452D01*
X69374384Y-44118297D01*
X69573734Y-44118297D01*
X69578102Y-44152949D01*
X69590640Y-44181865D01*
X69611531Y-44206407D01*
X69638457Y-44224628D01*
X69671062Y-44235962D01*
X69710876Y-44239991D01*
X69824144Y-44239991D01*
X69824144Y-43996542D01*
X69710876Y-43996542D01*
X69670116Y-44000545D01*
X69637346Y-44011704D01*
X69610859Y-44029453D01*
X69590473Y-44053535D01*
X69578093Y-44082641D01*
X69573734Y-44118297D01*
X69374384Y-44118297D01*
X69372295Y-44097292D01*
X69376873Y-44047238D01*
X69390196Y-44002360D01*
X69412167Y-43961615D01*
X69441789Y-43925757D01*
X69478766Y-43895043D01*
X69524092Y-43869291D01*
X69573182Y-43851018D01*
X69628114Y-43839660D01*
X69689871Y-43835708D01*
X70024240Y-43835708D01*
X70024240Y-44815000D01*
G37*
G36*
X68944463Y-43826938D02*
G01*
X69009103Y-43846443D01*
X69069617Y-43879061D01*
X69122763Y-43922943D01*
X69169350Y-43979432D01*
X69209507Y-44050458D01*
X69237613Y-44127279D01*
X69255562Y-44218064D01*
X69261958Y-44325354D01*
X69255562Y-44432643D01*
X69237613Y-44523428D01*
X69209507Y-44600249D01*
X69169356Y-44671239D01*
X69122769Y-44727731D01*
X69069617Y-44771646D01*
X69009103Y-44804264D01*
X68944463Y-44823769D01*
X68874406Y-44830387D01*
X68804389Y-44823770D01*
X68739769Y-44804267D01*
X68679256Y-44771646D01*
X68626103Y-44727731D01*
X68579517Y-44671239D01*
X68539366Y-44600249D01*
X68511260Y-44523428D01*
X68493310Y-44432643D01*
X68486914Y-44325354D01*
X68692567Y-44325354D01*
X68696607Y-44409132D01*
X68707578Y-44475568D01*
X68724045Y-44527675D01*
X68745018Y-44568070D01*
X68774564Y-44605071D01*
X68805551Y-44629579D01*
X68838484Y-44643745D01*
X68874406Y-44648487D01*
X68910359Y-44643743D01*
X68943313Y-44629575D01*
X68974309Y-44605066D01*
X69003854Y-44568070D01*
X69024828Y-44527675D01*
X69041295Y-44475568D01*
X69052266Y-44409132D01*
X69056306Y-44325354D01*
X69052266Y-44241575D01*
X69041295Y-44175139D01*
X69024828Y-44123033D01*
X69003854Y-44082637D01*
X68974305Y-44045609D01*
X68943308Y-44021083D01*
X68910356Y-44006906D01*
X68874406Y-44002159D01*
X68838488Y-44006904D01*
X68805556Y-44021078D01*
X68774568Y-44045604D01*
X68745018Y-44082637D01*
X68724045Y-44123033D01*
X68707578Y-44175139D01*
X68696607Y-44241575D01*
X68692567Y-44325354D01*
X68486914Y-44325354D01*
X68493310Y-44218064D01*
X68511260Y-44127279D01*
X68539366Y-44050458D01*
X68579523Y-43979432D01*
X68626110Y-43922943D01*
X68679256Y-43879061D01*
X68739769Y-43846441D01*
X68804389Y-43826937D01*
X68874406Y-43820321D01*
X68944463Y-43826938D01*
G37*
G36*
X68105245Y-43826938D02*
G01*
X68169885Y-43846443D01*
X68230398Y-43879061D01*
X68283544Y-43922943D01*
X68330131Y-43979432D01*
X68370288Y-44050458D01*
X68398394Y-44127279D01*
X68416344Y-44218064D01*
X68422740Y-44325354D01*
X68416344Y-44432643D01*
X68398394Y-44523428D01*
X68370288Y-44600249D01*
X68330137Y-44671239D01*
X68283551Y-44727731D01*
X68230398Y-44771646D01*
X68169885Y-44804264D01*
X68105245Y-44823769D01*
X68035187Y-44830387D01*
X67965170Y-44823770D01*
X67900550Y-44804267D01*
X67840037Y-44771646D01*
X67786885Y-44727731D01*
X67740298Y-44671239D01*
X67700147Y-44600249D01*
X67672041Y-44523428D01*
X67654092Y-44432643D01*
X67647696Y-44325354D01*
X67853348Y-44325354D01*
X67857388Y-44409132D01*
X67868359Y-44475568D01*
X67884826Y-44527675D01*
X67905800Y-44568070D01*
X67935346Y-44605071D01*
X67966332Y-44629579D01*
X67999266Y-44643745D01*
X68035187Y-44648487D01*
X68071141Y-44643743D01*
X68104094Y-44629575D01*
X68135090Y-44605066D01*
X68164636Y-44568070D01*
X68185609Y-44527675D01*
X68202076Y-44475568D01*
X68213047Y-44409132D01*
X68217087Y-44325354D01*
X68213047Y-44241575D01*
X68202076Y-44175139D01*
X68185609Y-44123033D01*
X68164636Y-44082637D01*
X68135087Y-44045609D01*
X68104089Y-44021083D01*
X68071137Y-44006906D01*
X68035187Y-44002159D01*
X67999269Y-44006904D01*
X67966337Y-44021078D01*
X67935349Y-44045604D01*
X67905800Y-44082637D01*
X67884826Y-44123033D01*
X67868359Y-44175139D01*
X67857388Y-44241575D01*
X67853348Y-44325354D01*
X67647696Y-44325354D01*
X67654092Y-44218064D01*
X67672041Y-44127279D01*
X67700147Y-44050458D01*
X67740304Y-43979432D01*
X67786891Y-43922943D01*
X67840037Y-43879061D01*
X67900550Y-43846441D01*
X67965170Y-43826937D01*
X68035187Y-43820321D01*
X68105245Y-43826938D01*
G37*
G36*
X67298123Y-44815000D02*
G01*
X67298123Y-44007777D01*
X67590543Y-44007777D01*
X67590543Y-43835708D01*
X66801456Y-43835708D01*
X66801456Y-44007777D01*
X67093875Y-44007777D01*
X67093875Y-44815000D01*
X67298123Y-44815000D01*
G37*
G36*
X65517532Y-44529602D02*
G01*
X65553294Y-44525251D01*
X65584657Y-44512544D01*
X65612726Y-44491133D01*
X65634512Y-44463469D01*
X65647435Y-44432366D01*
X65651866Y-44396673D01*
X65647489Y-44361926D01*
X65634614Y-44331054D01*
X65612726Y-44303005D01*
X65584605Y-44281157D01*
X65553245Y-44268225D01*
X65517532Y-44263804D01*
X65481862Y-44268225D01*
X65450542Y-44281156D01*
X65422460Y-44303005D01*
X65400535Y-44331058D01*
X65387642Y-44361930D01*
X65383259Y-44396673D01*
X65387696Y-44432361D01*
X65400637Y-44463465D01*
X65422460Y-44491133D01*
X65450490Y-44512545D01*
X65481813Y-44525251D01*
X65517532Y-44529602D01*
G37*
G36*
X63709036Y-44828982D02*
G01*
X63792823Y-44822714D01*
X63857580Y-44805714D01*
X63907257Y-44779839D01*
X63944860Y-44745679D01*
X63972177Y-44702475D01*
X63989554Y-44648236D01*
X63995838Y-44579977D01*
X63995838Y-44253974D01*
X64212665Y-44253974D01*
X64212665Y-44104314D01*
X63995838Y-44104314D01*
X63995838Y-43907027D01*
X63802764Y-43866482D01*
X63802764Y-44104314D01*
X63518771Y-44104314D01*
X63518771Y-44253974D01*
X63802764Y-44253974D01*
X63802764Y-44543585D01*
X63798820Y-44587458D01*
X63788563Y-44617714D01*
X63773394Y-44638046D01*
X63751948Y-44652059D01*
X63720484Y-44661609D01*
X63675452Y-44665279D01*
X63605477Y-44660394D01*
X63514557Y-44640122D01*
X63514557Y-44798208D01*
X63610362Y-44819884D01*
X63662155Y-44826790D01*
X63709036Y-44828982D01*
G37*
G36*
X63076714Y-44097589D02*
G01*
X63154543Y-44111275D01*
X63232292Y-44134432D01*
X63317453Y-44170076D01*
X63247539Y-44307158D01*
X63163534Y-44273953D01*
X63095502Y-44256403D01*
X63040482Y-44251165D01*
X62979834Y-44257353D01*
X62938084Y-44273557D01*
X62910047Y-44297994D01*
X62892863Y-44331463D01*
X62886609Y-44377133D01*
X62886609Y-44444239D01*
X62949135Y-44421287D01*
X63009068Y-44408015D01*
X63067043Y-44403695D01*
X63132867Y-44407683D01*
X63187589Y-44418792D01*
X63233005Y-44436053D01*
X63270620Y-44458954D01*
X63302868Y-44489297D01*
X63325471Y-44524039D01*
X63339267Y-44564054D01*
X63344076Y-44610751D01*
X63340353Y-44652673D01*
X63329573Y-44689927D01*
X63311897Y-44723408D01*
X63288037Y-44752992D01*
X63258647Y-44778330D01*
X63223054Y-44799612D01*
X63163503Y-44820340D01*
X63093666Y-44827578D01*
X63038111Y-44822409D01*
X62985650Y-44807038D01*
X62935375Y-44781121D01*
X62886609Y-44743620D01*
X62886609Y-44815000D01*
X62696283Y-44815000D01*
X62696283Y-44547798D01*
X62886609Y-44547798D01*
X62886609Y-44645739D01*
X62931651Y-44673615D01*
X62981100Y-44690333D01*
X63036269Y-44696053D01*
X63091061Y-44689597D01*
X63129997Y-44672301D01*
X63149695Y-44654236D01*
X63161086Y-44633146D01*
X63164985Y-44607943D01*
X63160950Y-44581932D01*
X63149304Y-44560900D01*
X63129325Y-44543585D01*
X63089584Y-44527350D01*
X63032056Y-44521175D01*
X62957844Y-44527846D01*
X62886609Y-44547798D01*
X62696283Y-44547798D01*
X62696283Y-44358937D01*
X62701761Y-44296188D01*
X62717215Y-44243728D01*
X62741889Y-44199591D01*
X62776028Y-44162383D01*
X62817435Y-44133429D01*
X62867349Y-44111839D01*
X62927462Y-44098027D01*
X62999877Y-44093079D01*
X63076714Y-44097589D01*
G37*
G36*
X62166361Y-44098687D02*
G01*
X62215026Y-44115025D01*
X62259021Y-44142170D01*
X62299205Y-44181250D01*
X62299205Y-44104314D01*
X62486661Y-44104314D01*
X62486661Y-45107419D01*
X62293587Y-45107419D01*
X62293587Y-44747833D01*
X62255701Y-44781323D01*
X62212438Y-44805901D01*
X62165030Y-44821073D01*
X62114496Y-44826174D01*
X62056276Y-44820735D01*
X62002549Y-44804711D01*
X61952258Y-44777936D01*
X61907451Y-44742209D01*
X61869070Y-44698662D01*
X61836792Y-44646411D01*
X61813360Y-44589549D01*
X61799033Y-44527618D01*
X61794111Y-44459626D01*
X61983033Y-44459626D01*
X61988760Y-44520469D01*
X62004861Y-44570586D01*
X62030599Y-44612156D01*
X62065812Y-44644740D01*
X62107545Y-44664147D01*
X62157911Y-44670896D01*
X62208676Y-44664459D01*
X62253369Y-44645584D01*
X62293587Y-44613560D01*
X62293587Y-44305753D01*
X62254166Y-44273849D01*
X62209519Y-44254919D01*
X62157911Y-44248417D01*
X62107545Y-44255166D01*
X62065812Y-44274574D01*
X62030599Y-44307158D01*
X62004863Y-44348689D01*
X61988762Y-44398784D01*
X61983033Y-44459626D01*
X61794111Y-44459626D01*
X61799032Y-44391676D01*
X61813358Y-44329764D01*
X61836792Y-44272903D01*
X61869031Y-44220563D01*
X61907178Y-44177023D01*
X61951525Y-44141378D01*
X62001374Y-44114533D01*
X62054414Y-44098507D01*
X62111688Y-44093079D01*
X62166361Y-44098687D01*
G37*
G36*
X60805416Y-44815000D02*
G01*
X60601168Y-44815000D01*
X60601168Y-44440087D01*
X60487839Y-44440087D01*
X60301787Y-44815000D01*
X60084899Y-44815000D01*
X60296169Y-44409312D01*
X60244397Y-44381717D01*
X60200860Y-44346653D01*
X60164645Y-44303677D01*
X60137680Y-44254591D01*
X60121310Y-44200241D01*
X60115928Y-44142049D01*
X60322731Y-44142049D01*
X60327480Y-44181291D01*
X60341013Y-44213651D01*
X60363336Y-44240724D01*
X60392358Y-44260827D01*
X60427687Y-44273335D01*
X60471047Y-44277787D01*
X60601168Y-44277787D01*
X60601168Y-44004968D01*
X60471047Y-44004968D01*
X60427741Y-44009496D01*
X60392412Y-44022236D01*
X60363336Y-44042765D01*
X60340991Y-44070209D01*
X60327466Y-44102789D01*
X60322731Y-44142049D01*
X60115928Y-44142049D01*
X60115674Y-44139302D01*
X60120725Y-44079929D01*
X60135305Y-44027409D01*
X60159088Y-43980483D01*
X60191353Y-43938750D01*
X60230718Y-43903440D01*
X60277973Y-43874176D01*
X60329622Y-43853223D01*
X60387535Y-43840229D01*
X60452851Y-43835708D01*
X60805416Y-43835708D01*
X60805416Y-44815000D01*
G37*
G36*
X59638851Y-44830387D02*
G01*
X59710976Y-44826478D01*
X59778874Y-44814990D01*
X59843099Y-44796132D01*
X59904965Y-44770129D01*
X59967828Y-44736081D01*
X60031960Y-44693306D01*
X59928401Y-44539371D01*
X59838872Y-44599481D01*
X59770376Y-44634565D01*
X59702368Y-44655640D01*
X59634638Y-44662531D01*
X59584374Y-44658287D01*
X59544253Y-44646569D01*
X59512211Y-44628276D01*
X59486622Y-44602715D01*
X59471781Y-44573529D01*
X59466721Y-44539371D01*
X59470211Y-44509902D01*
X59480063Y-44486096D01*
X59496152Y-44466648D01*
X59529055Y-44443691D01*
X59573821Y-44425371D01*
X59679456Y-44398810D01*
X59794861Y-44370844D01*
X59850847Y-44351237D01*
X59901168Y-44325354D01*
X59944588Y-44291018D01*
X59978776Y-44246341D01*
X59994393Y-44211965D01*
X60004489Y-44169428D01*
X60008146Y-44116892D01*
X60001817Y-44050769D01*
X59983676Y-43993823D01*
X59954116Y-43944220D01*
X59912342Y-43900737D01*
X59862680Y-43866997D01*
X59803671Y-43841944D01*
X59733525Y-43826002D01*
X59650025Y-43820321D01*
X59582431Y-43823842D01*
X59516565Y-43834340D01*
X59452066Y-43851828D01*
X59389801Y-43876032D01*
X59332344Y-43906075D01*
X59279264Y-43942015D01*
X59384228Y-44093079D01*
X59456340Y-44044510D01*
X59525456Y-44011765D01*
X59592467Y-43992918D01*
X59658390Y-43986772D01*
X59705954Y-43990784D01*
X59743528Y-44001813D01*
X59773184Y-44018951D01*
X59796984Y-44042779D01*
X59810571Y-44068997D01*
X59815133Y-44098696D01*
X59811583Y-44127131D01*
X59801543Y-44150020D01*
X59785030Y-44168672D01*
X59751537Y-44190380D01*
X59706018Y-44207812D01*
X59598978Y-44233702D01*
X59482169Y-44263133D01*
X59425357Y-44283777D01*
X59374397Y-44309966D01*
X59330336Y-44344575D01*
X59295384Y-44390383D01*
X59279313Y-44425664D01*
X59268995Y-44468696D01*
X59265281Y-44521175D01*
X59270660Y-44580389D01*
X59286324Y-44633640D01*
X59312176Y-44682131D01*
X59347002Y-44724802D01*
X59390233Y-44761085D01*
X59442968Y-44791247D01*
X59500193Y-44812468D01*
X59565055Y-44825742D01*
X59638851Y-44830387D01*
G37*
G36*
X58905939Y-44815000D02*
G01*
X58905939Y-44007777D01*
X59198359Y-44007777D01*
X59198359Y-43835708D01*
X58409271Y-43835708D01*
X58409271Y-44007777D01*
X58701691Y-44007777D01*
X58701691Y-44815000D01*
X58905939Y-44815000D01*
G37*
G36*
X57125348Y-44529602D02*
G01*
X57161109Y-44525251D01*
X57192473Y-44512544D01*
X57220541Y-44491133D01*
X57242328Y-44463469D01*
X57255251Y-44432366D01*
X57259681Y-44396673D01*
X57255305Y-44361926D01*
X57242430Y-44331054D01*
X57220541Y-44303005D01*
X57192421Y-44281157D01*
X57161061Y-44268225D01*
X57125348Y-44263804D01*
X57089677Y-44268225D01*
X57058358Y-44281156D01*
X57030276Y-44303005D01*
X57008351Y-44331058D01*
X56995457Y-44361930D01*
X56991075Y-44396673D01*
X56995511Y-44432361D01*
X57008453Y-44463465D01*
X57030276Y-44491133D01*
X57058306Y-44512545D01*
X57089629Y-44525251D01*
X57125348Y-44529602D01*
G37*
G36*
X55771510Y-44815000D02*
G01*
X55771510Y-44665279D01*
X55606401Y-44665279D01*
X55606401Y-44253974D01*
X55771510Y-44253974D01*
X55771510Y-44104314D01*
X55414732Y-44104314D01*
X55414732Y-44277787D01*
X55386421Y-44218880D01*
X55354203Y-44173448D01*
X55318256Y-44139302D01*
X55276164Y-44113650D01*
X55230365Y-44098310D01*
X55179709Y-44093079D01*
X55127991Y-44097292D01*
X55077616Y-44114084D01*
X55077616Y-44286153D01*
X55142645Y-44268018D01*
X55213293Y-44260996D01*
X55274157Y-44268385D01*
X55330102Y-44290366D01*
X55363516Y-44312652D01*
X55391575Y-44340020D01*
X55414732Y-44372920D01*
X55414732Y-44665279D01*
X55239854Y-44665279D01*
X55239854Y-44815000D01*
X55771510Y-44815000D01*
G37*
G36*
X54671661Y-44098613D02*
G01*
X54732362Y-44114765D01*
X54788188Y-44141378D01*
X54838547Y-44177423D01*
X54881266Y-44221034D01*
X54916904Y-44272903D01*
X54943067Y-44330047D01*
X54959000Y-44392378D01*
X54964470Y-44461031D01*
X54958727Y-44528648D01*
X54941910Y-44590529D01*
X54914095Y-44647815D01*
X54876610Y-44699517D01*
X54831606Y-44743394D01*
X54778418Y-44780012D01*
X54719831Y-44807042D01*
X54656766Y-44823399D01*
X54588153Y-44828982D01*
X54501166Y-44821961D01*
X54424449Y-44801749D01*
X54377142Y-44780006D01*
X54331089Y-44749754D01*
X54285964Y-44710097D01*
X54410466Y-44598173D01*
X54443872Y-44631089D01*
X54482240Y-44654384D01*
X54526557Y-44668700D01*
X54578322Y-44673705D01*
X54626090Y-44668465D01*
X54668599Y-44653153D01*
X54707099Y-44627543D01*
X54738893Y-44593882D01*
X54761591Y-44554604D01*
X54775609Y-44508597D01*
X54245358Y-44508597D01*
X54245358Y-44463839D01*
X54250664Y-44393864D01*
X54424449Y-44393864D01*
X54772801Y-44393864D01*
X54758675Y-44350270D01*
X54738156Y-44314323D01*
X54711251Y-44284809D01*
X54678531Y-44262370D01*
X54641631Y-44248863D01*
X54599327Y-44244204D01*
X54557006Y-44248850D01*
X54519869Y-44262347D01*
X54486731Y-44284809D01*
X54459387Y-44314376D01*
X54438636Y-44350326D01*
X54424449Y-44393864D01*
X54250664Y-44393864D01*
X54250712Y-44393232D01*
X54266225Y-44329740D01*
X54291520Y-44272170D01*
X54326400Y-44219971D01*
X54368639Y-44176383D01*
X54418832Y-44140645D01*
X54474654Y-44114550D01*
X54536276Y-44098585D01*
X54604945Y-44093079D01*
X54671661Y-44098613D01*
G37*
G36*
X53600618Y-44828982D02*
G01*
X53681629Y-44822628D01*
X53744624Y-44805321D01*
X53793351Y-44778797D01*
X53830600Y-44743456D01*
X53857924Y-44698317D01*
X53875439Y-44641150D01*
X53881803Y-44568742D01*
X53881803Y-43947632D01*
X54132274Y-43947632D01*
X54132274Y-43797911D01*
X53688729Y-43797911D01*
X53688729Y-44549202D01*
X53684901Y-44589179D01*
X53674748Y-44617826D01*
X53659359Y-44638046D01*
X53638046Y-44652254D01*
X53608203Y-44661712D01*
X53567035Y-44665279D01*
X53503410Y-44659722D01*
X53471439Y-44651996D01*
X53434106Y-44638717D01*
X53434106Y-44796803D01*
X53464691Y-44808029D01*
X53509027Y-44819152D01*
X53555715Y-44826565D01*
X53600618Y-44828982D01*
G37*
G36*
X52993224Y-44098613D02*
G01*
X53053925Y-44114765D01*
X53109751Y-44141378D01*
X53160110Y-44177423D01*
X53202829Y-44221034D01*
X53238467Y-44272903D01*
X53264630Y-44330047D01*
X53280564Y-44392378D01*
X53286033Y-44461031D01*
X53280290Y-44528648D01*
X53263474Y-44590529D01*
X53235658Y-44647815D01*
X53198173Y-44699517D01*
X53153170Y-44743394D01*
X53099981Y-44780012D01*
X53041394Y-44807042D01*
X52978329Y-44823399D01*
X52909716Y-44828982D01*
X52822729Y-44821961D01*
X52746012Y-44801749D01*
X52698705Y-44780006D01*
X52652653Y-44749754D01*
X52607527Y-44710097D01*
X52732030Y-44598173D01*
X52765435Y-44631089D01*
X52803803Y-44654384D01*
X52848120Y-44668700D01*
X52899885Y-44673705D01*
X52947653Y-44668465D01*
X52990162Y-44653153D01*
X53028662Y-44627543D01*
X53060456Y-44593882D01*
X53083155Y-44554604D01*
X53097173Y-44508597D01*
X52566921Y-44508597D01*
X52566921Y-44463839D01*
X52572227Y-44393864D01*
X52746012Y-44393864D01*
X53094364Y-44393864D01*
X53080238Y-44350270D01*
X53059719Y-44314323D01*
X53032815Y-44284809D01*
X53000094Y-44262370D01*
X52963195Y-44248863D01*
X52920890Y-44244204D01*
X52878569Y-44248850D01*
X52841432Y-44262347D01*
X52808294Y-44284809D01*
X52780950Y-44314376D01*
X52760200Y-44350326D01*
X52746012Y-44393864D01*
X52572227Y-44393864D01*
X52572275Y-44393232D01*
X52587788Y-44329740D01*
X52613083Y-44272170D01*
X52647963Y-44219971D01*
X52690202Y-44176383D01*
X52740395Y-44140645D01*
X52796217Y-44114550D01*
X52857839Y-44098585D01*
X52926508Y-44093079D01*
X52993224Y-44098613D01*
G37*
G36*
X52166874Y-44097589D02*
G01*
X52244704Y-44111275D01*
X52322453Y-44134432D01*
X52407614Y-44170076D01*
X52337699Y-44307158D01*
X52253694Y-44273953D01*
X52185662Y-44256403D01*
X52130643Y-44251165D01*
X52069994Y-44257353D01*
X52028245Y-44273557D01*
X52000208Y-44297994D01*
X51983023Y-44331463D01*
X51976770Y-44377133D01*
X51976770Y-44444239D01*
X52039296Y-44421287D01*
X52099229Y-44408015D01*
X52157204Y-44403695D01*
X52223028Y-44407683D01*
X52277749Y-44418792D01*
X52323165Y-44436053D01*
X52360780Y-44458954D01*
X52393029Y-44489297D01*
X52415632Y-44524039D01*
X52429428Y-44564054D01*
X52434236Y-44610751D01*
X52430514Y-44652673D01*
X52419733Y-44689927D01*
X52402057Y-44723408D01*
X52378197Y-44752992D01*
X52348808Y-44778330D01*
X52313214Y-44799612D01*
X52253663Y-44820340D01*
X52183826Y-44827578D01*
X52128271Y-44822409D01*
X52075810Y-44807038D01*
X52025535Y-44781121D01*
X51976770Y-44743620D01*
X51976770Y-44815000D01*
X51786443Y-44815000D01*
X51786443Y-44547798D01*
X51976770Y-44547798D01*
X51976770Y-44645739D01*
X52021812Y-44673615D01*
X52071260Y-44690333D01*
X52126429Y-44696053D01*
X52181221Y-44689597D01*
X52220158Y-44672301D01*
X52239855Y-44654236D01*
X52251247Y-44633146D01*
X52255145Y-44607943D01*
X52251110Y-44581932D01*
X52239464Y-44560900D01*
X52219486Y-44543585D01*
X52179745Y-44527350D01*
X52122216Y-44521175D01*
X52048004Y-44527846D01*
X51976770Y-44547798D01*
X51786443Y-44547798D01*
X51786443Y-44358937D01*
X51791922Y-44296188D01*
X51807375Y-44243728D01*
X51832049Y-44199591D01*
X51866189Y-44162383D01*
X51907595Y-44133429D01*
X51957509Y-44111839D01*
X52017622Y-44098027D01*
X52090037Y-44093079D01*
X52166874Y-44097589D01*
G37*
G36*
X51256436Y-44828982D02*
G01*
X51354922Y-44822339D01*
X51443954Y-44803093D01*
X51500151Y-44782601D01*
X51549307Y-44757158D01*
X51592209Y-44726889D01*
X51501290Y-44602325D01*
X51427078Y-44643212D01*
X51369765Y-44666683D01*
X51313070Y-44680333D01*
X51255032Y-44684879D01*
X51189321Y-44679214D01*
X51144573Y-44664607D01*
X51120936Y-44648432D01*
X51108158Y-44630307D01*
X51103968Y-44609347D01*
X51107552Y-44589936D01*
X51118081Y-44574403D01*
X51136880Y-44561781D01*
X51172487Y-44548754D01*
X51222181Y-44538028D01*
X51332701Y-44519099D01*
X51389563Y-44505882D01*
X51442549Y-44487653D01*
X51490041Y-44461542D01*
X51527851Y-44426104D01*
X51545894Y-44397279D01*
X51557321Y-44361498D01*
X51561435Y-44316927D01*
X51555934Y-44264950D01*
X51540184Y-44220774D01*
X51514381Y-44182725D01*
X51477476Y-44149804D01*
X51434557Y-44124889D01*
X51384312Y-44106321D01*
X51325450Y-44094519D01*
X51256436Y-44090331D01*
X51174547Y-44096083D01*
X51093465Y-44113412D01*
X51015493Y-44142514D01*
X50941668Y-44184059D01*
X51035397Y-44304349D01*
X51091421Y-44271627D01*
X51147321Y-44250493D01*
X51204925Y-44238414D01*
X51262054Y-44234434D01*
X51319653Y-44239382D01*
X51357187Y-44251898D01*
X51376583Y-44265754D01*
X51387234Y-44281566D01*
X51390770Y-44300136D01*
X51387197Y-44318581D01*
X51376542Y-44333704D01*
X51357187Y-44346359D01*
X51320934Y-44359266D01*
X51271152Y-44369439D01*
X51159228Y-44387636D01*
X51101058Y-44400845D01*
X51047303Y-44419082D01*
X50999304Y-44445517D01*
X50961269Y-44482035D01*
X50943230Y-44511717D01*
X50931798Y-44548420D01*
X50927686Y-44593960D01*
X50932576Y-44639070D01*
X50946934Y-44679759D01*
X50971039Y-44717119D01*
X51002553Y-44749207D01*
X51041373Y-44776704D01*
X51088580Y-44799612D01*
X51138804Y-44815593D01*
X51194488Y-44825532D01*
X51256436Y-44828982D01*
G37*
G36*
X50475569Y-44098613D02*
G01*
X50536270Y-44114765D01*
X50592096Y-44141378D01*
X50642455Y-44177423D01*
X50685174Y-44221034D01*
X50720812Y-44272903D01*
X50746975Y-44330047D01*
X50762908Y-44392378D01*
X50768378Y-44461031D01*
X50762634Y-44528648D01*
X50745818Y-44590529D01*
X50718003Y-44647815D01*
X50680518Y-44699517D01*
X50635514Y-44743394D01*
X50582326Y-44780012D01*
X50523739Y-44807042D01*
X50460674Y-44823399D01*
X50392061Y-44828982D01*
X50305074Y-44821961D01*
X50228357Y-44801749D01*
X50181049Y-44780006D01*
X50134997Y-44749754D01*
X50089871Y-44710097D01*
X50214374Y-44598173D01*
X50247780Y-44631089D01*
X50286148Y-44654384D01*
X50330465Y-44668700D01*
X50382230Y-44673705D01*
X50429998Y-44668465D01*
X50472507Y-44653153D01*
X50511007Y-44627543D01*
X50542801Y-44593882D01*
X50565499Y-44554604D01*
X50579517Y-44508597D01*
X50049266Y-44508597D01*
X50049266Y-44463839D01*
X50054572Y-44393864D01*
X50228357Y-44393864D01*
X50576709Y-44393864D01*
X50562582Y-44350270D01*
X50542064Y-44314323D01*
X50515159Y-44284809D01*
X50482439Y-44262370D01*
X50445539Y-44248863D01*
X50403235Y-44244204D01*
X50360913Y-44248850D01*
X50323777Y-44262347D01*
X50290639Y-44284809D01*
X50263295Y-44314376D01*
X50242544Y-44350326D01*
X50228357Y-44393864D01*
X50054572Y-44393864D01*
X50054620Y-44393232D01*
X50070133Y-44329740D01*
X50095428Y-44272170D01*
X50130308Y-44219971D01*
X50172547Y-44176383D01*
X50222740Y-44140645D01*
X50278562Y-44114550D01*
X50340184Y-44098585D01*
X50408853Y-44093079D01*
X50475569Y-44098613D01*
G37*
G36*
X49043779Y-44815000D02*
G01*
X48688406Y-44815000D01*
X48624817Y-44810883D01*
X48568271Y-44799052D01*
X48517741Y-44780012D01*
X48471160Y-44753169D01*
X48433017Y-44721063D01*
X48402337Y-44683475D01*
X48379570Y-44640825D01*
X48365788Y-44594076D01*
X48361060Y-44542180D01*
X48363195Y-44522580D01*
X48563903Y-44522580D01*
X48568649Y-44560878D01*
X48582167Y-44592295D01*
X48604509Y-44618445D01*
X48633426Y-44637735D01*
X48668756Y-44649799D01*
X48712220Y-44654105D01*
X48843683Y-44654105D01*
X48843683Y-44391116D01*
X48712220Y-44391116D01*
X48668756Y-44395422D01*
X48633426Y-44407485D01*
X48604509Y-44426775D01*
X48582164Y-44452924D01*
X48568648Y-44484323D01*
X48563903Y-44522580D01*
X48363195Y-44522580D01*
X48366658Y-44490784D01*
X48383111Y-44444345D01*
X48410763Y-44401618D01*
X48446932Y-44365166D01*
X48490600Y-44335597D01*
X48542898Y-44312775D01*
X48499653Y-44289068D01*
X48463309Y-44260234D01*
X48433111Y-44226069D01*
X48410251Y-44187034D01*
X48396524Y-44144452D01*
X48393923Y-44118297D01*
X48593273Y-44118297D01*
X48597641Y-44152949D01*
X48610180Y-44181865D01*
X48631070Y-44206407D01*
X48657996Y-44224628D01*
X48690602Y-44235962D01*
X48730416Y-44239991D01*
X48843683Y-44239991D01*
X48843683Y-43996542D01*
X48730416Y-43996542D01*
X48689655Y-44000545D01*
X48656885Y-44011704D01*
X48630398Y-44029453D01*
X48610013Y-44053535D01*
X48597633Y-44082641D01*
X48593273Y-44118297D01*
X48393923Y-44118297D01*
X48391834Y-44097292D01*
X48396413Y-44047238D01*
X48409735Y-44002360D01*
X48431707Y-43961615D01*
X48461329Y-43925757D01*
X48498306Y-43895043D01*
X48543631Y-43869291D01*
X48592722Y-43851018D01*
X48647653Y-43839660D01*
X48709411Y-43835708D01*
X49043779Y-43835708D01*
X49043779Y-44815000D01*
G37*
G36*
X47964003Y-43826938D02*
G01*
X48028642Y-43846443D01*
X48089156Y-43879061D01*
X48142302Y-43922943D01*
X48188889Y-43979432D01*
X48229046Y-44050458D01*
X48257152Y-44127279D01*
X48275101Y-44218064D01*
X48281497Y-44325354D01*
X48275101Y-44432643D01*
X48257152Y-44523428D01*
X48229046Y-44600249D01*
X48188895Y-44671239D01*
X48142309Y-44727731D01*
X48089156Y-44771646D01*
X48028642Y-44804264D01*
X47964003Y-44823769D01*
X47893945Y-44830387D01*
X47823928Y-44823770D01*
X47759308Y-44804267D01*
X47698795Y-44771646D01*
X47645643Y-44727731D01*
X47599056Y-44671239D01*
X47558905Y-44600249D01*
X47530799Y-44523428D01*
X47512850Y-44432643D01*
X47506454Y-44325354D01*
X47712106Y-44325354D01*
X47716146Y-44409132D01*
X47727117Y-44475568D01*
X47743584Y-44527675D01*
X47764557Y-44568070D01*
X47794103Y-44605071D01*
X47825090Y-44629579D01*
X47858023Y-44643745D01*
X47893945Y-44648487D01*
X47929899Y-44643743D01*
X47962852Y-44629575D01*
X47993848Y-44605066D01*
X48023394Y-44568070D01*
X48044367Y-44527675D01*
X48060834Y-44475568D01*
X48071805Y-44409132D01*
X48075845Y-44325354D01*
X48071805Y-44241575D01*
X48060834Y-44175139D01*
X48044367Y-44123033D01*
X48023394Y-44082637D01*
X47993845Y-44045609D01*
X47962847Y-44021083D01*
X47929895Y-44006906D01*
X47893945Y-44002159D01*
X47858027Y-44006904D01*
X47825095Y-44021078D01*
X47794107Y-44045604D01*
X47764557Y-44082637D01*
X47743584Y-44123033D01*
X47727117Y-44175139D01*
X47716146Y-44241575D01*
X47712106Y-44325354D01*
X47506454Y-44325354D01*
X47512850Y-44218064D01*
X47530799Y-44127279D01*
X47558905Y-44050458D01*
X47599062Y-43979432D01*
X47645649Y-43922943D01*
X47698795Y-43879061D01*
X47759308Y-43846441D01*
X47823928Y-43826937D01*
X47893945Y-43820321D01*
X47964003Y-43826938D01*
G37*
G36*
X47124784Y-43826938D02*
G01*
X47189424Y-43846443D01*
X47249938Y-43879061D01*
X47303084Y-43922943D01*
X47349671Y-43979432D01*
X47389828Y-44050458D01*
X47417934Y-44127279D01*
X47435883Y-44218064D01*
X47442279Y-44325354D01*
X47435883Y-44432643D01*
X47417934Y-44523428D01*
X47389828Y-44600249D01*
X47349677Y-44671239D01*
X47303090Y-44727731D01*
X47249938Y-44771646D01*
X47189424Y-44804264D01*
X47124784Y-44823769D01*
X47054727Y-44830387D01*
X46984710Y-44823770D01*
X46920090Y-44804267D01*
X46859577Y-44771646D01*
X46806424Y-44727731D01*
X46759838Y-44671239D01*
X46719687Y-44600249D01*
X46691581Y-44523428D01*
X46673631Y-44432643D01*
X46667235Y-44325354D01*
X46872888Y-44325354D01*
X46876928Y-44409132D01*
X46887899Y-44475568D01*
X46904366Y-44527675D01*
X46925339Y-44568070D01*
X46954885Y-44605071D01*
X46985872Y-44629579D01*
X47018805Y-44643745D01*
X47054727Y-44648487D01*
X47090680Y-44643743D01*
X47123634Y-44629575D01*
X47154630Y-44605066D01*
X47184175Y-44568070D01*
X47205149Y-44527675D01*
X47221616Y-44475568D01*
X47232587Y-44409132D01*
X47236627Y-44325354D01*
X47232587Y-44241575D01*
X47221616Y-44175139D01*
X47205149Y-44123033D01*
X47184175Y-44082637D01*
X47154626Y-44045609D01*
X47123629Y-44021083D01*
X47090677Y-44006906D01*
X47054727Y-44002159D01*
X47018809Y-44006904D01*
X46985877Y-44021078D01*
X46954889Y-44045604D01*
X46925339Y-44082637D01*
X46904366Y-44123033D01*
X46887899Y-44175139D01*
X46876928Y-44241575D01*
X46872888Y-44325354D01*
X46667235Y-44325354D01*
X46673631Y-44218064D01*
X46691581Y-44127279D01*
X46719687Y-44050458D01*
X46759844Y-43979432D01*
X46806431Y-43922943D01*
X46859577Y-43879061D01*
X46920090Y-43846441D01*
X46984710Y-43826937D01*
X47054727Y-43820321D01*
X47124784Y-43826938D01*
G37*
G36*
X46317663Y-44815000D02*
G01*
X46317663Y-44007777D01*
X46610083Y-44007777D01*
X46610083Y-43835708D01*
X45820995Y-43835708D01*
X45820995Y-44007777D01*
X46113415Y-44007777D01*
X46113415Y-44815000D01*
X46317663Y-44815000D01*
G37*
G36*
X75818993Y-46426938D02*
G01*
X75883632Y-46446443D01*
X75944146Y-46479061D01*
X75997292Y-46522943D01*
X76043879Y-46579432D01*
X76084036Y-46650458D01*
X76112142Y-46727279D01*
X76130092Y-46818064D01*
X76136488Y-46925354D01*
X76130092Y-47032643D01*
X76112142Y-47123428D01*
X76084036Y-47200249D01*
X76043885Y-47271239D01*
X75997299Y-47327731D01*
X75944146Y-47371646D01*
X75883632Y-47404264D01*
X75818993Y-47423769D01*
X75748935Y-47430387D01*
X75678918Y-47423770D01*
X75614298Y-47404267D01*
X75553785Y-47371646D01*
X75500633Y-47327731D01*
X75454046Y-47271239D01*
X75413895Y-47200249D01*
X75385789Y-47123428D01*
X75367840Y-47032643D01*
X75361444Y-46925354D01*
X75567096Y-46925354D01*
X75571136Y-47009132D01*
X75582107Y-47075568D01*
X75598574Y-47127675D01*
X75619548Y-47168070D01*
X75649094Y-47205071D01*
X75680080Y-47229579D01*
X75713014Y-47243745D01*
X75748935Y-47248487D01*
X75784889Y-47243743D01*
X75817842Y-47229575D01*
X75848838Y-47205066D01*
X75878384Y-47168070D01*
X75899357Y-47127675D01*
X75915824Y-47075568D01*
X75926795Y-47009132D01*
X75930835Y-46925354D01*
X75926795Y-46841575D01*
X75915824Y-46775139D01*
X75899357Y-46723033D01*
X75878384Y-46682637D01*
X75848835Y-46645609D01*
X75817837Y-46621083D01*
X75784885Y-46606906D01*
X75748935Y-46602159D01*
X75713017Y-46606904D01*
X75680085Y-46621078D01*
X75649097Y-46645604D01*
X75619548Y-46682637D01*
X75598574Y-46723033D01*
X75582107Y-46775139D01*
X75571136Y-46841575D01*
X75567096Y-46925354D01*
X75361444Y-46925354D01*
X75367840Y-46818064D01*
X75385789Y-46727279D01*
X75413895Y-46650458D01*
X75454052Y-46579432D01*
X75500639Y-46522943D01*
X75553785Y-46479061D01*
X75614298Y-46446441D01*
X75678918Y-46426937D01*
X75748935Y-46420321D01*
X75818993Y-46426938D01*
G37*
G36*
X74905565Y-47430387D02*
G01*
X74977690Y-47426478D01*
X75045587Y-47414990D01*
X75109813Y-47396132D01*
X75171679Y-47370129D01*
X75234542Y-47336081D01*
X75298673Y-47293306D01*
X75195115Y-47139371D01*
X75105585Y-47199481D01*
X75037089Y-47234565D01*
X74969082Y-47255640D01*
X74901351Y-47262531D01*
X74851088Y-47258287D01*
X74810967Y-47246569D01*
X74778925Y-47228276D01*
X74753335Y-47202715D01*
X74738495Y-47173529D01*
X74733434Y-47139371D01*
X74736925Y-47109902D01*
X74746777Y-47086096D01*
X74762866Y-47066648D01*
X74795769Y-47043691D01*
X74840535Y-47025371D01*
X74946170Y-46998810D01*
X75061575Y-46970844D01*
X75117561Y-46951237D01*
X75167881Y-46925354D01*
X75211302Y-46891018D01*
X75245490Y-46846341D01*
X75261106Y-46811965D01*
X75271203Y-46769428D01*
X75274860Y-46716892D01*
X75268530Y-46650769D01*
X75250390Y-46593823D01*
X75220830Y-46544220D01*
X75179056Y-46500737D01*
X75129394Y-46466997D01*
X75070385Y-46441944D01*
X75000239Y-46426002D01*
X74916739Y-46420321D01*
X74849144Y-46423842D01*
X74783279Y-46434340D01*
X74718780Y-46451828D01*
X74656515Y-46476032D01*
X74599058Y-46506075D01*
X74545978Y-46542015D01*
X74650941Y-46693079D01*
X74723054Y-46644510D01*
X74792170Y-46611765D01*
X74859181Y-46592918D01*
X74925104Y-46586772D01*
X74972668Y-46590784D01*
X75010241Y-46601813D01*
X75039898Y-46618951D01*
X75063698Y-46642779D01*
X75077285Y-46668997D01*
X75081847Y-46698696D01*
X75078297Y-46727131D01*
X75068257Y-46750020D01*
X75051744Y-46768672D01*
X75018251Y-46790380D01*
X74972731Y-46807812D01*
X74865692Y-46833702D01*
X74748883Y-46863133D01*
X74692070Y-46883777D01*
X74641111Y-46909966D01*
X74597050Y-46944575D01*
X74562098Y-46990383D01*
X74546027Y-47025664D01*
X74535709Y-47068696D01*
X74531995Y-47121175D01*
X74537374Y-47180389D01*
X74553038Y-47233640D01*
X74578890Y-47282131D01*
X74613716Y-47324802D01*
X74656947Y-47361085D01*
X74709682Y-47391247D01*
X74766907Y-47412468D01*
X74831769Y-47425742D01*
X74905565Y-47430387D01*
G37*
G36*
X74416102Y-47415000D02*
G01*
X74416102Y-46435708D01*
X74211854Y-46435708D01*
X74211854Y-46831625D01*
X73929204Y-46831625D01*
X73929204Y-46435708D01*
X73724956Y-46435708D01*
X73724956Y-47415000D01*
X73929204Y-47415000D01*
X73929204Y-47012060D01*
X74211854Y-47012060D01*
X74211854Y-47415000D01*
X74416102Y-47415000D01*
G37*
G36*
X73520891Y-47415000D02*
G01*
X73632815Y-46435708D01*
X73457937Y-46435708D01*
X73407562Y-47014869D01*
X73299851Y-46435708D01*
X73157152Y-46435708D01*
X73048037Y-47009312D01*
X72999066Y-46435708D01*
X72829806Y-46435708D01*
X72940326Y-47415000D01*
X73119356Y-47415000D01*
X73229876Y-46793829D01*
X73341800Y-47415000D01*
X73520891Y-47415000D01*
G37*
G36*
X71552843Y-47129602D02*
G01*
X71588605Y-47125251D01*
X71619968Y-47112544D01*
X71648037Y-47091133D01*
X71669823Y-47063469D01*
X71682746Y-47032366D01*
X71687177Y-46996673D01*
X71682800Y-46961926D01*
X71669925Y-46931054D01*
X71648037Y-46903005D01*
X71619916Y-46881157D01*
X71588556Y-46868225D01*
X71552843Y-46863804D01*
X71517173Y-46868225D01*
X71485853Y-46881156D01*
X71457772Y-46903005D01*
X71435846Y-46931058D01*
X71422953Y-46961930D01*
X71418571Y-46996673D01*
X71423007Y-47032361D01*
X71435948Y-47063465D01*
X71457772Y-47091133D01*
X71485801Y-47112545D01*
X71517124Y-47125251D01*
X71552843Y-47129602D01*
G37*
G36*
X69978827Y-46704141D02*
G01*
X70032594Y-46720185D01*
X70082929Y-46746995D01*
X70127829Y-46782581D01*
X70166177Y-46825456D01*
X70198333Y-46876383D01*
X70221758Y-46931877D01*
X70236050Y-46992165D01*
X70240954Y-47058222D01*
X70236285Y-47124422D01*
X70222679Y-47184998D01*
X70200409Y-47240854D01*
X70169633Y-47292383D01*
X70132887Y-47335703D01*
X70089889Y-47371646D01*
X70041356Y-47398931D01*
X69989947Y-47415141D01*
X69934612Y-47420617D01*
X69878748Y-47414796D01*
X69826901Y-47397536D01*
X69780097Y-47370224D01*
X69741538Y-47335254D01*
X69741538Y-47427578D01*
X69748281Y-47481904D01*
X69766492Y-47520857D01*
X69795395Y-47548499D01*
X69837248Y-47566366D01*
X69896815Y-47573086D01*
X69962802Y-47567132D01*
X70035522Y-47548244D01*
X70116451Y-47514345D01*
X70179404Y-47655640D01*
X70113414Y-47684085D01*
X70043541Y-47704596D01*
X69969216Y-47717127D01*
X69889794Y-47721402D01*
X69806457Y-47715910D01*
X69738278Y-47700692D01*
X69682611Y-47677120D01*
X69637307Y-47645809D01*
X69599901Y-47605197D01*
X69572846Y-47556897D01*
X69555887Y-47499357D01*
X69549869Y-47430387D01*
X69549869Y-46911371D01*
X69741538Y-46911371D01*
X69741538Y-47205134D01*
X69781127Y-47238724D01*
X69825762Y-47258509D01*
X69877215Y-47265279D01*
X69926676Y-47258587D01*
X69968233Y-47239228D01*
X70003855Y-47206538D01*
X70030206Y-47165056D01*
X70046411Y-47116680D01*
X70052093Y-47059626D01*
X70046452Y-47001625D01*
X70030433Y-46952830D01*
X70004527Y-46911371D01*
X69969309Y-46878750D01*
X69927576Y-46859324D01*
X69877215Y-46852569D01*
X69826548Y-46859144D01*
X69781862Y-46878465D01*
X69741538Y-46911371D01*
X69549869Y-46911371D01*
X69549869Y-46704314D01*
X69738729Y-46704314D01*
X69738729Y-46779846D01*
X69778503Y-46743894D01*
X69821492Y-46718877D01*
X69868466Y-46703839D01*
X69920568Y-46698696D01*
X69978827Y-46704141D01*
G37*
G36*
X69036592Y-46579811D02*
G01*
X69070543Y-46575640D01*
X69100528Y-46563417D01*
X69127573Y-46542747D01*
X69148625Y-46516071D01*
X69161061Y-46486343D01*
X69165308Y-46452500D01*
X69161111Y-46419522D01*
X69148719Y-46390011D01*
X69127573Y-46362984D01*
X69100476Y-46341876D01*
X69070495Y-46329429D01*
X69036592Y-46325188D01*
X69002754Y-46329442D01*
X68973049Y-46341898D01*
X68946406Y-46362984D01*
X68925626Y-46389968D01*
X68913421Y-46419483D01*
X68909281Y-46452500D01*
X68913470Y-46486384D01*
X68925719Y-46516114D01*
X68946406Y-46542747D01*
X68972997Y-46563395D01*
X69002705Y-46575626D01*
X69036592Y-46579811D01*
G37*
G36*
X68851945Y-47428982D02*
G01*
X68932956Y-47422628D01*
X68995950Y-47405321D01*
X69044677Y-47378797D01*
X69081927Y-47343456D01*
X69109251Y-47298317D01*
X69126766Y-47241150D01*
X69133129Y-47168742D01*
X69133129Y-46853974D01*
X69383539Y-46853974D01*
X69383539Y-46704314D01*
X68940055Y-46704314D01*
X68940055Y-47149202D01*
X68936227Y-47189179D01*
X68926075Y-47217826D01*
X68910685Y-47238046D01*
X68889372Y-47252254D01*
X68859529Y-47261712D01*
X68818361Y-47265279D01*
X68754736Y-47259722D01*
X68722766Y-47251996D01*
X68685432Y-47238717D01*
X68685432Y-47396803D01*
X68716017Y-47408029D01*
X68760354Y-47419152D01*
X68807041Y-47426565D01*
X68851945Y-47428982D01*
G37*
G36*
X68065910Y-47428982D02*
G01*
X68149698Y-47422714D01*
X68214454Y-47405714D01*
X68264131Y-47379839D01*
X68301734Y-47345679D01*
X68329052Y-47302475D01*
X68346429Y-47248236D01*
X68352712Y-47179977D01*
X68352712Y-46853974D01*
X68569539Y-46853974D01*
X68569539Y-46704314D01*
X68352712Y-46704314D01*
X68352712Y-46507027D01*
X68159638Y-46466482D01*
X68159638Y-46704314D01*
X67875645Y-46704314D01*
X67875645Y-46853974D01*
X68159638Y-46853974D01*
X68159638Y-47143585D01*
X68155694Y-47187458D01*
X68145438Y-47217714D01*
X68130268Y-47238046D01*
X68108823Y-47252059D01*
X68077359Y-47261609D01*
X68032327Y-47265279D01*
X67962351Y-47260394D01*
X67871432Y-47240122D01*
X67871432Y-47398208D01*
X67967236Y-47419884D01*
X68019029Y-47426790D01*
X68065910Y-47428982D01*
G37*
G36*
X67678541Y-47415000D02*
G01*
X67678541Y-46414703D01*
X67485467Y-46383928D01*
X67485467Y-46805003D01*
X67440614Y-46755108D01*
X67390819Y-46720763D01*
X67335036Y-46700164D01*
X67271449Y-46693079D01*
X67224715Y-46696744D01*
X67183035Y-46707338D01*
X67145542Y-46724586D01*
X67111784Y-46748287D01*
X67083471Y-46777264D01*
X67060179Y-46812025D01*
X67043348Y-46850391D01*
X67032990Y-46893015D01*
X67029404Y-46940741D01*
X67029404Y-47415000D01*
X67222478Y-47415000D01*
X67222478Y-46996673D01*
X67226992Y-46951454D01*
X67239557Y-46915288D01*
X67259542Y-46886214D01*
X67286610Y-46863964D01*
X67319381Y-46850395D01*
X67359560Y-46845608D01*
X67408888Y-46852445D01*
X67450185Y-46872234D01*
X67485467Y-46905753D01*
X67485467Y-47415000D01*
X67678541Y-47415000D01*
G37*
G36*
X66602895Y-47426174D02*
G01*
X66649633Y-47422515D01*
X66691335Y-47411942D01*
X66728864Y-47394727D01*
X66762589Y-47370997D01*
X66790883Y-47342019D01*
X66814165Y-47307288D01*
X66831000Y-47268885D01*
X66841356Y-47226258D01*
X66844940Y-47178572D01*
X66844940Y-46704314D01*
X66651866Y-46704314D01*
X66651866Y-47122580D01*
X66647399Y-47166902D01*
X66634872Y-47202928D01*
X66614802Y-47232428D01*
X66587684Y-47255077D01*
X66554913Y-47268852D01*
X66514785Y-47273705D01*
X66466289Y-47266939D01*
X66424917Y-47247207D01*
X66388817Y-47213560D01*
X66388817Y-46704314D01*
X66195804Y-46704314D01*
X66195804Y-47415000D01*
X66388817Y-47415000D01*
X66388817Y-47314249D01*
X66433669Y-47364141D01*
X66483473Y-47398486D01*
X66539276Y-47419087D01*
X66602895Y-47426174D01*
G37*
G36*
X66002913Y-46409085D02*
G01*
X66002913Y-47413595D01*
X65816861Y-47413595D01*
X65816861Y-47339467D01*
X65776767Y-47377828D01*
X65732802Y-47404536D01*
X65684103Y-47420640D01*
X65629343Y-47426174D01*
X65572067Y-47420751D01*
X65519026Y-47404745D01*
X65469181Y-47377936D01*
X65424828Y-47342257D01*
X65386681Y-47298715D01*
X65354448Y-47246411D01*
X65331016Y-47189549D01*
X65316689Y-47127618D01*
X65311767Y-47059626D01*
X65500688Y-47059626D01*
X65506416Y-47120469D01*
X65522517Y-47170586D01*
X65548255Y-47212156D01*
X65583467Y-47244740D01*
X65625201Y-47264147D01*
X65675566Y-47270896D01*
X65727175Y-47264394D01*
X65771822Y-47245464D01*
X65811243Y-47213560D01*
X65811243Y-46905753D01*
X65782640Y-46882029D01*
X65749694Y-46863804D01*
X65713775Y-46852286D01*
X65675566Y-46848417D01*
X65625201Y-46855166D01*
X65583467Y-46874574D01*
X65548255Y-46907158D01*
X65522519Y-46948689D01*
X65506417Y-46998784D01*
X65500688Y-47059626D01*
X65311767Y-47059626D01*
X65316688Y-46991676D01*
X65331014Y-46929764D01*
X65354448Y-46872903D01*
X65386731Y-46820616D01*
X65425113Y-46777071D01*
X65469914Y-46741378D01*
X65520208Y-46714567D01*
X65573935Y-46698524D01*
X65632152Y-46693079D01*
X65682587Y-46698210D01*
X65729422Y-46713412D01*
X65772331Y-46737865D01*
X65811243Y-46771420D01*
X65811243Y-46379715D01*
X66002913Y-46409085D01*
G37*
G36*
X64839096Y-47428982D02*
G01*
X64874813Y-47424567D01*
X64906173Y-47411655D01*
X64934289Y-47389842D01*
X64956177Y-47361755D01*
X64969052Y-47330842D01*
X64973429Y-47296053D01*
X64969000Y-47260401D01*
X64956079Y-47229316D01*
X64934289Y-47201653D01*
X64906221Y-47180243D01*
X64874857Y-47167536D01*
X64839096Y-47163185D01*
X64803376Y-47167535D01*
X64772054Y-47180242D01*
X64744024Y-47201653D01*
X64722198Y-47229321D01*
X64709258Y-47260405D01*
X64704823Y-47296053D01*
X64709206Y-47330838D01*
X64722100Y-47361751D01*
X64744024Y-47389842D01*
X64772101Y-47411656D01*
X64803421Y-47424568D01*
X64839096Y-47428982D01*
G37*
G36*
X63977529Y-47428982D02*
G01*
X64048057Y-47423440D01*
X64112263Y-47407283D01*
X64171275Y-47380744D01*
X64224855Y-47344439D01*
X64270094Y-47300576D01*
X64307684Y-47248548D01*
X64335523Y-47190795D01*
X64352328Y-47128660D01*
X64358059Y-47061031D01*
X64352291Y-46992519D01*
X64335452Y-46930207D01*
X64307684Y-46872903D01*
X64270129Y-46821261D01*
X64224895Y-46777613D01*
X64171275Y-46741378D01*
X64112259Y-46714805D01*
X64048054Y-46698627D01*
X63977529Y-46693079D01*
X63906854Y-46698303D01*
X63842141Y-46713549D01*
X63782379Y-46738569D01*
X63727601Y-46772961D01*
X63682467Y-46813655D01*
X63645969Y-46860996D01*
X63792820Y-46965898D01*
X63824930Y-46920886D01*
X63867742Y-46886885D01*
X63918493Y-46865485D01*
X63976125Y-46858187D01*
X64028333Y-46864781D01*
X64074066Y-46884077D01*
X64112559Y-46914882D01*
X64141904Y-46956128D01*
X64160090Y-47004675D01*
X64166390Y-47061031D01*
X64160070Y-47117342D01*
X64141904Y-47165322D01*
X64112642Y-47206113D01*
X64074066Y-47237374D01*
X64028292Y-47257181D01*
X63976125Y-47263935D01*
X63936861Y-47260586D01*
X63900957Y-47250782D01*
X63867742Y-47234565D01*
X63824795Y-47200178D01*
X63792820Y-47156163D01*
X63645969Y-47261127D01*
X63682352Y-47307644D01*
X63727475Y-47348116D01*
X63782379Y-47382821D01*
X63842177Y-47408221D01*
X63906885Y-47423686D01*
X63977529Y-47428982D01*
G37*
G36*
X63228371Y-46698615D02*
G01*
X63290032Y-46714772D01*
X63346772Y-46741378D01*
X63398013Y-46777509D01*
X63441176Y-46821130D01*
X63476892Y-46872903D01*
X63503055Y-46930047D01*
X63518989Y-46992378D01*
X63524459Y-47061031D01*
X63519024Y-47128798D01*
X63503123Y-47190953D01*
X63476892Y-47248548D01*
X63441142Y-47300709D01*
X63397974Y-47344544D01*
X63346772Y-47380744D01*
X63290035Y-47407315D01*
X63228374Y-47423453D01*
X63160659Y-47428982D01*
X63092984Y-47423454D01*
X63031343Y-47407317D01*
X62974607Y-47380744D01*
X62923405Y-47344544D01*
X62880237Y-47300709D01*
X62844486Y-47248548D01*
X62818256Y-47190953D01*
X62802355Y-47128798D01*
X62796920Y-47061031D01*
X62984377Y-47061031D01*
X62990271Y-47118901D01*
X63006990Y-47167203D01*
X63034080Y-47207943D01*
X63070381Y-47239908D01*
X63111975Y-47258787D01*
X63160659Y-47265279D01*
X63209383Y-47258786D01*
X63250997Y-47239905D01*
X63287299Y-47207943D01*
X63314353Y-47167207D01*
X63331053Y-47118905D01*
X63336941Y-47061031D01*
X63331070Y-47003183D01*
X63314383Y-46954635D01*
X63287299Y-46913447D01*
X63250943Y-46881041D01*
X63209331Y-46861939D01*
X63160659Y-46855378D01*
X63112027Y-46861937D01*
X63070435Y-46881037D01*
X63034080Y-46913447D01*
X63006961Y-46954639D01*
X62990254Y-47003187D01*
X62984377Y-47061031D01*
X62796920Y-47061031D01*
X62802390Y-46992378D01*
X62818324Y-46930047D01*
X62844486Y-46872903D01*
X62880202Y-46821130D01*
X62923366Y-46777509D01*
X62974607Y-46741378D01*
X63031346Y-46714770D01*
X63092987Y-46698613D01*
X63160659Y-46693079D01*
X63228371Y-46698615D01*
G37*
G36*
X62682431Y-47415000D02*
G01*
X62682431Y-46704314D01*
X62522941Y-46704314D01*
X62522941Y-46763054D01*
X62494996Y-46731181D01*
X62465557Y-46709784D01*
X62434123Y-46697285D01*
X62399781Y-46693079D01*
X62357107Y-46698787D01*
X62320097Y-46715488D01*
X62289132Y-46741882D01*
X62265509Y-46777037D01*
X62233509Y-46739227D01*
X62198442Y-46713529D01*
X62159627Y-46698285D01*
X62115788Y-46693079D01*
X62072419Y-46698852D01*
X62035186Y-46715672D01*
X62002520Y-46744187D01*
X61978133Y-46780525D01*
X61963039Y-46823959D01*
X61957702Y-46876383D01*
X61957702Y-47415000D01*
X62118597Y-47415000D01*
X62118597Y-46926758D01*
X62123320Y-46887498D01*
X62136121Y-46858920D01*
X62157364Y-46839630D01*
X62187168Y-46833030D01*
X62217683Y-46839362D01*
X62241695Y-46858187D01*
X62240352Y-46886153D01*
X62240352Y-47415000D01*
X62399781Y-47415000D01*
X62399781Y-46926758D01*
X62404850Y-46887612D01*
X62418710Y-46858920D01*
X62440890Y-46839510D01*
X62469757Y-46833030D01*
X62497784Y-46837915D01*
X62522941Y-46856782D01*
X62522941Y-47415000D01*
X62682431Y-47415000D01*
G37*
G36*
X61903358Y-47707419D02*
G01*
X61342332Y-46435708D01*
X61157684Y-46435708D01*
X61718710Y-47707419D01*
X61903358Y-47707419D01*
G37*
G36*
X60953619Y-47415000D02*
G01*
X60598246Y-47415000D01*
X60534657Y-47410883D01*
X60478111Y-47399052D01*
X60427581Y-47380012D01*
X60381000Y-47353169D01*
X60342857Y-47321063D01*
X60312177Y-47283475D01*
X60289410Y-47240825D01*
X60275628Y-47194076D01*
X60270900Y-47142180D01*
X60273035Y-47122580D01*
X60473743Y-47122580D01*
X60478489Y-47160878D01*
X60492007Y-47192295D01*
X60514349Y-47218445D01*
X60543266Y-47237735D01*
X60578596Y-47249799D01*
X60622060Y-47254105D01*
X60753523Y-47254105D01*
X60753523Y-46991116D01*
X60622060Y-46991116D01*
X60578596Y-46995422D01*
X60543266Y-47007485D01*
X60514349Y-47026775D01*
X60492004Y-47052924D01*
X60478488Y-47084323D01*
X60473743Y-47122580D01*
X60273035Y-47122580D01*
X60276498Y-47090784D01*
X60292951Y-47044345D01*
X60320603Y-47001618D01*
X60356772Y-46965166D01*
X60400440Y-46935597D01*
X60452738Y-46912775D01*
X60409493Y-46889068D01*
X60373149Y-46860234D01*
X60342951Y-46826069D01*
X60320091Y-46787034D01*
X60306364Y-46744452D01*
X60303763Y-46718297D01*
X60503113Y-46718297D01*
X60507481Y-46752949D01*
X60520020Y-46781865D01*
X60540910Y-46806407D01*
X60567836Y-46824628D01*
X60600442Y-46835962D01*
X60640256Y-46839991D01*
X60753523Y-46839991D01*
X60753523Y-46596542D01*
X60640256Y-46596542D01*
X60599495Y-46600545D01*
X60566725Y-46611704D01*
X60540238Y-46629453D01*
X60519853Y-46653535D01*
X60507473Y-46682641D01*
X60503113Y-46718297D01*
X60303763Y-46718297D01*
X60301674Y-46697292D01*
X60306253Y-46647238D01*
X60319575Y-46602360D01*
X60341547Y-46561615D01*
X60371169Y-46525757D01*
X60408146Y-46495043D01*
X60453471Y-46469291D01*
X60502562Y-46451018D01*
X60557493Y-46439660D01*
X60619251Y-46435708D01*
X60953619Y-46435708D01*
X60953619Y-47415000D01*
G37*
G36*
X60128384Y-47415000D02*
G01*
X60128384Y-47265279D01*
X59963276Y-47265279D01*
X59963276Y-46853974D01*
X60128384Y-46853974D01*
X60128384Y-46704314D01*
X59771606Y-46704314D01*
X59771606Y-46877787D01*
X59743295Y-46818880D01*
X59711077Y-46773448D01*
X59675130Y-46739302D01*
X59633038Y-46713650D01*
X59587240Y-46698310D01*
X59536583Y-46693079D01*
X59484865Y-46697292D01*
X59434490Y-46714084D01*
X59434490Y-46886153D01*
X59499520Y-46868018D01*
X59570167Y-46860996D01*
X59631032Y-46868385D01*
X59686976Y-46890366D01*
X59720390Y-46912652D01*
X59748449Y-46940020D01*
X59771606Y-46972920D01*
X59771606Y-47265279D01*
X59596728Y-47265279D01*
X59596728Y-47415000D01*
X60128384Y-47415000D01*
G37*
G36*
X58965971Y-46579811D02*
G01*
X58999922Y-46575640D01*
X59029907Y-46563417D01*
X59056952Y-46542747D01*
X59078004Y-46516071D01*
X59090440Y-46486343D01*
X59094687Y-46452500D01*
X59090489Y-46419522D01*
X59078098Y-46390011D01*
X59056952Y-46362984D01*
X59029855Y-46341876D01*
X58999874Y-46329429D01*
X58965971Y-46325188D01*
X58932133Y-46329442D01*
X58902428Y-46341898D01*
X58875784Y-46362984D01*
X58855005Y-46389968D01*
X58842800Y-46419483D01*
X58838660Y-46452500D01*
X58842849Y-46486384D01*
X58855098Y-46516114D01*
X58875784Y-46542747D01*
X58902375Y-46563395D01*
X58932084Y-46575626D01*
X58965971Y-46579811D01*
G37*
G36*
X58781324Y-47428982D02*
G01*
X58862335Y-47422628D01*
X58925329Y-47405321D01*
X58974056Y-47378797D01*
X59011305Y-47343456D01*
X59038630Y-47298317D01*
X59056145Y-47241150D01*
X59062508Y-47168742D01*
X59062508Y-46853974D01*
X59312918Y-46853974D01*
X59312918Y-46704314D01*
X58869434Y-46704314D01*
X58869434Y-47149202D01*
X58865606Y-47189179D01*
X58855454Y-47217826D01*
X58840064Y-47238046D01*
X58818751Y-47252254D01*
X58788908Y-47261712D01*
X58747740Y-47265279D01*
X58684115Y-47259722D01*
X58652145Y-47251996D01*
X58614811Y-47238717D01*
X58614811Y-47396803D01*
X58645396Y-47408029D01*
X58689732Y-47419152D01*
X58736420Y-47426565D01*
X58781324Y-47428982D01*
G37*
G36*
X57957492Y-47428982D02*
G01*
X58038504Y-47422628D01*
X58101498Y-47405321D01*
X58150225Y-47378797D01*
X58187474Y-47343456D01*
X58214798Y-47298317D01*
X58232314Y-47241150D01*
X58238677Y-47168742D01*
X58238677Y-46547632D01*
X58489148Y-46547632D01*
X58489148Y-46397911D01*
X58045603Y-46397911D01*
X58045603Y-47149202D01*
X58041775Y-47189179D01*
X58031622Y-47217826D01*
X58016233Y-47238046D01*
X57994920Y-47252254D01*
X57965077Y-47261712D01*
X57923909Y-47265279D01*
X57860284Y-47259722D01*
X57828314Y-47251996D01*
X57790980Y-47238717D01*
X57790980Y-47396803D01*
X57821565Y-47408029D01*
X57865901Y-47419152D01*
X57912589Y-47426565D01*
X57957492Y-47428982D01*
G37*
G36*
X57118274Y-47428982D02*
G01*
X57199285Y-47422628D01*
X57262279Y-47405321D01*
X57311007Y-47378797D01*
X57348256Y-47343456D01*
X57375580Y-47298317D01*
X57393095Y-47241150D01*
X57399459Y-47168742D01*
X57399459Y-46547632D01*
X57649930Y-46547632D01*
X57649930Y-46397911D01*
X57206385Y-46397911D01*
X57206385Y-47149202D01*
X57202557Y-47189179D01*
X57192404Y-47217826D01*
X57177014Y-47238046D01*
X57155702Y-47252254D01*
X57125858Y-47261712D01*
X57084691Y-47265279D01*
X57021065Y-47259722D01*
X56989095Y-47251996D01*
X56951761Y-47238717D01*
X56951761Y-47396803D01*
X56982347Y-47408029D01*
X57026683Y-47419152D01*
X57073370Y-47426565D01*
X57118274Y-47428982D01*
G37*
G36*
X56523748Y-46697589D02*
G01*
X56601578Y-46711275D01*
X56679327Y-46734432D01*
X56764488Y-46770076D01*
X56694574Y-46907158D01*
X56610568Y-46873953D01*
X56542537Y-46856403D01*
X56487517Y-46851165D01*
X56426869Y-46857353D01*
X56385119Y-46873557D01*
X56357082Y-46897994D01*
X56339897Y-46931463D01*
X56333644Y-46977133D01*
X56333644Y-47044239D01*
X56396170Y-47021287D01*
X56456103Y-47008015D01*
X56514078Y-47003695D01*
X56579902Y-47007683D01*
X56634624Y-47018792D01*
X56680040Y-47036053D01*
X56717655Y-47058954D01*
X56749903Y-47089297D01*
X56772506Y-47124039D01*
X56786302Y-47164054D01*
X56791111Y-47210751D01*
X56787388Y-47252673D01*
X56776607Y-47289927D01*
X56758932Y-47323408D01*
X56735072Y-47352992D01*
X56705682Y-47378330D01*
X56670088Y-47399612D01*
X56610537Y-47420340D01*
X56540701Y-47427578D01*
X56485145Y-47422409D01*
X56432684Y-47407038D01*
X56382409Y-47381121D01*
X56333644Y-47343620D01*
X56333644Y-47415000D01*
X56143318Y-47415000D01*
X56143318Y-47147798D01*
X56333644Y-47147798D01*
X56333644Y-47245739D01*
X56378686Y-47273615D01*
X56428135Y-47290333D01*
X56483304Y-47296053D01*
X56538095Y-47289597D01*
X56577032Y-47272301D01*
X56596729Y-47254236D01*
X56608121Y-47233146D01*
X56612020Y-47207943D01*
X56607985Y-47181932D01*
X56596338Y-47160900D01*
X56576360Y-47143585D01*
X56536619Y-47127350D01*
X56479090Y-47121175D01*
X56404879Y-47127846D01*
X56333644Y-47147798D01*
X56143318Y-47147798D01*
X56143318Y-46958937D01*
X56148796Y-46896188D01*
X56164249Y-46843728D01*
X56188923Y-46799591D01*
X56223063Y-46762383D01*
X56264470Y-46733429D01*
X56314383Y-46711839D01*
X56374497Y-46698027D01*
X56446911Y-46693079D01*
X56523748Y-46697589D01*
G37*
G36*
X55932292Y-47415000D02*
G01*
X55932292Y-47265279D01*
X55767184Y-47265279D01*
X55767184Y-46853974D01*
X55932292Y-46853974D01*
X55932292Y-46704314D01*
X55575514Y-46704314D01*
X55575514Y-46877787D01*
X55547203Y-46818880D01*
X55514985Y-46773448D01*
X55479038Y-46739302D01*
X55436946Y-46713650D01*
X55391147Y-46698310D01*
X55340491Y-46693079D01*
X55288773Y-46697292D01*
X55238398Y-46714084D01*
X55238398Y-46886153D01*
X55303427Y-46868018D01*
X55374075Y-46860996D01*
X55434940Y-46868385D01*
X55490884Y-46890366D01*
X55524298Y-46912652D01*
X55552357Y-46940020D01*
X55575514Y-46972920D01*
X55575514Y-47265279D01*
X55400636Y-47265279D01*
X55400636Y-47415000D01*
X55932292Y-47415000D01*
G37*
G36*
X54841157Y-46427218D02*
G01*
X54906163Y-46447291D01*
X54965090Y-46480465D01*
X55016167Y-46525158D01*
X55060210Y-46582317D01*
X55097287Y-46653939D01*
X55122827Y-46730930D01*
X55139086Y-46820693D01*
X55144853Y-46925354D01*
X55139086Y-47030014D01*
X55122827Y-47119777D01*
X55097287Y-47196769D01*
X55060210Y-47268390D01*
X55016167Y-47325550D01*
X54965090Y-47370242D01*
X54906163Y-47403416D01*
X54841157Y-47423489D01*
X54768475Y-47430387D01*
X54695794Y-47423488D01*
X54630809Y-47403414D01*
X54571920Y-47370242D01*
X54520843Y-47325550D01*
X54476800Y-47268390D01*
X54439724Y-47196769D01*
X54414183Y-47119777D01*
X54397924Y-47030014D01*
X54392157Y-46925354D01*
X54575462Y-46925354D01*
X54582142Y-47028987D01*
X54600319Y-47110578D01*
X54627913Y-47174359D01*
X54658109Y-47216690D01*
X54691099Y-47244778D01*
X54727437Y-47261140D01*
X54768475Y-47266683D01*
X54805207Y-47262288D01*
X54837976Y-47249377D01*
X54867820Y-47227543D01*
X54604832Y-46735088D01*
X54589164Y-46788123D01*
X54579072Y-46851003D01*
X54575462Y-46925354D01*
X54392157Y-46925354D01*
X54397924Y-46820693D01*
X54414183Y-46730930D01*
X54439724Y-46653939D01*
X54455655Y-46623164D01*
X54669190Y-46623164D01*
X54932178Y-47114214D01*
X54947877Y-47061183D01*
X54957955Y-46998737D01*
X54961549Y-46925354D01*
X54954869Y-46821720D01*
X54936691Y-46740129D01*
X54909097Y-46676348D01*
X54878898Y-46633991D01*
X54845897Y-46605884D01*
X54809541Y-46589510D01*
X54768475Y-46583963D01*
X54731786Y-46588363D01*
X54699037Y-46601291D01*
X54669190Y-46623164D01*
X54455655Y-46623164D01*
X54476800Y-46582317D01*
X54520843Y-46525158D01*
X54571920Y-46480465D01*
X54630809Y-46447293D01*
X54695794Y-46427219D01*
X54768475Y-46420321D01*
X54841157Y-46427218D01*
G37*
G36*
X54263625Y-47415000D02*
G01*
X54263625Y-47258318D01*
X54016023Y-47258318D01*
X54016023Y-46628721D01*
X54263625Y-46732280D01*
X54263625Y-46568576D01*
X53947452Y-46435708D01*
X53832719Y-46435708D01*
X53832719Y-47258318D01*
X53579500Y-47258318D01*
X53579500Y-47415000D01*
X54263625Y-47415000D01*
G37*
G36*
X53162720Y-46427218D02*
G01*
X53227726Y-46447291D01*
X53286653Y-46480465D01*
X53337730Y-46525158D01*
X53381773Y-46582317D01*
X53418850Y-46653939D01*
X53444390Y-46730930D01*
X53460649Y-46820693D01*
X53466416Y-46925354D01*
X53460649Y-47030014D01*
X53444390Y-47119777D01*
X53418850Y-47196769D01*
X53381773Y-47268390D01*
X53337730Y-47325550D01*
X53286653Y-47370242D01*
X53227726Y-47403416D01*
X53162720Y-47423489D01*
X53090038Y-47430387D01*
X53017357Y-47423488D01*
X52952372Y-47403414D01*
X52893483Y-47370242D01*
X52842407Y-47325550D01*
X52798363Y-47268390D01*
X52761287Y-47196769D01*
X52735746Y-47119777D01*
X52719487Y-47030014D01*
X52713721Y-46925354D01*
X52897025Y-46925354D01*
X52903705Y-47028987D01*
X52921882Y-47110578D01*
X52949476Y-47174359D01*
X52979672Y-47216690D01*
X53012662Y-47244778D01*
X53049000Y-47261140D01*
X53090038Y-47266683D01*
X53126770Y-47262288D01*
X53159540Y-47249377D01*
X53189384Y-47227543D01*
X52926395Y-46735088D01*
X52910728Y-46788123D01*
X52900635Y-46851003D01*
X52897025Y-46925354D01*
X52713721Y-46925354D01*
X52719487Y-46820693D01*
X52735746Y-46730930D01*
X52761287Y-46653939D01*
X52777218Y-46623164D01*
X52990753Y-46623164D01*
X53253742Y-47114214D01*
X53269440Y-47061183D01*
X53279518Y-46998737D01*
X53283112Y-46925354D01*
X53276432Y-46821720D01*
X53258254Y-46740129D01*
X53230661Y-46676348D01*
X53200461Y-46633991D01*
X53167460Y-46605884D01*
X53131104Y-46589510D01*
X53090038Y-46583963D01*
X53053349Y-46588363D01*
X53020600Y-46601291D01*
X52990753Y-46623164D01*
X52777218Y-46623164D01*
X52798363Y-46582317D01*
X52842407Y-46525158D01*
X52893483Y-46480465D01*
X52952372Y-46447293D01*
X53017357Y-46427219D01*
X53090038Y-46420321D01*
X53162720Y-46427218D01*
G37*
G36*
X52585188Y-47415000D02*
G01*
X52585188Y-47258318D01*
X52337587Y-47258318D01*
X52337587Y-46628721D01*
X52585188Y-46732280D01*
X52585188Y-46568576D01*
X52269015Y-46435708D01*
X52154282Y-46435708D01*
X52154282Y-47258318D01*
X51901064Y-47258318D01*
X51901064Y-47415000D01*
X52585188Y-47415000D01*
G37*
D12*
G36*
X71294291Y-39773426D02*
G01*
X71371309Y-39766147D01*
X71442392Y-39744693D01*
X71508956Y-39708811D01*
X71567428Y-39660506D01*
X71618696Y-39598365D01*
X71662902Y-39520274D01*
X71693819Y-39435771D01*
X71713563Y-39335907D01*
X71720598Y-39217889D01*
X71713563Y-39099871D01*
X71693819Y-39000007D01*
X71662902Y-38915504D01*
X71618689Y-38837373D01*
X71567421Y-38775236D01*
X71508956Y-38726967D01*
X71442392Y-38691085D01*
X71371309Y-38669631D01*
X71294291Y-38662353D01*
X71223571Y-38668333D01*
X71158529Y-38685877D01*
X71098010Y-38714949D01*
X71041139Y-38756252D01*
X70992649Y-38806170D01*
X70951692Y-38865945D01*
X70918208Y-38936930D01*
X70892633Y-39020889D01*
X71092723Y-39074757D01*
X71110289Y-39007142D01*
X71134916Y-38955328D01*
X71165801Y-38916243D01*
X71204730Y-38885675D01*
X71245120Y-38868175D01*
X71288178Y-38862375D01*
X71329450Y-38867548D01*
X71367028Y-38882907D01*
X71402058Y-38909230D01*
X71435139Y-38948550D01*
X71458670Y-38991936D01*
X71477269Y-39049024D01*
X71489753Y-39123082D01*
X71494381Y-39217889D01*
X71489754Y-39312658D01*
X71477271Y-39386695D01*
X71458671Y-39443775D01*
X71435139Y-39487161D01*
X71402058Y-39526481D01*
X71367028Y-39552804D01*
X71329450Y-39568163D01*
X71288178Y-39573336D01*
X71245116Y-39567542D01*
X71204725Y-39550062D01*
X71165801Y-39519535D01*
X71134916Y-39480450D01*
X71110289Y-39428636D01*
X71092723Y-39361021D01*
X70892633Y-39414889D01*
X70918206Y-39498848D01*
X70951689Y-39569846D01*
X70992647Y-39629643D01*
X71041139Y-39679594D01*
X71098006Y-39720865D01*
X71158524Y-39749916D01*
X71223568Y-39767449D01*
X71294291Y-39773426D01*
G37*
G36*
X70740501Y-39756500D02*
G01*
X70515828Y-39756500D01*
X70515828Y-39344095D01*
X70391166Y-39344095D01*
X70186509Y-39756500D01*
X69947933Y-39756500D01*
X70180330Y-39310243D01*
X70123380Y-39279889D01*
X70075489Y-39241319D01*
X70035652Y-39194045D01*
X70005991Y-39140050D01*
X69987985Y-39080266D01*
X69982065Y-39016254D01*
X70209547Y-39016254D01*
X70214771Y-39059420D01*
X70229657Y-39095016D01*
X70254213Y-39124796D01*
X70286137Y-39146909D01*
X70324999Y-39160669D01*
X70372695Y-39165566D01*
X70515828Y-39165566D01*
X70515828Y-38865465D01*
X70372695Y-38865465D01*
X70325058Y-38870446D01*
X70286196Y-38884459D01*
X70254213Y-38907041D01*
X70229633Y-38937230D01*
X70214756Y-38973068D01*
X70209547Y-39016254D01*
X69982065Y-39016254D01*
X69981785Y-39013232D01*
X69987341Y-38947922D01*
X70003378Y-38890150D01*
X70029540Y-38838531D01*
X70065031Y-38792625D01*
X70108333Y-38753784D01*
X70160314Y-38721594D01*
X70217128Y-38698545D01*
X70280831Y-38684252D01*
X70352680Y-38679279D01*
X70740501Y-38679279D01*
X70740501Y-39756500D01*
G37*
G36*
X69837376Y-39756500D02*
G01*
X69837376Y-39611822D01*
X69389575Y-39154752D01*
X69345668Y-39105083D01*
X69320326Y-39064749D01*
X69305294Y-39022918D01*
X69300310Y-38979313D01*
X69305891Y-38941737D01*
X69322407Y-38908859D01*
X69351088Y-38879301D01*
X69386819Y-38857454D01*
X69428396Y-38843991D01*
X69477295Y-38839270D01*
X69548896Y-38846876D01*
X69614248Y-38869293D01*
X69676717Y-38907192D01*
X69752746Y-38971656D01*
X69866594Y-38833158D01*
X69790139Y-38769465D01*
X69713064Y-38721829D01*
X69634769Y-38688657D01*
X69554446Y-38668951D01*
X69471116Y-38662353D01*
X69399078Y-38666901D01*
X69335355Y-38679935D01*
X69278750Y-38700839D01*
X69226474Y-38730383D01*
X69183777Y-38765687D01*
X69149521Y-38806963D01*
X69124132Y-38853974D01*
X69108656Y-38906377D01*
X69103310Y-38965476D01*
X69107063Y-39017036D01*
X69118119Y-39065326D01*
X69136423Y-39110960D01*
X69178132Y-39177095D01*
X69249532Y-39257920D01*
X69575761Y-39585694D01*
X69084839Y-39584150D01*
X69084839Y-39756500D01*
X69837376Y-39756500D01*
G37*
G36*
X68618656Y-38669940D02*
G01*
X68690163Y-38692021D01*
X68754983Y-38728512D01*
X68811168Y-38777674D01*
X68859615Y-38840549D01*
X68900399Y-38919333D01*
X68928494Y-39004024D01*
X68946379Y-39102762D01*
X68952722Y-39217889D01*
X68946379Y-39333016D01*
X68928494Y-39431755D01*
X68900399Y-39516445D01*
X68859615Y-39595229D01*
X68811168Y-39658105D01*
X68754983Y-39707266D01*
X68690163Y-39743758D01*
X68618656Y-39765838D01*
X68538706Y-39773426D01*
X68458757Y-39765837D01*
X68387274Y-39743755D01*
X68322496Y-39707266D01*
X68266312Y-39658105D01*
X68217865Y-39595229D01*
X68177080Y-39516445D01*
X68148985Y-39431755D01*
X68131101Y-39333016D01*
X68124757Y-39217889D01*
X68326392Y-39217889D01*
X68333740Y-39331886D01*
X68353735Y-39421636D01*
X68384088Y-39491795D01*
X68417304Y-39538359D01*
X68453593Y-39569256D01*
X68493564Y-39587254D01*
X68538706Y-39593351D01*
X68579112Y-39588517D01*
X68615158Y-39574315D01*
X68647987Y-39550297D01*
X68358699Y-39008597D01*
X68341465Y-39066936D01*
X68330363Y-39136104D01*
X68326392Y-39217889D01*
X68124757Y-39217889D01*
X68131101Y-39102762D01*
X68148985Y-39004024D01*
X68177080Y-38919333D01*
X68194605Y-38885481D01*
X68429493Y-38885481D01*
X68718780Y-39425636D01*
X68736049Y-39367301D01*
X68747134Y-39298610D01*
X68751088Y-39217889D01*
X68743740Y-39103892D01*
X68723744Y-39014142D01*
X68693391Y-38943983D01*
X68660172Y-38897390D01*
X68623871Y-38866472D01*
X68583879Y-38848461D01*
X68538706Y-38842360D01*
X68498349Y-38847199D01*
X68462325Y-38861420D01*
X68429493Y-38885481D01*
X68194605Y-38885481D01*
X68217865Y-38840549D01*
X68266312Y-38777674D01*
X68322496Y-38728512D01*
X68387274Y-38692023D01*
X68458757Y-38669941D01*
X68538706Y-38662353D01*
X68618656Y-38669940D01*
G37*
G36*
X67632492Y-39773426D02*
G01*
X67714718Y-39768429D01*
X67791932Y-39753739D01*
X67864889Y-39729566D01*
X67933685Y-39695782D01*
X67993394Y-39654548D01*
X68044963Y-39605710D01*
X67908010Y-39477959D01*
X67842971Y-39536128D01*
X67784893Y-39570313D01*
X67720535Y-39589373D01*
X67635582Y-39596441D01*
X67572249Y-39591132D01*
X67521263Y-39576421D01*
X67480158Y-39553387D01*
X67447218Y-39521151D01*
X67428153Y-39484272D01*
X67421655Y-39441017D01*
X67426894Y-39401102D01*
X67441924Y-39368074D01*
X67467060Y-39340267D01*
X67499285Y-39319931D01*
X67538916Y-39307114D01*
X67587893Y-39302519D01*
X67723301Y-39302519D01*
X67723301Y-39134804D01*
X67606364Y-39134804D01*
X67560567Y-39130246D01*
X67523483Y-39117494D01*
X67493255Y-39097123D01*
X67470050Y-39069471D01*
X67455923Y-39035942D01*
X67450940Y-38994761D01*
X67456932Y-38953165D01*
X67474530Y-38917257D01*
X67504808Y-38885481D01*
X67542757Y-38861925D01*
X67586855Y-38847435D01*
X67638671Y-38842360D01*
X67713735Y-38849656D01*
X67774886Y-38870099D01*
X67831147Y-38905683D01*
X67897196Y-38967021D01*
X68035694Y-38840815D01*
X67982128Y-38788742D01*
X67921600Y-38745009D01*
X67853404Y-38709302D01*
X67780880Y-38683145D01*
X67706973Y-38667564D01*
X67631014Y-38662353D01*
X67556923Y-38666979D01*
X67491135Y-38680257D01*
X67432469Y-38701578D01*
X67378120Y-38731736D01*
X67333358Y-38767830D01*
X67297061Y-38810052D01*
X67269774Y-38858207D01*
X67253367Y-38910640D01*
X67247761Y-38968566D01*
X67254086Y-39024989D01*
X67272676Y-39075805D01*
X67303979Y-39122445D01*
X67344766Y-39161721D01*
X67393337Y-39192438D01*
X67450940Y-39214799D01*
X67382834Y-39234749D01*
X67326792Y-39263569D01*
X67280874Y-39300974D01*
X67245225Y-39347242D01*
X67224175Y-39398465D01*
X67216998Y-39456398D01*
X67223015Y-39516208D01*
X67240662Y-39570426D01*
X67270127Y-39620352D01*
X67309126Y-39663780D01*
X67357656Y-39701182D01*
X67417088Y-39732655D01*
X67480860Y-39754810D01*
X67552256Y-39768616D01*
X67632492Y-39773426D01*
G37*
G36*
X67067955Y-39756500D02*
G01*
X67067955Y-39611822D01*
X66620154Y-39154752D01*
X66576247Y-39105083D01*
X66550905Y-39064749D01*
X66535873Y-39022918D01*
X66530890Y-38979313D01*
X66536470Y-38941737D01*
X66552987Y-38908859D01*
X66581668Y-38879301D01*
X66617398Y-38857454D01*
X66658976Y-38843991D01*
X66707874Y-38839270D01*
X66779475Y-38846876D01*
X66844827Y-38869293D01*
X66907296Y-38907192D01*
X66983325Y-38971656D01*
X67097173Y-38833158D01*
X67020718Y-38769465D01*
X66943643Y-38721829D01*
X66865348Y-38688657D01*
X66785026Y-38668951D01*
X66701695Y-38662353D01*
X66629657Y-38666901D01*
X66565934Y-38679935D01*
X66509329Y-38700839D01*
X66457053Y-38730383D01*
X66414357Y-38765687D01*
X66380100Y-38806963D01*
X66354711Y-38853974D01*
X66339235Y-38906377D01*
X66333889Y-38965476D01*
X66337643Y-39017036D01*
X66348698Y-39065326D01*
X66367003Y-39110960D01*
X66408711Y-39177095D01*
X66480112Y-39257920D01*
X66806341Y-39585694D01*
X66315419Y-39584150D01*
X66315419Y-39756500D01*
X67067955Y-39756500D01*
G37*
G36*
X64846145Y-39442562D02*
G01*
X64885483Y-39437776D01*
X64919983Y-39423798D01*
X64950858Y-39400247D01*
X64974823Y-39369816D01*
X64989039Y-39335602D01*
X64993912Y-39296340D01*
X64989098Y-39258119D01*
X64974936Y-39224159D01*
X64950858Y-39193306D01*
X64919926Y-39169273D01*
X64885429Y-39155048D01*
X64846145Y-39150185D01*
X64806908Y-39155047D01*
X64772456Y-39169271D01*
X64741566Y-39193306D01*
X64717448Y-39224164D01*
X64703266Y-39258124D01*
X64698445Y-39296340D01*
X64703325Y-39335598D01*
X64717561Y-39369811D01*
X64741566Y-39400247D01*
X64772399Y-39423800D01*
X64806854Y-39437777D01*
X64846145Y-39442562D01*
G37*
G36*
X63081472Y-39602620D02*
G01*
X63081472Y-39302519D01*
X63361558Y-39302519D01*
X63361558Y-39142461D01*
X63081472Y-39142461D01*
X63081472Y-38846994D01*
X62916779Y-38846994D01*
X62916779Y-39142461D01*
X62638239Y-39142461D01*
X62638239Y-39302519D01*
X62916779Y-39302519D01*
X62916779Y-39602620D01*
X63081472Y-39602620D01*
G37*
G36*
X61159763Y-39771881D02*
G01*
X61268098Y-39764573D01*
X61366033Y-39743402D01*
X61427849Y-39720861D01*
X61481921Y-39692873D01*
X61529114Y-39659578D01*
X61429102Y-39522558D01*
X61347469Y-39567533D01*
X61284425Y-39593351D01*
X61222060Y-39608366D01*
X61158219Y-39613367D01*
X61085937Y-39607135D01*
X61036714Y-39591068D01*
X61010713Y-39573276D01*
X60996657Y-39553337D01*
X60992048Y-39530282D01*
X60995991Y-39508930D01*
X61007573Y-39491843D01*
X61028251Y-39477959D01*
X61067419Y-39463629D01*
X61122083Y-39451831D01*
X61243655Y-39431009D01*
X61306203Y-39416470D01*
X61364488Y-39396418D01*
X61416728Y-39367696D01*
X61458320Y-39328714D01*
X61478166Y-39297007D01*
X61490737Y-39257648D01*
X61495262Y-39208620D01*
X61489210Y-39151445D01*
X61471886Y-39102851D01*
X61443502Y-39060998D01*
X61402907Y-39024785D01*
X61355697Y-38997378D01*
X61300427Y-38976953D01*
X61235679Y-38963971D01*
X61159763Y-38959364D01*
X61069685Y-38965691D01*
X60980495Y-38984753D01*
X60894726Y-39016765D01*
X60813519Y-39062465D01*
X60916620Y-39194784D01*
X60978247Y-39158790D01*
X61039736Y-39135543D01*
X61103101Y-39122255D01*
X61165943Y-39117878D01*
X61229301Y-39123320D01*
X61270589Y-39137087D01*
X61291924Y-39152330D01*
X61303641Y-39169723D01*
X61307530Y-39190149D01*
X61303600Y-39210440D01*
X61291880Y-39227075D01*
X61270589Y-39240994D01*
X61230711Y-39255192D01*
X61175951Y-39266383D01*
X61052834Y-39286399D01*
X60988847Y-39300930D01*
X60929717Y-39320990D01*
X60876917Y-39350069D01*
X60835079Y-39390239D01*
X60815237Y-39422889D01*
X60802661Y-39463262D01*
X60798138Y-39513356D01*
X60803517Y-39562977D01*
X60819311Y-39607735D01*
X60845826Y-39648831D01*
X60880492Y-39684127D01*
X60923194Y-39714375D01*
X60975122Y-39739573D01*
X61030368Y-39757153D01*
X61091620Y-39768085D01*
X61159763Y-39771881D01*
G37*
G36*
X60231989Y-38837792D02*
G01*
X60269335Y-38833204D01*
X60302318Y-38819759D01*
X60332067Y-38797022D01*
X60355225Y-38767678D01*
X60368904Y-38734978D01*
X60373576Y-38697750D01*
X60368959Y-38661475D01*
X60355329Y-38629012D01*
X60332067Y-38599283D01*
X60302261Y-38576063D01*
X60269281Y-38562372D01*
X60231989Y-38557707D01*
X60194767Y-38562387D01*
X60162091Y-38576087D01*
X60132783Y-38599283D01*
X60109926Y-38628965D01*
X60096500Y-38661431D01*
X60091946Y-38697750D01*
X60096554Y-38735023D01*
X60110028Y-38767726D01*
X60132783Y-38797022D01*
X60162034Y-38819735D01*
X60194713Y-38833189D01*
X60231989Y-38837792D01*
G37*
G36*
X60028876Y-39771881D02*
G01*
X60117989Y-39764891D01*
X60187282Y-39745854D01*
X60240882Y-39716677D01*
X60281856Y-39677802D01*
X60311913Y-39628148D01*
X60331180Y-39565265D01*
X60338179Y-39485616D01*
X60338179Y-39139371D01*
X60613630Y-39139371D01*
X60613630Y-38974745D01*
X60125798Y-38974745D01*
X60125798Y-39464122D01*
X60121587Y-39508097D01*
X60110419Y-39539609D01*
X60093491Y-39561850D01*
X60070047Y-39577480D01*
X60037219Y-39587883D01*
X59991935Y-39591807D01*
X59921947Y-39585694D01*
X59886780Y-39577196D01*
X59845713Y-39562589D01*
X59845713Y-39736484D01*
X59879356Y-39748832D01*
X59928126Y-39761067D01*
X59979482Y-39769221D01*
X60028876Y-39771881D01*
G37*
G36*
X59161149Y-38654628D02*
G01*
X59161149Y-39048562D01*
X59203908Y-39011659D01*
X59251152Y-38984753D01*
X59302662Y-38968029D01*
X59358082Y-38962387D01*
X59422166Y-38968376D01*
X59481311Y-38986024D01*
X59536678Y-39015516D01*
X59585917Y-39054774D01*
X59628116Y-39102673D01*
X59663623Y-39160193D01*
X59689363Y-39222737D01*
X59705100Y-39290840D01*
X59710506Y-39365589D01*
X59705099Y-39440382D01*
X59689361Y-39508507D01*
X59663623Y-39571052D01*
X59628167Y-39628586D01*
X59586206Y-39676483D01*
X59537417Y-39715729D01*
X59482587Y-39745217D01*
X59424220Y-39762825D01*
X59361171Y-39768791D01*
X59300936Y-39762704D01*
X59247379Y-39744988D01*
X59199040Y-39715609D01*
X59154969Y-39673414D01*
X59154969Y-39756500D01*
X58950312Y-39756500D01*
X58950312Y-39196329D01*
X59161149Y-39196329D01*
X59161149Y-39534916D01*
X59204472Y-39570005D01*
X59253581Y-39590830D01*
X59310393Y-39597986D01*
X59365795Y-39590562D01*
X59411702Y-39569214D01*
X59450436Y-39533371D01*
X59478748Y-39487645D01*
X59496459Y-39432516D01*
X59502759Y-39365589D01*
X59496457Y-39298662D01*
X59478745Y-39243558D01*
X59450436Y-39197873D01*
X59411702Y-39162031D01*
X59365795Y-39140683D01*
X59310393Y-39133259D01*
X59268364Y-39137515D01*
X59228853Y-39150185D01*
X59192612Y-39170232D01*
X59161149Y-39196329D01*
X58950312Y-39196329D01*
X58950312Y-38622321D01*
X59161149Y-38654628D01*
G37*
G36*
X58454529Y-38968474D02*
G01*
X58521300Y-38986242D01*
X58582708Y-39015516D01*
X58638103Y-39055165D01*
X58685094Y-39103138D01*
X58724296Y-39160193D01*
X58753075Y-39223052D01*
X58770602Y-39291615D01*
X58776619Y-39367134D01*
X58770301Y-39441513D01*
X58751803Y-39509582D01*
X58721206Y-39572597D01*
X58679973Y-39629469D01*
X58630469Y-39677733D01*
X58571962Y-39718013D01*
X58507516Y-39747747D01*
X58438144Y-39765739D01*
X58362670Y-39771881D01*
X58266984Y-39764157D01*
X58182596Y-39741924D01*
X58130557Y-39718007D01*
X58079900Y-39684730D01*
X58030262Y-39641107D01*
X58167215Y-39517990D01*
X58203961Y-39554198D01*
X58246165Y-39579823D01*
X58294914Y-39595570D01*
X58351856Y-39601076D01*
X58404401Y-39595311D01*
X58451161Y-39578469D01*
X58493511Y-39550297D01*
X58528484Y-39513270D01*
X58553452Y-39470065D01*
X58568872Y-39419457D01*
X57985596Y-39419457D01*
X57985596Y-39370223D01*
X57991432Y-39293250D01*
X58182596Y-39293250D01*
X58565782Y-39293250D01*
X58550244Y-39245297D01*
X58527673Y-39205756D01*
X58498078Y-39173290D01*
X58462086Y-39148607D01*
X58421496Y-39133750D01*
X58374961Y-39128624D01*
X58328408Y-39133735D01*
X58287558Y-39148581D01*
X58251106Y-39173290D01*
X58221027Y-39205814D01*
X58198202Y-39245358D01*
X58182596Y-39293250D01*
X57991432Y-39293250D01*
X57991485Y-39292555D01*
X58008549Y-39222714D01*
X58036374Y-39159387D01*
X58074741Y-39101968D01*
X58121204Y-39054021D01*
X58176416Y-39014710D01*
X58237821Y-38986005D01*
X58305606Y-38968444D01*
X58381141Y-38962387D01*
X58454529Y-38968474D01*
G37*
G36*
X56612366Y-38968476D02*
G01*
X56680193Y-38986249D01*
X56742607Y-39015516D01*
X56798972Y-39055260D01*
X56846452Y-39103243D01*
X56885740Y-39160193D01*
X56914519Y-39223052D01*
X56932046Y-39291615D01*
X56938062Y-39367134D01*
X56932085Y-39441678D01*
X56914593Y-39510048D01*
X56885740Y-39573403D01*
X56846414Y-39630780D01*
X56798929Y-39678999D01*
X56742607Y-39718819D01*
X56680197Y-39748047D01*
X56612370Y-39765798D01*
X56537883Y-39771881D01*
X56463441Y-39765800D01*
X56395635Y-39748049D01*
X56333226Y-39718819D01*
X56276904Y-39678999D01*
X56229419Y-39630780D01*
X56190093Y-39573403D01*
X56161239Y-39510048D01*
X56143748Y-39441678D01*
X56137770Y-39367134D01*
X56343972Y-39367134D01*
X56350456Y-39430791D01*
X56368847Y-39483923D01*
X56398646Y-39528737D01*
X56438577Y-39563899D01*
X56484331Y-39584666D01*
X56537883Y-39591807D01*
X56591480Y-39584664D01*
X56637254Y-39563896D01*
X56677187Y-39528737D01*
X56706947Y-39483928D01*
X56725317Y-39430796D01*
X56731793Y-39367134D01*
X56725335Y-39303501D01*
X56706979Y-39250099D01*
X56677187Y-39204792D01*
X56637195Y-39169145D01*
X56591422Y-39148133D01*
X56537883Y-39140916D01*
X56484388Y-39148131D01*
X56438636Y-39169141D01*
X56398646Y-39204792D01*
X56368815Y-39250103D01*
X56350437Y-39303505D01*
X56343972Y-39367134D01*
X56137770Y-39367134D01*
X56143787Y-39291615D01*
X56161314Y-39223052D01*
X56190093Y-39160193D01*
X56229381Y-39103243D01*
X56276861Y-39055260D01*
X56333226Y-39015516D01*
X56395639Y-38986247D01*
X56463444Y-38968475D01*
X56537883Y-38962387D01*
X56612366Y-38968476D01*
G37*
G36*
X55708642Y-39768791D02*
G01*
X55760053Y-39764767D01*
X55805925Y-39753136D01*
X55847207Y-39734200D01*
X55884305Y-39708097D01*
X55915428Y-39676221D01*
X55941039Y-39638017D01*
X55959557Y-39595773D01*
X55970949Y-39548884D01*
X55974891Y-39496430D01*
X55974891Y-38974745D01*
X55762509Y-38974745D01*
X55762509Y-39434838D01*
X55757596Y-39483592D01*
X55743816Y-39523221D01*
X55721739Y-39555671D01*
X55691909Y-39580585D01*
X55655861Y-39595737D01*
X55611720Y-39601076D01*
X55558374Y-39593633D01*
X55512866Y-39571927D01*
X55473155Y-39534916D01*
X55473155Y-38974745D01*
X55260841Y-38974745D01*
X55260841Y-39756500D01*
X55473155Y-39756500D01*
X55473155Y-39645674D01*
X55522493Y-39700555D01*
X55577278Y-39738334D01*
X55638661Y-39760996D01*
X55708642Y-39768791D01*
G37*
G36*
X54548537Y-39771881D02*
G01*
X54640703Y-39764986D01*
X54711936Y-39746285D01*
X54766580Y-39717823D01*
X54807943Y-39680246D01*
X54837993Y-39632723D01*
X54857107Y-39573060D01*
X54864019Y-39497975D01*
X54864019Y-39139371D01*
X55102529Y-39139371D01*
X55102529Y-38974745D01*
X54864019Y-38974745D01*
X54864019Y-38757729D01*
X54651638Y-38713131D01*
X54651638Y-38974745D01*
X54339245Y-38974745D01*
X54339245Y-39139371D01*
X54651638Y-39139371D01*
X54651638Y-39457943D01*
X54647299Y-39506203D01*
X54636017Y-39539485D01*
X54619331Y-39561850D01*
X54595741Y-39577265D01*
X54561130Y-39587770D01*
X54511595Y-39591807D01*
X54434622Y-39586433D01*
X54334611Y-39564134D01*
X54334611Y-39738029D01*
X54439995Y-39761873D01*
X54496968Y-39769469D01*
X54548537Y-39771881D01*
G37*
G36*
X78147183Y-42156500D02*
G01*
X78147183Y-41079279D01*
X77928623Y-41079279D01*
X77577743Y-41759477D01*
X77580833Y-41079279D01*
X77393102Y-41079279D01*
X77393102Y-42156500D01*
X77596214Y-42156500D01*
X77962475Y-41451651D01*
X77959452Y-42156500D01*
X78147183Y-42156500D01*
G37*
G36*
X76917334Y-41368474D02*
G01*
X76984106Y-41386242D01*
X77045514Y-41415516D01*
X77100909Y-41455165D01*
X77147900Y-41503138D01*
X77187101Y-41560193D01*
X77215880Y-41623052D01*
X77233408Y-41691615D01*
X77239424Y-41767134D01*
X77233106Y-41841513D01*
X77214609Y-41909582D01*
X77184012Y-41972597D01*
X77142778Y-42029469D01*
X77093274Y-42077733D01*
X77034767Y-42118013D01*
X76970321Y-42147747D01*
X76900950Y-42165739D01*
X76825475Y-42171881D01*
X76729790Y-42164157D01*
X76645401Y-42141924D01*
X76593363Y-42118007D01*
X76542705Y-42084730D01*
X76493067Y-42041107D01*
X76630020Y-41917990D01*
X76666767Y-41954198D01*
X76708971Y-41979823D01*
X76757720Y-41995570D01*
X76814662Y-42001076D01*
X76867206Y-41995311D01*
X76913966Y-41978469D01*
X76956316Y-41950297D01*
X76991289Y-41913270D01*
X77016258Y-41870065D01*
X77031677Y-41819457D01*
X76448401Y-41819457D01*
X76448401Y-41770223D01*
X76454237Y-41693250D01*
X76645401Y-41693250D01*
X77028588Y-41693250D01*
X77013049Y-41645297D01*
X76990479Y-41605756D01*
X76960884Y-41573290D01*
X76924891Y-41548607D01*
X76884302Y-41533750D01*
X76837767Y-41528624D01*
X76791213Y-41533735D01*
X76750363Y-41548581D01*
X76713911Y-41573290D01*
X76683832Y-41605814D01*
X76661007Y-41645358D01*
X76645401Y-41693250D01*
X76454237Y-41693250D01*
X76454290Y-41692555D01*
X76471355Y-41622714D01*
X76499179Y-41559387D01*
X76537547Y-41501968D01*
X76584010Y-41454021D01*
X76639222Y-41414710D01*
X76700626Y-41386005D01*
X76768411Y-41368444D01*
X76843946Y-41362387D01*
X76917334Y-41368474D01*
G37*
G36*
X76017728Y-42168791D02*
G01*
X76069139Y-42164767D01*
X76115011Y-42153136D01*
X76156293Y-42134200D01*
X76193391Y-42108097D01*
X76224514Y-42076221D01*
X76250125Y-42038017D01*
X76268643Y-41995773D01*
X76280035Y-41948884D01*
X76283977Y-41896430D01*
X76283977Y-41374745D01*
X76071595Y-41374745D01*
X76071595Y-41834838D01*
X76066681Y-41883592D01*
X76052902Y-41923221D01*
X76030825Y-41955671D01*
X76000995Y-41980585D01*
X75964947Y-41995737D01*
X75920806Y-42001076D01*
X75867460Y-41993633D01*
X75821952Y-41971927D01*
X75782241Y-41934916D01*
X75782241Y-41374745D01*
X75569927Y-41374745D01*
X75569927Y-42156500D01*
X75782241Y-42156500D01*
X75782241Y-42045674D01*
X75831579Y-42100555D01*
X75886364Y-42138334D01*
X75947747Y-42160996D01*
X76017728Y-42168791D01*
G37*
G36*
X75357747Y-42156500D02*
G01*
X75357747Y-41991807D01*
X75176128Y-41991807D01*
X75176128Y-41539371D01*
X75357747Y-41539371D01*
X75357747Y-41374745D01*
X74965291Y-41374745D01*
X74965291Y-41565566D01*
X74934149Y-41500768D01*
X74898709Y-41450792D01*
X74859168Y-41413232D01*
X74812867Y-41385015D01*
X74762488Y-41368141D01*
X74706766Y-41362387D01*
X74649876Y-41367021D01*
X74594464Y-41385492D01*
X74594464Y-41574768D01*
X74665996Y-41554819D01*
X74743708Y-41547095D01*
X74810659Y-41555224D01*
X74872198Y-41579403D01*
X74908953Y-41603918D01*
X74939818Y-41634022D01*
X74965291Y-41670212D01*
X74965291Y-41991807D01*
X74772926Y-41991807D01*
X74772926Y-42156500D01*
X75357747Y-42156500D01*
G37*
G36*
X74162069Y-41367348D02*
G01*
X74247681Y-41382402D01*
X74333205Y-41407875D01*
X74426882Y-41447084D01*
X74349976Y-41597873D01*
X74257571Y-41561348D01*
X74182736Y-41542043D01*
X74122214Y-41536281D01*
X74055501Y-41543088D01*
X74009576Y-41560913D01*
X73978736Y-41587793D01*
X73959832Y-41624610D01*
X73952954Y-41674846D01*
X73952954Y-41748663D01*
X74021732Y-41723416D01*
X74087658Y-41708817D01*
X74151431Y-41704064D01*
X74223838Y-41708451D01*
X74284031Y-41720671D01*
X74333989Y-41739658D01*
X74375365Y-41764850D01*
X74410839Y-41798227D01*
X74435702Y-41836442D01*
X74450877Y-41880459D01*
X74456167Y-41931827D01*
X74452072Y-41977941D01*
X74440214Y-42018919D01*
X74420770Y-42055749D01*
X74394524Y-42088291D01*
X74362196Y-42116163D01*
X74323043Y-42139573D01*
X74257536Y-42162374D01*
X74180716Y-42170336D01*
X74119605Y-42164650D01*
X74061898Y-42147741D01*
X74006596Y-42119233D01*
X73952954Y-42077982D01*
X73952954Y-42156500D01*
X73743595Y-42156500D01*
X73743595Y-41862578D01*
X73952954Y-41862578D01*
X73952954Y-41970313D01*
X74002500Y-42000976D01*
X74056894Y-42019367D01*
X74117579Y-42025659D01*
X74177850Y-42018557D01*
X74220680Y-41999531D01*
X74242348Y-41979660D01*
X74254879Y-41956461D01*
X74259167Y-41928737D01*
X74254728Y-41900125D01*
X74241917Y-41876990D01*
X74219942Y-41857943D01*
X74176226Y-41840085D01*
X74112945Y-41833293D01*
X74031312Y-41840631D01*
X73952954Y-41862578D01*
X73743595Y-41862578D01*
X73743595Y-41654831D01*
X73749621Y-41585807D01*
X73766620Y-41528101D01*
X73793761Y-41479550D01*
X73831315Y-41438621D01*
X73876862Y-41406772D01*
X73931767Y-41383023D01*
X73997892Y-41367830D01*
X74077548Y-41362387D01*
X74162069Y-41367348D01*
G37*
G36*
X72969766Y-42171881D02*
G01*
X73058879Y-42164891D01*
X73128172Y-42145854D01*
X73181772Y-42116677D01*
X73222746Y-42077802D01*
X73252803Y-42028148D01*
X73272070Y-41965265D01*
X73279069Y-41885616D01*
X73279069Y-41202395D01*
X73554587Y-41202395D01*
X73554587Y-41037702D01*
X73066688Y-41037702D01*
X73066688Y-41864122D01*
X73062477Y-41908097D01*
X73051309Y-41939609D01*
X73034381Y-41961850D01*
X73010937Y-41977480D01*
X72978109Y-41987883D01*
X72932824Y-41991807D01*
X72862837Y-41985694D01*
X72827669Y-41977196D01*
X72786602Y-41962589D01*
X72786602Y-42136484D01*
X72820246Y-42148832D01*
X72869016Y-42161067D01*
X72920372Y-42169221D01*
X72969766Y-42171881D01*
G37*
G36*
X72217431Y-42173426D02*
G01*
X72294450Y-42166147D01*
X72365532Y-42144693D01*
X72432096Y-42108811D01*
X72490569Y-42060506D01*
X72541837Y-41998365D01*
X72586042Y-41920274D01*
X72616959Y-41835771D01*
X72636703Y-41735907D01*
X72643739Y-41617889D01*
X72636703Y-41499871D01*
X72616959Y-41400007D01*
X72586042Y-41315504D01*
X72541830Y-41237373D01*
X72490562Y-41175236D01*
X72432096Y-41126967D01*
X72365532Y-41091085D01*
X72294450Y-41069631D01*
X72217431Y-41062353D01*
X72146712Y-41068333D01*
X72081670Y-41085877D01*
X72021150Y-41114949D01*
X71964279Y-41156252D01*
X71915789Y-41206170D01*
X71874832Y-41265945D01*
X71841349Y-41336930D01*
X71815774Y-41420889D01*
X72015864Y-41474757D01*
X72033429Y-41407142D01*
X72058057Y-41355328D01*
X72088941Y-41316243D01*
X72127870Y-41285675D01*
X72168261Y-41268175D01*
X72211319Y-41262375D01*
X72252591Y-41267548D01*
X72290168Y-41282907D01*
X72325198Y-41309230D01*
X72358280Y-41348550D01*
X72381810Y-41391936D01*
X72400410Y-41449024D01*
X72412894Y-41523082D01*
X72417521Y-41617889D01*
X72412894Y-41712658D01*
X72400411Y-41786695D01*
X72381812Y-41843775D01*
X72358280Y-41887161D01*
X72325198Y-41926481D01*
X72290168Y-41952804D01*
X72252591Y-41968163D01*
X72211319Y-41973336D01*
X72168257Y-41967542D01*
X72127865Y-41950062D01*
X72088941Y-41919535D01*
X72058057Y-41880450D01*
X72033429Y-41828636D01*
X72015864Y-41761021D01*
X71815774Y-41814889D01*
X71841347Y-41898848D01*
X71874829Y-41969846D01*
X71915787Y-42029643D01*
X71964279Y-42079594D01*
X72021147Y-42120865D01*
X72081665Y-42149916D01*
X72146708Y-42167449D01*
X72217431Y-42173426D01*
G37*
G36*
X71392648Y-41367348D02*
G01*
X71478261Y-41382402D01*
X71563784Y-41407875D01*
X71657462Y-41447084D01*
X71580556Y-41597873D01*
X71488150Y-41561348D01*
X71413315Y-41542043D01*
X71352793Y-41536281D01*
X71286080Y-41543088D01*
X71240155Y-41560913D01*
X71209315Y-41587793D01*
X71190412Y-41624610D01*
X71183533Y-41674846D01*
X71183533Y-41748663D01*
X71252311Y-41723416D01*
X71318238Y-41708817D01*
X71382011Y-41704064D01*
X71454417Y-41708451D01*
X71514611Y-41720671D01*
X71564568Y-41739658D01*
X71605945Y-41764850D01*
X71641418Y-41798227D01*
X71666281Y-41836442D01*
X71681457Y-41880459D01*
X71686746Y-41931827D01*
X71682651Y-41977941D01*
X71670793Y-42018919D01*
X71651349Y-42055749D01*
X71625103Y-42088291D01*
X71592775Y-42116163D01*
X71553622Y-42139573D01*
X71488116Y-42162374D01*
X71411295Y-42170336D01*
X71350184Y-42164650D01*
X71292477Y-42147741D01*
X71237175Y-42119233D01*
X71183533Y-42077982D01*
X71183533Y-42156500D01*
X70974174Y-42156500D01*
X70974174Y-41862578D01*
X71183533Y-41862578D01*
X71183533Y-41970313D01*
X71233079Y-42000976D01*
X71287473Y-42019367D01*
X71348159Y-42025659D01*
X71408429Y-42018557D01*
X71451260Y-41999531D01*
X71472927Y-41979660D01*
X71485458Y-41956461D01*
X71489746Y-41928737D01*
X71485308Y-41900125D01*
X71472497Y-41876990D01*
X71450521Y-41857943D01*
X71406806Y-41840085D01*
X71343524Y-41833293D01*
X71261891Y-41840631D01*
X71183533Y-41862578D01*
X70974174Y-41862578D01*
X70974174Y-41654831D01*
X70980200Y-41585807D01*
X70997199Y-41528101D01*
X71024340Y-41479550D01*
X71061894Y-41438621D01*
X71107441Y-41406772D01*
X71162346Y-41383023D01*
X71228471Y-41367830D01*
X71308127Y-41362387D01*
X71392648Y-41367348D01*
G37*
G36*
X70742046Y-42156500D02*
G01*
X70742046Y-41991807D01*
X70560427Y-41991807D01*
X70560427Y-41539371D01*
X70742046Y-41539371D01*
X70742046Y-41374745D01*
X70349590Y-41374745D01*
X70349590Y-41565566D01*
X70318448Y-41500768D01*
X70283008Y-41450792D01*
X70243467Y-41413232D01*
X70197165Y-41385015D01*
X70146787Y-41368141D01*
X70091065Y-41362387D01*
X70034175Y-41367021D01*
X69978762Y-41385492D01*
X69978762Y-41574768D01*
X70050295Y-41554819D01*
X70128007Y-41547095D01*
X70194958Y-41555224D01*
X70256497Y-41579403D01*
X70293252Y-41603918D01*
X70324117Y-41634022D01*
X70349590Y-41670212D01*
X70349590Y-41991807D01*
X70157224Y-41991807D01*
X70157224Y-42156500D01*
X70742046Y-42156500D01*
G37*
G36*
X69315692Y-41054628D02*
G01*
X69315692Y-41448562D01*
X69358451Y-41411659D01*
X69405695Y-41384753D01*
X69457205Y-41368029D01*
X69512625Y-41362387D01*
X69576710Y-41368376D01*
X69635854Y-41386024D01*
X69691221Y-41415516D01*
X69740461Y-41454774D01*
X69782659Y-41502673D01*
X69818166Y-41560193D01*
X69843906Y-41622737D01*
X69859643Y-41690840D01*
X69865049Y-41765589D01*
X69859642Y-41840382D01*
X69843904Y-41908507D01*
X69818166Y-41971052D01*
X69782710Y-42028586D01*
X69740749Y-42076483D01*
X69691960Y-42115729D01*
X69637130Y-42145217D01*
X69578763Y-42162825D01*
X69515714Y-42168791D01*
X69455479Y-42162704D01*
X69401922Y-42144988D01*
X69353583Y-42115609D01*
X69309512Y-42073414D01*
X69309512Y-42156500D01*
X69104855Y-42156500D01*
X69104855Y-41596329D01*
X69315692Y-41596329D01*
X69315692Y-41934916D01*
X69359015Y-41970005D01*
X69408124Y-41990830D01*
X69464936Y-41997986D01*
X69520338Y-41990562D01*
X69566245Y-41969214D01*
X69604979Y-41933371D01*
X69633291Y-41887645D01*
X69651002Y-41832516D01*
X69657302Y-41765589D01*
X69651000Y-41698662D01*
X69633288Y-41643558D01*
X69604979Y-41597873D01*
X69566245Y-41562031D01*
X69520338Y-41540683D01*
X69464936Y-41533259D01*
X69422907Y-41537515D01*
X69383396Y-41550185D01*
X69347155Y-41570232D01*
X69315692Y-41596329D01*
X69104855Y-41596329D01*
X69104855Y-41022321D01*
X69315692Y-41054628D01*
G37*
G36*
X67720212Y-42156500D02*
G01*
X68041874Y-41374745D01*
X67811021Y-41374745D01*
X67610999Y-41907176D01*
X67409364Y-41374745D01*
X67189326Y-41374745D01*
X67514010Y-42156500D01*
X67720212Y-42156500D01*
G37*
G36*
X67067955Y-42156500D02*
G01*
X67067955Y-42011822D01*
X66620154Y-41554752D01*
X66576247Y-41505083D01*
X66550905Y-41464749D01*
X66535873Y-41422918D01*
X66530890Y-41379313D01*
X66536470Y-41341737D01*
X66552987Y-41308859D01*
X66581668Y-41279301D01*
X66617398Y-41257454D01*
X66658976Y-41243991D01*
X66707874Y-41239270D01*
X66779475Y-41246876D01*
X66844827Y-41269293D01*
X66907296Y-41307192D01*
X66983325Y-41371656D01*
X67097173Y-41233158D01*
X67020718Y-41169465D01*
X66943643Y-41121829D01*
X66865348Y-41088657D01*
X66785026Y-41068951D01*
X66701695Y-41062353D01*
X66629657Y-41066901D01*
X66565935Y-41079935D01*
X66509329Y-41100839D01*
X66457053Y-41130383D01*
X66414357Y-41165687D01*
X66380100Y-41206963D01*
X66354712Y-41253974D01*
X66339235Y-41306377D01*
X66333890Y-41365476D01*
X66337643Y-41417036D01*
X66348698Y-41465326D01*
X66367003Y-41510960D01*
X66408711Y-41577095D01*
X66480112Y-41657920D01*
X66806341Y-41985694D01*
X66315419Y-41984150D01*
X66315419Y-42156500D01*
X67067955Y-42156500D01*
G37*
G36*
X65769286Y-42171881D02*
G01*
X65808574Y-42167024D01*
X65843071Y-42152820D01*
X65873999Y-42128827D01*
X65898075Y-42097931D01*
X65912238Y-42063926D01*
X65917053Y-42025659D01*
X65912181Y-41986441D01*
X65897967Y-41952248D01*
X65873999Y-41921819D01*
X65843123Y-41898267D01*
X65808623Y-41884289D01*
X65769286Y-41879504D01*
X65729994Y-41884289D01*
X65695539Y-41898266D01*
X65664707Y-41921819D01*
X65640698Y-41952253D01*
X65626464Y-41986445D01*
X65621586Y-42025659D01*
X65626407Y-42063922D01*
X65640590Y-42097926D01*
X65664707Y-42128827D01*
X65695592Y-42152821D01*
X65730044Y-42167025D01*
X65769286Y-42171881D01*
G37*
G36*
X65213951Y-42156500D02*
G01*
X65213951Y-41984150D01*
X64941589Y-41984150D01*
X64941589Y-41291593D01*
X65213951Y-41405508D01*
X65213951Y-41225434D01*
X64866161Y-41079279D01*
X64739955Y-41079279D01*
X64739955Y-41984150D01*
X64461414Y-41984150D01*
X64461414Y-42156500D01*
X65213951Y-42156500D01*
G37*
G36*
X62999865Y-41842562D02*
G01*
X63039203Y-41837776D01*
X63073703Y-41823798D01*
X63104578Y-41800247D01*
X63128543Y-41769816D01*
X63142758Y-41735602D01*
X63147632Y-41696340D01*
X63142818Y-41658119D01*
X63128655Y-41624159D01*
X63104578Y-41593306D01*
X63073645Y-41569273D01*
X63039149Y-41555048D01*
X62999865Y-41550185D01*
X62960627Y-41555047D01*
X62926176Y-41569271D01*
X62895286Y-41593306D01*
X62871168Y-41624164D01*
X62856986Y-41658124D01*
X62852165Y-41696340D01*
X62857045Y-41735598D01*
X62871281Y-41769811D01*
X62895286Y-41800247D01*
X62926118Y-41823800D01*
X62960574Y-41837777D01*
X62999865Y-41842562D01*
G37*
G36*
X61159857Y-41368556D02*
G01*
X61213389Y-41386528D01*
X61261783Y-41416387D01*
X61305986Y-41459375D01*
X61305986Y-41374745D01*
X61512188Y-41374745D01*
X61512188Y-42478161D01*
X61299806Y-42478161D01*
X61299806Y-42082616D01*
X61258131Y-42119456D01*
X61210542Y-42146492D01*
X61158393Y-42163180D01*
X61102806Y-42168791D01*
X61038764Y-42162809D01*
X60979664Y-42145182D01*
X60924344Y-42115729D01*
X60875056Y-42076430D01*
X60832837Y-42028528D01*
X60797332Y-41971052D01*
X60771556Y-41908503D01*
X60755797Y-41840379D01*
X60750382Y-41765589D01*
X60958196Y-41765589D01*
X60964496Y-41832516D01*
X60982207Y-41887645D01*
X61010519Y-41933371D01*
X61049253Y-41969214D01*
X61095160Y-41990562D01*
X61150562Y-41997986D01*
X61206404Y-41990905D01*
X61255566Y-41970142D01*
X61299806Y-41934916D01*
X61299806Y-41596329D01*
X61256443Y-41561234D01*
X61207331Y-41540411D01*
X61150562Y-41533259D01*
X61095160Y-41540683D01*
X61049253Y-41562031D01*
X61010519Y-41597873D01*
X60982210Y-41643558D01*
X60964498Y-41698662D01*
X60958196Y-41765589D01*
X60750382Y-41765589D01*
X60755795Y-41690843D01*
X60771554Y-41622741D01*
X60797332Y-41560193D01*
X60832794Y-41502619D01*
X60874756Y-41454726D01*
X60923538Y-41415516D01*
X60978371Y-41385986D01*
X61036716Y-41368358D01*
X61099717Y-41362387D01*
X61159857Y-41368556D01*
G37*
G36*
X60587503Y-42156500D02*
G01*
X60587503Y-41991807D01*
X60405884Y-41991807D01*
X60405884Y-41539371D01*
X60587503Y-41539371D01*
X60587503Y-41374745D01*
X60195047Y-41374745D01*
X60195047Y-41565566D01*
X60163905Y-41500768D01*
X60128465Y-41450792D01*
X60088924Y-41413232D01*
X60042623Y-41385015D01*
X59992244Y-41368141D01*
X59936522Y-41362387D01*
X59879632Y-41367021D01*
X59824219Y-41385492D01*
X59824219Y-41574768D01*
X59895752Y-41554819D01*
X59973464Y-41547095D01*
X60040415Y-41555224D01*
X60101954Y-41579403D01*
X60138709Y-41603918D01*
X60169574Y-41634022D01*
X60195047Y-41670212D01*
X60195047Y-41991807D01*
X60002681Y-41991807D01*
X60002681Y-42156500D01*
X60587503Y-42156500D01*
G37*
G36*
X59308849Y-41237792D02*
G01*
X59346194Y-41233204D01*
X59379178Y-41219759D01*
X59408927Y-41197022D01*
X59432085Y-41167678D01*
X59445764Y-41134978D01*
X59450436Y-41097750D01*
X59445819Y-41061475D01*
X59432189Y-41029012D01*
X59408927Y-40999283D01*
X59379121Y-40976063D01*
X59346141Y-40962372D01*
X59308849Y-40957707D01*
X59271627Y-40962387D01*
X59238951Y-40976087D01*
X59209643Y-40999283D01*
X59186786Y-41028965D01*
X59173360Y-41061431D01*
X59168806Y-41097750D01*
X59173414Y-41135023D01*
X59186888Y-41167726D01*
X59209643Y-41197022D01*
X59238893Y-41219735D01*
X59271573Y-41233189D01*
X59308849Y-41237792D01*
G37*
G36*
X59105736Y-42171881D02*
G01*
X59194849Y-42164891D01*
X59264142Y-42145854D01*
X59317742Y-42116677D01*
X59358716Y-42077802D01*
X59388773Y-42028148D01*
X59408040Y-41965265D01*
X59415039Y-41885616D01*
X59415039Y-41539371D01*
X59690490Y-41539371D01*
X59690490Y-41374745D01*
X59202658Y-41374745D01*
X59202658Y-41864122D01*
X59198447Y-41908097D01*
X59187279Y-41939609D01*
X59170351Y-41961850D01*
X59146907Y-41977480D01*
X59114079Y-41987883D01*
X59068794Y-41991807D01*
X58998807Y-41985694D01*
X58963639Y-41977196D01*
X58922572Y-41962589D01*
X58922572Y-42136484D01*
X58956216Y-42148832D01*
X59004986Y-42161067D01*
X59056342Y-42169221D01*
X59105736Y-42171881D01*
G37*
G36*
X58738132Y-42156500D02*
G01*
X58738132Y-41374745D01*
X58525751Y-41374745D01*
X58525751Y-41485503D01*
X58476413Y-41430619D01*
X58421638Y-41392840D01*
X58360277Y-41370181D01*
X58290331Y-41362387D01*
X58238924Y-41366419D01*
X58193076Y-41378072D01*
X58151834Y-41397045D01*
X58114700Y-41423116D01*
X58083555Y-41454991D01*
X58057934Y-41493228D01*
X58039421Y-41535430D01*
X58028027Y-41582316D01*
X58024082Y-41634815D01*
X58024082Y-42156500D01*
X58236464Y-42156500D01*
X58236464Y-41696340D01*
X58241429Y-41646599D01*
X58255250Y-41606817D01*
X58277234Y-41574835D01*
X58307009Y-41550360D01*
X58343056Y-41535435D01*
X58387253Y-41530169D01*
X58441514Y-41537690D01*
X58486940Y-41559457D01*
X58525751Y-41596329D01*
X58525751Y-42156500D01*
X58738132Y-42156500D01*
G37*
G36*
X57436440Y-42171881D02*
G01*
X57514021Y-42165784D01*
X57584647Y-42148011D01*
X57649560Y-42118819D01*
X57708499Y-42078883D01*
X57758262Y-42030634D01*
X57799611Y-41973403D01*
X57830233Y-41909875D01*
X57848719Y-41841526D01*
X57855024Y-41767134D01*
X57848679Y-41691771D01*
X57830155Y-41623228D01*
X57799611Y-41560193D01*
X57758301Y-41503388D01*
X57708542Y-41455375D01*
X57649560Y-41415516D01*
X57584643Y-41386285D01*
X57514018Y-41368490D01*
X57436440Y-41362387D01*
X57358697Y-41368133D01*
X57287514Y-41384904D01*
X57221775Y-41412426D01*
X57161520Y-41450257D01*
X57111872Y-41495020D01*
X57071725Y-41547095D01*
X57233261Y-41662488D01*
X57268581Y-41612975D01*
X57315674Y-41575574D01*
X57371501Y-41552033D01*
X57434895Y-41544006D01*
X57492324Y-41551260D01*
X57542631Y-41572484D01*
X57584973Y-41606370D01*
X57617253Y-41651741D01*
X57637257Y-41705143D01*
X57644187Y-41767134D01*
X57637235Y-41829076D01*
X57617253Y-41881855D01*
X57585065Y-41926725D01*
X57542631Y-41961111D01*
X57492279Y-41982899D01*
X57434895Y-41990329D01*
X57391705Y-41986645D01*
X57352211Y-41975860D01*
X57315674Y-41958022D01*
X57268432Y-41920196D01*
X57233261Y-41871780D01*
X57071725Y-41987239D01*
X57111746Y-42038408D01*
X57161381Y-42082928D01*
X57221775Y-42121103D01*
X57287553Y-42149043D01*
X57358732Y-42166055D01*
X57436440Y-42171881D01*
G37*
G36*
X56608248Y-41368474D02*
G01*
X56675020Y-41386242D01*
X56736428Y-41415516D01*
X56791823Y-41455165D01*
X56838814Y-41503138D01*
X56878016Y-41560193D01*
X56906795Y-41623052D01*
X56924322Y-41691615D01*
X56930338Y-41767134D01*
X56924020Y-41841513D01*
X56905523Y-41909582D01*
X56874926Y-41972597D01*
X56833693Y-42029469D01*
X56784188Y-42077733D01*
X56725681Y-42118013D01*
X56661235Y-42147747D01*
X56591864Y-42165739D01*
X56516390Y-42171881D01*
X56420704Y-42164157D01*
X56336315Y-42141924D01*
X56284277Y-42118007D01*
X56233620Y-42084730D01*
X56183981Y-42041107D01*
X56320934Y-41917990D01*
X56357681Y-41954198D01*
X56399885Y-41979823D01*
X56448634Y-41995570D01*
X56505576Y-42001076D01*
X56558120Y-41995311D01*
X56604880Y-41978469D01*
X56647230Y-41950297D01*
X56682203Y-41913270D01*
X56707172Y-41870065D01*
X56722592Y-41819457D01*
X56139315Y-41819457D01*
X56139315Y-41770223D01*
X56145151Y-41693250D01*
X56336315Y-41693250D01*
X56719502Y-41693250D01*
X56703963Y-41645297D01*
X56681393Y-41605756D01*
X56651798Y-41573290D01*
X56615805Y-41548607D01*
X56575216Y-41533750D01*
X56528681Y-41528624D01*
X56482127Y-41533735D01*
X56441277Y-41548581D01*
X56404826Y-41573290D01*
X56374747Y-41605814D01*
X56351921Y-41645358D01*
X56336315Y-41693250D01*
X56145151Y-41693250D01*
X56145204Y-41692555D01*
X56162269Y-41622714D01*
X56190093Y-41559387D01*
X56228461Y-41501968D01*
X56274924Y-41454021D01*
X56330136Y-41414710D01*
X56391540Y-41386005D01*
X56459325Y-41368444D01*
X56534860Y-41362387D01*
X56608248Y-41368474D01*
G37*
G36*
X55471677Y-42171881D02*
G01*
X55563844Y-42164986D01*
X55635076Y-42146285D01*
X55689720Y-42117823D01*
X55731084Y-42080246D01*
X55761133Y-42032723D01*
X55780248Y-41973060D01*
X55787160Y-41897975D01*
X55787160Y-41539371D01*
X56025669Y-41539371D01*
X56025669Y-41374745D01*
X55787160Y-41374745D01*
X55787160Y-41157729D01*
X55574778Y-41113131D01*
X55574778Y-41374745D01*
X55262386Y-41374745D01*
X55262386Y-41539371D01*
X55574778Y-41539371D01*
X55574778Y-41857943D01*
X55570440Y-41906203D01*
X55559158Y-41939485D01*
X55542471Y-41961850D01*
X55518881Y-41977265D01*
X55484271Y-41987770D01*
X55434736Y-41991807D01*
X55357763Y-41986433D01*
X55257751Y-41964134D01*
X55257751Y-42138029D01*
X55363136Y-42161873D01*
X55420108Y-42169469D01*
X55471677Y-42171881D01*
G37*
G36*
X54761968Y-41368474D02*
G01*
X54828739Y-41386242D01*
X54890147Y-41415516D01*
X54945542Y-41455165D01*
X54992533Y-41503138D01*
X55031735Y-41560193D01*
X55060514Y-41623052D01*
X55078041Y-41691615D01*
X55084058Y-41767134D01*
X55077740Y-41841513D01*
X55059242Y-41909582D01*
X55028645Y-41972597D01*
X54987412Y-42029469D01*
X54937908Y-42077733D01*
X54879401Y-42118013D01*
X54814955Y-42147747D01*
X54745584Y-42165739D01*
X54670109Y-42171881D01*
X54574423Y-42164157D01*
X54490035Y-42141924D01*
X54437996Y-42118007D01*
X54387339Y-42084730D01*
X54337701Y-42041107D01*
X54474654Y-41917990D01*
X54511400Y-41954198D01*
X54553604Y-41979823D01*
X54602353Y-41995570D01*
X54659295Y-42001076D01*
X54711840Y-41995311D01*
X54758600Y-41978469D01*
X54800950Y-41950297D01*
X54835923Y-41913270D01*
X54860891Y-41870065D01*
X54876311Y-41819457D01*
X54293035Y-41819457D01*
X54293035Y-41770223D01*
X54298871Y-41693250D01*
X54490035Y-41693250D01*
X54873221Y-41693250D01*
X54857683Y-41645297D01*
X54835113Y-41605756D01*
X54805517Y-41573290D01*
X54769525Y-41548607D01*
X54728935Y-41533750D01*
X54682401Y-41528624D01*
X54635847Y-41533735D01*
X54594997Y-41548581D01*
X54558545Y-41573290D01*
X54528466Y-41605814D01*
X54505641Y-41645358D01*
X54490035Y-41693250D01*
X54298871Y-41693250D01*
X54298924Y-41692555D01*
X54315988Y-41622714D01*
X54343813Y-41559387D01*
X54382180Y-41501968D01*
X54428643Y-41454021D01*
X54483856Y-41414710D01*
X54545260Y-41386005D01*
X54613045Y-41368444D01*
X54688580Y-41362387D01*
X54761968Y-41368474D01*
G37*
G36*
X54116319Y-42156500D02*
G01*
X54116319Y-41054628D01*
X53905482Y-41022321D01*
X53905482Y-41697885D01*
X53594567Y-41374745D01*
X53356058Y-41374745D01*
X53703848Y-41730192D01*
X53334498Y-42156500D01*
X53602292Y-42156500D01*
X53905482Y-41800986D01*
X53905482Y-42156500D01*
X54116319Y-42156500D01*
G37*
G36*
X53193179Y-42156500D02*
G01*
X53193179Y-41054628D01*
X52982342Y-41022321D01*
X52982342Y-41697885D01*
X52671427Y-41374745D01*
X52432918Y-41374745D01*
X52780707Y-41730192D01*
X52411357Y-42156500D01*
X52679151Y-42156500D01*
X52982342Y-41800986D01*
X52982342Y-42156500D01*
X53193179Y-42156500D01*
G37*
G36*
X51923726Y-41237792D02*
G01*
X51961072Y-41233204D01*
X51994056Y-41219759D01*
X52023805Y-41197022D01*
X52046963Y-41167678D01*
X52060642Y-41134978D01*
X52065314Y-41097750D01*
X52060697Y-41061475D01*
X52047066Y-41029012D01*
X52023805Y-40999283D01*
X51993999Y-40976063D01*
X51961019Y-40962372D01*
X51923726Y-40957707D01*
X51886505Y-40962387D01*
X51853829Y-40976087D01*
X51824521Y-40999283D01*
X51801663Y-41028965D01*
X51788238Y-41061431D01*
X51783684Y-41097750D01*
X51788292Y-41135023D01*
X51801766Y-41167726D01*
X51824521Y-41197022D01*
X51853771Y-41219735D01*
X51886451Y-41233189D01*
X51923726Y-41237792D01*
G37*
G36*
X51720614Y-42171881D02*
G01*
X51809726Y-42164891D01*
X51879020Y-42145854D01*
X51932620Y-42116677D01*
X51973594Y-42077802D01*
X52003651Y-42028148D01*
X52022918Y-41965265D01*
X52029917Y-41885616D01*
X52029917Y-41539371D01*
X52305368Y-41539371D01*
X52305368Y-41374745D01*
X51817536Y-41374745D01*
X51817536Y-41864122D01*
X51813325Y-41908097D01*
X51802157Y-41939609D01*
X51785229Y-41961850D01*
X51761785Y-41977480D01*
X51728957Y-41987883D01*
X51683672Y-41991807D01*
X51613685Y-41985694D01*
X51578517Y-41977196D01*
X51537450Y-41962589D01*
X51537450Y-42136484D01*
X51571094Y-42148832D01*
X51619864Y-42161067D01*
X51671220Y-42169221D01*
X51720614Y-42171881D01*
G37*
G36*
X50999041Y-42171881D02*
G01*
X51038330Y-42167024D01*
X51072827Y-42152820D01*
X51103754Y-42128827D01*
X51127831Y-42097931D01*
X51141994Y-42063926D01*
X51146808Y-42025659D01*
X51141937Y-41986441D01*
X51127723Y-41952248D01*
X51103754Y-41921819D01*
X51072879Y-41898267D01*
X51038379Y-41884289D01*
X50999041Y-41879504D01*
X50959750Y-41884289D01*
X50925295Y-41898266D01*
X50894463Y-41921819D01*
X50870454Y-41952253D01*
X50856220Y-41986445D01*
X50851342Y-42025659D01*
X50856163Y-42063922D01*
X50870346Y-42097926D01*
X50894463Y-42128827D01*
X50925347Y-42152821D01*
X50959799Y-42167025D01*
X50999041Y-42171881D01*
G37*
G36*
X50051318Y-42171881D02*
G01*
X50128899Y-42165784D01*
X50199525Y-42148011D01*
X50264438Y-42118819D01*
X50323377Y-42078883D01*
X50373139Y-42030634D01*
X50414489Y-41973403D01*
X50445111Y-41909875D01*
X50463597Y-41841526D01*
X50469901Y-41767134D01*
X50463557Y-41691771D01*
X50445033Y-41623228D01*
X50414489Y-41560193D01*
X50373178Y-41503388D01*
X50323420Y-41455375D01*
X50264438Y-41415516D01*
X50199521Y-41386285D01*
X50128896Y-41368490D01*
X50051318Y-41362387D01*
X49973575Y-41368133D01*
X49902392Y-41384904D01*
X49836653Y-41412426D01*
X49776398Y-41450257D01*
X49726750Y-41495020D01*
X49686602Y-41547095D01*
X49848139Y-41662488D01*
X49883459Y-41612975D01*
X49930552Y-41575574D01*
X49986379Y-41552033D01*
X50049773Y-41544006D01*
X50107202Y-41551260D01*
X50157509Y-41572484D01*
X50199851Y-41606370D01*
X50232131Y-41651741D01*
X50252135Y-41705143D01*
X50259065Y-41767134D01*
X50252113Y-41829076D01*
X50232131Y-41881855D01*
X50199943Y-41926725D01*
X50157509Y-41961111D01*
X50107157Y-41982899D01*
X50049773Y-41990329D01*
X50006583Y-41986645D01*
X49967089Y-41975860D01*
X49930552Y-41958022D01*
X49883310Y-41920196D01*
X49848139Y-41871780D01*
X49686602Y-41987239D01*
X49726624Y-42038408D01*
X49776259Y-42082928D01*
X49836653Y-42121103D01*
X49902431Y-42149043D01*
X49973610Y-42166055D01*
X50051318Y-42171881D01*
G37*
G36*
X49227244Y-41368476D02*
G01*
X49295071Y-41386249D01*
X49357485Y-41415516D01*
X49413850Y-41455260D01*
X49461330Y-41503243D01*
X49500618Y-41560193D01*
X49529397Y-41623052D01*
X49546924Y-41691615D01*
X49552941Y-41767134D01*
X49546963Y-41841678D01*
X49529471Y-41910048D01*
X49500618Y-41973403D01*
X49461292Y-42030780D01*
X49413807Y-42078999D01*
X49357485Y-42118819D01*
X49295075Y-42148047D01*
X49227248Y-42165798D01*
X49152761Y-42171881D01*
X49078319Y-42165800D01*
X49010513Y-42148049D01*
X48948104Y-42118819D01*
X48891782Y-42078999D01*
X48844297Y-42030780D01*
X48804971Y-41973403D01*
X48776117Y-41910048D01*
X48758626Y-41841678D01*
X48752648Y-41767134D01*
X48958850Y-41767134D01*
X48965334Y-41830791D01*
X48983725Y-41883923D01*
X49013524Y-41928737D01*
X49053455Y-41963899D01*
X49099209Y-41984666D01*
X49152761Y-41991807D01*
X49206358Y-41984664D01*
X49252132Y-41963896D01*
X49292065Y-41928737D01*
X49321825Y-41883928D01*
X49340195Y-41830796D01*
X49346671Y-41767134D01*
X49340213Y-41703501D01*
X49321857Y-41650099D01*
X49292065Y-41604792D01*
X49252073Y-41569145D01*
X49206300Y-41548133D01*
X49152761Y-41540916D01*
X49099266Y-41548131D01*
X49053514Y-41569141D01*
X49013524Y-41604792D01*
X48983693Y-41650103D01*
X48965315Y-41703505D01*
X48958850Y-41767134D01*
X48752648Y-41767134D01*
X48758665Y-41691615D01*
X48776192Y-41623052D01*
X48804971Y-41560193D01*
X48844259Y-41503243D01*
X48891739Y-41455260D01*
X48948104Y-41415516D01*
X49010517Y-41386247D01*
X49078322Y-41368475D01*
X49152761Y-41362387D01*
X49227244Y-41368476D01*
G37*
G36*
X48626711Y-42156500D02*
G01*
X48626711Y-41374745D01*
X48451271Y-41374745D01*
X48451271Y-41439360D01*
X48420532Y-41404299D01*
X48388149Y-41380763D01*
X48353572Y-41367013D01*
X48315796Y-41362387D01*
X48268854Y-41368666D01*
X48228143Y-41387037D01*
X48194081Y-41416070D01*
X48168096Y-41454741D01*
X48132896Y-41413150D01*
X48094322Y-41384882D01*
X48051626Y-41368114D01*
X48003403Y-41362387D01*
X47955697Y-41368737D01*
X47914741Y-41387239D01*
X47878808Y-41418605D01*
X47851982Y-41458577D01*
X47835379Y-41506355D01*
X47829508Y-41564021D01*
X47829508Y-42156500D01*
X48006492Y-42156500D01*
X48006492Y-41619434D01*
X48011689Y-41576248D01*
X48025769Y-41544812D01*
X48049137Y-41523593D01*
X48081921Y-41516333D01*
X48115488Y-41523298D01*
X48141901Y-41544006D01*
X48140423Y-41574768D01*
X48140423Y-42156500D01*
X48315796Y-42156500D01*
X48315796Y-41619434D01*
X48321372Y-41576373D01*
X48336617Y-41544812D01*
X48361016Y-41523461D01*
X48392769Y-41516333D01*
X48423598Y-41521706D01*
X48451271Y-41542461D01*
X48451271Y-42156500D01*
X48626711Y-42156500D01*
G37*
D10*
X22261904Y-13966819D02*
X22261904Y-14776342D01*
X22261904Y-14776342D02*
X22214285Y-14871580D01*
X22214285Y-14871580D02*
X22166666Y-14919200D01*
X22166666Y-14919200D02*
X22071428Y-14966819D01*
X22071428Y-14966819D02*
X21880952Y-14966819D01*
X21880952Y-14966819D02*
X21785714Y-14919200D01*
X21785714Y-14919200D02*
X21738095Y-14871580D01*
X21738095Y-14871580D02*
X21690476Y-14776342D01*
X21690476Y-14776342D02*
X21690476Y-13966819D01*
X21261904Y-14062057D02*
X21214285Y-14014438D01*
X21214285Y-14014438D02*
X21119047Y-13966819D01*
X21119047Y-13966819D02*
X20880952Y-13966819D01*
X20880952Y-13966819D02*
X20785714Y-14014438D01*
X20785714Y-14014438D02*
X20738095Y-14062057D01*
X20738095Y-14062057D02*
X20690476Y-14157295D01*
X20690476Y-14157295D02*
X20690476Y-14252533D01*
X20690476Y-14252533D02*
X20738095Y-14395390D01*
X20738095Y-14395390D02*
X21309523Y-14966819D01*
X21309523Y-14966819D02*
X20690476Y-14966819D01*
X54460857Y-6384819D02*
X54794190Y-5908628D01*
X55032285Y-6384819D02*
X55032285Y-5384819D01*
X55032285Y-5384819D02*
X54651333Y-5384819D01*
X54651333Y-5384819D02*
X54556095Y-5432438D01*
X54556095Y-5432438D02*
X54508476Y-5480057D01*
X54508476Y-5480057D02*
X54460857Y-5575295D01*
X54460857Y-5575295D02*
X54460857Y-5718152D01*
X54460857Y-5718152D02*
X54508476Y-5813390D01*
X54508476Y-5813390D02*
X54556095Y-5861009D01*
X54556095Y-5861009D02*
X54651333Y-5908628D01*
X54651333Y-5908628D02*
X55032285Y-5908628D01*
X53508476Y-6384819D02*
X54079904Y-6384819D01*
X53794190Y-6384819D02*
X53794190Y-5384819D01*
X53794190Y-5384819D02*
X53889428Y-5527676D01*
X53889428Y-5527676D02*
X53984666Y-5622914D01*
X53984666Y-5622914D02*
X54079904Y-5670533D01*
X52889428Y-5384819D02*
X52794190Y-5384819D01*
X52794190Y-5384819D02*
X52698952Y-5432438D01*
X52698952Y-5432438D02*
X52651333Y-5480057D01*
X52651333Y-5480057D02*
X52603714Y-5575295D01*
X52603714Y-5575295D02*
X52556095Y-5765771D01*
X52556095Y-5765771D02*
X52556095Y-6003866D01*
X52556095Y-6003866D02*
X52603714Y-6194342D01*
X52603714Y-6194342D02*
X52651333Y-6289580D01*
X52651333Y-6289580D02*
X52698952Y-6337200D01*
X52698952Y-6337200D02*
X52794190Y-6384819D01*
X52794190Y-6384819D02*
X52889428Y-6384819D01*
X52889428Y-6384819D02*
X52984666Y-6337200D01*
X52984666Y-6337200D02*
X53032285Y-6289580D01*
X53032285Y-6289580D02*
X53079904Y-6194342D01*
X53079904Y-6194342D02*
X53127523Y-6003866D01*
X53127523Y-6003866D02*
X53127523Y-5765771D01*
X53127523Y-5765771D02*
X53079904Y-5575295D01*
X53079904Y-5575295D02*
X53032285Y-5480057D01*
X53032285Y-5480057D02*
X52984666Y-5432438D01*
X52984666Y-5432438D02*
X52889428Y-5384819D01*
X80166666Y-6289580D02*
X80214285Y-6337200D01*
X80214285Y-6337200D02*
X80357142Y-6384819D01*
X80357142Y-6384819D02*
X80452380Y-6384819D01*
X80452380Y-6384819D02*
X80595237Y-6337200D01*
X80595237Y-6337200D02*
X80690475Y-6241961D01*
X80690475Y-6241961D02*
X80738094Y-6146723D01*
X80738094Y-6146723D02*
X80785713Y-5956247D01*
X80785713Y-5956247D02*
X80785713Y-5813390D01*
X80785713Y-5813390D02*
X80738094Y-5622914D01*
X80738094Y-5622914D02*
X80690475Y-5527676D01*
X80690475Y-5527676D02*
X80595237Y-5432438D01*
X80595237Y-5432438D02*
X80452380Y-5384819D01*
X80452380Y-5384819D02*
X80357142Y-5384819D01*
X80357142Y-5384819D02*
X80214285Y-5432438D01*
X80214285Y-5432438D02*
X80166666Y-5480057D01*
X79785713Y-5480057D02*
X79738094Y-5432438D01*
X79738094Y-5432438D02*
X79642856Y-5384819D01*
X79642856Y-5384819D02*
X79404761Y-5384819D01*
X79404761Y-5384819D02*
X79309523Y-5432438D01*
X79309523Y-5432438D02*
X79261904Y-5480057D01*
X79261904Y-5480057D02*
X79214285Y-5575295D01*
X79214285Y-5575295D02*
X79214285Y-5670533D01*
X79214285Y-5670533D02*
X79261904Y-5813390D01*
X79261904Y-5813390D02*
X79833332Y-6384819D01*
X79833332Y-6384819D02*
X79214285Y-6384819D01*
X21257666Y-6384819D02*
X21590999Y-5908628D01*
X21829094Y-6384819D02*
X21829094Y-5384819D01*
X21829094Y-5384819D02*
X21448142Y-5384819D01*
X21448142Y-5384819D02*
X21352904Y-5432438D01*
X21352904Y-5432438D02*
X21305285Y-5480057D01*
X21305285Y-5480057D02*
X21257666Y-5575295D01*
X21257666Y-5575295D02*
X21257666Y-5718152D01*
X21257666Y-5718152D02*
X21305285Y-5813390D01*
X21305285Y-5813390D02*
X21352904Y-5861009D01*
X21352904Y-5861009D02*
X21448142Y-5908628D01*
X21448142Y-5908628D02*
X21829094Y-5908628D01*
X20924332Y-5384819D02*
X20305285Y-5384819D01*
X20305285Y-5384819D02*
X20638618Y-5765771D01*
X20638618Y-5765771D02*
X20495761Y-5765771D01*
X20495761Y-5765771D02*
X20400523Y-5813390D01*
X20400523Y-5813390D02*
X20352904Y-5861009D01*
X20352904Y-5861009D02*
X20305285Y-5956247D01*
X20305285Y-5956247D02*
X20305285Y-6194342D01*
X20305285Y-6194342D02*
X20352904Y-6289580D01*
X20352904Y-6289580D02*
X20400523Y-6337200D01*
X20400523Y-6337200D02*
X20495761Y-6384819D01*
X20495761Y-6384819D02*
X20781475Y-6384819D01*
X20781475Y-6384819D02*
X20876713Y-6337200D01*
X20876713Y-6337200D02*
X20924332Y-6289580D01*
X38166666Y-53539580D02*
X38214285Y-53587200D01*
X38214285Y-53587200D02*
X38357142Y-53634819D01*
X38357142Y-53634819D02*
X38452380Y-53634819D01*
X38452380Y-53634819D02*
X38595237Y-53587200D01*
X38595237Y-53587200D02*
X38690475Y-53491961D01*
X38690475Y-53491961D02*
X38738094Y-53396723D01*
X38738094Y-53396723D02*
X38785713Y-53206247D01*
X38785713Y-53206247D02*
X38785713Y-53063390D01*
X38785713Y-53063390D02*
X38738094Y-52872914D01*
X38738094Y-52872914D02*
X38690475Y-52777676D01*
X38690475Y-52777676D02*
X38595237Y-52682438D01*
X38595237Y-52682438D02*
X38452380Y-52634819D01*
X38452380Y-52634819D02*
X38357142Y-52634819D01*
X38357142Y-52634819D02*
X38214285Y-52682438D01*
X38214285Y-52682438D02*
X38166666Y-52730057D01*
X37595237Y-53063390D02*
X37690475Y-53015771D01*
X37690475Y-53015771D02*
X37738094Y-52968152D01*
X37738094Y-52968152D02*
X37785713Y-52872914D01*
X37785713Y-52872914D02*
X37785713Y-52825295D01*
X37785713Y-52825295D02*
X37738094Y-52730057D01*
X37738094Y-52730057D02*
X37690475Y-52682438D01*
X37690475Y-52682438D02*
X37595237Y-52634819D01*
X37595237Y-52634819D02*
X37404761Y-52634819D01*
X37404761Y-52634819D02*
X37309523Y-52682438D01*
X37309523Y-52682438D02*
X37261904Y-52730057D01*
X37261904Y-52730057D02*
X37214285Y-52825295D01*
X37214285Y-52825295D02*
X37214285Y-52872914D01*
X37214285Y-52872914D02*
X37261904Y-52968152D01*
X37261904Y-52968152D02*
X37309523Y-53015771D01*
X37309523Y-53015771D02*
X37404761Y-53063390D01*
X37404761Y-53063390D02*
X37595237Y-53063390D01*
X37595237Y-53063390D02*
X37690475Y-53111009D01*
X37690475Y-53111009D02*
X37738094Y-53158628D01*
X37738094Y-53158628D02*
X37785713Y-53253866D01*
X37785713Y-53253866D02*
X37785713Y-53444342D01*
X37785713Y-53444342D02*
X37738094Y-53539580D01*
X37738094Y-53539580D02*
X37690475Y-53587200D01*
X37690475Y-53587200D02*
X37595237Y-53634819D01*
X37595237Y-53634819D02*
X37404761Y-53634819D01*
X37404761Y-53634819D02*
X37309523Y-53587200D01*
X37309523Y-53587200D02*
X37261904Y-53539580D01*
X37261904Y-53539580D02*
X37214285Y-53444342D01*
X37214285Y-53444342D02*
X37214285Y-53253866D01*
X37214285Y-53253866D02*
X37261904Y-53158628D01*
X37261904Y-53158628D02*
X37309523Y-53111009D01*
X37309523Y-53111009D02*
X37404761Y-53063390D01*
X72683333Y-52054819D02*
X72683333Y-52769104D01*
X72683333Y-52769104D02*
X72730952Y-52911961D01*
X72730952Y-52911961D02*
X72826190Y-53007200D01*
X72826190Y-53007200D02*
X72969047Y-53054819D01*
X72969047Y-53054819D02*
X73064285Y-53054819D01*
X71683333Y-53054819D02*
X72254761Y-53054819D01*
X71969047Y-53054819D02*
X71969047Y-52054819D01*
X71969047Y-52054819D02*
X72064285Y-52197676D01*
X72064285Y-52197676D02*
X72159523Y-52292914D01*
X72159523Y-52292914D02*
X72254761Y-52340533D01*
D13*
X66866667Y-47717593D02*
X66433333Y-47717593D01*
X66433333Y-47717593D02*
X66666667Y-47984260D01*
X66666667Y-47984260D02*
X66566667Y-47984260D01*
X66566667Y-47984260D02*
X66500000Y-48017593D01*
X66500000Y-48017593D02*
X66466667Y-48050926D01*
X66466667Y-48050926D02*
X66433333Y-48117593D01*
X66433333Y-48117593D02*
X66433333Y-48284260D01*
X66433333Y-48284260D02*
X66466667Y-48350926D01*
X66466667Y-48350926D02*
X66500000Y-48384260D01*
X66500000Y-48384260D02*
X66566667Y-48417593D01*
X66566667Y-48417593D02*
X66766667Y-48417593D01*
X66766667Y-48417593D02*
X66833333Y-48384260D01*
X66833333Y-48384260D02*
X66866667Y-48350926D01*
X66233333Y-47717593D02*
X66000000Y-48417593D01*
X66000000Y-48417593D02*
X65766666Y-47717593D01*
X65600000Y-47717593D02*
X65166666Y-47717593D01*
X65166666Y-47717593D02*
X65400000Y-47984260D01*
X65400000Y-47984260D02*
X65300000Y-47984260D01*
X65300000Y-47984260D02*
X65233333Y-48017593D01*
X65233333Y-48017593D02*
X65200000Y-48050926D01*
X65200000Y-48050926D02*
X65166666Y-48117593D01*
X65166666Y-48117593D02*
X65166666Y-48284260D01*
X65166666Y-48284260D02*
X65200000Y-48350926D01*
X65200000Y-48350926D02*
X65233333Y-48384260D01*
X65233333Y-48384260D02*
X65300000Y-48417593D01*
X65300000Y-48417593D02*
X65500000Y-48417593D01*
X65500000Y-48417593D02*
X65566666Y-48384260D01*
X65566666Y-48384260D02*
X65600000Y-48350926D01*
X69073332Y-47750926D02*
X69139999Y-47717593D01*
X69139999Y-47717593D02*
X69239999Y-47717593D01*
X69239999Y-47717593D02*
X69339999Y-47750926D01*
X69339999Y-47750926D02*
X69406666Y-47817593D01*
X69406666Y-47817593D02*
X69439999Y-47884260D01*
X69439999Y-47884260D02*
X69473332Y-48017593D01*
X69473332Y-48017593D02*
X69473332Y-48117593D01*
X69473332Y-48117593D02*
X69439999Y-48250926D01*
X69439999Y-48250926D02*
X69406666Y-48317593D01*
X69406666Y-48317593D02*
X69339999Y-48384260D01*
X69339999Y-48384260D02*
X69239999Y-48417593D01*
X69239999Y-48417593D02*
X69173332Y-48417593D01*
X69173332Y-48417593D02*
X69073332Y-48384260D01*
X69073332Y-48384260D02*
X69039999Y-48350926D01*
X69039999Y-48350926D02*
X69039999Y-48117593D01*
X69039999Y-48117593D02*
X69173332Y-48117593D01*
X68739999Y-48417593D02*
X68739999Y-47717593D01*
X68739999Y-47717593D02*
X68339999Y-48417593D01*
X68339999Y-48417593D02*
X68339999Y-47717593D01*
X68006666Y-48417593D02*
X68006666Y-47717593D01*
X68006666Y-47717593D02*
X67839999Y-47717593D01*
X67839999Y-47717593D02*
X67739999Y-47750926D01*
X67739999Y-47750926D02*
X67673333Y-47817593D01*
X67673333Y-47817593D02*
X67639999Y-47884260D01*
X67639999Y-47884260D02*
X67606666Y-48017593D01*
X67606666Y-48017593D02*
X67606666Y-48117593D01*
X67606666Y-48117593D02*
X67639999Y-48250926D01*
X67639999Y-48250926D02*
X67673333Y-48317593D01*
X67673333Y-48317593D02*
X67739999Y-48384260D01*
X67739999Y-48384260D02*
X67839999Y-48417593D01*
X67839999Y-48417593D02*
X68006666Y-48417593D01*
X71613333Y-47717593D02*
X71213333Y-47717593D01*
X71413333Y-48417593D02*
X71413333Y-47717593D01*
X71046667Y-47717593D02*
X70580000Y-48417593D01*
X70580000Y-47717593D02*
X71046667Y-48417593D01*
X73736666Y-48417593D02*
X73969999Y-48084260D01*
X74136666Y-48417593D02*
X74136666Y-47717593D01*
X74136666Y-47717593D02*
X73869999Y-47717593D01*
X73869999Y-47717593D02*
X73803333Y-47750926D01*
X73803333Y-47750926D02*
X73769999Y-47784260D01*
X73769999Y-47784260D02*
X73736666Y-47850926D01*
X73736666Y-47850926D02*
X73736666Y-47950926D01*
X73736666Y-47950926D02*
X73769999Y-48017593D01*
X73769999Y-48017593D02*
X73803333Y-48050926D01*
X73803333Y-48050926D02*
X73869999Y-48084260D01*
X73869999Y-48084260D02*
X74136666Y-48084260D01*
X73503333Y-47717593D02*
X73036666Y-48417593D01*
X73036666Y-47717593D02*
X73503333Y-48417593D01*
X76676666Y-48050926D02*
X76443333Y-48050926D01*
X76343333Y-48417593D02*
X76676666Y-48417593D01*
X76676666Y-48417593D02*
X76676666Y-47717593D01*
X76676666Y-47717593D02*
X76343333Y-47717593D01*
X76043333Y-48417593D02*
X76043333Y-47717593D01*
X76043333Y-47717593D02*
X75643333Y-48417593D01*
X75643333Y-48417593D02*
X75643333Y-47717593D01*
X79399999Y-48417593D02*
X79399999Y-47717593D01*
X78933333Y-47717593D02*
X78799999Y-47717593D01*
X78799999Y-47717593D02*
X78733333Y-47750926D01*
X78733333Y-47750926D02*
X78666666Y-47817593D01*
X78666666Y-47817593D02*
X78633333Y-47950926D01*
X78633333Y-47950926D02*
X78633333Y-48184260D01*
X78633333Y-48184260D02*
X78666666Y-48317593D01*
X78666666Y-48317593D02*
X78733333Y-48384260D01*
X78733333Y-48384260D02*
X78799999Y-48417593D01*
X78799999Y-48417593D02*
X78933333Y-48417593D01*
X78933333Y-48417593D02*
X78999999Y-48384260D01*
X78999999Y-48384260D02*
X79066666Y-48317593D01*
X79066666Y-48317593D02*
X79099999Y-48184260D01*
X79099999Y-48184260D02*
X79099999Y-47950926D01*
X79099999Y-47950926D02*
X79066666Y-47817593D01*
X79066666Y-47817593D02*
X78999999Y-47750926D01*
X78999999Y-47750926D02*
X78933333Y-47717593D01*
X78200000Y-47717593D02*
X78133333Y-47717593D01*
X78133333Y-47717593D02*
X78066666Y-47750926D01*
X78066666Y-47750926D02*
X78033333Y-47784260D01*
X78033333Y-47784260D02*
X78000000Y-47850926D01*
X78000000Y-47850926D02*
X77966666Y-47984260D01*
X77966666Y-47984260D02*
X77966666Y-48150926D01*
X77966666Y-48150926D02*
X78000000Y-48284260D01*
X78000000Y-48284260D02*
X78033333Y-48350926D01*
X78033333Y-48350926D02*
X78066666Y-48384260D01*
X78066666Y-48384260D02*
X78133333Y-48417593D01*
X78133333Y-48417593D02*
X78200000Y-48417593D01*
X78200000Y-48417593D02*
X78266666Y-48384260D01*
X78266666Y-48384260D02*
X78300000Y-48350926D01*
X78300000Y-48350926D02*
X78333333Y-48284260D01*
X78333333Y-48284260D02*
X78366666Y-48150926D01*
X78366666Y-48150926D02*
X78366666Y-47984260D01*
X78366666Y-47984260D02*
X78333333Y-47850926D01*
X78333333Y-47850926D02*
X78300000Y-47784260D01*
X78300000Y-47784260D02*
X78266666Y-47750926D01*
X78266666Y-47750926D02*
X78200000Y-47717593D01*
D10*
X58642857Y-53539580D02*
X58690476Y-53587200D01*
X58690476Y-53587200D02*
X58833333Y-53634819D01*
X58833333Y-53634819D02*
X58928571Y-53634819D01*
X58928571Y-53634819D02*
X59071428Y-53587200D01*
X59071428Y-53587200D02*
X59166666Y-53491961D01*
X59166666Y-53491961D02*
X59214285Y-53396723D01*
X59214285Y-53396723D02*
X59261904Y-53206247D01*
X59261904Y-53206247D02*
X59261904Y-53063390D01*
X59261904Y-53063390D02*
X59214285Y-52872914D01*
X59214285Y-52872914D02*
X59166666Y-52777676D01*
X59166666Y-52777676D02*
X59071428Y-52682438D01*
X59071428Y-52682438D02*
X58928571Y-52634819D01*
X58928571Y-52634819D02*
X58833333Y-52634819D01*
X58833333Y-52634819D02*
X58690476Y-52682438D01*
X58690476Y-52682438D02*
X58642857Y-52730057D01*
X57690476Y-53634819D02*
X58261904Y-53634819D01*
X57976190Y-53634819D02*
X57976190Y-52634819D01*
X57976190Y-52634819D02*
X58071428Y-52777676D01*
X58071428Y-52777676D02*
X58166666Y-52872914D01*
X58166666Y-52872914D02*
X58261904Y-52920533D01*
X57071428Y-52634819D02*
X56976190Y-52634819D01*
X56976190Y-52634819D02*
X56880952Y-52682438D01*
X56880952Y-52682438D02*
X56833333Y-52730057D01*
X56833333Y-52730057D02*
X56785714Y-52825295D01*
X56785714Y-52825295D02*
X56738095Y-53015771D01*
X56738095Y-53015771D02*
X56738095Y-53253866D01*
X56738095Y-53253866D02*
X56785714Y-53444342D01*
X56785714Y-53444342D02*
X56833333Y-53539580D01*
X56833333Y-53539580D02*
X56880952Y-53587200D01*
X56880952Y-53587200D02*
X56976190Y-53634819D01*
X56976190Y-53634819D02*
X57071428Y-53634819D01*
X57071428Y-53634819D02*
X57166666Y-53587200D01*
X57166666Y-53587200D02*
X57214285Y-53539580D01*
X57214285Y-53539580D02*
X57261904Y-53444342D01*
X57261904Y-53444342D02*
X57309523Y-53253866D01*
X57309523Y-53253866D02*
X57309523Y-53015771D01*
X57309523Y-53015771D02*
X57261904Y-52825295D01*
X57261904Y-52825295D02*
X57214285Y-52730057D01*
X57214285Y-52730057D02*
X57166666Y-52682438D01*
X57166666Y-52682438D02*
X57071428Y-52634819D01*
X62785714Y-31931009D02*
X62642857Y-31978628D01*
X62642857Y-31978628D02*
X62595238Y-32026247D01*
X62595238Y-32026247D02*
X62547619Y-32121485D01*
X62547619Y-32121485D02*
X62547619Y-32264342D01*
X62547619Y-32264342D02*
X62595238Y-32359580D01*
X62595238Y-32359580D02*
X62642857Y-32407200D01*
X62642857Y-32407200D02*
X62738095Y-32454819D01*
X62738095Y-32454819D02*
X63119047Y-32454819D01*
X63119047Y-32454819D02*
X63119047Y-31454819D01*
X63119047Y-31454819D02*
X62785714Y-31454819D01*
X62785714Y-31454819D02*
X62690476Y-31502438D01*
X62690476Y-31502438D02*
X62642857Y-31550057D01*
X62642857Y-31550057D02*
X62595238Y-31645295D01*
X62595238Y-31645295D02*
X62595238Y-31740533D01*
X62595238Y-31740533D02*
X62642857Y-31835771D01*
X62642857Y-31835771D02*
X62690476Y-31883390D01*
X62690476Y-31883390D02*
X62785714Y-31931009D01*
X62785714Y-31931009D02*
X63119047Y-31931009D01*
X62261904Y-31454819D02*
X61690476Y-31454819D01*
X61976190Y-32454819D02*
X61976190Y-31454819D01*
X60833333Y-32454819D02*
X61404761Y-32454819D01*
X61119047Y-32454819D02*
X61119047Y-31454819D01*
X61119047Y-31454819D02*
X61214285Y-31597676D01*
X61214285Y-31597676D02*
X61309523Y-31692914D01*
X61309523Y-31692914D02*
X61404761Y-31740533D01*
X48166666Y-53539580D02*
X48214285Y-53587200D01*
X48214285Y-53587200D02*
X48357142Y-53634819D01*
X48357142Y-53634819D02*
X48452380Y-53634819D01*
X48452380Y-53634819D02*
X48595237Y-53587200D01*
X48595237Y-53587200D02*
X48690475Y-53491961D01*
X48690475Y-53491961D02*
X48738094Y-53396723D01*
X48738094Y-53396723D02*
X48785713Y-53206247D01*
X48785713Y-53206247D02*
X48785713Y-53063390D01*
X48785713Y-53063390D02*
X48738094Y-52872914D01*
X48738094Y-52872914D02*
X48690475Y-52777676D01*
X48690475Y-52777676D02*
X48595237Y-52682438D01*
X48595237Y-52682438D02*
X48452380Y-52634819D01*
X48452380Y-52634819D02*
X48357142Y-52634819D01*
X48357142Y-52634819D02*
X48214285Y-52682438D01*
X48214285Y-52682438D02*
X48166666Y-52730057D01*
X47690475Y-53634819D02*
X47499999Y-53634819D01*
X47499999Y-53634819D02*
X47404761Y-53587200D01*
X47404761Y-53587200D02*
X47357142Y-53539580D01*
X47357142Y-53539580D02*
X47261904Y-53396723D01*
X47261904Y-53396723D02*
X47214285Y-53206247D01*
X47214285Y-53206247D02*
X47214285Y-52825295D01*
X47214285Y-52825295D02*
X47261904Y-52730057D01*
X47261904Y-52730057D02*
X47309523Y-52682438D01*
X47309523Y-52682438D02*
X47404761Y-52634819D01*
X47404761Y-52634819D02*
X47595237Y-52634819D01*
X47595237Y-52634819D02*
X47690475Y-52682438D01*
X47690475Y-52682438D02*
X47738094Y-52730057D01*
X47738094Y-52730057D02*
X47785713Y-52825295D01*
X47785713Y-52825295D02*
X47785713Y-53063390D01*
X47785713Y-53063390D02*
X47738094Y-53158628D01*
X47738094Y-53158628D02*
X47690475Y-53206247D01*
X47690475Y-53206247D02*
X47595237Y-53253866D01*
X47595237Y-53253866D02*
X47404761Y-53253866D01*
X47404761Y-53253866D02*
X47309523Y-53206247D01*
X47309523Y-53206247D02*
X47261904Y-53158628D01*
X47261904Y-53158628D02*
X47214285Y-53063390D01*
X73621666Y-6289580D02*
X73669285Y-6337200D01*
X73669285Y-6337200D02*
X73812142Y-6384819D01*
X73812142Y-6384819D02*
X73907380Y-6384819D01*
X73907380Y-6384819D02*
X74050237Y-6337200D01*
X74050237Y-6337200D02*
X74145475Y-6241961D01*
X74145475Y-6241961D02*
X74193094Y-6146723D01*
X74193094Y-6146723D02*
X74240713Y-5956247D01*
X74240713Y-5956247D02*
X74240713Y-5813390D01*
X74240713Y-5813390D02*
X74193094Y-5622914D01*
X74193094Y-5622914D02*
X74145475Y-5527676D01*
X74145475Y-5527676D02*
X74050237Y-5432438D01*
X74050237Y-5432438D02*
X73907380Y-5384819D01*
X73907380Y-5384819D02*
X73812142Y-5384819D01*
X73812142Y-5384819D02*
X73669285Y-5432438D01*
X73669285Y-5432438D02*
X73621666Y-5480057D01*
X72669285Y-6384819D02*
X73240713Y-6384819D01*
X72954999Y-6384819D02*
X72954999Y-5384819D01*
X72954999Y-5384819D02*
X73050237Y-5527676D01*
X73050237Y-5527676D02*
X73145475Y-5622914D01*
X73145475Y-5622914D02*
X73240713Y-5670533D01*
X40893666Y-6384819D02*
X41226999Y-5908628D01*
X41465094Y-6384819D02*
X41465094Y-5384819D01*
X41465094Y-5384819D02*
X41084142Y-5384819D01*
X41084142Y-5384819D02*
X40988904Y-5432438D01*
X40988904Y-5432438D02*
X40941285Y-5480057D01*
X40941285Y-5480057D02*
X40893666Y-5575295D01*
X40893666Y-5575295D02*
X40893666Y-5718152D01*
X40893666Y-5718152D02*
X40941285Y-5813390D01*
X40941285Y-5813390D02*
X40988904Y-5861009D01*
X40988904Y-5861009D02*
X41084142Y-5908628D01*
X41084142Y-5908628D02*
X41465094Y-5908628D01*
X40036523Y-5384819D02*
X40226999Y-5384819D01*
X40226999Y-5384819D02*
X40322237Y-5432438D01*
X40322237Y-5432438D02*
X40369856Y-5480057D01*
X40369856Y-5480057D02*
X40465094Y-5622914D01*
X40465094Y-5622914D02*
X40512713Y-5813390D01*
X40512713Y-5813390D02*
X40512713Y-6194342D01*
X40512713Y-6194342D02*
X40465094Y-6289580D01*
X40465094Y-6289580D02*
X40417475Y-6337200D01*
X40417475Y-6337200D02*
X40322237Y-6384819D01*
X40322237Y-6384819D02*
X40131761Y-6384819D01*
X40131761Y-6384819D02*
X40036523Y-6337200D01*
X40036523Y-6337200D02*
X39988904Y-6289580D01*
X39988904Y-6289580D02*
X39941285Y-6194342D01*
X39941285Y-6194342D02*
X39941285Y-5956247D01*
X39941285Y-5956247D02*
X39988904Y-5861009D01*
X39988904Y-5861009D02*
X40036523Y-5813390D01*
X40036523Y-5813390D02*
X40131761Y-5765771D01*
X40131761Y-5765771D02*
X40322237Y-5765771D01*
X40322237Y-5765771D02*
X40417475Y-5813390D01*
X40417475Y-5813390D02*
X40465094Y-5861009D01*
X40465094Y-5861009D02*
X40512713Y-5956247D01*
X6961904Y-15753819D02*
X6961904Y-16563342D01*
X6961904Y-16563342D02*
X6914285Y-16658580D01*
X6914285Y-16658580D02*
X6866666Y-16706200D01*
X6866666Y-16706200D02*
X6771428Y-16753819D01*
X6771428Y-16753819D02*
X6580952Y-16753819D01*
X6580952Y-16753819D02*
X6485714Y-16706200D01*
X6485714Y-16706200D02*
X6438095Y-16658580D01*
X6438095Y-16658580D02*
X6390476Y-16563342D01*
X6390476Y-16563342D02*
X6390476Y-15753819D01*
X5485714Y-16087152D02*
X5485714Y-16753819D01*
X5723809Y-15706200D02*
X5961904Y-16420485D01*
X5961904Y-16420485D02*
X5342857Y-16420485D01*
X27802666Y-6384819D02*
X28135999Y-5908628D01*
X28374094Y-6384819D02*
X28374094Y-5384819D01*
X28374094Y-5384819D02*
X27993142Y-5384819D01*
X27993142Y-5384819D02*
X27897904Y-5432438D01*
X27897904Y-5432438D02*
X27850285Y-5480057D01*
X27850285Y-5480057D02*
X27802666Y-5575295D01*
X27802666Y-5575295D02*
X27802666Y-5718152D01*
X27802666Y-5718152D02*
X27850285Y-5813390D01*
X27850285Y-5813390D02*
X27897904Y-5861009D01*
X27897904Y-5861009D02*
X27993142Y-5908628D01*
X27993142Y-5908628D02*
X28374094Y-5908628D01*
X26945523Y-5718152D02*
X26945523Y-6384819D01*
X27183618Y-5337200D02*
X27421713Y-6051485D01*
X27421713Y-6051485D02*
X26802666Y-6051485D01*
X67551857Y-6384819D02*
X67885190Y-5908628D01*
X68123285Y-6384819D02*
X68123285Y-5384819D01*
X68123285Y-5384819D02*
X67742333Y-5384819D01*
X67742333Y-5384819D02*
X67647095Y-5432438D01*
X67647095Y-5432438D02*
X67599476Y-5480057D01*
X67599476Y-5480057D02*
X67551857Y-5575295D01*
X67551857Y-5575295D02*
X67551857Y-5718152D01*
X67551857Y-5718152D02*
X67599476Y-5813390D01*
X67599476Y-5813390D02*
X67647095Y-5861009D01*
X67647095Y-5861009D02*
X67742333Y-5908628D01*
X67742333Y-5908628D02*
X68123285Y-5908628D01*
X66599476Y-6384819D02*
X67170904Y-6384819D01*
X66885190Y-6384819D02*
X66885190Y-5384819D01*
X66885190Y-5384819D02*
X66980428Y-5527676D01*
X66980428Y-5527676D02*
X67075666Y-5622914D01*
X67075666Y-5622914D02*
X67170904Y-5670533D01*
X66218523Y-5480057D02*
X66170904Y-5432438D01*
X66170904Y-5432438D02*
X66075666Y-5384819D01*
X66075666Y-5384819D02*
X65837571Y-5384819D01*
X65837571Y-5384819D02*
X65742333Y-5432438D01*
X65742333Y-5432438D02*
X65694714Y-5480057D01*
X65694714Y-5480057D02*
X65647095Y-5575295D01*
X65647095Y-5575295D02*
X65647095Y-5670533D01*
X65647095Y-5670533D02*
X65694714Y-5813390D01*
X65694714Y-5813390D02*
X66266142Y-6384819D01*
X66266142Y-6384819D02*
X65647095Y-6384819D01*
X34348666Y-6384819D02*
X34681999Y-5908628D01*
X34920094Y-6384819D02*
X34920094Y-5384819D01*
X34920094Y-5384819D02*
X34539142Y-5384819D01*
X34539142Y-5384819D02*
X34443904Y-5432438D01*
X34443904Y-5432438D02*
X34396285Y-5480057D01*
X34396285Y-5480057D02*
X34348666Y-5575295D01*
X34348666Y-5575295D02*
X34348666Y-5718152D01*
X34348666Y-5718152D02*
X34396285Y-5813390D01*
X34396285Y-5813390D02*
X34443904Y-5861009D01*
X34443904Y-5861009D02*
X34539142Y-5908628D01*
X34539142Y-5908628D02*
X34920094Y-5908628D01*
X33443904Y-5384819D02*
X33920094Y-5384819D01*
X33920094Y-5384819D02*
X33967713Y-5861009D01*
X33967713Y-5861009D02*
X33920094Y-5813390D01*
X33920094Y-5813390D02*
X33824856Y-5765771D01*
X33824856Y-5765771D02*
X33586761Y-5765771D01*
X33586761Y-5765771D02*
X33491523Y-5813390D01*
X33491523Y-5813390D02*
X33443904Y-5861009D01*
X33443904Y-5861009D02*
X33396285Y-5956247D01*
X33396285Y-5956247D02*
X33396285Y-6194342D01*
X33396285Y-6194342D02*
X33443904Y-6289580D01*
X33443904Y-6289580D02*
X33491523Y-6337200D01*
X33491523Y-6337200D02*
X33586761Y-6384819D01*
X33586761Y-6384819D02*
X33824856Y-6384819D01*
X33824856Y-6384819D02*
X33920094Y-6337200D01*
X33920094Y-6337200D02*
X33967713Y-6289580D01*
X32761904Y-39349819D02*
X32761904Y-40159342D01*
X32761904Y-40159342D02*
X32714285Y-40254580D01*
X32714285Y-40254580D02*
X32666666Y-40302200D01*
X32666666Y-40302200D02*
X32571428Y-40349819D01*
X32571428Y-40349819D02*
X32380952Y-40349819D01*
X32380952Y-40349819D02*
X32285714Y-40302200D01*
X32285714Y-40302200D02*
X32238095Y-40254580D01*
X32238095Y-40254580D02*
X32190476Y-40159342D01*
X32190476Y-40159342D02*
X32190476Y-39349819D01*
X31190476Y-40349819D02*
X31761904Y-40349819D01*
X31476190Y-40349819D02*
X31476190Y-39349819D01*
X31476190Y-39349819D02*
X31571428Y-39492676D01*
X31571428Y-39492676D02*
X31666666Y-39587914D01*
X31666666Y-39587914D02*
X31761904Y-39635533D01*
X8166666Y-6384819D02*
X8499999Y-5908628D01*
X8738094Y-6384819D02*
X8738094Y-5384819D01*
X8738094Y-5384819D02*
X8357142Y-5384819D01*
X8357142Y-5384819D02*
X8261904Y-5432438D01*
X8261904Y-5432438D02*
X8214285Y-5480057D01*
X8214285Y-5480057D02*
X8166666Y-5575295D01*
X8166666Y-5575295D02*
X8166666Y-5718152D01*
X8166666Y-5718152D02*
X8214285Y-5813390D01*
X8214285Y-5813390D02*
X8261904Y-5861009D01*
X8261904Y-5861009D02*
X8357142Y-5908628D01*
X8357142Y-5908628D02*
X8738094Y-5908628D01*
X7214285Y-6384819D02*
X7785713Y-6384819D01*
X7499999Y-6384819D02*
X7499999Y-5384819D01*
X7499999Y-5384819D02*
X7595237Y-5527676D01*
X7595237Y-5527676D02*
X7690475Y-5622914D01*
X7690475Y-5622914D02*
X7785713Y-5670533D01*
X11542857Y-15189580D02*
X11590476Y-15237200D01*
X11590476Y-15237200D02*
X11733333Y-15284819D01*
X11733333Y-15284819D02*
X11828571Y-15284819D01*
X11828571Y-15284819D02*
X11971428Y-15237200D01*
X11971428Y-15237200D02*
X12066666Y-15141961D01*
X12066666Y-15141961D02*
X12114285Y-15046723D01*
X12114285Y-15046723D02*
X12161904Y-14856247D01*
X12161904Y-14856247D02*
X12161904Y-14713390D01*
X12161904Y-14713390D02*
X12114285Y-14522914D01*
X12114285Y-14522914D02*
X12066666Y-14427676D01*
X12066666Y-14427676D02*
X11971428Y-14332438D01*
X11971428Y-14332438D02*
X11828571Y-14284819D01*
X11828571Y-14284819D02*
X11733333Y-14284819D01*
X11733333Y-14284819D02*
X11590476Y-14332438D01*
X11590476Y-14332438D02*
X11542857Y-14380057D01*
X10590476Y-15284819D02*
X11161904Y-15284819D01*
X10876190Y-15284819D02*
X10876190Y-14284819D01*
X10876190Y-14284819D02*
X10971428Y-14427676D01*
X10971428Y-14427676D02*
X11066666Y-14522914D01*
X11066666Y-14522914D02*
X11161904Y-14570533D01*
X10209523Y-14380057D02*
X10161904Y-14332438D01*
X10161904Y-14332438D02*
X10066666Y-14284819D01*
X10066666Y-14284819D02*
X9828571Y-14284819D01*
X9828571Y-14284819D02*
X9733333Y-14332438D01*
X9733333Y-14332438D02*
X9685714Y-14380057D01*
X9685714Y-14380057D02*
X9638095Y-14475295D01*
X9638095Y-14475295D02*
X9638095Y-14570533D01*
X9638095Y-14570533D02*
X9685714Y-14713390D01*
X9685714Y-14713390D02*
X10257142Y-15284819D01*
X10257142Y-15284819D02*
X9638095Y-15284819D01*
X14711666Y-6384819D02*
X15044999Y-5908628D01*
X15283094Y-6384819D02*
X15283094Y-5384819D01*
X15283094Y-5384819D02*
X14902142Y-5384819D01*
X14902142Y-5384819D02*
X14806904Y-5432438D01*
X14806904Y-5432438D02*
X14759285Y-5480057D01*
X14759285Y-5480057D02*
X14711666Y-5575295D01*
X14711666Y-5575295D02*
X14711666Y-5718152D01*
X14711666Y-5718152D02*
X14759285Y-5813390D01*
X14759285Y-5813390D02*
X14806904Y-5861009D01*
X14806904Y-5861009D02*
X14902142Y-5908628D01*
X14902142Y-5908628D02*
X15283094Y-5908628D01*
X14330713Y-5480057D02*
X14283094Y-5432438D01*
X14283094Y-5432438D02*
X14187856Y-5384819D01*
X14187856Y-5384819D02*
X13949761Y-5384819D01*
X13949761Y-5384819D02*
X13854523Y-5432438D01*
X13854523Y-5432438D02*
X13806904Y-5480057D01*
X13806904Y-5480057D02*
X13759285Y-5575295D01*
X13759285Y-5575295D02*
X13759285Y-5670533D01*
X13759285Y-5670533D02*
X13806904Y-5813390D01*
X13806904Y-5813390D02*
X14378332Y-6384819D01*
X14378332Y-6384819D02*
X13759285Y-6384819D01*
X62642857Y-54184819D02*
X62976190Y-53708628D01*
X63214285Y-54184819D02*
X63214285Y-53184819D01*
X63214285Y-53184819D02*
X62833333Y-53184819D01*
X62833333Y-53184819D02*
X62738095Y-53232438D01*
X62738095Y-53232438D02*
X62690476Y-53280057D01*
X62690476Y-53280057D02*
X62642857Y-53375295D01*
X62642857Y-53375295D02*
X62642857Y-53518152D01*
X62642857Y-53518152D02*
X62690476Y-53613390D01*
X62690476Y-53613390D02*
X62738095Y-53661009D01*
X62738095Y-53661009D02*
X62833333Y-53708628D01*
X62833333Y-53708628D02*
X63214285Y-53708628D01*
X61690476Y-54184819D02*
X62261904Y-54184819D01*
X61976190Y-54184819D02*
X61976190Y-53184819D01*
X61976190Y-53184819D02*
X62071428Y-53327676D01*
X62071428Y-53327676D02*
X62166666Y-53422914D01*
X62166666Y-53422914D02*
X62261904Y-53470533D01*
X60833333Y-53518152D02*
X60833333Y-54184819D01*
X61071428Y-53137200D02*
X61309523Y-53851485D01*
X61309523Y-53851485D02*
X60690476Y-53851485D01*
G36*
X8351953Y-53358982D02*
G01*
X8423923Y-53354602D01*
X8491563Y-53341721D01*
X8555529Y-53320514D01*
X8616199Y-53291277D01*
X8670808Y-53255671D01*
X8719905Y-53213536D01*
X8763098Y-53165358D01*
X8799619Y-53112108D01*
X8829692Y-53053312D01*
X8851693Y-52991130D01*
X8865032Y-52925376D01*
X8869565Y-52855354D01*
X8865030Y-52785291D01*
X8851689Y-52719539D01*
X8829692Y-52657395D01*
X8799591Y-52598616D01*
X8762837Y-52545134D01*
X8719172Y-52496500D01*
X8669641Y-52453857D01*
X8615015Y-52418022D01*
X8554797Y-52388789D01*
X8491305Y-52367601D01*
X8423917Y-52354710D01*
X8351953Y-52350321D01*
X8274588Y-52355619D01*
X8199735Y-52371423D01*
X8126700Y-52397887D01*
X8058055Y-52434061D01*
X7999662Y-52476911D01*
X7950418Y-52526542D01*
X8067960Y-52644084D01*
X8106745Y-52604228D01*
X8149291Y-52571510D01*
X8195943Y-52545471D01*
X8245862Y-52526425D01*
X8297682Y-52515003D01*
X8351953Y-52511154D01*
X8415041Y-52516376D01*
X8472276Y-52531598D01*
X8524755Y-52556645D01*
X8572098Y-52590571D01*
X8612262Y-52631420D01*
X8645777Y-52679804D01*
X8670399Y-52733116D01*
X8685389Y-52791275D01*
X8690535Y-52855354D01*
X8685337Y-52918462D01*
X8670135Y-52976186D01*
X8645044Y-53029560D01*
X8611061Y-53077835D01*
X8570221Y-53118675D01*
X8521946Y-53152658D01*
X8468557Y-53177665D01*
X8410381Y-53192871D01*
X8346335Y-53198087D01*
X8280589Y-53192838D01*
X8220992Y-53177556D01*
X8166439Y-53152476D01*
X8116077Y-53117211D01*
X8069364Y-53070776D01*
X7954631Y-53184105D01*
X8005593Y-53234759D01*
X8064298Y-53277583D01*
X8131585Y-53312821D01*
X8203185Y-53338513D01*
X8276420Y-53353846D01*
X8351953Y-53358982D01*
G37*
G36*
X7513528Y-53360387D02*
G01*
X7585498Y-53356007D01*
X7653138Y-53343125D01*
X7717105Y-53321919D01*
X7777505Y-53292346D01*
X7831142Y-53255804D01*
X7878671Y-53212070D01*
X7770960Y-53111381D01*
X7711418Y-53164280D01*
X7655556Y-53196744D01*
X7593762Y-53215175D01*
X7514933Y-53221901D01*
X7454806Y-53216559D01*
X7405381Y-53201589D01*
X7364540Y-53177815D01*
X7331972Y-53144974D01*
X7312978Y-53107104D01*
X7306471Y-53062411D01*
X7311838Y-53021670D01*
X7327328Y-52987460D01*
X7353366Y-52958180D01*
X7386636Y-52936575D01*
X7426838Y-52923099D01*
X7475793Y-52918307D01*
X7596082Y-52918307D01*
X7596082Y-52785378D01*
X7488371Y-52785378D01*
X7444139Y-52780780D01*
X7407869Y-52767820D01*
X7377851Y-52746910D01*
X7354825Y-52718854D01*
X7340827Y-52685143D01*
X7335903Y-52644084D01*
X7341746Y-52602680D01*
X7358905Y-52566811D01*
X7388354Y-52534968D01*
X7425407Y-52511260D01*
X7468481Y-52496709D01*
X7519146Y-52491615D01*
X7588815Y-52498392D01*
X7646458Y-52517505D01*
X7699672Y-52550495D01*
X7761191Y-52606287D01*
X7868902Y-52507002D01*
X7820368Y-52460351D01*
X7766895Y-52421775D01*
X7708007Y-52390865D01*
X7645402Y-52368351D01*
X7580779Y-52354858D01*
X7513528Y-52350321D01*
X7449061Y-52354498D01*
X7391339Y-52366539D01*
X7339383Y-52385980D01*
X7291341Y-52413296D01*
X7251795Y-52445880D01*
X7219765Y-52483921D01*
X7195776Y-52527123D01*
X7181343Y-52574093D01*
X7176412Y-52625887D01*
X7182121Y-52676258D01*
X7198968Y-52722025D01*
X7227459Y-52764434D01*
X7264502Y-52800258D01*
X7308667Y-52828637D01*
X7361060Y-52849736D01*
X7299263Y-52868011D01*
X7247803Y-52894883D01*
X7205050Y-52930214D01*
X7171727Y-52973659D01*
X7152191Y-53020941D01*
X7145576Y-53073585D01*
X7150948Y-53127065D01*
X7166749Y-53175907D01*
X7193204Y-53221229D01*
X7228170Y-53260811D01*
X7271390Y-53294798D01*
X7323996Y-53323323D01*
X7380594Y-53343517D01*
X7443433Y-53356041D01*
X7513528Y-53360387D01*
G37*
X47439666Y-6384819D02*
X47772999Y-5908628D01*
X48011094Y-6384819D02*
X48011094Y-5384819D01*
X48011094Y-5384819D02*
X47630142Y-5384819D01*
X47630142Y-5384819D02*
X47534904Y-5432438D01*
X47534904Y-5432438D02*
X47487285Y-5480057D01*
X47487285Y-5480057D02*
X47439666Y-5575295D01*
X47439666Y-5575295D02*
X47439666Y-5718152D01*
X47439666Y-5718152D02*
X47487285Y-5813390D01*
X47487285Y-5813390D02*
X47534904Y-5861009D01*
X47534904Y-5861009D02*
X47630142Y-5908628D01*
X47630142Y-5908628D02*
X48011094Y-5908628D01*
X46963475Y-6384819D02*
X46772999Y-6384819D01*
X46772999Y-6384819D02*
X46677761Y-6337200D01*
X46677761Y-6337200D02*
X46630142Y-6289580D01*
X46630142Y-6289580D02*
X46534904Y-6146723D01*
X46534904Y-6146723D02*
X46487285Y-5956247D01*
X46487285Y-5956247D02*
X46487285Y-5575295D01*
X46487285Y-5575295D02*
X46534904Y-5480057D01*
X46534904Y-5480057D02*
X46582523Y-5432438D01*
X46582523Y-5432438D02*
X46677761Y-5384819D01*
X46677761Y-5384819D02*
X46868237Y-5384819D01*
X46868237Y-5384819D02*
X46963475Y-5432438D01*
X46963475Y-5432438D02*
X47011094Y-5480057D01*
X47011094Y-5480057D02*
X47058713Y-5575295D01*
X47058713Y-5575295D02*
X47058713Y-5813390D01*
X47058713Y-5813390D02*
X47011094Y-5908628D01*
X47011094Y-5908628D02*
X46963475Y-5956247D01*
X46963475Y-5956247D02*
X46868237Y-6003866D01*
X46868237Y-6003866D02*
X46677761Y-6003866D01*
X46677761Y-6003866D02*
X46582523Y-5956247D01*
X46582523Y-5956247D02*
X46534904Y-5908628D01*
X46534904Y-5908628D02*
X46487285Y-5813390D01*
X28166666Y-53289580D02*
X28214285Y-53337200D01*
X28214285Y-53337200D02*
X28357142Y-53384819D01*
X28357142Y-53384819D02*
X28452380Y-53384819D01*
X28452380Y-53384819D02*
X28595237Y-53337200D01*
X28595237Y-53337200D02*
X28690475Y-53241961D01*
X28690475Y-53241961D02*
X28738094Y-53146723D01*
X28738094Y-53146723D02*
X28785713Y-52956247D01*
X28785713Y-52956247D02*
X28785713Y-52813390D01*
X28785713Y-52813390D02*
X28738094Y-52622914D01*
X28738094Y-52622914D02*
X28690475Y-52527676D01*
X28690475Y-52527676D02*
X28595237Y-52432438D01*
X28595237Y-52432438D02*
X28452380Y-52384819D01*
X28452380Y-52384819D02*
X28357142Y-52384819D01*
X28357142Y-52384819D02*
X28214285Y-52432438D01*
X28214285Y-52432438D02*
X28166666Y-52480057D01*
X27261904Y-52384819D02*
X27738094Y-52384819D01*
X27738094Y-52384819D02*
X27785713Y-52861009D01*
X27785713Y-52861009D02*
X27738094Y-52813390D01*
X27738094Y-52813390D02*
X27642856Y-52765771D01*
X27642856Y-52765771D02*
X27404761Y-52765771D01*
X27404761Y-52765771D02*
X27309523Y-52813390D01*
X27309523Y-52813390D02*
X27261904Y-52861009D01*
X27261904Y-52861009D02*
X27214285Y-52956247D01*
X27214285Y-52956247D02*
X27214285Y-53194342D01*
X27214285Y-53194342D02*
X27261904Y-53289580D01*
X27261904Y-53289580D02*
X27309523Y-53337200D01*
X27309523Y-53337200D02*
X27404761Y-53384819D01*
X27404761Y-53384819D02*
X27642856Y-53384819D01*
X27642856Y-53384819D02*
X27738094Y-53337200D01*
X27738094Y-53337200D02*
X27785713Y-53289580D01*
X18166666Y-53289580D02*
X18214285Y-53337200D01*
X18214285Y-53337200D02*
X18357142Y-53384819D01*
X18357142Y-53384819D02*
X18452380Y-53384819D01*
X18452380Y-53384819D02*
X18595237Y-53337200D01*
X18595237Y-53337200D02*
X18690475Y-53241961D01*
X18690475Y-53241961D02*
X18738094Y-53146723D01*
X18738094Y-53146723D02*
X18785713Y-52956247D01*
X18785713Y-52956247D02*
X18785713Y-52813390D01*
X18785713Y-52813390D02*
X18738094Y-52622914D01*
X18738094Y-52622914D02*
X18690475Y-52527676D01*
X18690475Y-52527676D02*
X18595237Y-52432438D01*
X18595237Y-52432438D02*
X18452380Y-52384819D01*
X18452380Y-52384819D02*
X18357142Y-52384819D01*
X18357142Y-52384819D02*
X18214285Y-52432438D01*
X18214285Y-52432438D02*
X18166666Y-52480057D01*
X17309523Y-52718152D02*
X17309523Y-53384819D01*
X17547618Y-52337200D02*
X17785713Y-53051485D01*
X17785713Y-53051485D02*
X17166666Y-53051485D01*
X61006857Y-6384819D02*
X61340190Y-5908628D01*
X61578285Y-6384819D02*
X61578285Y-5384819D01*
X61578285Y-5384819D02*
X61197333Y-5384819D01*
X61197333Y-5384819D02*
X61102095Y-5432438D01*
X61102095Y-5432438D02*
X61054476Y-5480057D01*
X61054476Y-5480057D02*
X61006857Y-5575295D01*
X61006857Y-5575295D02*
X61006857Y-5718152D01*
X61006857Y-5718152D02*
X61054476Y-5813390D01*
X61054476Y-5813390D02*
X61102095Y-5861009D01*
X61102095Y-5861009D02*
X61197333Y-5908628D01*
X61197333Y-5908628D02*
X61578285Y-5908628D01*
X60054476Y-6384819D02*
X60625904Y-6384819D01*
X60340190Y-6384819D02*
X60340190Y-5384819D01*
X60340190Y-5384819D02*
X60435428Y-5527676D01*
X60435428Y-5527676D02*
X60530666Y-5622914D01*
X60530666Y-5622914D02*
X60625904Y-5670533D01*
X59102095Y-6384819D02*
X59673523Y-6384819D01*
X59387809Y-6384819D02*
X59387809Y-5384819D01*
X59387809Y-5384819D02*
X59483047Y-5527676D01*
X59483047Y-5527676D02*
X59578285Y-5622914D01*
X59578285Y-5622914D02*
X59673523Y-5670533D01*
X12589580Y-7357142D02*
X12637200Y-7309523D01*
X12637200Y-7309523D02*
X12684819Y-7166666D01*
X12684819Y-7166666D02*
X12684819Y-7071428D01*
X12684819Y-7071428D02*
X12637200Y-6928571D01*
X12637200Y-6928571D02*
X12541961Y-6833333D01*
X12541961Y-6833333D02*
X12446723Y-6785714D01*
X12446723Y-6785714D02*
X12256247Y-6738095D01*
X12256247Y-6738095D02*
X12113390Y-6738095D01*
X12113390Y-6738095D02*
X11922914Y-6785714D01*
X11922914Y-6785714D02*
X11827676Y-6833333D01*
X11827676Y-6833333D02*
X11732438Y-6928571D01*
X11732438Y-6928571D02*
X11684819Y-7071428D01*
X11684819Y-7071428D02*
X11684819Y-7166666D01*
X11684819Y-7166666D02*
X11732438Y-7309523D01*
X11732438Y-7309523D02*
X11780057Y-7357142D01*
X12684819Y-8309523D02*
X12684819Y-7738095D01*
X12684819Y-8023809D02*
X11684819Y-8023809D01*
X11684819Y-8023809D02*
X11827676Y-7928571D01*
X11827676Y-7928571D02*
X11922914Y-7833333D01*
X11922914Y-7833333D02*
X11970533Y-7738095D01*
X12684819Y-9261904D02*
X12684819Y-8690476D01*
X12684819Y-8976190D02*
X11684819Y-8976190D01*
X11684819Y-8976190D02*
X11827676Y-8880952D01*
X11827676Y-8880952D02*
X11922914Y-8785714D01*
X11922914Y-8785714D02*
X11970533Y-8690476D01*
%TO.C,U2*%
X19920000Y-8170000D02*
X19920000Y-8420000D01*
X19920000Y-10830000D02*
X19920000Y-10580000D01*
X20670000Y-8170000D02*
X19920000Y-8170000D01*
X20670000Y-10830000D02*
X19920000Y-10830000D01*
X22330000Y-8170000D02*
X23080000Y-8170000D01*
X22330000Y-10830000D02*
X23080000Y-10830000D01*
X23080000Y-8170000D02*
X23080000Y-8420000D01*
X23080000Y-10830000D02*
X23080000Y-10580000D01*
X19670000Y-10260000D02*
G75*
G02*
X19510000Y-10260000I-80000J0D01*
G01*
X19510000Y-10260000D02*
G75*
G02*
X19670000Y-10260000I80000J0D01*
G01*
D14*
X20030000Y-10750000D02*
G75*
G02*
X19970000Y-10750000I-30000J0D01*
G01*
X19970000Y-10750000D02*
G75*
G02*
X20030000Y-10750000I30000J0D01*
G01*
%TO.C,R10*%
D13*
X53580742Y-3977500D02*
X54055258Y-3977500D01*
X53580742Y-5022500D02*
X54055258Y-5022500D01*
%TO.C,C2*%
X79859420Y-3990000D02*
X80140580Y-3990000D01*
X79859420Y-5010000D02*
X80140580Y-5010000D01*
%TO.C,SW2*%
D15*
X21450000Y-48470000D02*
X21450000Y-46130000D01*
X21830000Y-45640000D02*
X22720000Y-44750000D01*
X22200000Y-46300000D02*
X22200000Y-48300000D01*
X22200000Y-48300000D02*
X23000000Y-49100000D01*
X22720000Y-44750000D02*
X25280000Y-44750000D01*
X22720000Y-49850000D02*
X21830000Y-48960000D01*
X22720000Y-49850000D02*
X25280000Y-49850000D01*
X23000000Y-49100000D02*
X24900000Y-49100000D01*
X23100000Y-45400000D02*
X22200000Y-46300000D01*
X24800000Y-45400000D02*
X23100000Y-45400000D01*
X24900000Y-49100000D02*
X25800000Y-48200000D01*
X25280000Y-49850000D02*
X26170000Y-48960000D01*
X25800000Y-46400000D02*
X24800000Y-45400000D01*
X25800000Y-48200000D02*
X25800000Y-46400000D01*
X26170000Y-45640000D02*
X25280000Y-44750000D01*
X26550000Y-48470000D02*
X26550000Y-46130000D01*
D14*
X20780000Y-49850000D02*
G75*
G02*
X20720000Y-49850000I-30000J0D01*
G01*
X20720000Y-49850000D02*
G75*
G02*
X20780000Y-49850000I30000J0D01*
G01*
D15*
X25280000Y-47300000D02*
G75*
G02*
X22720000Y-47300000I-1280000J0D01*
G01*
X22720000Y-47300000D02*
G75*
G02*
X25280000Y-47300000I1280000J0D01*
G01*
%TO.C,R3*%
D13*
X20853742Y-3977500D02*
X21328258Y-3977500D01*
X20853742Y-5022500D02*
X21328258Y-5022500D01*
%TO.C,C8*%
X37738748Y-50765000D02*
X38261252Y-50765000D01*
X37738748Y-52235000D02*
X38261252Y-52235000D01*
%TO.C,C10*%
X57738748Y-50765000D02*
X58261252Y-50765000D01*
X57738748Y-52235000D02*
X58261252Y-52235000D01*
%TO.C,BT1*%
D10*
X47750000Y-24500000D02*
X47750000Y-25920000D01*
X47750000Y-24500000D02*
X50870000Y-24500000D01*
X47750000Y-31500000D02*
X47750000Y-30080000D01*
X47750000Y-31500000D02*
X50870000Y-31500000D01*
X50200000Y-36050000D02*
X50200000Y-19950000D01*
X50200000Y-36070000D02*
X50350000Y-36070000D01*
X50350000Y-19920000D02*
X50200000Y-19920000D01*
X50350000Y-36070000D02*
X50350000Y-19920000D01*
X50870000Y-19920000D02*
X73130000Y-19920000D01*
X50870000Y-36080000D02*
X73130000Y-36080000D01*
X52800000Y-34650000D02*
X51700000Y-34650000D01*
X71200000Y-21350000D02*
X72300000Y-21350000D01*
X71640000Y-36080000D02*
X71660000Y-36080000D01*
X71660000Y-36080000D02*
X73130000Y-34610000D01*
X71750000Y-20800000D02*
X71750000Y-21900000D01*
X73130000Y-19920000D02*
X73130000Y-26020000D01*
X73130000Y-29980000D02*
X73130000Y-25940000D01*
X73130000Y-36080000D02*
X73130000Y-29980000D01*
X76250000Y-24500000D02*
X73130000Y-24500000D01*
X76250000Y-24500000D02*
X76250000Y-25920000D01*
X76250000Y-31500000D02*
X73130000Y-31500000D01*
X76250000Y-31500000D02*
X76250000Y-30080000D01*
X56106036Y-36081719D02*
G75*
G02*
X56090000Y-19930000I5893964J8081719D01*
G01*
X67893964Y-19918281D02*
G75*
G02*
X67910000Y-36070000I-5893965J-8081719D01*
G01*
X53170000Y-34650000D02*
G75*
G02*
X51330000Y-34650000I-920000J0D01*
G01*
X51330000Y-34650000D02*
G75*
G02*
X53170000Y-34650000I920000J0D01*
G01*
X72670000Y-21350000D02*
G75*
G02*
X70830000Y-21350000I-920000J0D01*
G01*
X70830000Y-21350000D02*
G75*
G02*
X72670000Y-21350000I920000J0D01*
G01*
D14*
X77680000Y-36000000D02*
G75*
G02*
X77620000Y-36000000I-30000J0D01*
G01*
X77620000Y-36000000D02*
G75*
G02*
X77680000Y-36000000I30000J0D01*
G01*
D16*
G36*
X73126191Y-36076209D02*
G01*
X71652000Y-36076209D01*
X73126191Y-34604000D01*
X73126191Y-36076209D01*
G37*
G36*
X50950009Y-26067593D02*
G01*
X50645209Y-26067593D01*
X50645209Y-19847591D01*
X50950009Y-19847591D01*
X50950009Y-26067593D01*
G37*
G36*
X50950035Y-26049991D02*
G01*
X50950009Y-36152409D01*
X50645209Y-36152409D01*
X50645209Y-29932407D01*
X50650035Y-26000004D01*
X50950035Y-26049991D01*
G37*
%TO.C,C9*%
D13*
X47738748Y-50765000D02*
X48261252Y-50765000D01*
X47738748Y-52235000D02*
X48261252Y-52235000D01*
%TO.C,C1*%
X73314420Y-3990000D02*
X73595580Y-3990000D01*
X73314420Y-5010000D02*
X73595580Y-5010000D01*
%TO.C,R6*%
X40489742Y-3977500D02*
X40964258Y-3977500D01*
X40489742Y-5022500D02*
X40964258Y-5022500D01*
%TO.C,U4*%
D15*
X3700000Y-7600000D02*
X3700000Y-8970000D01*
X3700000Y-7600000D02*
X3780000Y-7600000D01*
X3700000Y-11600000D02*
X3700000Y-10230000D01*
X3700000Y-11600000D02*
X3780000Y-11600000D01*
X4810000Y-7600000D02*
X5050000Y-7600000D01*
X4810000Y-11600000D02*
X5050000Y-11600000D01*
X6080000Y-7600000D02*
X6320000Y-7600000D01*
X6080000Y-11600000D02*
X6320000Y-11600000D01*
X7350000Y-7600000D02*
X7590000Y-7600000D01*
X7350000Y-11600000D02*
X7590000Y-11600000D01*
X8620000Y-7600000D02*
X8700000Y-7600000D01*
X8620000Y-11600000D02*
X8700000Y-11600000D01*
X8700000Y-11600000D02*
X8700000Y-7600000D01*
X3700000Y-8970000D02*
G75*
G02*
X3700000Y-10230000I0J-630000D01*
G01*
D17*
X3560000Y-7060000D02*
G75*
G02*
X3260000Y-7060000I-150000J0D01*
G01*
X3260000Y-7060000D02*
G75*
G02*
X3560000Y-7060000I150000J0D01*
G01*
D14*
X3780000Y-6550000D02*
G75*
G02*
X3720000Y-6550000I-30000J0D01*
G01*
X3720000Y-6550000D02*
G75*
G02*
X3780000Y-6550000I30000J0D01*
G01*
D17*
X4450000Y-8330000D02*
G75*
G02*
X4150000Y-8330000I-150000J0D01*
G01*
X4150000Y-8330000D02*
G75*
G02*
X4450000Y-8330000I150000J0D01*
G01*
%TO.C,R4*%
D13*
X27398742Y-3977500D02*
X27873258Y-3977500D01*
X27398742Y-5022500D02*
X27873258Y-5022500D01*
%TO.C,R12*%
X66671742Y-3977500D02*
X67146258Y-3977500D01*
X66671742Y-5022500D02*
X67146258Y-5022500D01*
%TO.C,R5*%
X33944742Y-3977500D02*
X34419258Y-3977500D01*
X33944742Y-5022500D02*
X34419258Y-5022500D01*
%TO.C,U1*%
D15*
X23000000Y-17860000D02*
X24330000Y-17860000D01*
X23000000Y-18700000D02*
X23000000Y-17860000D01*
X23000000Y-37360000D02*
X41020000Y-37360000D01*
X23000000Y-43390000D02*
X23000000Y-36580000D01*
X24760000Y-42240000D02*
X24760000Y-38560000D01*
X27050000Y-40080000D02*
X27050000Y-42240000D01*
X27050000Y-42240000D02*
X24760000Y-42240000D01*
X29330000Y-40080000D02*
X27050000Y-40080000D01*
X29330000Y-42240000D02*
X29330000Y-40080000D01*
X31870000Y-40080000D02*
X31870000Y-42240000D01*
X31870000Y-42240000D02*
X29330000Y-42240000D01*
X34410000Y-40080000D02*
X31870000Y-40080000D01*
X34410000Y-42240000D02*
X34410000Y-40080000D01*
X37270000Y-37360000D02*
X37270000Y-42240000D01*
X37270000Y-42240000D02*
X34410000Y-42240000D01*
X39300000Y-37360000D02*
X39300000Y-42240000D01*
X39300000Y-42240000D02*
X37060000Y-42240000D01*
X39670000Y-17860000D02*
X41020000Y-17860000D01*
X41000000Y-43390000D02*
X23000000Y-43390000D01*
X41020000Y-17860000D02*
X41020000Y-18700000D01*
X41020000Y-36580000D02*
X41020000Y-43380000D01*
D14*
X23030000Y-43390000D02*
G75*
G02*
X22970000Y-43390000I-30000J0D01*
G01*
X22970000Y-43390000D02*
G75*
G02*
X23030000Y-43390000I30000J0D01*
G01*
D16*
%TO.C,R1*%
D13*
X7762742Y-3977500D02*
X8237258Y-3977500D01*
X7762742Y-5022500D02*
X8237258Y-5022500D01*
%TO.C,C12*%
X10759420Y-12890000D02*
X11040580Y-12890000D01*
X10759420Y-13910000D02*
X11040580Y-13910000D01*
%TO.C,R2*%
X14307742Y-3977500D02*
X14782258Y-3977500D01*
X14307742Y-5022500D02*
X14782258Y-5022500D01*
%TO.C,R14*%
X61762742Y-51777500D02*
X62237258Y-51777500D01*
X61762742Y-52822500D02*
X62237258Y-52822500D01*
%TO.C,C3*%
X7859420Y-50990000D02*
X8140580Y-50990000D01*
X7859420Y-52010000D02*
X8140580Y-52010000D01*
%TO.C,R9*%
X47035742Y-3977500D02*
X47510258Y-3977500D01*
X47035742Y-5022500D02*
X47510258Y-5022500D01*
%TO.C,C5*%
X27859420Y-50990000D02*
X28140580Y-50990000D01*
X27859420Y-52010000D02*
X28140580Y-52010000D01*
%TO.C,SW1*%
D15*
X9450000Y-48470000D02*
X9450000Y-46130000D01*
X9830000Y-45640000D02*
X10720000Y-44750000D01*
X10200000Y-46300000D02*
X10200000Y-48300000D01*
X10200000Y-48300000D02*
X11000000Y-49100000D01*
X10720000Y-44750000D02*
X13280000Y-44750000D01*
X10720000Y-49850000D02*
X9830000Y-48960000D01*
X10720000Y-49850000D02*
X13280000Y-49850000D01*
X11000000Y-49100000D02*
X12900000Y-49100000D01*
X11100000Y-45400000D02*
X10200000Y-46300000D01*
X12800000Y-45400000D02*
X11100000Y-45400000D01*
X12900000Y-49100000D02*
X13800000Y-48200000D01*
X13280000Y-49850000D02*
X14170000Y-48960000D01*
X13800000Y-46400000D02*
X12800000Y-45400000D01*
X13800000Y-48200000D02*
X13800000Y-46400000D01*
X14170000Y-45640000D02*
X13280000Y-44750000D01*
X14550000Y-48470000D02*
X14550000Y-46130000D01*
D14*
X8780000Y-49850000D02*
G75*
G02*
X8720000Y-49850000I-30000J0D01*
G01*
X8720000Y-49850000D02*
G75*
G02*
X8780000Y-49850000I30000J0D01*
G01*
D15*
X13280000Y-47300000D02*
G75*
G02*
X10720000Y-47300000I-1280000J0D01*
G01*
X10720000Y-47300000D02*
G75*
G02*
X13280000Y-47300000I1280000J0D01*
G01*
%TO.C,C4*%
D13*
X17859420Y-50990000D02*
X18140580Y-50990000D01*
X17859420Y-52010000D02*
X18140580Y-52010000D01*
%TO.C,R11*%
X60126742Y-3977500D02*
X60601258Y-3977500D01*
X60126742Y-5022500D02*
X60601258Y-5022500D01*
%TO.C,C11*%
X10290000Y-8140580D02*
X10290000Y-7859420D01*
X11310000Y-8140580D02*
X11310000Y-7859420D01*
%TD*%
M02*
