M48
; DRILL file KiCad 10.0.3 date 2026-09-16T00:48:09
; FORMAT={-:-/ absolute / metric / decimal}
; #@! TF.CreationDate,2026-09-16T00:48:09-04:00
; #@! TF.GenerationSoftware,Kicad,Pcbnew,10.0.3
; #@! TF.FileFunction,MixedPlating,1,2
FMAT,2
METRIC
; #@! TA.AperFunction,Plated,PTH,ViaDrill
T1C0.300
; #@! TA.AperFunction,Plated,PTH,ComponentDrill
T2C0.300
; #@! TA.AperFunction,Plated,PTH,ComponentDrill
T3C0.800
; #@! TA.AperFunction,Plated,PTH,ComponentDrill
T4C1.900
; #@! TA.AperFunction,NonPlated,NPTH,ComponentDrill
T5C0.750
; #@! TA.AperFunction,NonPlated,NPTH,ComponentDrill
T6C0.850
%
G90
G05
T1
X5.841Y-10.304
X8.364Y-9.709
X10.237Y-9.727
X13.683Y-13.742
X16.844Y-9.462
X16.936Y-29.48
X17.606Y-9.2
X17.785Y-12.175
X18.849Y-8.178
X19.024Y-9.887
X19.272Y-24.051
X19.315Y-12.501
X19.373Y-11.364
X19.379Y-21.462
X19.417Y-18.962
X19.873Y-20.708
X21.046Y-12.902
X21.464Y-26.149
X21.891Y-12.755
X23.885Y-13.148
X24.463Y-32.441
X24.47Y-20.708
X24.472Y-24.051
X24.673Y-26.149
X25.078Y-22.189
X25.242Y-26.711
X25.354Y-21.418
X26.341Y-13.606
X26.632Y-12.502
X27.512Y-13.211
X27.571Y-11.956
X28.683Y-10.431
X29.512Y-9.221
X34.942Y-8.921
X34.997Y-11.13
X35.382Y-15.583
X38.625Y-2.574
X38.755Y-3.346
X38.968Y-9.262
X41.818Y-11.13
X42.182Y-42.569
X44.514Y-35.954
X45.048Y-22.297
X45.082Y-39.02
X46.329Y-5.453
X51.625Y-4.302
X52.204Y-46.136
X57.086Y-3.931
X61.354Y-39.02
X66.471Y-3.135
X69.504Y-46.136
X73.464Y-17.391
X73.859Y-15.373
X75.652Y-16.193
X76.1Y-7.842
X81.968Y-7.842
T2
X8.0Y-14.2
X8.5Y-22.8
T4
X49.3Y-28.0
X74.7Y-28.0
T5
X80.49Y-11.6
X80.49Y-17.4
T6
X81.455Y-26.5
X81.455Y-29.5
T3
X80.39Y-10.17G85X79.59Y-10.17
G05
X80.39Y-18.83G85X79.59Y-18.83
G05
X84.47Y-10.17G85X83.87Y-10.17
G05
X84.47Y-18.83G85X83.87Y-18.83
G05
M30
