%TF.GenerationSoftware,KiCad,Pcbnew,10.0.3*%
%TF.CreationDate,2026-08-03T21:15:36-04:00*%
%TF.ProjectId,NeuralCard,4e657572-616c-4436-9172-642e6b696361,rev?*%
%TF.SameCoordinates,Original*%
%TF.FileFunction,Copper,L2,Bot*%
%TF.FilePolarity,Positive*%
%FSLAX46Y46*%
G04 Gerber Fmt 4.6, Leading zero omitted, Abs format (unit mm)*
G04 Created by KiCad (PCBNEW 10.0.3) date 2026-08-03 21:15:36*
%MOMM*%
%LPD*%
G01*
G04 APERTURE LIST*
G04 Aperture macros list*
%AMRoundRect*
0 Rectangle with rounded corners*
0 $1 Rounding radius*
0 $2 $3 $4 $5 $6 $7 $8 $9 X,Y pos of 4 corners*
0 Add a 4 corners polygon primitive as box body*
4,1,4,$2,$3,$4,$5,$6,$7,$8,$9,$2,$3,0*
0 Add four circle primitives for the rounded corners*
1,1,$1+$1,$2,$3*
1,1,$1+$1,$4,$5*
1,1,$1+$1,$6,$7*
1,1,$1+$1,$8,$9*
0 Add four rect primitives between the rounded corners*
20,1,$1+$1,$2,$3,$4,$5,0*
20,1,$1+$1,$4,$5,$6,$7,0*
20,1,$1+$1,$6,$7,$8,$9,0*
20,1,$1+$1,$8,$9,$2,$3,0*%
G04 Aperture macros list end*
%TA.AperFunction,EtchedComponent*%
%ADD10C,0.300000*%
%TD*%
%TA.AperFunction,SMDPad,CuDef*%
%ADD11R,1.500000X2.200000*%
%TD*%
%TA.AperFunction,SMDPad,CuDef*%
%ADD12RoundRect,0.200000X-0.200000X-0.275000X0.200000X-0.275000X0.200000X0.275000X-0.200000X0.275000X0*%
%TD*%
%TA.AperFunction,SMDPad,CuDef*%
%ADD13R,1.000000X0.750000*%
%TD*%
%TA.AperFunction,SMDPad,CuDef*%
%ADD14R,1.500000X0.900000*%
%TD*%
%TA.AperFunction,SMDPad,CuDef*%
%ADD15R,0.900000X1.500000*%
%TD*%
%TA.AperFunction,SMDPad,CuDef*%
%ADD16R,0.900000X0.900000*%
%TD*%
%TA.AperFunction,SMDPad,CuDef*%
%ADD17R,1.200000X1.000000*%
%TD*%
%TA.AperFunction,ComponentPad*%
%ADD18C,1.200000*%
%TD*%
%TA.AperFunction,SMDPad,CuDef*%
%ADD19RoundRect,0.225000X-0.225000X-0.250000X0.225000X-0.250000X0.225000X0.250000X-0.225000X0.250000X0*%
%TD*%
%TA.AperFunction,SMDPad,CuDef*%
%ADD20O,0.574000X1.888000*%
%TD*%
%TA.AperFunction,SMDPad,CuDef*%
%ADD21C,1.000000*%
%TD*%
%TA.AperFunction,SMDPad,CuDef*%
%ADD22R,4.200000X3.800000*%
%TD*%
%TA.AperFunction,SMDPad,CuDef*%
%ADD23RoundRect,0.250000X-0.250000X-0.475000X0.250000X-0.475000X0.250000X0.475000X-0.250000X0.475000X0*%
%TD*%
%TA.AperFunction,SMDPad,CuDef*%
%ADD24RoundRect,0.150000X-0.500000X0.150000X-0.500000X-0.150000X0.500000X-0.150000X0.500000X0.150000X0*%
%TD*%
%TA.AperFunction,SMDPad,CuDef*%
%ADD25RoundRect,0.175000X-0.175000X0.350000X-0.175000X-0.350000X0.175000X-0.350000X0.175000X0.350000X0*%
%TD*%
%TA.AperFunction,SMDPad,CuDef*%
%ADD26RoundRect,0.225000X0.250000X-0.225000X0.250000X0.225000X-0.250000X0.225000X-0.250000X-0.225000X0*%
%TD*%
%TA.AperFunction,SMDPad,CuDef*%
%ADD27R,0.675000X0.280000*%
%TD*%
%TA.AperFunction,SMDPad,CuDef*%
%ADD28R,0.280000X0.675000*%
%TD*%
%TA.AperFunction,SMDPad,CuDef*%
%ADD29RoundRect,0.250000X0.475000X-0.250000X0.475000X0.250000X-0.475000X0.250000X-0.475000X-0.250000X0*%
%TD*%
%TA.AperFunction,ViaPad*%
%ADD30C,0.600000*%
%TD*%
%TA.AperFunction,Conductor*%
%ADD31C,0.200000*%
%TD*%
G04 APERTURE END LIST*
%TO.C,ANT1*%
D10*
X2650000Y-16150000D02*
X2650000Y-40350000D01*
X2650000Y-40350000D02*
X14350000Y-40350000D01*
X3200000Y-14200000D02*
X3200000Y-16150000D01*
X3200000Y-16150000D02*
X2650000Y-16150000D01*
X3250000Y-16750000D02*
X3250000Y-16750000D01*
X3250000Y-16750000D02*
X3250000Y-39750000D01*
X3250000Y-39750000D02*
X13750000Y-39750000D01*
X3850000Y-17350000D02*
X3850000Y-17350000D01*
X3850000Y-17350000D02*
X3850000Y-39150000D01*
X3850000Y-39150000D02*
X13150000Y-39150000D01*
X4450000Y-17950000D02*
X4450000Y-17950000D01*
X4450000Y-17950000D02*
X4450000Y-38550000D01*
X4450000Y-38550000D02*
X12550000Y-38550000D01*
X5050000Y-18550000D02*
X5050000Y-18550000D01*
X5050000Y-18550000D02*
X5050000Y-37950000D01*
X5050000Y-37950000D02*
X11950000Y-37950000D01*
X5650000Y-19150000D02*
X5650000Y-19150000D01*
X5650000Y-19150000D02*
X5650000Y-37350000D01*
X5650000Y-37350000D02*
X11350000Y-37350000D01*
X6250000Y-19750000D02*
X6250000Y-19750000D01*
X6250000Y-19750000D02*
X6250000Y-36750000D01*
X6250000Y-36750000D02*
X10750000Y-36750000D01*
X6850000Y-20350000D02*
X6850000Y-20350000D01*
X6850000Y-20350000D02*
X6850000Y-36150000D01*
X6850000Y-36150000D02*
X10150000Y-36150000D01*
X7450000Y-20950000D02*
X7450000Y-20950000D01*
X7450000Y-20950000D02*
X7450000Y-35550000D01*
X7450000Y-35550000D02*
X9550000Y-35550000D01*
X9550000Y-21550000D02*
X8886000Y-22341000D01*
X9550000Y-35550000D02*
X9550000Y-21550000D01*
X10150000Y-20950000D02*
X7450000Y-20950000D01*
X10150000Y-36150000D02*
X10150000Y-20950000D01*
X10750000Y-20350000D02*
X6850000Y-20350000D01*
X10750000Y-36750000D02*
X10750000Y-20350000D01*
X11350000Y-19750000D02*
X6250000Y-19750000D01*
X11350000Y-37350000D02*
X11350000Y-19750000D01*
X11950000Y-19150000D02*
X5650000Y-19150000D01*
X11950000Y-37950000D02*
X11950000Y-19150000D01*
X12550000Y-18550000D02*
X5050000Y-18550000D01*
X12550000Y-38550000D02*
X12550000Y-18550000D01*
X13150000Y-17950000D02*
X4450000Y-17950000D01*
X13150000Y-39150000D02*
X13150000Y-17950000D01*
X13750000Y-17350000D02*
X3850000Y-17350000D01*
X13750000Y-39750000D02*
X13750000Y-17350000D01*
X14350000Y-16750000D02*
X3250000Y-16750000D01*
X14350000Y-40350000D02*
X14350000Y-16750000D01*
%TD*%
D11*
%TO.P,J1,1*%
%TO.N,+3V3*%
X66000000Y-50000000D03*
%TO.P,J1,2*%
%TO.N,GND*%
X68540000Y-50000000D03*
%TO.P,J1,3*%
%TO.N,TXD*%
X71080000Y-50000000D03*
%TO.P,J1,4*%
%TO.N,RXD*%
X73620000Y-50000000D03*
%TO.P,J1,5*%
%TO.N,EN*%
X76160000Y-50000000D03*
%TO.P,J1,6*%
%TO.N,IO0*%
X78700000Y-50000000D03*
%TD*%
D12*
%TO.P,R6,1*%
%TO.N,CHX6*%
X39902000Y-4500000D03*
%TO.P,R6,2*%
%TO.N,CP6*%
X41552000Y-4500000D03*
%TD*%
D13*
%TO.P,SW2,1*%
%TO.N,EN*%
X21000000Y-49150000D03*
%TO.P,SW2,2*%
%TO.N,GND*%
X27000000Y-49150000D03*
%TO.P,SW2,3*%
%TO.N,EN*%
X21000000Y-45450000D03*
%TO.P,SW2,4*%
%TO.N,GND*%
X27000000Y-45450000D03*
%TD*%
D12*
%TO.P,R12,1*%
%TO.N,+3V3*%
X66084000Y-4500000D03*
%TO.P,R12,2*%
%TO.N,SCL*%
X67734000Y-4500000D03*
%TD*%
D14*
%TO.P,U1,1*%
%TO.N,GND*%
X23250000Y-35890000D03*
%TO.P,U1,2*%
%TO.N,+3V3*%
X23250000Y-34620000D03*
%TO.P,U1,3*%
%TO.N,EN*%
X23250000Y-33350000D03*
%TO.P,U1,4*%
%TO.N,CHX1*%
X23250000Y-32080000D03*
%TO.P,U1,5*%
%TO.N,CHX2*%
X23250000Y-30810000D03*
%TO.P,U1,6*%
%TO.N,CHX3*%
X23250000Y-29540000D03*
%TO.P,U1,7*%
%TO.N,CHX4*%
X23250000Y-28270000D03*
%TO.P,U1,8*%
%TO.N,CHX5*%
X23250000Y-27000000D03*
%TO.P,U1,9*%
%TO.N,CHX6*%
X23250000Y-25730000D03*
%TO.P,U1,10*%
%TO.N,SCL*%
X23250000Y-24460000D03*
%TO.P,U1,11*%
%TO.N,IMU_INT*%
X23250000Y-23190000D03*
%TO.P,U1,12*%
%TO.N,SDA*%
X23250000Y-21920000D03*
%TO.P,U1,13*%
%TO.N,unconnected-(U1-IO19-Pad13)*%
X23250000Y-20650000D03*
%TO.P,U1,14*%
%TO.N,unconnected-(U1-IO20-Pad14)*%
X23250000Y-19380000D03*
D15*
%TO.P,U1,15*%
%TO.N,unconnected-(U1-IO3-Pad15)*%
X25010000Y-18110000D03*
%TO.P,U1,16*%
%TO.N,unconnected-(U1-IO46-Pad16)*%
X26280000Y-18110000D03*
%TO.P,U1,17*%
%TO.N,unconnected-(U1-IO9-Pad17)*%
X27550000Y-18110000D03*
%TO.P,U1,18*%
%TO.N,unconnected-(U1-IO10-Pad18)*%
X28830000Y-18110000D03*
%TO.P,U1,19*%
%TO.N,unconnected-(U1-IO11-Pad19)*%
X30100000Y-18110000D03*
%TO.P,U1,20*%
%TO.N,unconnected-(U1-IO12-Pad20)*%
X31370000Y-18110000D03*
%TO.P,U1,21*%
%TO.N,unconnected-(U1-IO13-Pad21)*%
X32640000Y-18110000D03*
%TO.P,U1,22*%
%TO.N,unconnected-(U1-IO14-Pad22)*%
X33910000Y-18110000D03*
%TO.P,U1,23*%
%TO.N,NFC_GPO*%
X35180000Y-18110000D03*
%TO.P,U1,24*%
%TO.N,unconnected-(U1-IO47-Pad24)*%
X36450000Y-18110000D03*
%TO.P,U1,25*%
%TO.N,unconnected-(U1-IO48-Pad25)*%
X37720000Y-18110000D03*
%TO.P,U1,26*%
%TO.N,unconnected-(U1-IO45-Pad26)*%
X38990000Y-18140000D03*
D14*
%TO.P,U1,27*%
%TO.N,IO0*%
X40750000Y-19380000D03*
%TO.P,U1,28*%
%TO.N,unconnected-(U1-IO35-Pad28)*%
X40750000Y-20650000D03*
%TO.P,U1,29*%
%TO.N,unconnected-(U1-IO36-Pad29)*%
X40750000Y-21920000D03*
%TO.P,U1,30*%
%TO.N,unconnected-(U1-IO37-Pad30)*%
X40750000Y-23190000D03*
%TO.P,U1,31*%
%TO.N,unconnected-(U1-IO38-Pad31)*%
X40750000Y-24460000D03*
%TO.P,U1,32*%
%TO.N,unconnected-(U1-IO39-Pad32)*%
X40750000Y-25730000D03*
%TO.P,U1,33*%
%TO.N,unconnected-(U1-IO40-Pad33)*%
X40750000Y-27000000D03*
%TO.P,U1,34*%
%TO.N,unconnected-(U1-IO41-Pad34)*%
X40750000Y-28270000D03*
%TO.P,U1,35*%
%TO.N,unconnected-(U1-IO42-Pad35)*%
X40750000Y-29540000D03*
%TO.P,U1,36*%
%TO.N,RXD*%
X40750000Y-30810000D03*
%TO.P,U1,37*%
%TO.N,TXD*%
X40750000Y-32080000D03*
%TO.P,U1,38*%
%TO.N,unconnected-(U1-IO2-Pad38)*%
X40750000Y-33350000D03*
%TO.P,U1,39*%
%TO.N,unconnected-(U1-IO1-Pad39)*%
X40750000Y-34620000D03*
%TO.P,U1,40*%
%TO.N,GND*%
X40750000Y-35890000D03*
D16*
%TO.P,U1,41*%
X29100000Y-26770000D03*
X29100000Y-28170000D03*
X29100000Y-29570000D03*
X30500000Y-26770000D03*
X30500000Y-28170000D03*
X30500000Y-29570000D03*
X31900000Y-26770000D03*
X31900000Y-28170000D03*
X31900000Y-29570000D03*
%TD*%
D17*
%TO.P,ANT1,1*%
%TO.N,NFC_ANT_A*%
X3200000Y-14200000D03*
D18*
%TO.P,ANT1,2*%
%TO.N,NFC_ANT_B*%
X8000000Y-14200000D03*
%TO.P,ANT1,3*%
%TO.N,N/C*%
X8500000Y-22800000D03*
%TD*%
D19*
%TO.P,C5,1*%
%TO.N,+3V3*%
X24725000Y-9500000D03*
%TO.P,C5,2*%
%TO.N,GND*%
X26275000Y-9500000D03*
%TD*%
D20*
%TO.P,U4,1*%
%TO.N,unconnected-(U4-V_EH-Pad1)*%
X4300000Y-6900000D03*
%TO.P,U4,2*%
%TO.N,NFC_ANT_A*%
X5570000Y-6900000D03*
%TO.P,U4,3*%
%TO.N,NFC_ANT_B*%
X6830000Y-6900000D03*
%TO.P,U4,4*%
%TO.N,GND*%
X8100000Y-6900000D03*
%TO.P,U4,5*%
%TO.N,SDA*%
X8100000Y-12300000D03*
%TO.P,U4,6*%
%TO.N,SCL*%
X6830000Y-12300000D03*
%TO.P,U4,7*%
%TO.N,NFC_GPO*%
X5570000Y-12300000D03*
%TO.P,U4,8*%
%TO.N,+3V3*%
X4300000Y-12300000D03*
%TD*%
D21*
%TO.P,FID1,*%
%TO.N,*%
X3500000Y-3000000D03*
%TD*%
D22*
%TO.P,BT1,1*%
%TO.N,VBAT*%
X76390000Y-28000000D03*
%TO.P,BT1,2*%
%TO.N,GND*%
X47610000Y-28000000D03*
%TD*%
D12*
%TO.P,R5,1*%
%TO.N,CHX5*%
X33357000Y-4500000D03*
%TO.P,R5,2*%
%TO.N,CP5*%
X35007000Y-4500000D03*
%TD*%
D21*
%TO.P,FID2,*%
%TO.N,*%
X3500000Y-50500000D03*
%TD*%
D23*
%TO.P,C10,1*%
%TO.N,+3V3*%
X79050000Y-4500000D03*
%TO.P,C10,2*%
%TO.N,GND*%
X80950000Y-4500000D03*
%TD*%
D24*
%TO.P,SW3,1*%
%TO.N,unconnected-(SW3-A-Pad1)*%
X79505000Y-25750000D03*
%TO.P,SW3,2*%
%TO.N,VBAT*%
X79505000Y-28750000D03*
%TO.P,SW3,3*%
%TO.N,+3V3*%
X79505000Y-30250000D03*
D25*
%TO.P,SW3,SH*%
%TO.N,N/C*%
X82555000Y-24325000D03*
X80355000Y-24325000D03*
X82555000Y-31675000D03*
X80355000Y-31675000D03*
%TD*%
D12*
%TO.P,R11,1*%
%TO.N,+3V3*%
X59539000Y-4500000D03*
%TO.P,R11,2*%
%TO.N,SDA*%
X61189000Y-4500000D03*
%TD*%
D19*
%TO.P,C1,1*%
%TO.N,+3V3*%
X20225000Y-16500000D03*
%TO.P,C1,2*%
%TO.N,GND*%
X21775000Y-16500000D03*
%TD*%
D12*
%TO.P,R10,1*%
%TO.N,+3V3*%
X52993000Y-4500000D03*
%TO.P,R10,2*%
%TO.N,IO0*%
X54643000Y-4500000D03*
%TD*%
%TO.P,R9,1*%
%TO.N,+3V3*%
X46448000Y-4500000D03*
%TO.P,R9,2*%
%TO.N,EN*%
X48098000Y-4500000D03*
%TD*%
%TO.P,R14,1*%
%TO.N,+3V3*%
X61175000Y-52300000D03*
%TO.P,R14,2*%
%TO.N,NFC_GPO*%
X62825000Y-52300000D03*
%TD*%
D26*
%TO.P,C3,1*%
%TO.N,+3V3*%
X44000000Y-17775000D03*
%TO.P,C3,2*%
%TO.N,GND*%
X44000000Y-16225000D03*
%TD*%
D12*
%TO.P,R4,1*%
%TO.N,CHX4*%
X26811000Y-4500000D03*
%TO.P,R4,2*%
%TO.N,CP4*%
X28461000Y-4500000D03*
%TD*%
D27*
%TO.P,U2,1*%
%TO.N,+3V3*%
X20240000Y-10250000D03*
%TO.P,U2,2*%
%TO.N,unconnected-(U2-SDx-Pad2)*%
X20240000Y-9750000D03*
%TO.P,U2,3*%
%TO.N,unconnected-(U2-SCx-Pad3)*%
X20240000Y-9250000D03*
%TO.P,U2,4*%
%TO.N,IMU_INT*%
X20240000Y-8750000D03*
D28*
%TO.P,U2,5*%
%TO.N,+3V3*%
X21000000Y-8490000D03*
%TO.P,U2,6*%
%TO.N,GND*%
X21500000Y-8490000D03*
%TO.P,U2,7*%
X22000000Y-8490000D03*
D27*
%TO.P,U2,8*%
%TO.N,+3V3*%
X22760000Y-8750000D03*
%TO.P,U2,9*%
%TO.N,unconnected-(U2-INT2-Pad9)*%
X22760000Y-9250000D03*
%TO.P,U2,10*%
%TO.N,unconnected-(U2-NC-Pad10)*%
X22760000Y-9750000D03*
%TO.P,U2,11*%
%TO.N,unconnected-(U2-NC-Pad11)*%
X22760000Y-10250000D03*
D28*
%TO.P,U2,12*%
%TO.N,+3V3*%
X22000000Y-10510000D03*
%TO.P,U2,13*%
%TO.N,SCL*%
X21500000Y-10510000D03*
%TO.P,U2,14*%
%TO.N,SDA*%
X21000000Y-10510000D03*
%TD*%
D26*
%TO.P,C4,1*%
%TO.N,EN*%
X44000000Y-22775000D03*
%TO.P,C4,2*%
%TO.N,GND*%
X44000000Y-21225000D03*
%TD*%
D12*
%TO.P,R3,1*%
%TO.N,CHX3*%
X20266000Y-4500000D03*
%TO.P,R3,2*%
%TO.N,CP3*%
X21916000Y-4500000D03*
%TD*%
D23*
%TO.P,C9,1*%
%TO.N,+3V3*%
X72505000Y-4500000D03*
%TO.P,C9,2*%
%TO.N,GND*%
X74405000Y-4500000D03*
%TD*%
D26*
%TO.P,C11,1*%
%TO.N,+3V3*%
X10800000Y-8775000D03*
%TO.P,C11,2*%
%TO.N,GND*%
X10800000Y-7225000D03*
%TD*%
D13*
%TO.P,SW1,1*%
%TO.N,IO0*%
X9000000Y-49150000D03*
%TO.P,SW1,2*%
%TO.N,GND*%
X15000000Y-49150000D03*
%TO.P,SW1,3*%
%TO.N,IO0*%
X9000000Y-45450000D03*
%TO.P,SW1,4*%
%TO.N,GND*%
X15000000Y-45450000D03*
%TD*%
D12*
%TO.P,R2,1*%
%TO.N,CHX2*%
X13720000Y-4500000D03*
%TO.P,R2,2*%
%TO.N,CP2*%
X15370000Y-4500000D03*
%TD*%
D19*
%TO.P,C2,1*%
%TO.N,+3V3*%
X20225000Y-21500000D03*
%TO.P,C2,2*%
%TO.N,GND*%
X21775000Y-21500000D03*
%TD*%
D12*
%TO.P,R1,1*%
%TO.N,CHX1*%
X7175000Y-4500000D03*
%TO.P,R1,2*%
%TO.N,CP1*%
X8825000Y-4500000D03*
%TD*%
D21*
%TO.P,FID3,*%
%TO.N,*%
X81000000Y-50500000D03*
%TD*%
D19*
%TO.P,C12,1*%
%TO.N,NFC_ANT_A*%
X10125000Y-12900000D03*
%TO.P,C12,2*%
%TO.N,NFC_ANT_B*%
X11675000Y-12900000D03*
%TD*%
D29*
%TO.P,C8,1*%
%TO.N,+3V3*%
X44000000Y-27950000D03*
%TO.P,C8,2*%
%TO.N,GND*%
X44000000Y-26050000D03*
%TD*%
D30*
%TO.N,CP4*%
X30150200Y-10256700D03*
%TO.N,CP3*%
X18534900Y-16373600D03*
X16595600Y-6043000D03*
X22879400Y-4436200D03*
X67056800Y-36327300D03*
X70016200Y-21389700D03*
%TO.N,CP5*%
X43215300Y-33149400D03*
X43003000Y-17391600D03*
X43365300Y-46062600D03*
X39181600Y-26652200D03*
%TO.N,CP2*%
X39842500Y-12731800D03*
X69579400Y-37896200D03*
X39229900Y-9518300D03*
X18363700Y-9527200D03*
X66195300Y-35721000D03*
X69023600Y-17805800D03*
%TO.N,CP6*%
X46893600Y-7772900D03*
X45857600Y-21267900D03*
X45507700Y-7215700D03*
%TO.N,CP1*%
X69554200Y-10797500D03*
X10236800Y-10347300D03*
X63213800Y-27288000D03*
%TO.N,+3V3*%
X19954200Y-11162900D03*
X21789700Y-11580800D03*
X24850000Y-8165000D03*
X39934900Y-6936100D03*
X18126500Y-27941300D03*
%TO.N,GND*%
X69169900Y-36250001D03*
X56145911Y-25462250D03*
X2600000Y-12000000D03*
X45552950Y-36691645D03*
X68656029Y-7735166D03*
X45582225Y-18178879D03*
X55991625Y-14460437D03*
X43000000Y-2400000D03*
X25071659Y-27806817D03*
X43252658Y-42787141D03*
X48000000Y-27000000D03*
X83000000Y-51000000D03*
X36390463Y-11620747D03*
X29024299Y-30701250D03*
X83000000Y-12000000D03*
X56642999Y-6107850D03*
X56511924Y-10347945D03*
X43000000Y-51600000D03*
X42940666Y-10377212D03*
X12150646Y-14402310D03*
X25065851Y-20179654D03*
X24000000Y-8000000D03*
X31911904Y-11453437D03*
X52000000Y-40000000D03*
X61429085Y-30984258D03*
X83000000Y-27000000D03*
X40073050Y-40982928D03*
%TO.N,EN*%
X27973200Y-28735400D03*
X54636000Y-29086300D03*
X45916500Y-24903500D03*
%TO.N,IO0*%
X33762900Y-28525500D03*
X42413600Y-27816000D03*
%TO.N,CHX6*%
X30966400Y-21286600D03*
X33762900Y-15583400D03*
%TO.N,SCL*%
X63512100Y-3825600D03*
X18500800Y-18830400D03*
X22279400Y-12676400D03*
X6287500Y-10913700D03*
%TO.N,CHX4*%
X22335200Y-15088000D03*
X17804100Y-15579000D03*
%TO.N,CHX5*%
X21596500Y-20120600D03*
X19436400Y-24283100D03*
%TO.N,SDA*%
X8208800Y-9975500D03*
X19538900Y-7030200D03*
%TO.N,NFC_GPO*%
X34430700Y-6833900D03*
X6968500Y-9870400D03*
%TO.N,NFC_ANT_A*%
X6568100Y-13867400D03*
X10000100Y-11865000D03*
%TD*%
%TO.N,CP4*%
D31*
X30150200Y-10256700D02*
X28461000Y-8567500D01*
X28461000Y-8567500D02*
X28461000Y-4500000D01*
%TO.N,CP3*%
X18534900Y-11061200D02*
X18534900Y-16373600D01*
X16595600Y-6043000D02*
X16595600Y-9121900D01*
X21979800Y-4436200D02*
X21916000Y-4500000D01*
X70016200Y-33367900D02*
X67056800Y-36327300D01*
X16595600Y-9121900D02*
X18534900Y-11061200D01*
X70016200Y-21389700D02*
X70016200Y-33367900D01*
X22879400Y-4436200D02*
X21979800Y-4436200D01*
%TO.N,CP5*%
X35062500Y-4500000D02*
X35007000Y-4500000D01*
X43003000Y-17391600D02*
X43003000Y-12440500D01*
X41655800Y-36685200D02*
X41655800Y-44353100D01*
X43215300Y-35125700D02*
X43215300Y-33149400D01*
X39181600Y-26652200D02*
X39181600Y-35989400D01*
X39181600Y-35989400D02*
X39877400Y-36685200D01*
X39877400Y-36685200D02*
X41655800Y-36685200D01*
X43003000Y-12440500D02*
X35062500Y-4500000D01*
X41655800Y-36685200D02*
X43215300Y-35125700D01*
X41655800Y-44353100D02*
X43365300Y-46062600D01*
%TO.N,CP2*%
X18363700Y-6960200D02*
X15903500Y-4500000D01*
X69023600Y-32892700D02*
X66195300Y-35721000D01*
X15903500Y-4500000D02*
X15370000Y-4500000D01*
X39229900Y-9518300D02*
X39229900Y-12119200D01*
X66195300Y-36377300D02*
X66195300Y-35721000D01*
X69023600Y-17805800D02*
X69023600Y-32892700D01*
X67714200Y-37896200D02*
X66195300Y-36377300D01*
X69579400Y-37896200D02*
X67714200Y-37896200D01*
X39229900Y-12119200D02*
X39842500Y-12731800D01*
X18363700Y-9527200D02*
X18363700Y-6960200D01*
%TO.N,CP6*%
X46893600Y-7772900D02*
X46893600Y-20231900D01*
X41552000Y-4500000D02*
X44267700Y-7215700D01*
X46893600Y-20231900D02*
X45857600Y-21267900D01*
X44267700Y-7215700D02*
X45507700Y-7215700D01*
%TO.N,CP1*%
X8825000Y-8935500D02*
X10236800Y-10347300D01*
X69554200Y-10797500D02*
X63213800Y-17137900D01*
X8825000Y-4500000D02*
X8825000Y-8935500D01*
X63213800Y-17137900D02*
X63213800Y-27288000D01*
%TO.N,+3V3*%
X22000000Y-11370500D02*
X21789700Y-11580800D01*
X52993000Y-4500000D02*
X53780500Y-3712500D01*
X42969600Y-26919600D02*
X42969600Y-18805400D01*
X24725000Y-9500000D02*
X23075800Y-11149200D01*
X4300000Y-9984700D02*
X4300000Y-12300000D01*
X19862700Y-8216700D02*
X18937100Y-7291200D01*
X20240000Y-10250000D02*
X19600800Y-10250000D01*
X42969600Y-18805400D02*
X44000000Y-17775000D01*
X19600800Y-10250000D02*
X19600800Y-10809500D01*
X11598900Y-7976100D02*
X10800000Y-8775000D01*
X66000000Y-50000000D02*
X66000000Y-51401700D01*
X79814800Y-30938600D02*
X79904300Y-30849100D01*
X23975000Y-8750000D02*
X24725000Y-9500000D01*
X20225000Y-21500000D02*
X20225000Y-16500000D01*
X46448000Y-4500000D02*
X47230200Y-3717800D01*
X52210800Y-3717800D02*
X52993000Y-4500000D01*
X20197000Y-3219000D02*
X13805700Y-3219000D01*
X44000000Y-27950000D02*
X42969600Y-26919600D01*
X83640100Y-9090100D02*
X79050000Y-4500000D01*
X58751500Y-3712500D02*
X59539000Y-4500000D01*
X83640100Y-28765400D02*
X83640100Y-9090100D01*
X20616000Y-5426800D02*
X20977000Y-5065800D01*
X65280600Y-5303400D02*
X66084000Y-4500000D01*
X18126500Y-30548200D02*
X22198300Y-34620000D01*
X18937100Y-6728700D02*
X20239000Y-5426800D01*
X46448000Y-4500000D02*
X46448000Y-7200300D01*
X61969500Y-53094500D02*
X64307200Y-53094500D01*
X19954200Y-16229200D02*
X20225000Y-16500000D01*
X19600800Y-10809500D02*
X19954200Y-11162900D01*
X45821900Y-7826400D02*
X44787800Y-7826400D01*
X20228600Y-7850800D02*
X19862700Y-8216700D01*
X79505000Y-30806700D02*
X79636900Y-30938600D01*
X66000000Y-51401700D02*
X79586500Y-51401700D01*
X44787800Y-16987200D02*
X44000000Y-17775000D01*
X23250000Y-34620000D02*
X22198300Y-34620000D01*
X40825200Y-7826400D02*
X39934900Y-6936100D01*
X22000000Y-11149200D02*
X22000000Y-11370500D01*
X19954200Y-11162900D02*
X19954200Y-16229200D01*
X20239000Y-5426800D02*
X20616000Y-5426800D01*
X66084000Y-4500000D02*
X66873600Y-5289600D01*
X79768900Y-51219300D02*
X79768900Y-33020600D01*
X6200000Y-8084700D02*
X4300000Y-9984700D01*
X47230200Y-3717800D02*
X52210800Y-3717800D01*
X13805700Y-3219000D02*
X13453100Y-3571600D01*
X60342400Y-5303400D02*
X65280600Y-5303400D01*
X79636900Y-32888600D02*
X79636900Y-30938600D01*
X21000000Y-8490000D02*
X21000000Y-7850800D01*
X18937100Y-7291200D02*
X18937100Y-6728700D01*
X11598900Y-3654700D02*
X11598900Y-7976100D01*
X11598900Y-3654700D02*
X6782100Y-3654700D01*
X6200000Y-4236800D02*
X6200000Y-8084700D01*
X11682000Y-3571600D02*
X11598900Y-3654700D01*
X21741600Y-9870800D02*
X21000000Y-9129200D01*
X79586500Y-51401700D02*
X79768900Y-51219300D01*
X66873600Y-5289600D02*
X71715400Y-5289600D01*
X79050000Y-4500000D02*
X78015000Y-3465000D01*
X79505000Y-30250000D02*
X79505000Y-30806700D01*
X13453100Y-3571600D02*
X11682000Y-3571600D01*
X21000000Y-8490000D02*
X21000000Y-9129200D01*
X79982300Y-30847600D02*
X81557900Y-30847600D01*
X6782100Y-3654700D02*
X6200000Y-4236800D01*
X22000000Y-9870800D02*
X21741600Y-9870800D01*
X61175000Y-52300000D02*
X61969500Y-53094500D01*
X79980800Y-30849100D02*
X79982300Y-30847600D01*
X22000000Y-10510000D02*
X22000000Y-9870800D01*
X21000000Y-7850800D02*
X20228600Y-7850800D01*
X71715400Y-5289600D02*
X72505000Y-4500000D01*
X20977000Y-5065800D02*
X20977000Y-3999000D01*
X20977000Y-3999000D02*
X20197000Y-3219000D01*
X53780500Y-3712500D02*
X58751500Y-3712500D01*
X22000000Y-10510000D02*
X22000000Y-11149200D01*
X46448000Y-7200300D02*
X45821900Y-7826400D01*
X79636900Y-30938600D02*
X79814800Y-30938600D01*
X78015000Y-3465000D02*
X73540000Y-3465000D01*
X22760000Y-8750000D02*
X23975000Y-8750000D01*
X44787800Y-7826400D02*
X40825200Y-7826400D01*
X81557900Y-30847600D02*
X83640100Y-28765400D01*
X24850000Y-8165000D02*
X24850000Y-9375000D01*
X44787800Y-7826400D02*
X44787800Y-16987200D01*
X59539000Y-4500000D02*
X60342400Y-5303400D01*
X79768900Y-33020600D02*
X79636900Y-32888600D01*
X79904300Y-30849100D02*
X79980800Y-30849100D01*
X64307200Y-53094500D02*
X66000000Y-51401700D01*
X24850000Y-9375000D02*
X24725000Y-9500000D01*
X23075800Y-11149200D02*
X22000000Y-11149200D01*
X73540000Y-3465000D02*
X72505000Y-4500000D01*
X18126500Y-27941300D02*
X18126500Y-30548200D01*
%TO.N,TXD*%
X52897100Y-32080000D02*
X70028300Y-49211200D01*
X40750000Y-32080000D02*
X52897100Y-32080000D01*
X71080000Y-50000000D02*
X70028300Y-50000000D01*
X70028300Y-49211200D02*
X70028300Y-50000000D01*
%TO.N,RXD*%
X40750000Y-30810000D02*
X54167100Y-30810000D01*
X73620000Y-50000000D02*
X72568300Y-50000000D01*
X72568300Y-49211200D02*
X72568300Y-50000000D01*
X54167100Y-30810000D02*
X72568300Y-49211200D01*
%TO.N,EN*%
X75108300Y-49177200D02*
X75108300Y-50000000D01*
X27973200Y-29678500D02*
X24301700Y-33350000D01*
X21000000Y-45450000D02*
X21000000Y-49150000D01*
X55017400Y-29086300D02*
X75108300Y-49177200D01*
X24301700Y-33350000D02*
X24301700Y-41471600D01*
X54636000Y-29086300D02*
X55017400Y-29086300D01*
X24301700Y-41471600D02*
X21000000Y-44773300D01*
X23250000Y-33350000D02*
X24301700Y-33350000D01*
X45916500Y-22775000D02*
X45916500Y-24903500D01*
X44000000Y-22775000D02*
X45916500Y-22775000D01*
X27973200Y-28735400D02*
X27973200Y-29678500D01*
X45916500Y-22775000D02*
X48098000Y-20593500D01*
X48098000Y-20593500D02*
X48098000Y-4500000D01*
X76160000Y-50000000D02*
X75108300Y-50000000D01*
X21000000Y-45450000D02*
X21000000Y-44773300D01*
%TO.N,IO0*%
X42413600Y-27816000D02*
X41801700Y-27204100D01*
X33762900Y-35252100D02*
X33762900Y-28525500D01*
X78700000Y-50000000D02*
X77648300Y-50000000D01*
X24701900Y-44313100D02*
X33762900Y-35252100D01*
X41801700Y-27204100D02*
X41801700Y-19380000D01*
X54643000Y-25525400D02*
X54321600Y-25846800D01*
X9676700Y-49826700D02*
X21625000Y-49826700D01*
X49933500Y-30234900D02*
X54321600Y-25846800D01*
X54321600Y-25846800D02*
X77648300Y-49173500D01*
X9000000Y-49150000D02*
X9676700Y-49826700D01*
X24701900Y-46749800D02*
X24701900Y-44313100D01*
X44740000Y-30234900D02*
X49933500Y-30234900D01*
X21625000Y-49826700D02*
X24701900Y-46749800D01*
X54643000Y-4500000D02*
X54643000Y-25525400D01*
X42413600Y-27816000D02*
X42413600Y-27908500D01*
X42413600Y-27908500D02*
X44740000Y-30234900D01*
X40750000Y-19380000D02*
X41801700Y-19380000D01*
X9000000Y-45450000D02*
X9000000Y-49150000D01*
X77648300Y-49173500D02*
X77648300Y-50000000D01*
%TO.N,CHX6*%
X23250000Y-25730000D02*
X26523000Y-25730000D01*
X34182000Y-4071400D02*
X34540900Y-3712500D01*
X26523000Y-25730000D02*
X30966400Y-21286600D01*
X33762900Y-15583400D02*
X33762900Y-5331000D01*
X39114500Y-3712500D02*
X39902000Y-4500000D01*
X34182000Y-4911900D02*
X34182000Y-4071400D01*
X33762900Y-5331000D02*
X34182000Y-4911900D01*
X34540900Y-3712500D02*
X39114500Y-3712500D01*
%TO.N,SCL*%
X6830000Y-11054300D02*
X6428100Y-11054300D01*
X21352600Y-24460000D02*
X23250000Y-24460000D01*
X18500800Y-21608200D02*
X21352600Y-24460000D01*
X21500000Y-11019700D02*
X21188000Y-11331700D01*
X18500800Y-18830400D02*
X18500800Y-21608200D01*
X63615200Y-3722500D02*
X63512100Y-3825600D01*
X66956500Y-3722500D02*
X63615200Y-3722500D01*
X67734000Y-4500000D02*
X66956500Y-3722500D01*
X6428100Y-11054300D02*
X6287500Y-10913700D01*
X21500000Y-10510000D02*
X21500000Y-11019700D01*
X6830000Y-12300000D02*
X6830000Y-11054300D01*
X22034500Y-12676400D02*
X22279400Y-12676400D01*
X21188000Y-11331700D02*
X21188000Y-11829900D01*
X21188000Y-11829900D02*
X22034500Y-12676400D01*
%TO.N,CHX1*%
X18375700Y-27339600D02*
X18277300Y-27339600D01*
X22198300Y-32080000D02*
X18728200Y-28609900D01*
X16152500Y-16021300D02*
X11087600Y-10956400D01*
X16152500Y-25214800D02*
X16152500Y-16021300D01*
X11087600Y-10956400D02*
X9978300Y-10956400D01*
X18277300Y-27339600D02*
X16152500Y-25214800D01*
X18728200Y-27692100D02*
X18375700Y-27339600D01*
X18728200Y-28609900D02*
X18728200Y-27692100D01*
X8810500Y-9788600D02*
X8810500Y-9529300D01*
X7465000Y-8183800D02*
X7465000Y-4790000D01*
X7465000Y-4790000D02*
X7175000Y-4500000D01*
X9978300Y-10956400D02*
X8810500Y-9788600D01*
X23250000Y-32080000D02*
X22198300Y-32080000D01*
X8810500Y-9529300D02*
X7465000Y-8183800D01*
%TO.N,CHX2*%
X22198300Y-30594200D02*
X16738600Y-25134500D01*
X13720000Y-9685100D02*
X13720000Y-4500000D01*
X23250000Y-30810000D02*
X22198300Y-30810000D01*
X16738600Y-25134500D02*
X16738600Y-12703700D01*
X22198300Y-30810000D02*
X22198300Y-30594200D01*
X16738600Y-12703700D02*
X13720000Y-9685100D01*
%TO.N,CHX3*%
X15009800Y-3670200D02*
X14642700Y-4037300D01*
X19436200Y-3670200D02*
X15009800Y-3670200D01*
X20266000Y-4500000D02*
X19436200Y-3670200D01*
X14642700Y-4037300D02*
X14642700Y-9839600D01*
X17200900Y-24542600D02*
X22198300Y-29540000D01*
X23250000Y-29540000D02*
X22198300Y-29540000D01*
X14642700Y-9839600D02*
X17200900Y-12397800D01*
X17200900Y-12397800D02*
X17200900Y-24542600D01*
%TO.N,CHX4*%
X25499900Y-11923300D02*
X22335200Y-15088000D01*
X25499900Y-5811100D02*
X25499900Y-11923300D01*
X22198300Y-28270000D02*
X17804100Y-23875800D01*
X23250000Y-28270000D02*
X22198300Y-28270000D01*
X17804100Y-23875800D02*
X17804100Y-15579000D01*
X26811000Y-4500000D02*
X25499900Y-5811100D01*
%TO.N,CHX5*%
X23879600Y-17068700D02*
X21596500Y-19351800D01*
X21596500Y-19351800D02*
X21596500Y-20120600D01*
X33357000Y-7939000D02*
X24227300Y-17068700D01*
X24227300Y-17068700D02*
X23879600Y-17068700D01*
X33357000Y-4500000D02*
X33357000Y-7939000D01*
X22153300Y-27000000D02*
X19436400Y-24283100D01*
X23250000Y-27000000D02*
X22153300Y-27000000D01*
%TO.N,IMU_INT*%
X23250000Y-23190000D02*
X20670000Y-23190000D01*
X20240000Y-8750000D02*
X19600800Y-8750000D01*
X19197400Y-21717400D02*
X19197400Y-9153400D01*
X19197400Y-9153400D02*
X19600800Y-8750000D01*
X20670000Y-23190000D02*
X19197400Y-21717400D01*
%TO.N,SDA*%
X24988600Y-3719300D02*
X21677700Y-7030200D01*
X21677700Y-7030200D02*
X19538900Y-7030200D01*
X20786300Y-10723700D02*
X20786300Y-15493700D01*
X20786300Y-15493700D02*
X21000000Y-15707400D01*
X21000000Y-10510000D02*
X20786300Y-10723700D01*
X27567700Y-10775000D02*
X22635300Y-15707400D01*
X61189000Y-4500000D02*
X59989900Y-3300900D01*
X22815900Y-22354100D02*
X21358300Y-22354100D01*
X21358300Y-22354100D02*
X20994800Y-21990600D01*
X27567700Y-3719300D02*
X27567700Y-10775000D01*
X20994800Y-21990600D02*
X20994800Y-15712600D01*
X23250000Y-21920000D02*
X22815900Y-22354100D01*
X8208800Y-9975500D02*
X8100000Y-10084300D01*
X59989900Y-3300900D02*
X27986100Y-3300900D01*
X20994800Y-15712600D02*
X21000000Y-15707400D01*
X8100000Y-10084300D02*
X8100000Y-12300000D01*
X27986100Y-3300900D02*
X27567700Y-3719300D01*
X27567700Y-3719300D02*
X24988600Y-3719300D01*
X22635300Y-15707400D02*
X21000000Y-15707400D01*
%TO.N,NFC_GPO*%
X6411500Y-9870400D02*
X6968500Y-9870400D01*
X35180000Y-18110000D02*
X35180000Y-38742400D01*
X35180000Y-38742400D02*
X47360400Y-50922800D01*
X35180000Y-7583200D02*
X35180000Y-18110000D01*
X61447800Y-50922800D02*
X62825000Y-52300000D01*
X5570000Y-12300000D02*
X5570000Y-10711900D01*
X47360400Y-50922800D02*
X61447800Y-50922800D01*
X34430700Y-6833900D02*
X35180000Y-7583200D01*
X5570000Y-10711900D02*
X6411500Y-9870400D01*
%TO.N,NFC_ANT_A*%
X5570000Y-6900000D02*
X5570000Y-8145700D01*
X5570000Y-8145700D02*
X3305300Y-10410400D01*
X10125000Y-11989900D02*
X10125000Y-12900000D01*
X3200000Y-13799100D02*
X6499800Y-13799100D01*
X3200000Y-14200000D02*
X3200000Y-13799100D01*
X3305300Y-10410400D02*
X3305300Y-13293000D01*
X10000100Y-11865000D02*
X10125000Y-11989900D01*
X3305300Y-13293000D02*
X3200000Y-13398300D01*
X6499800Y-13799100D02*
X6568100Y-13867400D01*
X3200000Y-13799100D02*
X3200000Y-13398300D01*
%TO.N,NFC_ANT_B*%
X7570200Y-8885900D02*
X6830000Y-8145700D01*
X10375000Y-14200000D02*
X8000000Y-14200000D01*
X8000000Y-14200000D02*
X7418700Y-13618700D01*
X7418700Y-13618700D02*
X7418700Y-10271100D01*
X7418700Y-10271100D02*
X7570200Y-10119600D01*
X6830000Y-6900000D02*
X6830000Y-8145700D01*
X11675000Y-12900000D02*
X10375000Y-14200000D01*
X7570200Y-10119600D02*
X7570200Y-8885900D01*
%TO.N,VBAT*%
X76390000Y-28000000D02*
X78791700Y-28000000D01*
X79505000Y-28750000D02*
X78791700Y-28036700D01*
X78791700Y-28036700D02*
X78791700Y-28000000D01*
%TD*%
%TA.AperFunction,Conductor*%
%TO.N,GND*%
G36*
X83141859Y-603868D02*
G01*
X83299646Y-649326D01*
X83310117Y-652990D01*
X83436514Y-705346D01*
X83577457Y-763727D01*
X83587459Y-768544D01*
X83840711Y-908511D01*
X83850111Y-914417D01*
X84086106Y-1081864D01*
X84094783Y-1088784D01*
X84310555Y-1281609D01*
X84318390Y-1289444D01*
X84511213Y-1505213D01*
X84518135Y-1513893D01*
X84685582Y-1749888D01*
X84691488Y-1759288D01*
X84831455Y-2012540D01*
X84836272Y-2022542D01*
X84947007Y-2289878D01*
X84950674Y-2300357D01*
X84986068Y-2423212D01*
X84996131Y-2458139D01*
X85000000Y-2485546D01*
X85000000Y-51494452D01*
X84996131Y-51521859D01*
X84950674Y-51679642D01*
X84947007Y-51690121D01*
X84836272Y-51957457D01*
X84831455Y-51967459D01*
X84691488Y-52220711D01*
X84685582Y-52230111D01*
X84518135Y-52466106D01*
X84511213Y-52474786D01*
X84318398Y-52690547D01*
X84310547Y-52698398D01*
X84094786Y-52891213D01*
X84086106Y-52898135D01*
X83850111Y-53065582D01*
X83840711Y-53071488D01*
X83587459Y-53211455D01*
X83577457Y-53216272D01*
X83310121Y-53327007D01*
X83299642Y-53330674D01*
X83141860Y-53376131D01*
X83114453Y-53380000D01*
X64827101Y-53380000D01*
X64768910Y-53361093D01*
X64732946Y-53311593D01*
X64732946Y-53250407D01*
X64757097Y-53210996D01*
X66136896Y-51831196D01*
X66191413Y-51803419D01*
X66206900Y-51802200D01*
X79639225Y-51802200D01*
X79639227Y-51802200D01*
X79741088Y-51774907D01*
X79741090Y-51774905D01*
X79741092Y-51774905D01*
X79832413Y-51722180D01*
X79859226Y-51695367D01*
X80014811Y-51539780D01*
X80014813Y-51539780D01*
X80089380Y-51465213D01*
X80142107Y-51373887D01*
X80142108Y-51373883D01*
X80142809Y-51372669D01*
X80188279Y-51331728D01*
X80249129Y-51325332D01*
X80286737Y-51342077D01*
X80380242Y-51410013D01*
X80423212Y-51441232D01*
X80577555Y-51519873D01*
X80577557Y-51519873D01*
X80577558Y-51519874D01*
X80577561Y-51519876D01*
X80742293Y-51573401D01*
X80742297Y-51573402D01*
X80913386Y-51600500D01*
X80913389Y-51600500D01*
X81086614Y-51600500D01*
X81257702Y-51573402D01*
X81257706Y-51573401D01*
X81422438Y-51519876D01*
X81422440Y-51519874D01*
X81422445Y-51519873D01*
X81576788Y-51441232D01*
X81716928Y-51339414D01*
X81839414Y-51216928D01*
X81941232Y-51076788D01*
X82019873Y-50922445D01*
X82019874Y-50922440D01*
X82019876Y-50922438D01*
X82073401Y-50757706D01*
X82073402Y-50757702D01*
X82100500Y-50586614D01*
X82100500Y-50413385D01*
X82073402Y-50242297D01*
X82073401Y-50242293D01*
X82019876Y-50077561D01*
X82019874Y-50077558D01*
X82019873Y-50077557D01*
X82019873Y-50077555D01*
X81941232Y-49923212D01*
X81839414Y-49783072D01*
X81716928Y-49660586D01*
X81576788Y-49558768D01*
X81576787Y-49558767D01*
X81576785Y-49558766D01*
X81422441Y-49480125D01*
X81422438Y-49480123D01*
X81257706Y-49426598D01*
X81257702Y-49426597D01*
X81086614Y-49399500D01*
X81086611Y-49399500D01*
X80913389Y-49399500D01*
X80913386Y-49399500D01*
X80742297Y-49426597D01*
X80742293Y-49426598D01*
X80577561Y-49480123D01*
X80577558Y-49480125D01*
X80423214Y-49558766D01*
X80394721Y-49579468D01*
X80326589Y-49628968D01*
X80268400Y-49647875D01*
X80210209Y-49628968D01*
X80174245Y-49579468D01*
X80169400Y-49548875D01*
X80169400Y-32967874D01*
X80169400Y-32967873D01*
X80147874Y-32887537D01*
X80142107Y-32866012D01*
X80142107Y-32866011D01*
X80089383Y-32774691D01*
X80089378Y-32774685D01*
X80066395Y-32751701D01*
X80062769Y-32744585D01*
X80056307Y-32739890D01*
X80049141Y-32717837D01*
X80038619Y-32697184D01*
X80037400Y-32681699D01*
X80037400Y-32599499D01*
X80056307Y-32541308D01*
X80105807Y-32505344D01*
X80136393Y-32500499D01*
X80575484Y-32500499D01*
X80632114Y-32494412D01*
X80760226Y-32446628D01*
X80869687Y-32364687D01*
X80951628Y-32255226D01*
X80999412Y-32127114D01*
X81005500Y-32070485D01*
X81005499Y-31347099D01*
X81024406Y-31288909D01*
X81073906Y-31252945D01*
X81104499Y-31248100D01*
X81610625Y-31248100D01*
X81610627Y-31248100D01*
X81712488Y-31220807D01*
X81756001Y-31195684D01*
X81815847Y-31182963D01*
X81871743Y-31207848D01*
X81902336Y-31260836D01*
X81904500Y-31281421D01*
X81904500Y-32070478D01*
X81904501Y-32070484D01*
X81910587Y-32127111D01*
X81910587Y-32127112D01*
X81910588Y-32127114D01*
X81958372Y-32255226D01*
X82040313Y-32364687D01*
X82149774Y-32446628D01*
X82277886Y-32494412D01*
X82334515Y-32500500D01*
X82775484Y-32500499D01*
X82832114Y-32494412D01*
X82960226Y-32446628D01*
X83069687Y-32364687D01*
X83151628Y-32255226D01*
X83199412Y-32127114D01*
X83205500Y-32070485D01*
X83205499Y-31279516D01*
X83199412Y-31222886D01*
X83151628Y-31094774D01*
X83069687Y-30985313D01*
X82990896Y-30926331D01*
X82960228Y-30903373D01*
X82960226Y-30903372D01*
X82832114Y-30855588D01*
X82832113Y-30855587D01*
X82793895Y-30851479D01*
X82775485Y-30849500D01*
X82775481Y-30849500D01*
X82361399Y-30849500D01*
X82303208Y-30830593D01*
X82267244Y-30781093D01*
X82267244Y-30719907D01*
X82291391Y-30680501D01*
X83960580Y-29011313D01*
X83969471Y-28995913D01*
X84013307Y-28919987D01*
X84040600Y-28818127D01*
X84040600Y-9150814D01*
X84040601Y-9150801D01*
X84040601Y-9037372D01*
X84040600Y-9037370D01*
X84035095Y-9016825D01*
X84013307Y-8935513D01*
X83991355Y-8897491D01*
X83991355Y-8897490D01*
X83964630Y-8851202D01*
X83960580Y-8844187D01*
X83886013Y-8769620D01*
X83886010Y-8769618D01*
X81902596Y-6786204D01*
X79879496Y-4763103D01*
X79851719Y-4708586D01*
X79850500Y-4693099D01*
X79850500Y-3981899D01*
X79850499Y-3981893D01*
X79849323Y-3972100D01*
X79839877Y-3893436D01*
X79784361Y-3752658D01*
X79692922Y-3632078D01*
X79572342Y-3540639D01*
X79572341Y-3540638D01*
X79572339Y-3540637D01*
X79431565Y-3485123D01*
X79343106Y-3474500D01*
X79343102Y-3474500D01*
X78756898Y-3474500D01*
X78756893Y-3474500D01*
X78687664Y-3482813D01*
X78668436Y-3485123D01*
X78668435Y-3485123D01*
X78662134Y-3485880D01*
X78661949Y-3484345D01*
X78608460Y-3480769D01*
X78575263Y-3458869D01*
X78260913Y-3144520D01*
X78260908Y-3144516D01*
X78169591Y-3091794D01*
X78169593Y-3091794D01*
X78130070Y-3081204D01*
X78067727Y-3064500D01*
X73592727Y-3064500D01*
X73487273Y-3064500D01*
X73424929Y-3081204D01*
X73385407Y-3091794D01*
X73294091Y-3144516D01*
X73294086Y-3144520D01*
X72979736Y-3458869D01*
X72925220Y-3486646D01*
X72892949Y-3485187D01*
X72892866Y-3485880D01*
X72886564Y-3485123D01*
X72862966Y-3482289D01*
X72798106Y-3474500D01*
X72798102Y-3474500D01*
X72211898Y-3474500D01*
X72211893Y-3474500D01*
X72123434Y-3485123D01*
X71982660Y-3540637D01*
X71982656Y-3540640D01*
X71862081Y-3632075D01*
X71862075Y-3632081D01*
X71770640Y-3752656D01*
X71770637Y-3752660D01*
X71715123Y-3893434D01*
X71704500Y-3981893D01*
X71704500Y-4693099D01*
X71702031Y-4700696D01*
X71703281Y-4708586D01*
X71692756Y-4729241D01*
X71685593Y-4751290D01*
X71675504Y-4763103D01*
X71578503Y-4860104D01*
X71523986Y-4887881D01*
X71508499Y-4889100D01*
X68533500Y-4889100D01*
X68475309Y-4870193D01*
X68439345Y-4820693D01*
X68434500Y-4790100D01*
X68434499Y-4177133D01*
X68434499Y-4177128D01*
X68428091Y-4117517D01*
X68423907Y-4106300D01*
X68377797Y-3982670D01*
X68291549Y-3867458D01*
X68291548Y-3867457D01*
X68291546Y-3867454D01*
X68291541Y-3867450D01*
X68176329Y-3781202D01*
X68041488Y-3730910D01*
X68041483Y-3730909D01*
X68041481Y-3730908D01*
X68041477Y-3730908D01*
X68010249Y-3727550D01*
X67981873Y-3724500D01*
X67981870Y-3724500D01*
X67565901Y-3724500D01*
X67507710Y-3705593D01*
X67495898Y-3695504D01*
X67202413Y-3402020D01*
X67202408Y-3402016D01*
X67111091Y-3349294D01*
X67111093Y-3349294D01*
X67071570Y-3338704D01*
X67009227Y-3322000D01*
X67009225Y-3322000D01*
X63867367Y-3322000D01*
X63817868Y-3308737D01*
X63743885Y-3266023D01*
X63688265Y-3251120D01*
X63591157Y-3225100D01*
X63433043Y-3225100D01*
X63280316Y-3266023D01*
X63143384Y-3345080D01*
X63031580Y-3456884D01*
X62952523Y-3593816D01*
X62911600Y-3746543D01*
X62911600Y-3904657D01*
X62952523Y-4057384D01*
X63031580Y-4194316D01*
X63143384Y-4306120D01*
X63280316Y-4385177D01*
X63433043Y-4426100D01*
X63433045Y-4426100D01*
X63591155Y-4426100D01*
X63591157Y-4426100D01*
X63743884Y-4385177D01*
X63880816Y-4306120D01*
X63992620Y-4194316D01*
X64005216Y-4172499D01*
X64050686Y-4131559D01*
X64090952Y-4123000D01*
X65284500Y-4123000D01*
X65342691Y-4141907D01*
X65378655Y-4191407D01*
X65383500Y-4222000D01*
X65383500Y-4593099D01*
X65364593Y-4651290D01*
X65354504Y-4663102D01*
X65143704Y-4873903D01*
X65089187Y-4901681D01*
X65073700Y-4902900D01*
X61988500Y-4902900D01*
X61930309Y-4883993D01*
X61894345Y-4834493D01*
X61889500Y-4803900D01*
X61889499Y-4177133D01*
X61889499Y-4177128D01*
X61883091Y-4117517D01*
X61878907Y-4106300D01*
X61832797Y-3982670D01*
X61746549Y-3867458D01*
X61746548Y-3867457D01*
X61746546Y-3867454D01*
X61746541Y-3867450D01*
X61631329Y-3781202D01*
X61496488Y-3730910D01*
X61496483Y-3730909D01*
X61496481Y-3730908D01*
X61496477Y-3730908D01*
X61465249Y-3727550D01*
X61436873Y-3724500D01*
X61436870Y-3724500D01*
X61020901Y-3724500D01*
X60962710Y-3705593D01*
X60950897Y-3695504D01*
X60600473Y-3345080D01*
X60235813Y-2980420D01*
X60235810Y-2980418D01*
X60235809Y-2980417D01*
X60235808Y-2980416D01*
X60144491Y-2927694D01*
X60144493Y-2927694D01*
X60104970Y-2917104D01*
X60042627Y-2900400D01*
X28038827Y-2900400D01*
X27933373Y-2900400D01*
X27871029Y-2917104D01*
X27831507Y-2927694D01*
X27740191Y-2980416D01*
X27740186Y-2980420D01*
X27430802Y-3289804D01*
X27376286Y-3317581D01*
X27360799Y-3318800D01*
X25047406Y-3318800D01*
X25047390Y-3318799D01*
X25041327Y-3318799D01*
X24935873Y-3318799D01*
X24935870Y-3318799D01*
X24834013Y-3346092D01*
X24834009Y-3346094D01*
X24742687Y-3398819D01*
X24668119Y-3473386D01*
X24668120Y-3473387D01*
X23648904Y-4492603D01*
X23594387Y-4520380D01*
X23533955Y-4510809D01*
X23490690Y-4467544D01*
X23479900Y-4422599D01*
X23479900Y-4357144D01*
X23479567Y-4355900D01*
X23438977Y-4204416D01*
X23359920Y-4067484D01*
X23248116Y-3955680D01*
X23111184Y-3876623D01*
X22958457Y-3835700D01*
X22800343Y-3835700D01*
X22647616Y-3876623D01*
X22647614Y-3876623D01*
X22647614Y-3876624D01*
X22647611Y-3876625D01*
X22606962Y-3900093D01*
X22547114Y-3912813D01*
X22491219Y-3887926D01*
X22478212Y-3873687D01*
X22475072Y-3869493D01*
X22473546Y-3867454D01*
X22473541Y-3867450D01*
X22358329Y-3781202D01*
X22223488Y-3730910D01*
X22223483Y-3730909D01*
X22223481Y-3730908D01*
X22223477Y-3730908D01*
X22192249Y-3727550D01*
X22163873Y-3724500D01*
X22163870Y-3724500D01*
X21668133Y-3724500D01*
X21668129Y-3724500D01*
X21668128Y-3724501D01*
X21660949Y-3725272D01*
X21608519Y-3730908D01*
X21608514Y-3730909D01*
X21473670Y-3781202D01*
X21451277Y-3797966D01*
X21393362Y-3817702D01*
X21334907Y-3799627D01*
X21306213Y-3768213D01*
X21298847Y-3755455D01*
X21297480Y-3753087D01*
X21222913Y-3678520D01*
X21222910Y-3678518D01*
X20442913Y-2898520D01*
X20442910Y-2898518D01*
X20442908Y-2898516D01*
X20351591Y-2845794D01*
X20351593Y-2845794D01*
X20312070Y-2835204D01*
X20249727Y-2818500D01*
X20249725Y-2818500D01*
X13864506Y-2818500D01*
X13864490Y-2818499D01*
X13858427Y-2818499D01*
X13752973Y-2818499D01*
X13752970Y-2818499D01*
X13651113Y-2845792D01*
X13651109Y-2845794D01*
X13559789Y-2898518D01*
X13490863Y-2967443D01*
X13490861Y-2967445D01*
X13490860Y-2967444D01*
X13316204Y-3142103D01*
X13261688Y-3169881D01*
X13246200Y-3171100D01*
X11734727Y-3171100D01*
X11629273Y-3171100D01*
X11527412Y-3198393D01*
X11527411Y-3198393D01*
X11527409Y-3198394D01*
X11453726Y-3240936D01*
X11404225Y-3254200D01*
X6840906Y-3254200D01*
X6840890Y-3254199D01*
X6834827Y-3254199D01*
X6729373Y-3254199D01*
X6729370Y-3254199D01*
X6627513Y-3281492D01*
X6627509Y-3281494D01*
X6536187Y-3334219D01*
X6461619Y-3408786D01*
X6461620Y-3408787D01*
X5879516Y-3990891D01*
X5826794Y-4082209D01*
X5826790Y-4082217D01*
X5816722Y-4119798D01*
X5816722Y-4119800D01*
X5807505Y-4154200D01*
X5799500Y-4184074D01*
X5799500Y-5567250D01*
X5780593Y-5625441D01*
X5731093Y-5661405D01*
X5674878Y-5662877D01*
X5674616Y-5662807D01*
X5662924Y-5659674D01*
X5647346Y-5655500D01*
X5492654Y-5655500D01*
X5422551Y-5674284D01*
X5343228Y-5695538D01*
X5209270Y-5772879D01*
X5099879Y-5882270D01*
X5020736Y-6019350D01*
X4975267Y-6060291D01*
X4914416Y-6066687D01*
X4861428Y-6036094D01*
X4849264Y-6019350D01*
X4770120Y-5882270D01*
X4770118Y-5882268D01*
X4770117Y-5882266D01*
X4660734Y-5772883D01*
X4660731Y-5772881D01*
X4660729Y-5772879D01*
X4526770Y-5695538D01*
X4526772Y-5695538D01*
X4447449Y-5674284D01*
X4377346Y-5655500D01*
X4222654Y-5655500D01*
X4152551Y-5674284D01*
X4073228Y-5695538D01*
X3939270Y-5772879D01*
X3829879Y-5882270D01*
X3752538Y-6016228D01*
X3747215Y-6036094D01*
X3712500Y-6165654D01*
X3712500Y-7634346D01*
X3743246Y-7749093D01*
X3752538Y-7783771D01*
X3829879Y-7917729D01*
X3829881Y-7917731D01*
X3829883Y-7917734D01*
X3939266Y-8027117D01*
X3939268Y-8027118D01*
X3939270Y-8027120D01*
X4073229Y-8104461D01*
X4073227Y-8104461D01*
X4073231Y-8104462D01*
X4073233Y-8104463D01*
X4222654Y-8144500D01*
X4222656Y-8144500D01*
X4377344Y-8144500D01*
X4377346Y-8144500D01*
X4526767Y-8104463D01*
X4526769Y-8104461D01*
X4526771Y-8104461D01*
X4660729Y-8027120D01*
X4660729Y-8027119D01*
X4660734Y-8027117D01*
X4770117Y-7917734D01*
X4807109Y-7853662D01*
X4849264Y-7780649D01*
X4856745Y-7773912D01*
X4860745Y-7764673D01*
X4878985Y-7753887D01*
X4894733Y-7739708D01*
X4904745Y-7738655D01*
X4913412Y-7733531D01*
X4934507Y-7735527D01*
X4955583Y-7733312D01*
X4964303Y-7738346D01*
X4974325Y-7739295D01*
X4989747Y-7753037D01*
X5008571Y-7763905D01*
X5020218Y-7779761D01*
X5022495Y-7783613D01*
X5022537Y-7783767D01*
X5099883Y-7917734D01*
X5104571Y-7922422D01*
X5110938Y-7933190D01*
X5115014Y-7951434D01*
X5123501Y-7968091D01*
X5121524Y-7980570D01*
X5124280Y-7992903D01*
X5116854Y-8010058D01*
X5113930Y-8028523D01*
X5101391Y-8045780D01*
X5099975Y-8049054D01*
X5098289Y-8050050D01*
X5095724Y-8053582D01*
X2984817Y-10164490D01*
X2984816Y-10164491D01*
X2932094Y-10255807D01*
X2914653Y-10320900D01*
X2914652Y-10320899D01*
X2904800Y-10357670D01*
X2904800Y-13086099D01*
X2885893Y-13144290D01*
X2883411Y-13147196D01*
X2883469Y-13147241D01*
X2879516Y-13152391D01*
X2826795Y-13243706D01*
X2826793Y-13243710D01*
X2826793Y-13243712D01*
X2817901Y-13276900D01*
X2812188Y-13298221D01*
X2812187Y-13298221D01*
X2804710Y-13326124D01*
X2771386Y-13377438D01*
X2714264Y-13399364D01*
X2709085Y-13399500D01*
X2555138Y-13399500D01*
X2555135Y-13399501D01*
X2530009Y-13402414D01*
X2427235Y-13447794D01*
X2347794Y-13527235D01*
X2302414Y-13630011D01*
X2299500Y-13655130D01*
X2299500Y-13655132D01*
X2299500Y-13655135D01*
X2299500Y-14199600D01*
X2299501Y-14651000D01*
X2280594Y-14709191D01*
X2231094Y-14745155D01*
X2200501Y-14750000D01*
X2000000Y-14750000D01*
X2000000Y-14750001D01*
X2000000Y-15301000D01*
X1981093Y-15359191D01*
X1931593Y-15395155D01*
X1901000Y-15400000D01*
X1900000Y-15400000D01*
X1900000Y-41100000D01*
X1900001Y-41100000D01*
X15049999Y-41100000D01*
X15050000Y-41100000D01*
X15050000Y-15724200D01*
X15068907Y-15666009D01*
X15118407Y-15630045D01*
X15179593Y-15630045D01*
X15219003Y-15654195D01*
X15723004Y-16158197D01*
X15750781Y-16212713D01*
X15752000Y-16228200D01*
X15752000Y-25162073D01*
X15752000Y-25267527D01*
X15765658Y-25318499D01*
X15779294Y-25369392D01*
X15832016Y-25460708D01*
X15832018Y-25460710D01*
X15832020Y-25460713D01*
X17724933Y-27353626D01*
X17752709Y-27408141D01*
X17743138Y-27468573D01*
X17724932Y-27493631D01*
X17645982Y-27572581D01*
X17645980Y-27572583D01*
X17645980Y-27572584D01*
X17566923Y-27709516D01*
X17526000Y-27862243D01*
X17526000Y-28020357D01*
X17566923Y-28173084D01*
X17645980Y-28310016D01*
X17697005Y-28361041D01*
X17724781Y-28415556D01*
X17726000Y-28431043D01*
X17726000Y-30495473D01*
X17726000Y-30600927D01*
X17729204Y-30612883D01*
X17753294Y-30702792D01*
X17806016Y-30794108D01*
X17806018Y-30794110D01*
X17806020Y-30794113D01*
X21877818Y-34865910D01*
X21877820Y-34865913D01*
X21952387Y-34940480D01*
X21998050Y-34966843D01*
X22043712Y-34993207D01*
X22131144Y-35016633D01*
X22135984Y-35018492D01*
X22155923Y-35034640D01*
X22177438Y-35048612D01*
X22179361Y-35053622D01*
X22183532Y-35057000D01*
X22190171Y-35081782D01*
X22199365Y-35105733D01*
X22199501Y-35110915D01*
X22199501Y-35114863D01*
X22202414Y-35139990D01*
X22211878Y-35161423D01*
X22247794Y-35242765D01*
X22327235Y-35322206D01*
X22430009Y-35367585D01*
X22455135Y-35370500D01*
X23802200Y-35370499D01*
X23860391Y-35389406D01*
X23896355Y-35438906D01*
X23901200Y-35469499D01*
X23901200Y-41264699D01*
X23882293Y-41322890D01*
X23872204Y-41334703D01*
X20679516Y-44527391D01*
X20626794Y-44618707D01*
X20608681Y-44686308D01*
X20608680Y-44686310D01*
X20604710Y-44701125D01*
X20571385Y-44752439D01*
X20514263Y-44774364D01*
X20509086Y-44774500D01*
X20455139Y-44774500D01*
X20455135Y-44774501D01*
X20430009Y-44777414D01*
X20327235Y-44822794D01*
X20247794Y-44902235D01*
X20202414Y-45005011D01*
X20199500Y-45030130D01*
X20199500Y-45869860D01*
X20199501Y-45869863D01*
X20202414Y-45894990D01*
X20227756Y-45952385D01*
X20247794Y-45997765D01*
X20327235Y-46077206D01*
X20430009Y-46122585D01*
X20455135Y-46125500D01*
X20500500Y-46125499D01*
X20558689Y-46144405D01*
X20594654Y-46193904D01*
X20599500Y-46224499D01*
X20599500Y-48375500D01*
X20580593Y-48433691D01*
X20531093Y-48469655D01*
X20500502Y-48474500D01*
X20455139Y-48474500D01*
X20455135Y-48474501D01*
X20430009Y-48477414D01*
X20327235Y-48522794D01*
X20247794Y-48602235D01*
X20202414Y-48705011D01*
X20199500Y-48730130D01*
X20199500Y-48730132D01*
X20199501Y-49327200D01*
X20180594Y-49385391D01*
X20131094Y-49421355D01*
X20100501Y-49426200D01*
X9899499Y-49426200D01*
X9841308Y-49407293D01*
X9805344Y-49357793D01*
X9800499Y-49327200D01*
X9800499Y-48730139D01*
X9800499Y-48730136D01*
X9797585Y-48705009D01*
X9752206Y-48602235D01*
X9672765Y-48522794D01*
X9569991Y-48477415D01*
X9569990Y-48477414D01*
X9569988Y-48477414D01*
X9544869Y-48474500D01*
X9544865Y-48474500D01*
X9499500Y-48474500D01*
X9441309Y-48455593D01*
X9405345Y-48406093D01*
X9400500Y-48375500D01*
X9400500Y-46224499D01*
X9419407Y-46166308D01*
X9468907Y-46130344D01*
X9499500Y-46125499D01*
X9544861Y-46125499D01*
X9544864Y-46125499D01*
X9569991Y-46122585D01*
X9672765Y-46077206D01*
X9752206Y-45997765D01*
X9797585Y-45894991D01*
X9800500Y-45869865D01*
X9800499Y-45030136D01*
X9797585Y-45005009D01*
X9752206Y-44902235D01*
X9672765Y-44822794D01*
X9569991Y-44777415D01*
X9569990Y-44777414D01*
X9569988Y-44777414D01*
X9544868Y-44774500D01*
X8455139Y-44774500D01*
X8455136Y-44774501D01*
X8430009Y-44777414D01*
X8327235Y-44822794D01*
X8247794Y-44902235D01*
X8202414Y-45005011D01*
X8199500Y-45030130D01*
X8199500Y-45869860D01*
X8199501Y-45869863D01*
X8202414Y-45894990D01*
X8227756Y-45952385D01*
X8247794Y-45997765D01*
X8327235Y-46077206D01*
X8430009Y-46122585D01*
X8455135Y-46125500D01*
X8500500Y-46125499D01*
X8558689Y-46144405D01*
X8594654Y-46193904D01*
X8599500Y-46224499D01*
X8599500Y-48375500D01*
X8580593Y-48433691D01*
X8531093Y-48469655D01*
X8500502Y-48474500D01*
X8455139Y-48474500D01*
X8455135Y-48474501D01*
X8430009Y-48477414D01*
X8327235Y-48522794D01*
X8247794Y-48602235D01*
X8202414Y-48705011D01*
X8199500Y-48730130D01*
X8199500Y-49569860D01*
X8199501Y-49569863D01*
X8202414Y-49594990D01*
X8217417Y-49628968D01*
X8247794Y-49697765D01*
X8327235Y-49777206D01*
X8430009Y-49822585D01*
X8455135Y-49825500D01*
X9068098Y-49825499D01*
X9126289Y-49844406D01*
X9138102Y-49854495D01*
X9356220Y-50072613D01*
X9356219Y-50072613D01*
X9430787Y-50147180D01*
X9522113Y-50199907D01*
X9623973Y-50227200D01*
X9623975Y-50227200D01*
X21677725Y-50227200D01*
X21677727Y-50227200D01*
X21779588Y-50199907D01*
X21779590Y-50199905D01*
X21779592Y-50199905D01*
X21870908Y-50147183D01*
X21870908Y-50147182D01*
X21870913Y-50147180D01*
X24947810Y-47070281D01*
X24947813Y-47070280D01*
X25022380Y-46995713D01*
X25075107Y-46904387D01*
X25102401Y-46802527D01*
X25102401Y-46697073D01*
X25102401Y-46691011D01*
X25102400Y-46690993D01*
X25102400Y-44520000D01*
X25121307Y-44461809D01*
X25131390Y-44450002D01*
X34083380Y-35498013D01*
X34136107Y-35406688D01*
X34163400Y-35304827D01*
X34163400Y-35199373D01*
X34163400Y-29015243D01*
X34182307Y-28957052D01*
X34192390Y-28945245D01*
X34243420Y-28894216D01*
X34322477Y-28757284D01*
X34363400Y-28604557D01*
X34363400Y-28446443D01*
X34322477Y-28293716D01*
X34243420Y-28156784D01*
X34131616Y-28044980D01*
X33994684Y-27965923D01*
X33841957Y-27925000D01*
X33683843Y-27925000D01*
X33531116Y-27965923D01*
X33394184Y-28044980D01*
X33282380Y-28156784D01*
X33203323Y-28293716D01*
X33162400Y-28446443D01*
X33162400Y-28604557D01*
X33203323Y-28757284D01*
X33282380Y-28894216D01*
X33333405Y-28945241D01*
X33361181Y-28999756D01*
X33362400Y-29015243D01*
X33362400Y-35045199D01*
X33343493Y-35103390D01*
X33333404Y-35115203D01*
X24381416Y-44067191D01*
X24328693Y-44158511D01*
X24328692Y-44158511D01*
X24328693Y-44158512D01*
X24301400Y-44260373D01*
X24301400Y-46542898D01*
X24282493Y-46601089D01*
X24272404Y-46612902D01*
X21969503Y-48915803D01*
X21914986Y-48943580D01*
X21854554Y-48934009D01*
X21811289Y-48890744D01*
X21800499Y-48845799D01*
X21800499Y-48730139D01*
X21800499Y-48730136D01*
X21797585Y-48705009D01*
X21752206Y-48602235D01*
X21672765Y-48522794D01*
X21569991Y-48477415D01*
X21569990Y-48477414D01*
X21569988Y-48477414D01*
X21544869Y-48474500D01*
X21544865Y-48474500D01*
X21499500Y-48474500D01*
X21441309Y-48455593D01*
X21405345Y-48406093D01*
X21400500Y-48375500D01*
X21400500Y-46224499D01*
X21419407Y-46166308D01*
X21468907Y-46130344D01*
X21499500Y-46125499D01*
X21544861Y-46125499D01*
X21544864Y-46125499D01*
X21569991Y-46122585D01*
X21672765Y-46077206D01*
X21752206Y-45997765D01*
X21797585Y-45894991D01*
X21800500Y-45869865D01*
X21800499Y-45030136D01*
X21797585Y-45005009D01*
X21752206Y-44902235D01*
X21672765Y-44822794D01*
X21672763Y-44822793D01*
X21666278Y-44816308D01*
X21668684Y-44813901D01*
X21641291Y-44778300D01*
X21639609Y-44717137D01*
X21664563Y-44675128D01*
X24622180Y-41717513D01*
X24674907Y-41626188D01*
X24702200Y-41524327D01*
X24702200Y-41418873D01*
X24702200Y-33556900D01*
X24721107Y-33498709D01*
X24731190Y-33486902D01*
X28293680Y-29924413D01*
X28293683Y-29924408D01*
X28346405Y-29833092D01*
X28346405Y-29833090D01*
X28346407Y-29833088D01*
X28373700Y-29731227D01*
X28373700Y-29625773D01*
X28373700Y-29225143D01*
X28392607Y-29166952D01*
X28402690Y-29155145D01*
X28453720Y-29104116D01*
X28532777Y-28967184D01*
X28573700Y-28814457D01*
X28573700Y-28656343D01*
X28532777Y-28503616D01*
X28453720Y-28366684D01*
X28341916Y-28254880D01*
X28204984Y-28175823D01*
X28052257Y-28134900D01*
X27894143Y-28134900D01*
X27741416Y-28175823D01*
X27604484Y-28254880D01*
X27492680Y-28366684D01*
X27413623Y-28503616D01*
X27372700Y-28656343D01*
X27372700Y-28814457D01*
X27413623Y-28967184D01*
X27492680Y-29104116D01*
X27543705Y-29155141D01*
X27571481Y-29209656D01*
X27572700Y-29225143D01*
X27572700Y-29471598D01*
X27553793Y-29529789D01*
X27543704Y-29541602D01*
X24469503Y-32615802D01*
X24414986Y-32643579D01*
X24354554Y-32634008D01*
X24311289Y-32590743D01*
X24300499Y-32545802D01*
X24300499Y-31585136D01*
X24297585Y-31560009D01*
X24297583Y-31560004D01*
X24264460Y-31484987D01*
X24258251Y-31424118D01*
X24264457Y-31405018D01*
X24297585Y-31329991D01*
X24300500Y-31304865D01*
X24300499Y-30315136D01*
X24297585Y-30290009D01*
X24275723Y-30240496D01*
X24264460Y-30214987D01*
X24258251Y-30154118D01*
X24264457Y-30135018D01*
X24297585Y-30059991D01*
X24300500Y-30034865D01*
X24300499Y-29045136D01*
X24297585Y-29020009D01*
X24295481Y-29015243D01*
X24264460Y-28944987D01*
X24258251Y-28884118D01*
X24264457Y-28865018D01*
X24297585Y-28789991D01*
X24300500Y-28764865D01*
X24300499Y-27775136D01*
X24297585Y-27750009D01*
X24297583Y-27750004D01*
X24264460Y-27674987D01*
X24258251Y-27614118D01*
X24264457Y-27595018D01*
X24297585Y-27519991D01*
X24300500Y-27494865D01*
X24300499Y-26505136D01*
X24297585Y-26480009D01*
X24297583Y-26480004D01*
X24264460Y-26404987D01*
X24263919Y-26399690D01*
X24260799Y-26395374D01*
X24261704Y-26377972D01*
X24258251Y-26344118D01*
X24260940Y-26334189D01*
X24262467Y-26329525D01*
X24297585Y-26249991D01*
X24300500Y-26224865D01*
X24300500Y-26213387D01*
X24305313Y-26198690D01*
X24316126Y-26183879D01*
X24322789Y-26166792D01*
X24333728Y-26159769D01*
X24341392Y-26149273D01*
X24358844Y-26143646D01*
X24374279Y-26133739D01*
X24399397Y-26130500D01*
X26575725Y-26130500D01*
X26575727Y-26130500D01*
X26677588Y-26103207D01*
X26677590Y-26103205D01*
X26677592Y-26103205D01*
X26768908Y-26050483D01*
X26768908Y-26050482D01*
X26768913Y-26050480D01*
X30903296Y-21916095D01*
X30957813Y-21888319D01*
X30973300Y-21887100D01*
X31045455Y-21887100D01*
X31045457Y-21887100D01*
X31198184Y-21846177D01*
X31335116Y-21767120D01*
X31446920Y-21655316D01*
X31525977Y-21518384D01*
X31566900Y-21365657D01*
X31566900Y-21207543D01*
X31525977Y-21054816D01*
X31446920Y-20917884D01*
X31335116Y-20806080D01*
X31198184Y-20727023D01*
X31045457Y-20686100D01*
X30887343Y-20686100D01*
X30734616Y-20727023D01*
X30597684Y-20806080D01*
X30485880Y-20917884D01*
X30406823Y-21054816D01*
X30366173Y-21206527D01*
X30365900Y-21207544D01*
X30365900Y-21279699D01*
X30346993Y-21337890D01*
X30336904Y-21349703D01*
X26386103Y-25300504D01*
X26331586Y-25328281D01*
X26316099Y-25329500D01*
X24399396Y-25329500D01*
X24341205Y-25310593D01*
X24305312Y-25261309D01*
X24300499Y-25246611D01*
X24300499Y-25235136D01*
X24297585Y-25210009D01*
X24262470Y-25130482D01*
X24260940Y-25125808D01*
X24260880Y-25099893D01*
X24258251Y-25074118D01*
X24260802Y-25066264D01*
X24260799Y-25064623D01*
X24261774Y-25063273D01*
X24264457Y-25055018D01*
X24297585Y-24979991D01*
X24300500Y-24954865D01*
X24300499Y-23965136D01*
X24297585Y-23940009D01*
X24292952Y-23929516D01*
X24264460Y-23864987D01*
X24258251Y-23804118D01*
X24264457Y-23785018D01*
X24297585Y-23709991D01*
X24300500Y-23684865D01*
X24300499Y-22695136D01*
X24297585Y-22670009D01*
X24264460Y-22594987D01*
X24258251Y-22534118D01*
X24264457Y-22515018D01*
X24297585Y-22439991D01*
X24300500Y-22414865D01*
X24300499Y-21425136D01*
X24297585Y-21400009D01*
X24282417Y-21365657D01*
X24264460Y-21324987D01*
X24258251Y-21264118D01*
X24264457Y-21245018D01*
X24297585Y-21169991D01*
X24300500Y-21144865D01*
X24300499Y-20155136D01*
X24297585Y-20130009D01*
X24297583Y-20130004D01*
X24264460Y-20054987D01*
X24258251Y-19994118D01*
X24264457Y-19975018D01*
X24297585Y-19899991D01*
X24300500Y-19874865D01*
X24300499Y-19225840D01*
X24319406Y-19167650D01*
X24368906Y-19131686D01*
X24430092Y-19131686D01*
X24439473Y-19135271D01*
X24490009Y-19157585D01*
X24515135Y-19160500D01*
X25504864Y-19160499D01*
X25529991Y-19157585D01*
X25605012Y-19124459D01*
X25665881Y-19118251D01*
X25684978Y-19124455D01*
X25760009Y-19157585D01*
X25785135Y-19160500D01*
X26774864Y-19160499D01*
X26799991Y-19157585D01*
X26875012Y-19124459D01*
X26935881Y-19118251D01*
X26954978Y-19124455D01*
X27030009Y-19157585D01*
X27055135Y-19160500D01*
X28044864Y-19160499D01*
X28069991Y-19157585D01*
X28150013Y-19122251D01*
X28210880Y-19116043D01*
X28229981Y-19122249D01*
X28310009Y-19157585D01*
X28335135Y-19160500D01*
X29324864Y-19160499D01*
X29349991Y-19157585D01*
X29425012Y-19124459D01*
X29485881Y-19118251D01*
X29504978Y-19124455D01*
X29580009Y-19157585D01*
X29605135Y-19160500D01*
X30594864Y-19160499D01*
X30619991Y-19157585D01*
X30695012Y-19124459D01*
X30755881Y-19118251D01*
X30774978Y-19124455D01*
X30850009Y-19157585D01*
X30875135Y-19160500D01*
X31864864Y-19160499D01*
X31889991Y-19157585D01*
X31965012Y-19124459D01*
X32025881Y-19118251D01*
X32044978Y-19124455D01*
X32120009Y-19157585D01*
X32145135Y-19160500D01*
X33134864Y-19160499D01*
X33159991Y-19157585D01*
X33235012Y-19124459D01*
X33295881Y-19118251D01*
X33314978Y-19124455D01*
X33390009Y-19157585D01*
X33415135Y-19160500D01*
X34404864Y-19160499D01*
X34429991Y-19157585D01*
X34505012Y-19124459D01*
X34510308Y-19123919D01*
X34514625Y-19120799D01*
X34532027Y-19121704D01*
X34565881Y-19118251D01*
X34575810Y-19120940D01*
X34580477Y-19122468D01*
X34660009Y-19157585D01*
X34685135Y-19160500D01*
X34696612Y-19160499D01*
X34711310Y-19165313D01*
X34726122Y-19176127D01*
X34743209Y-19182790D01*
X34750229Y-19193727D01*
X34760727Y-19201391D01*
X34766354Y-19218846D01*
X34776261Y-19234280D01*
X34779500Y-19259396D01*
X34779500Y-38689673D01*
X34779500Y-38795127D01*
X34803570Y-38884959D01*
X34806794Y-38896992D01*
X34859516Y-38988308D01*
X34859518Y-38988310D01*
X34859520Y-38988313D01*
X47114487Y-51243280D01*
X47114489Y-51243281D01*
X47114491Y-51243283D01*
X47205808Y-51296005D01*
X47205806Y-51296005D01*
X47205810Y-51296006D01*
X47205812Y-51296007D01*
X47307673Y-51323300D01*
X61240899Y-51323300D01*
X61248496Y-51325768D01*
X61256386Y-51324519D01*
X61277041Y-51335043D01*
X61299090Y-51342207D01*
X61310903Y-51352296D01*
X61314103Y-51355496D01*
X61341880Y-51410013D01*
X61332309Y-51470445D01*
X61289044Y-51513710D01*
X61244099Y-51524500D01*
X60927133Y-51524500D01*
X60927129Y-51524500D01*
X60927128Y-51524501D01*
X60919949Y-51525272D01*
X60867519Y-51530908D01*
X60867514Y-51530909D01*
X60732670Y-51581202D01*
X60617458Y-51667450D01*
X60617450Y-51667458D01*
X60531202Y-51782670D01*
X60480910Y-51917511D01*
X60480909Y-51917517D01*
X60475540Y-51967459D01*
X60474500Y-51977129D01*
X60474500Y-52622866D01*
X60474500Y-52622869D01*
X60474501Y-52622872D01*
X60476044Y-52637229D01*
X60480908Y-52682480D01*
X60480909Y-52682485D01*
X60531202Y-52817329D01*
X60591694Y-52898135D01*
X60617454Y-52932546D01*
X60617457Y-52932548D01*
X60617458Y-52932549D01*
X60732670Y-53018797D01*
X60867511Y-53069089D01*
X60867512Y-53069089D01*
X60867517Y-53069091D01*
X60927127Y-53075500D01*
X61343099Y-53075499D01*
X61350696Y-53077967D01*
X61358586Y-53076718D01*
X61379240Y-53087241D01*
X61401290Y-53094406D01*
X61413102Y-53104495D01*
X61519604Y-53210996D01*
X61547382Y-53265513D01*
X61537811Y-53325945D01*
X61494546Y-53369209D01*
X61449601Y-53380000D01*
X2485547Y-53380000D01*
X2458140Y-53376131D01*
X2300357Y-53330674D01*
X2289878Y-53327007D01*
X2022542Y-53216272D01*
X2012540Y-53211455D01*
X1759288Y-53071488D01*
X1749888Y-53065582D01*
X1513893Y-52898135D01*
X1505213Y-52891213D01*
X1422539Y-52817331D01*
X1289444Y-52698390D01*
X1281609Y-52690555D01*
X1088784Y-52474783D01*
X1081864Y-52466106D01*
X1079733Y-52463103D01*
X914417Y-52230111D01*
X908511Y-52220711D01*
X768544Y-51967459D01*
X763727Y-51957457D01*
X688111Y-51774905D01*
X652990Y-51690117D01*
X649325Y-51679641D01*
X603869Y-51521858D01*
X600000Y-51494452D01*
X600000Y-50413385D01*
X2399500Y-50413385D01*
X2399500Y-50586614D01*
X2426597Y-50757702D01*
X2426598Y-50757706D01*
X2480123Y-50922438D01*
X2480125Y-50922441D01*
X2517785Y-50996355D01*
X2558768Y-51076788D01*
X2660586Y-51216928D01*
X2783072Y-51339414D01*
X2923212Y-51441232D01*
X3077555Y-51519873D01*
X3077557Y-51519873D01*
X3077558Y-51519874D01*
X3077561Y-51519876D01*
X3242293Y-51573401D01*
X3242297Y-51573402D01*
X3413386Y-51600500D01*
X3413389Y-51600500D01*
X3586614Y-51600500D01*
X3757702Y-51573402D01*
X3757706Y-51573401D01*
X3922438Y-51519876D01*
X3922440Y-51519874D01*
X3922445Y-51519873D01*
X4076788Y-51441232D01*
X4216928Y-51339414D01*
X4339414Y-51216928D01*
X4441232Y-51076788D01*
X4519873Y-50922445D01*
X4519874Y-50922440D01*
X4519876Y-50922438D01*
X4573401Y-50757706D01*
X4573402Y-50757702D01*
X4600500Y-50586614D01*
X4600500Y-50413385D01*
X4573402Y-50242297D01*
X4573401Y-50242293D01*
X4519876Y-50077561D01*
X4519874Y-50077558D01*
X4519873Y-50077557D01*
X4519873Y-50077555D01*
X4441232Y-49923212D01*
X4339414Y-49783072D01*
X4216928Y-49660586D01*
X4076788Y-49558768D01*
X4076787Y-49558767D01*
X4076785Y-49558766D01*
X3922441Y-49480125D01*
X3922438Y-49480123D01*
X3757706Y-49426598D01*
X3757702Y-49426597D01*
X3586614Y-49399500D01*
X3586611Y-49399500D01*
X3413389Y-49399500D01*
X3413386Y-49399500D01*
X3242297Y-49426597D01*
X3242293Y-49426598D01*
X3077561Y-49480123D01*
X3077558Y-49480125D01*
X2923214Y-49558766D01*
X2783073Y-49660585D01*
X2660585Y-49783073D01*
X2558766Y-49923214D01*
X2480125Y-50077558D01*
X2480123Y-50077561D01*
X2426598Y-50242293D01*
X2426597Y-50242297D01*
X2399500Y-50413385D01*
X600000Y-50413385D01*
X600000Y-2913385D01*
X2399500Y-2913385D01*
X2399500Y-3086614D01*
X2426597Y-3257702D01*
X2426598Y-3257706D01*
X2480123Y-3422438D01*
X2480125Y-3422441D01*
X2540349Y-3540640D01*
X2558768Y-3576788D01*
X2660586Y-3716928D01*
X2783072Y-3839414D01*
X2923212Y-3941232D01*
X3077555Y-4019873D01*
X3077557Y-4019873D01*
X3077558Y-4019874D01*
X3077561Y-4019876D01*
X3242293Y-4073401D01*
X3242297Y-4073402D01*
X3413386Y-4100500D01*
X3413389Y-4100500D01*
X3586614Y-4100500D01*
X3757702Y-4073402D01*
X3757706Y-4073401D01*
X3922438Y-4019876D01*
X3922440Y-4019874D01*
X3922445Y-4019873D01*
X4076788Y-3941232D01*
X4216928Y-3839414D01*
X4339414Y-3716928D01*
X4441232Y-3576788D01*
X4519873Y-3422445D01*
X4519874Y-3422440D01*
X4519876Y-3422438D01*
X4573401Y-3257706D01*
X4573402Y-3257702D01*
X4600500Y-3086614D01*
X4600500Y-2913385D01*
X4573402Y-2742297D01*
X4573401Y-2742293D01*
X4519876Y-2577561D01*
X4519874Y-2577558D01*
X4519873Y-2577557D01*
X4519873Y-2577555D01*
X4441232Y-2423212D01*
X4339414Y-2283072D01*
X4216928Y-2160586D01*
X4076788Y-2058768D01*
X4076787Y-2058767D01*
X4076785Y-2058766D01*
X3922441Y-1980125D01*
X3922438Y-1980123D01*
X3757706Y-1926598D01*
X3757702Y-1926597D01*
X3586614Y-1899500D01*
X3586611Y-1899500D01*
X3413389Y-1899500D01*
X3413386Y-1899500D01*
X3242297Y-1926597D01*
X3242293Y-1926598D01*
X3077561Y-1980123D01*
X3077558Y-1980125D01*
X2923214Y-2058766D01*
X2783073Y-2160585D01*
X2660585Y-2283073D01*
X2558766Y-2423214D01*
X2480125Y-2577558D01*
X2480123Y-2577561D01*
X2426598Y-2742293D01*
X2426597Y-2742297D01*
X2399500Y-2913385D01*
X600000Y-2913385D01*
X600000Y-2485546D01*
X603869Y-2458139D01*
X613931Y-2423214D01*
X649328Y-2300347D01*
X652988Y-2289888D01*
X763729Y-2022535D01*
X768544Y-2012540D01*
X786458Y-1980127D01*
X908515Y-1759280D01*
X914412Y-1749895D01*
X1081872Y-1513882D01*
X1088776Y-1505224D01*
X1281617Y-1289435D01*
X1289435Y-1281617D01*
X1505224Y-1088776D01*
X1513882Y-1081872D01*
X1749895Y-914412D01*
X1759280Y-908515D01*
X2012546Y-768541D01*
X2022535Y-763729D01*
X2289888Y-652988D01*
X2300353Y-649326D01*
X2388687Y-623877D01*
X2458141Y-603869D01*
X2485547Y-600000D01*
X83114453Y-600000D01*
X83141859Y-603868D01*
G37*
%TD.AperFunction*%
%TA.AperFunction,Conductor*%
G36*
X52748390Y-32499407D02*
G01*
X52760203Y-32509496D01*
X69598804Y-49348097D01*
X69626581Y-49402614D01*
X69627800Y-49418101D01*
X69627800Y-50052727D01*
X69655093Y-50154587D01*
X69655094Y-50154589D01*
X69655094Y-50154590D01*
X69681257Y-50199905D01*
X69707820Y-50245913D01*
X69782387Y-50320480D01*
X69873713Y-50373207D01*
X69956125Y-50395289D01*
X70007438Y-50428612D01*
X70029365Y-50485733D01*
X70029501Y-50490915D01*
X70029501Y-50902200D01*
X70010594Y-50960391D01*
X69961094Y-50996355D01*
X69930501Y-51001200D01*
X67149500Y-51001200D01*
X67091309Y-50982293D01*
X67055345Y-50932793D01*
X67050500Y-50902200D01*
X67050499Y-48855139D01*
X67050499Y-48855136D01*
X67047585Y-48830009D01*
X67002206Y-48727235D01*
X66922765Y-48647794D01*
X66819991Y-48602415D01*
X66819990Y-48602414D01*
X66819988Y-48602414D01*
X66794868Y-48599500D01*
X65205139Y-48599500D01*
X65205136Y-48599501D01*
X65180009Y-48602414D01*
X65077235Y-48647794D01*
X64997794Y-48727235D01*
X64952414Y-48830011D01*
X64949500Y-48855130D01*
X64949500Y-51144860D01*
X64949501Y-51144863D01*
X64952414Y-51169990D01*
X64973139Y-51216926D01*
X64997794Y-51272765D01*
X65077235Y-51352206D01*
X65180009Y-51397585D01*
X65198682Y-51399751D01*
X65207582Y-51400784D01*
X65263206Y-51426271D01*
X65293226Y-51479586D01*
X65286175Y-51540363D01*
X65266177Y-51569128D01*
X64170303Y-52665004D01*
X64115786Y-52692781D01*
X64100299Y-52694000D01*
X63624500Y-52694000D01*
X63566309Y-52675093D01*
X63530345Y-52625593D01*
X63525500Y-52595000D01*
X63525499Y-51977133D01*
X63525499Y-51977128D01*
X63519091Y-51917517D01*
X63514907Y-51906300D01*
X63468797Y-51782670D01*
X63382549Y-51667458D01*
X63382548Y-51667457D01*
X63382546Y-51667454D01*
X63382541Y-51667450D01*
X63267329Y-51581202D01*
X63132488Y-51530910D01*
X63132483Y-51530909D01*
X63132481Y-51530908D01*
X63132477Y-51530908D01*
X63101249Y-51527550D01*
X63072873Y-51524500D01*
X63072870Y-51524500D01*
X62656901Y-51524500D01*
X62598710Y-51505593D01*
X62586897Y-51495504D01*
X62168178Y-51076785D01*
X61693713Y-50602320D01*
X61693710Y-50602318D01*
X61693709Y-50602317D01*
X61693708Y-50602316D01*
X61602391Y-50549594D01*
X61602393Y-50549594D01*
X61562870Y-50539004D01*
X61500527Y-50522300D01*
X61500525Y-50522300D01*
X47567301Y-50522300D01*
X47509110Y-50503393D01*
X47497297Y-50493304D01*
X43706755Y-46702762D01*
X43678978Y-46648245D01*
X43688549Y-46587813D01*
X43727260Y-46547021D01*
X43731534Y-46544552D01*
X43734016Y-46543120D01*
X43845820Y-46431316D01*
X43924877Y-46294384D01*
X43965800Y-46141657D01*
X43965800Y-45983543D01*
X43924877Y-45830816D01*
X43845820Y-45693884D01*
X43734016Y-45582080D01*
X43597084Y-45503023D01*
X43444357Y-45462100D01*
X43444355Y-45462100D01*
X43372201Y-45462100D01*
X43314010Y-45443193D01*
X43302197Y-45433104D01*
X42085296Y-44216203D01*
X42057519Y-44161686D01*
X42056300Y-44146199D01*
X42056300Y-36892100D01*
X42075207Y-36833909D01*
X42085290Y-36822102D01*
X43535780Y-35371613D01*
X43546940Y-35352284D01*
X43588505Y-35280292D01*
X43588505Y-35280290D01*
X43588507Y-35280288D01*
X43615800Y-35178427D01*
X43615800Y-35072973D01*
X43615800Y-33639143D01*
X43634707Y-33580952D01*
X43644790Y-33569145D01*
X43695820Y-33518116D01*
X43774877Y-33381184D01*
X43815800Y-33228457D01*
X43815800Y-33070343D01*
X43774877Y-32917616D01*
X43695820Y-32780684D01*
X43584016Y-32668880D01*
X43577703Y-32665235D01*
X43536763Y-32619766D01*
X43530369Y-32558915D01*
X43560962Y-32505928D01*
X43616858Y-32481042D01*
X43627205Y-32480500D01*
X52690199Y-32480500D01*
X52748390Y-32499407D01*
G37*
%TD.AperFunction*%
%TA.AperFunction,Conductor*%
G36*
X54018390Y-31229407D02*
G01*
X54030203Y-31239496D01*
X71221204Y-48430496D01*
X71248981Y-48485013D01*
X71239410Y-48545445D01*
X71196145Y-48588710D01*
X71151200Y-48599500D01*
X70285139Y-48599500D01*
X70285136Y-48599501D01*
X70260009Y-48602414D01*
X70157232Y-48647795D01*
X70150311Y-48652537D01*
X70091618Y-48669824D01*
X70033974Y-48649310D01*
X70024359Y-48640866D01*
X62483492Y-41099999D01*
X53143013Y-31759520D01*
X53143010Y-31759518D01*
X53143009Y-31759517D01*
X53143008Y-31759516D01*
X53051691Y-31706794D01*
X53051693Y-31706794D01*
X53012170Y-31696204D01*
X52949827Y-31679500D01*
X52949825Y-31679500D01*
X41899396Y-31679500D01*
X41841205Y-31660593D01*
X41805312Y-31611309D01*
X41800499Y-31596611D01*
X41800499Y-31585136D01*
X41797585Y-31560009D01*
X41762470Y-31480482D01*
X41760940Y-31475808D01*
X41760880Y-31449893D01*
X41758251Y-31424118D01*
X41760802Y-31416264D01*
X41760799Y-31414623D01*
X41761774Y-31413273D01*
X41764457Y-31405018D01*
X41797585Y-31329991D01*
X41800500Y-31304865D01*
X41800500Y-31304847D01*
X41800561Y-31303797D01*
X41800651Y-31303565D01*
X41800830Y-31302024D01*
X41801234Y-31302070D01*
X41822789Y-31246792D01*
X41874279Y-31213739D01*
X41899397Y-31210500D01*
X53960199Y-31210500D01*
X54018390Y-31229407D01*
G37*
%TD.AperFunction*%
%TA.AperFunction,Conductor*%
G36*
X54366544Y-26464990D02*
G01*
X54391603Y-26483196D01*
X65404107Y-37495700D01*
X76338904Y-48430496D01*
X76366681Y-48485013D01*
X76357110Y-48545445D01*
X76313845Y-48588710D01*
X76268900Y-48599500D01*
X75365139Y-48599500D01*
X75365136Y-48599501D01*
X75340009Y-48602414D01*
X75235489Y-48648565D01*
X75174619Y-48654773D01*
X75125497Y-48628004D01*
X65292618Y-38795125D01*
X55263313Y-28765820D01*
X55263310Y-28765818D01*
X55263309Y-28765817D01*
X55263308Y-28765816D01*
X55171991Y-28713094D01*
X55171987Y-28713092D01*
X55115705Y-28698011D01*
X55071326Y-28672389D01*
X55004718Y-28605782D01*
X55004716Y-28605780D01*
X54867784Y-28526723D01*
X54715057Y-28485800D01*
X54556943Y-28485800D01*
X54404216Y-28526723D01*
X54267284Y-28605780D01*
X54155480Y-28717584D01*
X54076423Y-28854516D01*
X54035500Y-29007243D01*
X54035500Y-29165357D01*
X54076423Y-29318084D01*
X54155480Y-29455016D01*
X54267284Y-29566820D01*
X54404216Y-29645877D01*
X54556943Y-29686800D01*
X54556945Y-29686800D01*
X54715055Y-29686800D01*
X54715057Y-29686800D01*
X54867784Y-29645877D01*
X54892526Y-29631592D01*
X54952374Y-29618870D01*
X55008270Y-29643756D01*
X55012031Y-29647324D01*
X73795203Y-48430496D01*
X73822980Y-48485013D01*
X73813409Y-48545445D01*
X73770144Y-48588710D01*
X73725199Y-48599500D01*
X72825139Y-48599500D01*
X72825136Y-48599501D01*
X72800009Y-48602414D01*
X72742055Y-48628004D01*
X72697235Y-48647794D01*
X72697234Y-48647794D01*
X72697231Y-48647796D01*
X72690307Y-48652539D01*
X72631614Y-48669824D01*
X72573970Y-48649308D01*
X72564358Y-48640866D01*
X65023491Y-41099999D01*
X54413013Y-30489520D01*
X54413010Y-30489518D01*
X54413008Y-30489516D01*
X54321691Y-30436794D01*
X54321693Y-30436794D01*
X54282170Y-30426204D01*
X54219827Y-30409500D01*
X54219825Y-30409500D01*
X50564301Y-30409500D01*
X50506110Y-30390593D01*
X50470146Y-30341093D01*
X50470146Y-30279907D01*
X50494297Y-30240496D01*
X54251595Y-26483196D01*
X54306112Y-26455419D01*
X54366544Y-26464990D01*
G37*
%TD.AperFunction*%
%TA.AperFunction,Conductor*%
G36*
X77866290Y-3884407D02*
G01*
X77878103Y-3894496D01*
X78220504Y-4236897D01*
X78248281Y-4291414D01*
X78249500Y-4306901D01*
X78249500Y-5018106D01*
X78260123Y-5106565D01*
X78315637Y-5247339D01*
X78315638Y-5247341D01*
X78315639Y-5247342D01*
X78407078Y-5367922D01*
X78527658Y-5459361D01*
X78527659Y-5459361D01*
X78527660Y-5459362D01*
X78549301Y-5467896D01*
X78668436Y-5514877D01*
X78756898Y-5525500D01*
X78756900Y-5525500D01*
X79343100Y-5525500D01*
X79343102Y-5525500D01*
X79431564Y-5514877D01*
X79431564Y-5514876D01*
X79437866Y-5514120D01*
X79438050Y-5515659D01*
X79491518Y-5519222D01*
X79524737Y-5541130D01*
X83210604Y-9226996D01*
X83238381Y-9281513D01*
X83239600Y-9297000D01*
X83239600Y-23566219D01*
X83220693Y-23624410D01*
X83171193Y-23660374D01*
X83110007Y-23660374D01*
X83075570Y-23639271D01*
X83075356Y-23639557D01*
X83072284Y-23637257D01*
X83070596Y-23636223D01*
X83069688Y-23635315D01*
X83069687Y-23635313D01*
X83014149Y-23593738D01*
X82960228Y-23553373D01*
X82960226Y-23553372D01*
X82832114Y-23505588D01*
X82832113Y-23505587D01*
X82793895Y-23501479D01*
X82775485Y-23499500D01*
X82775481Y-23499500D01*
X82334521Y-23499500D01*
X82334515Y-23499501D01*
X82277888Y-23505587D01*
X82277886Y-23505588D01*
X82149774Y-23553372D01*
X82149773Y-23553372D01*
X82149772Y-23553373D01*
X82040315Y-23635311D01*
X82040311Y-23635315D01*
X81958373Y-23744771D01*
X81910587Y-23872887D01*
X81904500Y-23929518D01*
X81904500Y-24720478D01*
X81904501Y-24720484D01*
X81910587Y-24777111D01*
X81910587Y-24777112D01*
X81910588Y-24777114D01*
X81958372Y-24905226D01*
X82040313Y-25014687D01*
X82149774Y-25096628D01*
X82277886Y-25144412D01*
X82334515Y-25150500D01*
X82775484Y-25150499D01*
X82832114Y-25144412D01*
X82960226Y-25096628D01*
X83069687Y-25014687D01*
X83069692Y-25014679D01*
X83070596Y-25013777D01*
X83071555Y-25013288D01*
X83075356Y-25010443D01*
X83075848Y-25011100D01*
X83125113Y-24986000D01*
X83185545Y-24995571D01*
X83228810Y-25038836D01*
X83239600Y-25083781D01*
X83239600Y-28558498D01*
X83220693Y-28616689D01*
X83210604Y-28628502D01*
X82299504Y-29539602D01*
X82244987Y-29567379D01*
X82184555Y-29557808D01*
X82141290Y-29514543D01*
X82130500Y-29469598D01*
X82130500Y-29433470D01*
X82130500Y-29433469D01*
X82104540Y-29302964D01*
X82053620Y-29180031D01*
X81979695Y-29069394D01*
X81885606Y-28975305D01*
X81884006Y-28974236D01*
X81774966Y-28901378D01*
X81652037Y-28850460D01*
X81521531Y-28824500D01*
X81388469Y-28824500D01*
X81388468Y-28824500D01*
X81257962Y-28850460D01*
X81135033Y-28901378D01*
X81024397Y-28975302D01*
X80930302Y-29069397D01*
X80856378Y-29180033D01*
X80805460Y-29302962D01*
X80779500Y-29433468D01*
X80779500Y-29566531D01*
X80805460Y-29697037D01*
X80856378Y-29819966D01*
X80926163Y-29924408D01*
X80930305Y-29930606D01*
X81024394Y-30024695D01*
X81135031Y-30098620D01*
X81257964Y-30149540D01*
X81388469Y-30175500D01*
X81388470Y-30175500D01*
X81424600Y-30175500D01*
X81446647Y-30182663D01*
X81469545Y-30186290D01*
X81475193Y-30191938D01*
X81482791Y-30194407D01*
X81496418Y-30213163D01*
X81512810Y-30229555D01*
X81514059Y-30237444D01*
X81518755Y-30243907D01*
X81518755Y-30267092D01*
X81522381Y-30289987D01*
X81518755Y-30297103D01*
X81518755Y-30305093D01*
X81494606Y-30344500D01*
X81421001Y-30418105D01*
X81366487Y-30445881D01*
X81351000Y-30447100D01*
X80554500Y-30447100D01*
X80496309Y-30428193D01*
X80460345Y-30378693D01*
X80455500Y-30348100D01*
X80455500Y-30045727D01*
X80455499Y-30045725D01*
X80454481Y-30034869D01*
X80452646Y-30015301D01*
X80407793Y-29887118D01*
X80367920Y-29833092D01*
X80327154Y-29777855D01*
X80327152Y-29777853D01*
X80327150Y-29777850D01*
X80327146Y-29777847D01*
X80327144Y-29777845D01*
X80217883Y-29697207D01*
X80089703Y-29652355D01*
X80089694Y-29652353D01*
X80059274Y-29649500D01*
X80059266Y-29649500D01*
X78950734Y-29649500D01*
X78950725Y-29649500D01*
X78920305Y-29652353D01*
X78920094Y-29652399D01*
X78920092Y-29652401D01*
X78920087Y-29652401D01*
X78914414Y-29653640D01*
X78914143Y-29652401D01*
X78890536Y-29652401D01*
X78861023Y-29653062D01*
X78860069Y-29652401D01*
X78858906Y-29652401D01*
X78834985Y-29635021D01*
X78810730Y-29618216D01*
X78810346Y-29617120D01*
X78809406Y-29616437D01*
X78800271Y-29588324D01*
X78790524Y-29560463D01*
X78790499Y-29558246D01*
X78790499Y-29441753D01*
X78809406Y-29383562D01*
X78858906Y-29347598D01*
X78914144Y-29347598D01*
X78914414Y-29346360D01*
X78920082Y-29347598D01*
X78920092Y-29347598D01*
X78920110Y-29347604D01*
X78920294Y-29347643D01*
X78920301Y-29347646D01*
X78950725Y-29350499D01*
X78950727Y-29350500D01*
X78950734Y-29350500D01*
X80059273Y-29350500D01*
X80059273Y-29350499D01*
X80089699Y-29347646D01*
X80217882Y-29302793D01*
X80327150Y-29222150D01*
X80407793Y-29112882D01*
X80452646Y-28984699D01*
X80455499Y-28954273D01*
X80455500Y-28954273D01*
X80455500Y-28545727D01*
X80455499Y-28545725D01*
X80452646Y-28515305D01*
X80452646Y-28515301D01*
X80407793Y-28387118D01*
X80399275Y-28375577D01*
X80327154Y-28277855D01*
X80327152Y-28277853D01*
X80327150Y-28277850D01*
X80327146Y-28277847D01*
X80327144Y-28277845D01*
X80217883Y-28197207D01*
X80089703Y-28152355D01*
X80089694Y-28152353D01*
X80059274Y-28149500D01*
X80059266Y-28149500D01*
X79511899Y-28149500D01*
X79453708Y-28130593D01*
X79441895Y-28120503D01*
X79171529Y-27850136D01*
X79155797Y-27829633D01*
X79112181Y-27754089D01*
X79112180Y-27754087D01*
X79037613Y-27679520D01*
X79029762Y-27674987D01*
X78946290Y-27626794D01*
X78946287Y-27626793D01*
X78863875Y-27604711D01*
X78812561Y-27571386D01*
X78790635Y-27514265D01*
X78790499Y-27509084D01*
X78790499Y-26441753D01*
X78793191Y-26433468D01*
X80779500Y-26433468D01*
X80779500Y-26566531D01*
X80805460Y-26697037D01*
X80856378Y-26819966D01*
X80899152Y-26883983D01*
X80930305Y-26930606D01*
X81024394Y-27024695D01*
X81135031Y-27098620D01*
X81257964Y-27149540D01*
X81388469Y-27175500D01*
X81388470Y-27175500D01*
X81521530Y-27175500D01*
X81521531Y-27175500D01*
X81652036Y-27149540D01*
X81774969Y-27098620D01*
X81885606Y-27024695D01*
X81979695Y-26930606D01*
X82053620Y-26819969D01*
X82104540Y-26697036D01*
X82130500Y-26566531D01*
X82130500Y-26433469D01*
X82104540Y-26302964D01*
X82053620Y-26180031D01*
X81979695Y-26069394D01*
X81885606Y-25975305D01*
X81854129Y-25954273D01*
X81774966Y-25901378D01*
X81652037Y-25850460D01*
X81521531Y-25824500D01*
X81388469Y-25824500D01*
X81388468Y-25824500D01*
X81257962Y-25850460D01*
X81135033Y-25901378D01*
X81024397Y-25975302D01*
X80930302Y-26069397D01*
X80856378Y-26180033D01*
X80805460Y-26302962D01*
X80779500Y-26433468D01*
X78793191Y-26433468D01*
X78809406Y-26383562D01*
X78858906Y-26347598D01*
X78914144Y-26347598D01*
X78914414Y-26346360D01*
X78920082Y-26347598D01*
X78920092Y-26347598D01*
X78920110Y-26347604D01*
X78920294Y-26347643D01*
X78920301Y-26347646D01*
X78950725Y-26350499D01*
X78950727Y-26350500D01*
X78950734Y-26350500D01*
X80059273Y-26350500D01*
X80059273Y-26350499D01*
X80089699Y-26347646D01*
X80114196Y-26339074D01*
X80125380Y-26335161D01*
X80152816Y-26325560D01*
X80217882Y-26302793D01*
X80327150Y-26222150D01*
X80407793Y-26112882D01*
X80452646Y-25984699D01*
X80455499Y-25954273D01*
X80455500Y-25954273D01*
X80455500Y-25545727D01*
X80455499Y-25545725D01*
X80452646Y-25515305D01*
X80452646Y-25515301D01*
X80407793Y-25387118D01*
X80394708Y-25369388D01*
X80349614Y-25308287D01*
X80330272Y-25250239D01*
X80348743Y-25191909D01*
X80397973Y-25155576D01*
X80429266Y-25150499D01*
X80575484Y-25150499D01*
X80632114Y-25144412D01*
X80760226Y-25096628D01*
X80869687Y-25014687D01*
X80951628Y-24905226D01*
X80999412Y-24777114D01*
X81005500Y-24720485D01*
X81005499Y-23929516D01*
X80999412Y-23872886D01*
X80951628Y-23744774D01*
X80869687Y-23635313D01*
X80814149Y-23593738D01*
X80760228Y-23553373D01*
X80760226Y-23553372D01*
X80632114Y-23505588D01*
X80632113Y-23505587D01*
X80593895Y-23501479D01*
X80575485Y-23499500D01*
X80575481Y-23499500D01*
X80134521Y-23499500D01*
X80134515Y-23499501D01*
X80077888Y-23505587D01*
X80077886Y-23505588D01*
X79949774Y-23553372D01*
X79949773Y-23553372D01*
X79949772Y-23553373D01*
X79840315Y-23635311D01*
X79840311Y-23635315D01*
X79758373Y-23744771D01*
X79710587Y-23872887D01*
X79704500Y-23929518D01*
X79704500Y-24720478D01*
X79704501Y-24720484D01*
X79710587Y-24777111D01*
X79710587Y-24777112D01*
X79710588Y-24777114D01*
X79758372Y-24905226D01*
X79775938Y-24928691D01*
X79822710Y-24991172D01*
X79842446Y-25049087D01*
X79824371Y-25107541D01*
X79775390Y-25144208D01*
X79743456Y-25149500D01*
X78950725Y-25149500D01*
X78920305Y-25152353D01*
X78920296Y-25152355D01*
X78792116Y-25197207D01*
X78682855Y-25277845D01*
X78682845Y-25277855D01*
X78602207Y-25387116D01*
X78557355Y-25515296D01*
X78557353Y-25515305D01*
X78554500Y-25545725D01*
X78554500Y-25700500D01*
X78535593Y-25758691D01*
X78486093Y-25794655D01*
X78455500Y-25799500D01*
X74245139Y-25799500D01*
X74245136Y-25799501D01*
X74220009Y-25802414D01*
X74117235Y-25847794D01*
X74037794Y-25927235D01*
X73992414Y-26030011D01*
X73989500Y-26055130D01*
X73989500Y-29944860D01*
X73989501Y-29944863D01*
X73992414Y-29969990D01*
X74012419Y-30015296D01*
X74037794Y-30072765D01*
X74117235Y-30152206D01*
X74220009Y-30197585D01*
X74245135Y-30200500D01*
X78455500Y-30200499D01*
X78513691Y-30219406D01*
X78549655Y-30268906D01*
X78554500Y-30299499D01*
X78554500Y-30454274D01*
X78557353Y-30484694D01*
X78557355Y-30484703D01*
X78602207Y-30612883D01*
X78682845Y-30722144D01*
X78682847Y-30722146D01*
X78682850Y-30722150D01*
X78682853Y-30722152D01*
X78682855Y-30722154D01*
X78792116Y-30802792D01*
X78792117Y-30802792D01*
X78792118Y-30802793D01*
X78920301Y-30847646D01*
X78950725Y-30850499D01*
X78950727Y-30850500D01*
X78950734Y-30850500D01*
X79026142Y-30850500D01*
X79084333Y-30869407D01*
X79120297Y-30918907D01*
X79121765Y-30923865D01*
X79131793Y-30961288D01*
X79131794Y-30961290D01*
X79131795Y-30961293D01*
X79184516Y-31052608D01*
X79184519Y-31052612D01*
X79184520Y-31052613D01*
X79207402Y-31075495D01*
X79235181Y-31130010D01*
X79236400Y-31145499D01*
X79236400Y-32835873D01*
X79236400Y-32941327D01*
X79240525Y-32956722D01*
X79263694Y-33043192D01*
X79316416Y-33134508D01*
X79316418Y-33134510D01*
X79316420Y-33134513D01*
X79339405Y-33157498D01*
X79367181Y-33212013D01*
X79368400Y-33227500D01*
X79368400Y-48500500D01*
X79349493Y-48558691D01*
X79299993Y-48594655D01*
X79269400Y-48599500D01*
X77905139Y-48599500D01*
X77905136Y-48599501D01*
X77880009Y-48602414D01*
X77778055Y-48647432D01*
X77717185Y-48653640D01*
X77668063Y-48626871D01*
X67480711Y-38439519D01*
X67452934Y-38385002D01*
X67462505Y-38324570D01*
X67505770Y-38281305D01*
X67566202Y-38271734D01*
X67576326Y-38273885D01*
X67661473Y-38296700D01*
X69089656Y-38296700D01*
X69147847Y-38315607D01*
X69159659Y-38325696D01*
X69210681Y-38376717D01*
X69210684Y-38376720D01*
X69347616Y-38455777D01*
X69500343Y-38496700D01*
X69500345Y-38496700D01*
X69658455Y-38496700D01*
X69658457Y-38496700D01*
X69811184Y-38455777D01*
X69948116Y-38376720D01*
X70059920Y-38264916D01*
X70138977Y-38127984D01*
X70179900Y-37975257D01*
X70179900Y-37817143D01*
X70138977Y-37664416D01*
X70059920Y-37527484D01*
X69948116Y-37415680D01*
X69811184Y-37336623D01*
X69658457Y-37295700D01*
X69500343Y-37295700D01*
X69347616Y-37336623D01*
X69210681Y-37415682D01*
X69159659Y-37466704D01*
X69105142Y-37494481D01*
X69089656Y-37495700D01*
X67921101Y-37495700D01*
X67862910Y-37476793D01*
X67851097Y-37466704D01*
X67368838Y-36984445D01*
X67341061Y-36929928D01*
X67350632Y-36869496D01*
X67389340Y-36828705D01*
X67425516Y-36807820D01*
X67537320Y-36696016D01*
X67616377Y-36559084D01*
X67657300Y-36406357D01*
X67657300Y-36334199D01*
X67676207Y-36276008D01*
X67686290Y-36264201D01*
X70262110Y-33688381D01*
X70262113Y-33688380D01*
X70336680Y-33613813D01*
X70389407Y-33522487D01*
X70390578Y-33518116D01*
X70394203Y-33504589D01*
X70394203Y-33504587D01*
X70416701Y-33420627D01*
X70416701Y-33315173D01*
X70416701Y-33309111D01*
X70416700Y-33309093D01*
X70416700Y-21879443D01*
X70435607Y-21821252D01*
X70445690Y-21809445D01*
X70496720Y-21758416D01*
X70575777Y-21621484D01*
X70616700Y-21468757D01*
X70616700Y-21310643D01*
X70575777Y-21157916D01*
X70496720Y-21020984D01*
X70384916Y-20909180D01*
X70247984Y-20830123D01*
X70095257Y-20789200D01*
X69937143Y-20789200D01*
X69784416Y-20830123D01*
X69647484Y-20909180D01*
X69593101Y-20963562D01*
X69538587Y-20991338D01*
X69478155Y-20981767D01*
X69434890Y-20938502D01*
X69424100Y-20893557D01*
X69424100Y-18295543D01*
X69443007Y-18237352D01*
X69453090Y-18225545D01*
X69504120Y-18174516D01*
X69583177Y-18037584D01*
X69624100Y-17884857D01*
X69624100Y-17726743D01*
X69583177Y-17574016D01*
X69504120Y-17437084D01*
X69392316Y-17325280D01*
X69255384Y-17246223D01*
X69102657Y-17205300D01*
X68944543Y-17205300D01*
X68791816Y-17246223D01*
X68654884Y-17325280D01*
X68543080Y-17437084D01*
X68464023Y-17574016D01*
X68423100Y-17726743D01*
X68423100Y-17884857D01*
X68464023Y-18037584D01*
X68543080Y-18174516D01*
X68594105Y-18225541D01*
X68621881Y-18280056D01*
X68623100Y-18295543D01*
X68623100Y-32685799D01*
X68604193Y-32743990D01*
X68594104Y-32755803D01*
X66258403Y-35091504D01*
X66203886Y-35119281D01*
X66188399Y-35120500D01*
X66116243Y-35120500D01*
X65963516Y-35161423D01*
X65826584Y-35240480D01*
X65714780Y-35352284D01*
X65635723Y-35489216D01*
X65594800Y-35641943D01*
X65594800Y-35800057D01*
X65635723Y-35952784D01*
X65714780Y-36089716D01*
X65765805Y-36140741D01*
X65793581Y-36195256D01*
X65794800Y-36210743D01*
X65794800Y-36430026D01*
X65817611Y-36515162D01*
X65814408Y-36576263D01*
X65775902Y-36623813D01*
X65716802Y-36639648D01*
X65659680Y-36617721D01*
X65651980Y-36610788D01*
X56250135Y-27208943D01*
X62613300Y-27208943D01*
X62613300Y-27367057D01*
X62654223Y-27519784D01*
X62733280Y-27656716D01*
X62845084Y-27768520D01*
X62982016Y-27847577D01*
X63134743Y-27888500D01*
X63134745Y-27888500D01*
X63292855Y-27888500D01*
X63292857Y-27888500D01*
X63445584Y-27847577D01*
X63582516Y-27768520D01*
X63694320Y-27656716D01*
X63773377Y-27519784D01*
X63814300Y-27367057D01*
X63814300Y-27208943D01*
X63773377Y-27056216D01*
X63694320Y-26919284D01*
X63694317Y-26919281D01*
X63643296Y-26868259D01*
X63615519Y-26813742D01*
X63614300Y-26798256D01*
X63614300Y-17344800D01*
X63633207Y-17286609D01*
X63643296Y-17274796D01*
X69491096Y-11426996D01*
X69545613Y-11399219D01*
X69561100Y-11398000D01*
X69633255Y-11398000D01*
X69633257Y-11398000D01*
X69785984Y-11357077D01*
X69922916Y-11278020D01*
X70034720Y-11166216D01*
X70113777Y-11029284D01*
X70154700Y-10876557D01*
X70154700Y-10718443D01*
X70113777Y-10565716D01*
X70034720Y-10428784D01*
X69922916Y-10316980D01*
X69785984Y-10237923D01*
X69633257Y-10197000D01*
X69475143Y-10197000D01*
X69322416Y-10237923D01*
X69185484Y-10316980D01*
X69073680Y-10428784D01*
X68994623Y-10565716D01*
X68978627Y-10625416D01*
X68953700Y-10718444D01*
X68953700Y-10790599D01*
X68934793Y-10848790D01*
X68924704Y-10860603D01*
X62893316Y-16891991D01*
X62840593Y-16983311D01*
X62840592Y-16983311D01*
X62840593Y-16983312D01*
X62813300Y-17085173D01*
X62813300Y-26798256D01*
X62794393Y-26856447D01*
X62784304Y-26868259D01*
X62733282Y-26919281D01*
X62733280Y-26919283D01*
X62733280Y-26919284D01*
X62654223Y-27056216D01*
X62613300Y-27208943D01*
X56250135Y-27208943D01*
X54957995Y-25916803D01*
X54930218Y-25862286D01*
X54939789Y-25801854D01*
X54957994Y-25776798D01*
X54963480Y-25771313D01*
X54970767Y-25758691D01*
X55016205Y-25679992D01*
X55016205Y-25679990D01*
X55016207Y-25679988D01*
X55043500Y-25578127D01*
X55043500Y-25472673D01*
X55043500Y-5299666D01*
X55062407Y-5241475D01*
X55083171Y-5220413D01*
X55099063Y-5208516D01*
X55200546Y-5132546D01*
X55286796Y-5017331D01*
X55337091Y-4882483D01*
X55343500Y-4822873D01*
X55343499Y-4211999D01*
X55362406Y-4153809D01*
X55411906Y-4117845D01*
X55442499Y-4113000D01*
X58544599Y-4113000D01*
X58602790Y-4131907D01*
X58614603Y-4141996D01*
X58809504Y-4336897D01*
X58837281Y-4391414D01*
X58838500Y-4406901D01*
X58838500Y-4822866D01*
X58838501Y-4822870D01*
X58844908Y-4882480D01*
X58844909Y-4882485D01*
X58895202Y-5017329D01*
X58981450Y-5132541D01*
X58981454Y-5132546D01*
X58981457Y-5132548D01*
X58981458Y-5132549D01*
X59096670Y-5218797D01*
X59231511Y-5269089D01*
X59231512Y-5269089D01*
X59231517Y-5269091D01*
X59291127Y-5275500D01*
X59707098Y-5275499D01*
X59765289Y-5294406D01*
X59777101Y-5304495D01*
X60096486Y-5623879D01*
X60096491Y-5623883D01*
X60187808Y-5676605D01*
X60187806Y-5676605D01*
X60187810Y-5676606D01*
X60187812Y-5676607D01*
X60289673Y-5703900D01*
X60289675Y-5703900D01*
X65333325Y-5703900D01*
X65333327Y-5703900D01*
X65435188Y-5676607D01*
X65435190Y-5676605D01*
X65435192Y-5676605D01*
X65526508Y-5623883D01*
X65526508Y-5623882D01*
X65526513Y-5623880D01*
X65845896Y-5304495D01*
X65900413Y-5276718D01*
X65915900Y-5275499D01*
X66252098Y-5275499D01*
X66310289Y-5294406D01*
X66322101Y-5304495D01*
X66627686Y-5610079D01*
X66627691Y-5610083D01*
X66719008Y-5662805D01*
X66719006Y-5662805D01*
X66719010Y-5662806D01*
X66719012Y-5662807D01*
X66820873Y-5690100D01*
X66820875Y-5690100D01*
X71768125Y-5690100D01*
X71768127Y-5690100D01*
X71869988Y-5662807D01*
X71869990Y-5662805D01*
X71869992Y-5662805D01*
X71961313Y-5610080D01*
X71961314Y-5610079D01*
X72030262Y-5541129D01*
X72084776Y-5513352D01*
X72117050Y-5514815D01*
X72117134Y-5514120D01*
X72123435Y-5514876D01*
X72123436Y-5514877D01*
X72211898Y-5525500D01*
X72211900Y-5525500D01*
X72798100Y-5525500D01*
X72798102Y-5525500D01*
X72886564Y-5514877D01*
X73027342Y-5459361D01*
X73147922Y-5367922D01*
X73239361Y-5247342D01*
X73294877Y-5106564D01*
X73305500Y-5018102D01*
X73305500Y-4306901D01*
X73324407Y-4248710D01*
X73334496Y-4236897D01*
X73676897Y-3894496D01*
X73731414Y-3866719D01*
X73746901Y-3865500D01*
X77808099Y-3865500D01*
X77866290Y-3884407D01*
G37*
%TD.AperFunction*%
%TA.AperFunction,Conductor*%
G36*
X37124978Y-19124455D02*
G01*
X37200009Y-19157585D01*
X37225135Y-19160500D01*
X38214864Y-19160499D01*
X38239991Y-19157585D01*
X38281039Y-19139459D01*
X38341907Y-19133251D01*
X38361016Y-19139459D01*
X38367233Y-19142204D01*
X38367235Y-19142206D01*
X38470009Y-19187585D01*
X38495135Y-19190500D01*
X39484864Y-19190499D01*
X39509991Y-19187585D01*
X39560511Y-19165277D01*
X39621381Y-19159069D01*
X39674274Y-19189824D01*
X39698989Y-19245796D01*
X39699500Y-19255842D01*
X39699500Y-19874860D01*
X39699501Y-19874863D01*
X39702414Y-19899990D01*
X39735540Y-19975012D01*
X39741748Y-20035882D01*
X39735540Y-20054987D01*
X39702415Y-20130009D01*
X39702414Y-20130011D01*
X39699500Y-20155130D01*
X39699500Y-21144860D01*
X39699501Y-21144863D01*
X39702414Y-21169990D01*
X39735540Y-21245012D01*
X39741748Y-21305882D01*
X39735540Y-21324987D01*
X39702415Y-21400009D01*
X39702414Y-21400011D01*
X39699500Y-21425130D01*
X39699500Y-22414860D01*
X39699501Y-22414863D01*
X39702414Y-22439990D01*
X39735540Y-22515012D01*
X39741748Y-22575882D01*
X39735540Y-22594987D01*
X39702415Y-22670009D01*
X39702414Y-22670011D01*
X39699500Y-22695130D01*
X39699500Y-23684860D01*
X39699501Y-23684863D01*
X39702414Y-23709990D01*
X39735540Y-23785012D01*
X39741748Y-23845882D01*
X39735540Y-23864987D01*
X39702415Y-23940009D01*
X39702414Y-23940011D01*
X39699500Y-23965130D01*
X39699500Y-24954860D01*
X39699501Y-24954863D01*
X39702414Y-24979990D01*
X39735540Y-25055012D01*
X39741748Y-25115882D01*
X39735540Y-25134987D01*
X39702415Y-25210009D01*
X39702414Y-25210011D01*
X39699500Y-25235130D01*
X39699500Y-26086339D01*
X39680593Y-26144530D01*
X39631093Y-26180494D01*
X39569907Y-26180494D01*
X39551000Y-26172076D01*
X39550318Y-26171682D01*
X39550316Y-26171680D01*
X39413384Y-26092623D01*
X39260657Y-26051700D01*
X39102543Y-26051700D01*
X38949816Y-26092623D01*
X38812884Y-26171680D01*
X38701080Y-26283484D01*
X38622023Y-26420416D01*
X38581100Y-26573143D01*
X38581100Y-26731257D01*
X38622023Y-26883984D01*
X38701080Y-27020916D01*
X38752105Y-27071941D01*
X38779881Y-27126456D01*
X38781100Y-27141943D01*
X38781100Y-35936673D01*
X38781100Y-36042127D01*
X38793851Y-36089715D01*
X38808394Y-36143992D01*
X38861116Y-36235308D01*
X38861118Y-36235310D01*
X38861120Y-36235313D01*
X39631487Y-37005680D01*
X39631489Y-37005681D01*
X39631491Y-37005683D01*
X39722808Y-37058405D01*
X39722806Y-37058405D01*
X39722810Y-37058406D01*
X39722812Y-37058407D01*
X39824673Y-37085700D01*
X41156300Y-37085700D01*
X41214491Y-37104607D01*
X41250455Y-37154107D01*
X41255300Y-37184700D01*
X41255300Y-44012299D01*
X41236393Y-44070490D01*
X41186893Y-44106454D01*
X41125707Y-44106454D01*
X41086296Y-44082303D01*
X35609496Y-38605503D01*
X35581719Y-38550986D01*
X35580500Y-38535499D01*
X35580500Y-19259396D01*
X35599407Y-19201205D01*
X35648690Y-19165312D01*
X35663388Y-19160499D01*
X35674864Y-19160499D01*
X35699991Y-19157585D01*
X35779523Y-19122468D01*
X35784190Y-19120940D01*
X35810104Y-19120880D01*
X35835881Y-19118251D01*
X35843734Y-19120802D01*
X35845376Y-19120799D01*
X35846724Y-19121774D01*
X35854978Y-19124455D01*
X35930009Y-19157585D01*
X35955135Y-19160500D01*
X36944864Y-19160499D01*
X36969991Y-19157585D01*
X37045012Y-19124459D01*
X37105881Y-19118251D01*
X37124978Y-19124455D01*
G37*
%TD.AperFunction*%
%TA.AperFunction,Conductor*%
G36*
X41922103Y-28196987D02*
G01*
X41930091Y-28196987D01*
X41969500Y-28221136D01*
X42044884Y-28296520D01*
X42181816Y-28375577D01*
X42334543Y-28416500D01*
X42334547Y-28416500D01*
X42337145Y-28417196D01*
X42381526Y-28442819D01*
X44179203Y-30240496D01*
X44206980Y-30295013D01*
X44197409Y-30355445D01*
X44154144Y-30398710D01*
X44109199Y-30409500D01*
X41899396Y-30409500D01*
X41841205Y-30390593D01*
X41805312Y-30341309D01*
X41800499Y-30326611D01*
X41800499Y-30315136D01*
X41797585Y-30290009D01*
X41762470Y-30210482D01*
X41760940Y-30205808D01*
X41760880Y-30179893D01*
X41758251Y-30154118D01*
X41760802Y-30146264D01*
X41760799Y-30144623D01*
X41761774Y-30143273D01*
X41764457Y-30135018D01*
X41797585Y-30059991D01*
X41800500Y-30034865D01*
X41800499Y-29045136D01*
X41797585Y-29020009D01*
X41795481Y-29015243D01*
X41764460Y-28944987D01*
X41758251Y-28884118D01*
X41764457Y-28865018D01*
X41797585Y-28789991D01*
X41800500Y-28764865D01*
X41800499Y-28291140D01*
X41807662Y-28269094D01*
X41811289Y-28246197D01*
X41816937Y-28240548D01*
X41819406Y-28232951D01*
X41838162Y-28219323D01*
X41854554Y-28202932D01*
X41862443Y-28201682D01*
X41868906Y-28196987D01*
X41892091Y-28196987D01*
X41914986Y-28193361D01*
X41922103Y-28196987D01*
G37*
%TD.AperFunction*%
%TA.AperFunction,Conductor*%
G36*
X52062090Y-4137207D02*
G01*
X52073903Y-4147296D01*
X52263504Y-4336897D01*
X52291281Y-4391414D01*
X52292500Y-4406901D01*
X52292500Y-4822866D01*
X52292501Y-4822870D01*
X52298908Y-4882480D01*
X52298909Y-4882485D01*
X52349202Y-5017329D01*
X52435450Y-5132541D01*
X52435454Y-5132546D01*
X52435457Y-5132548D01*
X52435458Y-5132549D01*
X52550670Y-5218797D01*
X52685511Y-5269089D01*
X52685512Y-5269089D01*
X52685517Y-5269091D01*
X52745127Y-5275500D01*
X53240872Y-5275499D01*
X53300483Y-5269091D01*
X53414078Y-5226723D01*
X53435329Y-5218797D01*
X53435329Y-5218796D01*
X53435331Y-5218796D01*
X53550546Y-5132546D01*
X53636796Y-5017331D01*
X53687091Y-4882483D01*
X53693500Y-4822873D01*
X53693499Y-4406899D01*
X53695967Y-4399302D01*
X53694718Y-4391413D01*
X53705242Y-4370757D01*
X53712406Y-4348709D01*
X53722488Y-4336903D01*
X53773498Y-4285893D01*
X53828013Y-4258118D01*
X53888445Y-4267689D01*
X53931710Y-4310954D01*
X53942500Y-4355899D01*
X53942500Y-4822866D01*
X53942501Y-4822870D01*
X53948908Y-4882480D01*
X53948909Y-4882485D01*
X53999202Y-5017329D01*
X54085450Y-5132541D01*
X54085454Y-5132546D01*
X54085457Y-5132548D01*
X54085458Y-5132549D01*
X54202829Y-5220413D01*
X54238082Y-5270421D01*
X54242500Y-5299666D01*
X54242500Y-25318499D01*
X54223593Y-25376690D01*
X54213504Y-25388503D01*
X49796603Y-29805404D01*
X49742086Y-29833181D01*
X49726599Y-29834400D01*
X44946901Y-29834400D01*
X44888710Y-29815493D01*
X44876897Y-29805404D01*
X43990997Y-28919504D01*
X43963220Y-28864987D01*
X43972791Y-28804555D01*
X44016056Y-28761290D01*
X44061001Y-28750500D01*
X44518100Y-28750500D01*
X44518102Y-28750500D01*
X44606564Y-28739877D01*
X44747342Y-28684361D01*
X44867922Y-28592922D01*
X44959361Y-28472342D01*
X45014877Y-28331564D01*
X45025500Y-28243102D01*
X45025500Y-27656898D01*
X45014877Y-27568436D01*
X44959361Y-27427658D01*
X44867922Y-27307078D01*
X44747342Y-27215639D01*
X44747341Y-27215638D01*
X44747339Y-27215637D01*
X44606565Y-27160123D01*
X44518106Y-27149500D01*
X44518102Y-27149500D01*
X43806901Y-27149500D01*
X43748710Y-27130593D01*
X43736897Y-27120504D01*
X43399096Y-26782703D01*
X43371319Y-26728186D01*
X43370100Y-26712699D01*
X43370100Y-23560531D01*
X43389007Y-23502340D01*
X43438507Y-23466376D01*
X43499693Y-23466376D01*
X43505400Y-23468427D01*
X43624410Y-23515359D01*
X43708856Y-23525500D01*
X43708858Y-23525500D01*
X44291142Y-23525500D01*
X44291144Y-23525500D01*
X44375590Y-23515359D01*
X44509975Y-23462364D01*
X44625078Y-23375078D01*
X44712364Y-23259975D01*
X44717135Y-23247876D01*
X44720959Y-23238181D01*
X44759895Y-23190984D01*
X44813056Y-23175500D01*
X45417000Y-23175500D01*
X45475191Y-23194407D01*
X45511155Y-23243907D01*
X45516000Y-23274500D01*
X45516000Y-24413756D01*
X45497093Y-24471947D01*
X45487004Y-24483759D01*
X45435982Y-24534781D01*
X45435980Y-24534783D01*
X45435980Y-24534784D01*
X45356923Y-24671716D01*
X45316000Y-24824443D01*
X45316000Y-24982557D01*
X45356923Y-25135284D01*
X45435980Y-25272216D01*
X45547784Y-25384020D01*
X45684716Y-25463077D01*
X45837443Y-25504000D01*
X45837445Y-25504000D01*
X45995555Y-25504000D01*
X45995557Y-25504000D01*
X46148284Y-25463077D01*
X46285216Y-25384020D01*
X46397020Y-25272216D01*
X46476077Y-25135284D01*
X46517000Y-24982557D01*
X46517000Y-24824443D01*
X46476077Y-24671716D01*
X46397020Y-24534784D01*
X46397017Y-24534781D01*
X46345996Y-24483759D01*
X46318219Y-24429242D01*
X46317000Y-24413756D01*
X46317000Y-22981900D01*
X46335907Y-22923709D01*
X46345990Y-22911902D01*
X48418480Y-20839413D01*
X48445932Y-20791866D01*
X48471205Y-20748092D01*
X48471205Y-20748090D01*
X48471207Y-20748088D01*
X48498500Y-20646227D01*
X48498500Y-20540773D01*
X48498500Y-5299666D01*
X48517407Y-5241475D01*
X48538171Y-5220413D01*
X48554063Y-5208516D01*
X48655546Y-5132546D01*
X48741796Y-5017331D01*
X48792091Y-4882483D01*
X48798500Y-4822873D01*
X48798499Y-4217299D01*
X48817406Y-4159109D01*
X48866906Y-4123145D01*
X48897499Y-4118300D01*
X52003899Y-4118300D01*
X52062090Y-4137207D01*
G37*
%TD.AperFunction*%
%TA.AperFunction,Conductor*%
G36*
X34548517Y-5208516D02*
G01*
X34562899Y-5217471D01*
X34564670Y-5218797D01*
X34699511Y-5269089D01*
X34699512Y-5269089D01*
X34699517Y-5269091D01*
X34759127Y-5275500D01*
X35230598Y-5275499D01*
X35288789Y-5294406D01*
X35300602Y-5304495D01*
X37100100Y-7103993D01*
X38879443Y-8883335D01*
X38907220Y-8937852D01*
X38897649Y-8998284D01*
X38865253Y-9032428D01*
X38866330Y-9033831D01*
X38861190Y-9037774D01*
X38861184Y-9037780D01*
X38749380Y-9149584D01*
X38670323Y-9286516D01*
X38629400Y-9439243D01*
X38629400Y-9597357D01*
X38670323Y-9750084D01*
X38749380Y-9887016D01*
X38800405Y-9938041D01*
X38828181Y-9992556D01*
X38829400Y-10008043D01*
X38829400Y-12066473D01*
X38829400Y-12171927D01*
X38845956Y-12233716D01*
X38856694Y-12273792D01*
X38909416Y-12365108D01*
X38909418Y-12365110D01*
X38909420Y-12365113D01*
X39213005Y-12668698D01*
X39240781Y-12723213D01*
X39242000Y-12738700D01*
X39242000Y-12810857D01*
X39282923Y-12963584D01*
X39361980Y-13100516D01*
X39473784Y-13212320D01*
X39610716Y-13291377D01*
X39763443Y-13332300D01*
X39763445Y-13332300D01*
X39921555Y-13332300D01*
X39921557Y-13332300D01*
X40074284Y-13291377D01*
X40211216Y-13212320D01*
X40323020Y-13100516D01*
X40402077Y-12963584D01*
X40443000Y-12810857D01*
X40443000Y-12652743D01*
X40402077Y-12500016D01*
X40323020Y-12363084D01*
X40211216Y-12251280D01*
X40074284Y-12172223D01*
X39921557Y-12131300D01*
X39921555Y-12131300D01*
X39849401Y-12131300D01*
X39841803Y-12128831D01*
X39833914Y-12130081D01*
X39813258Y-12119556D01*
X39791210Y-12112393D01*
X39779397Y-12102304D01*
X39659396Y-11982303D01*
X39631619Y-11927786D01*
X39630400Y-11912299D01*
X39630400Y-10008043D01*
X39649307Y-9949852D01*
X39659390Y-9938045D01*
X39710420Y-9887016D01*
X39710422Y-9887011D01*
X39710424Y-9887010D01*
X39714373Y-9881865D01*
X39715978Y-9883097D01*
X39754562Y-9848333D01*
X39815410Y-9841916D01*
X39864864Y-9868756D01*
X42573504Y-12577396D01*
X42601281Y-12631913D01*
X42602500Y-12647400D01*
X42602500Y-16901856D01*
X42583593Y-16960047D01*
X42573504Y-16971859D01*
X42522482Y-17022881D01*
X42522480Y-17022883D01*
X42522480Y-17022884D01*
X42443423Y-17159816D01*
X42402500Y-17312543D01*
X42402500Y-17470657D01*
X42443423Y-17623384D01*
X42522480Y-17760316D01*
X42634284Y-17872120D01*
X42771216Y-17951177D01*
X42923943Y-17992100D01*
X42923945Y-17992100D01*
X42977499Y-17992100D01*
X43035690Y-18011007D01*
X43071654Y-18060507D01*
X43071654Y-18121693D01*
X43047503Y-18161103D01*
X42649120Y-18559486D01*
X42649116Y-18559491D01*
X42596394Y-18650807D01*
X42596393Y-18650812D01*
X42576813Y-18723886D01*
X42576813Y-18723887D01*
X42576812Y-18723886D01*
X42569100Y-18752671D01*
X42569100Y-18752673D01*
X42569100Y-26866873D01*
X42569100Y-26972327D01*
X42596393Y-27074188D01*
X42596394Y-27074189D01*
X42598667Y-27079678D01*
X42599032Y-27084320D01*
X42601723Y-27088121D01*
X42601401Y-27114438D01*
X42603465Y-27140675D01*
X42601031Y-27144644D01*
X42600975Y-27149301D01*
X42585246Y-27170402D01*
X42571493Y-27192843D01*
X42567190Y-27194624D01*
X42564408Y-27198358D01*
X42548922Y-27202190D01*
X42514964Y-27216255D01*
X42505991Y-27216553D01*
X42496137Y-27216432D01*
X42492657Y-27215500D01*
X42419864Y-27215500D01*
X42419291Y-27215493D01*
X42390867Y-27205871D01*
X42362310Y-27196593D01*
X42361557Y-27195950D01*
X42361335Y-27195875D01*
X42361129Y-27195584D01*
X42350497Y-27186504D01*
X42231196Y-27067203D01*
X42203419Y-27012686D01*
X42202200Y-26997199D01*
X42202200Y-19327274D01*
X42198963Y-19315192D01*
X42174907Y-19225413D01*
X42154749Y-19190499D01*
X42125282Y-19139460D01*
X42122180Y-19134087D01*
X42047613Y-19059520D01*
X42047610Y-19059518D01*
X41956290Y-19006794D01*
X41956287Y-19006793D01*
X41873875Y-18984711D01*
X41822561Y-18951386D01*
X41800635Y-18894265D01*
X41800499Y-18889084D01*
X41800499Y-18885139D01*
X41800499Y-18885136D01*
X41797585Y-18860009D01*
X41752206Y-18757235D01*
X41672765Y-18677794D01*
X41569991Y-18632415D01*
X41569990Y-18632414D01*
X41569988Y-18632414D01*
X41544868Y-18629500D01*
X39955139Y-18629500D01*
X39955136Y-18629501D01*
X39930009Y-18632414D01*
X39930007Y-18632415D01*
X39879486Y-18654722D01*
X39818616Y-18660929D01*
X39765723Y-18630173D01*
X39741010Y-18574201D01*
X39740499Y-18564157D01*
X39740499Y-17345139D01*
X39740499Y-17345136D01*
X39737585Y-17320009D01*
X39692206Y-17217235D01*
X39612765Y-17137794D01*
X39509991Y-17092415D01*
X39509990Y-17092414D01*
X39509988Y-17092414D01*
X39484868Y-17089500D01*
X38495139Y-17089500D01*
X38495136Y-17089501D01*
X38470009Y-17092414D01*
X38470007Y-17092415D01*
X38428958Y-17110540D01*
X38368089Y-17116748D01*
X38348983Y-17110540D01*
X38342765Y-17107794D01*
X38239991Y-17062415D01*
X38239990Y-17062414D01*
X38239988Y-17062414D01*
X38214868Y-17059500D01*
X37225139Y-17059500D01*
X37225136Y-17059501D01*
X37200009Y-17062414D01*
X37124987Y-17095540D01*
X37064117Y-17101748D01*
X37045015Y-17095541D01*
X36969991Y-17062415D01*
X36969990Y-17062414D01*
X36969988Y-17062414D01*
X36944868Y-17059500D01*
X35955139Y-17059500D01*
X35955136Y-17059501D01*
X35930009Y-17062414D01*
X35854987Y-17095540D01*
X35849688Y-17096080D01*
X35845374Y-17099200D01*
X35827974Y-17098294D01*
X35794117Y-17101748D01*
X35784189Y-17099059D01*
X35779516Y-17097528D01*
X35699991Y-17062415D01*
X35674865Y-17059500D01*
X35663390Y-17059500D01*
X35648690Y-17054686D01*
X35633868Y-17043864D01*
X35616773Y-17037194D01*
X35609760Y-17026263D01*
X35599273Y-17018607D01*
X35593642Y-17001141D01*
X35583733Y-16985696D01*
X35580500Y-16960602D01*
X35580500Y-7530474D01*
X35580500Y-7530473D01*
X35561365Y-7459059D01*
X35559018Y-7450298D01*
X35559018Y-7450297D01*
X35554758Y-7434400D01*
X35553207Y-7428612D01*
X35553205Y-7428608D01*
X35500483Y-7337291D01*
X35500479Y-7337286D01*
X35060196Y-6897002D01*
X35032419Y-6842486D01*
X35031200Y-6826999D01*
X35031200Y-6754844D01*
X35026489Y-6737261D01*
X34990277Y-6602116D01*
X34911220Y-6465184D01*
X34799416Y-6353380D01*
X34662484Y-6274323D01*
X34509757Y-6233400D01*
X34351643Y-6233400D01*
X34288023Y-6250447D01*
X34226921Y-6247244D01*
X34179371Y-6208739D01*
X34163400Y-6154820D01*
X34163400Y-5537899D01*
X34182307Y-5479708D01*
X34192390Y-5467902D01*
X34433570Y-5226721D01*
X34488085Y-5198945D01*
X34548517Y-5208516D01*
G37*
%TD.AperFunction*%
%TA.AperFunction,Conductor*%
G36*
X18373601Y-22047394D02*
G01*
X21106687Y-24780480D01*
X21106689Y-24780481D01*
X21106691Y-24780483D01*
X21198008Y-24833205D01*
X21198006Y-24833205D01*
X21198010Y-24833206D01*
X21198012Y-24833207D01*
X21299873Y-24860500D01*
X21405327Y-24860500D01*
X22100604Y-24860500D01*
X22158795Y-24879407D01*
X22194688Y-24928691D01*
X22199501Y-24943388D01*
X22199501Y-24954864D01*
X22202415Y-24979991D01*
X22237526Y-25059511D01*
X22239059Y-25064191D01*
X22239118Y-25090101D01*
X22241748Y-25115882D01*
X22239196Y-25123735D01*
X22239200Y-25125376D01*
X22238224Y-25126724D01*
X22235540Y-25134987D01*
X22202415Y-25210009D01*
X22202414Y-25210011D01*
X22199500Y-25235130D01*
X22199500Y-26224860D01*
X22199501Y-26224868D01*
X22200182Y-26230738D01*
X22188103Y-26290719D01*
X22143074Y-26332145D01*
X22082296Y-26339192D01*
X22031837Y-26312144D01*
X20065896Y-24346203D01*
X20038119Y-24291686D01*
X20036900Y-24276199D01*
X20036900Y-24204044D01*
X20033397Y-24190970D01*
X19995977Y-24051316D01*
X19916920Y-23914384D01*
X19805116Y-23802580D01*
X19668184Y-23723523D01*
X19515457Y-23682600D01*
X19357343Y-23682600D01*
X19204616Y-23723523D01*
X19067684Y-23802580D01*
X18955880Y-23914384D01*
X18876821Y-24051318D01*
X18876821Y-24051319D01*
X18851293Y-24146590D01*
X18817969Y-24197904D01*
X18760847Y-24219830D01*
X18701747Y-24203994D01*
X18685663Y-24190970D01*
X18233596Y-23738903D01*
X18205819Y-23684386D01*
X18204600Y-23668899D01*
X18204600Y-22117400D01*
X18223507Y-22059209D01*
X18273007Y-22023245D01*
X18334193Y-22023245D01*
X18373601Y-22047394D01*
G37*
%TD.AperFunction*%
%TA.AperFunction,Conductor*%
G36*
X22145444Y-20517632D02*
G01*
X22188709Y-20560896D01*
X22199500Y-20605842D01*
X22199500Y-21144860D01*
X22199501Y-21144863D01*
X22202414Y-21169990D01*
X22235540Y-21245012D01*
X22241748Y-21305882D01*
X22235540Y-21324987D01*
X22202415Y-21400009D01*
X22202414Y-21400011D01*
X22199500Y-21425130D01*
X22199500Y-21425132D01*
X22199500Y-21425135D01*
X22199500Y-21655316D01*
X22199501Y-21854600D01*
X22180594Y-21912791D01*
X22131094Y-21948755D01*
X22100501Y-21953600D01*
X21565199Y-21953600D01*
X21557601Y-21951131D01*
X21549711Y-21952381D01*
X21529057Y-21941857D01*
X21507008Y-21934693D01*
X21495195Y-21924603D01*
X21424296Y-21853703D01*
X21396519Y-21799186D01*
X21395300Y-21783700D01*
X21395300Y-20817391D01*
X21414207Y-20759200D01*
X21463707Y-20723236D01*
X21510778Y-20722005D01*
X21511009Y-20720253D01*
X21517442Y-20721100D01*
X21517443Y-20721100D01*
X21675555Y-20721100D01*
X21675557Y-20721100D01*
X21828284Y-20680177D01*
X21965216Y-20601120D01*
X22030498Y-20535837D01*
X22085012Y-20508061D01*
X22145444Y-20517632D01*
G37*
%TD.AperFunction*%
%TA.AperFunction,Conductor*%
G36*
X28137204Y-8810096D02*
G01*
X28140518Y-8813410D01*
X28140520Y-8813413D01*
X28846315Y-9519207D01*
X29520704Y-10193596D01*
X29548481Y-10248113D01*
X29549700Y-10263600D01*
X29549700Y-10335757D01*
X29590623Y-10488484D01*
X29669680Y-10625416D01*
X29781484Y-10737220D01*
X29795417Y-10745264D01*
X29803457Y-10749906D01*
X29844397Y-10795376D01*
X29850792Y-10856226D01*
X29823960Y-10905646D01*
X24090403Y-16639204D01*
X24035886Y-16666981D01*
X24020399Y-16668200D01*
X23932327Y-16668200D01*
X23826873Y-16668200D01*
X23764529Y-16684904D01*
X23725007Y-16695494D01*
X23633691Y-16748216D01*
X21564304Y-18817603D01*
X21509787Y-18845380D01*
X21449355Y-18835809D01*
X21406090Y-18792544D01*
X21395300Y-18747599D01*
X21395300Y-16206900D01*
X21414207Y-16148709D01*
X21463707Y-16112745D01*
X21494300Y-16107900D01*
X22688025Y-16107900D01*
X22688027Y-16107900D01*
X22789888Y-16080607D01*
X22789890Y-16080605D01*
X22789892Y-16080605D01*
X22881208Y-16027883D01*
X22881208Y-16027882D01*
X22881213Y-16027880D01*
X27888180Y-11020913D01*
X27940907Y-10929588D01*
X27968200Y-10827727D01*
X27968200Y-10722273D01*
X27968200Y-8880100D01*
X27987107Y-8821909D01*
X28036607Y-8785945D01*
X28097793Y-8785945D01*
X28137204Y-8810096D01*
G37*
%TD.AperFunction*%
%TA.AperFunction,Conductor*%
G36*
X34351643Y-7434400D02*
G01*
X34423799Y-7434400D01*
X34481990Y-7453307D01*
X34493803Y-7463396D01*
X34750504Y-7720097D01*
X34778281Y-7774614D01*
X34779500Y-7790101D01*
X34779500Y-16960603D01*
X34760593Y-17018794D01*
X34711309Y-17054687D01*
X34696608Y-17059500D01*
X34685136Y-17059501D01*
X34660009Y-17062415D01*
X34580491Y-17097525D01*
X34575808Y-17099059D01*
X34549897Y-17099118D01*
X34524117Y-17101748D01*
X34516263Y-17099196D01*
X34514623Y-17099200D01*
X34513274Y-17098225D01*
X34505015Y-17095541D01*
X34429991Y-17062415D01*
X34429990Y-17062414D01*
X34429988Y-17062414D01*
X34404868Y-17059500D01*
X33415139Y-17059500D01*
X33415136Y-17059501D01*
X33390009Y-17062414D01*
X33314987Y-17095540D01*
X33254117Y-17101748D01*
X33235015Y-17095541D01*
X33159991Y-17062415D01*
X33159990Y-17062414D01*
X33159988Y-17062414D01*
X33134868Y-17059500D01*
X32145139Y-17059500D01*
X32145136Y-17059501D01*
X32120009Y-17062414D01*
X32044987Y-17095540D01*
X31984117Y-17101748D01*
X31965015Y-17095541D01*
X31889991Y-17062415D01*
X31889990Y-17062414D01*
X31889988Y-17062414D01*
X31864868Y-17059500D01*
X30875139Y-17059500D01*
X30875136Y-17059501D01*
X30850009Y-17062414D01*
X30774987Y-17095540D01*
X30714117Y-17101748D01*
X30695015Y-17095541D01*
X30619991Y-17062415D01*
X30619990Y-17062414D01*
X30619988Y-17062414D01*
X30594868Y-17059500D01*
X29605139Y-17059500D01*
X29605136Y-17059501D01*
X29580009Y-17062414D01*
X29504987Y-17095540D01*
X29444117Y-17101748D01*
X29425015Y-17095541D01*
X29349991Y-17062415D01*
X29349990Y-17062414D01*
X29349988Y-17062414D01*
X29324868Y-17059500D01*
X28335139Y-17059500D01*
X28335136Y-17059501D01*
X28310009Y-17062414D01*
X28229987Y-17097748D01*
X28169117Y-17103956D01*
X28150018Y-17097750D01*
X28069991Y-17062415D01*
X28069988Y-17062414D01*
X28044868Y-17059500D01*
X27055139Y-17059500D01*
X27055136Y-17059501D01*
X27030009Y-17062414D01*
X26954987Y-17095540D01*
X26894117Y-17101748D01*
X26875015Y-17095541D01*
X26799991Y-17062415D01*
X26799990Y-17062414D01*
X26799988Y-17062414D01*
X26774868Y-17059500D01*
X25785139Y-17059500D01*
X25785136Y-17059501D01*
X25760009Y-17062414D01*
X25684987Y-17095540D01*
X25624117Y-17101748D01*
X25605015Y-17095541D01*
X25529991Y-17062415D01*
X25529990Y-17062414D01*
X25529988Y-17062414D01*
X25504869Y-17059500D01*
X25504865Y-17059500D01*
X25041900Y-17059500D01*
X24983709Y-17040593D01*
X24947745Y-16991093D01*
X24947745Y-16929907D01*
X24971896Y-16890496D01*
X33193396Y-8668996D01*
X33247913Y-8641219D01*
X33308345Y-8650790D01*
X33351610Y-8694055D01*
X33362400Y-8739000D01*
X33362400Y-15093656D01*
X33343493Y-15151847D01*
X33333404Y-15163659D01*
X33282382Y-15214681D01*
X33282380Y-15214683D01*
X33282380Y-15214684D01*
X33203323Y-15351616D01*
X33162400Y-15504343D01*
X33162400Y-15662457D01*
X33203323Y-15815184D01*
X33282380Y-15952116D01*
X33394184Y-16063920D01*
X33531116Y-16142977D01*
X33683843Y-16183900D01*
X33683845Y-16183900D01*
X33841955Y-16183900D01*
X33841957Y-16183900D01*
X33994684Y-16142977D01*
X34131616Y-16063920D01*
X34243420Y-15952116D01*
X34322477Y-15815184D01*
X34363400Y-15662457D01*
X34363400Y-15504343D01*
X34322477Y-15351616D01*
X34243420Y-15214684D01*
X34236636Y-15207900D01*
X34192396Y-15163659D01*
X34164619Y-15109142D01*
X34163400Y-15093656D01*
X34163400Y-7512979D01*
X34172093Y-7486221D01*
X34179372Y-7459059D01*
X34181471Y-7457358D01*
X34182307Y-7454788D01*
X34205065Y-7438252D01*
X34226922Y-7420554D01*
X34229620Y-7420412D01*
X34231807Y-7418824D01*
X34288022Y-7417353D01*
X34351643Y-7434400D01*
G37*
%TD.AperFunction*%
%TA.AperFunction,Conductor*%
G36*
X12995751Y-3991007D02*
G01*
X13031715Y-4040507D01*
X13031715Y-4101693D01*
X13030318Y-4105697D01*
X13025910Y-4117514D01*
X13025908Y-4117522D01*
X13019500Y-4177129D01*
X13019500Y-4822866D01*
X13019501Y-4822870D01*
X13025908Y-4882480D01*
X13025909Y-4882485D01*
X13076202Y-5017329D01*
X13162450Y-5132541D01*
X13162454Y-5132546D01*
X13162457Y-5132548D01*
X13162458Y-5132549D01*
X13279829Y-5220413D01*
X13315082Y-5270421D01*
X13319500Y-5299666D01*
X13319500Y-9632373D01*
X13319500Y-9737827D01*
X13343570Y-9827659D01*
X13346794Y-9839692D01*
X13399516Y-9931008D01*
X13399518Y-9931010D01*
X13399520Y-9931013D01*
X16309105Y-12840598D01*
X16336881Y-12895113D01*
X16338100Y-12910600D01*
X16338100Y-15401499D01*
X16319193Y-15459690D01*
X16269693Y-15495654D01*
X16208507Y-15495654D01*
X16169096Y-15471503D01*
X13781700Y-13084107D01*
X11333513Y-10635920D01*
X11333510Y-10635918D01*
X11333509Y-10635917D01*
X11333508Y-10635916D01*
X11242191Y-10583194D01*
X11242193Y-10583194D01*
X11185855Y-10568099D01*
X11140327Y-10555900D01*
X11140325Y-10555900D01*
X10931608Y-10555900D01*
X10873417Y-10536993D01*
X10837453Y-10487493D01*
X10835982Y-10431275D01*
X10836330Y-10429977D01*
X10837300Y-10426357D01*
X10837300Y-10268243D01*
X10796377Y-10115516D01*
X10717320Y-9978584D01*
X10605516Y-9866780D01*
X10468584Y-9787723D01*
X10315857Y-9746800D01*
X10315855Y-9746800D01*
X10243700Y-9746800D01*
X10185509Y-9727893D01*
X10173696Y-9717804D01*
X9254496Y-8798603D01*
X9226719Y-8744086D01*
X9225500Y-8728599D01*
X9225500Y-5299666D01*
X9244407Y-5241475D01*
X9265171Y-5220413D01*
X9281063Y-5208516D01*
X9382546Y-5132546D01*
X9468796Y-5017331D01*
X9519091Y-4882483D01*
X9525500Y-4822873D01*
X9525499Y-4177128D01*
X9524172Y-4164779D01*
X9536749Y-4104905D01*
X9582121Y-4063856D01*
X9622604Y-4055200D01*
X11099400Y-4055200D01*
X11157591Y-4074107D01*
X11193555Y-4123607D01*
X11198400Y-4154200D01*
X11198400Y-7769199D01*
X11179493Y-7827390D01*
X11169404Y-7839203D01*
X11013103Y-7995504D01*
X10958586Y-8023281D01*
X10943099Y-8024500D01*
X10508851Y-8024500D01*
X10424408Y-8034641D01*
X10290027Y-8087634D01*
X10174922Y-8174922D01*
X10087634Y-8290027D01*
X10034641Y-8424408D01*
X10024500Y-8508851D01*
X10024500Y-9041148D01*
X10034641Y-9125591D01*
X10087634Y-9259972D01*
X10087635Y-9259974D01*
X10087636Y-9259975D01*
X10174922Y-9375078D01*
X10290025Y-9462364D01*
X10290026Y-9462364D01*
X10290027Y-9462365D01*
X10345141Y-9484099D01*
X10424410Y-9515359D01*
X10508856Y-9525500D01*
X10508858Y-9525500D01*
X11091142Y-9525500D01*
X11091144Y-9525500D01*
X11175590Y-9515359D01*
X11309975Y-9462364D01*
X11425078Y-9375078D01*
X11512364Y-9259975D01*
X11565359Y-9125590D01*
X11575500Y-9041144D01*
X11575500Y-8606900D01*
X11594407Y-8548709D01*
X11604490Y-8536902D01*
X11919380Y-8222013D01*
X11932316Y-8199607D01*
X11972105Y-8130692D01*
X11972105Y-8130690D01*
X11972107Y-8130688D01*
X11999400Y-8028827D01*
X11999400Y-7923373D01*
X11999400Y-4071100D01*
X12018307Y-4012909D01*
X12067807Y-3976945D01*
X12098400Y-3972100D01*
X12937560Y-3972100D01*
X12995751Y-3991007D01*
G37*
%TD.AperFunction*%
%TA.AperFunction,Conductor*%
G36*
X6068930Y-14218507D02*
G01*
X6082647Y-14231871D01*
X6082992Y-14231527D01*
X6087578Y-14236113D01*
X6087580Y-14236116D01*
X6199384Y-14347920D01*
X6336316Y-14426977D01*
X6489043Y-14467900D01*
X6489045Y-14467900D01*
X6647155Y-14467900D01*
X6647157Y-14467900D01*
X6799884Y-14426977D01*
X6936816Y-14347920D01*
X6951368Y-14333367D01*
X7005881Y-14305590D01*
X7066314Y-14315160D01*
X7109579Y-14358424D01*
X7118469Y-14384056D01*
X7134106Y-14462667D01*
X7201985Y-14626544D01*
X7201985Y-14626545D01*
X7300537Y-14774037D01*
X7425965Y-14899464D01*
X7456001Y-14919533D01*
X7493881Y-14967582D01*
X7500000Y-15001849D01*
X7500000Y-15301000D01*
X7481093Y-15359191D01*
X7431593Y-15395155D01*
X7401000Y-15400000D01*
X3999000Y-15400000D01*
X3940809Y-15381093D01*
X3904845Y-15331593D01*
X3900000Y-15301000D01*
X3900000Y-15048843D01*
X3918907Y-14990652D01*
X3959015Y-14958277D01*
X3972765Y-14952206D01*
X4052206Y-14872765D01*
X4097585Y-14769991D01*
X4100500Y-14744865D01*
X4100499Y-14298599D01*
X4119406Y-14240409D01*
X4168906Y-14204445D01*
X4199499Y-14199600D01*
X6010739Y-14199600D01*
X6068930Y-14218507D01*
G37*
%TD.AperFunction*%
%TA.AperFunction,Conductor*%
G36*
X12594504Y-13029697D02*
G01*
X14795803Y-15230996D01*
X14823580Y-15285513D01*
X14814009Y-15345945D01*
X14770744Y-15389210D01*
X14725799Y-15400000D01*
X9099000Y-15400000D01*
X9040809Y-15381093D01*
X9004845Y-15331593D01*
X9000000Y-15301000D01*
X9000000Y-14731226D01*
X8991726Y-14714987D01*
X9001297Y-14654555D01*
X9044562Y-14611290D01*
X9089507Y-14600500D01*
X10427725Y-14600500D01*
X10427727Y-14600500D01*
X10529588Y-14573207D01*
X10529590Y-14573205D01*
X10529592Y-14573205D01*
X10620908Y-14520483D01*
X10620908Y-14520482D01*
X10620913Y-14520480D01*
X11436896Y-13704495D01*
X11491413Y-13676719D01*
X11506900Y-13675500D01*
X11941142Y-13675500D01*
X11941144Y-13675500D01*
X12025590Y-13665359D01*
X12159975Y-13612364D01*
X12275078Y-13525078D01*
X12362364Y-13409975D01*
X12415359Y-13275590D01*
X12425500Y-13191144D01*
X12425500Y-13099701D01*
X12444407Y-13041510D01*
X12493907Y-13005546D01*
X12555093Y-13005546D01*
X12594504Y-13029697D01*
G37*
%TD.AperFunction*%
%TA.AperFunction,Conductor*%
G36*
X24994199Y-10276921D02*
G01*
X25048590Y-10287620D01*
X25090218Y-10332462D01*
X25099400Y-10374100D01*
X25099400Y-11716399D01*
X25080493Y-11774590D01*
X25070404Y-11786403D01*
X22398303Y-14458504D01*
X22343786Y-14486281D01*
X22328299Y-14487500D01*
X22256143Y-14487500D01*
X22133049Y-14520483D01*
X22103416Y-14528423D01*
X21966484Y-14607480D01*
X21854680Y-14719284D01*
X21775623Y-14856216D01*
X21734700Y-15008944D01*
X21734700Y-15167058D01*
X21738778Y-15182276D01*
X21735577Y-15243377D01*
X21697072Y-15290928D01*
X21643152Y-15306900D01*
X21285800Y-15306900D01*
X21227609Y-15287993D01*
X21191645Y-15238493D01*
X21186800Y-15207900D01*
X21186800Y-12634100D01*
X21205707Y-12575909D01*
X21255207Y-12539945D01*
X21316393Y-12539945D01*
X21355804Y-12564096D01*
X21714018Y-12922310D01*
X21714020Y-12922313D01*
X21737837Y-12946130D01*
X21753564Y-12966627D01*
X21798880Y-13045116D01*
X21910684Y-13156920D01*
X22047616Y-13235977D01*
X22200343Y-13276900D01*
X22200345Y-13276900D01*
X22358455Y-13276900D01*
X22358457Y-13276900D01*
X22511184Y-13235977D01*
X22648116Y-13156920D01*
X22759920Y-13045116D01*
X22838977Y-12908184D01*
X22879900Y-12755457D01*
X22879900Y-12597343D01*
X22838977Y-12444616D01*
X22759920Y-12307684D01*
X22648116Y-12195880D01*
X22511184Y-12116823D01*
X22358457Y-12075900D01*
X22358455Y-12075900D01*
X22355531Y-12075515D01*
X22353625Y-12074605D01*
X22352189Y-12074221D01*
X22352260Y-12073954D01*
X22300307Y-12049171D01*
X22271114Y-11995399D01*
X22279103Y-11934738D01*
X22282712Y-11927878D01*
X22349277Y-11812584D01*
X22390200Y-11659857D01*
X22390200Y-11648700D01*
X22409107Y-11590509D01*
X22458607Y-11554545D01*
X22489200Y-11549700D01*
X23128525Y-11549700D01*
X23128527Y-11549700D01*
X23230388Y-11522407D01*
X23230390Y-11522405D01*
X23230392Y-11522405D01*
X23321708Y-11469683D01*
X23321708Y-11469682D01*
X23321713Y-11469680D01*
X24486897Y-10304496D01*
X24541414Y-10276719D01*
X24556901Y-10275500D01*
X24991142Y-10275500D01*
X24991144Y-10275500D01*
X24991145Y-10275499D01*
X24994104Y-10275323D01*
X24994199Y-10276921D01*
G37*
%TD.AperFunction*%
%TA.AperFunction,Conductor*%
G36*
X27061522Y-5275499D02*
G01*
X27061523Y-5275499D01*
X27061523Y-5275524D01*
X27061573Y-5276470D01*
X27117477Y-5288201D01*
X27158536Y-5333564D01*
X27167200Y-5374066D01*
X27167200Y-10568099D01*
X27148293Y-10626290D01*
X27138204Y-10638103D01*
X26069404Y-11706903D01*
X26014887Y-11734680D01*
X25954455Y-11725109D01*
X25911190Y-11681844D01*
X25900400Y-11636899D01*
X25900400Y-6018000D01*
X25919307Y-5959809D01*
X25929390Y-5948002D01*
X26572897Y-5304494D01*
X26627414Y-5276718D01*
X26642901Y-5275499D01*
X27058867Y-5275499D01*
X27058872Y-5275499D01*
X27058876Y-5275498D01*
X27061514Y-5275357D01*
X27061522Y-5275499D01*
G37*
%TD.AperFunction*%
%TA.AperFunction,Conductor*%
G36*
X32748548Y-3708563D02*
G01*
X32771446Y-3712190D01*
X32777094Y-3717838D01*
X32784692Y-3720307D01*
X32798319Y-3739063D01*
X32814711Y-3755455D01*
X32815960Y-3763344D01*
X32820656Y-3769807D01*
X32820656Y-3792992D01*
X32824282Y-3815887D01*
X32820656Y-3823003D01*
X32820656Y-3830993D01*
X32802387Y-3860805D01*
X32803697Y-3861786D01*
X32713202Y-3982670D01*
X32662910Y-4117511D01*
X32662908Y-4117522D01*
X32656500Y-4177129D01*
X32656500Y-4822866D01*
X32656501Y-4822870D01*
X32662908Y-4882480D01*
X32662909Y-4882485D01*
X32713202Y-5017329D01*
X32799450Y-5132541D01*
X32799454Y-5132546D01*
X32799457Y-5132548D01*
X32799458Y-5132549D01*
X32916829Y-5220413D01*
X32952082Y-5270421D01*
X32956500Y-5299666D01*
X32956500Y-7732099D01*
X32937593Y-7790290D01*
X32927504Y-7802103D01*
X30799146Y-9930460D01*
X30744629Y-9958237D01*
X30684197Y-9948666D01*
X30643406Y-9909957D01*
X30641464Y-9906593D01*
X30630720Y-9887984D01*
X30518916Y-9776180D01*
X30381984Y-9697123D01*
X30229257Y-9656200D01*
X30229255Y-9656200D01*
X30157100Y-9656200D01*
X30098909Y-9637293D01*
X30087096Y-9627204D01*
X28890496Y-8430603D01*
X28862719Y-8376086D01*
X28861500Y-8360599D01*
X28861500Y-5299666D01*
X28880407Y-5241475D01*
X28901171Y-5220413D01*
X28917063Y-5208516D01*
X29018546Y-5132546D01*
X29104796Y-5017331D01*
X29155091Y-4882483D01*
X29161500Y-4822873D01*
X29161499Y-4177128D01*
X29155091Y-4117517D01*
X29150907Y-4106300D01*
X29104797Y-3982670D01*
X29014303Y-3861786D01*
X29016330Y-3860268D01*
X28993718Y-3815887D01*
X29003289Y-3755455D01*
X29046554Y-3712190D01*
X29091499Y-3701400D01*
X32726501Y-3701400D01*
X32748548Y-3708563D01*
G37*
%TD.AperFunction*%
%TA.AperFunction,Conductor*%
G36*
X26069691Y-4138707D02*
G01*
X26105655Y-4188207D01*
X26110500Y-4218800D01*
X26110500Y-4593098D01*
X26091593Y-4651289D01*
X26081504Y-4663101D01*
X25179420Y-5565186D01*
X25179416Y-5565191D01*
X25126694Y-5656507D01*
X25117693Y-5690100D01*
X25102372Y-5747280D01*
X25102372Y-5747281D01*
X25102371Y-5747280D01*
X25099400Y-5758369D01*
X25099400Y-7481124D01*
X25080493Y-7539315D01*
X25030993Y-7575279D01*
X24974778Y-7576750D01*
X24929057Y-7564500D01*
X24770943Y-7564500D01*
X24618216Y-7605423D01*
X24481284Y-7684480D01*
X24369480Y-7796284D01*
X24290423Y-7933216D01*
X24249500Y-8085943D01*
X24249500Y-8244057D01*
X24249969Y-8245807D01*
X24252713Y-8256048D01*
X24249508Y-8317150D01*
X24211001Y-8364698D01*
X24151900Y-8380532D01*
X24131463Y-8377295D01*
X24058681Y-8357794D01*
X24027727Y-8349500D01*
X24027726Y-8349500D01*
X23272365Y-8349500D01*
X23232378Y-8341065D01*
X23198032Y-8325900D01*
X23167491Y-8312415D01*
X23167489Y-8312414D01*
X23167488Y-8312414D01*
X23142368Y-8309500D01*
X22377639Y-8309500D01*
X22377636Y-8309501D01*
X22352509Y-8312414D01*
X22249735Y-8357794D01*
X22170294Y-8437235D01*
X22124914Y-8540011D01*
X22122000Y-8565130D01*
X22122000Y-8934859D01*
X22122001Y-8934864D01*
X22124914Y-8959989D01*
X22124915Y-8959992D01*
X22124926Y-8960016D01*
X22124928Y-8960039D01*
X22126870Y-8967176D01*
X22125688Y-8967497D01*
X22131130Y-9020886D01*
X22124928Y-9039977D01*
X22124917Y-9039999D01*
X22124914Y-9040011D01*
X22122000Y-9065130D01*
X22122000Y-9065132D01*
X22122000Y-9065135D01*
X22122000Y-9249501D01*
X22122001Y-9371300D01*
X22117156Y-9386211D01*
X22117156Y-9401893D01*
X22107938Y-9414579D01*
X22103094Y-9429490D01*
X22090410Y-9438705D01*
X22081192Y-9451393D01*
X22066277Y-9456238D01*
X22053594Y-9465454D01*
X22023001Y-9470300D01*
X21948500Y-9470300D01*
X21890309Y-9451393D01*
X21878496Y-9441303D01*
X21454019Y-9016825D01*
X21426242Y-8962309D01*
X21433460Y-8906831D01*
X21437585Y-8897491D01*
X21440500Y-8872365D01*
X21440499Y-8107636D01*
X21437585Y-8082509D01*
X21423253Y-8050050D01*
X21408935Y-8017621D01*
X21400500Y-7977634D01*
X21400500Y-7798074D01*
X21400500Y-7798073D01*
X21373207Y-7696213D01*
X21371839Y-7693844D01*
X21320481Y-7604889D01*
X21320480Y-7604887D01*
X21315294Y-7599701D01*
X21287519Y-7545187D01*
X21297090Y-7484755D01*
X21340355Y-7441490D01*
X21385300Y-7430700D01*
X21730425Y-7430700D01*
X21730427Y-7430700D01*
X21832288Y-7403407D01*
X21832290Y-7403405D01*
X21832292Y-7403405D01*
X21923608Y-7350683D01*
X21923608Y-7350682D01*
X21923613Y-7350680D01*
X25125496Y-4148795D01*
X25180013Y-4121019D01*
X25195500Y-4119800D01*
X26011500Y-4119800D01*
X26069691Y-4138707D01*
G37*
%TD.AperFunction*%
%TA.AperFunction,Conductor*%
G36*
X8085585Y-4074107D02*
G01*
X8121549Y-4123607D01*
X8125827Y-4164779D01*
X8124500Y-4177122D01*
X8124500Y-4822866D01*
X8124501Y-4822870D01*
X8130908Y-4882480D01*
X8130909Y-4882485D01*
X8181202Y-5017329D01*
X8267450Y-5132541D01*
X8267454Y-5132546D01*
X8267457Y-5132548D01*
X8267458Y-5132549D01*
X8384829Y-5220413D01*
X8420082Y-5270421D01*
X8424500Y-5299666D01*
X8424500Y-8337899D01*
X8405593Y-8396090D01*
X8356093Y-8432054D01*
X8294907Y-8432054D01*
X8255496Y-8407903D01*
X7894496Y-8046903D01*
X7866719Y-7992386D01*
X7865500Y-7976899D01*
X7865500Y-4909219D01*
X7868154Y-4886451D01*
X7869090Y-4882487D01*
X7869090Y-4882485D01*
X7869091Y-4882483D01*
X7875500Y-4822873D01*
X7875499Y-4177128D01*
X7874172Y-4164779D01*
X7878449Y-4144418D01*
X7878449Y-4123607D01*
X7884598Y-4115143D01*
X7886749Y-4104905D01*
X7902179Y-4090944D01*
X7914413Y-4074107D01*
X7924364Y-4070873D01*
X7932121Y-4063856D01*
X7972604Y-4055200D01*
X8027394Y-4055200D01*
X8085585Y-4074107D01*
G37*
%TD.AperFunction*%
%TA.AperFunction,Conductor*%
G36*
X45875692Y-3720307D02*
G01*
X45911656Y-3769807D01*
X45911656Y-3830993D01*
X45893387Y-3860805D01*
X45894697Y-3861786D01*
X45804202Y-3982670D01*
X45753910Y-4117511D01*
X45753908Y-4117522D01*
X45747500Y-4177129D01*
X45747500Y-4822866D01*
X45747501Y-4822870D01*
X45753908Y-4882480D01*
X45753909Y-4882485D01*
X45804202Y-5017329D01*
X45890450Y-5132541D01*
X45890454Y-5132546D01*
X45890457Y-5132548D01*
X45890458Y-5132549D01*
X46007829Y-5220413D01*
X46043082Y-5270421D01*
X46047500Y-5299666D01*
X46047500Y-6667257D01*
X46028593Y-6725448D01*
X45979093Y-6761412D01*
X45917907Y-6761412D01*
X45878498Y-6737262D01*
X45876416Y-6735180D01*
X45739484Y-6656123D01*
X45586757Y-6615200D01*
X45428643Y-6615200D01*
X45275916Y-6656123D01*
X45155841Y-6725448D01*
X45138981Y-6735182D01*
X45087959Y-6786204D01*
X45033442Y-6813981D01*
X45017956Y-6815200D01*
X44474600Y-6815200D01*
X44416409Y-6796293D01*
X44404596Y-6786204D01*
X42281495Y-4663102D01*
X42253718Y-4608585D01*
X42252499Y-4593098D01*
X42252499Y-4177133D01*
X42252499Y-4177128D01*
X42246091Y-4117517D01*
X42241907Y-4106300D01*
X42195797Y-3982670D01*
X42105303Y-3861786D01*
X42107330Y-3860268D01*
X42084718Y-3815887D01*
X42094289Y-3755455D01*
X42137554Y-3712190D01*
X42182499Y-3701400D01*
X45817501Y-3701400D01*
X45875692Y-3720307D01*
G37*
%TD.AperFunction*%
%TA.AperFunction,Conductor*%
G36*
X19287490Y-4089607D02*
G01*
X19299303Y-4099696D01*
X19536504Y-4336897D01*
X19564281Y-4391414D01*
X19565500Y-4406901D01*
X19565500Y-4822866D01*
X19565501Y-4822870D01*
X19571908Y-4882480D01*
X19571909Y-4882485D01*
X19622202Y-5017329D01*
X19708450Y-5132541D01*
X19708454Y-5132546D01*
X19750826Y-5164266D01*
X19764770Y-5174704D01*
X19800023Y-5224712D01*
X19799149Y-5285891D01*
X19775445Y-5323961D01*
X18616612Y-6482795D01*
X18614157Y-6485995D01*
X18563729Y-6520646D01*
X18502565Y-6519038D01*
X18465617Y-6495724D01*
X17337811Y-5367918D01*
X16209594Y-4239701D01*
X16181819Y-4185187D01*
X16191390Y-4124755D01*
X16234655Y-4081490D01*
X16279600Y-4070700D01*
X19229299Y-4070700D01*
X19287490Y-4089607D01*
G37*
%TD.AperFunction*%
%TD*%
%TA.AperFunction,NonConductor*%
G36*
X15999321Y-5164266D02*
G01*
X16012285Y-5175178D01*
X16245142Y-5408035D01*
X16272919Y-5462552D01*
X16263348Y-5522984D01*
X16230955Y-5557125D01*
X16232033Y-5558529D01*
X16226887Y-5562477D01*
X16226884Y-5562480D01*
X16115080Y-5674284D01*
X16036023Y-5811216D01*
X15995100Y-5963943D01*
X15995100Y-6122057D01*
X16036023Y-6274784D01*
X16115080Y-6411716D01*
X16166105Y-6462741D01*
X16193881Y-6517256D01*
X16195100Y-6532743D01*
X16195100Y-9069173D01*
X16195100Y-9174627D01*
X16209132Y-9226996D01*
X16222394Y-9276492D01*
X16275116Y-9367808D01*
X16275118Y-9367810D01*
X16275120Y-9367813D01*
X18105405Y-11198098D01*
X18133181Y-11252613D01*
X18134400Y-11268100D01*
X18134400Y-14916801D01*
X18115493Y-14974992D01*
X18065993Y-15010956D01*
X18009778Y-15012427D01*
X17883157Y-14978500D01*
X17725043Y-14978500D01*
X17725042Y-14978500D01*
X17718611Y-14979347D01*
X17718412Y-14977841D01*
X17664907Y-14975029D01*
X17617363Y-14936516D01*
X17601400Y-14882610D01*
X17601400Y-12345074D01*
X17601400Y-12345073D01*
X17593476Y-12315500D01*
X17574107Y-12243212D01*
X17573044Y-12241370D01*
X17521383Y-12151891D01*
X17521382Y-12151890D01*
X17521381Y-12151889D01*
X17521380Y-12151887D01*
X15072196Y-9702703D01*
X15044419Y-9648186D01*
X15043200Y-9632699D01*
X15043200Y-5374499D01*
X15062107Y-5316308D01*
X15111607Y-5280344D01*
X15142193Y-5275499D01*
X15617872Y-5275499D01*
X15677483Y-5269091D01*
X15791078Y-5226723D01*
X15812329Y-5218797D01*
X15812329Y-5218796D01*
X15812331Y-5218796D01*
X15882952Y-5165928D01*
X15940866Y-5146192D01*
X15999321Y-5164266D01*
G37*
%TD.AperFunction*%
%TA.AperFunction,NonConductor*%
G36*
X40979692Y-3720307D02*
G01*
X41015656Y-3769807D01*
X41015656Y-3830993D01*
X40997387Y-3860805D01*
X40998697Y-3861786D01*
X40908202Y-3982670D01*
X40857910Y-4117511D01*
X40857908Y-4117522D01*
X40851500Y-4177129D01*
X40851500Y-4822866D01*
X40851501Y-4822870D01*
X40857908Y-4882480D01*
X40857909Y-4882485D01*
X40908202Y-5017329D01*
X40994450Y-5132541D01*
X40994454Y-5132546D01*
X40994457Y-5132548D01*
X40994458Y-5132549D01*
X41109670Y-5218797D01*
X41244511Y-5269089D01*
X41244512Y-5269089D01*
X41244517Y-5269091D01*
X41304127Y-5275500D01*
X41720098Y-5275499D01*
X41778289Y-5294406D01*
X41790102Y-5304495D01*
X42821207Y-6335600D01*
X43742504Y-7256896D01*
X43770281Y-7311413D01*
X43760710Y-7371845D01*
X43717445Y-7415110D01*
X43672500Y-7425900D01*
X41032101Y-7425900D01*
X40973910Y-7406993D01*
X40962097Y-7396904D01*
X40564396Y-6999203D01*
X40536619Y-6944686D01*
X40535400Y-6929199D01*
X40535400Y-6857044D01*
X40535400Y-6857043D01*
X40494477Y-6704316D01*
X40415420Y-6567384D01*
X40303616Y-6455580D01*
X40166684Y-6376523D01*
X40013957Y-6335600D01*
X39855843Y-6335600D01*
X39703116Y-6376523D01*
X39566184Y-6455580D01*
X39454380Y-6567384D01*
X39375323Y-6704316D01*
X39334400Y-6857043D01*
X39334400Y-7015157D01*
X39375323Y-7167884D01*
X39454380Y-7304816D01*
X39566184Y-7416620D01*
X39703116Y-7495677D01*
X39855843Y-7536600D01*
X39927999Y-7536600D01*
X39986190Y-7555507D01*
X39998003Y-7565596D01*
X40504720Y-8072313D01*
X40504719Y-8072313D01*
X40563095Y-8130688D01*
X40579287Y-8146880D01*
X40670613Y-8199607D01*
X40772473Y-8226900D01*
X44288300Y-8226900D01*
X44346491Y-8245807D01*
X44382455Y-8295307D01*
X44387300Y-8325900D01*
X44387300Y-16780299D01*
X44368393Y-16838490D01*
X44358304Y-16850303D01*
X44213103Y-16995504D01*
X44158586Y-17023281D01*
X44143099Y-17024500D01*
X43708851Y-17024500D01*
X43624408Y-17034641D01*
X43592203Y-17047341D01*
X43566163Y-17048943D01*
X43540398Y-17053024D01*
X43536028Y-17050797D01*
X43531133Y-17051099D01*
X43485882Y-17025246D01*
X43432496Y-16971859D01*
X43404719Y-16917342D01*
X43403500Y-16901856D01*
X43403500Y-12387775D01*
X43403499Y-12387771D01*
X43397428Y-12365113D01*
X43394110Y-12352727D01*
X43376207Y-12285912D01*
X43346071Y-12233716D01*
X43323480Y-12194587D01*
X43248913Y-12120020D01*
X43248910Y-12120018D01*
X39493590Y-8364698D01*
X35736495Y-4607602D01*
X35708718Y-4553085D01*
X35707499Y-4537598D01*
X35707499Y-4212000D01*
X35726406Y-4153809D01*
X35775906Y-4117845D01*
X35806499Y-4113000D01*
X38907599Y-4113000D01*
X38965790Y-4131907D01*
X38977603Y-4141996D01*
X39172504Y-4336897D01*
X39200281Y-4391414D01*
X39201500Y-4406901D01*
X39201500Y-4822866D01*
X39201501Y-4822870D01*
X39207908Y-4882480D01*
X39207909Y-4882485D01*
X39258202Y-5017329D01*
X39344450Y-5132541D01*
X39344454Y-5132546D01*
X39344457Y-5132548D01*
X39344458Y-5132549D01*
X39459670Y-5218797D01*
X39594511Y-5269089D01*
X39594512Y-5269089D01*
X39594517Y-5269091D01*
X39654127Y-5275500D01*
X40149872Y-5275499D01*
X40209483Y-5269091D01*
X40323078Y-5226723D01*
X40344329Y-5218797D01*
X40344329Y-5218796D01*
X40344331Y-5218796D01*
X40459546Y-5132546D01*
X40545796Y-5017331D01*
X40596091Y-4882483D01*
X40602500Y-4822873D01*
X40602499Y-4177128D01*
X40596091Y-4117517D01*
X40591907Y-4106300D01*
X40545797Y-3982670D01*
X40455303Y-3861786D01*
X40457330Y-3860268D01*
X40434718Y-3815887D01*
X40444289Y-3755455D01*
X40487554Y-3712190D01*
X40532499Y-3701400D01*
X40921501Y-3701400D01*
X40979692Y-3720307D01*
G37*
%TD.AperFunction*%
%TA.AperFunction,NonConductor*%
G36*
X47343445Y-4267689D02*
G01*
X47386710Y-4310954D01*
X47397500Y-4355899D01*
X47397500Y-4822866D01*
X47397501Y-4822870D01*
X47403908Y-4882480D01*
X47403909Y-4882485D01*
X47454202Y-5017329D01*
X47540450Y-5132541D01*
X47540454Y-5132546D01*
X47540457Y-5132548D01*
X47540458Y-5132549D01*
X47657829Y-5220413D01*
X47693082Y-5270421D01*
X47697500Y-5299666D01*
X47697500Y-20386599D01*
X47678593Y-20444790D01*
X47668504Y-20456603D01*
X46602211Y-21522895D01*
X46575703Y-21536400D01*
X46549471Y-21550374D01*
X46548535Y-21550243D01*
X46547694Y-21550672D01*
X46518315Y-21546019D01*
X46488875Y-21541904D01*
X46488195Y-21541248D01*
X46487262Y-21541101D01*
X46466223Y-21520062D01*
X46444830Y-21499434D01*
X46444731Y-21498570D01*
X46443997Y-21497836D01*
X46434160Y-21439186D01*
X46435002Y-21433157D01*
X46458100Y-21346957D01*
X46458100Y-21267913D01*
X46459053Y-21261095D01*
X46469576Y-21239477D01*
X46477007Y-21216609D01*
X46485617Y-21206527D01*
X46485834Y-21206082D01*
X46486134Y-21205922D01*
X46487090Y-21204802D01*
X47214080Y-20477813D01*
X47266807Y-20386488D01*
X47294100Y-20284627D01*
X47294100Y-20179173D01*
X47294100Y-8262642D01*
X47313007Y-8204452D01*
X47323090Y-8192645D01*
X47374120Y-8141616D01*
X47453177Y-8004684D01*
X47494100Y-7851957D01*
X47494100Y-7693843D01*
X47453177Y-7541116D01*
X47374120Y-7404184D01*
X47262316Y-7292380D01*
X47125384Y-7213323D01*
X46972657Y-7172400D01*
X46972655Y-7172400D01*
X46947500Y-7172400D01*
X46889309Y-7153493D01*
X46853345Y-7103993D01*
X46848500Y-7073400D01*
X46848500Y-5299666D01*
X46867407Y-5241475D01*
X46888171Y-5220413D01*
X46904063Y-5208516D01*
X47005546Y-5132546D01*
X47091796Y-5017331D01*
X47142091Y-4882483D01*
X47148500Y-4822873D01*
X47148499Y-4406899D01*
X47150967Y-4399302D01*
X47149718Y-4391413D01*
X47160242Y-4370757D01*
X47167406Y-4348709D01*
X47177488Y-4336903D01*
X47228498Y-4285893D01*
X47283013Y-4258118D01*
X47343445Y-4267689D01*
G37*
%TD.AperFunction*%
%TA.AperFunction,NonConductor*%
G36*
X46312347Y-7999085D02*
G01*
X46353138Y-8037793D01*
X46413080Y-8141616D01*
X46413081Y-8141617D01*
X46413083Y-8141620D01*
X46464102Y-8192637D01*
X46491881Y-8247153D01*
X46493100Y-8262642D01*
X46493100Y-20024999D01*
X46474193Y-20083190D01*
X46464104Y-20095003D01*
X45920703Y-20638404D01*
X45866186Y-20666181D01*
X45850699Y-20667400D01*
X45778543Y-20667400D01*
X45625816Y-20708323D01*
X45488884Y-20787380D01*
X45377080Y-20899184D01*
X45298023Y-21036116D01*
X45257100Y-21188843D01*
X45257100Y-21346957D01*
X45298023Y-21499684D01*
X45377080Y-21636616D01*
X45488884Y-21748420D01*
X45625816Y-21827477D01*
X45778543Y-21868400D01*
X45778545Y-21868400D01*
X45936655Y-21868400D01*
X45936657Y-21868400D01*
X46016970Y-21846880D01*
X46078069Y-21850082D01*
X46125619Y-21888588D01*
X46141455Y-21947688D01*
X46119529Y-22004810D01*
X46112595Y-22012510D01*
X45779603Y-22345503D01*
X45725086Y-22373281D01*
X45709599Y-22374500D01*
X44813056Y-22374500D01*
X44754865Y-22355593D01*
X44720959Y-22311819D01*
X44712365Y-22290028D01*
X44712364Y-22290025D01*
X44625078Y-22174922D01*
X44509975Y-22087636D01*
X44509974Y-22087635D01*
X44509972Y-22087634D01*
X44375591Y-22034641D01*
X44291148Y-22024500D01*
X44291144Y-22024500D01*
X43708856Y-22024500D01*
X43708851Y-22024500D01*
X43624408Y-22034641D01*
X43505419Y-22081565D01*
X43444349Y-22085324D01*
X43392733Y-22052469D01*
X43370287Y-21995550D01*
X43370100Y-21989468D01*
X43370100Y-19012300D01*
X43389007Y-18954109D01*
X43399096Y-18942296D01*
X43786896Y-18554496D01*
X43841413Y-18526719D01*
X43856900Y-18525500D01*
X44291142Y-18525500D01*
X44291144Y-18525500D01*
X44375590Y-18515359D01*
X44509975Y-18462364D01*
X44625078Y-18375078D01*
X44712364Y-18259975D01*
X44765359Y-18125590D01*
X44775500Y-18041144D01*
X44775500Y-17606900D01*
X44794407Y-17548709D01*
X44804490Y-17536902D01*
X45108280Y-17233113D01*
X45132809Y-17190627D01*
X45161007Y-17141787D01*
X45188300Y-17039927D01*
X45188300Y-8325900D01*
X45207207Y-8267709D01*
X45256707Y-8231745D01*
X45287300Y-8226900D01*
X45874625Y-8226900D01*
X45874627Y-8226900D01*
X45976488Y-8199607D01*
X45976490Y-8199605D01*
X45976492Y-8199605D01*
X46067808Y-8146883D01*
X46067808Y-8146882D01*
X46067813Y-8146880D01*
X46197401Y-8017290D01*
X46251915Y-7989514D01*
X46312347Y-7999085D01*
G37*
%TD.AperFunction*%
%TA.AperFunction,NonConductor*%
G36*
X18696004Y-29144097D02*
G01*
X21877820Y-32325913D01*
X21877819Y-32325913D01*
X21916591Y-32364684D01*
X21952387Y-32400480D01*
X22043713Y-32453207D01*
X22126125Y-32475289D01*
X22177438Y-32508612D01*
X22195097Y-32541716D01*
X22199501Y-32555983D01*
X22199501Y-32574864D01*
X22202415Y-32599991D01*
X22237869Y-32680286D01*
X22239571Y-32685801D01*
X22239200Y-32710899D01*
X22241748Y-32735882D01*
X22238692Y-32745286D01*
X22238667Y-32746980D01*
X22237739Y-32748217D01*
X22235540Y-32754987D01*
X22202415Y-32830009D01*
X22202414Y-32830011D01*
X22199500Y-32855130D01*
X22199500Y-33815800D01*
X22180593Y-33873991D01*
X22131093Y-33909955D01*
X22069907Y-33909955D01*
X22030496Y-33885804D01*
X18555996Y-30411303D01*
X18528219Y-30356786D01*
X18527000Y-30341299D01*
X18527000Y-29214101D01*
X18545907Y-29155910D01*
X18595407Y-29119946D01*
X18656593Y-29119946D01*
X18696004Y-29144097D01*
G37*
%TD.AperFunction*%
%TA.AperFunction,NonConductor*%
G36*
X42808495Y-32482157D02*
G01*
X42813742Y-32481042D01*
X42837180Y-32491477D01*
X42861586Y-32499407D01*
X42864739Y-32503746D01*
X42869638Y-32505928D01*
X42882465Y-32528144D01*
X42897550Y-32548907D01*
X42897550Y-32554271D01*
X42900231Y-32558915D01*
X42897550Y-32584429D01*
X42897550Y-32610093D01*
X42894397Y-32614432D01*
X42893837Y-32619766D01*
X42876668Y-32638833D01*
X42861586Y-32659593D01*
X42852896Y-32665236D01*
X42846585Y-32668879D01*
X42846584Y-32668880D01*
X42734780Y-32780684D01*
X42655723Y-32917616D01*
X42614800Y-33070343D01*
X42614800Y-33228457D01*
X42655723Y-33381184D01*
X42734780Y-33518116D01*
X42785805Y-33569141D01*
X42813581Y-33623656D01*
X42814800Y-33639143D01*
X42814800Y-34918799D01*
X42795893Y-34976990D01*
X42785804Y-34988803D01*
X41518903Y-36255704D01*
X41464386Y-36283481D01*
X41448899Y-36284700D01*
X40084301Y-36284700D01*
X40026110Y-36265793D01*
X40014297Y-36255704D01*
X39611096Y-35852503D01*
X39583319Y-35797986D01*
X39582100Y-35782499D01*
X39582100Y-35316078D01*
X39601007Y-35257887D01*
X39650507Y-35221923D01*
X39711693Y-35221923D01*
X39751101Y-35246072D01*
X39827235Y-35322206D01*
X39930009Y-35367585D01*
X39955135Y-35370500D01*
X41544864Y-35370499D01*
X41569991Y-35367585D01*
X41672765Y-35322206D01*
X41752206Y-35242765D01*
X41797585Y-35139991D01*
X41800500Y-35114865D01*
X41800499Y-34125136D01*
X41797585Y-34100009D01*
X41764460Y-34024987D01*
X41758251Y-33964118D01*
X41764457Y-33945018D01*
X41797585Y-33869991D01*
X41800500Y-33844865D01*
X41800499Y-32855136D01*
X41797585Y-32830009D01*
X41797583Y-32830004D01*
X41764460Y-32754987D01*
X41758251Y-32694118D01*
X41764457Y-32675018D01*
X41797585Y-32599991D01*
X41800500Y-32574865D01*
X41800500Y-32574847D01*
X41800561Y-32573797D01*
X41800651Y-32573565D01*
X41800830Y-32572024D01*
X41801234Y-32572070D01*
X41822789Y-32516792D01*
X41874279Y-32483739D01*
X41899397Y-32480500D01*
X42803395Y-32480500D01*
X42808495Y-32482157D01*
G37*
%TD.AperFunction*%
M02*
