M48
; DRILL file KiCad 10.0.3 date 2026-08-03T21:15:36
; FORMAT={-:-/ absolute / metric / decimal}
; #@! TF.CreationDate,2026-08-03T21:15:36-04:00
; #@! TF.GenerationSoftware,Kicad,Pcbnew,10.0.3
; #@! TF.FileFunction,MixedPlating,1,2
FMAT,2
METRIC
; #@! TA.AperFunction,Plated,PTH,ViaDrill
T1C0.300
; #@! TA.AperFunction,Plated,PTH,ComponentDrill
T2C0.300
; #@! TA.AperFunction,NonPlated,NPTH,ComponentDrill
T3C0.850
%
G90
G05
T1
X2.6Y-12.0
X6.287Y-10.914
X6.568Y-13.867
X6.968Y-9.87
X8.209Y-9.976
X10.0Y-11.865
X10.237Y-10.347
X12.151Y-14.402
X16.596Y-6.043
X17.804Y-15.579
X18.127Y-27.941
X18.364Y-9.527
X18.501Y-18.83
X18.535Y-16.374
X19.436Y-24.283
X19.539Y-7.03
X19.954Y-11.163
X21.596Y-20.121
X21.79Y-11.581
X22.279Y-12.676
X22.335Y-15.088
X22.879Y-4.436
X24.0Y-8.0
X24.85Y-8.165
X25.066Y-20.18
X25.072Y-27.807
X27.973Y-28.735
X29.024Y-30.701
X30.15Y-10.257
X30.966Y-21.287
X31.912Y-11.453
X33.763Y-15.583
X33.763Y-28.525
X34.431Y-6.834
X36.39Y-11.621
X39.182Y-26.652
X39.23Y-9.518
X39.843Y-12.732
X39.935Y-6.936
X40.073Y-40.983
X42.414Y-27.816
X42.941Y-10.377
X43.0Y-2.4
X43.0Y-51.6
X43.003Y-17.392
X43.215Y-33.149
X43.253Y-42.787
X43.365Y-46.063
X45.508Y-7.216
X45.553Y-36.692
X45.582Y-18.179
X45.858Y-21.268
X45.916Y-24.903
X46.894Y-7.773
X48.0Y-27.0
X52.0Y-40.0
X54.636Y-29.086
X55.992Y-14.46
X56.146Y-25.462
X56.512Y-10.348
X56.643Y-6.108
X61.429Y-30.984
X63.214Y-27.288
X63.512Y-3.826
X66.195Y-35.721
X67.057Y-36.327
X68.656Y-7.735
X69.024Y-17.806
X69.17Y-36.25
X69.554Y-10.797
X69.579Y-37.896
X70.016Y-21.39
X83.0Y-12.0
X83.0Y-27.0
X83.0Y-51.0
T2
X8.0Y-14.2
X8.5Y-22.8
T3
X81.455Y-26.5
X81.455Y-29.5
M30
