%TF.GenerationSoftware,KiCad,Pcbnew,10.0.3*%
%TF.CreationDate,2026-08-09T11:47:38-04:00*%
%TF.ProjectId,NeuralCard,4e657572-616c-4436-9172-642e6b696361,v2.3*%
%TF.SameCoordinates,Original*%
%TF.FileFunction,Legend,Bot*%
%TF.FilePolarity,Positive*%
%FSLAX46Y46*%
G04 Gerber Fmt 4.6, Leading zero omitted, Abs format (unit mm)*
G04 Created by KiCad (PCBNEW 10.0.3) date 2026-08-09 11:47:38*
%MOMM*%
%LPD*%
G01*
G04 APERTURE LIST*
G04 Aperture macros list*
%AMRoundRect*
0 Rectangle with rounded corners*
0 $1 Rounding radius*
0 $2 $3 $4 $5 $6 $7 $8 $9 X,Y pos of 4 corners*
0 Add a 4 corners polygon primitive as box body*
4,1,4,$2,$3,$4,$5,$6,$7,$8,$9,$2,$3,0*
0 Add four circle primitives for the rounded corners*
1,1,$1+$1,$2,$3*
1,1,$1+$1,$4,$5*
1,1,$1+$1,$6,$7*
1,1,$1+$1,$8,$9*
0 Add four rect primitives between the rounded corners*
20,1,$1+$1,$2,$3,$4,$5,0*
20,1,$1+$1,$4,$5,$6,$7,0*
20,1,$1+$1,$6,$7,$8,$9,0*
20,1,$1+$1,$8,$9,$2,$3,0*%
%AMFreePoly0*
4,1,17,0.000318,0.699935,0.299923,0.699935,0.335278,0.685290,0.349923,0.649935,0.349923,-0.650088,0.335278,-0.685443,0.299923,-0.700088,-0.000076,-0.700088,-0.000445,-0.699935,-0.300050,-0.699935,-0.335405,-0.685290,-0.350050,-0.649935,-0.350050,0.650088,-0.335405,0.685443,-0.300050,0.700088,-0.000051,0.700088,0.000318,0.699935,0.000318,0.699935,$1*%
%AMFreePoly1*
4,1,17,0.000187,0.700037,0.300076,0.700037,0.335431,0.685392,0.350076,0.650037,0.350076,-0.649935,0.335431,-0.685290,0.300076,-0.699935,0.000051,-0.699935,-0.000009,-0.699910,-0.299898,-0.699910,-0.335253,-0.685265,-0.349898,-0.649910,-0.349898,0.650062,-0.335253,0.685417,-0.299898,0.700062,0.000127,0.700062,0.000187,0.700037,0.000187,0.700037,$1*%
%AMFreePoly2*
4,1,13,0.335227,0.685239,0.349872,0.649884,0.349872,-0.650088,0.335227,-0.685443,0.299872,-0.700088,-0.300152,-0.700088,-0.335507,-0.685443,-0.350152,-0.650088,-0.350152,0.649884,-0.335507,0.685239,-0.300152,0.699884,0.299872,0.699884,0.335227,0.685239,0.335227,0.685239,$1*%
G04 Aperture macros list end*
%ADD10C,0.162000*%
%ADD11C,0.180000*%
%ADD12C,0.198000*%
%ADD13C,0.270000*%
%ADD14C,0.160000*%
%ADD15C,0.120000*%
%ADD16C,0.150000*%
%ADD17C,0.300000*%
%ADD18C,0.060000*%
%ADD19C,0.250000*%
%ADD20C,0.000000*%
%ADD21C,0.210000*%
%ADD22RoundRect,0.200000X-0.200000X-0.275000X0.200000X-0.275000X0.200000X0.275000X-0.200000X0.275000X0*%
%ADD23R,1.072000X0.532000*%
%ADD24RoundRect,0.200000X-0.275000X0.200000X-0.275000X-0.200000X0.275000X-0.200000X0.275000X0.200000X0*%
%ADD25RoundRect,0.225000X0.250000X-0.225000X0.250000X0.225000X-0.250000X0.225000X-0.250000X-0.225000X0*%
%ADD26R,1.000000X0.800000*%
%ADD27R,1.500000X0.900000*%
%ADD28R,0.900000X1.500000*%
%ADD29R,0.900000X0.900000*%
%ADD30C,0.850000*%
%ADD31RoundRect,0.150000X-0.500000X0.150000X-0.500000X-0.150000X0.500000X-0.150000X0.500000X0.150000X0*%
%ADD32RoundRect,0.175000X-0.175000X0.350000X-0.175000X-0.350000X0.175000X-0.350000X0.175000X0.350000X0*%
%ADD33RoundRect,0.225000X-0.225000X-0.250000X0.225000X-0.250000X0.225000X0.250000X-0.225000X0.250000X0*%
%ADD34RoundRect,0.250000X-0.250000X-0.475000X0.250000X-0.475000X0.250000X0.475000X-0.250000X0.475000X0*%
%ADD35C,2.000000*%
%ADD36R,3.000000X4.200000*%
%ADD37R,1.000000X0.750000*%
%ADD38C,0.750000*%
%ADD39O,2.000000X1.200000*%
%ADD40O,1.800000X1.200000*%
%ADD41FreePoly0,270.000000*%
%ADD42FreePoly1,270.000000*%
%ADD43R,1.300000X0.300000*%
%ADD44FreePoly2,270.000000*%
%ADD45RoundRect,0.250000X0.475000X-0.250000X0.475000X0.250000X-0.475000X0.250000X-0.475000X-0.250000X0*%
%ADD46RoundRect,0.150000X-0.150000X-0.550000X0.150000X-0.550000X0.150000X0.550000X-0.150000X0.550000X0*%
%ADD47R,1.500000X2.200000*%
%ADD48R,0.675000X0.280000*%
%ADD49R,0.280000X0.675000*%
%ADD50R,1.157000X0.490000*%
%ADD51R,1.175000X0.490000*%
G04 APERTURE END LIST*
G36*
X32000000Y-45800000D02*
G01*
X45000000Y-45800000D01*
X45000000Y-49000000D01*
X32000000Y-49000000D01*
X32000000Y-45800000D01*
G37*
D10*
X31199999Y-47765076D02*
X31071428Y-47807933D01*
X31071428Y-47807933D02*
X30857142Y-47807933D01*
X30857142Y-47807933D02*
X30771428Y-47765076D01*
X30771428Y-47765076D02*
X30728570Y-47722218D01*
X30728570Y-47722218D02*
X30685713Y-47636504D01*
X30685713Y-47636504D02*
X30685713Y-47550790D01*
X30685713Y-47550790D02*
X30728570Y-47465076D01*
X30728570Y-47465076D02*
X30771428Y-47422218D01*
X30771428Y-47422218D02*
X30857142Y-47379361D01*
X30857142Y-47379361D02*
X31028570Y-47336504D01*
X31028570Y-47336504D02*
X31114285Y-47293647D01*
X31114285Y-47293647D02*
X31157142Y-47250790D01*
X31157142Y-47250790D02*
X31199999Y-47165076D01*
X31199999Y-47165076D02*
X31199999Y-47079361D01*
X31199999Y-47079361D02*
X31157142Y-46993647D01*
X31157142Y-46993647D02*
X31114285Y-46950790D01*
X31114285Y-46950790D02*
X31028570Y-46907933D01*
X31028570Y-46907933D02*
X30814285Y-46907933D01*
X30814285Y-46907933D02*
X30685713Y-46950790D01*
X29657142Y-46865076D02*
X30428570Y-48022218D01*
X29357142Y-47807933D02*
X29357142Y-46907933D01*
X29357142Y-46907933D02*
X28842856Y-47807933D01*
X28842856Y-47807933D02*
X28842856Y-46907933D01*
D11*
X79476193Y-44329449D02*
X79809526Y-44329449D01*
X79809526Y-44853259D02*
X79809526Y-43853259D01*
X79809526Y-43853259D02*
X79333336Y-43853259D01*
X78476193Y-44853259D02*
X78952383Y-44853259D01*
X78952383Y-44853259D02*
X78952383Y-43853259D01*
X78190478Y-44567544D02*
X77714288Y-44567544D01*
X78285716Y-44853259D02*
X77952383Y-43853259D01*
X77952383Y-43853259D02*
X77619050Y-44853259D01*
X77333335Y-44805640D02*
X77190478Y-44853259D01*
X77190478Y-44853259D02*
X76952383Y-44853259D01*
X76952383Y-44853259D02*
X76857145Y-44805640D01*
X76857145Y-44805640D02*
X76809526Y-44758020D01*
X76809526Y-44758020D02*
X76761907Y-44662782D01*
X76761907Y-44662782D02*
X76761907Y-44567544D01*
X76761907Y-44567544D02*
X76809526Y-44472306D01*
X76809526Y-44472306D02*
X76857145Y-44424687D01*
X76857145Y-44424687D02*
X76952383Y-44377068D01*
X76952383Y-44377068D02*
X77142859Y-44329449D01*
X77142859Y-44329449D02*
X77238097Y-44281830D01*
X77238097Y-44281830D02*
X77285716Y-44234211D01*
X77285716Y-44234211D02*
X77333335Y-44138973D01*
X77333335Y-44138973D02*
X77333335Y-44043735D01*
X77333335Y-44043735D02*
X77285716Y-43948497D01*
X77285716Y-43948497D02*
X77238097Y-43900878D01*
X77238097Y-43900878D02*
X77142859Y-43853259D01*
X77142859Y-43853259D02*
X76904764Y-43853259D01*
X76904764Y-43853259D02*
X76761907Y-43900878D01*
X76333335Y-44853259D02*
X76333335Y-43853259D01*
X76333335Y-44329449D02*
X75761907Y-44329449D01*
X75761907Y-44853259D02*
X75761907Y-43853259D01*
X75285716Y-44758020D02*
X75238097Y-44805640D01*
X75238097Y-44805640D02*
X75285716Y-44853259D01*
X75285716Y-44853259D02*
X75333335Y-44805640D01*
X75333335Y-44805640D02*
X75285716Y-44758020D01*
X75285716Y-44758020D02*
X75285716Y-44853259D01*
X75285716Y-44234211D02*
X75238097Y-44281830D01*
X75238097Y-44281830D02*
X75285716Y-44329449D01*
X75285716Y-44329449D02*
X75333335Y-44281830D01*
X75333335Y-44281830D02*
X75285716Y-44234211D01*
X75285716Y-44234211D02*
X75285716Y-44329449D01*
X74047621Y-44853259D02*
X74047621Y-43853259D01*
X73619050Y-44853259D02*
X73619050Y-44329449D01*
X73619050Y-44329449D02*
X73666669Y-44234211D01*
X73666669Y-44234211D02*
X73761907Y-44186592D01*
X73761907Y-44186592D02*
X73904764Y-44186592D01*
X73904764Y-44186592D02*
X74000002Y-44234211D01*
X74000002Y-44234211D02*
X74047621Y-44281830D01*
X73000002Y-44853259D02*
X73095240Y-44805640D01*
X73095240Y-44805640D02*
X73142859Y-44758020D01*
X73142859Y-44758020D02*
X73190478Y-44662782D01*
X73190478Y-44662782D02*
X73190478Y-44377068D01*
X73190478Y-44377068D02*
X73142859Y-44281830D01*
X73142859Y-44281830D02*
X73095240Y-44234211D01*
X73095240Y-44234211D02*
X73000002Y-44186592D01*
X73000002Y-44186592D02*
X72857145Y-44186592D01*
X72857145Y-44186592D02*
X72761907Y-44234211D01*
X72761907Y-44234211D02*
X72714288Y-44281830D01*
X72714288Y-44281830D02*
X72666669Y-44377068D01*
X72666669Y-44377068D02*
X72666669Y-44662782D01*
X72666669Y-44662782D02*
X72714288Y-44758020D01*
X72714288Y-44758020D02*
X72761907Y-44805640D01*
X72761907Y-44805640D02*
X72857145Y-44853259D01*
X72857145Y-44853259D02*
X73000002Y-44853259D01*
X72095240Y-44853259D02*
X72190478Y-44805640D01*
X72190478Y-44805640D02*
X72238097Y-44710401D01*
X72238097Y-44710401D02*
X72238097Y-43853259D01*
X71285716Y-44853259D02*
X71285716Y-43853259D01*
X71285716Y-44805640D02*
X71380954Y-44853259D01*
X71380954Y-44853259D02*
X71571430Y-44853259D01*
X71571430Y-44853259D02*
X71666668Y-44805640D01*
X71666668Y-44805640D02*
X71714287Y-44758020D01*
X71714287Y-44758020D02*
X71761906Y-44662782D01*
X71761906Y-44662782D02*
X71761906Y-44377068D01*
X71761906Y-44377068D02*
X71714287Y-44281830D01*
X71714287Y-44281830D02*
X71666668Y-44234211D01*
X71666668Y-44234211D02*
X71571430Y-44186592D01*
X71571430Y-44186592D02*
X71380954Y-44186592D01*
X71380954Y-44186592D02*
X71285716Y-44234211D01*
X69714287Y-44329449D02*
X69571430Y-44377068D01*
X69571430Y-44377068D02*
X69523811Y-44424687D01*
X69523811Y-44424687D02*
X69476192Y-44519925D01*
X69476192Y-44519925D02*
X69476192Y-44662782D01*
X69476192Y-44662782D02*
X69523811Y-44758020D01*
X69523811Y-44758020D02*
X69571430Y-44805640D01*
X69571430Y-44805640D02*
X69666668Y-44853259D01*
X69666668Y-44853259D02*
X70047620Y-44853259D01*
X70047620Y-44853259D02*
X70047620Y-43853259D01*
X70047620Y-43853259D02*
X69714287Y-43853259D01*
X69714287Y-43853259D02*
X69619049Y-43900878D01*
X69619049Y-43900878D02*
X69571430Y-43948497D01*
X69571430Y-43948497D02*
X69523811Y-44043735D01*
X69523811Y-44043735D02*
X69523811Y-44138973D01*
X69523811Y-44138973D02*
X69571430Y-44234211D01*
X69571430Y-44234211D02*
X69619049Y-44281830D01*
X69619049Y-44281830D02*
X69714287Y-44329449D01*
X69714287Y-44329449D02*
X70047620Y-44329449D01*
X68857144Y-43853259D02*
X68666668Y-43853259D01*
X68666668Y-43853259D02*
X68571430Y-43900878D01*
X68571430Y-43900878D02*
X68476192Y-43996116D01*
X68476192Y-43996116D02*
X68428573Y-44186592D01*
X68428573Y-44186592D02*
X68428573Y-44519925D01*
X68428573Y-44519925D02*
X68476192Y-44710401D01*
X68476192Y-44710401D02*
X68571430Y-44805640D01*
X68571430Y-44805640D02*
X68666668Y-44853259D01*
X68666668Y-44853259D02*
X68857144Y-44853259D01*
X68857144Y-44853259D02*
X68952382Y-44805640D01*
X68952382Y-44805640D02*
X69047620Y-44710401D01*
X69047620Y-44710401D02*
X69095239Y-44519925D01*
X69095239Y-44519925D02*
X69095239Y-44186592D01*
X69095239Y-44186592D02*
X69047620Y-43996116D01*
X69047620Y-43996116D02*
X68952382Y-43900878D01*
X68952382Y-43900878D02*
X68857144Y-43853259D01*
X67809525Y-43853259D02*
X67619049Y-43853259D01*
X67619049Y-43853259D02*
X67523811Y-43900878D01*
X67523811Y-43900878D02*
X67428573Y-43996116D01*
X67428573Y-43996116D02*
X67380954Y-44186592D01*
X67380954Y-44186592D02*
X67380954Y-44519925D01*
X67380954Y-44519925D02*
X67428573Y-44710401D01*
X67428573Y-44710401D02*
X67523811Y-44805640D01*
X67523811Y-44805640D02*
X67619049Y-44853259D01*
X67619049Y-44853259D02*
X67809525Y-44853259D01*
X67809525Y-44853259D02*
X67904763Y-44805640D01*
X67904763Y-44805640D02*
X68000001Y-44710401D01*
X68000001Y-44710401D02*
X68047620Y-44519925D01*
X68047620Y-44519925D02*
X68047620Y-44186592D01*
X68047620Y-44186592D02*
X68000001Y-43996116D01*
X68000001Y-43996116D02*
X67904763Y-43900878D01*
X67904763Y-43900878D02*
X67809525Y-43853259D01*
X67095239Y-43853259D02*
X66523811Y-43853259D01*
X66809525Y-44853259D02*
X66809525Y-43853259D01*
X65285715Y-44424687D02*
X65333334Y-44472306D01*
X65333334Y-44472306D02*
X65285715Y-44519925D01*
X65285715Y-44519925D02*
X65238096Y-44472306D01*
X65238096Y-44472306D02*
X65285715Y-44424687D01*
X65285715Y-44424687D02*
X65285715Y-44519925D01*
X64047619Y-44186592D02*
X63666667Y-44186592D01*
X63904762Y-43853259D02*
X63904762Y-44710401D01*
X63904762Y-44710401D02*
X63857143Y-44805640D01*
X63857143Y-44805640D02*
X63761905Y-44853259D01*
X63761905Y-44853259D02*
X63666667Y-44853259D01*
X62904762Y-44853259D02*
X62904762Y-44329449D01*
X62904762Y-44329449D02*
X62952381Y-44234211D01*
X62952381Y-44234211D02*
X63047619Y-44186592D01*
X63047619Y-44186592D02*
X63238095Y-44186592D01*
X63238095Y-44186592D02*
X63333333Y-44234211D01*
X62904762Y-44805640D02*
X63000000Y-44853259D01*
X63000000Y-44853259D02*
X63238095Y-44853259D01*
X63238095Y-44853259D02*
X63333333Y-44805640D01*
X63333333Y-44805640D02*
X63380952Y-44710401D01*
X63380952Y-44710401D02*
X63380952Y-44615163D01*
X63380952Y-44615163D02*
X63333333Y-44519925D01*
X63333333Y-44519925D02*
X63238095Y-44472306D01*
X63238095Y-44472306D02*
X63000000Y-44472306D01*
X63000000Y-44472306D02*
X62904762Y-44424687D01*
X62428571Y-44186592D02*
X62428571Y-45186592D01*
X62428571Y-44234211D02*
X62333333Y-44186592D01*
X62333333Y-44186592D02*
X62142857Y-44186592D01*
X62142857Y-44186592D02*
X62047619Y-44234211D01*
X62047619Y-44234211D02*
X62000000Y-44281830D01*
X62000000Y-44281830D02*
X61952381Y-44377068D01*
X61952381Y-44377068D02*
X61952381Y-44662782D01*
X61952381Y-44662782D02*
X62000000Y-44758020D01*
X62000000Y-44758020D02*
X62047619Y-44805640D01*
X62047619Y-44805640D02*
X62142857Y-44853259D01*
X62142857Y-44853259D02*
X62333333Y-44853259D01*
X62333333Y-44853259D02*
X62428571Y-44805640D01*
X60190476Y-44853259D02*
X60523809Y-44377068D01*
X60761904Y-44853259D02*
X60761904Y-43853259D01*
X60761904Y-43853259D02*
X60380952Y-43853259D01*
X60380952Y-43853259D02*
X60285714Y-43900878D01*
X60285714Y-43900878D02*
X60238095Y-43948497D01*
X60238095Y-43948497D02*
X60190476Y-44043735D01*
X60190476Y-44043735D02*
X60190476Y-44186592D01*
X60190476Y-44186592D02*
X60238095Y-44281830D01*
X60238095Y-44281830D02*
X60285714Y-44329449D01*
X60285714Y-44329449D02*
X60380952Y-44377068D01*
X60380952Y-44377068D02*
X60761904Y-44377068D01*
X59809523Y-44805640D02*
X59666666Y-44853259D01*
X59666666Y-44853259D02*
X59428571Y-44853259D01*
X59428571Y-44853259D02*
X59333333Y-44805640D01*
X59333333Y-44805640D02*
X59285714Y-44758020D01*
X59285714Y-44758020D02*
X59238095Y-44662782D01*
X59238095Y-44662782D02*
X59238095Y-44567544D01*
X59238095Y-44567544D02*
X59285714Y-44472306D01*
X59285714Y-44472306D02*
X59333333Y-44424687D01*
X59333333Y-44424687D02*
X59428571Y-44377068D01*
X59428571Y-44377068D02*
X59619047Y-44329449D01*
X59619047Y-44329449D02*
X59714285Y-44281830D01*
X59714285Y-44281830D02*
X59761904Y-44234211D01*
X59761904Y-44234211D02*
X59809523Y-44138973D01*
X59809523Y-44138973D02*
X59809523Y-44043735D01*
X59809523Y-44043735D02*
X59761904Y-43948497D01*
X59761904Y-43948497D02*
X59714285Y-43900878D01*
X59714285Y-43900878D02*
X59619047Y-43853259D01*
X59619047Y-43853259D02*
X59380952Y-43853259D01*
X59380952Y-43853259D02*
X59238095Y-43900878D01*
X58952380Y-43853259D02*
X58380952Y-43853259D01*
X58666666Y-44853259D02*
X58666666Y-43853259D01*
X57142856Y-44424687D02*
X57190475Y-44472306D01*
X57190475Y-44472306D02*
X57142856Y-44519925D01*
X57142856Y-44519925D02*
X57095237Y-44472306D01*
X57095237Y-44472306D02*
X57142856Y-44424687D01*
X57142856Y-44424687D02*
X57142856Y-44519925D01*
X55761903Y-44853259D02*
X55761903Y-44186592D01*
X55761903Y-44377068D02*
X55714284Y-44281830D01*
X55714284Y-44281830D02*
X55666665Y-44234211D01*
X55666665Y-44234211D02*
X55571427Y-44186592D01*
X55571427Y-44186592D02*
X55476189Y-44186592D01*
X54761903Y-44805640D02*
X54857141Y-44853259D01*
X54857141Y-44853259D02*
X55047617Y-44853259D01*
X55047617Y-44853259D02*
X55142855Y-44805640D01*
X55142855Y-44805640D02*
X55190474Y-44710401D01*
X55190474Y-44710401D02*
X55190474Y-44329449D01*
X55190474Y-44329449D02*
X55142855Y-44234211D01*
X55142855Y-44234211D02*
X55047617Y-44186592D01*
X55047617Y-44186592D02*
X54857141Y-44186592D01*
X54857141Y-44186592D02*
X54761903Y-44234211D01*
X54761903Y-44234211D02*
X54714284Y-44329449D01*
X54714284Y-44329449D02*
X54714284Y-44424687D01*
X54714284Y-44424687D02*
X55190474Y-44519925D01*
X54142855Y-44853259D02*
X54238093Y-44805640D01*
X54238093Y-44805640D02*
X54285712Y-44710401D01*
X54285712Y-44710401D02*
X54285712Y-43853259D01*
X53380950Y-44805640D02*
X53476188Y-44853259D01*
X53476188Y-44853259D02*
X53666664Y-44853259D01*
X53666664Y-44853259D02*
X53761902Y-44805640D01*
X53761902Y-44805640D02*
X53809521Y-44710401D01*
X53809521Y-44710401D02*
X53809521Y-44329449D01*
X53809521Y-44329449D02*
X53761902Y-44234211D01*
X53761902Y-44234211D02*
X53666664Y-44186592D01*
X53666664Y-44186592D02*
X53476188Y-44186592D01*
X53476188Y-44186592D02*
X53380950Y-44234211D01*
X53380950Y-44234211D02*
X53333331Y-44329449D01*
X53333331Y-44329449D02*
X53333331Y-44424687D01*
X53333331Y-44424687D02*
X53809521Y-44519925D01*
X52476188Y-44853259D02*
X52476188Y-44329449D01*
X52476188Y-44329449D02*
X52523807Y-44234211D01*
X52523807Y-44234211D02*
X52619045Y-44186592D01*
X52619045Y-44186592D02*
X52809521Y-44186592D01*
X52809521Y-44186592D02*
X52904759Y-44234211D01*
X52476188Y-44805640D02*
X52571426Y-44853259D01*
X52571426Y-44853259D02*
X52809521Y-44853259D01*
X52809521Y-44853259D02*
X52904759Y-44805640D01*
X52904759Y-44805640D02*
X52952378Y-44710401D01*
X52952378Y-44710401D02*
X52952378Y-44615163D01*
X52952378Y-44615163D02*
X52904759Y-44519925D01*
X52904759Y-44519925D02*
X52809521Y-44472306D01*
X52809521Y-44472306D02*
X52571426Y-44472306D01*
X52571426Y-44472306D02*
X52476188Y-44424687D01*
X52047616Y-44805640D02*
X51952378Y-44853259D01*
X51952378Y-44853259D02*
X51761902Y-44853259D01*
X51761902Y-44853259D02*
X51666664Y-44805640D01*
X51666664Y-44805640D02*
X51619045Y-44710401D01*
X51619045Y-44710401D02*
X51619045Y-44662782D01*
X51619045Y-44662782D02*
X51666664Y-44567544D01*
X51666664Y-44567544D02*
X51761902Y-44519925D01*
X51761902Y-44519925D02*
X51904759Y-44519925D01*
X51904759Y-44519925D02*
X51999997Y-44472306D01*
X51999997Y-44472306D02*
X52047616Y-44377068D01*
X52047616Y-44377068D02*
X52047616Y-44329449D01*
X52047616Y-44329449D02*
X51999997Y-44234211D01*
X51999997Y-44234211D02*
X51904759Y-44186592D01*
X51904759Y-44186592D02*
X51761902Y-44186592D01*
X51761902Y-44186592D02*
X51666664Y-44234211D01*
X50809521Y-44805640D02*
X50904759Y-44853259D01*
X50904759Y-44853259D02*
X51095235Y-44853259D01*
X51095235Y-44853259D02*
X51190473Y-44805640D01*
X51190473Y-44805640D02*
X51238092Y-44710401D01*
X51238092Y-44710401D02*
X51238092Y-44329449D01*
X51238092Y-44329449D02*
X51190473Y-44234211D01*
X51190473Y-44234211D02*
X51095235Y-44186592D01*
X51095235Y-44186592D02*
X50904759Y-44186592D01*
X50904759Y-44186592D02*
X50809521Y-44234211D01*
X50809521Y-44234211D02*
X50761902Y-44329449D01*
X50761902Y-44329449D02*
X50761902Y-44424687D01*
X50761902Y-44424687D02*
X51238092Y-44519925D01*
X49238092Y-44329449D02*
X49095235Y-44377068D01*
X49095235Y-44377068D02*
X49047616Y-44424687D01*
X49047616Y-44424687D02*
X48999997Y-44519925D01*
X48999997Y-44519925D02*
X48999997Y-44662782D01*
X48999997Y-44662782D02*
X49047616Y-44758020D01*
X49047616Y-44758020D02*
X49095235Y-44805640D01*
X49095235Y-44805640D02*
X49190473Y-44853259D01*
X49190473Y-44853259D02*
X49571425Y-44853259D01*
X49571425Y-44853259D02*
X49571425Y-43853259D01*
X49571425Y-43853259D02*
X49238092Y-43853259D01*
X49238092Y-43853259D02*
X49142854Y-43900878D01*
X49142854Y-43900878D02*
X49095235Y-43948497D01*
X49095235Y-43948497D02*
X49047616Y-44043735D01*
X49047616Y-44043735D02*
X49047616Y-44138973D01*
X49047616Y-44138973D02*
X49095235Y-44234211D01*
X49095235Y-44234211D02*
X49142854Y-44281830D01*
X49142854Y-44281830D02*
X49238092Y-44329449D01*
X49238092Y-44329449D02*
X49571425Y-44329449D01*
X48380949Y-43853259D02*
X48190473Y-43853259D01*
X48190473Y-43853259D02*
X48095235Y-43900878D01*
X48095235Y-43900878D02*
X47999997Y-43996116D01*
X47999997Y-43996116D02*
X47952378Y-44186592D01*
X47952378Y-44186592D02*
X47952378Y-44519925D01*
X47952378Y-44519925D02*
X47999997Y-44710401D01*
X47999997Y-44710401D02*
X48095235Y-44805640D01*
X48095235Y-44805640D02*
X48190473Y-44853259D01*
X48190473Y-44853259D02*
X48380949Y-44853259D01*
X48380949Y-44853259D02*
X48476187Y-44805640D01*
X48476187Y-44805640D02*
X48571425Y-44710401D01*
X48571425Y-44710401D02*
X48619044Y-44519925D01*
X48619044Y-44519925D02*
X48619044Y-44186592D01*
X48619044Y-44186592D02*
X48571425Y-43996116D01*
X48571425Y-43996116D02*
X48476187Y-43900878D01*
X48476187Y-43900878D02*
X48380949Y-43853259D01*
X47333330Y-43853259D02*
X47142854Y-43853259D01*
X47142854Y-43853259D02*
X47047616Y-43900878D01*
X47047616Y-43900878D02*
X46952378Y-43996116D01*
X46952378Y-43996116D02*
X46904759Y-44186592D01*
X46904759Y-44186592D02*
X46904759Y-44519925D01*
X46904759Y-44519925D02*
X46952378Y-44710401D01*
X46952378Y-44710401D02*
X47047616Y-44805640D01*
X47047616Y-44805640D02*
X47142854Y-44853259D01*
X47142854Y-44853259D02*
X47333330Y-44853259D01*
X47333330Y-44853259D02*
X47428568Y-44805640D01*
X47428568Y-44805640D02*
X47523806Y-44710401D01*
X47523806Y-44710401D02*
X47571425Y-44519925D01*
X47571425Y-44519925D02*
X47571425Y-44186592D01*
X47571425Y-44186592D02*
X47523806Y-43996116D01*
X47523806Y-43996116D02*
X47428568Y-43900878D01*
X47428568Y-43900878D02*
X47333330Y-43853259D01*
X46619044Y-43853259D02*
X46047616Y-43853259D01*
X46333330Y-44853259D02*
X46333330Y-43853259D01*
X79690476Y-45453259D02*
X79500000Y-45453259D01*
X79500000Y-45453259D02*
X79404762Y-45500878D01*
X79404762Y-45500878D02*
X79309524Y-45596116D01*
X79309524Y-45596116D02*
X79261905Y-45786592D01*
X79261905Y-45786592D02*
X79261905Y-46119925D01*
X79261905Y-46119925D02*
X79309524Y-46310401D01*
X79309524Y-46310401D02*
X79404762Y-46405640D01*
X79404762Y-46405640D02*
X79500000Y-46453259D01*
X79500000Y-46453259D02*
X79690476Y-46453259D01*
X79690476Y-46453259D02*
X79785714Y-46405640D01*
X79785714Y-46405640D02*
X79880952Y-46310401D01*
X79880952Y-46310401D02*
X79928571Y-46119925D01*
X79928571Y-46119925D02*
X79928571Y-45786592D01*
X79928571Y-45786592D02*
X79880952Y-45596116D01*
X79880952Y-45596116D02*
X79785714Y-45500878D01*
X79785714Y-45500878D02*
X79690476Y-45453259D01*
X78880952Y-46405640D02*
X78738095Y-46453259D01*
X78738095Y-46453259D02*
X78500000Y-46453259D01*
X78500000Y-46453259D02*
X78404762Y-46405640D01*
X78404762Y-46405640D02*
X78357143Y-46358020D01*
X78357143Y-46358020D02*
X78309524Y-46262782D01*
X78309524Y-46262782D02*
X78309524Y-46167544D01*
X78309524Y-46167544D02*
X78357143Y-46072306D01*
X78357143Y-46072306D02*
X78404762Y-46024687D01*
X78404762Y-46024687D02*
X78500000Y-45977068D01*
X78500000Y-45977068D02*
X78690476Y-45929449D01*
X78690476Y-45929449D02*
X78785714Y-45881830D01*
X78785714Y-45881830D02*
X78833333Y-45834211D01*
X78833333Y-45834211D02*
X78880952Y-45738973D01*
X78880952Y-45738973D02*
X78880952Y-45643735D01*
X78880952Y-45643735D02*
X78833333Y-45548497D01*
X78833333Y-45548497D02*
X78785714Y-45500878D01*
X78785714Y-45500878D02*
X78690476Y-45453259D01*
X78690476Y-45453259D02*
X78452381Y-45453259D01*
X78452381Y-45453259D02*
X78309524Y-45500878D01*
X77880952Y-46453259D02*
X77880952Y-45453259D01*
X77880952Y-45929449D02*
X77309524Y-45929449D01*
X77309524Y-46453259D02*
X77309524Y-45453259D01*
X76928571Y-45453259D02*
X76690476Y-46453259D01*
X76690476Y-46453259D02*
X76500000Y-45738973D01*
X76500000Y-45738973D02*
X76309524Y-46453259D01*
X76309524Y-46453259D02*
X76071429Y-45453259D01*
X74785714Y-46024687D02*
X74833333Y-46072306D01*
X74833333Y-46072306D02*
X74785714Y-46119925D01*
X74785714Y-46119925D02*
X74738095Y-46072306D01*
X74738095Y-46072306D02*
X74785714Y-46024687D01*
X74785714Y-46024687D02*
X74785714Y-46119925D01*
X72976190Y-45786592D02*
X72976190Y-46596116D01*
X72976190Y-46596116D02*
X73023809Y-46691354D01*
X73023809Y-46691354D02*
X73071428Y-46738973D01*
X73071428Y-46738973D02*
X73166666Y-46786592D01*
X73166666Y-46786592D02*
X73309523Y-46786592D01*
X73309523Y-46786592D02*
X73404761Y-46738973D01*
X72976190Y-46405640D02*
X73071428Y-46453259D01*
X73071428Y-46453259D02*
X73261904Y-46453259D01*
X73261904Y-46453259D02*
X73357142Y-46405640D01*
X73357142Y-46405640D02*
X73404761Y-46358020D01*
X73404761Y-46358020D02*
X73452380Y-46262782D01*
X73452380Y-46262782D02*
X73452380Y-45977068D01*
X73452380Y-45977068D02*
X73404761Y-45881830D01*
X73404761Y-45881830D02*
X73357142Y-45834211D01*
X73357142Y-45834211D02*
X73261904Y-45786592D01*
X73261904Y-45786592D02*
X73071428Y-45786592D01*
X73071428Y-45786592D02*
X72976190Y-45834211D01*
X72499999Y-46453259D02*
X72499999Y-45786592D01*
X72499999Y-45453259D02*
X72547618Y-45500878D01*
X72547618Y-45500878D02*
X72499999Y-45548497D01*
X72499999Y-45548497D02*
X72452380Y-45500878D01*
X72452380Y-45500878D02*
X72499999Y-45453259D01*
X72499999Y-45453259D02*
X72499999Y-45548497D01*
X72166666Y-45786592D02*
X71785714Y-45786592D01*
X72023809Y-45453259D02*
X72023809Y-46310401D01*
X72023809Y-46310401D02*
X71976190Y-46405640D01*
X71976190Y-46405640D02*
X71880952Y-46453259D01*
X71880952Y-46453259D02*
X71785714Y-46453259D01*
X71452380Y-46453259D02*
X71452380Y-45453259D01*
X71023809Y-46453259D02*
X71023809Y-45929449D01*
X71023809Y-45929449D02*
X71071428Y-45834211D01*
X71071428Y-45834211D02*
X71166666Y-45786592D01*
X71166666Y-45786592D02*
X71309523Y-45786592D01*
X71309523Y-45786592D02*
X71404761Y-45834211D01*
X71404761Y-45834211D02*
X71452380Y-45881830D01*
X70119047Y-45786592D02*
X70119047Y-46453259D01*
X70547618Y-45786592D02*
X70547618Y-46310401D01*
X70547618Y-46310401D02*
X70499999Y-46405640D01*
X70499999Y-46405640D02*
X70404761Y-46453259D01*
X70404761Y-46453259D02*
X70261904Y-46453259D01*
X70261904Y-46453259D02*
X70166666Y-46405640D01*
X70166666Y-46405640D02*
X70119047Y-46358020D01*
X69642856Y-46453259D02*
X69642856Y-45453259D01*
X69642856Y-45834211D02*
X69547618Y-45786592D01*
X69547618Y-45786592D02*
X69357142Y-45786592D01*
X69357142Y-45786592D02*
X69261904Y-45834211D01*
X69261904Y-45834211D02*
X69214285Y-45881830D01*
X69214285Y-45881830D02*
X69166666Y-45977068D01*
X69166666Y-45977068D02*
X69166666Y-46262782D01*
X69166666Y-46262782D02*
X69214285Y-46358020D01*
X69214285Y-46358020D02*
X69261904Y-46405640D01*
X69261904Y-46405640D02*
X69357142Y-46453259D01*
X69357142Y-46453259D02*
X69547618Y-46453259D01*
X69547618Y-46453259D02*
X69642856Y-46405640D01*
X68738094Y-46358020D02*
X68690475Y-46405640D01*
X68690475Y-46405640D02*
X68738094Y-46453259D01*
X68738094Y-46453259D02*
X68785713Y-46405640D01*
X68785713Y-46405640D02*
X68738094Y-46358020D01*
X68738094Y-46358020D02*
X68738094Y-46453259D01*
X67833333Y-46405640D02*
X67928571Y-46453259D01*
X67928571Y-46453259D02*
X68119047Y-46453259D01*
X68119047Y-46453259D02*
X68214285Y-46405640D01*
X68214285Y-46405640D02*
X68261904Y-46358020D01*
X68261904Y-46358020D02*
X68309523Y-46262782D01*
X68309523Y-46262782D02*
X68309523Y-45977068D01*
X68309523Y-45977068D02*
X68261904Y-45881830D01*
X68261904Y-45881830D02*
X68214285Y-45834211D01*
X68214285Y-45834211D02*
X68119047Y-45786592D01*
X68119047Y-45786592D02*
X67928571Y-45786592D01*
X67928571Y-45786592D02*
X67833333Y-45834211D01*
X67261904Y-46453259D02*
X67357142Y-46405640D01*
X67357142Y-46405640D02*
X67404761Y-46358020D01*
X67404761Y-46358020D02*
X67452380Y-46262782D01*
X67452380Y-46262782D02*
X67452380Y-45977068D01*
X67452380Y-45977068D02*
X67404761Y-45881830D01*
X67404761Y-45881830D02*
X67357142Y-45834211D01*
X67357142Y-45834211D02*
X67261904Y-45786592D01*
X67261904Y-45786592D02*
X67119047Y-45786592D01*
X67119047Y-45786592D02*
X67023809Y-45834211D01*
X67023809Y-45834211D02*
X66976190Y-45881830D01*
X66976190Y-45881830D02*
X66928571Y-45977068D01*
X66928571Y-45977068D02*
X66928571Y-46262782D01*
X66928571Y-46262782D02*
X66976190Y-46358020D01*
X66976190Y-46358020D02*
X67023809Y-46405640D01*
X67023809Y-46405640D02*
X67119047Y-46453259D01*
X67119047Y-46453259D02*
X67261904Y-46453259D01*
X66499999Y-46453259D02*
X66499999Y-45786592D01*
X66499999Y-45881830D02*
X66452380Y-45834211D01*
X66452380Y-45834211D02*
X66357142Y-45786592D01*
X66357142Y-45786592D02*
X66214285Y-45786592D01*
X66214285Y-45786592D02*
X66119047Y-45834211D01*
X66119047Y-45834211D02*
X66071428Y-45929449D01*
X66071428Y-45929449D02*
X66071428Y-46453259D01*
X66071428Y-45929449D02*
X66023809Y-45834211D01*
X66023809Y-45834211D02*
X65928571Y-45786592D01*
X65928571Y-45786592D02*
X65785714Y-45786592D01*
X65785714Y-45786592D02*
X65690475Y-45834211D01*
X65690475Y-45834211D02*
X65642856Y-45929449D01*
X65642856Y-45929449D02*
X65642856Y-46453259D01*
X64452381Y-45405640D02*
X65309523Y-46691354D01*
X63785714Y-45929449D02*
X63642857Y-45977068D01*
X63642857Y-45977068D02*
X63595238Y-46024687D01*
X63595238Y-46024687D02*
X63547619Y-46119925D01*
X63547619Y-46119925D02*
X63547619Y-46262782D01*
X63547619Y-46262782D02*
X63595238Y-46358020D01*
X63595238Y-46358020D02*
X63642857Y-46405640D01*
X63642857Y-46405640D02*
X63738095Y-46453259D01*
X63738095Y-46453259D02*
X64119047Y-46453259D01*
X64119047Y-46453259D02*
X64119047Y-45453259D01*
X64119047Y-45453259D02*
X63785714Y-45453259D01*
X63785714Y-45453259D02*
X63690476Y-45500878D01*
X63690476Y-45500878D02*
X63642857Y-45548497D01*
X63642857Y-45548497D02*
X63595238Y-45643735D01*
X63595238Y-45643735D02*
X63595238Y-45738973D01*
X63595238Y-45738973D02*
X63642857Y-45834211D01*
X63642857Y-45834211D02*
X63690476Y-45881830D01*
X63690476Y-45881830D02*
X63785714Y-45929449D01*
X63785714Y-45929449D02*
X64119047Y-45929449D01*
X63119047Y-46453259D02*
X63119047Y-45786592D01*
X63119047Y-45977068D02*
X63071428Y-45881830D01*
X63071428Y-45881830D02*
X63023809Y-45834211D01*
X63023809Y-45834211D02*
X62928571Y-45786592D01*
X62928571Y-45786592D02*
X62833333Y-45786592D01*
X62499999Y-46453259D02*
X62499999Y-45786592D01*
X62499999Y-45453259D02*
X62547618Y-45500878D01*
X62547618Y-45500878D02*
X62499999Y-45548497D01*
X62499999Y-45548497D02*
X62452380Y-45500878D01*
X62452380Y-45500878D02*
X62499999Y-45453259D01*
X62499999Y-45453259D02*
X62499999Y-45548497D01*
X61880952Y-46453259D02*
X61976190Y-46405640D01*
X61976190Y-46405640D02*
X62023809Y-46310401D01*
X62023809Y-46310401D02*
X62023809Y-45453259D01*
X61357142Y-46453259D02*
X61452380Y-46405640D01*
X61452380Y-46405640D02*
X61499999Y-46310401D01*
X61499999Y-46310401D02*
X61499999Y-45453259D01*
X60547618Y-46453259D02*
X60547618Y-45929449D01*
X60547618Y-45929449D02*
X60595237Y-45834211D01*
X60595237Y-45834211D02*
X60690475Y-45786592D01*
X60690475Y-45786592D02*
X60880951Y-45786592D01*
X60880951Y-45786592D02*
X60976189Y-45834211D01*
X60547618Y-46405640D02*
X60642856Y-46453259D01*
X60642856Y-46453259D02*
X60880951Y-46453259D01*
X60880951Y-46453259D02*
X60976189Y-46405640D01*
X60976189Y-46405640D02*
X61023808Y-46310401D01*
X61023808Y-46310401D02*
X61023808Y-46215163D01*
X61023808Y-46215163D02*
X60976189Y-46119925D01*
X60976189Y-46119925D02*
X60880951Y-46072306D01*
X60880951Y-46072306D02*
X60642856Y-46072306D01*
X60642856Y-46072306D02*
X60547618Y-46024687D01*
X60071427Y-46453259D02*
X60071427Y-45786592D01*
X60071427Y-45977068D02*
X60023808Y-45881830D01*
X60023808Y-45881830D02*
X59976189Y-45834211D01*
X59976189Y-45834211D02*
X59880951Y-45786592D01*
X59880951Y-45786592D02*
X59785713Y-45786592D01*
X59261903Y-45453259D02*
X59166665Y-45453259D01*
X59166665Y-45453259D02*
X59071427Y-45500878D01*
X59071427Y-45500878D02*
X59023808Y-45548497D01*
X59023808Y-45548497D02*
X58976189Y-45643735D01*
X58976189Y-45643735D02*
X58928570Y-45834211D01*
X58928570Y-45834211D02*
X58928570Y-46072306D01*
X58928570Y-46072306D02*
X58976189Y-46262782D01*
X58976189Y-46262782D02*
X59023808Y-46358020D01*
X59023808Y-46358020D02*
X59071427Y-46405640D01*
X59071427Y-46405640D02*
X59166665Y-46453259D01*
X59166665Y-46453259D02*
X59261903Y-46453259D01*
X59261903Y-46453259D02*
X59357141Y-46405640D01*
X59357141Y-46405640D02*
X59404760Y-46358020D01*
X59404760Y-46358020D02*
X59452379Y-46262782D01*
X59452379Y-46262782D02*
X59499998Y-46072306D01*
X59499998Y-46072306D02*
X59499998Y-45834211D01*
X59499998Y-45834211D02*
X59452379Y-45643735D01*
X59452379Y-45643735D02*
X59404760Y-45548497D01*
X59404760Y-45548497D02*
X59357141Y-45500878D01*
X59357141Y-45500878D02*
X59261903Y-45453259D01*
X57976189Y-46453259D02*
X58547617Y-46453259D01*
X58261903Y-46453259D02*
X58261903Y-45453259D01*
X58261903Y-45453259D02*
X58357141Y-45596116D01*
X58357141Y-45596116D02*
X58452379Y-45691354D01*
X58452379Y-45691354D02*
X58547617Y-45738973D01*
X57357141Y-45453259D02*
X57261903Y-45453259D01*
X57261903Y-45453259D02*
X57166665Y-45500878D01*
X57166665Y-45500878D02*
X57119046Y-45548497D01*
X57119046Y-45548497D02*
X57071427Y-45643735D01*
X57071427Y-45643735D02*
X57023808Y-45834211D01*
X57023808Y-45834211D02*
X57023808Y-46072306D01*
X57023808Y-46072306D02*
X57071427Y-46262782D01*
X57071427Y-46262782D02*
X57119046Y-46358020D01*
X57119046Y-46358020D02*
X57166665Y-46405640D01*
X57166665Y-46405640D02*
X57261903Y-46453259D01*
X57261903Y-46453259D02*
X57357141Y-46453259D01*
X57357141Y-46453259D02*
X57452379Y-46405640D01*
X57452379Y-46405640D02*
X57499998Y-46358020D01*
X57499998Y-46358020D02*
X57547617Y-46262782D01*
X57547617Y-46262782D02*
X57595236Y-46072306D01*
X57595236Y-46072306D02*
X57595236Y-45834211D01*
X57595236Y-45834211D02*
X57547617Y-45643735D01*
X57547617Y-45643735D02*
X57499998Y-45548497D01*
X57499998Y-45548497D02*
X57452379Y-45500878D01*
X57452379Y-45500878D02*
X57357141Y-45453259D01*
X56071427Y-46453259D02*
X56642855Y-46453259D01*
X56357141Y-46453259D02*
X56357141Y-45453259D01*
X56357141Y-45453259D02*
X56452379Y-45596116D01*
X56452379Y-45596116D02*
X56547617Y-45691354D01*
X56547617Y-45691354D02*
X56642855Y-45738973D01*
D12*
X71066665Y-39693823D02*
X71119046Y-39746204D01*
X71119046Y-39746204D02*
X71276189Y-39798584D01*
X71276189Y-39798584D02*
X71380951Y-39798584D01*
X71380951Y-39798584D02*
X71538094Y-39746204D01*
X71538094Y-39746204D02*
X71642856Y-39641442D01*
X71642856Y-39641442D02*
X71695237Y-39536680D01*
X71695237Y-39536680D02*
X71747618Y-39327156D01*
X71747618Y-39327156D02*
X71747618Y-39170013D01*
X71747618Y-39170013D02*
X71695237Y-38960489D01*
X71695237Y-38960489D02*
X71642856Y-38855727D01*
X71642856Y-38855727D02*
X71538094Y-38750965D01*
X71538094Y-38750965D02*
X71380951Y-38698584D01*
X71380951Y-38698584D02*
X71276189Y-38698584D01*
X71276189Y-38698584D02*
X71119046Y-38750965D01*
X71119046Y-38750965D02*
X71066665Y-38803346D01*
X69966665Y-39798584D02*
X70333332Y-39274775D01*
X70595237Y-39798584D02*
X70595237Y-38698584D01*
X70595237Y-38698584D02*
X70176189Y-38698584D01*
X70176189Y-38698584D02*
X70071427Y-38750965D01*
X70071427Y-38750965D02*
X70019046Y-38803346D01*
X70019046Y-38803346D02*
X69966665Y-38908108D01*
X69966665Y-38908108D02*
X69966665Y-39065251D01*
X69966665Y-39065251D02*
X70019046Y-39170013D01*
X70019046Y-39170013D02*
X70071427Y-39222394D01*
X70071427Y-39222394D02*
X70176189Y-39274775D01*
X70176189Y-39274775D02*
X70595237Y-39274775D01*
X69547618Y-38803346D02*
X69495237Y-38750965D01*
X69495237Y-38750965D02*
X69390475Y-38698584D01*
X69390475Y-38698584D02*
X69128570Y-38698584D01*
X69128570Y-38698584D02*
X69023808Y-38750965D01*
X69023808Y-38750965D02*
X68971427Y-38803346D01*
X68971427Y-38803346D02*
X68919046Y-38908108D01*
X68919046Y-38908108D02*
X68919046Y-39012870D01*
X68919046Y-39012870D02*
X68971427Y-39170013D01*
X68971427Y-39170013D02*
X69599999Y-39798584D01*
X69599999Y-39798584D02*
X68919046Y-39798584D01*
X68238094Y-38698584D02*
X68133332Y-38698584D01*
X68133332Y-38698584D02*
X68028570Y-38750965D01*
X68028570Y-38750965D02*
X67976189Y-38803346D01*
X67976189Y-38803346D02*
X67923808Y-38908108D01*
X67923808Y-38908108D02*
X67871427Y-39117632D01*
X67871427Y-39117632D02*
X67871427Y-39379537D01*
X67871427Y-39379537D02*
X67923808Y-39589061D01*
X67923808Y-39589061D02*
X67976189Y-39693823D01*
X67976189Y-39693823D02*
X68028570Y-39746204D01*
X68028570Y-39746204D02*
X68133332Y-39798584D01*
X68133332Y-39798584D02*
X68238094Y-39798584D01*
X68238094Y-39798584D02*
X68342856Y-39746204D01*
X68342856Y-39746204D02*
X68395237Y-39693823D01*
X68395237Y-39693823D02*
X68447618Y-39589061D01*
X68447618Y-39589061D02*
X68499999Y-39379537D01*
X68499999Y-39379537D02*
X68499999Y-39117632D01*
X68499999Y-39117632D02*
X68447618Y-38908108D01*
X68447618Y-38908108D02*
X68395237Y-38803346D01*
X68395237Y-38803346D02*
X68342856Y-38750965D01*
X68342856Y-38750965D02*
X68238094Y-38698584D01*
X67504761Y-38698584D02*
X66823808Y-38698584D01*
X66823808Y-38698584D02*
X67190475Y-39117632D01*
X67190475Y-39117632D02*
X67033332Y-39117632D01*
X67033332Y-39117632D02*
X66928570Y-39170013D01*
X66928570Y-39170013D02*
X66876189Y-39222394D01*
X66876189Y-39222394D02*
X66823808Y-39327156D01*
X66823808Y-39327156D02*
X66823808Y-39589061D01*
X66823808Y-39589061D02*
X66876189Y-39693823D01*
X66876189Y-39693823D02*
X66928570Y-39746204D01*
X66928570Y-39746204D02*
X67033332Y-39798584D01*
X67033332Y-39798584D02*
X67347618Y-39798584D01*
X67347618Y-39798584D02*
X67452380Y-39746204D01*
X67452380Y-39746204D02*
X67504761Y-39693823D01*
X66404761Y-38803346D02*
X66352380Y-38750965D01*
X66352380Y-38750965D02*
X66247618Y-38698584D01*
X66247618Y-38698584D02*
X65985713Y-38698584D01*
X65985713Y-38698584D02*
X65880951Y-38750965D01*
X65880951Y-38750965D02*
X65828570Y-38803346D01*
X65828570Y-38803346D02*
X65776189Y-38908108D01*
X65776189Y-38908108D02*
X65776189Y-39012870D01*
X65776189Y-39012870D02*
X65828570Y-39170013D01*
X65828570Y-39170013D02*
X66457142Y-39798584D01*
X66457142Y-39798584D02*
X65776189Y-39798584D01*
X64309523Y-39327156D02*
X64361904Y-39379537D01*
X64361904Y-39379537D02*
X64309523Y-39431918D01*
X64309523Y-39431918D02*
X64257142Y-39379537D01*
X64257142Y-39379537D02*
X64309523Y-39327156D01*
X64309523Y-39327156D02*
X64309523Y-39431918D01*
X62790476Y-39379537D02*
X61952381Y-39379537D01*
X62371428Y-39798584D02*
X62371428Y-38960489D01*
X60642857Y-39746204D02*
X60538095Y-39798584D01*
X60538095Y-39798584D02*
X60328571Y-39798584D01*
X60328571Y-39798584D02*
X60223809Y-39746204D01*
X60223809Y-39746204D02*
X60171428Y-39641442D01*
X60171428Y-39641442D02*
X60171428Y-39589061D01*
X60171428Y-39589061D02*
X60223809Y-39484299D01*
X60223809Y-39484299D02*
X60328571Y-39431918D01*
X60328571Y-39431918D02*
X60485714Y-39431918D01*
X60485714Y-39431918D02*
X60590476Y-39379537D01*
X60590476Y-39379537D02*
X60642857Y-39274775D01*
X60642857Y-39274775D02*
X60642857Y-39222394D01*
X60642857Y-39222394D02*
X60590476Y-39117632D01*
X60590476Y-39117632D02*
X60485714Y-39065251D01*
X60485714Y-39065251D02*
X60328571Y-39065251D01*
X60328571Y-39065251D02*
X60223809Y-39117632D01*
X59700000Y-39798584D02*
X59700000Y-39065251D01*
X59700000Y-38698584D02*
X59752381Y-38750965D01*
X59752381Y-38750965D02*
X59700000Y-38803346D01*
X59700000Y-38803346D02*
X59647619Y-38750965D01*
X59647619Y-38750965D02*
X59700000Y-38698584D01*
X59700000Y-38698584D02*
X59700000Y-38803346D01*
X58704761Y-39798584D02*
X58704761Y-38698584D01*
X58704761Y-39746204D02*
X58809523Y-39798584D01*
X58809523Y-39798584D02*
X59019047Y-39798584D01*
X59019047Y-39798584D02*
X59123809Y-39746204D01*
X59123809Y-39746204D02*
X59176190Y-39693823D01*
X59176190Y-39693823D02*
X59228571Y-39589061D01*
X59228571Y-39589061D02*
X59228571Y-39274775D01*
X59228571Y-39274775D02*
X59176190Y-39170013D01*
X59176190Y-39170013D02*
X59123809Y-39117632D01*
X59123809Y-39117632D02*
X59019047Y-39065251D01*
X59019047Y-39065251D02*
X58809523Y-39065251D01*
X58809523Y-39065251D02*
X58704761Y-39117632D01*
X57761904Y-39746204D02*
X57866666Y-39798584D01*
X57866666Y-39798584D02*
X58076190Y-39798584D01*
X58076190Y-39798584D02*
X58180952Y-39746204D01*
X58180952Y-39746204D02*
X58233333Y-39641442D01*
X58233333Y-39641442D02*
X58233333Y-39222394D01*
X58233333Y-39222394D02*
X58180952Y-39117632D01*
X58180952Y-39117632D02*
X58076190Y-39065251D01*
X58076190Y-39065251D02*
X57866666Y-39065251D01*
X57866666Y-39065251D02*
X57761904Y-39117632D01*
X57761904Y-39117632D02*
X57709523Y-39222394D01*
X57709523Y-39222394D02*
X57709523Y-39327156D01*
X57709523Y-39327156D02*
X58233333Y-39431918D01*
X56242857Y-39798584D02*
X56347619Y-39746204D01*
X56347619Y-39746204D02*
X56400000Y-39693823D01*
X56400000Y-39693823D02*
X56452381Y-39589061D01*
X56452381Y-39589061D02*
X56452381Y-39274775D01*
X56452381Y-39274775D02*
X56400000Y-39170013D01*
X56400000Y-39170013D02*
X56347619Y-39117632D01*
X56347619Y-39117632D02*
X56242857Y-39065251D01*
X56242857Y-39065251D02*
X56085714Y-39065251D01*
X56085714Y-39065251D02*
X55980952Y-39117632D01*
X55980952Y-39117632D02*
X55928571Y-39170013D01*
X55928571Y-39170013D02*
X55876190Y-39274775D01*
X55876190Y-39274775D02*
X55876190Y-39589061D01*
X55876190Y-39589061D02*
X55928571Y-39693823D01*
X55928571Y-39693823D02*
X55980952Y-39746204D01*
X55980952Y-39746204D02*
X56085714Y-39798584D01*
X56085714Y-39798584D02*
X56242857Y-39798584D01*
X54933333Y-39065251D02*
X54933333Y-39798584D01*
X55404762Y-39065251D02*
X55404762Y-39641442D01*
X55404762Y-39641442D02*
X55352381Y-39746204D01*
X55352381Y-39746204D02*
X55247619Y-39798584D01*
X55247619Y-39798584D02*
X55090476Y-39798584D01*
X55090476Y-39798584D02*
X54985714Y-39746204D01*
X54985714Y-39746204D02*
X54933333Y-39693823D01*
X54566667Y-39065251D02*
X54147619Y-39065251D01*
X54409524Y-38698584D02*
X54409524Y-39641442D01*
X54409524Y-39641442D02*
X54357143Y-39746204D01*
X54357143Y-39746204D02*
X54252381Y-39798584D01*
X54252381Y-39798584D02*
X54147619Y-39798584D01*
X79642855Y-42998584D02*
X79642855Y-41898584D01*
X79642855Y-41898584D02*
X79014283Y-42998584D01*
X79014283Y-42998584D02*
X79014283Y-41898584D01*
X78071426Y-42946204D02*
X78176188Y-42998584D01*
X78176188Y-42998584D02*
X78385712Y-42998584D01*
X78385712Y-42998584D02*
X78490474Y-42946204D01*
X78490474Y-42946204D02*
X78542855Y-42841442D01*
X78542855Y-42841442D02*
X78542855Y-42422394D01*
X78542855Y-42422394D02*
X78490474Y-42317632D01*
X78490474Y-42317632D02*
X78385712Y-42265251D01*
X78385712Y-42265251D02*
X78176188Y-42265251D01*
X78176188Y-42265251D02*
X78071426Y-42317632D01*
X78071426Y-42317632D02*
X78019045Y-42422394D01*
X78019045Y-42422394D02*
X78019045Y-42527156D01*
X78019045Y-42527156D02*
X78542855Y-42631918D01*
X77076188Y-42265251D02*
X77076188Y-42998584D01*
X77547617Y-42265251D02*
X77547617Y-42841442D01*
X77547617Y-42841442D02*
X77495236Y-42946204D01*
X77495236Y-42946204D02*
X77390474Y-42998584D01*
X77390474Y-42998584D02*
X77233331Y-42998584D01*
X77233331Y-42998584D02*
X77128569Y-42946204D01*
X77128569Y-42946204D02*
X77076188Y-42893823D01*
X76552379Y-42998584D02*
X76552379Y-42265251D01*
X76552379Y-42474775D02*
X76499998Y-42370013D01*
X76499998Y-42370013D02*
X76447617Y-42317632D01*
X76447617Y-42317632D02*
X76342855Y-42265251D01*
X76342855Y-42265251D02*
X76238093Y-42265251D01*
X75399998Y-42998584D02*
X75399998Y-42422394D01*
X75399998Y-42422394D02*
X75452379Y-42317632D01*
X75452379Y-42317632D02*
X75557141Y-42265251D01*
X75557141Y-42265251D02*
X75766665Y-42265251D01*
X75766665Y-42265251D02*
X75871427Y-42317632D01*
X75399998Y-42946204D02*
X75504760Y-42998584D01*
X75504760Y-42998584D02*
X75766665Y-42998584D01*
X75766665Y-42998584D02*
X75871427Y-42946204D01*
X75871427Y-42946204D02*
X75923808Y-42841442D01*
X75923808Y-42841442D02*
X75923808Y-42736680D01*
X75923808Y-42736680D02*
X75871427Y-42631918D01*
X75871427Y-42631918D02*
X75766665Y-42579537D01*
X75766665Y-42579537D02*
X75504760Y-42579537D01*
X75504760Y-42579537D02*
X75399998Y-42527156D01*
X74719046Y-42998584D02*
X74823808Y-42946204D01*
X74823808Y-42946204D02*
X74876189Y-42841442D01*
X74876189Y-42841442D02*
X74876189Y-41898584D01*
X73671427Y-42893823D02*
X73723808Y-42946204D01*
X73723808Y-42946204D02*
X73880951Y-42998584D01*
X73880951Y-42998584D02*
X73985713Y-42998584D01*
X73985713Y-42998584D02*
X74142856Y-42946204D01*
X74142856Y-42946204D02*
X74247618Y-42841442D01*
X74247618Y-42841442D02*
X74299999Y-42736680D01*
X74299999Y-42736680D02*
X74352380Y-42527156D01*
X74352380Y-42527156D02*
X74352380Y-42370013D01*
X74352380Y-42370013D02*
X74299999Y-42160489D01*
X74299999Y-42160489D02*
X74247618Y-42055727D01*
X74247618Y-42055727D02*
X74142856Y-41950965D01*
X74142856Y-41950965D02*
X73985713Y-41898584D01*
X73985713Y-41898584D02*
X73880951Y-41898584D01*
X73880951Y-41898584D02*
X73723808Y-41950965D01*
X73723808Y-41950965D02*
X73671427Y-42003346D01*
X72728570Y-42998584D02*
X72728570Y-42422394D01*
X72728570Y-42422394D02*
X72780951Y-42317632D01*
X72780951Y-42317632D02*
X72885713Y-42265251D01*
X72885713Y-42265251D02*
X73095237Y-42265251D01*
X73095237Y-42265251D02*
X73199999Y-42317632D01*
X72728570Y-42946204D02*
X72833332Y-42998584D01*
X72833332Y-42998584D02*
X73095237Y-42998584D01*
X73095237Y-42998584D02*
X73199999Y-42946204D01*
X73199999Y-42946204D02*
X73252380Y-42841442D01*
X73252380Y-42841442D02*
X73252380Y-42736680D01*
X73252380Y-42736680D02*
X73199999Y-42631918D01*
X73199999Y-42631918D02*
X73095237Y-42579537D01*
X73095237Y-42579537D02*
X72833332Y-42579537D01*
X72833332Y-42579537D02*
X72728570Y-42527156D01*
X72204761Y-42998584D02*
X72204761Y-42265251D01*
X72204761Y-42474775D02*
X72152380Y-42370013D01*
X72152380Y-42370013D02*
X72099999Y-42317632D01*
X72099999Y-42317632D02*
X71995237Y-42265251D01*
X71995237Y-42265251D02*
X71890475Y-42265251D01*
X71052380Y-42998584D02*
X71052380Y-41898584D01*
X71052380Y-42946204D02*
X71157142Y-42998584D01*
X71157142Y-42998584D02*
X71366666Y-42998584D01*
X71366666Y-42998584D02*
X71471428Y-42946204D01*
X71471428Y-42946204D02*
X71523809Y-42893823D01*
X71523809Y-42893823D02*
X71576190Y-42789061D01*
X71576190Y-42789061D02*
X71576190Y-42474775D01*
X71576190Y-42474775D02*
X71523809Y-42370013D01*
X71523809Y-42370013D02*
X71471428Y-42317632D01*
X71471428Y-42317632D02*
X71366666Y-42265251D01*
X71366666Y-42265251D02*
X71157142Y-42265251D01*
X71157142Y-42265251D02*
X71052380Y-42317632D01*
X69795238Y-42265251D02*
X69533333Y-42998584D01*
X69533333Y-42998584D02*
X69271428Y-42265251D01*
X68904762Y-42003346D02*
X68852381Y-41950965D01*
X68852381Y-41950965D02*
X68747619Y-41898584D01*
X68747619Y-41898584D02*
X68485714Y-41898584D01*
X68485714Y-41898584D02*
X68380952Y-41950965D01*
X68380952Y-41950965D02*
X68328571Y-42003346D01*
X68328571Y-42003346D02*
X68276190Y-42108108D01*
X68276190Y-42108108D02*
X68276190Y-42212870D01*
X68276190Y-42212870D02*
X68328571Y-42370013D01*
X68328571Y-42370013D02*
X68957143Y-42998584D01*
X68957143Y-42998584D02*
X68276190Y-42998584D01*
X67804762Y-42893823D02*
X67752381Y-42946204D01*
X67752381Y-42946204D02*
X67804762Y-42998584D01*
X67804762Y-42998584D02*
X67857143Y-42946204D01*
X67857143Y-42946204D02*
X67804762Y-42893823D01*
X67804762Y-42893823D02*
X67804762Y-42998584D01*
X67385714Y-41898584D02*
X66704761Y-41898584D01*
X66704761Y-41898584D02*
X67071428Y-42317632D01*
X67071428Y-42317632D02*
X66914285Y-42317632D01*
X66914285Y-42317632D02*
X66809523Y-42370013D01*
X66809523Y-42370013D02*
X66757142Y-42422394D01*
X66757142Y-42422394D02*
X66704761Y-42527156D01*
X66704761Y-42527156D02*
X66704761Y-42789061D01*
X66704761Y-42789061D02*
X66757142Y-42893823D01*
X66757142Y-42893823D02*
X66809523Y-42946204D01*
X66809523Y-42946204D02*
X66914285Y-42998584D01*
X66914285Y-42998584D02*
X67228571Y-42998584D01*
X67228571Y-42998584D02*
X67333333Y-42946204D01*
X67333333Y-42946204D02*
X67385714Y-42893823D01*
X65238095Y-42527156D02*
X65290476Y-42579537D01*
X65290476Y-42579537D02*
X65238095Y-42631918D01*
X65238095Y-42631918D02*
X65185714Y-42579537D01*
X65185714Y-42579537D02*
X65238095Y-42527156D01*
X65238095Y-42527156D02*
X65238095Y-42631918D01*
X63719048Y-42265251D02*
X63719048Y-43365251D01*
X63719048Y-42317632D02*
X63614286Y-42265251D01*
X63614286Y-42265251D02*
X63404762Y-42265251D01*
X63404762Y-42265251D02*
X63300000Y-42317632D01*
X63300000Y-42317632D02*
X63247619Y-42370013D01*
X63247619Y-42370013D02*
X63195238Y-42474775D01*
X63195238Y-42474775D02*
X63195238Y-42789061D01*
X63195238Y-42789061D02*
X63247619Y-42893823D01*
X63247619Y-42893823D02*
X63300000Y-42946204D01*
X63300000Y-42946204D02*
X63404762Y-42998584D01*
X63404762Y-42998584D02*
X63614286Y-42998584D01*
X63614286Y-42998584D02*
X63719048Y-42946204D01*
X62723810Y-42998584D02*
X62723810Y-42265251D01*
X62723810Y-42474775D02*
X62671429Y-42370013D01*
X62671429Y-42370013D02*
X62619048Y-42317632D01*
X62619048Y-42317632D02*
X62514286Y-42265251D01*
X62514286Y-42265251D02*
X62409524Y-42265251D01*
X62042858Y-42998584D02*
X62042858Y-42265251D01*
X62042858Y-41898584D02*
X62095239Y-41950965D01*
X62095239Y-41950965D02*
X62042858Y-42003346D01*
X62042858Y-42003346D02*
X61990477Y-41950965D01*
X61990477Y-41950965D02*
X62042858Y-41898584D01*
X62042858Y-41898584D02*
X62042858Y-42003346D01*
X61519048Y-42265251D02*
X61519048Y-42998584D01*
X61519048Y-42370013D02*
X61466667Y-42317632D01*
X61466667Y-42317632D02*
X61361905Y-42265251D01*
X61361905Y-42265251D02*
X61204762Y-42265251D01*
X61204762Y-42265251D02*
X61100000Y-42317632D01*
X61100000Y-42317632D02*
X61047619Y-42422394D01*
X61047619Y-42422394D02*
X61047619Y-42998584D01*
X60052381Y-42946204D02*
X60157143Y-42998584D01*
X60157143Y-42998584D02*
X60366667Y-42998584D01*
X60366667Y-42998584D02*
X60471429Y-42946204D01*
X60471429Y-42946204D02*
X60523810Y-42893823D01*
X60523810Y-42893823D02*
X60576191Y-42789061D01*
X60576191Y-42789061D02*
X60576191Y-42474775D01*
X60576191Y-42474775D02*
X60523810Y-42370013D01*
X60523810Y-42370013D02*
X60471429Y-42317632D01*
X60471429Y-42317632D02*
X60366667Y-42265251D01*
X60366667Y-42265251D02*
X60157143Y-42265251D01*
X60157143Y-42265251D02*
X60052381Y-42317632D01*
X59161905Y-42946204D02*
X59266667Y-42998584D01*
X59266667Y-42998584D02*
X59476191Y-42998584D01*
X59476191Y-42998584D02*
X59580953Y-42946204D01*
X59580953Y-42946204D02*
X59633334Y-42841442D01*
X59633334Y-42841442D02*
X59633334Y-42422394D01*
X59633334Y-42422394D02*
X59580953Y-42317632D01*
X59580953Y-42317632D02*
X59476191Y-42265251D01*
X59476191Y-42265251D02*
X59266667Y-42265251D01*
X59266667Y-42265251D02*
X59161905Y-42317632D01*
X59161905Y-42317632D02*
X59109524Y-42422394D01*
X59109524Y-42422394D02*
X59109524Y-42527156D01*
X59109524Y-42527156D02*
X59633334Y-42631918D01*
X58795239Y-42265251D02*
X58376191Y-42265251D01*
X58638096Y-41898584D02*
X58638096Y-42841442D01*
X58638096Y-42841442D02*
X58585715Y-42946204D01*
X58585715Y-42946204D02*
X58480953Y-42998584D01*
X58480953Y-42998584D02*
X58376191Y-42998584D01*
X57590477Y-42946204D02*
X57695239Y-42998584D01*
X57695239Y-42998584D02*
X57904763Y-42998584D01*
X57904763Y-42998584D02*
X58009525Y-42946204D01*
X58009525Y-42946204D02*
X58061906Y-42841442D01*
X58061906Y-42841442D02*
X58061906Y-42422394D01*
X58061906Y-42422394D02*
X58009525Y-42317632D01*
X58009525Y-42317632D02*
X57904763Y-42265251D01*
X57904763Y-42265251D02*
X57695239Y-42265251D01*
X57695239Y-42265251D02*
X57590477Y-42317632D01*
X57590477Y-42317632D02*
X57538096Y-42422394D01*
X57538096Y-42422394D02*
X57538096Y-42527156D01*
X57538096Y-42527156D02*
X58061906Y-42631918D01*
X57066668Y-42998584D02*
X57066668Y-41898584D01*
X56961906Y-42579537D02*
X56647620Y-42998584D01*
X56647620Y-42265251D02*
X57066668Y-42684299D01*
X56176192Y-42998584D02*
X56176192Y-41898584D01*
X56071430Y-42579537D02*
X55757144Y-42998584D01*
X55757144Y-42265251D02*
X56176192Y-42684299D01*
X55285716Y-42998584D02*
X55285716Y-42265251D01*
X55285716Y-41898584D02*
X55338097Y-41950965D01*
X55338097Y-41950965D02*
X55285716Y-42003346D01*
X55285716Y-42003346D02*
X55233335Y-41950965D01*
X55233335Y-41950965D02*
X55285716Y-41898584D01*
X55285716Y-41898584D02*
X55285716Y-42003346D01*
X54761906Y-42893823D02*
X54709525Y-42946204D01*
X54709525Y-42946204D02*
X54761906Y-42998584D01*
X54761906Y-42998584D02*
X54814287Y-42946204D01*
X54814287Y-42946204D02*
X54761906Y-42893823D01*
X54761906Y-42893823D02*
X54761906Y-42998584D01*
X53766667Y-42946204D02*
X53871429Y-42998584D01*
X53871429Y-42998584D02*
X54080953Y-42998584D01*
X54080953Y-42998584D02*
X54185715Y-42946204D01*
X54185715Y-42946204D02*
X54238096Y-42893823D01*
X54238096Y-42893823D02*
X54290477Y-42789061D01*
X54290477Y-42789061D02*
X54290477Y-42474775D01*
X54290477Y-42474775D02*
X54238096Y-42370013D01*
X54238096Y-42370013D02*
X54185715Y-42317632D01*
X54185715Y-42317632D02*
X54080953Y-42265251D01*
X54080953Y-42265251D02*
X53871429Y-42265251D01*
X53871429Y-42265251D02*
X53766667Y-42317632D01*
X53138096Y-42998584D02*
X53242858Y-42946204D01*
X53242858Y-42946204D02*
X53295239Y-42893823D01*
X53295239Y-42893823D02*
X53347620Y-42789061D01*
X53347620Y-42789061D02*
X53347620Y-42474775D01*
X53347620Y-42474775D02*
X53295239Y-42370013D01*
X53295239Y-42370013D02*
X53242858Y-42317632D01*
X53242858Y-42317632D02*
X53138096Y-42265251D01*
X53138096Y-42265251D02*
X52980953Y-42265251D01*
X52980953Y-42265251D02*
X52876191Y-42317632D01*
X52876191Y-42317632D02*
X52823810Y-42370013D01*
X52823810Y-42370013D02*
X52771429Y-42474775D01*
X52771429Y-42474775D02*
X52771429Y-42789061D01*
X52771429Y-42789061D02*
X52823810Y-42893823D01*
X52823810Y-42893823D02*
X52876191Y-42946204D01*
X52876191Y-42946204D02*
X52980953Y-42998584D01*
X52980953Y-42998584D02*
X53138096Y-42998584D01*
X52300001Y-42998584D02*
X52300001Y-42265251D01*
X52300001Y-42370013D02*
X52247620Y-42317632D01*
X52247620Y-42317632D02*
X52142858Y-42265251D01*
X52142858Y-42265251D02*
X51985715Y-42265251D01*
X51985715Y-42265251D02*
X51880953Y-42317632D01*
X51880953Y-42317632D02*
X51828572Y-42422394D01*
X51828572Y-42422394D02*
X51828572Y-42998584D01*
X51828572Y-42422394D02*
X51776191Y-42317632D01*
X51776191Y-42317632D02*
X51671429Y-42265251D01*
X51671429Y-42265251D02*
X51514286Y-42265251D01*
X51514286Y-42265251D02*
X51409525Y-42317632D01*
X51409525Y-42317632D02*
X51357144Y-42422394D01*
X51357144Y-42422394D02*
X51357144Y-42998584D01*
D13*
X14035714Y-50894174D02*
X13821428Y-50965602D01*
X13821428Y-50965602D02*
X13749999Y-51037031D01*
X13749999Y-51037031D02*
X13678571Y-51179888D01*
X13678571Y-51179888D02*
X13678571Y-51394174D01*
X13678571Y-51394174D02*
X13749999Y-51537031D01*
X13749999Y-51537031D02*
X13821428Y-51608460D01*
X13821428Y-51608460D02*
X13964285Y-51679888D01*
X13964285Y-51679888D02*
X14535714Y-51679888D01*
X14535714Y-51679888D02*
X14535714Y-50179888D01*
X14535714Y-50179888D02*
X14035714Y-50179888D01*
X14035714Y-50179888D02*
X13892857Y-50251317D01*
X13892857Y-50251317D02*
X13821428Y-50322745D01*
X13821428Y-50322745D02*
X13749999Y-50465602D01*
X13749999Y-50465602D02*
X13749999Y-50608460D01*
X13749999Y-50608460D02*
X13821428Y-50751317D01*
X13821428Y-50751317D02*
X13892857Y-50822745D01*
X13892857Y-50822745D02*
X14035714Y-50894174D01*
X14035714Y-50894174D02*
X14535714Y-50894174D01*
X12749999Y-50179888D02*
X12464285Y-50179888D01*
X12464285Y-50179888D02*
X12321428Y-50251317D01*
X12321428Y-50251317D02*
X12178571Y-50394174D01*
X12178571Y-50394174D02*
X12107142Y-50679888D01*
X12107142Y-50679888D02*
X12107142Y-51179888D01*
X12107142Y-51179888D02*
X12178571Y-51465602D01*
X12178571Y-51465602D02*
X12321428Y-51608460D01*
X12321428Y-51608460D02*
X12464285Y-51679888D01*
X12464285Y-51679888D02*
X12749999Y-51679888D01*
X12749999Y-51679888D02*
X12892857Y-51608460D01*
X12892857Y-51608460D02*
X13035714Y-51465602D01*
X13035714Y-51465602D02*
X13107142Y-51179888D01*
X13107142Y-51179888D02*
X13107142Y-50679888D01*
X13107142Y-50679888D02*
X13035714Y-50394174D01*
X13035714Y-50394174D02*
X12892857Y-50251317D01*
X12892857Y-50251317D02*
X12749999Y-50179888D01*
X11178570Y-50179888D02*
X10892856Y-50179888D01*
X10892856Y-50179888D02*
X10749999Y-50251317D01*
X10749999Y-50251317D02*
X10607142Y-50394174D01*
X10607142Y-50394174D02*
X10535713Y-50679888D01*
X10535713Y-50679888D02*
X10535713Y-51179888D01*
X10535713Y-51179888D02*
X10607142Y-51465602D01*
X10607142Y-51465602D02*
X10749999Y-51608460D01*
X10749999Y-51608460D02*
X10892856Y-51679888D01*
X10892856Y-51679888D02*
X11178570Y-51679888D01*
X11178570Y-51679888D02*
X11321428Y-51608460D01*
X11321428Y-51608460D02*
X11464285Y-51465602D01*
X11464285Y-51465602D02*
X11535713Y-51179888D01*
X11535713Y-51179888D02*
X11535713Y-50679888D01*
X11535713Y-50679888D02*
X11464285Y-50394174D01*
X11464285Y-50394174D02*
X11321428Y-50251317D01*
X11321428Y-50251317D02*
X11178570Y-50179888D01*
X10107141Y-50179888D02*
X9249999Y-50179888D01*
X9678570Y-51679888D02*
X9678570Y-50179888D01*
X24821428Y-51679888D02*
X25321428Y-50965602D01*
X25678571Y-51679888D02*
X25678571Y-50179888D01*
X25678571Y-50179888D02*
X25107142Y-50179888D01*
X25107142Y-50179888D02*
X24964285Y-50251317D01*
X24964285Y-50251317D02*
X24892856Y-50322745D01*
X24892856Y-50322745D02*
X24821428Y-50465602D01*
X24821428Y-50465602D02*
X24821428Y-50679888D01*
X24821428Y-50679888D02*
X24892856Y-50822745D01*
X24892856Y-50822745D02*
X24964285Y-50894174D01*
X24964285Y-50894174D02*
X25107142Y-50965602D01*
X25107142Y-50965602D02*
X25678571Y-50965602D01*
X24249999Y-51608460D02*
X24035714Y-51679888D01*
X24035714Y-51679888D02*
X23678571Y-51679888D01*
X23678571Y-51679888D02*
X23535714Y-51608460D01*
X23535714Y-51608460D02*
X23464285Y-51537031D01*
X23464285Y-51537031D02*
X23392856Y-51394174D01*
X23392856Y-51394174D02*
X23392856Y-51251317D01*
X23392856Y-51251317D02*
X23464285Y-51108460D01*
X23464285Y-51108460D02*
X23535714Y-51037031D01*
X23535714Y-51037031D02*
X23678571Y-50965602D01*
X23678571Y-50965602D02*
X23964285Y-50894174D01*
X23964285Y-50894174D02*
X24107142Y-50822745D01*
X24107142Y-50822745D02*
X24178571Y-50751317D01*
X24178571Y-50751317D02*
X24249999Y-50608460D01*
X24249999Y-50608460D02*
X24249999Y-50465602D01*
X24249999Y-50465602D02*
X24178571Y-50322745D01*
X24178571Y-50322745D02*
X24107142Y-50251317D01*
X24107142Y-50251317D02*
X23964285Y-50179888D01*
X23964285Y-50179888D02*
X23607142Y-50179888D01*
X23607142Y-50179888D02*
X23392856Y-50251317D01*
X22964285Y-50179888D02*
X22107143Y-50179888D01*
X22535714Y-51679888D02*
X22535714Y-50179888D01*
D14*
X60910428Y-6314907D02*
X61193762Y-5910145D01*
X61396143Y-6314907D02*
X61396143Y-5464907D01*
X61396143Y-5464907D02*
X61072333Y-5464907D01*
X61072333Y-5464907D02*
X60991381Y-5505383D01*
X60991381Y-5505383D02*
X60950904Y-5545859D01*
X60950904Y-5545859D02*
X60910428Y-5626811D01*
X60910428Y-5626811D02*
X60910428Y-5748240D01*
X60910428Y-5748240D02*
X60950904Y-5829192D01*
X60950904Y-5829192D02*
X60991381Y-5869669D01*
X60991381Y-5869669D02*
X61072333Y-5910145D01*
X61072333Y-5910145D02*
X61396143Y-5910145D01*
X60100904Y-6314907D02*
X60586619Y-6314907D01*
X60343762Y-6314907D02*
X60343762Y-5464907D01*
X60343762Y-5464907D02*
X60424714Y-5586335D01*
X60424714Y-5586335D02*
X60505666Y-5667288D01*
X60505666Y-5667288D02*
X60586619Y-5707764D01*
X59291380Y-6314907D02*
X59777095Y-6314907D01*
X59534238Y-6314907D02*
X59534238Y-5464907D01*
X59534238Y-5464907D02*
X59615190Y-5586335D01*
X59615190Y-5586335D02*
X59696142Y-5667288D01*
X59696142Y-5667288D02*
X59777095Y-5707764D01*
X67885907Y-16352380D02*
X68574002Y-16352380D01*
X68574002Y-16352380D02*
X68654954Y-16392857D01*
X68654954Y-16392857D02*
X68695431Y-16433333D01*
X68695431Y-16433333D02*
X68735907Y-16514285D01*
X68735907Y-16514285D02*
X68735907Y-16676190D01*
X68735907Y-16676190D02*
X68695431Y-16757142D01*
X68695431Y-16757142D02*
X68654954Y-16797619D01*
X68654954Y-16797619D02*
X68574002Y-16838095D01*
X68574002Y-16838095D02*
X67885907Y-16838095D01*
X67885907Y-17647618D02*
X67885907Y-17242856D01*
X67885907Y-17242856D02*
X68290669Y-17202380D01*
X68290669Y-17202380D02*
X68250192Y-17242856D01*
X68250192Y-17242856D02*
X68209716Y-17323809D01*
X68209716Y-17323809D02*
X68209716Y-17526190D01*
X68209716Y-17526190D02*
X68250192Y-17607142D01*
X68250192Y-17607142D02*
X68290669Y-17647618D01*
X68290669Y-17647618D02*
X68371621Y-17688095D01*
X68371621Y-17688095D02*
X68574002Y-17688095D01*
X68574002Y-17688095D02*
X68654954Y-17647618D01*
X68654954Y-17647618D02*
X68695431Y-17607142D01*
X68695431Y-17607142D02*
X68735907Y-17526190D01*
X68735907Y-17526190D02*
X68735907Y-17323809D01*
X68735907Y-17323809D02*
X68695431Y-17242856D01*
X68695431Y-17242856D02*
X68654954Y-17202380D01*
X82554907Y-21353571D02*
X82150145Y-21070237D01*
X82554907Y-20867856D02*
X81704907Y-20867856D01*
X81704907Y-20867856D02*
X81704907Y-21191666D01*
X81704907Y-21191666D02*
X81745383Y-21272618D01*
X81745383Y-21272618D02*
X81785859Y-21313095D01*
X81785859Y-21313095D02*
X81866811Y-21353571D01*
X81866811Y-21353571D02*
X81988240Y-21353571D01*
X81988240Y-21353571D02*
X82069192Y-21313095D01*
X82069192Y-21313095D02*
X82109669Y-21272618D01*
X82109669Y-21272618D02*
X82150145Y-21191666D01*
X82150145Y-21191666D02*
X82150145Y-20867856D01*
X82554907Y-22163095D02*
X82554907Y-21677380D01*
X82554907Y-21920237D02*
X81704907Y-21920237D01*
X81704907Y-21920237D02*
X81826335Y-21839285D01*
X81826335Y-21839285D02*
X81907288Y-21758333D01*
X81907288Y-21758333D02*
X81947764Y-21677380D01*
X81704907Y-22446428D02*
X81704907Y-22972619D01*
X81704907Y-22972619D02*
X82028716Y-22689285D01*
X82028716Y-22689285D02*
X82028716Y-22810714D01*
X82028716Y-22810714D02*
X82069192Y-22891666D01*
X82069192Y-22891666D02*
X82109669Y-22932142D01*
X82109669Y-22932142D02*
X82190621Y-22972619D01*
X82190621Y-22972619D02*
X82393002Y-22972619D01*
X82393002Y-22972619D02*
X82473954Y-22932142D01*
X82473954Y-22932142D02*
X82514431Y-22891666D01*
X82514431Y-22891666D02*
X82554907Y-22810714D01*
X82554907Y-22810714D02*
X82554907Y-22567857D01*
X82554907Y-22567857D02*
X82514431Y-22486904D01*
X82514431Y-22486904D02*
X82473954Y-22446428D01*
X47414666Y-6314907D02*
X47698000Y-5910145D01*
X47900381Y-6314907D02*
X47900381Y-5464907D01*
X47900381Y-5464907D02*
X47576571Y-5464907D01*
X47576571Y-5464907D02*
X47495619Y-5505383D01*
X47495619Y-5505383D02*
X47455142Y-5545859D01*
X47455142Y-5545859D02*
X47414666Y-5626811D01*
X47414666Y-5626811D02*
X47414666Y-5748240D01*
X47414666Y-5748240D02*
X47455142Y-5829192D01*
X47455142Y-5829192D02*
X47495619Y-5869669D01*
X47495619Y-5869669D02*
X47576571Y-5910145D01*
X47576571Y-5910145D02*
X47900381Y-5910145D01*
X47009904Y-6314907D02*
X46848000Y-6314907D01*
X46848000Y-6314907D02*
X46767047Y-6274431D01*
X46767047Y-6274431D02*
X46726571Y-6233954D01*
X46726571Y-6233954D02*
X46645619Y-6112526D01*
X46645619Y-6112526D02*
X46605142Y-5950621D01*
X46605142Y-5950621D02*
X46605142Y-5626811D01*
X46605142Y-5626811D02*
X46645619Y-5545859D01*
X46645619Y-5545859D02*
X46686095Y-5505383D01*
X46686095Y-5505383D02*
X46767047Y-5464907D01*
X46767047Y-5464907D02*
X46928952Y-5464907D01*
X46928952Y-5464907D02*
X47009904Y-5505383D01*
X47009904Y-5505383D02*
X47050381Y-5545859D01*
X47050381Y-5545859D02*
X47090857Y-5626811D01*
X47090857Y-5626811D02*
X47090857Y-5829192D01*
X47090857Y-5829192D02*
X47050381Y-5910145D01*
X47050381Y-5910145D02*
X47009904Y-5950621D01*
X47009904Y-5950621D02*
X46928952Y-5991097D01*
X46928952Y-5991097D02*
X46767047Y-5991097D01*
X46767047Y-5991097D02*
X46686095Y-5950621D01*
X46686095Y-5950621D02*
X46645619Y-5910145D01*
X46645619Y-5910145D02*
X46605142Y-5829192D01*
X45733954Y-21858333D02*
X45774431Y-21817857D01*
X45774431Y-21817857D02*
X45814907Y-21696428D01*
X45814907Y-21696428D02*
X45814907Y-21615476D01*
X45814907Y-21615476D02*
X45774431Y-21494047D01*
X45774431Y-21494047D02*
X45693478Y-21413095D01*
X45693478Y-21413095D02*
X45612526Y-21372618D01*
X45612526Y-21372618D02*
X45450621Y-21332142D01*
X45450621Y-21332142D02*
X45329192Y-21332142D01*
X45329192Y-21332142D02*
X45167288Y-21372618D01*
X45167288Y-21372618D02*
X45086335Y-21413095D01*
X45086335Y-21413095D02*
X45005383Y-21494047D01*
X45005383Y-21494047D02*
X44964907Y-21615476D01*
X44964907Y-21615476D02*
X44964907Y-21696428D01*
X44964907Y-21696428D02*
X45005383Y-21817857D01*
X45005383Y-21817857D02*
X45045859Y-21858333D01*
X45248240Y-22586904D02*
X45814907Y-22586904D01*
X44924431Y-22384523D02*
X45531573Y-22182142D01*
X45531573Y-22182142D02*
X45531573Y-22708333D01*
X8141666Y-6314907D02*
X8425000Y-5910145D01*
X8627381Y-6314907D02*
X8627381Y-5464907D01*
X8627381Y-5464907D02*
X8303571Y-5464907D01*
X8303571Y-5464907D02*
X8222619Y-5505383D01*
X8222619Y-5505383D02*
X8182142Y-5545859D01*
X8182142Y-5545859D02*
X8141666Y-5626811D01*
X8141666Y-5626811D02*
X8141666Y-5748240D01*
X8141666Y-5748240D02*
X8182142Y-5829192D01*
X8182142Y-5829192D02*
X8222619Y-5869669D01*
X8222619Y-5869669D02*
X8303571Y-5910145D01*
X8303571Y-5910145D02*
X8627381Y-5910145D01*
X7332142Y-6314907D02*
X7817857Y-6314907D01*
X7575000Y-6314907D02*
X7575000Y-5464907D01*
X7575000Y-5464907D02*
X7655952Y-5586335D01*
X7655952Y-5586335D02*
X7736904Y-5667288D01*
X7736904Y-5667288D02*
X7817857Y-5707764D01*
X80733954Y-7858333D02*
X80774431Y-7817857D01*
X80774431Y-7817857D02*
X80814907Y-7696428D01*
X80814907Y-7696428D02*
X80814907Y-7615476D01*
X80814907Y-7615476D02*
X80774431Y-7494047D01*
X80774431Y-7494047D02*
X80693478Y-7413095D01*
X80693478Y-7413095D02*
X80612526Y-7372618D01*
X80612526Y-7372618D02*
X80450621Y-7332142D01*
X80450621Y-7332142D02*
X80329192Y-7332142D01*
X80329192Y-7332142D02*
X80167288Y-7372618D01*
X80167288Y-7372618D02*
X80086335Y-7413095D01*
X80086335Y-7413095D02*
X80005383Y-7494047D01*
X80005383Y-7494047D02*
X79964907Y-7615476D01*
X79964907Y-7615476D02*
X79964907Y-7696428D01*
X79964907Y-7696428D02*
X80005383Y-7817857D01*
X80005383Y-7817857D02*
X80045859Y-7858333D01*
X79964907Y-8141666D02*
X79964907Y-8708333D01*
X79964907Y-8708333D02*
X80814907Y-8344047D01*
X45733954Y-16858333D02*
X45774431Y-16817857D01*
X45774431Y-16817857D02*
X45814907Y-16696428D01*
X45814907Y-16696428D02*
X45814907Y-16615476D01*
X45814907Y-16615476D02*
X45774431Y-16494047D01*
X45774431Y-16494047D02*
X45693478Y-16413095D01*
X45693478Y-16413095D02*
X45612526Y-16372618D01*
X45612526Y-16372618D02*
X45450621Y-16332142D01*
X45450621Y-16332142D02*
X45329192Y-16332142D01*
X45329192Y-16332142D02*
X45167288Y-16372618D01*
X45167288Y-16372618D02*
X45086335Y-16413095D01*
X45086335Y-16413095D02*
X45005383Y-16494047D01*
X45005383Y-16494047D02*
X44964907Y-16615476D01*
X44964907Y-16615476D02*
X44964907Y-16696428D01*
X44964907Y-16696428D02*
X45005383Y-16817857D01*
X45005383Y-16817857D02*
X45045859Y-16858333D01*
X44964907Y-17141666D02*
X44964907Y-17667857D01*
X44964907Y-17667857D02*
X45288716Y-17384523D01*
X45288716Y-17384523D02*
X45288716Y-17505952D01*
X45288716Y-17505952D02*
X45329192Y-17586904D01*
X45329192Y-17586904D02*
X45369669Y-17627380D01*
X45369669Y-17627380D02*
X45450621Y-17667857D01*
X45450621Y-17667857D02*
X45653002Y-17667857D01*
X45653002Y-17667857D02*
X45733954Y-17627380D01*
X45733954Y-17627380D02*
X45774431Y-17586904D01*
X45774431Y-17586904D02*
X45814907Y-17505952D01*
X45814907Y-17505952D02*
X45814907Y-17263095D01*
X45814907Y-17263095D02*
X45774431Y-17182142D01*
X45774431Y-17182142D02*
X45733954Y-17141666D01*
X54364428Y-6314907D02*
X54647762Y-5910145D01*
X54850143Y-6314907D02*
X54850143Y-5464907D01*
X54850143Y-5464907D02*
X54526333Y-5464907D01*
X54526333Y-5464907D02*
X54445381Y-5505383D01*
X54445381Y-5505383D02*
X54404904Y-5545859D01*
X54404904Y-5545859D02*
X54364428Y-5626811D01*
X54364428Y-5626811D02*
X54364428Y-5748240D01*
X54364428Y-5748240D02*
X54404904Y-5829192D01*
X54404904Y-5829192D02*
X54445381Y-5869669D01*
X54445381Y-5869669D02*
X54526333Y-5910145D01*
X54526333Y-5910145D02*
X54850143Y-5910145D01*
X53554904Y-6314907D02*
X54040619Y-6314907D01*
X53797762Y-6314907D02*
X53797762Y-5464907D01*
X53797762Y-5464907D02*
X53878714Y-5586335D01*
X53878714Y-5586335D02*
X53959666Y-5667288D01*
X53959666Y-5667288D02*
X54040619Y-5707764D01*
X53028714Y-5464907D02*
X52947761Y-5464907D01*
X52947761Y-5464907D02*
X52866809Y-5505383D01*
X52866809Y-5505383D02*
X52826333Y-5545859D01*
X52826333Y-5545859D02*
X52785857Y-5626811D01*
X52785857Y-5626811D02*
X52745380Y-5788716D01*
X52745380Y-5788716D02*
X52745380Y-5991097D01*
X52745380Y-5991097D02*
X52785857Y-6153002D01*
X52785857Y-6153002D02*
X52826333Y-6233954D01*
X52826333Y-6233954D02*
X52866809Y-6274431D01*
X52866809Y-6274431D02*
X52947761Y-6314907D01*
X52947761Y-6314907D02*
X53028714Y-6314907D01*
X53028714Y-6314907D02*
X53109666Y-6274431D01*
X53109666Y-6274431D02*
X53150142Y-6233954D01*
X53150142Y-6233954D02*
X53190619Y-6153002D01*
X53190619Y-6153002D02*
X53231095Y-5991097D01*
X53231095Y-5991097D02*
X53231095Y-5788716D01*
X53231095Y-5788716D02*
X53190619Y-5626811D01*
X53190619Y-5626811D02*
X53150142Y-5545859D01*
X53150142Y-5545859D02*
X53109666Y-5505383D01*
X53109666Y-5505383D02*
X53028714Y-5464907D01*
X80680952Y-26915859D02*
X80761904Y-26875383D01*
X80761904Y-26875383D02*
X80842857Y-26794431D01*
X80842857Y-26794431D02*
X80964285Y-26673002D01*
X80964285Y-26673002D02*
X81045238Y-26632526D01*
X81045238Y-26632526D02*
X81126190Y-26632526D01*
X81085714Y-26834907D02*
X81166666Y-26794431D01*
X81166666Y-26794431D02*
X81247619Y-26713478D01*
X81247619Y-26713478D02*
X81288095Y-26551573D01*
X81288095Y-26551573D02*
X81288095Y-26268240D01*
X81288095Y-26268240D02*
X81247619Y-26106335D01*
X81247619Y-26106335D02*
X81166666Y-26025383D01*
X81166666Y-26025383D02*
X81085714Y-25984907D01*
X81085714Y-25984907D02*
X80923809Y-25984907D01*
X80923809Y-25984907D02*
X80842857Y-26025383D01*
X80842857Y-26025383D02*
X80761904Y-26106335D01*
X80761904Y-26106335D02*
X80721428Y-26268240D01*
X80721428Y-26268240D02*
X80721428Y-26551573D01*
X80721428Y-26551573D02*
X80761904Y-26713478D01*
X80761904Y-26713478D02*
X80842857Y-26794431D01*
X80842857Y-26794431D02*
X80923809Y-26834907D01*
X80923809Y-26834907D02*
X81085714Y-26834907D01*
X79911904Y-26834907D02*
X80397619Y-26834907D01*
X80154762Y-26834907D02*
X80154762Y-25984907D01*
X80154762Y-25984907D02*
X80235714Y-26106335D01*
X80235714Y-26106335D02*
X80316666Y-26187288D01*
X80316666Y-26187288D02*
X80397619Y-26227764D01*
X34323666Y-6314907D02*
X34607000Y-5910145D01*
X34809381Y-6314907D02*
X34809381Y-5464907D01*
X34809381Y-5464907D02*
X34485571Y-5464907D01*
X34485571Y-5464907D02*
X34404619Y-5505383D01*
X34404619Y-5505383D02*
X34364142Y-5545859D01*
X34364142Y-5545859D02*
X34323666Y-5626811D01*
X34323666Y-5626811D02*
X34323666Y-5748240D01*
X34323666Y-5748240D02*
X34364142Y-5829192D01*
X34364142Y-5829192D02*
X34404619Y-5869669D01*
X34404619Y-5869669D02*
X34485571Y-5910145D01*
X34485571Y-5910145D02*
X34809381Y-5910145D01*
X33554619Y-5464907D02*
X33959381Y-5464907D01*
X33959381Y-5464907D02*
X33999857Y-5869669D01*
X33999857Y-5869669D02*
X33959381Y-5829192D01*
X33959381Y-5829192D02*
X33878428Y-5788716D01*
X33878428Y-5788716D02*
X33676047Y-5788716D01*
X33676047Y-5788716D02*
X33595095Y-5829192D01*
X33595095Y-5829192D02*
X33554619Y-5869669D01*
X33554619Y-5869669D02*
X33514142Y-5950621D01*
X33514142Y-5950621D02*
X33514142Y-6153002D01*
X33514142Y-6153002D02*
X33554619Y-6233954D01*
X33554619Y-6233954D02*
X33595095Y-6274431D01*
X33595095Y-6274431D02*
X33676047Y-6314907D01*
X33676047Y-6314907D02*
X33878428Y-6314907D01*
X33878428Y-6314907D02*
X33959381Y-6274431D01*
X33959381Y-6274431D02*
X33999857Y-6233954D01*
X27777666Y-6314907D02*
X28061000Y-5910145D01*
X28263381Y-6314907D02*
X28263381Y-5464907D01*
X28263381Y-5464907D02*
X27939571Y-5464907D01*
X27939571Y-5464907D02*
X27858619Y-5505383D01*
X27858619Y-5505383D02*
X27818142Y-5545859D01*
X27818142Y-5545859D02*
X27777666Y-5626811D01*
X27777666Y-5626811D02*
X27777666Y-5748240D01*
X27777666Y-5748240D02*
X27818142Y-5829192D01*
X27818142Y-5829192D02*
X27858619Y-5869669D01*
X27858619Y-5869669D02*
X27939571Y-5910145D01*
X27939571Y-5910145D02*
X28263381Y-5910145D01*
X27049095Y-5748240D02*
X27049095Y-6314907D01*
X27251476Y-5424431D02*
X27453857Y-6031573D01*
X27453857Y-6031573D02*
X26927666Y-6031573D01*
X32647619Y-39429907D02*
X32647619Y-40118002D01*
X32647619Y-40118002D02*
X32607142Y-40198954D01*
X32607142Y-40198954D02*
X32566666Y-40239431D01*
X32566666Y-40239431D02*
X32485714Y-40279907D01*
X32485714Y-40279907D02*
X32323809Y-40279907D01*
X32323809Y-40279907D02*
X32242857Y-40239431D01*
X32242857Y-40239431D02*
X32202380Y-40198954D01*
X32202380Y-40198954D02*
X32161904Y-40118002D01*
X32161904Y-40118002D02*
X32161904Y-39429907D01*
X31311904Y-40279907D02*
X31797619Y-40279907D01*
X31554762Y-40279907D02*
X31554762Y-39429907D01*
X31554762Y-39429907D02*
X31635714Y-39551335D01*
X31635714Y-39551335D02*
X31716666Y-39632288D01*
X31716666Y-39632288D02*
X31797619Y-39672764D01*
X78099431Y-26866666D02*
X78139907Y-26988095D01*
X78139907Y-26988095D02*
X78139907Y-27190476D01*
X78139907Y-27190476D02*
X78099431Y-27271428D01*
X78099431Y-27271428D02*
X78058954Y-27311904D01*
X78058954Y-27311904D02*
X77978002Y-27352381D01*
X77978002Y-27352381D02*
X77897050Y-27352381D01*
X77897050Y-27352381D02*
X77816097Y-27311904D01*
X77816097Y-27311904D02*
X77775621Y-27271428D01*
X77775621Y-27271428D02*
X77735145Y-27190476D01*
X77735145Y-27190476D02*
X77694669Y-27028571D01*
X77694669Y-27028571D02*
X77654192Y-26947619D01*
X77654192Y-26947619D02*
X77613716Y-26907142D01*
X77613716Y-26907142D02*
X77532764Y-26866666D01*
X77532764Y-26866666D02*
X77451811Y-26866666D01*
X77451811Y-26866666D02*
X77370859Y-26907142D01*
X77370859Y-26907142D02*
X77330383Y-26947619D01*
X77330383Y-26947619D02*
X77289907Y-27028571D01*
X77289907Y-27028571D02*
X77289907Y-27230952D01*
X77289907Y-27230952D02*
X77330383Y-27352381D01*
X77289907Y-27635714D02*
X78139907Y-27838095D01*
X78139907Y-27838095D02*
X77532764Y-28000000D01*
X77532764Y-28000000D02*
X78139907Y-28161905D01*
X78139907Y-28161905D02*
X77289907Y-28364286D01*
X77289907Y-28607143D02*
X77289907Y-29133334D01*
X77289907Y-29133334D02*
X77613716Y-28850000D01*
X77613716Y-28850000D02*
X77613716Y-28971429D01*
X77613716Y-28971429D02*
X77654192Y-29052381D01*
X77654192Y-29052381D02*
X77694669Y-29092857D01*
X77694669Y-29092857D02*
X77775621Y-29133334D01*
X77775621Y-29133334D02*
X77978002Y-29133334D01*
X77978002Y-29133334D02*
X78058954Y-29092857D01*
X78058954Y-29092857D02*
X78099431Y-29052381D01*
X78099431Y-29052381D02*
X78139907Y-28971429D01*
X78139907Y-28971429D02*
X78139907Y-28728572D01*
X78139907Y-28728572D02*
X78099431Y-28647619D01*
X78099431Y-28647619D02*
X78058954Y-28607143D01*
X21141666Y-23233954D02*
X21182142Y-23274431D01*
X21182142Y-23274431D02*
X21303571Y-23314907D01*
X21303571Y-23314907D02*
X21384523Y-23314907D01*
X21384523Y-23314907D02*
X21505952Y-23274431D01*
X21505952Y-23274431D02*
X21586904Y-23193478D01*
X21586904Y-23193478D02*
X21627381Y-23112526D01*
X21627381Y-23112526D02*
X21667857Y-22950621D01*
X21667857Y-22950621D02*
X21667857Y-22829192D01*
X21667857Y-22829192D02*
X21627381Y-22667288D01*
X21627381Y-22667288D02*
X21586904Y-22586335D01*
X21586904Y-22586335D02*
X21505952Y-22505383D01*
X21505952Y-22505383D02*
X21384523Y-22464907D01*
X21384523Y-22464907D02*
X21303571Y-22464907D01*
X21303571Y-22464907D02*
X21182142Y-22505383D01*
X21182142Y-22505383D02*
X21141666Y-22545859D01*
X20817857Y-22545859D02*
X20777381Y-22505383D01*
X20777381Y-22505383D02*
X20696428Y-22464907D01*
X20696428Y-22464907D02*
X20494047Y-22464907D01*
X20494047Y-22464907D02*
X20413095Y-22505383D01*
X20413095Y-22505383D02*
X20372619Y-22545859D01*
X20372619Y-22545859D02*
X20332142Y-22626811D01*
X20332142Y-22626811D02*
X20332142Y-22707764D01*
X20332142Y-22707764D02*
X20372619Y-22829192D01*
X20372619Y-22829192D02*
X20858333Y-23314907D01*
X20858333Y-23314907D02*
X20332142Y-23314907D01*
X73596666Y-6483954D02*
X73637142Y-6524431D01*
X73637142Y-6524431D02*
X73758571Y-6564907D01*
X73758571Y-6564907D02*
X73839523Y-6564907D01*
X73839523Y-6564907D02*
X73960952Y-6524431D01*
X73960952Y-6524431D02*
X74041904Y-6443478D01*
X74041904Y-6443478D02*
X74082381Y-6362526D01*
X74082381Y-6362526D02*
X74122857Y-6200621D01*
X74122857Y-6200621D02*
X74122857Y-6079192D01*
X74122857Y-6079192D02*
X74082381Y-5917288D01*
X74082381Y-5917288D02*
X74041904Y-5836335D01*
X74041904Y-5836335D02*
X73960952Y-5755383D01*
X73960952Y-5755383D02*
X73839523Y-5714907D01*
X73839523Y-5714907D02*
X73758571Y-5714907D01*
X73758571Y-5714907D02*
X73637142Y-5755383D01*
X73637142Y-5755383D02*
X73596666Y-5795859D01*
X73191904Y-6564907D02*
X73030000Y-6564907D01*
X73030000Y-6564907D02*
X72949047Y-6524431D01*
X72949047Y-6524431D02*
X72908571Y-6483954D01*
X72908571Y-6483954D02*
X72827619Y-6362526D01*
X72827619Y-6362526D02*
X72787142Y-6200621D01*
X72787142Y-6200621D02*
X72787142Y-5876811D01*
X72787142Y-5876811D02*
X72827619Y-5795859D01*
X72827619Y-5795859D02*
X72868095Y-5755383D01*
X72868095Y-5755383D02*
X72949047Y-5714907D01*
X72949047Y-5714907D02*
X73110952Y-5714907D01*
X73110952Y-5714907D02*
X73191904Y-5755383D01*
X73191904Y-5755383D02*
X73232381Y-5795859D01*
X73232381Y-5795859D02*
X73272857Y-5876811D01*
X73272857Y-5876811D02*
X73272857Y-6079192D01*
X73272857Y-6079192D02*
X73232381Y-6160145D01*
X73232381Y-6160145D02*
X73191904Y-6200621D01*
X73191904Y-6200621D02*
X73110952Y-6241097D01*
X73110952Y-6241097D02*
X72949047Y-6241097D01*
X72949047Y-6241097D02*
X72868095Y-6200621D01*
X72868095Y-6200621D02*
X72827619Y-6160145D01*
X72827619Y-6160145D02*
X72787142Y-6079192D01*
X21232666Y-6314907D02*
X21516000Y-5910145D01*
X21718381Y-6314907D02*
X21718381Y-5464907D01*
X21718381Y-5464907D02*
X21394571Y-5464907D01*
X21394571Y-5464907D02*
X21313619Y-5505383D01*
X21313619Y-5505383D02*
X21273142Y-5545859D01*
X21273142Y-5545859D02*
X21232666Y-5626811D01*
X21232666Y-5626811D02*
X21232666Y-5748240D01*
X21232666Y-5748240D02*
X21273142Y-5829192D01*
X21273142Y-5829192D02*
X21313619Y-5869669D01*
X21313619Y-5869669D02*
X21394571Y-5910145D01*
X21394571Y-5910145D02*
X21718381Y-5910145D01*
X20949333Y-5464907D02*
X20423142Y-5464907D01*
X20423142Y-5464907D02*
X20706476Y-5788716D01*
X20706476Y-5788716D02*
X20585047Y-5788716D01*
X20585047Y-5788716D02*
X20504095Y-5829192D01*
X20504095Y-5829192D02*
X20463619Y-5869669D01*
X20463619Y-5869669D02*
X20423142Y-5950621D01*
X20423142Y-5950621D02*
X20423142Y-6153002D01*
X20423142Y-6153002D02*
X20463619Y-6233954D01*
X20463619Y-6233954D02*
X20504095Y-6274431D01*
X20504095Y-6274431D02*
X20585047Y-6314907D01*
X20585047Y-6314907D02*
X20827904Y-6314907D01*
X20827904Y-6314907D02*
X20908857Y-6274431D01*
X20908857Y-6274431D02*
X20949333Y-6233954D01*
X74733954Y-7858333D02*
X74774431Y-7817857D01*
X74774431Y-7817857D02*
X74814907Y-7696428D01*
X74814907Y-7696428D02*
X74814907Y-7615476D01*
X74814907Y-7615476D02*
X74774431Y-7494047D01*
X74774431Y-7494047D02*
X74693478Y-7413095D01*
X74693478Y-7413095D02*
X74612526Y-7372618D01*
X74612526Y-7372618D02*
X74450621Y-7332142D01*
X74450621Y-7332142D02*
X74329192Y-7332142D01*
X74329192Y-7332142D02*
X74167288Y-7372618D01*
X74167288Y-7372618D02*
X74086335Y-7413095D01*
X74086335Y-7413095D02*
X74005383Y-7494047D01*
X74005383Y-7494047D02*
X73964907Y-7615476D01*
X73964907Y-7615476D02*
X73964907Y-7696428D01*
X73964907Y-7696428D02*
X74005383Y-7817857D01*
X74005383Y-7817857D02*
X74045859Y-7858333D01*
X73964907Y-8586904D02*
X73964907Y-8424999D01*
X73964907Y-8424999D02*
X74005383Y-8344047D01*
X74005383Y-8344047D02*
X74045859Y-8303571D01*
X74045859Y-8303571D02*
X74167288Y-8222618D01*
X74167288Y-8222618D02*
X74329192Y-8182142D01*
X74329192Y-8182142D02*
X74653002Y-8182142D01*
X74653002Y-8182142D02*
X74733954Y-8222618D01*
X74733954Y-8222618D02*
X74774431Y-8263095D01*
X74774431Y-8263095D02*
X74814907Y-8344047D01*
X74814907Y-8344047D02*
X74814907Y-8505952D01*
X74814907Y-8505952D02*
X74774431Y-8586904D01*
X74774431Y-8586904D02*
X74733954Y-8627380D01*
X74733954Y-8627380D02*
X74653002Y-8667857D01*
X74653002Y-8667857D02*
X74450621Y-8667857D01*
X74450621Y-8667857D02*
X74369669Y-8627380D01*
X74369669Y-8627380D02*
X74329192Y-8586904D01*
X74329192Y-8586904D02*
X74288716Y-8505952D01*
X74288716Y-8505952D02*
X74288716Y-8344047D01*
X74288716Y-8344047D02*
X74329192Y-8263095D01*
X74329192Y-8263095D02*
X74369669Y-8222618D01*
X74369669Y-8222618D02*
X74450621Y-8182142D01*
X40868666Y-6314907D02*
X41152000Y-5910145D01*
X41354381Y-6314907D02*
X41354381Y-5464907D01*
X41354381Y-5464907D02*
X41030571Y-5464907D01*
X41030571Y-5464907D02*
X40949619Y-5505383D01*
X40949619Y-5505383D02*
X40909142Y-5545859D01*
X40909142Y-5545859D02*
X40868666Y-5626811D01*
X40868666Y-5626811D02*
X40868666Y-5748240D01*
X40868666Y-5748240D02*
X40909142Y-5829192D01*
X40909142Y-5829192D02*
X40949619Y-5869669D01*
X40949619Y-5869669D02*
X41030571Y-5910145D01*
X41030571Y-5910145D02*
X41354381Y-5910145D01*
X40140095Y-5464907D02*
X40302000Y-5464907D01*
X40302000Y-5464907D02*
X40382952Y-5505383D01*
X40382952Y-5505383D02*
X40423428Y-5545859D01*
X40423428Y-5545859D02*
X40504381Y-5667288D01*
X40504381Y-5667288D02*
X40544857Y-5829192D01*
X40544857Y-5829192D02*
X40544857Y-6153002D01*
X40544857Y-6153002D02*
X40504381Y-6233954D01*
X40504381Y-6233954D02*
X40463904Y-6274431D01*
X40463904Y-6274431D02*
X40382952Y-6314907D01*
X40382952Y-6314907D02*
X40221047Y-6314907D01*
X40221047Y-6314907D02*
X40140095Y-6274431D01*
X40140095Y-6274431D02*
X40099619Y-6233954D01*
X40099619Y-6233954D02*
X40059142Y-6153002D01*
X40059142Y-6153002D02*
X40059142Y-5950621D01*
X40059142Y-5950621D02*
X40099619Y-5869669D01*
X40099619Y-5869669D02*
X40140095Y-5829192D01*
X40140095Y-5829192D02*
X40221047Y-5788716D01*
X40221047Y-5788716D02*
X40382952Y-5788716D01*
X40382952Y-5788716D02*
X40463904Y-5829192D01*
X40463904Y-5829192D02*
X40504381Y-5869669D01*
X40504381Y-5869669D02*
X40544857Y-5950621D01*
X21141666Y-18233954D02*
X21182142Y-18274431D01*
X21182142Y-18274431D02*
X21303571Y-18314907D01*
X21303571Y-18314907D02*
X21384523Y-18314907D01*
X21384523Y-18314907D02*
X21505952Y-18274431D01*
X21505952Y-18274431D02*
X21586904Y-18193478D01*
X21586904Y-18193478D02*
X21627381Y-18112526D01*
X21627381Y-18112526D02*
X21667857Y-17950621D01*
X21667857Y-17950621D02*
X21667857Y-17829192D01*
X21667857Y-17829192D02*
X21627381Y-17667288D01*
X21627381Y-17667288D02*
X21586904Y-17586335D01*
X21586904Y-17586335D02*
X21505952Y-17505383D01*
X21505952Y-17505383D02*
X21384523Y-17464907D01*
X21384523Y-17464907D02*
X21303571Y-17464907D01*
X21303571Y-17464907D02*
X21182142Y-17505383D01*
X21182142Y-17505383D02*
X21141666Y-17545859D01*
X20332142Y-18314907D02*
X20817857Y-18314907D01*
X20575000Y-18314907D02*
X20575000Y-17464907D01*
X20575000Y-17464907D02*
X20655952Y-17586335D01*
X20655952Y-17586335D02*
X20736904Y-17667288D01*
X20736904Y-17667288D02*
X20817857Y-17707764D01*
X11446428Y-14633954D02*
X11486904Y-14674431D01*
X11486904Y-14674431D02*
X11608333Y-14714907D01*
X11608333Y-14714907D02*
X11689285Y-14714907D01*
X11689285Y-14714907D02*
X11810714Y-14674431D01*
X11810714Y-14674431D02*
X11891666Y-14593478D01*
X11891666Y-14593478D02*
X11932143Y-14512526D01*
X11932143Y-14512526D02*
X11972619Y-14350621D01*
X11972619Y-14350621D02*
X11972619Y-14229192D01*
X11972619Y-14229192D02*
X11932143Y-14067288D01*
X11932143Y-14067288D02*
X11891666Y-13986335D01*
X11891666Y-13986335D02*
X11810714Y-13905383D01*
X11810714Y-13905383D02*
X11689285Y-13864907D01*
X11689285Y-13864907D02*
X11608333Y-13864907D01*
X11608333Y-13864907D02*
X11486904Y-13905383D01*
X11486904Y-13905383D02*
X11446428Y-13945859D01*
X10636904Y-14714907D02*
X11122619Y-14714907D01*
X10879762Y-14714907D02*
X10879762Y-13864907D01*
X10879762Y-13864907D02*
X10960714Y-13986335D01*
X10960714Y-13986335D02*
X11041666Y-14067288D01*
X11041666Y-14067288D02*
X11122619Y-14107764D01*
X10313095Y-13945859D02*
X10272619Y-13905383D01*
X10272619Y-13905383D02*
X10191666Y-13864907D01*
X10191666Y-13864907D02*
X9989285Y-13864907D01*
X9989285Y-13864907D02*
X9908333Y-13905383D01*
X9908333Y-13905383D02*
X9867857Y-13945859D01*
X9867857Y-13945859D02*
X9827380Y-14026811D01*
X9827380Y-14026811D02*
X9827380Y-14107764D01*
X9827380Y-14107764D02*
X9867857Y-14229192D01*
X9867857Y-14229192D02*
X10353571Y-14714907D01*
X10353571Y-14714907D02*
X9827380Y-14714907D01*
X12533954Y-7453571D02*
X12574431Y-7413095D01*
X12574431Y-7413095D02*
X12614907Y-7291666D01*
X12614907Y-7291666D02*
X12614907Y-7210714D01*
X12614907Y-7210714D02*
X12574431Y-7089285D01*
X12574431Y-7089285D02*
X12493478Y-7008333D01*
X12493478Y-7008333D02*
X12412526Y-6967856D01*
X12412526Y-6967856D02*
X12250621Y-6927380D01*
X12250621Y-6927380D02*
X12129192Y-6927380D01*
X12129192Y-6927380D02*
X11967288Y-6967856D01*
X11967288Y-6967856D02*
X11886335Y-7008333D01*
X11886335Y-7008333D02*
X11805383Y-7089285D01*
X11805383Y-7089285D02*
X11764907Y-7210714D01*
X11764907Y-7210714D02*
X11764907Y-7291666D01*
X11764907Y-7291666D02*
X11805383Y-7413095D01*
X11805383Y-7413095D02*
X11845859Y-7453571D01*
X12614907Y-8263095D02*
X12614907Y-7777380D01*
X12614907Y-8020237D02*
X11764907Y-8020237D01*
X11764907Y-8020237D02*
X11886335Y-7939285D01*
X11886335Y-7939285D02*
X11967288Y-7858333D01*
X11967288Y-7858333D02*
X12007764Y-7777380D01*
X12614907Y-9072619D02*
X12614907Y-8586904D01*
X12614907Y-8829761D02*
X11764907Y-8829761D01*
X11764907Y-8829761D02*
X11886335Y-8748809D01*
X11886335Y-8748809D02*
X11967288Y-8667857D01*
X11967288Y-8667857D02*
X12007764Y-8586904D01*
X62667856Y-31939669D02*
X62546428Y-31980145D01*
X62546428Y-31980145D02*
X62505951Y-32020621D01*
X62505951Y-32020621D02*
X62465475Y-32101573D01*
X62465475Y-32101573D02*
X62465475Y-32223002D01*
X62465475Y-32223002D02*
X62505951Y-32303954D01*
X62505951Y-32303954D02*
X62546428Y-32344431D01*
X62546428Y-32344431D02*
X62627380Y-32384907D01*
X62627380Y-32384907D02*
X62951190Y-32384907D01*
X62951190Y-32384907D02*
X62951190Y-31534907D01*
X62951190Y-31534907D02*
X62667856Y-31534907D01*
X62667856Y-31534907D02*
X62586904Y-31575383D01*
X62586904Y-31575383D02*
X62546428Y-31615859D01*
X62546428Y-31615859D02*
X62505951Y-31696811D01*
X62505951Y-31696811D02*
X62505951Y-31777764D01*
X62505951Y-31777764D02*
X62546428Y-31858716D01*
X62546428Y-31858716D02*
X62586904Y-31899192D01*
X62586904Y-31899192D02*
X62667856Y-31939669D01*
X62667856Y-31939669D02*
X62951190Y-31939669D01*
X62222618Y-31534907D02*
X61736904Y-31534907D01*
X61979761Y-32384907D02*
X61979761Y-31534907D01*
X61008332Y-32384907D02*
X61494047Y-32384907D01*
X61251190Y-32384907D02*
X61251190Y-31534907D01*
X61251190Y-31534907D02*
X61332142Y-31656335D01*
X61332142Y-31656335D02*
X61413094Y-31737288D01*
X61413094Y-31737288D02*
X61494047Y-31777764D01*
X25641666Y-11233954D02*
X25682142Y-11274431D01*
X25682142Y-11274431D02*
X25803571Y-11314907D01*
X25803571Y-11314907D02*
X25884523Y-11314907D01*
X25884523Y-11314907D02*
X26005952Y-11274431D01*
X26005952Y-11274431D02*
X26086904Y-11193478D01*
X26086904Y-11193478D02*
X26127381Y-11112526D01*
X26127381Y-11112526D02*
X26167857Y-10950621D01*
X26167857Y-10950621D02*
X26167857Y-10829192D01*
X26167857Y-10829192D02*
X26127381Y-10667288D01*
X26127381Y-10667288D02*
X26086904Y-10586335D01*
X26086904Y-10586335D02*
X26005952Y-10505383D01*
X26005952Y-10505383D02*
X25884523Y-10464907D01*
X25884523Y-10464907D02*
X25803571Y-10464907D01*
X25803571Y-10464907D02*
X25682142Y-10505383D01*
X25682142Y-10505383D02*
X25641666Y-10545859D01*
X24872619Y-10464907D02*
X25277381Y-10464907D01*
X25277381Y-10464907D02*
X25317857Y-10869669D01*
X25317857Y-10869669D02*
X25277381Y-10829192D01*
X25277381Y-10829192D02*
X25196428Y-10788716D01*
X25196428Y-10788716D02*
X24994047Y-10788716D01*
X24994047Y-10788716D02*
X24913095Y-10829192D01*
X24913095Y-10829192D02*
X24872619Y-10869669D01*
X24872619Y-10869669D02*
X24832142Y-10950621D01*
X24832142Y-10950621D02*
X24832142Y-11153002D01*
X24832142Y-11153002D02*
X24872619Y-11233954D01*
X24872619Y-11233954D02*
X24913095Y-11274431D01*
X24913095Y-11274431D02*
X24994047Y-11314907D01*
X24994047Y-11314907D02*
X25196428Y-11314907D01*
X25196428Y-11314907D02*
X25277381Y-11274431D01*
X25277381Y-11274431D02*
X25317857Y-11233954D01*
X13133333Y-53344431D02*
X13011904Y-53384907D01*
X13011904Y-53384907D02*
X12809523Y-53384907D01*
X12809523Y-53384907D02*
X12728571Y-53344431D01*
X12728571Y-53344431D02*
X12688095Y-53303954D01*
X12688095Y-53303954D02*
X12647618Y-53223002D01*
X12647618Y-53223002D02*
X12647618Y-53142050D01*
X12647618Y-53142050D02*
X12688095Y-53061097D01*
X12688095Y-53061097D02*
X12728571Y-53020621D01*
X12728571Y-53020621D02*
X12809523Y-52980145D01*
X12809523Y-52980145D02*
X12971428Y-52939669D01*
X12971428Y-52939669D02*
X13052380Y-52899192D01*
X13052380Y-52899192D02*
X13092857Y-52858716D01*
X13092857Y-52858716D02*
X13133333Y-52777764D01*
X13133333Y-52777764D02*
X13133333Y-52696811D01*
X13133333Y-52696811D02*
X13092857Y-52615859D01*
X13092857Y-52615859D02*
X13052380Y-52575383D01*
X13052380Y-52575383D02*
X12971428Y-52534907D01*
X12971428Y-52534907D02*
X12769047Y-52534907D01*
X12769047Y-52534907D02*
X12647618Y-52575383D01*
X12364285Y-52534907D02*
X12161904Y-53384907D01*
X12161904Y-53384907D02*
X11999999Y-52777764D01*
X11999999Y-52777764D02*
X11838094Y-53384907D01*
X11838094Y-53384907D02*
X11635714Y-52534907D01*
X10866665Y-53384907D02*
X11352380Y-53384907D01*
X11109523Y-53384907D02*
X11109523Y-52534907D01*
X11109523Y-52534907D02*
X11190475Y-52656335D01*
X11190475Y-52656335D02*
X11271427Y-52737288D01*
X11271427Y-52737288D02*
X11352380Y-52777764D01*
X67455428Y-6314907D02*
X67738762Y-5910145D01*
X67941143Y-6314907D02*
X67941143Y-5464907D01*
X67941143Y-5464907D02*
X67617333Y-5464907D01*
X67617333Y-5464907D02*
X67536381Y-5505383D01*
X67536381Y-5505383D02*
X67495904Y-5545859D01*
X67495904Y-5545859D02*
X67455428Y-5626811D01*
X67455428Y-5626811D02*
X67455428Y-5748240D01*
X67455428Y-5748240D02*
X67495904Y-5829192D01*
X67495904Y-5829192D02*
X67536381Y-5869669D01*
X67536381Y-5869669D02*
X67617333Y-5910145D01*
X67617333Y-5910145D02*
X67941143Y-5910145D01*
X66645904Y-6314907D02*
X67131619Y-6314907D01*
X66888762Y-6314907D02*
X66888762Y-5464907D01*
X66888762Y-5464907D02*
X66969714Y-5586335D01*
X66969714Y-5586335D02*
X67050666Y-5667288D01*
X67050666Y-5667288D02*
X67131619Y-5707764D01*
X66322095Y-5545859D02*
X66281619Y-5505383D01*
X66281619Y-5505383D02*
X66200666Y-5464907D01*
X66200666Y-5464907D02*
X65998285Y-5464907D01*
X65998285Y-5464907D02*
X65917333Y-5505383D01*
X65917333Y-5505383D02*
X65876857Y-5545859D01*
X65876857Y-5545859D02*
X65836380Y-5626811D01*
X65836380Y-5626811D02*
X65836380Y-5707764D01*
X65836380Y-5707764D02*
X65876857Y-5829192D01*
X65876857Y-5829192D02*
X66362571Y-6314907D01*
X66362571Y-6314907D02*
X65836380Y-6314907D01*
X75754907Y-16658333D02*
X75350145Y-16374999D01*
X75754907Y-16172618D02*
X74904907Y-16172618D01*
X74904907Y-16172618D02*
X74904907Y-16496428D01*
X74904907Y-16496428D02*
X74945383Y-16577380D01*
X74945383Y-16577380D02*
X74985859Y-16617857D01*
X74985859Y-16617857D02*
X75066811Y-16658333D01*
X75066811Y-16658333D02*
X75188240Y-16658333D01*
X75188240Y-16658333D02*
X75269192Y-16617857D01*
X75269192Y-16617857D02*
X75309669Y-16577380D01*
X75309669Y-16577380D02*
X75350145Y-16496428D01*
X75350145Y-16496428D02*
X75350145Y-16172618D01*
X75269192Y-17144047D02*
X75228716Y-17063095D01*
X75228716Y-17063095D02*
X75188240Y-17022618D01*
X75188240Y-17022618D02*
X75107288Y-16982142D01*
X75107288Y-16982142D02*
X75066811Y-16982142D01*
X75066811Y-16982142D02*
X74985859Y-17022618D01*
X74985859Y-17022618D02*
X74945383Y-17063095D01*
X74945383Y-17063095D02*
X74904907Y-17144047D01*
X74904907Y-17144047D02*
X74904907Y-17305952D01*
X74904907Y-17305952D02*
X74945383Y-17386904D01*
X74945383Y-17386904D02*
X74985859Y-17427380D01*
X74985859Y-17427380D02*
X75066811Y-17467857D01*
X75066811Y-17467857D02*
X75107288Y-17467857D01*
X75107288Y-17467857D02*
X75188240Y-17427380D01*
X75188240Y-17427380D02*
X75228716Y-17386904D01*
X75228716Y-17386904D02*
X75269192Y-17305952D01*
X75269192Y-17305952D02*
X75269192Y-17144047D01*
X75269192Y-17144047D02*
X75309669Y-17063095D01*
X75309669Y-17063095D02*
X75350145Y-17022618D01*
X75350145Y-17022618D02*
X75431097Y-16982142D01*
X75431097Y-16982142D02*
X75593002Y-16982142D01*
X75593002Y-16982142D02*
X75673954Y-17022618D01*
X75673954Y-17022618D02*
X75714431Y-17063095D01*
X75714431Y-17063095D02*
X75754907Y-17144047D01*
X75754907Y-17144047D02*
X75754907Y-17305952D01*
X75754907Y-17305952D02*
X75714431Y-17386904D01*
X75714431Y-17386904D02*
X75673954Y-17427380D01*
X75673954Y-17427380D02*
X75593002Y-17467857D01*
X75593002Y-17467857D02*
X75431097Y-17467857D01*
X75431097Y-17467857D02*
X75350145Y-17427380D01*
X75350145Y-17427380D02*
X75309669Y-17386904D01*
X75309669Y-17386904D02*
X75269192Y-17305952D01*
X76941666Y-14014907D02*
X77225000Y-13610145D01*
X77427381Y-14014907D02*
X77427381Y-13164907D01*
X77427381Y-13164907D02*
X77103571Y-13164907D01*
X77103571Y-13164907D02*
X77022619Y-13205383D01*
X77022619Y-13205383D02*
X76982142Y-13245859D01*
X76982142Y-13245859D02*
X76941666Y-13326811D01*
X76941666Y-13326811D02*
X76941666Y-13448240D01*
X76941666Y-13448240D02*
X76982142Y-13529192D01*
X76982142Y-13529192D02*
X77022619Y-13569669D01*
X77022619Y-13569669D02*
X77103571Y-13610145D01*
X77103571Y-13610145D02*
X77427381Y-13610145D01*
X76658333Y-13164907D02*
X76091666Y-13164907D01*
X76091666Y-13164907D02*
X76455952Y-14014907D01*
X25133333Y-53344431D02*
X25011904Y-53384907D01*
X25011904Y-53384907D02*
X24809523Y-53384907D01*
X24809523Y-53384907D02*
X24728571Y-53344431D01*
X24728571Y-53344431D02*
X24688095Y-53303954D01*
X24688095Y-53303954D02*
X24647618Y-53223002D01*
X24647618Y-53223002D02*
X24647618Y-53142050D01*
X24647618Y-53142050D02*
X24688095Y-53061097D01*
X24688095Y-53061097D02*
X24728571Y-53020621D01*
X24728571Y-53020621D02*
X24809523Y-52980145D01*
X24809523Y-52980145D02*
X24971428Y-52939669D01*
X24971428Y-52939669D02*
X25052380Y-52899192D01*
X25052380Y-52899192D02*
X25092857Y-52858716D01*
X25092857Y-52858716D02*
X25133333Y-52777764D01*
X25133333Y-52777764D02*
X25133333Y-52696811D01*
X25133333Y-52696811D02*
X25092857Y-52615859D01*
X25092857Y-52615859D02*
X25052380Y-52575383D01*
X25052380Y-52575383D02*
X24971428Y-52534907D01*
X24971428Y-52534907D02*
X24769047Y-52534907D01*
X24769047Y-52534907D02*
X24647618Y-52575383D01*
X24364285Y-52534907D02*
X24161904Y-53384907D01*
X24161904Y-53384907D02*
X23999999Y-52777764D01*
X23999999Y-52777764D02*
X23838094Y-53384907D01*
X23838094Y-53384907D02*
X23635714Y-52534907D01*
X23352380Y-52615859D02*
X23311904Y-52575383D01*
X23311904Y-52575383D02*
X23230951Y-52534907D01*
X23230951Y-52534907D02*
X23028570Y-52534907D01*
X23028570Y-52534907D02*
X22947618Y-52575383D01*
X22947618Y-52575383D02*
X22907142Y-52615859D01*
X22907142Y-52615859D02*
X22866665Y-52696811D01*
X22866665Y-52696811D02*
X22866665Y-52777764D01*
X22866665Y-52777764D02*
X22907142Y-52899192D01*
X22907142Y-52899192D02*
X23392856Y-53384907D01*
X23392856Y-53384907D02*
X22866665Y-53384907D01*
X62546428Y-53714907D02*
X62829762Y-53310145D01*
X63032143Y-53714907D02*
X63032143Y-52864907D01*
X63032143Y-52864907D02*
X62708333Y-52864907D01*
X62708333Y-52864907D02*
X62627381Y-52905383D01*
X62627381Y-52905383D02*
X62586904Y-52945859D01*
X62586904Y-52945859D02*
X62546428Y-53026811D01*
X62546428Y-53026811D02*
X62546428Y-53148240D01*
X62546428Y-53148240D02*
X62586904Y-53229192D01*
X62586904Y-53229192D02*
X62627381Y-53269669D01*
X62627381Y-53269669D02*
X62708333Y-53310145D01*
X62708333Y-53310145D02*
X63032143Y-53310145D01*
X61736904Y-53714907D02*
X62222619Y-53714907D01*
X61979762Y-53714907D02*
X61979762Y-52864907D01*
X61979762Y-52864907D02*
X62060714Y-52986335D01*
X62060714Y-52986335D02*
X62141666Y-53067288D01*
X62141666Y-53067288D02*
X62222619Y-53107764D01*
X61008333Y-53148240D02*
X61008333Y-53714907D01*
X61210714Y-52824431D02*
X61413095Y-53431573D01*
X61413095Y-53431573D02*
X60886904Y-53431573D01*
X74760907Y-14216667D02*
X75368050Y-14216667D01*
X75368050Y-14216667D02*
X75489478Y-14176190D01*
X75489478Y-14176190D02*
X75570431Y-14095238D01*
X75570431Y-14095238D02*
X75610907Y-13973809D01*
X75610907Y-13973809D02*
X75610907Y-13892857D01*
X74841859Y-14580952D02*
X74801383Y-14621428D01*
X74801383Y-14621428D02*
X74760907Y-14702381D01*
X74760907Y-14702381D02*
X74760907Y-14904762D01*
X74760907Y-14904762D02*
X74801383Y-14985714D01*
X74801383Y-14985714D02*
X74841859Y-15026190D01*
X74841859Y-15026190D02*
X74922811Y-15066667D01*
X74922811Y-15066667D02*
X75003764Y-15066667D01*
X75003764Y-15066667D02*
X75125192Y-15026190D01*
X75125192Y-15026190D02*
X75610907Y-14540476D01*
X75610907Y-14540476D02*
X75610907Y-15066667D01*
X80546428Y-6483954D02*
X80586904Y-6524431D01*
X80586904Y-6524431D02*
X80708333Y-6564907D01*
X80708333Y-6564907D02*
X80789285Y-6564907D01*
X80789285Y-6564907D02*
X80910714Y-6524431D01*
X80910714Y-6524431D02*
X80991666Y-6443478D01*
X80991666Y-6443478D02*
X81032143Y-6362526D01*
X81032143Y-6362526D02*
X81072619Y-6200621D01*
X81072619Y-6200621D02*
X81072619Y-6079192D01*
X81072619Y-6079192D02*
X81032143Y-5917288D01*
X81032143Y-5917288D02*
X80991666Y-5836335D01*
X80991666Y-5836335D02*
X80910714Y-5755383D01*
X80910714Y-5755383D02*
X80789285Y-5714907D01*
X80789285Y-5714907D02*
X80708333Y-5714907D01*
X80708333Y-5714907D02*
X80586904Y-5755383D01*
X80586904Y-5755383D02*
X80546428Y-5795859D01*
X79736904Y-6564907D02*
X80222619Y-6564907D01*
X79979762Y-6564907D02*
X79979762Y-5714907D01*
X79979762Y-5714907D02*
X80060714Y-5836335D01*
X80060714Y-5836335D02*
X80141666Y-5917288D01*
X80141666Y-5917288D02*
X80222619Y-5957764D01*
X79210714Y-5714907D02*
X79129761Y-5714907D01*
X79129761Y-5714907D02*
X79048809Y-5755383D01*
X79048809Y-5755383D02*
X79008333Y-5795859D01*
X79008333Y-5795859D02*
X78967857Y-5876811D01*
X78967857Y-5876811D02*
X78927380Y-6038716D01*
X78927380Y-6038716D02*
X78927380Y-6241097D01*
X78927380Y-6241097D02*
X78967857Y-6403002D01*
X78967857Y-6403002D02*
X79008333Y-6483954D01*
X79008333Y-6483954D02*
X79048809Y-6524431D01*
X79048809Y-6524431D02*
X79129761Y-6564907D01*
X79129761Y-6564907D02*
X79210714Y-6564907D01*
X79210714Y-6564907D02*
X79291666Y-6524431D01*
X79291666Y-6524431D02*
X79332142Y-6483954D01*
X79332142Y-6483954D02*
X79372619Y-6403002D01*
X79372619Y-6403002D02*
X79413095Y-6241097D01*
X79413095Y-6241097D02*
X79413095Y-6038716D01*
X79413095Y-6038716D02*
X79372619Y-5876811D01*
X79372619Y-5876811D02*
X79332142Y-5795859D01*
X79332142Y-5795859D02*
X79291666Y-5755383D01*
X79291666Y-5755383D02*
X79210714Y-5714907D01*
X14686666Y-6314907D02*
X14970000Y-5910145D01*
X15172381Y-6314907D02*
X15172381Y-5464907D01*
X15172381Y-5464907D02*
X14848571Y-5464907D01*
X14848571Y-5464907D02*
X14767619Y-5505383D01*
X14767619Y-5505383D02*
X14727142Y-5545859D01*
X14727142Y-5545859D02*
X14686666Y-5626811D01*
X14686666Y-5626811D02*
X14686666Y-5748240D01*
X14686666Y-5748240D02*
X14727142Y-5829192D01*
X14727142Y-5829192D02*
X14767619Y-5869669D01*
X14767619Y-5869669D02*
X14848571Y-5910145D01*
X14848571Y-5910145D02*
X15172381Y-5910145D01*
X14362857Y-5545859D02*
X14322381Y-5505383D01*
X14322381Y-5505383D02*
X14241428Y-5464907D01*
X14241428Y-5464907D02*
X14039047Y-5464907D01*
X14039047Y-5464907D02*
X13958095Y-5505383D01*
X13958095Y-5505383D02*
X13917619Y-5545859D01*
X13917619Y-5545859D02*
X13877142Y-5626811D01*
X13877142Y-5626811D02*
X13877142Y-5707764D01*
X13877142Y-5707764D02*
X13917619Y-5829192D01*
X13917619Y-5829192D02*
X14403333Y-6314907D01*
X14403333Y-6314907D02*
X13877142Y-6314907D01*
X45983954Y-26858333D02*
X46024431Y-26817857D01*
X46024431Y-26817857D02*
X46064907Y-26696428D01*
X46064907Y-26696428D02*
X46064907Y-26615476D01*
X46064907Y-26615476D02*
X46024431Y-26494047D01*
X46024431Y-26494047D02*
X45943478Y-26413095D01*
X45943478Y-26413095D02*
X45862526Y-26372618D01*
X45862526Y-26372618D02*
X45700621Y-26332142D01*
X45700621Y-26332142D02*
X45579192Y-26332142D01*
X45579192Y-26332142D02*
X45417288Y-26372618D01*
X45417288Y-26372618D02*
X45336335Y-26413095D01*
X45336335Y-26413095D02*
X45255383Y-26494047D01*
X45255383Y-26494047D02*
X45214907Y-26615476D01*
X45214907Y-26615476D02*
X45214907Y-26696428D01*
X45214907Y-26696428D02*
X45255383Y-26817857D01*
X45255383Y-26817857D02*
X45295859Y-26858333D01*
X45579192Y-27344047D02*
X45538716Y-27263095D01*
X45538716Y-27263095D02*
X45498240Y-27222618D01*
X45498240Y-27222618D02*
X45417288Y-27182142D01*
X45417288Y-27182142D02*
X45376811Y-27182142D01*
X45376811Y-27182142D02*
X45295859Y-27222618D01*
X45295859Y-27222618D02*
X45255383Y-27263095D01*
X45255383Y-27263095D02*
X45214907Y-27344047D01*
X45214907Y-27344047D02*
X45214907Y-27505952D01*
X45214907Y-27505952D02*
X45255383Y-27586904D01*
X45255383Y-27586904D02*
X45295859Y-27627380D01*
X45295859Y-27627380D02*
X45376811Y-27667857D01*
X45376811Y-27667857D02*
X45417288Y-27667857D01*
X45417288Y-27667857D02*
X45498240Y-27627380D01*
X45498240Y-27627380D02*
X45538716Y-27586904D01*
X45538716Y-27586904D02*
X45579192Y-27505952D01*
X45579192Y-27505952D02*
X45579192Y-27344047D01*
X45579192Y-27344047D02*
X45619669Y-27263095D01*
X45619669Y-27263095D02*
X45660145Y-27222618D01*
X45660145Y-27222618D02*
X45741097Y-27182142D01*
X45741097Y-27182142D02*
X45903002Y-27182142D01*
X45903002Y-27182142D02*
X45983954Y-27222618D01*
X45983954Y-27222618D02*
X46024431Y-27263095D01*
X46024431Y-27263095D02*
X46064907Y-27344047D01*
X46064907Y-27344047D02*
X46064907Y-27505952D01*
X46064907Y-27505952D02*
X46024431Y-27586904D01*
X46024431Y-27586904D02*
X45983954Y-27627380D01*
X45983954Y-27627380D02*
X45903002Y-27667857D01*
X45903002Y-27667857D02*
X45741097Y-27667857D01*
X45741097Y-27667857D02*
X45660145Y-27627380D01*
X45660145Y-27627380D02*
X45619669Y-27586904D01*
X45619669Y-27586904D02*
X45579192Y-27505952D01*
X6847619Y-13434907D02*
X6847619Y-14123002D01*
X6847619Y-14123002D02*
X6807142Y-14203954D01*
X6807142Y-14203954D02*
X6766666Y-14244431D01*
X6766666Y-14244431D02*
X6685714Y-14284907D01*
X6685714Y-14284907D02*
X6523809Y-14284907D01*
X6523809Y-14284907D02*
X6442857Y-14244431D01*
X6442857Y-14244431D02*
X6402380Y-14203954D01*
X6402380Y-14203954D02*
X6361904Y-14123002D01*
X6361904Y-14123002D02*
X6361904Y-13434907D01*
X5592857Y-13718240D02*
X5592857Y-14284907D01*
X5795238Y-13394431D02*
X5997619Y-14001573D01*
X5997619Y-14001573D02*
X5471428Y-14001573D01*
X72633332Y-52134907D02*
X72633332Y-52742050D01*
X72633332Y-52742050D02*
X72673809Y-52863478D01*
X72673809Y-52863478D02*
X72754761Y-52944431D01*
X72754761Y-52944431D02*
X72876190Y-52984907D01*
X72876190Y-52984907D02*
X72957142Y-52984907D01*
X71783332Y-52984907D02*
X72269047Y-52984907D01*
X72026190Y-52984907D02*
X72026190Y-52134907D01*
X72026190Y-52134907D02*
X72107142Y-52256335D01*
X72107142Y-52256335D02*
X72188094Y-52337288D01*
X72188094Y-52337288D02*
X72269047Y-52377764D01*
X67015237Y-47651028D02*
X66507618Y-47651028D01*
X66507618Y-47651028D02*
X66780951Y-47963409D01*
X66780951Y-47963409D02*
X66663808Y-47963409D01*
X66663808Y-47963409D02*
X66585713Y-48002457D01*
X66585713Y-48002457D02*
X66546665Y-48041504D01*
X66546665Y-48041504D02*
X66507618Y-48119600D01*
X66507618Y-48119600D02*
X66507618Y-48314838D01*
X66507618Y-48314838D02*
X66546665Y-48392933D01*
X66546665Y-48392933D02*
X66585713Y-48431981D01*
X66585713Y-48431981D02*
X66663808Y-48471028D01*
X66663808Y-48471028D02*
X66898094Y-48471028D01*
X66898094Y-48471028D02*
X66976189Y-48431981D01*
X66976189Y-48431981D02*
X67015237Y-48392933D01*
X66273332Y-47651028D02*
X65999999Y-48471028D01*
X65999999Y-48471028D02*
X65726666Y-47651028D01*
X65531428Y-47651028D02*
X65023809Y-47651028D01*
X65023809Y-47651028D02*
X65297142Y-47963409D01*
X65297142Y-47963409D02*
X65179999Y-47963409D01*
X65179999Y-47963409D02*
X65101904Y-48002457D01*
X65101904Y-48002457D02*
X65062856Y-48041504D01*
X65062856Y-48041504D02*
X65023809Y-48119600D01*
X65023809Y-48119600D02*
X65023809Y-48314838D01*
X65023809Y-48314838D02*
X65062856Y-48392933D01*
X65062856Y-48392933D02*
X65101904Y-48431981D01*
X65101904Y-48431981D02*
X65179999Y-48471028D01*
X65179999Y-48471028D02*
X65414285Y-48471028D01*
X65414285Y-48471028D02*
X65492380Y-48431981D01*
X65492380Y-48431981D02*
X65531428Y-48392933D01*
X69164762Y-47690076D02*
X69242857Y-47651028D01*
X69242857Y-47651028D02*
X69360000Y-47651028D01*
X69360000Y-47651028D02*
X69477143Y-47690076D01*
X69477143Y-47690076D02*
X69555238Y-47768171D01*
X69555238Y-47768171D02*
X69594285Y-47846266D01*
X69594285Y-47846266D02*
X69633333Y-48002457D01*
X69633333Y-48002457D02*
X69633333Y-48119600D01*
X69633333Y-48119600D02*
X69594285Y-48275790D01*
X69594285Y-48275790D02*
X69555238Y-48353885D01*
X69555238Y-48353885D02*
X69477143Y-48431981D01*
X69477143Y-48431981D02*
X69360000Y-48471028D01*
X69360000Y-48471028D02*
X69281904Y-48471028D01*
X69281904Y-48471028D02*
X69164762Y-48431981D01*
X69164762Y-48431981D02*
X69125714Y-48392933D01*
X69125714Y-48392933D02*
X69125714Y-48119600D01*
X69125714Y-48119600D02*
X69281904Y-48119600D01*
X68774285Y-48471028D02*
X68774285Y-47651028D01*
X68774285Y-47651028D02*
X68305714Y-48471028D01*
X68305714Y-48471028D02*
X68305714Y-47651028D01*
X67915237Y-48471028D02*
X67915237Y-47651028D01*
X67915237Y-47651028D02*
X67719999Y-47651028D01*
X67719999Y-47651028D02*
X67602856Y-47690076D01*
X67602856Y-47690076D02*
X67524761Y-47768171D01*
X67524761Y-47768171D02*
X67485714Y-47846266D01*
X67485714Y-47846266D02*
X67446666Y-48002457D01*
X67446666Y-48002457D02*
X67446666Y-48119600D01*
X67446666Y-48119600D02*
X67485714Y-48275790D01*
X67485714Y-48275790D02*
X67524761Y-48353885D01*
X67524761Y-48353885D02*
X67602856Y-48431981D01*
X67602856Y-48431981D02*
X67719999Y-48471028D01*
X67719999Y-48471028D02*
X67915237Y-48471028D01*
X71704761Y-47651028D02*
X71236190Y-47651028D01*
X71470476Y-48471028D02*
X71470476Y-47651028D01*
X71040952Y-47651028D02*
X70494285Y-48471028D01*
X70494285Y-47651028D02*
X71040952Y-48471028D01*
X73756666Y-48471028D02*
X74029999Y-48080552D01*
X74225237Y-48471028D02*
X74225237Y-47651028D01*
X74225237Y-47651028D02*
X73912856Y-47651028D01*
X73912856Y-47651028D02*
X73834761Y-47690076D01*
X73834761Y-47690076D02*
X73795714Y-47729123D01*
X73795714Y-47729123D02*
X73756666Y-47807219D01*
X73756666Y-47807219D02*
X73756666Y-47924361D01*
X73756666Y-47924361D02*
X73795714Y-48002457D01*
X73795714Y-48002457D02*
X73834761Y-48041504D01*
X73834761Y-48041504D02*
X73912856Y-48080552D01*
X73912856Y-48080552D02*
X74225237Y-48080552D01*
X73483333Y-47651028D02*
X72936666Y-48471028D01*
X72936666Y-47651028D02*
X73483333Y-48471028D01*
X76765237Y-48041504D02*
X76491904Y-48041504D01*
X76374761Y-48471028D02*
X76765237Y-48471028D01*
X76765237Y-48471028D02*
X76765237Y-47651028D01*
X76765237Y-47651028D02*
X76374761Y-47651028D01*
X76023332Y-48471028D02*
X76023332Y-47651028D01*
X76023332Y-47651028D02*
X75554761Y-48471028D01*
X75554761Y-48471028D02*
X75554761Y-47651028D01*
X79519999Y-48471028D02*
X79519999Y-47651028D01*
X78973333Y-47651028D02*
X78817142Y-47651028D01*
X78817142Y-47651028D02*
X78739047Y-47690076D01*
X78739047Y-47690076D02*
X78660952Y-47768171D01*
X78660952Y-47768171D02*
X78621904Y-47924361D01*
X78621904Y-47924361D02*
X78621904Y-48197695D01*
X78621904Y-48197695D02*
X78660952Y-48353885D01*
X78660952Y-48353885D02*
X78739047Y-48431981D01*
X78739047Y-48431981D02*
X78817142Y-48471028D01*
X78817142Y-48471028D02*
X78973333Y-48471028D01*
X78973333Y-48471028D02*
X79051428Y-48431981D01*
X79051428Y-48431981D02*
X79129523Y-48353885D01*
X79129523Y-48353885D02*
X79168571Y-48197695D01*
X79168571Y-48197695D02*
X79168571Y-47924361D01*
X79168571Y-47924361D02*
X79129523Y-47768171D01*
X79129523Y-47768171D02*
X79051428Y-47690076D01*
X79051428Y-47690076D02*
X78973333Y-47651028D01*
X78114285Y-47651028D02*
X78036190Y-47651028D01*
X78036190Y-47651028D02*
X77958094Y-47690076D01*
X77958094Y-47690076D02*
X77919047Y-47729123D01*
X77919047Y-47729123D02*
X77879999Y-47807219D01*
X77879999Y-47807219D02*
X77840952Y-47963409D01*
X77840952Y-47963409D02*
X77840952Y-48158647D01*
X77840952Y-48158647D02*
X77879999Y-48314838D01*
X77879999Y-48314838D02*
X77919047Y-48392933D01*
X77919047Y-48392933D02*
X77958094Y-48431981D01*
X77958094Y-48431981D02*
X78036190Y-48471028D01*
X78036190Y-48471028D02*
X78114285Y-48471028D01*
X78114285Y-48471028D02*
X78192380Y-48431981D01*
X78192380Y-48431981D02*
X78231428Y-48392933D01*
X78231428Y-48392933D02*
X78270475Y-48314838D01*
X78270475Y-48314838D02*
X78309523Y-48158647D01*
X78309523Y-48158647D02*
X78309523Y-47963409D01*
X78309523Y-47963409D02*
X78270475Y-47807219D01*
X78270475Y-47807219D02*
X78231428Y-47729123D01*
X78231428Y-47729123D02*
X78192380Y-47690076D01*
X78192380Y-47690076D02*
X78114285Y-47651028D01*
X22147619Y-14046907D02*
X22147619Y-14735002D01*
X22147619Y-14735002D02*
X22107142Y-14815954D01*
X22107142Y-14815954D02*
X22066666Y-14856431D01*
X22066666Y-14856431D02*
X21985714Y-14896907D01*
X21985714Y-14896907D02*
X21823809Y-14896907D01*
X21823809Y-14896907D02*
X21742857Y-14856431D01*
X21742857Y-14856431D02*
X21702380Y-14815954D01*
X21702380Y-14815954D02*
X21661904Y-14735002D01*
X21661904Y-14735002D02*
X21661904Y-14046907D01*
X21297619Y-14127859D02*
X21257143Y-14087383D01*
X21257143Y-14087383D02*
X21176190Y-14046907D01*
X21176190Y-14046907D02*
X20973809Y-14046907D01*
X20973809Y-14046907D02*
X20892857Y-14087383D01*
X20892857Y-14087383D02*
X20852381Y-14127859D01*
X20852381Y-14127859D02*
X20811904Y-14208811D01*
X20811904Y-14208811D02*
X20811904Y-14289764D01*
X20811904Y-14289764D02*
X20852381Y-14411192D01*
X20852381Y-14411192D02*
X21338095Y-14896907D01*
X21338095Y-14896907D02*
X20811904Y-14896907D01*
X70380907Y-7352380D02*
X71069002Y-7352380D01*
X71069002Y-7352380D02*
X71149954Y-7392857D01*
X71149954Y-7392857D02*
X71190431Y-7433333D01*
X71190431Y-7433333D02*
X71230907Y-7514285D01*
X71230907Y-7514285D02*
X71230907Y-7676190D01*
X71230907Y-7676190D02*
X71190431Y-7757142D01*
X71190431Y-7757142D02*
X71149954Y-7797619D01*
X71149954Y-7797619D02*
X71069002Y-7838095D01*
X71069002Y-7838095D02*
X70380907Y-7838095D01*
X70380907Y-8161904D02*
X70380907Y-8688095D01*
X70380907Y-8688095D02*
X70704716Y-8404761D01*
X70704716Y-8404761D02*
X70704716Y-8526190D01*
X70704716Y-8526190D02*
X70745192Y-8607142D01*
X70745192Y-8607142D02*
X70785669Y-8647618D01*
X70785669Y-8647618D02*
X70866621Y-8688095D01*
X70866621Y-8688095D02*
X71069002Y-8688095D01*
X71069002Y-8688095D02*
X71149954Y-8647618D01*
X71149954Y-8647618D02*
X71190431Y-8607142D01*
X71190431Y-8607142D02*
X71230907Y-8526190D01*
X71230907Y-8526190D02*
X71230907Y-8283333D01*
X71230907Y-8283333D02*
X71190431Y-8202380D01*
X71190431Y-8202380D02*
X71149954Y-8161904D01*
%TO.C,R11*%
D15*
X60126742Y-3977500D02*
X60601258Y-3977500D01*
X60126742Y-5022500D02*
X60601258Y-5022500D01*
%TO.C,U5*%
D16*
X74390000Y-15460000D02*
X72610000Y-15460000D01*
X74390000Y-18540000D02*
X72610000Y-18540000D01*
D17*
X74950000Y-15330000D02*
G75*
G02*
X74650000Y-15330000I-150000J0D01*
G01*
X74650000Y-15330000D02*
G75*
G02*
X74950000Y-15330000I150000J0D01*
G01*
D18*
X74930000Y-15540000D02*
G75*
G02*
X74870000Y-15540000I-30000J0D01*
G01*
X74870000Y-15540000D02*
G75*
G02*
X74930000Y-15540000I30000J0D01*
G01*
%TO.C,R13*%
D15*
X83077500Y-21662742D02*
X83077500Y-22137258D01*
X84122500Y-21662742D02*
X84122500Y-22137258D01*
%TO.C,R9*%
X47035742Y-3977500D02*
X47510258Y-3977500D01*
X47035742Y-5022500D02*
X47510258Y-5022500D01*
%TO.C,C4*%
X43490000Y-22140580D02*
X43490000Y-21859420D01*
X44510000Y-22140580D02*
X44510000Y-21859420D01*
%TO.C,R1*%
X7762742Y-3977500D02*
X8237258Y-3977500D01*
X7762742Y-5022500D02*
X8237258Y-5022500D01*
%TO.C,C7*%
X78490000Y-8140580D02*
X78490000Y-7859420D01*
X79510000Y-8140580D02*
X79510000Y-7859420D01*
%TO.C,C3*%
X43490000Y-17140580D02*
X43490000Y-16859420D01*
X44510000Y-17140580D02*
X44510000Y-16859420D01*
%TO.C,R10*%
X53580742Y-3977500D02*
X54055258Y-3977500D01*
X53580742Y-5022500D02*
X54055258Y-5022500D01*
%TO.C,Q1*%
D19*
X79900000Y-20000000D02*
X79900000Y-20860000D01*
X79900000Y-20000000D02*
X80900000Y-20000000D01*
X79900000Y-22140000D02*
X79900000Y-23000000D01*
X79900000Y-23000000D02*
X80900000Y-23000000D01*
X81300000Y-21190000D02*
X81300000Y-21810000D01*
D18*
X81830000Y-20050000D02*
G75*
G02*
X81770000Y-20050000I-30000J0D01*
G01*
X81770000Y-20050000D02*
G75*
G02*
X81830000Y-20050000I30000J0D01*
G01*
%TO.C,R5*%
D15*
X33944742Y-3977500D02*
X34419258Y-3977500D01*
X33944742Y-5022500D02*
X34419258Y-5022500D01*
%TO.C,R4*%
X27398742Y-3977500D02*
X27873258Y-3977500D01*
X27398742Y-5022500D02*
X27873258Y-5022500D01*
%TO.C,U1*%
D19*
X23000000Y-17860000D02*
X24330000Y-17860000D01*
X23000000Y-18700000D02*
X23000000Y-17860000D01*
X23000000Y-37360000D02*
X41020000Y-37360000D01*
X23000000Y-43390000D02*
X23000000Y-36580000D01*
X24760000Y-42240000D02*
X24760000Y-38560000D01*
X27050000Y-40080000D02*
X27050000Y-42240000D01*
X27050000Y-42240000D02*
X24760000Y-42240000D01*
X29330000Y-40080000D02*
X27050000Y-40080000D01*
X29330000Y-42240000D02*
X29330000Y-40080000D01*
X31870000Y-40080000D02*
X31870000Y-42240000D01*
X31870000Y-42240000D02*
X29330000Y-42240000D01*
X34410000Y-40080000D02*
X31870000Y-40080000D01*
X34410000Y-42240000D02*
X34410000Y-40080000D01*
X37270000Y-37360000D02*
X37270000Y-42240000D01*
X37270000Y-42240000D02*
X34410000Y-42240000D01*
X39300000Y-37360000D02*
X39300000Y-42240000D01*
X39300000Y-42240000D02*
X37060000Y-42240000D01*
X39670000Y-17860000D02*
X41020000Y-17860000D01*
X41000000Y-43390000D02*
X23000000Y-43390000D01*
X41020000Y-17860000D02*
X41020000Y-18700000D01*
X41020000Y-36580000D02*
X41020000Y-43380000D01*
X22200000Y-35890000D02*
G75*
G02*
X21700000Y-35890000I-250000J0D01*
G01*
X21700000Y-35890000D02*
G75*
G02*
X22200000Y-35890000I250000J0D01*
G01*
%TO.C,SW3*%
D15*
X79955000Y-26400000D02*
X79955000Y-28100000D01*
X79955000Y-29400000D02*
X79955000Y-29600000D01*
X81055000Y-24550000D02*
X81855000Y-24550000D01*
X81055000Y-31450000D02*
X81855000Y-31450000D01*
%TO.C,C2*%
X20859420Y-20990000D02*
X21140580Y-20990000D01*
X20859420Y-22010000D02*
X21140580Y-22010000D01*
%TO.C,C9*%
X73193748Y-3765000D02*
X73716252Y-3765000D01*
X73193748Y-5235000D02*
X73716252Y-5235000D01*
%TO.C,R3*%
X20853742Y-3977500D02*
X21328258Y-3977500D01*
X20853742Y-5022500D02*
X21328258Y-5022500D01*
%TO.C,C6*%
X72490000Y-8140580D02*
X72490000Y-7859420D01*
X73510000Y-8140580D02*
X73510000Y-7859420D01*
%TO.C,R6*%
X40489742Y-3977500D02*
X40964258Y-3977500D01*
X40489742Y-5022500D02*
X40964258Y-5022500D01*
%TO.C,C1*%
X20859420Y-15990000D02*
X21140580Y-15990000D01*
X20859420Y-17010000D02*
X21140580Y-17010000D01*
%TO.C,C12*%
X10759420Y-12390000D02*
X11040580Y-12390000D01*
X10759420Y-13410000D02*
X11040580Y-13410000D01*
%TO.C,C11*%
X10290000Y-8140580D02*
X10290000Y-7859420D01*
X11310000Y-8140580D02*
X11310000Y-7859420D01*
%TO.C,BT1*%
D16*
X47750000Y-24500000D02*
X47750000Y-25650000D01*
X47750000Y-24500000D02*
X50870000Y-24500000D01*
X47750000Y-31500000D02*
X47750000Y-30350000D01*
X47750000Y-31500000D02*
X50870000Y-31500000D01*
X50200000Y-36050000D02*
X50200000Y-19950000D01*
X50200000Y-36070000D02*
X50350000Y-36070000D01*
X50350000Y-19920000D02*
X50200000Y-19920000D01*
X50350000Y-36070000D02*
X50350000Y-19920000D01*
X50870000Y-19920000D02*
X73130000Y-19920000D01*
X50870000Y-36080000D02*
X73130000Y-36080000D01*
X52800000Y-34650000D02*
X51700000Y-34650000D01*
X71200000Y-21350000D02*
X72300000Y-21350000D01*
X71640000Y-36080000D02*
X71660000Y-36080000D01*
X71660000Y-36080000D02*
X73130000Y-34610000D01*
X71750000Y-20800000D02*
X71750000Y-21900000D01*
X73130000Y-19920000D02*
X73130000Y-26020000D01*
X73130000Y-29980000D02*
X73130000Y-25940000D01*
X73130000Y-36080000D02*
X73130000Y-29980000D01*
X76250000Y-24500000D02*
X73130000Y-24500000D01*
X76250000Y-24500000D02*
X76250000Y-25650000D01*
X76250000Y-31500000D02*
X73130000Y-31500000D01*
X76250000Y-31500000D02*
X76250000Y-30350000D01*
X56106036Y-36081719D02*
G75*
G02*
X56090000Y-19930000I5893964J8081719D01*
G01*
X67893964Y-19918281D02*
G75*
G02*
X67910000Y-36070000I-5893965J-8081719D01*
G01*
X53170000Y-34650000D02*
G75*
G02*
X51330000Y-34650000I-920000J0D01*
G01*
X51330000Y-34650000D02*
G75*
G02*
X53170000Y-34650000I920000J0D01*
G01*
X72670000Y-21350000D02*
G75*
G02*
X70830000Y-21350000I-920000J0D01*
G01*
X70830000Y-21350000D02*
G75*
G02*
X72670000Y-21350000I920000J0D01*
G01*
D20*
G36*
X73126191Y-36076209D02*
G01*
X71652000Y-36076209D01*
X73126191Y-34604000D01*
X73126191Y-36076209D01*
G37*
G36*
X50950009Y-26067593D02*
G01*
X50645209Y-26067593D01*
X50645209Y-19847591D01*
X50950009Y-19847591D01*
X50950009Y-26067593D01*
G37*
G36*
X50950035Y-26049991D02*
G01*
X50950009Y-36152409D01*
X50645209Y-36152409D01*
X50645209Y-29932407D01*
X50650035Y-26000004D01*
X50950035Y-26049991D01*
G37*
%TO.C,C5*%
D15*
X25359420Y-8990000D02*
X25640580Y-8990000D01*
X25359420Y-10010000D02*
X25640580Y-10010000D01*
%TO.C,SW1*%
D19*
X9450000Y-48470000D02*
X9450000Y-46130000D01*
X9830000Y-45640000D02*
X10720000Y-44750000D01*
X10200000Y-46300000D02*
X10200000Y-48300000D01*
X10200000Y-48300000D02*
X11000000Y-49100000D01*
X10720000Y-44750000D02*
X13280000Y-44750000D01*
X10720000Y-49850000D02*
X9830000Y-48960000D01*
X10720000Y-49850000D02*
X13280000Y-49850000D01*
X11000000Y-49100000D02*
X12900000Y-49100000D01*
X11100000Y-45400000D02*
X10200000Y-46300000D01*
X12800000Y-45400000D02*
X11100000Y-45400000D01*
X12900000Y-49100000D02*
X13800000Y-48200000D01*
X13280000Y-49850000D02*
X14170000Y-48960000D01*
X13800000Y-46400000D02*
X12800000Y-45400000D01*
X13800000Y-48200000D02*
X13800000Y-46400000D01*
X14170000Y-45640000D02*
X13280000Y-44750000D01*
X14550000Y-48470000D02*
X14550000Y-46130000D01*
X13280000Y-47300000D02*
G75*
G02*
X10720000Y-47300000I-1280000J0D01*
G01*
X10720000Y-47300000D02*
G75*
G02*
X13280000Y-47300000I1280000J0D01*
G01*
%TO.C,R12*%
D15*
X66671742Y-3977500D02*
X67146258Y-3977500D01*
X66671742Y-5022500D02*
X67146258Y-5022500D01*
%TO.C,R8*%
X76277500Y-16562742D02*
X76277500Y-17037258D01*
X77322500Y-16562742D02*
X77322500Y-17037258D01*
%TO.C,R7*%
X76562742Y-11677500D02*
X77037258Y-11677500D01*
X76562742Y-12722500D02*
X77037258Y-12722500D01*
%TO.C,SW2*%
D19*
X21450000Y-48470000D02*
X21450000Y-46130000D01*
X21830000Y-45640000D02*
X22720000Y-44750000D01*
X22200000Y-46300000D02*
X22200000Y-48300000D01*
X22200000Y-48300000D02*
X23000000Y-49100000D01*
X22720000Y-44750000D02*
X25280000Y-44750000D01*
X22720000Y-49850000D02*
X21830000Y-48960000D01*
X22720000Y-49850000D02*
X25280000Y-49850000D01*
X23000000Y-49100000D02*
X24900000Y-49100000D01*
X23100000Y-45400000D02*
X22200000Y-46300000D01*
X24800000Y-45400000D02*
X23100000Y-45400000D01*
X24900000Y-49100000D02*
X25800000Y-48200000D01*
X25280000Y-49850000D02*
X26170000Y-48960000D01*
X25800000Y-46400000D02*
X24800000Y-45400000D01*
X25800000Y-48200000D02*
X25800000Y-46400000D01*
X26170000Y-45640000D02*
X25280000Y-44750000D01*
X26550000Y-48470000D02*
X26550000Y-46130000D01*
X25280000Y-47300000D02*
G75*
G02*
X22720000Y-47300000I-1280000J0D01*
G01*
X22720000Y-47300000D02*
G75*
G02*
X25280000Y-47300000I1280000J0D01*
G01*
%TO.C,R14*%
D15*
X61762742Y-51377500D02*
X62237258Y-51377500D01*
X61762742Y-52422500D02*
X62237258Y-52422500D01*
%TO.C,J2*%
D19*
X83080000Y-10030000D02*
X81210000Y-10030000D01*
X83080000Y-18970000D02*
X81210000Y-18970000D01*
D18*
X78970000Y-18980000D02*
G75*
G02*
X78910000Y-18980000I-30000J0D01*
G01*
X78910000Y-18980000D02*
G75*
G02*
X78970000Y-18980000I30000J0D01*
G01*
%TO.C,C10*%
D15*
X79738748Y-3765000D02*
X80261252Y-3765000D01*
X79738748Y-5235000D02*
X80261252Y-5235000D01*
%TO.C,R2*%
X14307742Y-3977500D02*
X14782258Y-3977500D01*
X14307742Y-5022500D02*
X14782258Y-5022500D01*
%TO.C,C8*%
X43265000Y-27261252D02*
X43265000Y-26738748D01*
X44735000Y-27261252D02*
X44735000Y-26738748D01*
%TO.C,U4*%
X3750000Y-11550000D02*
X3750000Y-7650000D01*
X8650000Y-11550000D02*
X8650000Y-7650000D01*
D21*
X3555000Y-6950000D02*
G75*
G02*
X3345000Y-6950000I-105000J0D01*
G01*
X3345000Y-6950000D02*
G75*
G02*
X3555000Y-6950000I105000J0D01*
G01*
%TO.C,U2*%
D16*
X19920000Y-8170000D02*
X19920000Y-8420000D01*
X19920000Y-10830000D02*
X19920000Y-10580000D01*
X20670000Y-8170000D02*
X19920000Y-8170000D01*
X20670000Y-10830000D02*
X19920000Y-10830000D01*
X22330000Y-8170000D02*
X23080000Y-8170000D01*
X22330000Y-10830000D02*
X23080000Y-10830000D01*
X23080000Y-8170000D02*
X23080000Y-8420000D01*
X23080000Y-10830000D02*
X23080000Y-10580000D01*
X19670000Y-10260000D02*
G75*
G02*
X19510000Y-10260000I-80000J0D01*
G01*
X19510000Y-10260000D02*
G75*
G02*
X19670000Y-10260000I80000J0D01*
G01*
%TO.C,U3*%
X75150000Y-8480000D02*
X75150000Y-7520000D01*
X76850000Y-6470000D02*
X75150000Y-6470000D01*
X76850000Y-9530000D02*
X75150000Y-9530000D01*
D17*
X77290000Y-6350000D02*
G75*
G02*
X76990000Y-6350000I-150000J0D01*
G01*
X76990000Y-6350000D02*
G75*
G02*
X77290000Y-6350000I150000J0D01*
G01*
D18*
X77400000Y-6580000D02*
G75*
G02*
X77340000Y-6580000I-30000J0D01*
G01*
X77340000Y-6580000D02*
G75*
G02*
X77400000Y-6580000I30000J0D01*
G01*
%TD*%
%LPC*%
D22*
%TO.C,R11*%
X59539000Y-4500000D03*
X61189000Y-4500000D03*
%TD*%
D23*
%TO.C,U5*%
X74650000Y-16050000D03*
X74650000Y-17000000D03*
X74650000Y-17950000D03*
X72350000Y-17950000D03*
X72350000Y-17000000D03*
X72350000Y-16050000D03*
%TD*%
D24*
%TO.C,R13*%
X83600000Y-21075000D03*
X83600000Y-22725000D03*
%TD*%
D22*
%TO.C,R9*%
X46448000Y-4500000D03*
X48098000Y-4500000D03*
%TD*%
D25*
%TO.C,C4*%
X44000000Y-22775000D03*
X44000000Y-21225000D03*
%TD*%
D22*
%TO.C,R1*%
X7175000Y-4500000D03*
X8825000Y-4500000D03*
%TD*%
D25*
%TO.C,C7*%
X79000000Y-8775000D03*
X79000000Y-7225000D03*
%TD*%
%TO.C,C3*%
X44000000Y-17775000D03*
X44000000Y-16225000D03*
%TD*%
D22*
%TO.C,R10*%
X52993000Y-4500000D03*
X54643000Y-4500000D03*
%TD*%
D26*
%TO.C,Q1*%
X81750000Y-20550000D03*
X81750000Y-22450000D03*
X79450000Y-21500000D03*
%TD*%
D22*
%TO.C,R5*%
X33357000Y-4500000D03*
X35007000Y-4500000D03*
%TD*%
%TO.C,R4*%
X26811000Y-4500000D03*
X28461000Y-4500000D03*
%TD*%
D27*
%TO.C,U1*%
X23250000Y-35890000D03*
X23250000Y-34620000D03*
X23250000Y-33350000D03*
X23250000Y-32080000D03*
X23250000Y-30810000D03*
X23250000Y-29540000D03*
X23250000Y-28270000D03*
X23250000Y-27000000D03*
X23250000Y-25730000D03*
X23250000Y-24460000D03*
X23250000Y-23190000D03*
X23250000Y-21920000D03*
X23250000Y-20650000D03*
X23250000Y-19380000D03*
D28*
X25010000Y-18110000D03*
X26280000Y-18110000D03*
X27550000Y-18110000D03*
X28830000Y-18110000D03*
X30100000Y-18110000D03*
X31370000Y-18110000D03*
X32640000Y-18110000D03*
X33910000Y-18110000D03*
X35180000Y-18110000D03*
X36450000Y-18110000D03*
X37720000Y-18110000D03*
X38990000Y-18140000D03*
D27*
X40750000Y-19380000D03*
X40750000Y-20650000D03*
X40750000Y-21920000D03*
X40750000Y-23190000D03*
X40750000Y-24460000D03*
X40750000Y-25730000D03*
X40750000Y-27000000D03*
X40750000Y-28270000D03*
X40750000Y-29540000D03*
X40750000Y-30810000D03*
X40750000Y-32080000D03*
X40750000Y-33350000D03*
X40750000Y-34620000D03*
X40750000Y-35890000D03*
D29*
X29100000Y-26770000D03*
X29100000Y-28170000D03*
X29100000Y-29570000D03*
X30500000Y-26770000D03*
X30500000Y-28170000D03*
X30500000Y-29570000D03*
X31900000Y-26770000D03*
X31900000Y-28170000D03*
X31900000Y-29570000D03*
%TD*%
D30*
%TO.C,SW3*%
X81455000Y-26500000D03*
X81455000Y-29500000D03*
D31*
X79505000Y-25750000D03*
X79505000Y-28750000D03*
X79505000Y-30250000D03*
D32*
X82555000Y-24325000D03*
X80355000Y-24325000D03*
X82555000Y-31675000D03*
X80355000Y-31675000D03*
%TD*%
D33*
%TO.C,C2*%
X20225000Y-21500000D03*
X21775000Y-21500000D03*
%TD*%
D34*
%TO.C,C9*%
X72505000Y-4500000D03*
X74405000Y-4500000D03*
%TD*%
D22*
%TO.C,R3*%
X20266000Y-4500000D03*
X21916000Y-4500000D03*
%TD*%
D25*
%TO.C,C6*%
X73000000Y-8775000D03*
X73000000Y-7225000D03*
%TD*%
D22*
%TO.C,R6*%
X39902000Y-4500000D03*
X41552000Y-4500000D03*
%TD*%
D35*
%TO.C,FID3*%
X81000000Y-50500000D03*
%TD*%
D33*
%TO.C,C1*%
X20225000Y-16500000D03*
X21775000Y-16500000D03*
%TD*%
%TO.C,C12*%
X10125000Y-12900000D03*
X11675000Y-12900000D03*
%TD*%
D25*
%TO.C,C11*%
X10800000Y-8775000D03*
X10800000Y-7225000D03*
%TD*%
D36*
%TO.C,BT1*%
X76500000Y-28000000D03*
X47500000Y-28000000D03*
%TD*%
D33*
%TO.C,C5*%
X24725000Y-9500000D03*
X26275000Y-9500000D03*
%TD*%
D37*
%TO.C,SW1*%
X9000000Y-49150000D03*
X15000000Y-49150000D03*
X9000000Y-45450000D03*
X15000000Y-45450000D03*
%TD*%
D22*
%TO.C,R12*%
X66084000Y-4500000D03*
X67734000Y-4500000D03*
%TD*%
D35*
%TO.C,FID1*%
X3500000Y-3000000D03*
%TD*%
D24*
%TO.C,R8*%
X76800000Y-15975000D03*
X76800000Y-17625000D03*
%TD*%
D22*
%TO.C,R7*%
X75975000Y-12200000D03*
X77625000Y-12200000D03*
%TD*%
D37*
%TO.C,SW2*%
X21000000Y-49150000D03*
X27000000Y-49150000D03*
X21000000Y-45450000D03*
X27000000Y-45450000D03*
%TD*%
D22*
%TO.C,R14*%
X61175000Y-51900000D03*
X62825000Y-51900000D03*
%TD*%
D38*
%TO.C,J2*%
X80490000Y-11600000D03*
X80490000Y-17400000D03*
D39*
X79990000Y-18830000D03*
D40*
X84170000Y-18830000D03*
X84170000Y-10170000D03*
D39*
X79990000Y-10170000D03*
D41*
X79230000Y-11300000D03*
D42*
X79230000Y-12100000D03*
D43*
X79230000Y-13250000D03*
X79230000Y-14250000D03*
X79230000Y-14750000D03*
X79230000Y-15750000D03*
D44*
X79230000Y-17700000D03*
X79230000Y-16900000D03*
D43*
X79230000Y-16250000D03*
X79230000Y-15250000D03*
X79230000Y-13750000D03*
X79230000Y-12750000D03*
%TD*%
D35*
%TO.C,FID2*%
X3500000Y-50500000D03*
%TD*%
D34*
%TO.C,C10*%
X79050000Y-4500000D03*
X80950000Y-4500000D03*
%TD*%
D22*
%TO.C,R2*%
X13720000Y-4500000D03*
X15370000Y-4500000D03*
%TD*%
D45*
%TO.C,C8*%
X44000000Y-27950000D03*
X44000000Y-26050000D03*
%TD*%
D46*
%TO.C,U4*%
X4295000Y-6950000D03*
X5565000Y-6950000D03*
X6835000Y-6950000D03*
X8105000Y-6950000D03*
X8105000Y-12250000D03*
X6835000Y-12250000D03*
X5565000Y-12250000D03*
X4295000Y-12250000D03*
%TD*%
D47*
%TO.C,J1*%
X66000000Y-50000000D03*
X68540000Y-50000000D03*
X71080000Y-50000000D03*
X73620000Y-50000000D03*
X76160000Y-50000000D03*
X78700000Y-50000000D03*
%TD*%
D48*
%TO.C,U2*%
X20240000Y-10250000D03*
X20240000Y-9750000D03*
X20240000Y-9250000D03*
X20240000Y-8750000D03*
D49*
X21000000Y-8490000D03*
X21500000Y-8490000D03*
X22000000Y-8490000D03*
D48*
X22760000Y-8750000D03*
X22760000Y-9250000D03*
X22760000Y-9750000D03*
X22760000Y-10250000D03*
D49*
X22000000Y-10510000D03*
X21500000Y-10510000D03*
X21000000Y-10510000D03*
%TD*%
D50*
%TO.C,U3*%
X77150000Y-7050000D03*
X77150000Y-8000000D03*
X77150000Y-8950000D03*
D51*
X74850000Y-8950000D03*
X74850000Y-7050000D03*
%TD*%
%LPD*%
M02*
