%TF.GenerationSoftware,KiCad,Pcbnew,10.0.3*%
%TF.CreationDate,2026-07-22T13:17:10-04:00*%
%TF.ProjectId,NeuralCard,4e657572-616c-4436-9172-642e6b696361,rev?*%
%TF.SameCoordinates,Original*%
%TF.FileFunction,Copper,L1,Top*%
%TF.FilePolarity,Positive*%
%FSLAX46Y46*%
G04 Gerber Fmt 4.6, Leading zero omitted, Abs format (unit mm)*
G04 Created by KiCad (PCBNEW 10.0.3) date 2026-07-22 13:17:10*
%MOMM*%
%LPD*%
G01*
G04 APERTURE LIST*
%TA.AperFunction,EtchedComponent*%
%ADD10C,0.300000*%
%TD*%
%TA.AperFunction,SMDPad,CuDef*%
%ADD11R,0.800000X0.800000*%
%TD*%
%TA.AperFunction,ComponentPad*%
%ADD12C,1.200000*%
%TD*%
%TA.AperFunction,ViaPad*%
%ADD13C,0.600000*%
%TD*%
%TA.AperFunction,ViaPad*%
%ADD14C,0.400000*%
%TD*%
%TA.AperFunction,Conductor*%
%ADD15C,0.200000*%
%TD*%
G04 APERTURE END LIST*
%TO.C,ANT1*%
D10*
X8500000Y-22200000D02*
X8000000Y-14800000D01*
%TD*%
D11*
%TO.P,D6,1*%
%TO.N,CP1*%
X17750000Y-43000000D03*
%TO.P,D6,2*%
%TO.N,CP2*%
X16250000Y-43000000D03*
%TD*%
%TO.P,D16,1*%
%TO.N,CP1*%
X69350000Y-9889000D03*
%TO.P,D16,2*%
%TO.N,CP4*%
X67850000Y-9889000D03*
%TD*%
%TO.P,D23,1*%
%TO.N,CP3*%
X69350000Y-44111000D03*
%TO.P,D23,2*%
%TO.N,CP5*%
X67850000Y-44111000D03*
%TD*%
%TO.P,D11,1*%
%TO.N,CP1*%
X43550000Y-29857000D03*
%TO.P,D11,2*%
%TO.N,CP3*%
X42050000Y-29857000D03*
%TD*%
%TO.P,D14,1*%
%TO.N,CP5*%
X43550000Y-47000000D03*
%TO.P,D14,2*%
%TO.N,CP3*%
X42050000Y-47000000D03*
%TD*%
%TO.P,D9,1*%
%TO.N,CP5*%
X43550000Y-18429000D03*
%TO.P,D9,2*%
%TO.N,CP2*%
X42050000Y-18429000D03*
%TD*%
%TO.P,D10,1*%
%TO.N,CP6*%
X43550000Y-24143000D03*
%TO.P,D10,2*%
%TO.N,CP2*%
X42050000Y-24143000D03*
%TD*%
%TO.P,D8,1*%
%TO.N,CP4*%
X43550000Y-12714000D03*
%TO.P,D8,2*%
%TO.N,CP2*%
X42050000Y-12714000D03*
%TD*%
%TO.P,D18,1*%
%TO.N,CP3*%
X69350000Y-19667000D03*
%TO.P,D18,2*%
%TO.N,CP4*%
X67850000Y-19667000D03*
%TD*%
%TO.P,D1,1*%
%TO.N,CP2*%
X17750000Y-11000000D03*
%TO.P,D1,2*%
%TO.N,CP1*%
X16250000Y-11000000D03*
%TD*%
%TO.P,D7,1*%
%TO.N,CP3*%
X43550000Y-7000000D03*
%TO.P,D7,2*%
%TO.N,CP2*%
X42050000Y-7000000D03*
%TD*%
%TO.P,D12,1*%
%TO.N,CP2*%
X43550000Y-35571000D03*
%TO.P,D12,2*%
%TO.N,CP3*%
X42050000Y-35571000D03*
%TD*%
%TO.P,D5,1*%
%TO.N,CP6*%
X17750000Y-36600000D03*
%TO.P,D5,2*%
%TO.N,CP1*%
X16250000Y-36600000D03*
%TD*%
%TO.P,D24,1*%
%TO.N,CP4*%
X69350000Y-49000000D03*
%TO.P,D24,2*%
%TO.N,CP5*%
X67850000Y-49000000D03*
%TD*%
%TO.P,D2,1*%
%TO.N,CP3*%
X17750000Y-17400000D03*
%TO.P,D2,2*%
%TO.N,CP1*%
X16250000Y-17400000D03*
%TD*%
%TO.P,D17,1*%
%TO.N,CP2*%
X69350000Y-14778000D03*
%TO.P,D17,2*%
%TO.N,CP4*%
X67850000Y-14778000D03*
%TD*%
%TO.P,D13,1*%
%TO.N,CP4*%
X43550000Y-41286000D03*
%TO.P,D13,2*%
%TO.N,CP3*%
X42050000Y-41286000D03*
%TD*%
%TO.P,D22,1*%
%TO.N,CP2*%
X69350000Y-39222000D03*
%TO.P,D22,2*%
%TO.N,CP5*%
X67850000Y-39222000D03*
%TD*%
%TO.P,D20,1*%
%TO.N,CP6*%
X69350000Y-29444000D03*
%TO.P,D20,2*%
%TO.N,CP4*%
X67850000Y-29444000D03*
%TD*%
%TO.P,D15,1*%
%TO.N,CP6*%
X69350000Y-5000000D03*
%TO.P,D15,2*%
%TO.N,CP3*%
X67850000Y-5000000D03*
%TD*%
%TO.P,D21,1*%
%TO.N,CP1*%
X69350000Y-34333000D03*
%TO.P,D21,2*%
%TO.N,CP5*%
X67850000Y-34333000D03*
%TD*%
%TO.P,D19,1*%
%TO.N,CP5*%
X69350000Y-24556000D03*
%TO.P,D19,2*%
%TO.N,CP4*%
X67850000Y-24556000D03*
%TD*%
%TO.P,D3,1*%
%TO.N,CP4*%
X17750000Y-23800000D03*
%TO.P,D3,2*%
%TO.N,CP1*%
X16250000Y-23800000D03*
%TD*%
%TO.P,D4,1*%
%TO.N,CP5*%
X17750000Y-30200000D03*
%TO.P,D4,2*%
%TO.N,CP1*%
X16250000Y-30200000D03*
%TD*%
D12*
%TO.P,ANT1,2*%
%TO.N,NFC_ANT_B*%
X8000000Y-14200000D03*
%TO.P,ANT1,3*%
%TO.N,N/C*%
X8500000Y-22800000D03*
%TD*%
D13*
%TO.N,CP1*%
X63215100Y-27533600D03*
X10373800Y-9826000D03*
X69100900Y-10797500D03*
%TO.N,CP2*%
X17165900Y-9525600D03*
X42073500Y-23020000D03*
X42769100Y-28937900D03*
%TO.N,CP4*%
X43167700Y-13635800D03*
X19787800Y-24142200D03*
%TO.N,CP3*%
X25347100Y-20423700D03*
X24090100Y-11872600D03*
X36864400Y-34063800D03*
X21446900Y-14952100D03*
X41987800Y-39621600D03*
%TO.N,CP5*%
X43365300Y-17519100D03*
X63845700Y-49149100D03*
X63306800Y-43898400D03*
%TO.N,CP6*%
X43116700Y-4764200D03*
X45816200Y-24312700D03*
X43368500Y-23227700D03*
X44895300Y-28122500D03*
%TO.N,+3V3*%
X22264400Y-13334800D03*
X19358400Y-13128700D03*
%TO.N,IMU_INT*%
X20314900Y-7756700D03*
X18114500Y-21286600D03*
X24933200Y-23639300D03*
X17459100Y-7163100D03*
%TO.N,GND*%
X57869674Y-26942183D03*
X73791283Y-5952133D03*
X30186958Y-4905022D03*
X17563839Y-32133768D03*
X39709763Y-41409583D03*
X39146616Y-9489650D03*
X52000000Y-40000000D03*
X21009102Y-36222250D03*
X24000000Y-8000000D03*
X68964250Y-26999999D03*
X52068935Y-46166650D03*
X53908375Y-10353329D03*
X69023541Y-16249194D03*
X68920200Y-31947908D03*
X53908375Y-14460554D03*
X4950000Y-14266656D03*
X43000000Y-2400000D03*
X56278150Y-6102618D03*
X17014594Y-3994306D03*
X45269134Y-13844501D03*
X63030800Y-31290500D03*
X22798686Y-44971357D03*
X44952683Y-36733604D03*
D14*
X8100000Y-6100000D03*
D13*
X47813370Y-40184650D03*
X43000000Y-51600000D03*
X43151090Y-42919824D03*
X36429674Y-7261529D03*
X83000000Y-51000000D03*
X48000000Y-27000000D03*
X83000000Y-12000000D03*
D14*
X21900000Y-8940000D03*
D13*
X49669057Y-15253366D03*
X2600000Y-12000000D03*
%TO.N,SCL*%
X6788000Y-10070200D03*
X20064300Y-23191800D03*
X20223900Y-15583400D03*
X25179800Y-25001100D03*
X63512100Y-3824000D03*
%TO.N,SDA*%
X9019000Y-9339300D03*
X60835900Y-3237600D03*
X20028100Y-11833000D03*
X19736800Y-21286600D03*
X18205200Y-8632000D03*
X19005900Y-3431400D03*
X25062400Y-21286600D03*
%TO.N,IO0*%
X39383600Y-35342600D03*
X19230500Y-38411000D03*
%TO.N,EN*%
X60763500Y-36158300D03*
X40432700Y-39187600D03*
%TO.N,CHX6*%
X39842500Y-5884000D03*
X32058700Y-8067400D03*
X36883800Y-15583400D03*
X24882700Y-22203700D03*
%TO.N,NFC_ANT_A*%
X10255500Y-11753000D03*
X3456500Y-11853000D03*
%TO.N,NFC_GPO*%
X5316900Y-10401200D03*
X31422300Y-10281000D03*
%TD*%
%TO.N,CP1*%
D15*
X63215100Y-29857000D02*
X63215100Y-27533600D01*
X69100900Y-10797500D02*
X69307700Y-10590700D01*
X11547800Y-11000000D02*
X10373800Y-9826000D01*
X16250000Y-37301700D02*
X17750000Y-38801700D01*
X45497000Y-29857000D02*
X45497000Y-27873300D01*
X45497000Y-29857000D02*
X63215100Y-29857000D01*
X69307700Y-10590700D02*
X69350000Y-10590700D01*
X16250000Y-30939600D02*
X16250000Y-36600000D01*
X69350000Y-9889000D02*
X69350000Y-10590700D01*
X45144500Y-27520800D02*
X42531100Y-27520800D01*
X16250000Y-23800000D02*
X16250000Y-17400000D01*
X69350000Y-34333000D02*
X68648300Y-34333000D01*
X42531100Y-27520800D02*
X39112300Y-30939600D01*
X68648300Y-33855200D02*
X68648300Y-34333000D01*
X17750000Y-38801700D02*
X17750000Y-43000000D01*
X16250000Y-17400000D02*
X16250000Y-11000000D01*
X39112300Y-30939600D02*
X16250000Y-30939600D01*
X45497000Y-29857000D02*
X43550000Y-29857000D01*
X16250000Y-36600000D02*
X16250000Y-37301700D01*
X16250000Y-30200000D02*
X16250000Y-30939600D01*
X16250000Y-30200000D02*
X16250000Y-23800000D01*
X64650100Y-29857000D02*
X68648300Y-33855200D01*
X45497000Y-27873300D02*
X45144500Y-27520800D01*
X16250000Y-11000000D02*
X11547800Y-11000000D01*
X63215100Y-29857000D02*
X64650100Y-29857000D01*
%TO.N,CP2*%
X42848300Y-35571000D02*
X42848300Y-36009600D01*
X42050000Y-9145700D02*
X42050000Y-12714000D01*
X43550000Y-35571000D02*
X44251700Y-35571000D01*
X17750000Y-11000000D02*
X17750000Y-10109700D01*
X40272000Y-38585900D02*
X40183600Y-38585900D01*
X42050000Y-7000000D02*
X42050000Y-9145700D01*
X68648300Y-39222000D02*
X68648300Y-38783400D01*
X42848300Y-36009600D02*
X40272000Y-38585900D01*
X18451700Y-11000000D02*
X18451700Y-11107400D01*
X42050000Y-24143000D02*
X42050000Y-23020000D01*
X42050000Y-23020000D02*
X42050000Y-18429000D01*
X43550000Y-35571000D02*
X42848300Y-35571000D01*
X17750000Y-10109700D02*
X17165900Y-9525600D01*
X16250000Y-43000000D02*
X16951700Y-43000000D01*
X16951700Y-43438600D02*
X16951700Y-43000000D01*
X69350000Y-39222000D02*
X68648300Y-39222000D01*
X43550000Y-34869300D02*
X42769100Y-34088400D01*
X17750000Y-11000000D02*
X18451700Y-11000000D01*
X20058300Y-12714000D02*
X42050000Y-12714000D01*
X44266100Y-35556600D02*
X44251700Y-35571000D01*
X42050000Y-18429000D02*
X42050000Y-17727300D01*
X70051700Y-9364000D02*
X69833400Y-9145700D01*
X40183600Y-38585900D02*
X35067800Y-43701700D01*
X18451700Y-11107400D02*
X20058300Y-12714000D01*
X68648300Y-38783400D02*
X65421500Y-35556600D01*
X17214800Y-43701700D02*
X16951700Y-43438600D01*
X43550000Y-35571000D02*
X43550000Y-34869300D01*
X69350000Y-14778000D02*
X69350000Y-14076300D01*
X69833400Y-9145700D02*
X42050000Y-9145700D01*
X65421500Y-35556600D02*
X44266100Y-35556600D01*
X42073500Y-23020000D02*
X42050000Y-23020000D01*
X42769100Y-34088400D02*
X42769100Y-28937900D01*
X42050000Y-12714000D02*
X42050000Y-17727300D01*
X70051700Y-13374600D02*
X70051700Y-9364000D01*
X35067800Y-43701700D02*
X17214800Y-43701700D01*
X69350000Y-14076300D02*
X70051700Y-13374600D01*
%TO.N,CP4*%
X43550000Y-12714000D02*
X43550000Y-13415700D01*
X43550000Y-41286000D02*
X44251700Y-41286000D01*
X69834400Y-23800600D02*
X70495300Y-24461500D01*
X44251700Y-12714000D02*
X67850000Y-12714000D01*
X70495300Y-24461500D02*
X70495300Y-47153000D01*
X18791900Y-24140200D02*
X19786200Y-24140200D01*
X19786200Y-24140200D02*
X19786200Y-24141800D01*
X67850000Y-24556000D02*
X67850000Y-29444000D01*
X69350000Y-49000000D02*
X69350000Y-48298300D01*
X67850000Y-12714000D02*
X67850000Y-9889000D01*
X18451700Y-23800000D02*
X18791900Y-24140200D01*
X19786200Y-24141800D02*
X19786600Y-24142200D01*
X44251700Y-41286000D02*
X51264000Y-48298300D01*
X43550000Y-12714000D02*
X44251700Y-12714000D01*
X67850000Y-19667000D02*
X67850000Y-14778000D01*
X67850000Y-14778000D02*
X67850000Y-12714000D01*
X67850000Y-23800600D02*
X67850000Y-24556000D01*
X67850000Y-23800600D02*
X69834400Y-23800600D01*
X70495300Y-47153000D02*
X69350000Y-48298300D01*
X67850000Y-19667000D02*
X67850000Y-23800600D01*
X43387800Y-13415700D02*
X43550000Y-13415700D01*
X19786600Y-24142200D02*
X19787800Y-24142200D01*
X17750000Y-23800000D02*
X18451700Y-23800000D01*
X43167700Y-13635800D02*
X43387800Y-13415700D01*
X51264000Y-48298300D02*
X69350000Y-48298300D01*
%TO.N,CP3*%
X69350000Y-19667000D02*
X69350000Y-18965300D01*
X46251700Y-5000000D02*
X67850000Y-5000000D01*
X67850000Y-5701700D02*
X70506300Y-8358000D01*
X70506300Y-8358000D02*
X70506300Y-17809000D01*
X42050000Y-35571000D02*
X41348300Y-35571000D01*
X24090100Y-11872600D02*
X34704800Y-11872600D01*
X44251700Y-7000000D02*
X46251700Y-5000000D01*
X42552200Y-6265300D02*
X42848300Y-6561400D01*
X68648300Y-44549600D02*
X68385200Y-44812700D01*
X68648300Y-44111000D02*
X68648300Y-44549600D01*
X45406000Y-40572700D02*
X42938900Y-40572700D01*
X43550000Y-7000000D02*
X44251700Y-7000000D01*
X43550000Y-7000000D02*
X42848300Y-7000000D01*
X49646000Y-44812700D02*
X45406000Y-40572700D01*
X42050000Y-41286000D02*
X42050000Y-47000000D01*
X42751700Y-41286000D02*
X42751700Y-40759900D01*
X39841100Y-34063800D02*
X41348300Y-35571000D01*
X36864400Y-34063800D02*
X39841100Y-34063800D01*
X42751700Y-40759900D02*
X42938900Y-40572700D01*
X21446900Y-14952100D02*
X21446900Y-17400000D01*
X18100900Y-17400000D02*
X21446900Y-17400000D01*
X42050000Y-35571000D02*
X42050000Y-29857000D01*
X67850000Y-5000000D02*
X67850000Y-5701700D01*
X22323400Y-17400000D02*
X25347100Y-20423700D01*
X21446900Y-17400000D02*
X22323400Y-17400000D01*
X40312100Y-6265300D02*
X42552200Y-6265300D01*
X34704800Y-11872600D02*
X40312100Y-6265300D01*
X69350000Y-44111000D02*
X68648300Y-44111000D01*
X70506300Y-17809000D02*
X69350000Y-18965300D01*
X17750000Y-17400000D02*
X18100900Y-17400000D01*
X42938900Y-40572700D02*
X41987800Y-39621600D01*
X42050000Y-41286000D02*
X42751700Y-41286000D01*
X68385200Y-44812700D02*
X49646000Y-44812700D01*
X42848300Y-6561400D02*
X42848300Y-7000000D01*
%TO.N,CP5*%
X70078500Y-34831200D02*
X70078500Y-30618300D01*
X67850000Y-39951600D02*
X69874300Y-39951600D01*
X67850000Y-34333000D02*
X67850000Y-35034700D01*
X70078500Y-30618300D02*
X70078500Y-25986200D01*
X67850000Y-39222000D02*
X67850000Y-39951600D01*
X38411100Y-30200000D02*
X42788800Y-25822300D01*
X69350000Y-24556000D02*
X69350000Y-25257700D01*
X43550000Y-17703800D02*
X43550000Y-18429000D01*
X67150700Y-30618300D02*
X62354700Y-25822300D01*
X70078500Y-25986200D02*
X69350000Y-25257700D01*
X70051700Y-39774200D02*
X70051700Y-37236400D01*
X43550000Y-47000000D02*
X44251700Y-47000000D01*
X42788800Y-23549300D02*
X42750200Y-23510700D01*
X66935700Y-43898400D02*
X67148300Y-44111000D01*
X46251700Y-49000000D02*
X63845700Y-49000000D01*
X63845700Y-49000000D02*
X67148300Y-49000000D01*
X17750000Y-30200000D02*
X38411100Y-30200000D01*
X70051700Y-37236400D02*
X67850000Y-35034700D01*
X43365300Y-17519100D02*
X43550000Y-17703800D01*
X70078500Y-30618300D02*
X67150700Y-30618300D01*
X69874300Y-39951600D02*
X70051700Y-39774200D01*
X43550000Y-18429000D02*
X43550000Y-19130700D01*
X67850000Y-44111000D02*
X67148300Y-44111000D01*
X44251700Y-47000000D02*
X46251700Y-49000000D01*
X62354700Y-25822300D02*
X42788800Y-25822300D01*
X63845700Y-49000000D02*
X63845700Y-49149100D01*
X67850000Y-34333000D02*
X68595600Y-35078600D01*
X63306800Y-43898400D02*
X66935700Y-43898400D01*
X67850000Y-39951600D02*
X67850000Y-44111000D01*
X42750200Y-19930500D02*
X43550000Y-19130700D01*
X68595600Y-35078600D02*
X69831100Y-35078600D01*
X42750200Y-23510700D02*
X42750200Y-19930500D01*
X69831100Y-35078600D02*
X70078500Y-34831200D01*
X42788800Y-25822300D02*
X42788800Y-23549300D01*
X67850000Y-49000000D02*
X67148300Y-49000000D01*
%TO.N,CP6*%
X43550000Y-23409200D02*
X43368500Y-23227700D01*
X21589600Y-33462100D02*
X18451700Y-36600000D01*
X62015800Y-24844700D02*
X45816200Y-24844700D01*
X43418300Y-4462600D02*
X43116700Y-4764200D01*
X44895300Y-28122500D02*
X42499500Y-28122500D01*
X68385200Y-30145700D02*
X67316800Y-30145700D01*
X69350000Y-29444000D02*
X68648300Y-29444000D01*
X68385200Y-4298300D02*
X65675700Y-4298300D01*
X42499500Y-28122500D02*
X37159900Y-33462100D01*
X43550000Y-24143000D02*
X43550000Y-23409200D01*
X67316800Y-30145700D02*
X62015800Y-24844700D01*
X17750000Y-36600000D02*
X18451700Y-36600000D01*
X68648300Y-29882600D02*
X68385200Y-30145700D01*
X45816200Y-24844700D02*
X45816200Y-24312700D01*
X68648300Y-5000000D02*
X68648300Y-4561400D01*
X65675700Y-4298300D02*
X65511400Y-4462600D01*
X43550000Y-24143000D02*
X43550000Y-24844700D01*
X65511400Y-4462600D02*
X43418300Y-4462600D01*
X69350000Y-5000000D02*
X68648300Y-5000000D01*
X45816200Y-24844700D02*
X43550000Y-24844700D01*
X37159900Y-33462100D02*
X21589600Y-33462100D01*
X68648300Y-29444000D02*
X68648300Y-29882600D01*
X68648300Y-4561400D02*
X68385200Y-4298300D01*
%TO.N,+3V3*%
X22058300Y-13128700D02*
X22264400Y-13334800D01*
X19358400Y-13128700D02*
X22058300Y-13128700D01*
%TO.N,IMU_INT*%
X19721300Y-7163100D02*
X17459100Y-7163100D01*
X19067100Y-22239200D02*
X23533100Y-22239200D01*
X18114500Y-21286600D02*
X19067100Y-22239200D01*
X20314900Y-7756700D02*
X19721300Y-7163100D01*
X23533100Y-22239200D02*
X24933200Y-23639300D01*
%TO.N,SCL*%
X15059900Y-1798300D02*
X6788000Y-10070200D01*
X43601700Y-2150800D02*
X43601700Y-2150700D01*
X5043600Y-9799300D02*
X4651000Y-10191900D01*
X63512100Y-3824000D02*
X61838900Y-2150800D01*
X43601700Y-2150700D02*
X43249300Y-1798300D01*
X20064300Y-23191800D02*
X23370500Y-23191800D01*
X8134700Y-11138700D02*
X10079400Y-9194000D01*
X15696700Y-9194000D02*
X16951700Y-10449000D01*
X6517100Y-9799300D02*
X5043600Y-9799300D01*
X10079400Y-9194000D02*
X15696700Y-9194000D01*
X16951700Y-12311200D02*
X20223900Y-15583400D01*
X6788000Y-10070200D02*
X6517100Y-9799300D01*
X4651000Y-10665400D02*
X5124300Y-11138700D01*
X23370500Y-23191800D02*
X25179800Y-25001100D01*
X5124300Y-11138700D02*
X8134700Y-11138700D01*
X16951700Y-10449000D02*
X16951700Y-12311200D01*
X4651000Y-10191900D02*
X4651000Y-10665400D01*
X43249300Y-1798300D02*
X15059900Y-1798300D01*
X61838900Y-2150800D02*
X43601700Y-2150800D01*
%TO.N,SDA*%
X18205200Y-8632000D02*
X20028100Y-10454900D01*
X25062400Y-21286600D02*
X19736800Y-21286600D01*
X19005900Y-3431400D02*
X19199700Y-3237600D01*
X9726300Y-8632000D02*
X9019000Y-9339300D01*
X18205200Y-8632000D02*
X9726300Y-8632000D01*
X20028100Y-10454900D02*
X20028100Y-11833000D01*
X19199700Y-3237600D02*
X60835900Y-3237600D01*
%TO.N,IO0*%
X39383600Y-35342600D02*
X36315200Y-38411000D01*
X36315200Y-38411000D02*
X19230500Y-38411000D01*
%TO.N,EN*%
X60763500Y-36158300D02*
X57901900Y-39019900D01*
X57901900Y-39019900D02*
X40600400Y-39019900D01*
X40600400Y-39019900D02*
X40432700Y-39187600D01*
%TO.N,CHX6*%
X24882700Y-22203700D02*
X30263500Y-22203700D01*
X30263500Y-22203700D02*
X36883800Y-15583400D01*
X34242100Y-5884000D02*
X39842500Y-5884000D01*
X32058700Y-8067400D02*
X34242100Y-5884000D01*
%TO.N,NFC_ANT_A*%
X3556500Y-11753000D02*
X3456500Y-11853000D01*
X10255500Y-11753000D02*
X3556500Y-11753000D01*
%TO.N,NFC_GPO*%
X31422300Y-10281000D02*
X20705100Y-10281000D01*
X5652700Y-10737000D02*
X5316900Y-10401200D01*
X9477200Y-8030300D02*
X8417300Y-9090200D01*
X20705100Y-10281000D02*
X18454400Y-8030300D01*
X7001700Y-10737000D02*
X5652700Y-10737000D01*
X18454400Y-8030300D02*
X9477200Y-8030300D01*
X8417300Y-9321400D02*
X7001700Y-10737000D01*
X8417300Y-9090200D02*
X8417300Y-9321400D01*
%TD*%
%TA.AperFunction,Conductor*%
%TO.N,GND*%
G36*
X42866013Y-41808601D02*
G01*
X42890563Y-41842389D01*
X42897794Y-41858765D01*
X42977235Y-41938206D01*
X43080009Y-41983585D01*
X43105135Y-41986500D01*
X43994864Y-41986499D01*
X44019991Y-41983585D01*
X44122765Y-41938206D01*
X44160136Y-41900834D01*
X44214650Y-41873058D01*
X44275082Y-41882629D01*
X44300142Y-41900835D01*
X50829804Y-48430496D01*
X50857581Y-48485013D01*
X50848010Y-48545445D01*
X50804745Y-48588710D01*
X50759800Y-48599500D01*
X46458601Y-48599500D01*
X46400410Y-48580593D01*
X46388597Y-48570504D01*
X45470298Y-47652205D01*
X44497613Y-46679520D01*
X44497610Y-46679518D01*
X44497609Y-46679517D01*
X44497608Y-46679516D01*
X44406291Y-46626794D01*
X44406293Y-46626794D01*
X44350673Y-46611891D01*
X44318473Y-46603263D01*
X44267160Y-46569940D01*
X44248569Y-46533626D01*
X44247585Y-46530010D01*
X44247585Y-46530009D01*
X44202206Y-46427235D01*
X44122765Y-46347794D01*
X44019991Y-46302415D01*
X44019990Y-46302414D01*
X44019988Y-46302414D01*
X43994868Y-46299500D01*
X43105139Y-46299500D01*
X43105136Y-46299501D01*
X43080009Y-46302414D01*
X42977235Y-46347794D01*
X42897793Y-46427236D01*
X42890564Y-46443609D01*
X42849763Y-46489204D01*
X42789954Y-46502109D01*
X42733983Y-46477395D01*
X42709436Y-46443609D01*
X42702206Y-46427236D01*
X42702206Y-46427235D01*
X42622765Y-46347794D01*
X42519991Y-46302415D01*
X42519988Y-46302414D01*
X42513179Y-46299408D01*
X42514137Y-46297236D01*
X42472319Y-46269846D01*
X42450616Y-46212638D01*
X42450500Y-46207845D01*
X42450500Y-42078155D01*
X42469407Y-42019964D01*
X42513702Y-41987781D01*
X42513178Y-41986593D01*
X42518684Y-41984161D01*
X42518907Y-41984000D01*
X42519348Y-41983868D01*
X42519988Y-41983585D01*
X42519991Y-41983585D01*
X42622765Y-41938206D01*
X42702206Y-41858765D01*
X42709435Y-41842392D01*
X42750232Y-41796797D01*
X42810040Y-41783889D01*
X42866013Y-41808601D01*
G37*
%TD.AperFunction*%
%TA.AperFunction,Conductor*%
G36*
X45257290Y-40992107D02*
G01*
X45269103Y-41002196D01*
X49325518Y-45058610D01*
X49325520Y-45058613D01*
X49400087Y-45133180D01*
X49400089Y-45133181D01*
X49491407Y-45185904D01*
X49491408Y-45185904D01*
X49491413Y-45185907D01*
X49593274Y-45213201D01*
X49593276Y-45213201D01*
X49704790Y-45213201D01*
X49704806Y-45213200D01*
X68437925Y-45213200D01*
X68437927Y-45213200D01*
X68539788Y-45185907D01*
X68539790Y-45185905D01*
X68539792Y-45185905D01*
X68631108Y-45133183D01*
X68631108Y-45133182D01*
X68631113Y-45133180D01*
X68894211Y-44870081D01*
X68894213Y-44870080D01*
X68923800Y-44840492D01*
X68950536Y-44826870D01*
X68978312Y-44812718D01*
X68993800Y-44811499D01*
X69794861Y-44811499D01*
X69794864Y-44811499D01*
X69819991Y-44808585D01*
X69922765Y-44763206D01*
X69925798Y-44760172D01*
X69980313Y-44732397D01*
X70040745Y-44741968D01*
X70084010Y-44785233D01*
X70094800Y-44830178D01*
X70094800Y-46946099D01*
X70075893Y-47004290D01*
X70065804Y-47016103D01*
X69213103Y-47868804D01*
X69158586Y-47896581D01*
X69143099Y-47897800D01*
X51470900Y-47897800D01*
X51412709Y-47878893D01*
X51400896Y-47868804D01*
X44674297Y-41142204D01*
X44646520Y-41087687D01*
X44656091Y-41027255D01*
X44699356Y-40983990D01*
X44744301Y-40973200D01*
X45199099Y-40973200D01*
X45257290Y-40992107D01*
G37*
%TD.AperFunction*%
%TA.AperFunction,Conductor*%
G36*
X65272790Y-35976007D02*
G01*
X65284603Y-35986096D01*
X67651003Y-38352496D01*
X67678780Y-38407013D01*
X67669209Y-38467445D01*
X67625944Y-38510710D01*
X67581000Y-38521500D01*
X67405139Y-38521500D01*
X67405136Y-38521501D01*
X67380009Y-38524414D01*
X67277235Y-38569794D01*
X67197794Y-38649235D01*
X67152414Y-38752011D01*
X67149500Y-38777130D01*
X67149500Y-39666860D01*
X67149501Y-39666863D01*
X67152414Y-39691990D01*
X67156241Y-39700657D01*
X67197794Y-39794765D01*
X67277235Y-39874206D01*
X67380009Y-39919585D01*
X67380011Y-39919585D01*
X67386821Y-39922592D01*
X67385860Y-39924766D01*
X67427665Y-39952134D01*
X67449383Y-40009335D01*
X67449500Y-40014154D01*
X67449500Y-43318844D01*
X67430593Y-43377035D01*
X67386297Y-43409218D01*
X67386822Y-43410407D01*
X67381311Y-43412839D01*
X67381093Y-43412999D01*
X67380657Y-43413129D01*
X67277233Y-43458795D01*
X67220427Y-43515601D01*
X67165910Y-43543378D01*
X67105478Y-43533806D01*
X67100923Y-43531333D01*
X67090291Y-43525194D01*
X67090288Y-43525193D01*
X66988427Y-43497900D01*
X66988425Y-43497900D01*
X63796544Y-43497900D01*
X63738353Y-43478993D01*
X63726541Y-43468904D01*
X63675518Y-43417882D01*
X63675516Y-43417880D01*
X63538584Y-43338823D01*
X63385857Y-43297900D01*
X63227743Y-43297900D01*
X63075016Y-43338823D01*
X62938084Y-43417880D01*
X62826280Y-43529684D01*
X62747223Y-43666616D01*
X62706300Y-43819343D01*
X62706300Y-43977457D01*
X62747223Y-44130184D01*
X62824309Y-44263703D01*
X62837030Y-44323548D01*
X62812143Y-44379444D01*
X62759155Y-44410037D01*
X62738572Y-44412200D01*
X49852900Y-44412200D01*
X49794709Y-44393293D01*
X49782896Y-44383204D01*
X47747486Y-42347794D01*
X45651913Y-40252220D01*
X45651910Y-40252218D01*
X45651908Y-40252216D01*
X45560591Y-40199494D01*
X45560593Y-40199494D01*
X45521070Y-40188904D01*
X45458727Y-40172200D01*
X45458725Y-40172200D01*
X43145800Y-40172200D01*
X43087609Y-40153293D01*
X43075796Y-40143203D01*
X42617296Y-39684702D01*
X42614314Y-39678850D01*
X42608893Y-39675142D01*
X42601764Y-39654220D01*
X42589519Y-39630186D01*
X42588340Y-39617512D01*
X42588300Y-39616104D01*
X42588300Y-39542543D01*
X42585960Y-39533812D01*
X42585631Y-39522213D01*
X42591142Y-39503452D01*
X42592166Y-39483922D01*
X42599563Y-39474786D01*
X42602877Y-39463509D01*
X42618365Y-39451569D01*
X42630672Y-39436372D01*
X42642701Y-39432808D01*
X42651335Y-39426153D01*
X42666638Y-39425717D01*
X42684591Y-39420400D01*
X57954625Y-39420400D01*
X57954627Y-39420400D01*
X58056488Y-39393107D01*
X58056490Y-39393105D01*
X58056492Y-39393105D01*
X58147808Y-39340383D01*
X58147808Y-39340382D01*
X58147813Y-39340380D01*
X60700396Y-36787795D01*
X60754913Y-36760019D01*
X60770400Y-36758800D01*
X60842555Y-36758800D01*
X60842557Y-36758800D01*
X60995284Y-36717877D01*
X61132216Y-36638820D01*
X61244020Y-36527016D01*
X61323077Y-36390084D01*
X61364000Y-36237357D01*
X61364000Y-36079243D01*
X61363999Y-36079242D01*
X61363153Y-36072811D01*
X61365144Y-36072548D01*
X61367866Y-36020622D01*
X61406372Y-35973072D01*
X61460291Y-35957100D01*
X65214599Y-35957100D01*
X65272790Y-35976007D01*
G37*
%TD.AperFunction*%
%TA.AperFunction,Conductor*%
G36*
X36225800Y-33881507D02*
G01*
X36261764Y-33931007D01*
X36262996Y-33978080D01*
X36264747Y-33978311D01*
X36263900Y-33984742D01*
X36263900Y-33984743D01*
X36263900Y-34142857D01*
X36304823Y-34295584D01*
X36383880Y-34432516D01*
X36495684Y-34544320D01*
X36632616Y-34623377D01*
X36785343Y-34664300D01*
X36785345Y-34664300D01*
X36943455Y-34664300D01*
X36943457Y-34664300D01*
X37096184Y-34623377D01*
X37233116Y-34544320D01*
X37260426Y-34517010D01*
X37284141Y-34493296D01*
X37338658Y-34465519D01*
X37354144Y-34464300D01*
X39634199Y-34464300D01*
X39692390Y-34483207D01*
X39704203Y-34493296D01*
X41027818Y-35816910D01*
X41027820Y-35816913D01*
X41102387Y-35891480D01*
X41102389Y-35891481D01*
X41181950Y-35937416D01*
X41181952Y-35937416D01*
X41191796Y-35943100D01*
X41193713Y-35944207D01*
X41283136Y-35968168D01*
X41284691Y-35968641D01*
X41308497Y-35985251D01*
X41332840Y-36001060D01*
X41333776Y-36002889D01*
X41334869Y-36003652D01*
X41336335Y-36007886D01*
X41351431Y-36037374D01*
X41352414Y-36040989D01*
X41352415Y-36040991D01*
X41397794Y-36143765D01*
X41477235Y-36223206D01*
X41580009Y-36268585D01*
X41605135Y-36271500D01*
X41780998Y-36271499D01*
X41839188Y-36290406D01*
X41875152Y-36339906D01*
X41875153Y-36401091D01*
X41851002Y-36440503D01*
X40115799Y-38175706D01*
X40084546Y-38196803D01*
X40078136Y-38199529D01*
X40029012Y-38212693D01*
X39983350Y-38239056D01*
X39978140Y-38242063D01*
X39978140Y-38242064D01*
X39937686Y-38265420D01*
X39863119Y-38339986D01*
X39863120Y-38339987D01*
X34930903Y-43272204D01*
X34876386Y-43299981D01*
X34860899Y-43301200D01*
X18549500Y-43301200D01*
X18491309Y-43282293D01*
X18455345Y-43232793D01*
X18450500Y-43202200D01*
X18450499Y-42555139D01*
X18450499Y-42555136D01*
X18447585Y-42530009D01*
X18402206Y-42427235D01*
X18322765Y-42347794D01*
X18219991Y-42302415D01*
X18219988Y-42302414D01*
X18213179Y-42299408D01*
X18214137Y-42297236D01*
X18172319Y-42269846D01*
X18150616Y-42212638D01*
X18150500Y-42207845D01*
X18150500Y-38748974D01*
X18150500Y-38748973D01*
X18123207Y-38647113D01*
X18070480Y-38555787D01*
X18036193Y-38521500D01*
X17995913Y-38481219D01*
X17995913Y-38481220D01*
X17846636Y-38331943D01*
X18630000Y-38331943D01*
X18630000Y-38490057D01*
X18670923Y-38642784D01*
X18749980Y-38779716D01*
X18861784Y-38891520D01*
X18998716Y-38970577D01*
X19151443Y-39011500D01*
X19151445Y-39011500D01*
X19309555Y-39011500D01*
X19309557Y-39011500D01*
X19462284Y-38970577D01*
X19599216Y-38891520D01*
X19624729Y-38866006D01*
X19650241Y-38840496D01*
X19704758Y-38812719D01*
X19720244Y-38811500D01*
X36367925Y-38811500D01*
X36367927Y-38811500D01*
X36469788Y-38784207D01*
X36469790Y-38784205D01*
X36469792Y-38784205D01*
X36561108Y-38731483D01*
X36561108Y-38731482D01*
X36561113Y-38731480D01*
X39320497Y-35972096D01*
X39375014Y-35944319D01*
X39390501Y-35943100D01*
X39462655Y-35943100D01*
X39462657Y-35943100D01*
X39615384Y-35902177D01*
X39752316Y-35823120D01*
X39864120Y-35711316D01*
X39943177Y-35574384D01*
X39984100Y-35421657D01*
X39984100Y-35263543D01*
X39943177Y-35110816D01*
X39864120Y-34973884D01*
X39752316Y-34862080D01*
X39615384Y-34783023D01*
X39462657Y-34742100D01*
X39304543Y-34742100D01*
X39151816Y-34783023D01*
X39014884Y-34862080D01*
X38903080Y-34973884D01*
X38824023Y-35110816D01*
X38802996Y-35189292D01*
X38783100Y-35263544D01*
X38783100Y-35335699D01*
X38764193Y-35393890D01*
X38754104Y-35405703D01*
X36178303Y-37981504D01*
X36123786Y-38009281D01*
X36108299Y-38010500D01*
X19720244Y-38010500D01*
X19662053Y-37991593D01*
X19650241Y-37981504D01*
X19599218Y-37930482D01*
X19599216Y-37930480D01*
X19462284Y-37851423D01*
X19309557Y-37810500D01*
X19151443Y-37810500D01*
X18998716Y-37851423D01*
X18861784Y-37930480D01*
X18749980Y-38042284D01*
X18670923Y-38179216D01*
X18630000Y-38331943D01*
X17846636Y-38331943D01*
X16864835Y-37350142D01*
X16860468Y-37341572D01*
X16852879Y-37335668D01*
X16846875Y-37314892D01*
X16837058Y-37295625D01*
X16838562Y-37286127D01*
X16835892Y-37276888D01*
X16842404Y-37261868D01*
X16846629Y-37235193D01*
X16856700Y-37219350D01*
X16860480Y-37214490D01*
X16902206Y-37172765D01*
X16914367Y-37145222D01*
X16921860Y-37135591D01*
X16937573Y-37124944D01*
X16950232Y-37110797D01*
X16962296Y-37108193D01*
X16972513Y-37101271D01*
X16991483Y-37101893D01*
X17010040Y-37097889D01*
X17021331Y-37102873D01*
X17033666Y-37103279D01*
X17048647Y-37114934D01*
X17066013Y-37122601D01*
X17075777Y-37136040D01*
X17081959Y-37140849D01*
X17083733Y-37146989D01*
X17090563Y-37156389D01*
X17097794Y-37172765D01*
X17177235Y-37252206D01*
X17280009Y-37297585D01*
X17305135Y-37300500D01*
X18194864Y-37300499D01*
X18219991Y-37297585D01*
X18322765Y-37252206D01*
X18402206Y-37172765D01*
X18447585Y-37069991D01*
X18447585Y-37069982D01*
X18448567Y-37066378D01*
X18450447Y-37063505D01*
X18450592Y-37063179D01*
X18450646Y-37063202D01*
X18482084Y-37015190D01*
X18518468Y-36996737D01*
X18606288Y-36973207D01*
X18697613Y-36920480D01*
X21726496Y-33891595D01*
X21781013Y-33863819D01*
X21796500Y-33862600D01*
X36167609Y-33862600D01*
X36225800Y-33881507D01*
G37*
%TD.AperFunction*%
%TA.AperFunction,Conductor*%
G36*
X60093469Y-35965794D02*
G01*
X60120628Y-35973072D01*
X60122328Y-35975171D01*
X60124900Y-35976007D01*
X60141439Y-35998771D01*
X60159134Y-36020622D01*
X60159275Y-36023320D01*
X60160864Y-36025507D01*
X60162096Y-36072580D01*
X60163847Y-36072811D01*
X60163000Y-36079244D01*
X60163000Y-36151399D01*
X60144093Y-36209590D01*
X60134004Y-36221403D01*
X57765003Y-38590404D01*
X57710486Y-38618181D01*
X57694999Y-38619400D01*
X41043901Y-38619400D01*
X40985710Y-38600493D01*
X40949746Y-38550993D01*
X40949746Y-38489807D01*
X40973897Y-38450396D01*
X43123797Y-36300495D01*
X43178314Y-36272718D01*
X43193801Y-36271499D01*
X43994861Y-36271499D01*
X43994864Y-36271499D01*
X44019991Y-36268585D01*
X44122765Y-36223206D01*
X44202206Y-36143765D01*
X44247585Y-36040991D01*
X44247585Y-36040982D01*
X44248567Y-36037378D01*
X44250447Y-36034505D01*
X44250592Y-36034179D01*
X44250646Y-36034202D01*
X44282084Y-35986190D01*
X44318471Y-35967737D01*
X44345586Y-35960471D01*
X44371203Y-35957100D01*
X60066709Y-35957100D01*
X60093469Y-35965794D01*
G37*
%TD.AperFunction*%
%TA.AperFunction,Conductor*%
G36*
X64501390Y-30276407D02*
G01*
X64513203Y-30286496D01*
X67690204Y-33463496D01*
X67717981Y-33518013D01*
X67708410Y-33578445D01*
X67665145Y-33621710D01*
X67620200Y-33632500D01*
X67405139Y-33632500D01*
X67405136Y-33632501D01*
X67380009Y-33635414D01*
X67277235Y-33680794D01*
X67197794Y-33760235D01*
X67152414Y-33863011D01*
X67149500Y-33888130D01*
X67149500Y-34777860D01*
X67149501Y-34777863D01*
X67152414Y-34802990D01*
X67175867Y-34856106D01*
X67197794Y-34905765D01*
X67277235Y-34985206D01*
X67380009Y-35030585D01*
X67380021Y-35030586D01*
X67383624Y-35031567D01*
X67386499Y-35033450D01*
X67386821Y-35033592D01*
X67386797Y-35033645D01*
X67434811Y-35065086D01*
X67453263Y-35101471D01*
X67471759Y-35170500D01*
X67476794Y-35189292D01*
X67529516Y-35280608D01*
X67529518Y-35280610D01*
X67529520Y-35280613D01*
X69622205Y-37373298D01*
X69649981Y-37427813D01*
X69651200Y-37443300D01*
X69651200Y-38422500D01*
X69632293Y-38480691D01*
X69582793Y-38516655D01*
X69552200Y-38521500D01*
X68993801Y-38521500D01*
X68935610Y-38502593D01*
X68923797Y-38492504D01*
X68894213Y-38462920D01*
X67351773Y-36920480D01*
X65667413Y-35236120D01*
X65667410Y-35236118D01*
X65667409Y-35236117D01*
X65667408Y-35236116D01*
X65576091Y-35183394D01*
X65576093Y-35183394D01*
X65536570Y-35172804D01*
X65474227Y-35156100D01*
X65474225Y-35156100D01*
X44336418Y-35156100D01*
X44278227Y-35137193D01*
X44245854Y-35097089D01*
X44202206Y-34998235D01*
X44122765Y-34918794D01*
X44019991Y-34873415D01*
X44019987Y-34873414D01*
X44016369Y-34872430D01*
X44013493Y-34870547D01*
X44013179Y-34870408D01*
X44013202Y-34870355D01*
X43965184Y-34838908D01*
X43946736Y-34802528D01*
X43923207Y-34714713D01*
X43870480Y-34623387D01*
X43870469Y-34623376D01*
X43795913Y-34548819D01*
X43795913Y-34548820D01*
X43198596Y-33951503D01*
X43170819Y-33896986D01*
X43169600Y-33881499D01*
X43169600Y-30656499D01*
X43188507Y-30598308D01*
X43238007Y-30562344D01*
X43268600Y-30557499D01*
X43994861Y-30557499D01*
X43994864Y-30557499D01*
X44019991Y-30554585D01*
X44122765Y-30509206D01*
X44202206Y-30429765D01*
X44247585Y-30326991D01*
X44247585Y-30326988D01*
X44250592Y-30320179D01*
X44252763Y-30321137D01*
X44280154Y-30279319D01*
X44337362Y-30257616D01*
X44342155Y-30257500D01*
X45444273Y-30257500D01*
X63162373Y-30257500D01*
X64443199Y-30257500D01*
X64501390Y-30276407D01*
G37*
%TD.AperFunction*%
%TA.AperFunction,Conductor*%
G36*
X38534690Y-31359007D02*
G01*
X38570654Y-31408507D01*
X38570654Y-31469693D01*
X38546503Y-31509104D01*
X37023003Y-33032604D01*
X36968486Y-33060381D01*
X36952999Y-33061600D01*
X21648406Y-33061600D01*
X21648390Y-33061599D01*
X21642327Y-33061599D01*
X21536873Y-33061599D01*
X21536870Y-33061599D01*
X21435013Y-33088892D01*
X21435009Y-33088894D01*
X21343687Y-33141619D01*
X21269119Y-33216186D01*
X21269120Y-33216187D01*
X21269118Y-33216189D01*
X18500142Y-35985163D01*
X18445625Y-36012940D01*
X18385193Y-36003369D01*
X18360135Y-35985163D01*
X18322766Y-35947795D01*
X18322765Y-35947794D01*
X18219991Y-35902415D01*
X18219990Y-35902414D01*
X18219988Y-35902414D01*
X18194868Y-35899500D01*
X17305139Y-35899500D01*
X17305136Y-35899501D01*
X17280009Y-35902414D01*
X17177235Y-35947794D01*
X17097793Y-36027236D01*
X17090564Y-36043609D01*
X17049763Y-36089204D01*
X16989954Y-36102109D01*
X16933983Y-36077395D01*
X16909436Y-36043609D01*
X16902206Y-36027236D01*
X16902206Y-36027235D01*
X16822765Y-35947794D01*
X16719991Y-35902415D01*
X16719988Y-35902414D01*
X16713179Y-35899408D01*
X16714137Y-35897236D01*
X16672319Y-35869846D01*
X16650616Y-35812638D01*
X16650500Y-35807845D01*
X16650500Y-31439100D01*
X16669407Y-31380909D01*
X16718907Y-31344945D01*
X16749500Y-31340100D01*
X38476499Y-31340100D01*
X38534690Y-31359007D01*
G37*
%TD.AperFunction*%
%TA.AperFunction,Conductor*%
G36*
X63781177Y-27859265D02*
G01*
X63800609Y-27857216D01*
X63811651Y-27863209D01*
X63822484Y-27864611D01*
X63833618Y-27875131D01*
X63850063Y-27884056D01*
X66904787Y-30938780D01*
X66904789Y-30938781D01*
X66904790Y-30938782D01*
X66904791Y-30938783D01*
X66996108Y-30991505D01*
X66996106Y-30991505D01*
X66996110Y-30991506D01*
X66996112Y-30991507D01*
X67097973Y-31018800D01*
X69579000Y-31018800D01*
X69637191Y-31037707D01*
X69673155Y-31087207D01*
X69678000Y-31117800D01*
X69678000Y-33533500D01*
X69659093Y-33591691D01*
X69609593Y-33627655D01*
X69579000Y-33632500D01*
X69033000Y-33632500D01*
X68974809Y-33613593D01*
X68963002Y-33603509D01*
X68894213Y-33534720D01*
X68894210Y-33534718D01*
X64896013Y-29536520D01*
X64896010Y-29536518D01*
X64896008Y-29536516D01*
X64804691Y-29483794D01*
X64804693Y-29483794D01*
X64752636Y-29469846D01*
X64702827Y-29456500D01*
X64702825Y-29456500D01*
X63714600Y-29456500D01*
X63656409Y-29437593D01*
X63620445Y-29388093D01*
X63615600Y-29357500D01*
X63615600Y-28023343D01*
X63617630Y-28017093D01*
X63616419Y-28010636D01*
X63626173Y-27990800D01*
X63634507Y-27965152D01*
X63642639Y-27955354D01*
X63643614Y-27954321D01*
X63695620Y-27902316D01*
X63700129Y-27894504D01*
X63708098Y-27886071D01*
X63725245Y-27876711D01*
X63739761Y-27863633D01*
X63751470Y-27862398D01*
X63761804Y-27856758D01*
X63781177Y-27859265D01*
G37*
%TD.AperFunction*%
%TA.AperFunction,Conductor*%
G36*
X62205990Y-26241707D02*
G01*
X62217803Y-26251796D01*
X62864642Y-26898635D01*
X62892419Y-26953152D01*
X62882848Y-27013584D01*
X62850455Y-27047725D01*
X62851533Y-27049129D01*
X62846387Y-27053077D01*
X62846384Y-27053080D01*
X62734580Y-27164884D01*
X62655523Y-27301816D01*
X62614600Y-27454543D01*
X62614600Y-27612657D01*
X62655523Y-27765384D01*
X62734580Y-27902316D01*
X62785605Y-27953341D01*
X62813381Y-28007856D01*
X62814600Y-28023343D01*
X62814600Y-29357500D01*
X62795693Y-29415691D01*
X62746193Y-29451655D01*
X62715600Y-29456500D01*
X45996500Y-29456500D01*
X45938309Y-29437593D01*
X45902345Y-29388093D01*
X45897500Y-29357500D01*
X45897500Y-27820575D01*
X45897499Y-27820569D01*
X45892529Y-27802020D01*
X45870207Y-27718712D01*
X45870205Y-27718709D01*
X45870205Y-27718707D01*
X45817483Y-27627391D01*
X45817481Y-27627389D01*
X45817480Y-27627387D01*
X45390413Y-27200320D01*
X45390410Y-27200318D01*
X45390408Y-27200316D01*
X45299091Y-27147594D01*
X45299093Y-27147594D01*
X45259570Y-27137004D01*
X45197227Y-27120300D01*
X42478373Y-27120300D01*
X42376513Y-27147593D01*
X42376512Y-27147593D01*
X42376510Y-27147594D01*
X42376509Y-27147594D01*
X42285189Y-27200318D01*
X38975403Y-30510104D01*
X38968285Y-30513730D01*
X38963590Y-30520193D01*
X38941541Y-30527356D01*
X38920886Y-30537881D01*
X38905399Y-30539100D01*
X38877400Y-30539100D01*
X38819209Y-30520193D01*
X38783245Y-30470693D01*
X38783245Y-30409507D01*
X38807394Y-30370098D01*
X42925696Y-26251795D01*
X42980213Y-26224019D01*
X42995700Y-26222800D01*
X62147799Y-26222800D01*
X62205990Y-26241707D01*
G37*
%TD.AperFunction*%
%TA.AperFunction,Conductor*%
G36*
X67408691Y-13133407D02*
G01*
X67444655Y-13182907D01*
X67449500Y-13213500D01*
X67449500Y-13985844D01*
X67430593Y-14044035D01*
X67386297Y-14076218D01*
X67386822Y-14077407D01*
X67381311Y-14079839D01*
X67381093Y-14079999D01*
X67380657Y-14080129D01*
X67277235Y-14125794D01*
X67197794Y-14205235D01*
X67152414Y-14308011D01*
X67149500Y-14333130D01*
X67149500Y-15222860D01*
X67149501Y-15222863D01*
X67152414Y-15247990D01*
X67177756Y-15305385D01*
X67197794Y-15350765D01*
X67277235Y-15430206D01*
X67380009Y-15475585D01*
X67380011Y-15475585D01*
X67386821Y-15478592D01*
X67385860Y-15480766D01*
X67427665Y-15508134D01*
X67449383Y-15565335D01*
X67449500Y-15570154D01*
X67449500Y-18874844D01*
X67430593Y-18933035D01*
X67386297Y-18965218D01*
X67386822Y-18966407D01*
X67381311Y-18968839D01*
X67381093Y-18968999D01*
X67380657Y-18969129D01*
X67277235Y-19014794D01*
X67197794Y-19094235D01*
X67152414Y-19197011D01*
X67149500Y-19222130D01*
X67149500Y-20111860D01*
X67149501Y-20111863D01*
X67152414Y-20136990D01*
X67176667Y-20191916D01*
X67197794Y-20239765D01*
X67277235Y-20319206D01*
X67380009Y-20364585D01*
X67380011Y-20364585D01*
X67386821Y-20367592D01*
X67385860Y-20369766D01*
X67427665Y-20397134D01*
X67449383Y-20454335D01*
X67449500Y-20459154D01*
X67449500Y-23763844D01*
X67430593Y-23822035D01*
X67386297Y-23854218D01*
X67386822Y-23855407D01*
X67381311Y-23857839D01*
X67381093Y-23857999D01*
X67380657Y-23858129D01*
X67380009Y-23858414D01*
X67380009Y-23858415D01*
X67277235Y-23903794D01*
X67197794Y-23983235D01*
X67152414Y-24086011D01*
X67149500Y-24111130D01*
X67149500Y-25000860D01*
X67149501Y-25000863D01*
X67152414Y-25025990D01*
X67176331Y-25080155D01*
X67197794Y-25128765D01*
X67277235Y-25208206D01*
X67380009Y-25253585D01*
X67380011Y-25253585D01*
X67386821Y-25256592D01*
X67385860Y-25258766D01*
X67427665Y-25286134D01*
X67449383Y-25343335D01*
X67449500Y-25348154D01*
X67449500Y-28651844D01*
X67430593Y-28710035D01*
X67386297Y-28742218D01*
X67386822Y-28743407D01*
X67381311Y-28745839D01*
X67381093Y-28745999D01*
X67380657Y-28746129D01*
X67277235Y-28791794D01*
X67197794Y-28871235D01*
X67152414Y-28974011D01*
X67149500Y-28999130D01*
X67149500Y-29172999D01*
X67130593Y-29231190D01*
X67081093Y-29267154D01*
X67019907Y-29267154D01*
X66980496Y-29243003D01*
X64636128Y-26898635D01*
X62261713Y-24524220D01*
X62261710Y-24524218D01*
X62261709Y-24524217D01*
X62261708Y-24524216D01*
X62170391Y-24471494D01*
X62170393Y-24471494D01*
X62130032Y-24460680D01*
X62068527Y-24444200D01*
X62068525Y-24444200D01*
X46515700Y-24444200D01*
X46457509Y-24425293D01*
X46421545Y-24375793D01*
X46416700Y-24345200D01*
X46416700Y-24233644D01*
X46413381Y-24221257D01*
X46375777Y-24080916D01*
X46296720Y-23943984D01*
X46184916Y-23832180D01*
X46047984Y-23753123D01*
X45895257Y-23712200D01*
X45737143Y-23712200D01*
X45584416Y-23753123D01*
X45447484Y-23832180D01*
X45335680Y-23943984D01*
X45256623Y-24080916D01*
X45219020Y-24221255D01*
X45215700Y-24233644D01*
X45215700Y-24345200D01*
X45196793Y-24403391D01*
X45147293Y-24439355D01*
X45116700Y-24444200D01*
X44349500Y-24444200D01*
X44291309Y-24425293D01*
X44255345Y-24375793D01*
X44250500Y-24345200D01*
X44250499Y-23698139D01*
X44250499Y-23698136D01*
X44247585Y-23673009D01*
X44202206Y-23570235D01*
X44122765Y-23490794D01*
X44019991Y-23445415D01*
X44019988Y-23445414D01*
X44018762Y-23444873D01*
X43973166Y-23404072D01*
X43960261Y-23344263D01*
X43963121Y-23328696D01*
X43969000Y-23306757D01*
X43969000Y-23148643D01*
X43928077Y-22995916D01*
X43849020Y-22858984D01*
X43737216Y-22747180D01*
X43600284Y-22668123D01*
X43447557Y-22627200D01*
X43289443Y-22627200D01*
X43284558Y-22628508D01*
X43275319Y-22630984D01*
X43214218Y-22627779D01*
X43166669Y-22589272D01*
X43150700Y-22535356D01*
X43150700Y-20137400D01*
X43169607Y-20079209D01*
X43179690Y-20067402D01*
X43870480Y-19376613D01*
X43923207Y-19285288D01*
X43946736Y-19197472D01*
X43980058Y-19146160D01*
X44016375Y-19127568D01*
X44019981Y-19126586D01*
X44019991Y-19126585D01*
X44122765Y-19081206D01*
X44202206Y-19001765D01*
X44247585Y-18898991D01*
X44250500Y-18873865D01*
X44250499Y-17984136D01*
X44247585Y-17959009D01*
X44202206Y-17856235D01*
X44122765Y-17776794D01*
X44019991Y-17731415D01*
X44019989Y-17731414D01*
X44017195Y-17730181D01*
X43971599Y-17689380D01*
X43958694Y-17629571D01*
X43961557Y-17613991D01*
X43965800Y-17598157D01*
X43965800Y-17440044D01*
X43965800Y-17440043D01*
X43924877Y-17287316D01*
X43845820Y-17150384D01*
X43734016Y-17038580D01*
X43597084Y-16959523D01*
X43444357Y-16918600D01*
X43286243Y-16918600D01*
X43133516Y-16959523D01*
X42996584Y-17038580D01*
X42884780Y-17150384D01*
X42805723Y-17287316D01*
X42764800Y-17440043D01*
X42764800Y-17598157D01*
X42784614Y-17672103D01*
X42786548Y-17679320D01*
X42783345Y-17740421D01*
X42744840Y-17787971D01*
X42685740Y-17803807D01*
X42647970Y-17794141D01*
X42632813Y-17786842D01*
X42622765Y-17776794D01*
X42519991Y-17731415D01*
X42516979Y-17731065D01*
X42506549Y-17726043D01*
X42490682Y-17710873D01*
X42472319Y-17698846D01*
X42469028Y-17690171D01*
X42462323Y-17683761D01*
X42458402Y-17662162D01*
X42450616Y-17641638D01*
X42450500Y-17636845D01*
X42450500Y-13964045D01*
X42469407Y-13905854D01*
X42518907Y-13869890D01*
X42580093Y-13869890D01*
X42629593Y-13905854D01*
X42635230Y-13914535D01*
X42687180Y-14004516D01*
X42798984Y-14116320D01*
X42935916Y-14195377D01*
X43088643Y-14236300D01*
X43088645Y-14236300D01*
X43246755Y-14236300D01*
X43246757Y-14236300D01*
X43399484Y-14195377D01*
X43536416Y-14116320D01*
X43648220Y-14004516D01*
X43727277Y-13867584D01*
X43745755Y-13798620D01*
X43779079Y-13747307D01*
X43791885Y-13738506D01*
X43794386Y-13737061D01*
X43795913Y-13736180D01*
X43870480Y-13661613D01*
X43923207Y-13570287D01*
X43946736Y-13482472D01*
X43980059Y-13431160D01*
X44016375Y-13412568D01*
X44019981Y-13411586D01*
X44019991Y-13411585D01*
X44122765Y-13366206D01*
X44202206Y-13286765D01*
X44247585Y-13183991D01*
X44247585Y-13183988D01*
X44250592Y-13177179D01*
X44252763Y-13178137D01*
X44280154Y-13136319D01*
X44337362Y-13114616D01*
X44342155Y-13114500D01*
X67350500Y-13114500D01*
X67408691Y-13133407D01*
G37*
%TD.AperFunction*%
%TA.AperFunction,Conductor*%
G36*
X68666013Y-25078601D02*
G01*
X68690563Y-25112389D01*
X68697794Y-25128765D01*
X68777235Y-25208206D01*
X68880009Y-25253585D01*
X68880021Y-25253586D01*
X68883624Y-25254567D01*
X68886499Y-25256450D01*
X68886821Y-25256592D01*
X68886797Y-25256645D01*
X68934811Y-25288086D01*
X68953263Y-25324471D01*
X68959609Y-25348154D01*
X68976794Y-25412292D01*
X69029516Y-25503608D01*
X69029518Y-25503610D01*
X69029520Y-25503613D01*
X69649004Y-26123096D01*
X69676781Y-26177613D01*
X69678000Y-26193100D01*
X69678000Y-28644500D01*
X69659093Y-28702691D01*
X69609593Y-28738655D01*
X69579000Y-28743500D01*
X68905139Y-28743500D01*
X68905136Y-28743501D01*
X68880009Y-28746414D01*
X68777235Y-28791794D01*
X68697793Y-28871236D01*
X68690564Y-28887609D01*
X68649763Y-28933204D01*
X68589954Y-28946109D01*
X68533983Y-28921395D01*
X68509436Y-28887609D01*
X68502206Y-28871236D01*
X68502206Y-28871235D01*
X68422765Y-28791794D01*
X68319991Y-28746415D01*
X68319988Y-28746414D01*
X68313179Y-28743408D01*
X68314137Y-28741236D01*
X68272319Y-28713846D01*
X68250616Y-28656638D01*
X68250500Y-28651845D01*
X68250500Y-25348155D01*
X68269407Y-25289964D01*
X68313702Y-25257781D01*
X68313178Y-25256593D01*
X68318684Y-25254161D01*
X68318907Y-25254000D01*
X68319348Y-25253868D01*
X68319988Y-25253585D01*
X68319991Y-25253585D01*
X68422765Y-25208206D01*
X68502206Y-25128765D01*
X68509435Y-25112392D01*
X68550232Y-25066797D01*
X68610040Y-25053889D01*
X68666013Y-25078601D01*
G37*
%TD.AperFunction*%
%TA.AperFunction,Conductor*%
G36*
X68666013Y-15300601D02*
G01*
X68690563Y-15334389D01*
X68697794Y-15350765D01*
X68777235Y-15430206D01*
X68880009Y-15475585D01*
X68905135Y-15478500D01*
X69794864Y-15478499D01*
X69819991Y-15475585D01*
X69922765Y-15430206D01*
X69936798Y-15416172D01*
X69991313Y-15388397D01*
X70051745Y-15397968D01*
X70095010Y-15441233D01*
X70105800Y-15486178D01*
X70105800Y-17602099D01*
X70086893Y-17660290D01*
X70076804Y-17672103D01*
X69029516Y-18719391D01*
X68976793Y-18810711D01*
X68976792Y-18810712D01*
X68976793Y-18810713D01*
X68953264Y-18898525D01*
X68919940Y-18949839D01*
X68883634Y-18968428D01*
X68880013Y-18969413D01*
X68777235Y-19014794D01*
X68697793Y-19094236D01*
X68690564Y-19110609D01*
X68649763Y-19156204D01*
X68589954Y-19169109D01*
X68533983Y-19144395D01*
X68509436Y-19110609D01*
X68502206Y-19094236D01*
X68502206Y-19094235D01*
X68422765Y-19014794D01*
X68319991Y-18969415D01*
X68319988Y-18969414D01*
X68313179Y-18966408D01*
X68314137Y-18964236D01*
X68272319Y-18936846D01*
X68250616Y-18879638D01*
X68250500Y-18874845D01*
X68250500Y-15570155D01*
X68269407Y-15511964D01*
X68313702Y-15479781D01*
X68313178Y-15478593D01*
X68318684Y-15476161D01*
X68318907Y-15476000D01*
X68319348Y-15475868D01*
X68319988Y-15475585D01*
X68319991Y-15475585D01*
X68422765Y-15430206D01*
X68502206Y-15350765D01*
X68509435Y-15334392D01*
X68550232Y-15288797D01*
X68610040Y-15275889D01*
X68666013Y-15300601D01*
G37*
%TD.AperFunction*%
%TA.AperFunction,Conductor*%
G36*
X43100590Y-2217707D02*
G01*
X43112403Y-2227796D01*
X43276310Y-2391703D01*
X43277031Y-2392525D01*
X43342646Y-2458139D01*
X43355787Y-2471280D01*
X43447113Y-2524007D01*
X43548973Y-2551300D01*
X60454133Y-2551300D01*
X60512324Y-2570207D01*
X60548288Y-2619707D01*
X60548288Y-2680893D01*
X60516591Y-2727111D01*
X60510466Y-2732091D01*
X60467184Y-2757080D01*
X60412568Y-2811695D01*
X60408614Y-2814911D01*
X60384587Y-2824189D01*
X60361642Y-2835881D01*
X60352439Y-2836605D01*
X60351537Y-2836954D01*
X60350731Y-2836739D01*
X60346156Y-2837100D01*
X19258506Y-2837100D01*
X19258490Y-2837099D01*
X19252427Y-2837099D01*
X19146973Y-2837099D01*
X19146972Y-2837099D01*
X19140541Y-2837946D01*
X19140239Y-2835659D01*
X19101912Y-2835442D01*
X19084961Y-2830900D01*
X19084957Y-2830900D01*
X18926843Y-2830900D01*
X18774116Y-2871823D01*
X18637184Y-2950880D01*
X18525380Y-3062684D01*
X18446323Y-3199616D01*
X18405400Y-3352343D01*
X18405400Y-3510457D01*
X18446323Y-3663184D01*
X18525380Y-3800116D01*
X18637184Y-3911920D01*
X18774116Y-3990977D01*
X18926843Y-4031900D01*
X18926845Y-4031900D01*
X19084955Y-4031900D01*
X19084957Y-4031900D01*
X19237684Y-3990977D01*
X19374616Y-3911920D01*
X19486420Y-3800116D01*
X19551381Y-3687598D01*
X19596850Y-3646659D01*
X19637117Y-3638100D01*
X60346156Y-3638100D01*
X60404347Y-3657007D01*
X60416159Y-3667096D01*
X60467181Y-3718117D01*
X60467184Y-3718120D01*
X60604116Y-3797177D01*
X60756843Y-3838100D01*
X60756845Y-3838100D01*
X60914955Y-3838100D01*
X60914957Y-3838100D01*
X61067684Y-3797177D01*
X61204616Y-3718120D01*
X61316420Y-3606316D01*
X61395477Y-3469384D01*
X61436400Y-3316657D01*
X61436400Y-3158543D01*
X61395477Y-3005816D01*
X61316420Y-2868884D01*
X61204616Y-2757080D01*
X61204613Y-2757078D01*
X61168167Y-2736036D01*
X61127226Y-2690567D01*
X61120830Y-2629717D01*
X61151423Y-2576729D01*
X61207319Y-2551842D01*
X61217667Y-2551300D01*
X61631999Y-2551300D01*
X61690190Y-2570207D01*
X61702003Y-2580296D01*
X62882604Y-3760897D01*
X62910381Y-3815414D01*
X62911600Y-3830901D01*
X62911600Y-3903056D01*
X62920823Y-3937478D01*
X62917620Y-3998579D01*
X62879115Y-4046129D01*
X62825196Y-4062100D01*
X43471027Y-4062100D01*
X43365573Y-4062100D01*
X43303229Y-4078804D01*
X43263707Y-4089394D01*
X43172387Y-4142118D01*
X43170924Y-4143242D01*
X43169678Y-4143683D01*
X43166767Y-4145364D01*
X43166455Y-4144824D01*
X43113248Y-4163666D01*
X43110657Y-4163700D01*
X43037643Y-4163700D01*
X42884916Y-4204623D01*
X42747984Y-4283680D01*
X42636180Y-4395484D01*
X42557123Y-4532416D01*
X42516200Y-4685143D01*
X42516200Y-4843257D01*
X42557123Y-4995984D01*
X42636180Y-5132916D01*
X42747984Y-5244720D01*
X42884916Y-5323777D01*
X43037643Y-5364700D01*
X43037645Y-5364700D01*
X43195755Y-5364700D01*
X43195757Y-5364700D01*
X43348484Y-5323777D01*
X43485416Y-5244720D01*
X43597220Y-5132916D01*
X43676277Y-4995984D01*
X43677396Y-4991804D01*
X43692223Y-4936476D01*
X43725547Y-4885162D01*
X43782669Y-4863236D01*
X43787849Y-4863100D01*
X45583199Y-4863100D01*
X45641390Y-4882007D01*
X45677354Y-4931507D01*
X45677354Y-4992693D01*
X45653203Y-5032104D01*
X44300142Y-6385163D01*
X44245625Y-6412940D01*
X44185193Y-6403369D01*
X44160135Y-6385163D01*
X44122766Y-6347795D01*
X44122765Y-6347794D01*
X44019991Y-6302415D01*
X44019990Y-6302414D01*
X44019988Y-6302414D01*
X43994869Y-6299500D01*
X43994865Y-6299500D01*
X43193801Y-6299500D01*
X43135610Y-6280593D01*
X43123797Y-6270504D01*
X43094211Y-6240918D01*
X43094211Y-6240917D01*
X42798113Y-5944820D01*
X42798108Y-5944816D01*
X42706791Y-5892094D01*
X42706793Y-5892094D01*
X42667270Y-5881504D01*
X42604927Y-5864800D01*
X42604925Y-5864800D01*
X40535004Y-5864800D01*
X40476813Y-5845893D01*
X40440849Y-5796393D01*
X40439377Y-5791423D01*
X40402077Y-5652216D01*
X40323020Y-5515284D01*
X40211216Y-5403480D01*
X40074284Y-5324423D01*
X39921557Y-5283500D01*
X39763443Y-5283500D01*
X39610716Y-5324423D01*
X39476835Y-5401719D01*
X39473781Y-5403482D01*
X39422759Y-5454504D01*
X39368242Y-5482281D01*
X39352756Y-5483500D01*
X34294827Y-5483500D01*
X34189373Y-5483500D01*
X34127029Y-5500204D01*
X34087507Y-5510794D01*
X33996191Y-5563516D01*
X32121803Y-7437904D01*
X32067286Y-7465681D01*
X32051799Y-7466900D01*
X31979643Y-7466900D01*
X31826916Y-7507823D01*
X31689984Y-7586880D01*
X31578180Y-7698684D01*
X31499123Y-7835616D01*
X31458200Y-7988343D01*
X31458200Y-8146457D01*
X31499123Y-8299184D01*
X31578180Y-8436116D01*
X31689984Y-8547920D01*
X31826916Y-8626977D01*
X31979643Y-8667900D01*
X31979645Y-8667900D01*
X32137755Y-8667900D01*
X32137757Y-8667900D01*
X32290484Y-8626977D01*
X32427416Y-8547920D01*
X32539220Y-8436116D01*
X32618277Y-8299184D01*
X32659200Y-8146457D01*
X32659200Y-8074301D01*
X32678107Y-8016110D01*
X32688196Y-8004297D01*
X34378997Y-6313496D01*
X34433514Y-6285719D01*
X34449001Y-6284500D01*
X39352756Y-6284500D01*
X39359005Y-6286530D01*
X39365463Y-6285319D01*
X39385297Y-6295073D01*
X39410947Y-6303407D01*
X39420745Y-6311539D01*
X39421795Y-6312531D01*
X39473784Y-6364520D01*
X39481592Y-6369028D01*
X39490028Y-6376998D01*
X39499390Y-6394150D01*
X39512471Y-6408672D01*
X39513703Y-6420375D01*
X39519341Y-6430704D01*
X39516832Y-6450084D01*
X39518880Y-6469521D01*
X39512889Y-6480558D01*
X39511488Y-6491384D01*
X39500970Y-6502515D01*
X39492043Y-6518963D01*
X34567903Y-11443104D01*
X34513386Y-11470881D01*
X34497899Y-11472100D01*
X24579844Y-11472100D01*
X24521653Y-11453193D01*
X24509841Y-11443104D01*
X24458818Y-11392082D01*
X24458816Y-11392080D01*
X24321884Y-11313023D01*
X24169157Y-11272100D01*
X24011043Y-11272100D01*
X23858316Y-11313023D01*
X23721384Y-11392080D01*
X23609580Y-11503884D01*
X23530523Y-11640816D01*
X23489600Y-11793543D01*
X23489600Y-11951657D01*
X23530523Y-12104384D01*
X23565520Y-12165001D01*
X23578241Y-12224849D01*
X23553354Y-12280744D01*
X23500366Y-12311337D01*
X23479783Y-12313500D01*
X20615554Y-12313500D01*
X20557363Y-12294593D01*
X20521399Y-12245093D01*
X20521399Y-12183907D01*
X20529814Y-12165006D01*
X20587677Y-12064784D01*
X20628600Y-11912057D01*
X20628600Y-11753943D01*
X20587677Y-11601216D01*
X20508620Y-11464284D01*
X20487440Y-11443104D01*
X20457596Y-11413259D01*
X20429819Y-11358742D01*
X20428600Y-11343256D01*
X20428600Y-10750559D01*
X20447507Y-10692368D01*
X20497007Y-10656404D01*
X20553219Y-10654932D01*
X20652373Y-10681500D01*
X20757827Y-10681500D01*
X30932556Y-10681500D01*
X30990747Y-10700407D01*
X31002559Y-10710496D01*
X31029045Y-10736981D01*
X31053584Y-10761520D01*
X31190516Y-10840577D01*
X31343243Y-10881500D01*
X31343245Y-10881500D01*
X31501355Y-10881500D01*
X31501357Y-10881500D01*
X31654084Y-10840577D01*
X31791016Y-10761520D01*
X31902820Y-10649716D01*
X31981877Y-10512784D01*
X32022800Y-10360057D01*
X32022800Y-10201943D01*
X31981877Y-10049216D01*
X31902820Y-9912284D01*
X31791016Y-9800480D01*
X31654084Y-9721423D01*
X31501357Y-9680500D01*
X31343243Y-9680500D01*
X31190516Y-9721423D01*
X31062512Y-9795326D01*
X31053581Y-9800482D01*
X31002559Y-9851504D01*
X30948042Y-9879281D01*
X30932556Y-9880500D01*
X20912001Y-9880500D01*
X20853810Y-9861593D01*
X20841997Y-9851504D01*
X19815713Y-8825220D01*
X18723094Y-7732601D01*
X18695319Y-7678087D01*
X18704890Y-7617655D01*
X18748155Y-7574390D01*
X18793100Y-7563600D01*
X19514399Y-7563600D01*
X19521996Y-7566068D01*
X19529886Y-7564819D01*
X19550541Y-7575343D01*
X19572590Y-7582507D01*
X19584403Y-7592596D01*
X19685404Y-7693597D01*
X19713181Y-7748114D01*
X19714400Y-7763601D01*
X19714400Y-7835757D01*
X19755323Y-7988484D01*
X19834380Y-8125416D01*
X19946184Y-8237220D01*
X20083116Y-8316277D01*
X20235843Y-8357200D01*
X20235845Y-8357200D01*
X20393955Y-8357200D01*
X20393957Y-8357200D01*
X20546684Y-8316277D01*
X20683616Y-8237220D01*
X20795420Y-8125416D01*
X20874477Y-7988484D01*
X20915400Y-7835757D01*
X20915400Y-7677643D01*
X20874477Y-7524916D01*
X20795420Y-7387984D01*
X20683616Y-7276180D01*
X20546684Y-7197123D01*
X20393957Y-7156200D01*
X20393955Y-7156200D01*
X20321801Y-7156200D01*
X20263610Y-7137293D01*
X20251798Y-7127204D01*
X19967213Y-6842620D01*
X19967208Y-6842616D01*
X19875891Y-6789894D01*
X19875893Y-6789894D01*
X19836370Y-6779304D01*
X19774027Y-6762600D01*
X19774025Y-6762600D01*
X17948844Y-6762600D01*
X17890653Y-6743693D01*
X17878841Y-6733604D01*
X17827818Y-6682582D01*
X17827816Y-6682580D01*
X17690884Y-6603523D01*
X17538157Y-6562600D01*
X17380043Y-6562600D01*
X17227316Y-6603523D01*
X17090384Y-6682580D01*
X16978580Y-6794384D01*
X16899523Y-6931316D01*
X16858600Y-7084043D01*
X16858600Y-7242157D01*
X16899523Y-7394884D01*
X16949416Y-7481303D01*
X16962137Y-7541148D01*
X16937250Y-7597044D01*
X16884262Y-7627637D01*
X16863679Y-7629800D01*
X10033801Y-7629800D01*
X9975610Y-7610893D01*
X9939646Y-7561393D01*
X9939646Y-7500207D01*
X9963797Y-7460796D01*
X15196797Y-2227796D01*
X15251314Y-2200019D01*
X15266801Y-2198800D01*
X43042399Y-2198800D01*
X43100590Y-2217707D01*
G37*
%TD.AperFunction*%
%TA.AperFunction,Conductor*%
G36*
X41308691Y-6684707D02*
G01*
X41344655Y-6734207D01*
X41349500Y-6764800D01*
X41349500Y-7444860D01*
X41349501Y-7444863D01*
X41352414Y-7469990D01*
X41376667Y-7524916D01*
X41397794Y-7572765D01*
X41477235Y-7652206D01*
X41580009Y-7697585D01*
X41580011Y-7697585D01*
X41586821Y-7700592D01*
X41585860Y-7702766D01*
X41627665Y-7730134D01*
X41649383Y-7787335D01*
X41649500Y-7792154D01*
X41649500Y-11921844D01*
X41630593Y-11980035D01*
X41586297Y-12012218D01*
X41586822Y-12013407D01*
X41581311Y-12015839D01*
X41581093Y-12015999D01*
X41580657Y-12016129D01*
X41580009Y-12016414D01*
X41580009Y-12016415D01*
X41477235Y-12061794D01*
X41397794Y-12141235D01*
X41352415Y-12244009D01*
X41352414Y-12244011D01*
X41349408Y-12250821D01*
X41347236Y-12249862D01*
X41319846Y-12291681D01*
X41262638Y-12313384D01*
X41257845Y-12313500D01*
X35069300Y-12313500D01*
X35011109Y-12294593D01*
X34975145Y-12245093D01*
X34975145Y-12183907D01*
X34999294Y-12144498D01*
X40448996Y-6694795D01*
X40503513Y-6667019D01*
X40519000Y-6665800D01*
X41250500Y-6665800D01*
X41308691Y-6684707D01*
G37*
%TD.AperFunction*%
%TA.AperFunction,Conductor*%
G36*
X67108691Y-9565107D02*
G01*
X67144655Y-9614607D01*
X67149500Y-9645200D01*
X67149500Y-10333860D01*
X67149501Y-10333863D01*
X67152414Y-10358990D01*
X67163980Y-10385183D01*
X67197794Y-10461765D01*
X67277235Y-10541206D01*
X67380009Y-10586585D01*
X67380011Y-10586585D01*
X67386821Y-10589592D01*
X67385860Y-10591766D01*
X67427665Y-10619134D01*
X67449383Y-10676335D01*
X67449500Y-10681154D01*
X67449500Y-12214500D01*
X67430593Y-12272691D01*
X67381093Y-12308655D01*
X67350500Y-12313500D01*
X44342155Y-12313500D01*
X44283964Y-12294593D01*
X44251781Y-12250297D01*
X44250593Y-12250822D01*
X44248161Y-12245315D01*
X44248000Y-12245093D01*
X44247868Y-12244651D01*
X44247585Y-12244009D01*
X44202206Y-12141235D01*
X44122765Y-12061794D01*
X44019991Y-12016415D01*
X44019990Y-12016414D01*
X44019988Y-12016414D01*
X43994868Y-12013500D01*
X43105139Y-12013500D01*
X43105136Y-12013501D01*
X43080009Y-12016414D01*
X42977235Y-12061794D01*
X42897793Y-12141236D01*
X42890564Y-12157609D01*
X42849763Y-12203204D01*
X42789954Y-12216109D01*
X42733983Y-12191395D01*
X42709436Y-12157609D01*
X42702206Y-12141236D01*
X42702206Y-12141235D01*
X42622765Y-12061794D01*
X42519991Y-12016415D01*
X42519988Y-12016414D01*
X42513179Y-12013408D01*
X42514137Y-12011236D01*
X42472319Y-11983846D01*
X42450616Y-11926638D01*
X42450500Y-11921845D01*
X42450500Y-9645200D01*
X42469407Y-9587009D01*
X42518907Y-9551045D01*
X42549500Y-9546200D01*
X67050500Y-9546200D01*
X67108691Y-9565107D01*
G37*
%TD.AperFunction*%
%TA.AperFunction,Conductor*%
G36*
X67116036Y-5419407D02*
G01*
X67148218Y-5463702D01*
X67149407Y-5463178D01*
X67151838Y-5468684D01*
X67152000Y-5468907D01*
X67152131Y-5469348D01*
X67152415Y-5469991D01*
X67197794Y-5572765D01*
X67277235Y-5652206D01*
X67380009Y-5697585D01*
X67380021Y-5697586D01*
X67383624Y-5698567D01*
X67386499Y-5700450D01*
X67386821Y-5700592D01*
X67386797Y-5700645D01*
X67434811Y-5732086D01*
X67453263Y-5768471D01*
X67473645Y-5844540D01*
X67476794Y-5856292D01*
X67529516Y-5947608D01*
X67529518Y-5947610D01*
X67529520Y-5947613D01*
X70076805Y-8494898D01*
X70080430Y-8502013D01*
X70086893Y-8506709D01*
X70094056Y-8528757D01*
X70104581Y-8549413D01*
X70105800Y-8564900D01*
X70105800Y-8675041D01*
X70086893Y-8733232D01*
X70037393Y-8769196D01*
X69981178Y-8770668D01*
X69930633Y-8757125D01*
X69886127Y-8745200D01*
X69886126Y-8745200D01*
X42549500Y-8745200D01*
X42491309Y-8726293D01*
X42455345Y-8676793D01*
X42450500Y-8646200D01*
X42450500Y-7792155D01*
X42469407Y-7733964D01*
X42513702Y-7701781D01*
X42513178Y-7700593D01*
X42518684Y-7698161D01*
X42518907Y-7698000D01*
X42519348Y-7697868D01*
X42519988Y-7697585D01*
X42519991Y-7697585D01*
X42622765Y-7652206D01*
X42702206Y-7572765D01*
X42709435Y-7556392D01*
X42750232Y-7510797D01*
X42810040Y-7497889D01*
X42866013Y-7522601D01*
X42890563Y-7556389D01*
X42894837Y-7566068D01*
X42897794Y-7572765D01*
X42977235Y-7652206D01*
X43080009Y-7697585D01*
X43105135Y-7700500D01*
X43994864Y-7700499D01*
X44019991Y-7697585D01*
X44122765Y-7652206D01*
X44202206Y-7572765D01*
X44247585Y-7469991D01*
X44247585Y-7469982D01*
X44248567Y-7466378D01*
X44250447Y-7463505D01*
X44250592Y-7463179D01*
X44250646Y-7463202D01*
X44282084Y-7415190D01*
X44318468Y-7396737D01*
X44406288Y-7373207D01*
X44497613Y-7320480D01*
X46388597Y-5429496D01*
X46443114Y-5401719D01*
X46458601Y-5400500D01*
X67057845Y-5400500D01*
X67116036Y-5419407D01*
G37*
%TD.AperFunction*%
%TA.AperFunction,Conductor*%
G36*
X83141859Y-603868D02*
G01*
X83299646Y-649326D01*
X83310117Y-652990D01*
X83436514Y-705346D01*
X83577457Y-763727D01*
X83587459Y-768544D01*
X83840711Y-908511D01*
X83850111Y-914417D01*
X84086106Y-1081864D01*
X84094783Y-1088784D01*
X84310555Y-1281609D01*
X84318390Y-1289444D01*
X84486733Y-1477820D01*
X84511213Y-1505213D01*
X84518135Y-1513893D01*
X84685582Y-1749888D01*
X84691488Y-1759288D01*
X84831455Y-2012540D01*
X84836272Y-2022542D01*
X84947007Y-2289878D01*
X84950674Y-2300357D01*
X84996131Y-2458139D01*
X85000000Y-2485546D01*
X85000000Y-51494452D01*
X84996131Y-51521859D01*
X84950674Y-51679642D01*
X84947007Y-51690121D01*
X84836272Y-51957457D01*
X84831455Y-51967459D01*
X84691488Y-52220711D01*
X84685582Y-52230111D01*
X84518135Y-52466106D01*
X84511213Y-52474786D01*
X84318398Y-52690547D01*
X84310547Y-52698398D01*
X84094786Y-52891213D01*
X84086106Y-52898135D01*
X83850111Y-53065582D01*
X83840711Y-53071488D01*
X83587459Y-53211455D01*
X83577457Y-53216272D01*
X83310121Y-53327007D01*
X83299642Y-53330674D01*
X83141860Y-53376131D01*
X83114453Y-53380000D01*
X2485547Y-53380000D01*
X2458140Y-53376131D01*
X2300357Y-53330674D01*
X2289878Y-53327007D01*
X2022542Y-53216272D01*
X2012540Y-53211455D01*
X1759288Y-53071488D01*
X1749888Y-53065582D01*
X1513893Y-52898135D01*
X1505213Y-52891213D01*
X1289444Y-52698390D01*
X1281609Y-52690555D01*
X1088784Y-52474783D01*
X1081864Y-52466106D01*
X1017586Y-52375515D01*
X914417Y-52230111D01*
X908511Y-52220711D01*
X768544Y-51967459D01*
X763727Y-51957457D01*
X652992Y-51690121D01*
X649325Y-51679641D01*
X603869Y-51521858D01*
X600000Y-51494452D01*
X600000Y-14111306D01*
X7099500Y-14111306D01*
X7099500Y-14288693D01*
X7134106Y-14462665D01*
X7134106Y-14462667D01*
X7201985Y-14626544D01*
X7201985Y-14626545D01*
X7300535Y-14774034D01*
X7425965Y-14899464D01*
X7520812Y-14962840D01*
X7558691Y-15010890D01*
X7564585Y-15038481D01*
X8032887Y-21969350D01*
X8017945Y-22028683D01*
X7989115Y-22058338D01*
X7925966Y-22100534D01*
X7800537Y-22225962D01*
X7701985Y-22373454D01*
X7701985Y-22373455D01*
X7634106Y-22537332D01*
X7634106Y-22537334D01*
X7599500Y-22711306D01*
X7599500Y-22888693D01*
X7634106Y-23062665D01*
X7634106Y-23062667D01*
X7701985Y-23226544D01*
X7701985Y-23226545D01*
X7800535Y-23374034D01*
X7800536Y-23374035D01*
X7925965Y-23499464D01*
X8073453Y-23598013D01*
X8237334Y-23665894D01*
X8411309Y-23700500D01*
X8411310Y-23700500D01*
X8588690Y-23700500D01*
X8588691Y-23700500D01*
X8762666Y-23665894D01*
X8926547Y-23598013D01*
X9074035Y-23499464D01*
X9199464Y-23374035D01*
X9298013Y-23226547D01*
X9365894Y-23062666D01*
X9400500Y-22888691D01*
X9400500Y-22711309D01*
X9365894Y-22537334D01*
X9298014Y-22373455D01*
X9298014Y-22373454D01*
X9199464Y-22225965D01*
X9074034Y-22100535D01*
X8979186Y-22037159D01*
X8941307Y-21989109D01*
X8935413Y-21961518D01*
X8929353Y-21871836D01*
X8467111Y-15030647D01*
X8482053Y-14971315D01*
X8510880Y-14941662D01*
X8574035Y-14899464D01*
X8699464Y-14774035D01*
X8798013Y-14626547D01*
X8865894Y-14462666D01*
X8900500Y-14288691D01*
X8900500Y-14111309D01*
X8865894Y-13937334D01*
X8798014Y-13773455D01*
X8798014Y-13773454D01*
X8699464Y-13625965D01*
X8574034Y-13500535D01*
X8426544Y-13401985D01*
X8262666Y-13334106D01*
X8088693Y-13299500D01*
X8088691Y-13299500D01*
X7911309Y-13299500D01*
X7911306Y-13299500D01*
X7737334Y-13334106D01*
X7737332Y-13334106D01*
X7573455Y-13401985D01*
X7573454Y-13401985D01*
X7425965Y-13500535D01*
X7300535Y-13625965D01*
X7201985Y-13773454D01*
X7201985Y-13773455D01*
X7134106Y-13937332D01*
X7134106Y-13937334D01*
X7099500Y-14111306D01*
X600000Y-14111306D01*
X600000Y-11773943D01*
X2856000Y-11773943D01*
X2856000Y-11932057D01*
X2896923Y-12084784D01*
X2975980Y-12221716D01*
X3087784Y-12333520D01*
X3224716Y-12412577D01*
X3377443Y-12453500D01*
X3377445Y-12453500D01*
X3535555Y-12453500D01*
X3535557Y-12453500D01*
X3688284Y-12412577D01*
X3825216Y-12333520D01*
X3937020Y-12221716D01*
X3947826Y-12203000D01*
X3993296Y-12162059D01*
X4033562Y-12153500D01*
X9765756Y-12153500D01*
X9823947Y-12172407D01*
X9835759Y-12182496D01*
X9867764Y-12214500D01*
X9886784Y-12233520D01*
X10023716Y-12312577D01*
X10176443Y-12353500D01*
X10176445Y-12353500D01*
X10334555Y-12353500D01*
X10334557Y-12353500D01*
X10487284Y-12312577D01*
X10624216Y-12233520D01*
X10736020Y-12121716D01*
X10815077Y-11984784D01*
X10856000Y-11832057D01*
X10856000Y-11673943D01*
X10815077Y-11521216D01*
X10736020Y-11384284D01*
X10624216Y-11272480D01*
X10487284Y-11193423D01*
X10334557Y-11152500D01*
X10176443Y-11152500D01*
X10023716Y-11193423D01*
X9887443Y-11272100D01*
X9886781Y-11272482D01*
X9835759Y-11323504D01*
X9781242Y-11351281D01*
X9765756Y-11352500D01*
X8726301Y-11352500D01*
X8668110Y-11333593D01*
X8632146Y-11284093D01*
X8632146Y-11222907D01*
X8656297Y-11183496D01*
X8900397Y-10939396D01*
X9711202Y-10128589D01*
X9765717Y-10100814D01*
X9826149Y-10110385D01*
X9866940Y-10149094D01*
X9893280Y-10194716D01*
X10005084Y-10306520D01*
X10142016Y-10385577D01*
X10294743Y-10426500D01*
X10366899Y-10426500D01*
X10425090Y-10445407D01*
X10436903Y-10455496D01*
X10857963Y-10876555D01*
X11227318Y-11245910D01*
X11227320Y-11245913D01*
X11301887Y-11320480D01*
X11358756Y-11353313D01*
X11393213Y-11373207D01*
X11495070Y-11400500D01*
X11495072Y-11400501D01*
X11495073Y-11400501D01*
X11606590Y-11400501D01*
X11606606Y-11400500D01*
X15457845Y-11400500D01*
X15516036Y-11419407D01*
X15548218Y-11463702D01*
X15549407Y-11463178D01*
X15551838Y-11468684D01*
X15552000Y-11468907D01*
X15552131Y-11469348D01*
X15552415Y-11469991D01*
X15597794Y-11572765D01*
X15677235Y-11652206D01*
X15780009Y-11697585D01*
X15780011Y-11697585D01*
X15786821Y-11700592D01*
X15785860Y-11702766D01*
X15827665Y-11730134D01*
X15849383Y-11787335D01*
X15849500Y-11792154D01*
X15849500Y-16607844D01*
X15830593Y-16666035D01*
X15786297Y-16698218D01*
X15786822Y-16699407D01*
X15781311Y-16701839D01*
X15781093Y-16701999D01*
X15780657Y-16702129D01*
X15677235Y-16747794D01*
X15597794Y-16827235D01*
X15552414Y-16930011D01*
X15549500Y-16955130D01*
X15549500Y-17844860D01*
X15549501Y-17844863D01*
X15552414Y-17869990D01*
X15577756Y-17927385D01*
X15597794Y-17972765D01*
X15677235Y-18052206D01*
X15780009Y-18097585D01*
X15780011Y-18097585D01*
X15786821Y-18100592D01*
X15785860Y-18102766D01*
X15827665Y-18130134D01*
X15849383Y-18187335D01*
X15849500Y-18192154D01*
X15849500Y-23007844D01*
X15830593Y-23066035D01*
X15786297Y-23098218D01*
X15786822Y-23099407D01*
X15781311Y-23101839D01*
X15781093Y-23101999D01*
X15780657Y-23102129D01*
X15677235Y-23147794D01*
X15597794Y-23227235D01*
X15552414Y-23330011D01*
X15549500Y-23355130D01*
X15549500Y-24244860D01*
X15549501Y-24244863D01*
X15552414Y-24269990D01*
X15577756Y-24327385D01*
X15597794Y-24372765D01*
X15677235Y-24452206D01*
X15780009Y-24497585D01*
X15780011Y-24497585D01*
X15786821Y-24500592D01*
X15785860Y-24502766D01*
X15827665Y-24530134D01*
X15849383Y-24587335D01*
X15849500Y-24592154D01*
X15849500Y-29407844D01*
X15830593Y-29466035D01*
X15786297Y-29498218D01*
X15786822Y-29499407D01*
X15781311Y-29501839D01*
X15781093Y-29501999D01*
X15780657Y-29502129D01*
X15677235Y-29547794D01*
X15597794Y-29627235D01*
X15552414Y-29730011D01*
X15549500Y-29755130D01*
X15549500Y-30644860D01*
X15549501Y-30644863D01*
X15552414Y-30669990D01*
X15577756Y-30727385D01*
X15597794Y-30772765D01*
X15677235Y-30852206D01*
X15780009Y-30897585D01*
X15780011Y-30897585D01*
X15786821Y-30900592D01*
X15785860Y-30902766D01*
X15827665Y-30930134D01*
X15849383Y-30987335D01*
X15849500Y-30992154D01*
X15849500Y-35807844D01*
X15830593Y-35866035D01*
X15786297Y-35898218D01*
X15786822Y-35899407D01*
X15781311Y-35901839D01*
X15781093Y-35901999D01*
X15780657Y-35902129D01*
X15677235Y-35947794D01*
X15597794Y-36027235D01*
X15552414Y-36130011D01*
X15549500Y-36155130D01*
X15549500Y-37044860D01*
X15549501Y-37044863D01*
X15552414Y-37069990D01*
X15576679Y-37124944D01*
X15597794Y-37172765D01*
X15677235Y-37252206D01*
X15780009Y-37297585D01*
X15780021Y-37297586D01*
X15783624Y-37298567D01*
X15786499Y-37300450D01*
X15786821Y-37300592D01*
X15786797Y-37300645D01*
X15834811Y-37332086D01*
X15853263Y-37368471D01*
X15869163Y-37427813D01*
X15876794Y-37456292D01*
X15929516Y-37547608D01*
X15929518Y-37547610D01*
X15929520Y-37547613D01*
X17320505Y-38938598D01*
X17348281Y-38993113D01*
X17349500Y-39008600D01*
X17349500Y-42207844D01*
X17330593Y-42266035D01*
X17286297Y-42298218D01*
X17286822Y-42299407D01*
X17281311Y-42301839D01*
X17281093Y-42301999D01*
X17280657Y-42302129D01*
X17177235Y-42347794D01*
X17097793Y-42427236D01*
X17090564Y-42443609D01*
X17049763Y-42489204D01*
X16989954Y-42502109D01*
X16933983Y-42477395D01*
X16909436Y-42443609D01*
X16902206Y-42427236D01*
X16902206Y-42427235D01*
X16822765Y-42347794D01*
X16719991Y-42302415D01*
X16719990Y-42302414D01*
X16719988Y-42302414D01*
X16694868Y-42299500D01*
X15805139Y-42299500D01*
X15805136Y-42299501D01*
X15780009Y-42302414D01*
X15677235Y-42347794D01*
X15597794Y-42427235D01*
X15552414Y-42530011D01*
X15549500Y-42555130D01*
X15549500Y-43444860D01*
X15549501Y-43444863D01*
X15552414Y-43469990D01*
X15559473Y-43485977D01*
X15597794Y-43572765D01*
X15677235Y-43652206D01*
X15780009Y-43697585D01*
X15805135Y-43700500D01*
X16606198Y-43700499D01*
X16664389Y-43719406D01*
X16676202Y-43729495D01*
X16894320Y-43947613D01*
X16894319Y-43947613D01*
X16968885Y-44022179D01*
X17031401Y-44058273D01*
X17031402Y-44058273D01*
X17060213Y-44074907D01*
X17162070Y-44102200D01*
X17162072Y-44102201D01*
X17162073Y-44102201D01*
X17273590Y-44102201D01*
X17273606Y-44102200D01*
X35120525Y-44102200D01*
X35120527Y-44102200D01*
X35222388Y-44074907D01*
X35222390Y-44074905D01*
X35222392Y-44074905D01*
X35313708Y-44022183D01*
X35313708Y-44022182D01*
X35313713Y-44022180D01*
X39797773Y-39538117D01*
X39852288Y-39510342D01*
X39912720Y-39519913D01*
X39946806Y-39552258D01*
X39948229Y-39551167D01*
X39952177Y-39556312D01*
X39952178Y-39556313D01*
X39952180Y-39556316D01*
X40063984Y-39668120D01*
X40200916Y-39747177D01*
X40353643Y-39788100D01*
X40353645Y-39788100D01*
X40511755Y-39788100D01*
X40511757Y-39788100D01*
X40664484Y-39747177D01*
X40801416Y-39668120D01*
X40913220Y-39556316D01*
X40963112Y-39469898D01*
X41008581Y-39428959D01*
X41048848Y-39420400D01*
X41291009Y-39420400D01*
X41349200Y-39439307D01*
X41385164Y-39488807D01*
X41386396Y-39535880D01*
X41388147Y-39536111D01*
X41387300Y-39542542D01*
X41387300Y-39542543D01*
X41387300Y-39700657D01*
X41428223Y-39853384D01*
X41507280Y-39990316D01*
X41619084Y-40102120D01*
X41756016Y-40181177D01*
X41908743Y-40222100D01*
X41980899Y-40222100D01*
X42039090Y-40241007D01*
X42050903Y-40251096D01*
X42216303Y-40416496D01*
X42244080Y-40471013D01*
X42234509Y-40531445D01*
X42191244Y-40574710D01*
X42146299Y-40585500D01*
X41605139Y-40585500D01*
X41605136Y-40585501D01*
X41580009Y-40588414D01*
X41477235Y-40633794D01*
X41397794Y-40713235D01*
X41352414Y-40816011D01*
X41349500Y-40841130D01*
X41349500Y-41730860D01*
X41349501Y-41730863D01*
X41352414Y-41755990D01*
X41377756Y-41813385D01*
X41397794Y-41858765D01*
X41477235Y-41938206D01*
X41580009Y-41983585D01*
X41580011Y-41983585D01*
X41586821Y-41986592D01*
X41585860Y-41988766D01*
X41627665Y-42016134D01*
X41649383Y-42073335D01*
X41649500Y-42078154D01*
X41649500Y-46207844D01*
X41630593Y-46266035D01*
X41586297Y-46298218D01*
X41586822Y-46299407D01*
X41581311Y-46301839D01*
X41581093Y-46301999D01*
X41580657Y-46302129D01*
X41477235Y-46347794D01*
X41397794Y-46427235D01*
X41352414Y-46530011D01*
X41349500Y-46555130D01*
X41349500Y-47444860D01*
X41349501Y-47444863D01*
X41352414Y-47469990D01*
X41377756Y-47527385D01*
X41397794Y-47572765D01*
X41477235Y-47652206D01*
X41580009Y-47697585D01*
X41605135Y-47700500D01*
X42494864Y-47700499D01*
X42519991Y-47697585D01*
X42622765Y-47652206D01*
X42702206Y-47572765D01*
X42709435Y-47556392D01*
X42750232Y-47510797D01*
X42810040Y-47497889D01*
X42866013Y-47522601D01*
X42890563Y-47556389D01*
X42897794Y-47572765D01*
X42977235Y-47652206D01*
X43080009Y-47697585D01*
X43105135Y-47700500D01*
X43994864Y-47700499D01*
X44019991Y-47697585D01*
X44122765Y-47652206D01*
X44160136Y-47614834D01*
X44214650Y-47587058D01*
X44275082Y-47596629D01*
X44300142Y-47614835D01*
X46005787Y-49320480D01*
X46005789Y-49320481D01*
X46005790Y-49320482D01*
X46005791Y-49320483D01*
X46097108Y-49373205D01*
X46097106Y-49373205D01*
X46097110Y-49373206D01*
X46097112Y-49373207D01*
X46198973Y-49400500D01*
X46304427Y-49400500D01*
X63240290Y-49400500D01*
X63298481Y-49419407D01*
X63326026Y-49450000D01*
X63365178Y-49517813D01*
X63365180Y-49517816D01*
X63476984Y-49629620D01*
X63613916Y-49708677D01*
X63766643Y-49749600D01*
X63766645Y-49749600D01*
X63924755Y-49749600D01*
X63924757Y-49749600D01*
X64077484Y-49708677D01*
X64214416Y-49629620D01*
X64326220Y-49517816D01*
X64353832Y-49469991D01*
X64365374Y-49450000D01*
X64410843Y-49409059D01*
X64451110Y-49400500D01*
X67057845Y-49400500D01*
X67116036Y-49419407D01*
X67148218Y-49463702D01*
X67149407Y-49463178D01*
X67151838Y-49468684D01*
X67152000Y-49468907D01*
X67152131Y-49469348D01*
X67152415Y-49469991D01*
X67197794Y-49572765D01*
X67277235Y-49652206D01*
X67380009Y-49697585D01*
X67405135Y-49700500D01*
X68294864Y-49700499D01*
X68319991Y-49697585D01*
X68422765Y-49652206D01*
X68502206Y-49572765D01*
X68509435Y-49556392D01*
X68550232Y-49510797D01*
X68610040Y-49497889D01*
X68666013Y-49522601D01*
X68690563Y-49556389D01*
X68697794Y-49572765D01*
X68777235Y-49652206D01*
X68880009Y-49697585D01*
X68905135Y-49700500D01*
X69794864Y-49700499D01*
X69819991Y-49697585D01*
X69922765Y-49652206D01*
X70002206Y-49572765D01*
X70047585Y-49469991D01*
X70050500Y-49444865D01*
X70050499Y-48555136D01*
X70047585Y-48530009D01*
X70002206Y-48427235D01*
X69964833Y-48389862D01*
X69937058Y-48335348D01*
X69946629Y-48274916D01*
X69964835Y-48249857D01*
X70345888Y-47868804D01*
X70815780Y-47398913D01*
X70868507Y-47307588D01*
X70895800Y-47205727D01*
X70895800Y-47100273D01*
X70895800Y-24522214D01*
X70895801Y-24522201D01*
X70895801Y-24408775D01*
X70895801Y-24408773D01*
X70868507Y-24306912D01*
X70863297Y-24297889D01*
X70837606Y-24253391D01*
X70837606Y-24253390D01*
X70815781Y-24215589D01*
X70815780Y-24215587D01*
X70741213Y-24141020D01*
X70741210Y-24141018D01*
X70080313Y-23480120D01*
X70080310Y-23480118D01*
X70080308Y-23480116D01*
X69988991Y-23427394D01*
X69988993Y-23427394D01*
X69949470Y-23416804D01*
X69887127Y-23400100D01*
X69887125Y-23400100D01*
X68349500Y-23400100D01*
X68291309Y-23381193D01*
X68255345Y-23331693D01*
X68250500Y-23301100D01*
X68250500Y-20459155D01*
X68269407Y-20400964D01*
X68313702Y-20368781D01*
X68313178Y-20367593D01*
X68318684Y-20365161D01*
X68318907Y-20365000D01*
X68319348Y-20364868D01*
X68319988Y-20364585D01*
X68319991Y-20364585D01*
X68422765Y-20319206D01*
X68502206Y-20239765D01*
X68509435Y-20223392D01*
X68550232Y-20177797D01*
X68610040Y-20164889D01*
X68666013Y-20189601D01*
X68690563Y-20223389D01*
X68697794Y-20239765D01*
X68777235Y-20319206D01*
X68880009Y-20364585D01*
X68905135Y-20367500D01*
X69794864Y-20367499D01*
X69819991Y-20364585D01*
X69922765Y-20319206D01*
X70002206Y-20239765D01*
X70047585Y-20136991D01*
X70050500Y-20111865D01*
X70050499Y-19222136D01*
X70047585Y-19197009D01*
X70002206Y-19094235D01*
X69964833Y-19056862D01*
X69937058Y-19002348D01*
X69946629Y-18941916D01*
X69964835Y-18916857D01*
X70162305Y-18719387D01*
X70826780Y-18054913D01*
X70828343Y-18052206D01*
X70879505Y-17963592D01*
X70879505Y-17963590D01*
X70879507Y-17963588D01*
X70906800Y-17861727D01*
X70906800Y-17756273D01*
X70906800Y-8305273D01*
X70879507Y-8203413D01*
X70846623Y-8146457D01*
X70826780Y-8112087D01*
X70752213Y-8037519D01*
X70752213Y-8037520D01*
X68464835Y-5750142D01*
X68460468Y-5741572D01*
X68452879Y-5735668D01*
X68446875Y-5714892D01*
X68437058Y-5695625D01*
X68438562Y-5686127D01*
X68435892Y-5676888D01*
X68442404Y-5661868D01*
X68446629Y-5635193D01*
X68456700Y-5619350D01*
X68460480Y-5614490D01*
X68502206Y-5572765D01*
X68514367Y-5545222D01*
X68521860Y-5535591D01*
X68537573Y-5524944D01*
X68550232Y-5510797D01*
X68562296Y-5508193D01*
X68572513Y-5501271D01*
X68591483Y-5501893D01*
X68610040Y-5497889D01*
X68621331Y-5502873D01*
X68633666Y-5503279D01*
X68648647Y-5514934D01*
X68666013Y-5522601D01*
X68675777Y-5536040D01*
X68681959Y-5540849D01*
X68683733Y-5546989D01*
X68690563Y-5556389D01*
X68697794Y-5572765D01*
X68777235Y-5652206D01*
X68880009Y-5697585D01*
X68905135Y-5700500D01*
X69794864Y-5700499D01*
X69819991Y-5697585D01*
X69922765Y-5652206D01*
X70002206Y-5572765D01*
X70047585Y-5469991D01*
X70050500Y-5444865D01*
X70050499Y-4555136D01*
X70047585Y-4530009D01*
X70002206Y-4427235D01*
X69922765Y-4347794D01*
X69819991Y-4302415D01*
X69819990Y-4302414D01*
X69819988Y-4302414D01*
X69794869Y-4299500D01*
X69794865Y-4299500D01*
X68993801Y-4299500D01*
X68935610Y-4280593D01*
X68923797Y-4270504D01*
X68894211Y-4240918D01*
X68894211Y-4240917D01*
X68631113Y-3977820D01*
X68631108Y-3977816D01*
X68539791Y-3925094D01*
X68539793Y-3925094D01*
X68500270Y-3914504D01*
X68437927Y-3897800D01*
X65728427Y-3897800D01*
X65622973Y-3897800D01*
X65560629Y-3914504D01*
X65521107Y-3925094D01*
X65429791Y-3977816D01*
X65429786Y-3977820D01*
X65374502Y-4033104D01*
X65319985Y-4060881D01*
X65304499Y-4062100D01*
X64199004Y-4062100D01*
X64140813Y-4043193D01*
X64104849Y-3993693D01*
X64103377Y-3937478D01*
X64106695Y-3925093D01*
X64112600Y-3903057D01*
X64112600Y-3744943D01*
X64071677Y-3592216D01*
X63992620Y-3455284D01*
X63880816Y-3343480D01*
X63743884Y-3264423D01*
X63591157Y-3223500D01*
X63591155Y-3223500D01*
X63519001Y-3223500D01*
X63460810Y-3204593D01*
X63448997Y-3194504D01*
X62778498Y-2524005D01*
X62084813Y-1830320D01*
X62084810Y-1830318D01*
X62084809Y-1830317D01*
X62084808Y-1830316D01*
X61993491Y-1777594D01*
X61993493Y-1777594D01*
X61953970Y-1767004D01*
X61891627Y-1750300D01*
X61891625Y-1750300D01*
X43808701Y-1750300D01*
X43750510Y-1731393D01*
X43738698Y-1721304D01*
X43495213Y-1477820D01*
X43495208Y-1477816D01*
X43403891Y-1425094D01*
X43403893Y-1425094D01*
X43364370Y-1414504D01*
X43302027Y-1397800D01*
X15112627Y-1397800D01*
X15007173Y-1397800D01*
X14944829Y-1414504D01*
X14905307Y-1425094D01*
X14813991Y-1477816D01*
X6851103Y-9440704D01*
X6843985Y-9444330D01*
X6839290Y-9450793D01*
X6817241Y-9457956D01*
X6796586Y-9468481D01*
X6781099Y-9469700D01*
X6773744Y-9469700D01*
X6724243Y-9456436D01*
X6671691Y-9426094D01*
X6671688Y-9426093D01*
X6569827Y-9398800D01*
X5096327Y-9398800D01*
X4990873Y-9398800D01*
X4928529Y-9415504D01*
X4889007Y-9426094D01*
X4797691Y-9478816D01*
X4330516Y-9945991D01*
X4277794Y-10037308D01*
X4277793Y-10037310D01*
X4264967Y-10085175D01*
X4264968Y-10085176D01*
X4254003Y-10126100D01*
X4250500Y-10139173D01*
X4250500Y-10612673D01*
X4250500Y-10718127D01*
X4260136Y-10754089D01*
X4277794Y-10819992D01*
X4330516Y-10911308D01*
X4330520Y-10911313D01*
X4602703Y-11183497D01*
X4630480Y-11238013D01*
X4620909Y-11298445D01*
X4577644Y-11341710D01*
X4532699Y-11352500D01*
X3817136Y-11352500D01*
X3767637Y-11339237D01*
X3688284Y-11293423D01*
X3535557Y-11252500D01*
X3377443Y-11252500D01*
X3224716Y-11293423D01*
X3087784Y-11372480D01*
X2975980Y-11484284D01*
X2896923Y-11621216D01*
X2856000Y-11773943D01*
X600000Y-11773943D01*
X600000Y-2485546D01*
X603869Y-2458139D01*
X649328Y-2300347D01*
X652988Y-2289888D01*
X763729Y-2022535D01*
X768544Y-2012540D01*
X809420Y-1938581D01*
X908515Y-1759280D01*
X914412Y-1749895D01*
X1081872Y-1513882D01*
X1088776Y-1505224D01*
X1281617Y-1289435D01*
X1289435Y-1281617D01*
X1505224Y-1088776D01*
X1513882Y-1081872D01*
X1749895Y-914412D01*
X1759280Y-908515D01*
X2012546Y-768541D01*
X2022535Y-763729D01*
X2289888Y-652988D01*
X2300353Y-649326D01*
X2388687Y-623877D01*
X2458141Y-603869D01*
X2485547Y-600000D01*
X83114453Y-600000D01*
X83141859Y-603868D01*
G37*
%TD.AperFunction*%
%TD*%
M02*
