%TF.GenerationSoftware,KiCad,Pcbnew,10.0.3*%
%TF.CreationDate,2026-07-20T00:49:10-04:00*%
%TF.ProjectId,NeuralCard,4e657572-616c-4436-9172-642e6b696361,rev?*%
%TF.SameCoordinates,Original*%
%TF.FileFunction,Soldermask,Top*%
%TF.FilePolarity,Negative*%
%FSLAX46Y46*%
G04 Gerber Fmt 4.6, Leading zero omitted, Abs format (unit mm)*
G04 Created by KiCad (PCBNEW 10.0.3) date 2026-07-20 00:49:10*
%MOMM*%
%LPD*%
G01*
G04 APERTURE LIST*
%ADD10C,0.350000*%
%ADD11R,0.800000X0.800000*%
G04 APERTURE END LIST*
D10*
X4000000Y-50300000D02*
X82000000Y-50300000D01*
D11*
%TO.C,D6*%
X17750000Y-43000000D03*
X16250000Y-43000000D03*
%TD*%
%TO.C,D16*%
X69350000Y-9889000D03*
X67850000Y-9889000D03*
%TD*%
%TO.C,D23*%
X69350000Y-44111000D03*
X67850000Y-44111000D03*
%TD*%
%TO.C,D11*%
X43550000Y-29857000D03*
X42050000Y-29857000D03*
%TD*%
%TO.C,D14*%
X43550000Y-47000000D03*
X42050000Y-47000000D03*
%TD*%
%TO.C,D9*%
X43550000Y-18429000D03*
X42050000Y-18429000D03*
%TD*%
%TO.C,D10*%
X43550000Y-24143000D03*
X42050000Y-24143000D03*
%TD*%
%TO.C,D8*%
X43550000Y-12714000D03*
X42050000Y-12714000D03*
%TD*%
%TO.C,D18*%
X69350000Y-19667000D03*
X67850000Y-19667000D03*
%TD*%
%TO.C,D1*%
X17750000Y-11000000D03*
X16250000Y-11000000D03*
%TD*%
%TO.C,D7*%
X43550000Y-7000000D03*
X42050000Y-7000000D03*
%TD*%
%TO.C,D12*%
X43550000Y-35571000D03*
X42050000Y-35571000D03*
%TD*%
%TO.C,D5*%
X17750000Y-36600000D03*
X16250000Y-36600000D03*
%TD*%
%TO.C,D24*%
X69350000Y-49000000D03*
X67850000Y-49000000D03*
%TD*%
%TO.C,D2*%
X17750000Y-17400000D03*
X16250000Y-17400000D03*
%TD*%
%TO.C,D17*%
X69350000Y-14778000D03*
X67850000Y-14778000D03*
%TD*%
%TO.C,D13*%
X43550000Y-41286000D03*
X42050000Y-41286000D03*
%TD*%
%TO.C,D22*%
X69350000Y-39222000D03*
X67850000Y-39222000D03*
%TD*%
%TO.C,D20*%
X69350000Y-29444000D03*
X67850000Y-29444000D03*
%TD*%
%TO.C,D15*%
X69350000Y-5000000D03*
X67850000Y-5000000D03*
%TD*%
%TO.C,D21*%
X69350000Y-34333000D03*
X67850000Y-34333000D03*
%TD*%
%TO.C,D19*%
X69350000Y-24556000D03*
X67850000Y-24556000D03*
%TD*%
%TO.C,D3*%
X17750000Y-23800000D03*
X16250000Y-23800000D03*
%TD*%
%TO.C,D4*%
X17750000Y-30200000D03*
X16250000Y-30200000D03*
%TD*%
M02*
