%TF.GenerationSoftware,KiCad,Pcbnew,10.0.3*%
%TF.CreationDate,2026-08-03T21:15:36-04:00*%
%TF.ProjectId,NeuralCard,4e657572-616c-4436-9172-642e6b696361,rev?*%
%TF.SameCoordinates,Original*%
%TF.FileFunction,Drillmap*%
%TF.FilePolarity,Positive*%
%FSLAX45Y45*%
G04 Gerber Fmt 4.5, Leading zero omitted, Abs format (unit mm)*
G04 Created by KiCad (PCBNEW 10.0.3) date 2026-08-03 21:15:36*
%MOMM*%
%LPD*%
G01*
G04 APERTURE LIST*
%ADD10C,0.100000*%
%ADD11C,0.200000*%
G04 APERTURE END LIST*
D10*
X0Y-318000D02*
G75*
G02*
X318000Y0I318000J0D01*
G01*
X0Y-5080000D02*
X0Y-318000D01*
X318000Y0D02*
X8242000Y0D01*
X318000Y-5398000D02*
G75*
G02*
X0Y-5080000I0J318000D01*
G01*
X8242000Y0D02*
G75*
G02*
X8560000Y-318000I0J-318000D01*
G01*
X8242000Y-5398000D02*
X318000Y-5398000D01*
X8560000Y-318000D02*
X8560000Y-5080000D01*
X8560000Y-5080000D02*
G75*
G02*
X8242000Y-5398000I-318000J0D01*
G01*
D11*
D10*
X245000Y-1185000D02*
X275000Y-1215000D01*
X275000Y-1185000D02*
X245000Y-1215000D01*
X613750Y-1076370D02*
X643750Y-1106370D01*
X643750Y-1076370D02*
X613750Y-1106370D01*
X641810Y-1371740D02*
X671810Y-1401740D01*
X671810Y-1371740D02*
X641810Y-1401740D01*
X681850Y-972040D02*
X711850Y-1002040D01*
X711850Y-972040D02*
X681850Y-1002040D01*
X805880Y-982550D02*
X835880Y-1012550D01*
X835880Y-982550D02*
X805880Y-1012550D01*
X985010Y-1171500D02*
X1015010Y-1201500D01*
X1015010Y-1171500D02*
X985010Y-1201500D01*
X1008680Y-1019730D02*
X1038680Y-1049730D01*
X1038680Y-1019730D02*
X1008680Y-1049730D01*
X1200065Y-1425231D02*
X1230065Y-1455231D01*
X1230065Y-1425231D02*
X1200065Y-1455231D01*
X1644560Y-589300D02*
X1674560Y-619300D01*
X1674560Y-589300D02*
X1644560Y-619300D01*
X1765410Y-1542900D02*
X1795410Y-1572900D01*
X1795410Y-1542900D02*
X1765410Y-1572900D01*
X1797650Y-2779130D02*
X1827650Y-2809130D01*
X1827650Y-2779130D02*
X1797650Y-2809130D01*
X1821370Y-937720D02*
X1851370Y-967720D01*
X1851370Y-937720D02*
X1821370Y-967720D01*
X1835080Y-1868040D02*
X1865080Y-1898040D01*
X1865080Y-1868040D02*
X1835080Y-1898040D01*
X1838490Y-1622360D02*
X1868490Y-1652360D01*
X1868490Y-1622360D02*
X1838490Y-1652360D01*
X1928640Y-2413310D02*
X1958640Y-2443310D01*
X1958640Y-2413310D02*
X1928640Y-2443310D01*
X1938890Y-688020D02*
X1968890Y-718020D01*
X1968890Y-688020D02*
X1938890Y-718020D01*
X1980420Y-1101290D02*
X2010420Y-1131290D01*
X2010420Y-1101290D02*
X1980420Y-1131290D01*
X2144650Y-1997060D02*
X2174650Y-2027060D01*
X2174650Y-1997060D02*
X2144650Y-2027060D01*
X2163970Y-1143080D02*
X2193970Y-1173080D01*
X2193970Y-1143080D02*
X2163970Y-1173080D01*
X2212940Y-1252640D02*
X2242940Y-1282640D01*
X2242940Y-1252640D02*
X2212940Y-1282640D01*
X2218520Y-1493800D02*
X2248520Y-1523800D01*
X2248520Y-1493800D02*
X2218520Y-1523800D01*
X2272940Y-428620D02*
X2302940Y-458620D01*
X2302940Y-428620D02*
X2272940Y-458620D01*
X2385000Y-785000D02*
X2415000Y-815000D01*
X2415000Y-785000D02*
X2385000Y-815000D01*
X2470000Y-801500D02*
X2500000Y-831500D01*
X2500000Y-801500D02*
X2470000Y-831500D01*
X2491585Y-2002965D02*
X2521585Y-2032965D01*
X2521585Y-2002965D02*
X2491585Y-2032965D01*
X2492166Y-2765682D02*
X2522166Y-2795682D01*
X2522166Y-2765682D02*
X2492166Y-2795682D01*
X2782320Y-2858540D02*
X2812320Y-2888540D01*
X2812320Y-2858540D02*
X2782320Y-2888540D01*
X2887430Y-3055125D02*
X2917430Y-3085125D01*
X2917430Y-3055125D02*
X2887430Y-3085125D01*
X3000020Y-1010670D02*
X3030020Y-1040670D01*
X3030020Y-1010670D02*
X3000020Y-1040670D01*
X3081640Y-2113660D02*
X3111640Y-2143660D01*
X3111640Y-2113660D02*
X3081640Y-2143660D01*
X3176190Y-1130344D02*
X3206190Y-1160344D01*
X3206190Y-1130344D02*
X3176190Y-1160344D01*
X3361290Y-1543340D02*
X3391290Y-1573340D01*
X3391290Y-1543340D02*
X3361290Y-1573340D01*
X3361290Y-2837550D02*
X3391290Y-2867550D01*
X3391290Y-2837550D02*
X3361290Y-2867550D01*
X3428070Y-668390D02*
X3458070Y-698390D01*
X3458070Y-668390D02*
X3428070Y-698390D01*
X3624046Y-1147075D02*
X3654046Y-1177075D01*
X3654046Y-1147075D02*
X3624046Y-1177075D01*
X3903160Y-2650220D02*
X3933160Y-2680220D01*
X3933160Y-2650220D02*
X3903160Y-2680220D01*
X3907990Y-936830D02*
X3937990Y-966830D01*
X3937990Y-936830D02*
X3907990Y-966830D01*
X3969250Y-1258180D02*
X3999250Y-1288180D01*
X3999250Y-1258180D02*
X3969250Y-1288180D01*
X3978490Y-678610D02*
X4008490Y-708610D01*
X4008490Y-678610D02*
X3978490Y-708610D01*
X3992305Y-4083293D02*
X4022305Y-4113293D01*
X4022305Y-4083293D02*
X3992305Y-4113293D01*
X4226360Y-2766600D02*
X4256360Y-2796600D01*
X4256360Y-2766600D02*
X4226360Y-2796600D01*
X4279067Y-1022721D02*
X4309067Y-1052721D01*
X4309067Y-1022721D02*
X4279067Y-1052721D01*
X4285000Y-225000D02*
X4315000Y-255000D01*
X4315000Y-225000D02*
X4285000Y-255000D01*
X4285000Y-5145000D02*
X4315000Y-5175000D01*
X4315000Y-5145000D02*
X4285000Y-5175000D01*
X4285300Y-1724160D02*
X4315300Y-1754160D01*
X4315300Y-1724160D02*
X4285300Y-1754160D01*
X4306530Y-3299940D02*
X4336530Y-3329940D01*
X4336530Y-3299940D02*
X4306530Y-3329940D01*
X4310266Y-4263714D02*
X4340266Y-4293714D01*
X4340266Y-4263714D02*
X4310266Y-4293714D01*
X4321530Y-4591260D02*
X4351530Y-4621260D01*
X4351530Y-4591260D02*
X4321530Y-4621260D01*
X4535770Y-706570D02*
X4565770Y-736570D01*
X4565770Y-706570D02*
X4535770Y-736570D01*
X4540295Y-3654164D02*
X4570295Y-3684164D01*
X4570295Y-3654164D02*
X4540295Y-3684164D01*
X4543223Y-1802888D02*
X4573223Y-1832888D01*
X4573223Y-1802888D02*
X4543223Y-1832888D01*
X4570760Y-2111790D02*
X4600760Y-2141790D01*
X4600760Y-2111790D02*
X4570760Y-2141790D01*
X4576650Y-2475350D02*
X4606650Y-2505350D01*
X4606650Y-2475350D02*
X4576650Y-2505350D01*
X4674360Y-762290D02*
X4704360Y-792290D01*
X4704360Y-762290D02*
X4674360Y-792290D01*
X4785000Y-2685000D02*
X4815000Y-2715000D01*
X4815000Y-2685000D02*
X4785000Y-2715000D01*
X5185000Y-3985000D02*
X5215000Y-4015000D01*
X5215000Y-3985000D02*
X5185000Y-4015000D01*
X5448600Y-2893630D02*
X5478600Y-2923630D01*
X5478600Y-2893630D02*
X5448600Y-2923630D01*
X5584163Y-1431044D02*
X5614162Y-1461044D01*
X5614162Y-1431044D02*
X5584163Y-1461044D01*
X5599591Y-2531225D02*
X5629591Y-2561225D01*
X5629591Y-2531225D02*
X5599591Y-2561225D01*
X5636192Y-1019794D02*
X5666192Y-1049795D01*
X5666192Y-1019794D02*
X5636192Y-1049795D01*
X5649300Y-595785D02*
X5679300Y-625785D01*
X5679300Y-595785D02*
X5649300Y-625785D01*
X6127908Y-3083426D02*
X6157908Y-3113426D01*
X6157908Y-3083426D02*
X6127908Y-3113426D01*
X6306380Y-2713800D02*
X6336380Y-2743800D01*
X6336380Y-2713800D02*
X6306380Y-2743800D01*
X6336210Y-367560D02*
X6366210Y-397560D01*
X6366210Y-367560D02*
X6336210Y-397560D01*
X6604530Y-3557100D02*
X6634530Y-3587100D01*
X6634530Y-3557100D02*
X6604530Y-3587100D01*
X6690680Y-3617730D02*
X6720680Y-3647730D01*
X6720680Y-3617730D02*
X6690680Y-3647730D01*
X6850603Y-758517D02*
X6880603Y-788517D01*
X6880603Y-758517D02*
X6850603Y-788517D01*
X6887360Y-1765580D02*
X6917360Y-1795580D01*
X6917360Y-1765580D02*
X6887360Y-1795580D01*
X6901990Y-3610000D02*
X6931990Y-3640000D01*
X6931990Y-3610000D02*
X6901990Y-3640000D01*
X6940420Y-1064750D02*
X6970420Y-1094750D01*
X6970420Y-1064750D02*
X6940420Y-1094750D01*
X6942940Y-3774620D02*
X6972940Y-3804620D01*
X6972940Y-3774620D02*
X6942940Y-3804620D01*
X6986620Y-2123970D02*
X7016620Y-2153970D01*
X7016620Y-2123970D02*
X6986620Y-2153970D01*
X8285000Y-1185000D02*
X8315000Y-1215000D01*
X8315000Y-1185000D02*
X8285000Y-1215000D01*
X8285000Y-2685000D02*
X8315000Y-2715000D01*
X8315000Y-2685000D02*
X8285000Y-2715000D01*
X8285000Y-5085000D02*
X8315000Y-5115000D01*
X8315000Y-5085000D02*
X8285000Y-5115000D01*
X815000Y-1420000D02*
G75*
G02*
X785000Y-1420000I-15000J0D01*
G01*
X785000Y-1420000D02*
G75*
G02*
X815000Y-1420000I15000J0D01*
G01*
X865000Y-2280000D02*
G75*
G02*
X835000Y-2280000I-15000J0D01*
G01*
X835000Y-2280000D02*
G75*
G02*
X865000Y-2280000I15000J0D01*
G01*
X8145500Y-2607500D02*
X8145500Y-2692500D01*
X8103000Y-2650000D02*
X8188000Y-2650000D01*
X8145500Y-2907500D02*
X8145500Y-2992500D01*
X8103000Y-2950000D02*
X8188000Y-2950000D01*
D11*
X255777Y-5714484D02*
X255777Y-5514484D01*
X255777Y-5514484D02*
X303396Y-5514484D01*
X303396Y-5514484D02*
X331967Y-5524008D01*
X331967Y-5524008D02*
X351015Y-5543055D01*
X351015Y-5543055D02*
X360539Y-5562103D01*
X360539Y-5562103D02*
X370062Y-5600198D01*
X370062Y-5600198D02*
X370062Y-5628769D01*
X370062Y-5628769D02*
X360539Y-5666865D01*
X360539Y-5666865D02*
X351015Y-5685912D01*
X351015Y-5685912D02*
X331967Y-5704960D01*
X331967Y-5704960D02*
X303396Y-5714484D01*
X303396Y-5714484D02*
X255777Y-5714484D01*
X455777Y-5714484D02*
X455777Y-5581150D01*
X455777Y-5619246D02*
X465301Y-5600198D01*
X465301Y-5600198D02*
X474824Y-5590674D01*
X474824Y-5590674D02*
X493872Y-5581150D01*
X493872Y-5581150D02*
X512920Y-5581150D01*
X579586Y-5714484D02*
X579586Y-5581150D01*
X579586Y-5514484D02*
X570063Y-5524008D01*
X570063Y-5524008D02*
X579586Y-5533531D01*
X579586Y-5533531D02*
X589110Y-5524008D01*
X589110Y-5524008D02*
X579586Y-5514484D01*
X579586Y-5514484D02*
X579586Y-5533531D01*
X703396Y-5714484D02*
X684348Y-5704960D01*
X684348Y-5704960D02*
X674824Y-5685912D01*
X674824Y-5685912D02*
X674824Y-5514484D01*
X808158Y-5714484D02*
X789110Y-5704960D01*
X789110Y-5704960D02*
X779586Y-5685912D01*
X779586Y-5685912D02*
X779586Y-5514484D01*
X1036729Y-5714484D02*
X1036729Y-5514484D01*
X1036729Y-5514484D02*
X1103396Y-5657341D01*
X1103396Y-5657341D02*
X1170063Y-5514484D01*
X1170063Y-5514484D02*
X1170063Y-5714484D01*
X1351015Y-5714484D02*
X1351015Y-5609722D01*
X1351015Y-5609722D02*
X1341491Y-5590674D01*
X1341491Y-5590674D02*
X1322444Y-5581150D01*
X1322444Y-5581150D02*
X1284348Y-5581150D01*
X1284348Y-5581150D02*
X1265301Y-5590674D01*
X1351015Y-5704960D02*
X1331967Y-5714484D01*
X1331967Y-5714484D02*
X1284348Y-5714484D01*
X1284348Y-5714484D02*
X1265301Y-5704960D01*
X1265301Y-5704960D02*
X1255777Y-5685912D01*
X1255777Y-5685912D02*
X1255777Y-5666865D01*
X1255777Y-5666865D02*
X1265301Y-5647817D01*
X1265301Y-5647817D02*
X1284348Y-5638293D01*
X1284348Y-5638293D02*
X1331967Y-5638293D01*
X1331967Y-5638293D02*
X1351015Y-5628769D01*
X1446253Y-5581150D02*
X1446253Y-5781150D01*
X1446253Y-5590674D02*
X1465301Y-5581150D01*
X1465301Y-5581150D02*
X1503396Y-5581150D01*
X1503396Y-5581150D02*
X1522443Y-5590674D01*
X1522443Y-5590674D02*
X1531967Y-5600198D01*
X1531967Y-5600198D02*
X1541491Y-5619246D01*
X1541491Y-5619246D02*
X1541491Y-5676388D01*
X1541491Y-5676388D02*
X1531967Y-5695436D01*
X1531967Y-5695436D02*
X1522443Y-5704960D01*
X1522443Y-5704960D02*
X1503396Y-5714484D01*
X1503396Y-5714484D02*
X1465301Y-5714484D01*
X1465301Y-5714484D02*
X1446253Y-5704960D01*
X1627205Y-5695436D02*
X1636729Y-5704960D01*
X1636729Y-5704960D02*
X1627205Y-5714484D01*
X1627205Y-5714484D02*
X1617682Y-5704960D01*
X1617682Y-5704960D02*
X1627205Y-5695436D01*
X1627205Y-5695436D02*
X1627205Y-5714484D01*
X1627205Y-5590674D02*
X1636729Y-5600198D01*
X1636729Y-5600198D02*
X1627205Y-5609722D01*
X1627205Y-5609722D02*
X1617682Y-5600198D01*
X1617682Y-5600198D02*
X1627205Y-5590674D01*
X1627205Y-5590674D02*
X1627205Y-5609722D01*
D10*
X-35000Y-6028000D02*
X-5000Y-6058000D01*
X-5000Y-6028000D02*
X-35000Y-6058000D01*
D11*
X293872Y-5934484D02*
X312920Y-5934484D01*
X312920Y-5934484D02*
X331967Y-5944008D01*
X331967Y-5944008D02*
X341491Y-5953531D01*
X341491Y-5953531D02*
X351015Y-5972579D01*
X351015Y-5972579D02*
X360539Y-6010674D01*
X360539Y-6010674D02*
X360539Y-6058293D01*
X360539Y-6058293D02*
X351015Y-6096388D01*
X351015Y-6096388D02*
X341491Y-6115436D01*
X341491Y-6115436D02*
X331967Y-6124960D01*
X331967Y-6124960D02*
X312920Y-6134484D01*
X312920Y-6134484D02*
X293872Y-6134484D01*
X293872Y-6134484D02*
X274824Y-6124960D01*
X274824Y-6124960D02*
X265301Y-6115436D01*
X265301Y-6115436D02*
X255777Y-6096388D01*
X255777Y-6096388D02*
X246253Y-6058293D01*
X246253Y-6058293D02*
X246253Y-6010674D01*
X246253Y-6010674D02*
X255777Y-5972579D01*
X255777Y-5972579D02*
X265301Y-5953531D01*
X265301Y-5953531D02*
X274824Y-5944008D01*
X274824Y-5944008D02*
X293872Y-5934484D01*
X446253Y-6115436D02*
X455777Y-6124960D01*
X455777Y-6124960D02*
X446253Y-6134484D01*
X446253Y-6134484D02*
X436729Y-6124960D01*
X436729Y-6124960D02*
X446253Y-6115436D01*
X446253Y-6115436D02*
X446253Y-6134484D01*
X522443Y-5934484D02*
X646253Y-5934484D01*
X646253Y-5934484D02*
X579586Y-6010674D01*
X579586Y-6010674D02*
X608158Y-6010674D01*
X608158Y-6010674D02*
X627205Y-6020198D01*
X627205Y-6020198D02*
X636729Y-6029722D01*
X636729Y-6029722D02*
X646253Y-6048769D01*
X646253Y-6048769D02*
X646253Y-6096388D01*
X646253Y-6096388D02*
X636729Y-6115436D01*
X636729Y-6115436D02*
X627205Y-6124960D01*
X627205Y-6124960D02*
X608158Y-6134484D01*
X608158Y-6134484D02*
X551015Y-6134484D01*
X551015Y-6134484D02*
X531967Y-6124960D01*
X531967Y-6124960D02*
X522443Y-6115436D01*
X770062Y-5934484D02*
X789110Y-5934484D01*
X789110Y-5934484D02*
X808158Y-5944008D01*
X808158Y-5944008D02*
X817682Y-5953531D01*
X817682Y-5953531D02*
X827205Y-5972579D01*
X827205Y-5972579D02*
X836729Y-6010674D01*
X836729Y-6010674D02*
X836729Y-6058293D01*
X836729Y-6058293D02*
X827205Y-6096388D01*
X827205Y-6096388D02*
X817682Y-6115436D01*
X817682Y-6115436D02*
X808158Y-6124960D01*
X808158Y-6124960D02*
X789110Y-6134484D01*
X789110Y-6134484D02*
X770062Y-6134484D01*
X770062Y-6134484D02*
X751015Y-6124960D01*
X751015Y-6124960D02*
X741491Y-6115436D01*
X741491Y-6115436D02*
X731967Y-6096388D01*
X731967Y-6096388D02*
X722443Y-6058293D01*
X722443Y-6058293D02*
X722443Y-6010674D01*
X722443Y-6010674D02*
X731967Y-5972579D01*
X731967Y-5972579D02*
X741491Y-5953531D01*
X741491Y-5953531D02*
X751015Y-5944008D01*
X751015Y-5944008D02*
X770062Y-5934484D01*
X960539Y-5934484D02*
X979586Y-5934484D01*
X979586Y-5934484D02*
X998634Y-5944008D01*
X998634Y-5944008D02*
X1008158Y-5953531D01*
X1008158Y-5953531D02*
X1017682Y-5972579D01*
X1017682Y-5972579D02*
X1027205Y-6010674D01*
X1027205Y-6010674D02*
X1027205Y-6058293D01*
X1027205Y-6058293D02*
X1017682Y-6096388D01*
X1017682Y-6096388D02*
X1008158Y-6115436D01*
X1008158Y-6115436D02*
X998634Y-6124960D01*
X998634Y-6124960D02*
X979586Y-6134484D01*
X979586Y-6134484D02*
X960539Y-6134484D01*
X960539Y-6134484D02*
X941491Y-6124960D01*
X941491Y-6124960D02*
X931967Y-6115436D01*
X931967Y-6115436D02*
X922443Y-6096388D01*
X922443Y-6096388D02*
X912920Y-6058293D01*
X912920Y-6058293D02*
X912920Y-6010674D01*
X912920Y-6010674D02*
X922443Y-5972579D01*
X922443Y-5972579D02*
X931967Y-5953531D01*
X931967Y-5953531D02*
X941491Y-5944008D01*
X941491Y-5944008D02*
X960539Y-5934484D01*
X1112920Y-6134484D02*
X1112920Y-6001150D01*
X1112920Y-6020198D02*
X1122444Y-6010674D01*
X1122444Y-6010674D02*
X1141491Y-6001150D01*
X1141491Y-6001150D02*
X1170063Y-6001150D01*
X1170063Y-6001150D02*
X1189110Y-6010674D01*
X1189110Y-6010674D02*
X1198634Y-6029722D01*
X1198634Y-6029722D02*
X1198634Y-6134484D01*
X1198634Y-6029722D02*
X1208158Y-6010674D01*
X1208158Y-6010674D02*
X1227205Y-6001150D01*
X1227205Y-6001150D02*
X1255777Y-6001150D01*
X1255777Y-6001150D02*
X1274825Y-6010674D01*
X1274825Y-6010674D02*
X1284348Y-6029722D01*
X1284348Y-6029722D02*
X1284348Y-6134484D01*
X1379586Y-6134484D02*
X1379586Y-6001150D01*
X1379586Y-6020198D02*
X1389110Y-6010674D01*
X1389110Y-6010674D02*
X1408158Y-6001150D01*
X1408158Y-6001150D02*
X1436729Y-6001150D01*
X1436729Y-6001150D02*
X1455777Y-6010674D01*
X1455777Y-6010674D02*
X1465301Y-6029722D01*
X1465301Y-6029722D02*
X1465301Y-6134484D01*
X1465301Y-6029722D02*
X1474824Y-6010674D01*
X1474824Y-6010674D02*
X1493872Y-6001150D01*
X1493872Y-6001150D02*
X1522443Y-6001150D01*
X1522443Y-6001150D02*
X1541491Y-6010674D01*
X1541491Y-6010674D02*
X1551015Y-6029722D01*
X1551015Y-6029722D02*
X1551015Y-6134484D01*
X1941491Y-5924960D02*
X1770063Y-6182103D01*
X2198634Y-5934484D02*
X2217682Y-5934484D01*
X2217682Y-5934484D02*
X2236729Y-5944008D01*
X2236729Y-5944008D02*
X2246253Y-5953531D01*
X2246253Y-5953531D02*
X2255777Y-5972579D01*
X2255777Y-5972579D02*
X2265301Y-6010674D01*
X2265301Y-6010674D02*
X2265301Y-6058293D01*
X2265301Y-6058293D02*
X2255777Y-6096388D01*
X2255777Y-6096388D02*
X2246253Y-6115436D01*
X2246253Y-6115436D02*
X2236729Y-6124960D01*
X2236729Y-6124960D02*
X2217682Y-6134484D01*
X2217682Y-6134484D02*
X2198634Y-6134484D01*
X2198634Y-6134484D02*
X2179587Y-6124960D01*
X2179587Y-6124960D02*
X2170063Y-6115436D01*
X2170063Y-6115436D02*
X2160539Y-6096388D01*
X2160539Y-6096388D02*
X2151015Y-6058293D01*
X2151015Y-6058293D02*
X2151015Y-6010674D01*
X2151015Y-6010674D02*
X2160539Y-5972579D01*
X2160539Y-5972579D02*
X2170063Y-5953531D01*
X2170063Y-5953531D02*
X2179587Y-5944008D01*
X2179587Y-5944008D02*
X2198634Y-5934484D01*
X2351015Y-6115436D02*
X2360539Y-6124960D01*
X2360539Y-6124960D02*
X2351015Y-6134484D01*
X2351015Y-6134484D02*
X2341491Y-6124960D01*
X2341491Y-6124960D02*
X2351015Y-6115436D01*
X2351015Y-6115436D02*
X2351015Y-6134484D01*
X2484348Y-5934484D02*
X2503396Y-5934484D01*
X2503396Y-5934484D02*
X2522444Y-5944008D01*
X2522444Y-5944008D02*
X2531968Y-5953531D01*
X2531968Y-5953531D02*
X2541491Y-5972579D01*
X2541491Y-5972579D02*
X2551015Y-6010674D01*
X2551015Y-6010674D02*
X2551015Y-6058293D01*
X2551015Y-6058293D02*
X2541491Y-6096388D01*
X2541491Y-6096388D02*
X2531968Y-6115436D01*
X2531968Y-6115436D02*
X2522444Y-6124960D01*
X2522444Y-6124960D02*
X2503396Y-6134484D01*
X2503396Y-6134484D02*
X2484348Y-6134484D01*
X2484348Y-6134484D02*
X2465301Y-6124960D01*
X2465301Y-6124960D02*
X2455777Y-6115436D01*
X2455777Y-6115436D02*
X2446253Y-6096388D01*
X2446253Y-6096388D02*
X2436729Y-6058293D01*
X2436729Y-6058293D02*
X2436729Y-6010674D01*
X2436729Y-6010674D02*
X2446253Y-5972579D01*
X2446253Y-5972579D02*
X2455777Y-5953531D01*
X2455777Y-5953531D02*
X2465301Y-5944008D01*
X2465301Y-5944008D02*
X2484348Y-5934484D01*
X2741491Y-6134484D02*
X2627206Y-6134484D01*
X2684348Y-6134484D02*
X2684348Y-5934484D01*
X2684348Y-5934484D02*
X2665301Y-5963055D01*
X2665301Y-5963055D02*
X2646253Y-5982103D01*
X2646253Y-5982103D02*
X2627206Y-5991627D01*
X2931967Y-6134484D02*
X2817682Y-6134484D01*
X2874825Y-6134484D02*
X2874825Y-5934484D01*
X2874825Y-5934484D02*
X2855777Y-5963055D01*
X2855777Y-5963055D02*
X2836729Y-5982103D01*
X2836729Y-5982103D02*
X2817682Y-5991627D01*
X3046253Y-6020198D02*
X3027206Y-6010674D01*
X3027206Y-6010674D02*
X3017682Y-6001150D01*
X3017682Y-6001150D02*
X3008158Y-5982103D01*
X3008158Y-5982103D02*
X3008158Y-5972579D01*
X3008158Y-5972579D02*
X3017682Y-5953531D01*
X3017682Y-5953531D02*
X3027206Y-5944008D01*
X3027206Y-5944008D02*
X3046253Y-5934484D01*
X3046253Y-5934484D02*
X3084348Y-5934484D01*
X3084348Y-5934484D02*
X3103396Y-5944008D01*
X3103396Y-5944008D02*
X3112920Y-5953531D01*
X3112920Y-5953531D02*
X3122444Y-5972579D01*
X3122444Y-5972579D02*
X3122444Y-5982103D01*
X3122444Y-5982103D02*
X3112920Y-6001150D01*
X3112920Y-6001150D02*
X3103396Y-6010674D01*
X3103396Y-6010674D02*
X3084348Y-6020198D01*
X3084348Y-6020198D02*
X3046253Y-6020198D01*
X3046253Y-6020198D02*
X3027206Y-6029722D01*
X3027206Y-6029722D02*
X3017682Y-6039246D01*
X3017682Y-6039246D02*
X3008158Y-6058293D01*
X3008158Y-6058293D02*
X3008158Y-6096388D01*
X3008158Y-6096388D02*
X3017682Y-6115436D01*
X3017682Y-6115436D02*
X3027206Y-6124960D01*
X3027206Y-6124960D02*
X3046253Y-6134484D01*
X3046253Y-6134484D02*
X3084348Y-6134484D01*
X3084348Y-6134484D02*
X3103396Y-6124960D01*
X3103396Y-6124960D02*
X3112920Y-6115436D01*
X3112920Y-6115436D02*
X3122444Y-6096388D01*
X3122444Y-6096388D02*
X3122444Y-6058293D01*
X3122444Y-6058293D02*
X3112920Y-6039246D01*
X3112920Y-6039246D02*
X3103396Y-6029722D01*
X3103396Y-6029722D02*
X3084348Y-6020198D01*
X3198634Y-5934484D02*
X3198634Y-5972579D01*
X3274825Y-5934484D02*
X3274825Y-5972579D01*
X3570063Y-6210674D02*
X3560539Y-6201150D01*
X3560539Y-6201150D02*
X3541491Y-6172579D01*
X3541491Y-6172579D02*
X3531968Y-6153531D01*
X3531968Y-6153531D02*
X3522444Y-6124960D01*
X3522444Y-6124960D02*
X3512920Y-6077341D01*
X3512920Y-6077341D02*
X3512920Y-6039246D01*
X3512920Y-6039246D02*
X3522444Y-5991627D01*
X3522444Y-5991627D02*
X3531968Y-5963055D01*
X3531968Y-5963055D02*
X3541491Y-5944008D01*
X3541491Y-5944008D02*
X3560539Y-5915436D01*
X3560539Y-5915436D02*
X3570063Y-5905912D01*
X3627206Y-5934484D02*
X3760539Y-5934484D01*
X3760539Y-5934484D02*
X3674825Y-6134484D01*
X3931968Y-5934484D02*
X3836729Y-5934484D01*
X3836729Y-5934484D02*
X3827206Y-6029722D01*
X3827206Y-6029722D02*
X3836729Y-6020198D01*
X3836729Y-6020198D02*
X3855777Y-6010674D01*
X3855777Y-6010674D02*
X3903396Y-6010674D01*
X3903396Y-6010674D02*
X3922444Y-6020198D01*
X3922444Y-6020198D02*
X3931968Y-6029722D01*
X3931968Y-6029722D02*
X3941491Y-6048769D01*
X3941491Y-6048769D02*
X3941491Y-6096388D01*
X3941491Y-6096388D02*
X3931968Y-6115436D01*
X3931968Y-6115436D02*
X3922444Y-6124960D01*
X3922444Y-6124960D02*
X3903396Y-6134484D01*
X3903396Y-6134484D02*
X3855777Y-6134484D01*
X3855777Y-6134484D02*
X3836729Y-6124960D01*
X3836729Y-6124960D02*
X3827206Y-6115436D01*
X4179587Y-6134484D02*
X4179587Y-5934484D01*
X4265301Y-6134484D02*
X4265301Y-6029722D01*
X4265301Y-6029722D02*
X4255777Y-6010674D01*
X4255777Y-6010674D02*
X4236730Y-6001150D01*
X4236730Y-6001150D02*
X4208158Y-6001150D01*
X4208158Y-6001150D02*
X4189110Y-6010674D01*
X4189110Y-6010674D02*
X4179587Y-6020198D01*
X4389111Y-6134484D02*
X4370063Y-6124960D01*
X4370063Y-6124960D02*
X4360539Y-6115436D01*
X4360539Y-6115436D02*
X4351015Y-6096388D01*
X4351015Y-6096388D02*
X4351015Y-6039246D01*
X4351015Y-6039246D02*
X4360539Y-6020198D01*
X4360539Y-6020198D02*
X4370063Y-6010674D01*
X4370063Y-6010674D02*
X4389111Y-6001150D01*
X4389111Y-6001150D02*
X4417682Y-6001150D01*
X4417682Y-6001150D02*
X4436730Y-6010674D01*
X4436730Y-6010674D02*
X4446253Y-6020198D01*
X4446253Y-6020198D02*
X4455777Y-6039246D01*
X4455777Y-6039246D02*
X4455777Y-6096388D01*
X4455777Y-6096388D02*
X4446253Y-6115436D01*
X4446253Y-6115436D02*
X4436730Y-6124960D01*
X4436730Y-6124960D02*
X4417682Y-6134484D01*
X4417682Y-6134484D02*
X4389111Y-6134484D01*
X4570063Y-6134484D02*
X4551015Y-6124960D01*
X4551015Y-6124960D02*
X4541492Y-6105912D01*
X4541492Y-6105912D02*
X4541492Y-5934484D01*
X4722444Y-6124960D02*
X4703396Y-6134484D01*
X4703396Y-6134484D02*
X4665301Y-6134484D01*
X4665301Y-6134484D02*
X4646253Y-6124960D01*
X4646253Y-6124960D02*
X4636730Y-6105912D01*
X4636730Y-6105912D02*
X4636730Y-6029722D01*
X4636730Y-6029722D02*
X4646253Y-6010674D01*
X4646253Y-6010674D02*
X4665301Y-6001150D01*
X4665301Y-6001150D02*
X4703396Y-6001150D01*
X4703396Y-6001150D02*
X4722444Y-6010674D01*
X4722444Y-6010674D02*
X4731968Y-6029722D01*
X4731968Y-6029722D02*
X4731968Y-6048769D01*
X4731968Y-6048769D02*
X4636730Y-6067817D01*
X4808158Y-6124960D02*
X4827206Y-6134484D01*
X4827206Y-6134484D02*
X4865301Y-6134484D01*
X4865301Y-6134484D02*
X4884349Y-6124960D01*
X4884349Y-6124960D02*
X4893873Y-6105912D01*
X4893873Y-6105912D02*
X4893873Y-6096388D01*
X4893873Y-6096388D02*
X4884349Y-6077341D01*
X4884349Y-6077341D02*
X4865301Y-6067817D01*
X4865301Y-6067817D02*
X4836730Y-6067817D01*
X4836730Y-6067817D02*
X4817682Y-6058293D01*
X4817682Y-6058293D02*
X4808158Y-6039246D01*
X4808158Y-6039246D02*
X4808158Y-6029722D01*
X4808158Y-6029722D02*
X4817682Y-6010674D01*
X4817682Y-6010674D02*
X4836730Y-6001150D01*
X4836730Y-6001150D02*
X4865301Y-6001150D01*
X4865301Y-6001150D02*
X4884349Y-6010674D01*
X4960539Y-6210674D02*
X4970063Y-6201150D01*
X4970063Y-6201150D02*
X4989111Y-6172579D01*
X4989111Y-6172579D02*
X4998634Y-6153531D01*
X4998634Y-6153531D02*
X5008158Y-6124960D01*
X5008158Y-6124960D02*
X5017682Y-6077341D01*
X5017682Y-6077341D02*
X5017682Y-6039246D01*
X5017682Y-6039246D02*
X5008158Y-5991627D01*
X5008158Y-5991627D02*
X4998634Y-5963055D01*
X4998634Y-5963055D02*
X4989111Y-5944008D01*
X4989111Y-5944008D02*
X4970063Y-5915436D01*
X4970063Y-5915436D02*
X4960539Y-5905912D01*
D10*
X-5000Y-6307000D02*
G75*
G02*
X-35000Y-6307000I-15000J0D01*
G01*
X-35000Y-6307000D02*
G75*
G02*
X-5000Y-6307000I15000J0D01*
G01*
D11*
X293872Y-6198484D02*
X312920Y-6198484D01*
X312920Y-6198484D02*
X331967Y-6208008D01*
X331967Y-6208008D02*
X341491Y-6217531D01*
X341491Y-6217531D02*
X351015Y-6236579D01*
X351015Y-6236579D02*
X360539Y-6274674D01*
X360539Y-6274674D02*
X360539Y-6322293D01*
X360539Y-6322293D02*
X351015Y-6360388D01*
X351015Y-6360388D02*
X341491Y-6379436D01*
X341491Y-6379436D02*
X331967Y-6388960D01*
X331967Y-6388960D02*
X312920Y-6398484D01*
X312920Y-6398484D02*
X293872Y-6398484D01*
X293872Y-6398484D02*
X274824Y-6388960D01*
X274824Y-6388960D02*
X265301Y-6379436D01*
X265301Y-6379436D02*
X255777Y-6360388D01*
X255777Y-6360388D02*
X246253Y-6322293D01*
X246253Y-6322293D02*
X246253Y-6274674D01*
X246253Y-6274674D02*
X255777Y-6236579D01*
X255777Y-6236579D02*
X265301Y-6217531D01*
X265301Y-6217531D02*
X274824Y-6208008D01*
X274824Y-6208008D02*
X293872Y-6198484D01*
X446253Y-6379436D02*
X455777Y-6388960D01*
X455777Y-6388960D02*
X446253Y-6398484D01*
X446253Y-6398484D02*
X436729Y-6388960D01*
X436729Y-6388960D02*
X446253Y-6379436D01*
X446253Y-6379436D02*
X446253Y-6398484D01*
X522443Y-6198484D02*
X646253Y-6198484D01*
X646253Y-6198484D02*
X579586Y-6274674D01*
X579586Y-6274674D02*
X608158Y-6274674D01*
X608158Y-6274674D02*
X627205Y-6284198D01*
X627205Y-6284198D02*
X636729Y-6293722D01*
X636729Y-6293722D02*
X646253Y-6312769D01*
X646253Y-6312769D02*
X646253Y-6360388D01*
X646253Y-6360388D02*
X636729Y-6379436D01*
X636729Y-6379436D02*
X627205Y-6388960D01*
X627205Y-6388960D02*
X608158Y-6398484D01*
X608158Y-6398484D02*
X551015Y-6398484D01*
X551015Y-6398484D02*
X531967Y-6388960D01*
X531967Y-6388960D02*
X522443Y-6379436D01*
X770062Y-6198484D02*
X789110Y-6198484D01*
X789110Y-6198484D02*
X808158Y-6208008D01*
X808158Y-6208008D02*
X817682Y-6217531D01*
X817682Y-6217531D02*
X827205Y-6236579D01*
X827205Y-6236579D02*
X836729Y-6274674D01*
X836729Y-6274674D02*
X836729Y-6322293D01*
X836729Y-6322293D02*
X827205Y-6360388D01*
X827205Y-6360388D02*
X817682Y-6379436D01*
X817682Y-6379436D02*
X808158Y-6388960D01*
X808158Y-6388960D02*
X789110Y-6398484D01*
X789110Y-6398484D02*
X770062Y-6398484D01*
X770062Y-6398484D02*
X751015Y-6388960D01*
X751015Y-6388960D02*
X741491Y-6379436D01*
X741491Y-6379436D02*
X731967Y-6360388D01*
X731967Y-6360388D02*
X722443Y-6322293D01*
X722443Y-6322293D02*
X722443Y-6274674D01*
X722443Y-6274674D02*
X731967Y-6236579D01*
X731967Y-6236579D02*
X741491Y-6217531D01*
X741491Y-6217531D02*
X751015Y-6208008D01*
X751015Y-6208008D02*
X770062Y-6198484D01*
X960539Y-6198484D02*
X979586Y-6198484D01*
X979586Y-6198484D02*
X998634Y-6208008D01*
X998634Y-6208008D02*
X1008158Y-6217531D01*
X1008158Y-6217531D02*
X1017682Y-6236579D01*
X1017682Y-6236579D02*
X1027205Y-6274674D01*
X1027205Y-6274674D02*
X1027205Y-6322293D01*
X1027205Y-6322293D02*
X1017682Y-6360388D01*
X1017682Y-6360388D02*
X1008158Y-6379436D01*
X1008158Y-6379436D02*
X998634Y-6388960D01*
X998634Y-6388960D02*
X979586Y-6398484D01*
X979586Y-6398484D02*
X960539Y-6398484D01*
X960539Y-6398484D02*
X941491Y-6388960D01*
X941491Y-6388960D02*
X931967Y-6379436D01*
X931967Y-6379436D02*
X922443Y-6360388D01*
X922443Y-6360388D02*
X912920Y-6322293D01*
X912920Y-6322293D02*
X912920Y-6274674D01*
X912920Y-6274674D02*
X922443Y-6236579D01*
X922443Y-6236579D02*
X931967Y-6217531D01*
X931967Y-6217531D02*
X941491Y-6208008D01*
X941491Y-6208008D02*
X960539Y-6198484D01*
X1112920Y-6398484D02*
X1112920Y-6265150D01*
X1112920Y-6284198D02*
X1122444Y-6274674D01*
X1122444Y-6274674D02*
X1141491Y-6265150D01*
X1141491Y-6265150D02*
X1170063Y-6265150D01*
X1170063Y-6265150D02*
X1189110Y-6274674D01*
X1189110Y-6274674D02*
X1198634Y-6293722D01*
X1198634Y-6293722D02*
X1198634Y-6398484D01*
X1198634Y-6293722D02*
X1208158Y-6274674D01*
X1208158Y-6274674D02*
X1227205Y-6265150D01*
X1227205Y-6265150D02*
X1255777Y-6265150D01*
X1255777Y-6265150D02*
X1274825Y-6274674D01*
X1274825Y-6274674D02*
X1284348Y-6293722D01*
X1284348Y-6293722D02*
X1284348Y-6398484D01*
X1379586Y-6398484D02*
X1379586Y-6265150D01*
X1379586Y-6284198D02*
X1389110Y-6274674D01*
X1389110Y-6274674D02*
X1408158Y-6265150D01*
X1408158Y-6265150D02*
X1436729Y-6265150D01*
X1436729Y-6265150D02*
X1455777Y-6274674D01*
X1455777Y-6274674D02*
X1465301Y-6293722D01*
X1465301Y-6293722D02*
X1465301Y-6398484D01*
X1465301Y-6293722D02*
X1474824Y-6274674D01*
X1474824Y-6274674D02*
X1493872Y-6265150D01*
X1493872Y-6265150D02*
X1522443Y-6265150D01*
X1522443Y-6265150D02*
X1541491Y-6274674D01*
X1541491Y-6274674D02*
X1551015Y-6293722D01*
X1551015Y-6293722D02*
X1551015Y-6398484D01*
X1941491Y-6188960D02*
X1770063Y-6446103D01*
X2198634Y-6198484D02*
X2217682Y-6198484D01*
X2217682Y-6198484D02*
X2236729Y-6208008D01*
X2236729Y-6208008D02*
X2246253Y-6217531D01*
X2246253Y-6217531D02*
X2255777Y-6236579D01*
X2255777Y-6236579D02*
X2265301Y-6274674D01*
X2265301Y-6274674D02*
X2265301Y-6322293D01*
X2265301Y-6322293D02*
X2255777Y-6360388D01*
X2255777Y-6360388D02*
X2246253Y-6379436D01*
X2246253Y-6379436D02*
X2236729Y-6388960D01*
X2236729Y-6388960D02*
X2217682Y-6398484D01*
X2217682Y-6398484D02*
X2198634Y-6398484D01*
X2198634Y-6398484D02*
X2179587Y-6388960D01*
X2179587Y-6388960D02*
X2170063Y-6379436D01*
X2170063Y-6379436D02*
X2160539Y-6360388D01*
X2160539Y-6360388D02*
X2151015Y-6322293D01*
X2151015Y-6322293D02*
X2151015Y-6274674D01*
X2151015Y-6274674D02*
X2160539Y-6236579D01*
X2160539Y-6236579D02*
X2170063Y-6217531D01*
X2170063Y-6217531D02*
X2179587Y-6208008D01*
X2179587Y-6208008D02*
X2198634Y-6198484D01*
X2351015Y-6379436D02*
X2360539Y-6388960D01*
X2360539Y-6388960D02*
X2351015Y-6398484D01*
X2351015Y-6398484D02*
X2341491Y-6388960D01*
X2341491Y-6388960D02*
X2351015Y-6379436D01*
X2351015Y-6379436D02*
X2351015Y-6398484D01*
X2484348Y-6198484D02*
X2503396Y-6198484D01*
X2503396Y-6198484D02*
X2522444Y-6208008D01*
X2522444Y-6208008D02*
X2531968Y-6217531D01*
X2531968Y-6217531D02*
X2541491Y-6236579D01*
X2541491Y-6236579D02*
X2551015Y-6274674D01*
X2551015Y-6274674D02*
X2551015Y-6322293D01*
X2551015Y-6322293D02*
X2541491Y-6360388D01*
X2541491Y-6360388D02*
X2531968Y-6379436D01*
X2531968Y-6379436D02*
X2522444Y-6388960D01*
X2522444Y-6388960D02*
X2503396Y-6398484D01*
X2503396Y-6398484D02*
X2484348Y-6398484D01*
X2484348Y-6398484D02*
X2465301Y-6388960D01*
X2465301Y-6388960D02*
X2455777Y-6379436D01*
X2455777Y-6379436D02*
X2446253Y-6360388D01*
X2446253Y-6360388D02*
X2436729Y-6322293D01*
X2436729Y-6322293D02*
X2436729Y-6274674D01*
X2436729Y-6274674D02*
X2446253Y-6236579D01*
X2446253Y-6236579D02*
X2455777Y-6217531D01*
X2455777Y-6217531D02*
X2465301Y-6208008D01*
X2465301Y-6208008D02*
X2484348Y-6198484D01*
X2741491Y-6398484D02*
X2627206Y-6398484D01*
X2684348Y-6398484D02*
X2684348Y-6198484D01*
X2684348Y-6198484D02*
X2665301Y-6227055D01*
X2665301Y-6227055D02*
X2646253Y-6246103D01*
X2646253Y-6246103D02*
X2627206Y-6255627D01*
X2931967Y-6398484D02*
X2817682Y-6398484D01*
X2874825Y-6398484D02*
X2874825Y-6198484D01*
X2874825Y-6198484D02*
X2855777Y-6227055D01*
X2855777Y-6227055D02*
X2836729Y-6246103D01*
X2836729Y-6246103D02*
X2817682Y-6255627D01*
X3046253Y-6284198D02*
X3027206Y-6274674D01*
X3027206Y-6274674D02*
X3017682Y-6265150D01*
X3017682Y-6265150D02*
X3008158Y-6246103D01*
X3008158Y-6246103D02*
X3008158Y-6236579D01*
X3008158Y-6236579D02*
X3017682Y-6217531D01*
X3017682Y-6217531D02*
X3027206Y-6208008D01*
X3027206Y-6208008D02*
X3046253Y-6198484D01*
X3046253Y-6198484D02*
X3084348Y-6198484D01*
X3084348Y-6198484D02*
X3103396Y-6208008D01*
X3103396Y-6208008D02*
X3112920Y-6217531D01*
X3112920Y-6217531D02*
X3122444Y-6236579D01*
X3122444Y-6236579D02*
X3122444Y-6246103D01*
X3122444Y-6246103D02*
X3112920Y-6265150D01*
X3112920Y-6265150D02*
X3103396Y-6274674D01*
X3103396Y-6274674D02*
X3084348Y-6284198D01*
X3084348Y-6284198D02*
X3046253Y-6284198D01*
X3046253Y-6284198D02*
X3027206Y-6293722D01*
X3027206Y-6293722D02*
X3017682Y-6303246D01*
X3017682Y-6303246D02*
X3008158Y-6322293D01*
X3008158Y-6322293D02*
X3008158Y-6360388D01*
X3008158Y-6360388D02*
X3017682Y-6379436D01*
X3017682Y-6379436D02*
X3027206Y-6388960D01*
X3027206Y-6388960D02*
X3046253Y-6398484D01*
X3046253Y-6398484D02*
X3084348Y-6398484D01*
X3084348Y-6398484D02*
X3103396Y-6388960D01*
X3103396Y-6388960D02*
X3112920Y-6379436D01*
X3112920Y-6379436D02*
X3122444Y-6360388D01*
X3122444Y-6360388D02*
X3122444Y-6322293D01*
X3122444Y-6322293D02*
X3112920Y-6303246D01*
X3112920Y-6303246D02*
X3103396Y-6293722D01*
X3103396Y-6293722D02*
X3084348Y-6284198D01*
X3198634Y-6198484D02*
X3198634Y-6236579D01*
X3274825Y-6198484D02*
X3274825Y-6236579D01*
X3570063Y-6474674D02*
X3560539Y-6465150D01*
X3560539Y-6465150D02*
X3541491Y-6436579D01*
X3541491Y-6436579D02*
X3531968Y-6417531D01*
X3531968Y-6417531D02*
X3522444Y-6388960D01*
X3522444Y-6388960D02*
X3512920Y-6341341D01*
X3512920Y-6341341D02*
X3512920Y-6303246D01*
X3512920Y-6303246D02*
X3522444Y-6255627D01*
X3522444Y-6255627D02*
X3531968Y-6227055D01*
X3531968Y-6227055D02*
X3541491Y-6208008D01*
X3541491Y-6208008D02*
X3560539Y-6179436D01*
X3560539Y-6179436D02*
X3570063Y-6169912D01*
X3636729Y-6217531D02*
X3646253Y-6208008D01*
X3646253Y-6208008D02*
X3665301Y-6198484D01*
X3665301Y-6198484D02*
X3712920Y-6198484D01*
X3712920Y-6198484D02*
X3731968Y-6208008D01*
X3731968Y-6208008D02*
X3741491Y-6217531D01*
X3741491Y-6217531D02*
X3751015Y-6236579D01*
X3751015Y-6236579D02*
X3751015Y-6255627D01*
X3751015Y-6255627D02*
X3741491Y-6284198D01*
X3741491Y-6284198D02*
X3627206Y-6398484D01*
X3627206Y-6398484D02*
X3751015Y-6398484D01*
X3989110Y-6398484D02*
X3989110Y-6198484D01*
X4074825Y-6398484D02*
X4074825Y-6293722D01*
X4074825Y-6293722D02*
X4065301Y-6274674D01*
X4065301Y-6274674D02*
X4046253Y-6265150D01*
X4046253Y-6265150D02*
X4017682Y-6265150D01*
X4017682Y-6265150D02*
X3998634Y-6274674D01*
X3998634Y-6274674D02*
X3989110Y-6284198D01*
X4198634Y-6398484D02*
X4179587Y-6388960D01*
X4179587Y-6388960D02*
X4170063Y-6379436D01*
X4170063Y-6379436D02*
X4160539Y-6360388D01*
X4160539Y-6360388D02*
X4160539Y-6303246D01*
X4160539Y-6303246D02*
X4170063Y-6284198D01*
X4170063Y-6284198D02*
X4179587Y-6274674D01*
X4179587Y-6274674D02*
X4198634Y-6265150D01*
X4198634Y-6265150D02*
X4227206Y-6265150D01*
X4227206Y-6265150D02*
X4246253Y-6274674D01*
X4246253Y-6274674D02*
X4255777Y-6284198D01*
X4255777Y-6284198D02*
X4265301Y-6303246D01*
X4265301Y-6303246D02*
X4265301Y-6360388D01*
X4265301Y-6360388D02*
X4255777Y-6379436D01*
X4255777Y-6379436D02*
X4246253Y-6388960D01*
X4246253Y-6388960D02*
X4227206Y-6398484D01*
X4227206Y-6398484D02*
X4198634Y-6398484D01*
X4379587Y-6398484D02*
X4360539Y-6388960D01*
X4360539Y-6388960D02*
X4351015Y-6369912D01*
X4351015Y-6369912D02*
X4351015Y-6198484D01*
X4531968Y-6388960D02*
X4512920Y-6398484D01*
X4512920Y-6398484D02*
X4474825Y-6398484D01*
X4474825Y-6398484D02*
X4455777Y-6388960D01*
X4455777Y-6388960D02*
X4446253Y-6369912D01*
X4446253Y-6369912D02*
X4446253Y-6293722D01*
X4446253Y-6293722D02*
X4455777Y-6274674D01*
X4455777Y-6274674D02*
X4474825Y-6265150D01*
X4474825Y-6265150D02*
X4512920Y-6265150D01*
X4512920Y-6265150D02*
X4531968Y-6274674D01*
X4531968Y-6274674D02*
X4541492Y-6293722D01*
X4541492Y-6293722D02*
X4541492Y-6312769D01*
X4541492Y-6312769D02*
X4446253Y-6331817D01*
X4617682Y-6388960D02*
X4636730Y-6398484D01*
X4636730Y-6398484D02*
X4674825Y-6398484D01*
X4674825Y-6398484D02*
X4693873Y-6388960D01*
X4693873Y-6388960D02*
X4703396Y-6369912D01*
X4703396Y-6369912D02*
X4703396Y-6360388D01*
X4703396Y-6360388D02*
X4693873Y-6341341D01*
X4693873Y-6341341D02*
X4674825Y-6331817D01*
X4674825Y-6331817D02*
X4646253Y-6331817D01*
X4646253Y-6331817D02*
X4627206Y-6322293D01*
X4627206Y-6322293D02*
X4617682Y-6303246D01*
X4617682Y-6303246D02*
X4617682Y-6293722D01*
X4617682Y-6293722D02*
X4627206Y-6274674D01*
X4627206Y-6274674D02*
X4646253Y-6265150D01*
X4646253Y-6265150D02*
X4674825Y-6265150D01*
X4674825Y-6265150D02*
X4693873Y-6274674D01*
X4770063Y-6474674D02*
X4779587Y-6465150D01*
X4779587Y-6465150D02*
X4798634Y-6436579D01*
X4798634Y-6436579D02*
X4808158Y-6417531D01*
X4808158Y-6417531D02*
X4817682Y-6388960D01*
X4817682Y-6388960D02*
X4827206Y-6341341D01*
X4827206Y-6341341D02*
X4827206Y-6303246D01*
X4827206Y-6303246D02*
X4817682Y-6255627D01*
X4817682Y-6255627D02*
X4808158Y-6227055D01*
X4808158Y-6227055D02*
X4798634Y-6208008D01*
X4798634Y-6208008D02*
X4779587Y-6179436D01*
X4779587Y-6179436D02*
X4770063Y-6169912D01*
D10*
X-47500Y-6528500D02*
X-47500Y-6613500D01*
X-90000Y-6571000D02*
X-5000Y-6571000D01*
D11*
X293872Y-6462484D02*
X312920Y-6462484D01*
X312920Y-6462484D02*
X331967Y-6472008D01*
X331967Y-6472008D02*
X341491Y-6481531D01*
X341491Y-6481531D02*
X351015Y-6500579D01*
X351015Y-6500579D02*
X360539Y-6538674D01*
X360539Y-6538674D02*
X360539Y-6586293D01*
X360539Y-6586293D02*
X351015Y-6624388D01*
X351015Y-6624388D02*
X341491Y-6643436D01*
X341491Y-6643436D02*
X331967Y-6652960D01*
X331967Y-6652960D02*
X312920Y-6662484D01*
X312920Y-6662484D02*
X293872Y-6662484D01*
X293872Y-6662484D02*
X274824Y-6652960D01*
X274824Y-6652960D02*
X265301Y-6643436D01*
X265301Y-6643436D02*
X255777Y-6624388D01*
X255777Y-6624388D02*
X246253Y-6586293D01*
X246253Y-6586293D02*
X246253Y-6538674D01*
X246253Y-6538674D02*
X255777Y-6500579D01*
X255777Y-6500579D02*
X265301Y-6481531D01*
X265301Y-6481531D02*
X274824Y-6472008D01*
X274824Y-6472008D02*
X293872Y-6462484D01*
X446253Y-6643436D02*
X455777Y-6652960D01*
X455777Y-6652960D02*
X446253Y-6662484D01*
X446253Y-6662484D02*
X436729Y-6652960D01*
X436729Y-6652960D02*
X446253Y-6643436D01*
X446253Y-6643436D02*
X446253Y-6662484D01*
X570063Y-6548198D02*
X551015Y-6538674D01*
X551015Y-6538674D02*
X541491Y-6529150D01*
X541491Y-6529150D02*
X531967Y-6510103D01*
X531967Y-6510103D02*
X531967Y-6500579D01*
X531967Y-6500579D02*
X541491Y-6481531D01*
X541491Y-6481531D02*
X551015Y-6472008D01*
X551015Y-6472008D02*
X570063Y-6462484D01*
X570063Y-6462484D02*
X608158Y-6462484D01*
X608158Y-6462484D02*
X627205Y-6472008D01*
X627205Y-6472008D02*
X636729Y-6481531D01*
X636729Y-6481531D02*
X646253Y-6500579D01*
X646253Y-6500579D02*
X646253Y-6510103D01*
X646253Y-6510103D02*
X636729Y-6529150D01*
X636729Y-6529150D02*
X627205Y-6538674D01*
X627205Y-6538674D02*
X608158Y-6548198D01*
X608158Y-6548198D02*
X570063Y-6548198D01*
X570063Y-6548198D02*
X551015Y-6557722D01*
X551015Y-6557722D02*
X541491Y-6567246D01*
X541491Y-6567246D02*
X531967Y-6586293D01*
X531967Y-6586293D02*
X531967Y-6624388D01*
X531967Y-6624388D02*
X541491Y-6643436D01*
X541491Y-6643436D02*
X551015Y-6652960D01*
X551015Y-6652960D02*
X570063Y-6662484D01*
X570063Y-6662484D02*
X608158Y-6662484D01*
X608158Y-6662484D02*
X627205Y-6652960D01*
X627205Y-6652960D02*
X636729Y-6643436D01*
X636729Y-6643436D02*
X646253Y-6624388D01*
X646253Y-6624388D02*
X646253Y-6586293D01*
X646253Y-6586293D02*
X636729Y-6567246D01*
X636729Y-6567246D02*
X627205Y-6557722D01*
X627205Y-6557722D02*
X608158Y-6548198D01*
X827205Y-6462484D02*
X731967Y-6462484D01*
X731967Y-6462484D02*
X722443Y-6557722D01*
X722443Y-6557722D02*
X731967Y-6548198D01*
X731967Y-6548198D02*
X751015Y-6538674D01*
X751015Y-6538674D02*
X798634Y-6538674D01*
X798634Y-6538674D02*
X817682Y-6548198D01*
X817682Y-6548198D02*
X827205Y-6557722D01*
X827205Y-6557722D02*
X836729Y-6576769D01*
X836729Y-6576769D02*
X836729Y-6624388D01*
X836729Y-6624388D02*
X827205Y-6643436D01*
X827205Y-6643436D02*
X817682Y-6652960D01*
X817682Y-6652960D02*
X798634Y-6662484D01*
X798634Y-6662484D02*
X751015Y-6662484D01*
X751015Y-6662484D02*
X731967Y-6652960D01*
X731967Y-6652960D02*
X722443Y-6643436D01*
X960539Y-6462484D02*
X979586Y-6462484D01*
X979586Y-6462484D02*
X998634Y-6472008D01*
X998634Y-6472008D02*
X1008158Y-6481531D01*
X1008158Y-6481531D02*
X1017682Y-6500579D01*
X1017682Y-6500579D02*
X1027205Y-6538674D01*
X1027205Y-6538674D02*
X1027205Y-6586293D01*
X1027205Y-6586293D02*
X1017682Y-6624388D01*
X1017682Y-6624388D02*
X1008158Y-6643436D01*
X1008158Y-6643436D02*
X998634Y-6652960D01*
X998634Y-6652960D02*
X979586Y-6662484D01*
X979586Y-6662484D02*
X960539Y-6662484D01*
X960539Y-6662484D02*
X941491Y-6652960D01*
X941491Y-6652960D02*
X931967Y-6643436D01*
X931967Y-6643436D02*
X922443Y-6624388D01*
X922443Y-6624388D02*
X912920Y-6586293D01*
X912920Y-6586293D02*
X912920Y-6538674D01*
X912920Y-6538674D02*
X922443Y-6500579D01*
X922443Y-6500579D02*
X931967Y-6481531D01*
X931967Y-6481531D02*
X941491Y-6472008D01*
X941491Y-6472008D02*
X960539Y-6462484D01*
X1112920Y-6662484D02*
X1112920Y-6529150D01*
X1112920Y-6548198D02*
X1122444Y-6538674D01*
X1122444Y-6538674D02*
X1141491Y-6529150D01*
X1141491Y-6529150D02*
X1170063Y-6529150D01*
X1170063Y-6529150D02*
X1189110Y-6538674D01*
X1189110Y-6538674D02*
X1198634Y-6557722D01*
X1198634Y-6557722D02*
X1198634Y-6662484D01*
X1198634Y-6557722D02*
X1208158Y-6538674D01*
X1208158Y-6538674D02*
X1227205Y-6529150D01*
X1227205Y-6529150D02*
X1255777Y-6529150D01*
X1255777Y-6529150D02*
X1274825Y-6538674D01*
X1274825Y-6538674D02*
X1284348Y-6557722D01*
X1284348Y-6557722D02*
X1284348Y-6662484D01*
X1379586Y-6662484D02*
X1379586Y-6529150D01*
X1379586Y-6548198D02*
X1389110Y-6538674D01*
X1389110Y-6538674D02*
X1408158Y-6529150D01*
X1408158Y-6529150D02*
X1436729Y-6529150D01*
X1436729Y-6529150D02*
X1455777Y-6538674D01*
X1455777Y-6538674D02*
X1465301Y-6557722D01*
X1465301Y-6557722D02*
X1465301Y-6662484D01*
X1465301Y-6557722D02*
X1474824Y-6538674D01*
X1474824Y-6538674D02*
X1493872Y-6529150D01*
X1493872Y-6529150D02*
X1522443Y-6529150D01*
X1522443Y-6529150D02*
X1541491Y-6538674D01*
X1541491Y-6538674D02*
X1551015Y-6557722D01*
X1551015Y-6557722D02*
X1551015Y-6662484D01*
X1941491Y-6452960D02*
X1770063Y-6710103D01*
X2198634Y-6462484D02*
X2217682Y-6462484D01*
X2217682Y-6462484D02*
X2236729Y-6472008D01*
X2236729Y-6472008D02*
X2246253Y-6481531D01*
X2246253Y-6481531D02*
X2255777Y-6500579D01*
X2255777Y-6500579D02*
X2265301Y-6538674D01*
X2265301Y-6538674D02*
X2265301Y-6586293D01*
X2265301Y-6586293D02*
X2255777Y-6624388D01*
X2255777Y-6624388D02*
X2246253Y-6643436D01*
X2246253Y-6643436D02*
X2236729Y-6652960D01*
X2236729Y-6652960D02*
X2217682Y-6662484D01*
X2217682Y-6662484D02*
X2198634Y-6662484D01*
X2198634Y-6662484D02*
X2179587Y-6652960D01*
X2179587Y-6652960D02*
X2170063Y-6643436D01*
X2170063Y-6643436D02*
X2160539Y-6624388D01*
X2160539Y-6624388D02*
X2151015Y-6586293D01*
X2151015Y-6586293D02*
X2151015Y-6538674D01*
X2151015Y-6538674D02*
X2160539Y-6500579D01*
X2160539Y-6500579D02*
X2170063Y-6481531D01*
X2170063Y-6481531D02*
X2179587Y-6472008D01*
X2179587Y-6472008D02*
X2198634Y-6462484D01*
X2351015Y-6643436D02*
X2360539Y-6652960D01*
X2360539Y-6652960D02*
X2351015Y-6662484D01*
X2351015Y-6662484D02*
X2341491Y-6652960D01*
X2341491Y-6652960D02*
X2351015Y-6643436D01*
X2351015Y-6643436D02*
X2351015Y-6662484D01*
X2484348Y-6462484D02*
X2503396Y-6462484D01*
X2503396Y-6462484D02*
X2522444Y-6472008D01*
X2522444Y-6472008D02*
X2531968Y-6481531D01*
X2531968Y-6481531D02*
X2541491Y-6500579D01*
X2541491Y-6500579D02*
X2551015Y-6538674D01*
X2551015Y-6538674D02*
X2551015Y-6586293D01*
X2551015Y-6586293D02*
X2541491Y-6624388D01*
X2541491Y-6624388D02*
X2531968Y-6643436D01*
X2531968Y-6643436D02*
X2522444Y-6652960D01*
X2522444Y-6652960D02*
X2503396Y-6662484D01*
X2503396Y-6662484D02*
X2484348Y-6662484D01*
X2484348Y-6662484D02*
X2465301Y-6652960D01*
X2465301Y-6652960D02*
X2455777Y-6643436D01*
X2455777Y-6643436D02*
X2446253Y-6624388D01*
X2446253Y-6624388D02*
X2436729Y-6586293D01*
X2436729Y-6586293D02*
X2436729Y-6538674D01*
X2436729Y-6538674D02*
X2446253Y-6500579D01*
X2446253Y-6500579D02*
X2455777Y-6481531D01*
X2455777Y-6481531D02*
X2465301Y-6472008D01*
X2465301Y-6472008D02*
X2484348Y-6462484D01*
X2617682Y-6462484D02*
X2741491Y-6462484D01*
X2741491Y-6462484D02*
X2674825Y-6538674D01*
X2674825Y-6538674D02*
X2703396Y-6538674D01*
X2703396Y-6538674D02*
X2722444Y-6548198D01*
X2722444Y-6548198D02*
X2731968Y-6557722D01*
X2731968Y-6557722D02*
X2741491Y-6576769D01*
X2741491Y-6576769D02*
X2741491Y-6624388D01*
X2741491Y-6624388D02*
X2731968Y-6643436D01*
X2731968Y-6643436D02*
X2722444Y-6652960D01*
X2722444Y-6652960D02*
X2703396Y-6662484D01*
X2703396Y-6662484D02*
X2646253Y-6662484D01*
X2646253Y-6662484D02*
X2627206Y-6652960D01*
X2627206Y-6652960D02*
X2617682Y-6643436D01*
X2808158Y-6462484D02*
X2931967Y-6462484D01*
X2931967Y-6462484D02*
X2865301Y-6538674D01*
X2865301Y-6538674D02*
X2893872Y-6538674D01*
X2893872Y-6538674D02*
X2912920Y-6548198D01*
X2912920Y-6548198D02*
X2922444Y-6557722D01*
X2922444Y-6557722D02*
X2931967Y-6576769D01*
X2931967Y-6576769D02*
X2931967Y-6624388D01*
X2931967Y-6624388D02*
X2922444Y-6643436D01*
X2922444Y-6643436D02*
X2912920Y-6652960D01*
X2912920Y-6652960D02*
X2893872Y-6662484D01*
X2893872Y-6662484D02*
X2836729Y-6662484D01*
X2836729Y-6662484D02*
X2817682Y-6652960D01*
X2817682Y-6652960D02*
X2808158Y-6643436D01*
X3112920Y-6462484D02*
X3017682Y-6462484D01*
X3017682Y-6462484D02*
X3008158Y-6557722D01*
X3008158Y-6557722D02*
X3017682Y-6548198D01*
X3017682Y-6548198D02*
X3036729Y-6538674D01*
X3036729Y-6538674D02*
X3084348Y-6538674D01*
X3084348Y-6538674D02*
X3103396Y-6548198D01*
X3103396Y-6548198D02*
X3112920Y-6557722D01*
X3112920Y-6557722D02*
X3122444Y-6576769D01*
X3122444Y-6576769D02*
X3122444Y-6624388D01*
X3122444Y-6624388D02*
X3112920Y-6643436D01*
X3112920Y-6643436D02*
X3103396Y-6652960D01*
X3103396Y-6652960D02*
X3084348Y-6662484D01*
X3084348Y-6662484D02*
X3036729Y-6662484D01*
X3036729Y-6662484D02*
X3017682Y-6652960D01*
X3017682Y-6652960D02*
X3008158Y-6643436D01*
X3198634Y-6462484D02*
X3198634Y-6500579D01*
X3274825Y-6462484D02*
X3274825Y-6500579D01*
X3570063Y-6738674D02*
X3560539Y-6729150D01*
X3560539Y-6729150D02*
X3541491Y-6700579D01*
X3541491Y-6700579D02*
X3531968Y-6681531D01*
X3531968Y-6681531D02*
X3522444Y-6652960D01*
X3522444Y-6652960D02*
X3512920Y-6605341D01*
X3512920Y-6605341D02*
X3512920Y-6567246D01*
X3512920Y-6567246D02*
X3522444Y-6519627D01*
X3522444Y-6519627D02*
X3531968Y-6491055D01*
X3531968Y-6491055D02*
X3541491Y-6472008D01*
X3541491Y-6472008D02*
X3560539Y-6443436D01*
X3560539Y-6443436D02*
X3570063Y-6433912D01*
X3636729Y-6481531D02*
X3646253Y-6472008D01*
X3646253Y-6472008D02*
X3665301Y-6462484D01*
X3665301Y-6462484D02*
X3712920Y-6462484D01*
X3712920Y-6462484D02*
X3731968Y-6472008D01*
X3731968Y-6472008D02*
X3741491Y-6481531D01*
X3741491Y-6481531D02*
X3751015Y-6500579D01*
X3751015Y-6500579D02*
X3751015Y-6519627D01*
X3751015Y-6519627D02*
X3741491Y-6548198D01*
X3741491Y-6548198D02*
X3627206Y-6662484D01*
X3627206Y-6662484D02*
X3751015Y-6662484D01*
X3989110Y-6662484D02*
X3989110Y-6462484D01*
X4074825Y-6662484D02*
X4074825Y-6557722D01*
X4074825Y-6557722D02*
X4065301Y-6538674D01*
X4065301Y-6538674D02*
X4046253Y-6529150D01*
X4046253Y-6529150D02*
X4017682Y-6529150D01*
X4017682Y-6529150D02*
X3998634Y-6538674D01*
X3998634Y-6538674D02*
X3989110Y-6548198D01*
X4198634Y-6662484D02*
X4179587Y-6652960D01*
X4179587Y-6652960D02*
X4170063Y-6643436D01*
X4170063Y-6643436D02*
X4160539Y-6624388D01*
X4160539Y-6624388D02*
X4160539Y-6567246D01*
X4160539Y-6567246D02*
X4170063Y-6548198D01*
X4170063Y-6548198D02*
X4179587Y-6538674D01*
X4179587Y-6538674D02*
X4198634Y-6529150D01*
X4198634Y-6529150D02*
X4227206Y-6529150D01*
X4227206Y-6529150D02*
X4246253Y-6538674D01*
X4246253Y-6538674D02*
X4255777Y-6548198D01*
X4255777Y-6548198D02*
X4265301Y-6567246D01*
X4265301Y-6567246D02*
X4265301Y-6624388D01*
X4265301Y-6624388D02*
X4255777Y-6643436D01*
X4255777Y-6643436D02*
X4246253Y-6652960D01*
X4246253Y-6652960D02*
X4227206Y-6662484D01*
X4227206Y-6662484D02*
X4198634Y-6662484D01*
X4379587Y-6662484D02*
X4360539Y-6652960D01*
X4360539Y-6652960D02*
X4351015Y-6633912D01*
X4351015Y-6633912D02*
X4351015Y-6462484D01*
X4531968Y-6652960D02*
X4512920Y-6662484D01*
X4512920Y-6662484D02*
X4474825Y-6662484D01*
X4474825Y-6662484D02*
X4455777Y-6652960D01*
X4455777Y-6652960D02*
X4446253Y-6633912D01*
X4446253Y-6633912D02*
X4446253Y-6557722D01*
X4446253Y-6557722D02*
X4455777Y-6538674D01*
X4455777Y-6538674D02*
X4474825Y-6529150D01*
X4474825Y-6529150D02*
X4512920Y-6529150D01*
X4512920Y-6529150D02*
X4531968Y-6538674D01*
X4531968Y-6538674D02*
X4541492Y-6557722D01*
X4541492Y-6557722D02*
X4541492Y-6576769D01*
X4541492Y-6576769D02*
X4446253Y-6595817D01*
X4617682Y-6652960D02*
X4636730Y-6662484D01*
X4636730Y-6662484D02*
X4674825Y-6662484D01*
X4674825Y-6662484D02*
X4693873Y-6652960D01*
X4693873Y-6652960D02*
X4703396Y-6633912D01*
X4703396Y-6633912D02*
X4703396Y-6624388D01*
X4703396Y-6624388D02*
X4693873Y-6605341D01*
X4693873Y-6605341D02*
X4674825Y-6595817D01*
X4674825Y-6595817D02*
X4646253Y-6595817D01*
X4646253Y-6595817D02*
X4627206Y-6586293D01*
X4627206Y-6586293D02*
X4617682Y-6567246D01*
X4617682Y-6567246D02*
X4617682Y-6557722D01*
X4617682Y-6557722D02*
X4627206Y-6538674D01*
X4627206Y-6538674D02*
X4646253Y-6529150D01*
X4646253Y-6529150D02*
X4674825Y-6529150D01*
X4674825Y-6529150D02*
X4693873Y-6538674D01*
X4770063Y-6738674D02*
X4779587Y-6729150D01*
X4779587Y-6729150D02*
X4798634Y-6700579D01*
X4798634Y-6700579D02*
X4808158Y-6681531D01*
X4808158Y-6681531D02*
X4817682Y-6652960D01*
X4817682Y-6652960D02*
X4827206Y-6605341D01*
X4827206Y-6605341D02*
X4827206Y-6567246D01*
X4827206Y-6567246D02*
X4817682Y-6519627D01*
X4817682Y-6519627D02*
X4808158Y-6491055D01*
X4808158Y-6491055D02*
X4798634Y-6472008D01*
X4798634Y-6472008D02*
X4779587Y-6443436D01*
X4779587Y-6443436D02*
X4770063Y-6433912D01*
X5131968Y-6738674D02*
X5122444Y-6729150D01*
X5122444Y-6729150D02*
X5103396Y-6700579D01*
X5103396Y-6700579D02*
X5093873Y-6681531D01*
X5093873Y-6681531D02*
X5084349Y-6652960D01*
X5084349Y-6652960D02*
X5074825Y-6605341D01*
X5074825Y-6605341D02*
X5074825Y-6567246D01*
X5074825Y-6567246D02*
X5084349Y-6519627D01*
X5084349Y-6519627D02*
X5093873Y-6491055D01*
X5093873Y-6491055D02*
X5103396Y-6472008D01*
X5103396Y-6472008D02*
X5122444Y-6443436D01*
X5122444Y-6443436D02*
X5131968Y-6433912D01*
X5208158Y-6529150D02*
X5208158Y-6662484D01*
X5208158Y-6548198D02*
X5217682Y-6538674D01*
X5217682Y-6538674D02*
X5236730Y-6529150D01*
X5236730Y-6529150D02*
X5265301Y-6529150D01*
X5265301Y-6529150D02*
X5284349Y-6538674D01*
X5284349Y-6538674D02*
X5293873Y-6557722D01*
X5293873Y-6557722D02*
X5293873Y-6662484D01*
X5417682Y-6662484D02*
X5398634Y-6652960D01*
X5398634Y-6652960D02*
X5389111Y-6643436D01*
X5389111Y-6643436D02*
X5379587Y-6624388D01*
X5379587Y-6624388D02*
X5379587Y-6567246D01*
X5379587Y-6567246D02*
X5389111Y-6548198D01*
X5389111Y-6548198D02*
X5398634Y-6538674D01*
X5398634Y-6538674D02*
X5417682Y-6529150D01*
X5417682Y-6529150D02*
X5446254Y-6529150D01*
X5446254Y-6529150D02*
X5465301Y-6538674D01*
X5465301Y-6538674D02*
X5474825Y-6548198D01*
X5474825Y-6548198D02*
X5484349Y-6567246D01*
X5484349Y-6567246D02*
X5484349Y-6624388D01*
X5484349Y-6624388D02*
X5474825Y-6643436D01*
X5474825Y-6643436D02*
X5465301Y-6652960D01*
X5465301Y-6652960D02*
X5446254Y-6662484D01*
X5446254Y-6662484D02*
X5417682Y-6662484D01*
X5541492Y-6529150D02*
X5617682Y-6529150D01*
X5570063Y-6462484D02*
X5570063Y-6633912D01*
X5570063Y-6633912D02*
X5579587Y-6652960D01*
X5579587Y-6652960D02*
X5598634Y-6662484D01*
X5598634Y-6662484D02*
X5617682Y-6662484D01*
X5836730Y-6529150D02*
X5836730Y-6729150D01*
X5836730Y-6538674D02*
X5855777Y-6529150D01*
X5855777Y-6529150D02*
X5893873Y-6529150D01*
X5893873Y-6529150D02*
X5912920Y-6538674D01*
X5912920Y-6538674D02*
X5922444Y-6548198D01*
X5922444Y-6548198D02*
X5931968Y-6567246D01*
X5931968Y-6567246D02*
X5931968Y-6624388D01*
X5931968Y-6624388D02*
X5922444Y-6643436D01*
X5922444Y-6643436D02*
X5912920Y-6652960D01*
X5912920Y-6652960D02*
X5893873Y-6662484D01*
X5893873Y-6662484D02*
X5855777Y-6662484D01*
X5855777Y-6662484D02*
X5836730Y-6652960D01*
X6046253Y-6662484D02*
X6027206Y-6652960D01*
X6027206Y-6652960D02*
X6017682Y-6633912D01*
X6017682Y-6633912D02*
X6017682Y-6462484D01*
X6208158Y-6662484D02*
X6208158Y-6557722D01*
X6208158Y-6557722D02*
X6198634Y-6538674D01*
X6198634Y-6538674D02*
X6179587Y-6529150D01*
X6179587Y-6529150D02*
X6141492Y-6529150D01*
X6141492Y-6529150D02*
X6122444Y-6538674D01*
X6208158Y-6652960D02*
X6189111Y-6662484D01*
X6189111Y-6662484D02*
X6141492Y-6662484D01*
X6141492Y-6662484D02*
X6122444Y-6652960D01*
X6122444Y-6652960D02*
X6112920Y-6633912D01*
X6112920Y-6633912D02*
X6112920Y-6614865D01*
X6112920Y-6614865D02*
X6122444Y-6595817D01*
X6122444Y-6595817D02*
X6141492Y-6586293D01*
X6141492Y-6586293D02*
X6189111Y-6586293D01*
X6189111Y-6586293D02*
X6208158Y-6576769D01*
X6274825Y-6529150D02*
X6351015Y-6529150D01*
X6303396Y-6462484D02*
X6303396Y-6633912D01*
X6303396Y-6633912D02*
X6312920Y-6652960D01*
X6312920Y-6652960D02*
X6331968Y-6662484D01*
X6331968Y-6662484D02*
X6351015Y-6662484D01*
X6493873Y-6652960D02*
X6474825Y-6662484D01*
X6474825Y-6662484D02*
X6436730Y-6662484D01*
X6436730Y-6662484D02*
X6417682Y-6652960D01*
X6417682Y-6652960D02*
X6408158Y-6633912D01*
X6408158Y-6633912D02*
X6408158Y-6557722D01*
X6408158Y-6557722D02*
X6417682Y-6538674D01*
X6417682Y-6538674D02*
X6436730Y-6529150D01*
X6436730Y-6529150D02*
X6474825Y-6529150D01*
X6474825Y-6529150D02*
X6493873Y-6538674D01*
X6493873Y-6538674D02*
X6503396Y-6557722D01*
X6503396Y-6557722D02*
X6503396Y-6576769D01*
X6503396Y-6576769D02*
X6408158Y-6595817D01*
X6674825Y-6662484D02*
X6674825Y-6462484D01*
X6674825Y-6652960D02*
X6655777Y-6662484D01*
X6655777Y-6662484D02*
X6617682Y-6662484D01*
X6617682Y-6662484D02*
X6598634Y-6652960D01*
X6598634Y-6652960D02*
X6589111Y-6643436D01*
X6589111Y-6643436D02*
X6579587Y-6624388D01*
X6579587Y-6624388D02*
X6579587Y-6567246D01*
X6579587Y-6567246D02*
X6589111Y-6548198D01*
X6589111Y-6548198D02*
X6598634Y-6538674D01*
X6598634Y-6538674D02*
X6617682Y-6529150D01*
X6617682Y-6529150D02*
X6655777Y-6529150D01*
X6655777Y-6529150D02*
X6674825Y-6538674D01*
X6751015Y-6738674D02*
X6760539Y-6729150D01*
X6760539Y-6729150D02*
X6779587Y-6700579D01*
X6779587Y-6700579D02*
X6789111Y-6681531D01*
X6789111Y-6681531D02*
X6798634Y-6652960D01*
X6798634Y-6652960D02*
X6808158Y-6605341D01*
X6808158Y-6605341D02*
X6808158Y-6567246D01*
X6808158Y-6567246D02*
X6798634Y-6519627D01*
X6798634Y-6519627D02*
X6789111Y-6491055D01*
X6789111Y-6491055D02*
X6779587Y-6472008D01*
X6779587Y-6472008D02*
X6760539Y-6443436D01*
X6760539Y-6443436D02*
X6751015Y-6433912D01*
M02*
