%TF.GenerationSoftware,KiCad,Pcbnew,10.0.3*%
%TF.CreationDate,2026-08-02T20:19:36-04:00*%
%TF.ProjectId,NeuralCard,4e657572-616c-4436-9172-642e6b696361,rev?*%
%TF.SameCoordinates,Original*%
%TF.FileFunction,Drillmap*%
%TF.FilePolarity,Positive*%
%FSLAX45Y45*%
G04 Gerber Fmt 4.5, Leading zero omitted, Abs format (unit mm)*
G04 Created by KiCad (PCBNEW 10.0.3) date 2026-08-02 20:19:36*
%MOMM*%
%LPD*%
G01*
G04 APERTURE LIST*
%ADD10C,0.100000*%
%ADD11C,0.200000*%
G04 APERTURE END LIST*
D10*
X0Y-318000D02*
G75*
G02*
X318000Y0I318000J0D01*
G01*
X0Y-5080000D02*
X0Y-318000D01*
X318000Y0D02*
X8242000Y0D01*
X318000Y-5398000D02*
G75*
G02*
X0Y-5080000I0J318000D01*
G01*
X8242000Y0D02*
G75*
G02*
X8560000Y-318000I0J-318000D01*
G01*
X8242000Y-5398000D02*
X318000Y-5398000D01*
X8560000Y-318000D02*
X8560000Y-5080000D01*
X8560000Y-5080000D02*
G75*
G02*
X8242000Y-5398000I-318000J0D01*
G01*
D11*
D10*
X245000Y-1185000D02*
X275000Y-1215000D01*
X275000Y-1185000D02*
X245000Y-1215000D01*
X453730Y-997990D02*
X483730Y-1027990D01*
X483730Y-997990D02*
X453730Y-1027990D01*
X480000Y-1411666D02*
X510000Y-1441666D01*
X510000Y-1411666D02*
X480000Y-1441666D01*
X582930Y-849440D02*
X612930Y-879440D01*
X612930Y-849440D02*
X582930Y-879440D01*
X724700Y-844940D02*
X754700Y-874940D01*
X754700Y-844940D02*
X724700Y-874940D01*
X812830Y-937390D02*
X842830Y-967390D01*
X842830Y-937390D02*
X812830Y-967390D01*
X958120Y-909930D02*
X988120Y-939930D01*
X988120Y-909930D02*
X958120Y-939930D01*
X1024020Y-1184090D02*
X1054020Y-1214090D01*
X1054020Y-1184090D02*
X1024020Y-1214090D01*
X1711070Y-810840D02*
X1741070Y-840840D01*
X1741070Y-810840D02*
X1711070Y-840840D01*
X1745101Y-3215274D02*
X1775101Y-3245274D01*
X1775101Y-3215274D02*
X1745101Y-3245274D01*
X1765050Y-937720D02*
X1795050Y-967720D01*
X1795050Y-937720D02*
X1765050Y-967720D01*
X1789880Y-1542880D02*
X1819880Y-1572880D01*
X1819880Y-1542880D02*
X1789880Y-1572880D01*
X1899119Y-3985467D02*
X1929119Y-4015467D01*
X1929119Y-3985467D02*
X1899119Y-4015467D01*
X1923050Y-4318650D02*
X1953050Y-4348650D01*
X1953050Y-4318650D02*
X1923050Y-4348650D01*
X1977740Y-781240D02*
X2007740Y-811240D01*
X2007740Y-781240D02*
X1977740Y-811240D01*
X1994070Y-1171880D02*
X2024070Y-1201880D01*
X2024070Y-1171880D02*
X1994070Y-1201880D01*
X2031820Y-1258160D02*
X2061820Y-1288160D01*
X2061820Y-1258160D02*
X2031820Y-1288160D01*
X2060550Y-1358120D02*
X2090550Y-1388120D01*
X2090550Y-1358120D02*
X2060550Y-1388120D01*
X2104319Y-2431456D02*
X2134319Y-2461456D01*
X2134319Y-2431456D02*
X2104319Y-2461456D01*
X2119070Y-943360D02*
X2149070Y-973360D01*
X2149070Y-943360D02*
X2119070Y-973360D01*
X2180090Y-2018180D02*
X2210090Y-2048180D01*
X2210090Y-2018180D02*
X2180090Y-2048180D01*
X2385000Y-785000D02*
X2415000Y-815000D01*
X2415000Y-785000D02*
X2385000Y-815000D01*
X2450800Y-2138490D02*
X2480800Y-2168490D01*
X2480800Y-2138490D02*
X2450800Y-2168490D01*
X2452340Y-2301370D02*
X2482340Y-2331370D01*
X2482340Y-2301370D02*
X2452340Y-2331370D01*
X2473450Y-422150D02*
X2503450Y-452150D01*
X2503450Y-422150D02*
X2473450Y-452150D01*
X2502760Y-2027490D02*
X2532760Y-2057490D01*
X2532760Y-2027490D02*
X2502760Y-2057490D01*
X2596290Y-1045330D02*
X2626290Y-1075330D01*
X2626290Y-1045330D02*
X2596290Y-1075330D01*
X2682710Y-2143053D02*
X2712710Y-2173053D01*
X2712710Y-2143053D02*
X2682710Y-2173053D01*
X2727631Y-2723054D02*
X2757631Y-2753054D01*
X2757631Y-2723054D02*
X2727631Y-2753054D01*
X2811980Y-1933550D02*
X2841980Y-1963550D01*
X2841980Y-1933550D02*
X2811980Y-1963550D01*
X2845060Y-628090D02*
X2875060Y-658090D01*
X2875060Y-628090D02*
X2845060Y-658090D01*
X2905400Y-1657620D02*
X2935400Y-1687620D01*
X2935400Y-1657620D02*
X2905400Y-1687620D01*
X2993397Y-2051714D02*
X3023397Y-2081714D01*
X3023397Y-2051714D02*
X2993397Y-2081714D01*
X3292040Y-790050D02*
X3322040Y-820050D01*
X3322040Y-790050D02*
X3292040Y-820050D01*
X3361290Y-2893630D02*
X3391290Y-2923630D01*
X3391290Y-2893630D02*
X3361290Y-2923630D01*
X3562710Y-3357210D02*
X3592710Y-3387210D01*
X3592710Y-3357210D02*
X3562710Y-3387210D01*
X3673380Y-3768600D02*
X3703380Y-3798600D01*
X3703380Y-3768600D02*
X3673380Y-3798600D01*
X3673540Y-1000030D02*
X3703540Y-1030030D01*
X3703540Y-1000030D02*
X3673540Y-1030030D01*
X3760802Y-3103901D02*
X3790802Y-3133901D01*
X3790802Y-3103901D02*
X3760802Y-3133901D01*
X3878740Y-1934780D02*
X3908740Y-1964780D01*
X3908740Y-1934780D02*
X3878740Y-1964780D01*
X3938700Y-3855000D02*
X3968700Y-3885000D01*
X3968700Y-3855000D02*
X3938700Y-3885000D01*
X3958530Y-4194850D02*
X3988530Y-4224850D01*
X3988530Y-4194850D02*
X3958530Y-4224850D01*
X3966810Y-4107340D02*
X3996810Y-4137340D01*
X3996810Y-4107340D02*
X3966810Y-4137340D01*
X3969250Y-4394940D02*
X3999250Y-4424940D01*
X3999250Y-4394940D02*
X3969250Y-4424940D01*
X4058880Y-1459060D02*
X4088880Y-1489060D01*
X4088880Y-1459060D02*
X4058880Y-1489060D01*
X4148590Y-1691640D02*
X4178590Y-1721640D01*
X4178590Y-1691640D02*
X4148590Y-1721640D01*
X4197420Y-2796780D02*
X4227420Y-2826780D01*
X4227420Y-2796780D02*
X4197420Y-2826780D01*
X4233230Y-458440D02*
X4263230Y-488440D01*
X4263230Y-458440D02*
X4233230Y-488440D01*
X4268710Y-1607270D02*
X4298710Y-1637270D01*
X4298710Y-1607270D02*
X4268710Y-1637270D01*
X4283870Y-1737070D02*
X4313870Y-1767070D01*
X4313870Y-1737070D02*
X4283870Y-1767070D01*
X4285000Y-225000D02*
X4315000Y-255000D01*
X4315000Y-225000D02*
X4285000Y-255000D01*
X4285000Y-5145000D02*
X4315000Y-5175000D01*
X4315000Y-5145000D02*
X4285000Y-5175000D01*
X4321530Y-1166000D02*
X4351530Y-1196000D01*
X4351530Y-1166000D02*
X4321530Y-1196000D01*
X4346440Y-3299940D02*
X4376440Y-3329940D01*
X4376440Y-3299940D02*
X4346440Y-3329940D01*
X4350930Y-3853260D02*
X4380930Y-3883260D01*
X4380930Y-3853260D02*
X4350930Y-3883260D01*
X4399057Y-2587929D02*
X4429057Y-2617929D01*
X4429057Y-2587929D02*
X4399057Y-2617929D01*
X4484260Y-1338308D02*
X4514260Y-1368308D01*
X4514260Y-1338308D02*
X4484260Y-1368308D01*
X4495371Y-4100217D02*
X4525371Y-4130217D01*
X4525371Y-4100217D02*
X4495371Y-4130217D01*
X4504467Y-3314181D02*
X4534467Y-3344181D01*
X4534467Y-3314181D02*
X4504467Y-3344181D01*
X4542050Y-3712810D02*
X4572050Y-3742810D01*
X4572050Y-3712810D02*
X4542050Y-3742810D01*
X4587005Y-1759653D02*
X4617005Y-1789653D01*
X4617005Y-1759653D02*
X4587005Y-1789653D01*
X4590090Y-3795510D02*
X4620090Y-3825510D01*
X4620090Y-3795510D02*
X4590090Y-3825510D01*
X4623215Y-4833658D02*
X4653215Y-4863658D01*
X4653215Y-4833658D02*
X4623215Y-4863658D01*
X4785000Y-2685000D02*
X4815000Y-2715000D01*
X4815000Y-2685000D02*
X4785000Y-2715000D01*
X4860097Y-3635753D02*
X4890097Y-3665753D01*
X4890097Y-3635753D02*
X4860097Y-3665753D01*
X4867210Y-3260210D02*
X4897210Y-3290210D01*
X4897210Y-3260210D02*
X4867210Y-3290210D01*
X4875329Y-1388980D02*
X4905329Y-1418980D01*
X4905329Y-1388980D02*
X4875329Y-1418980D01*
X5185000Y-3985000D02*
X5215000Y-4015000D01*
X5215000Y-3985000D02*
X5185000Y-4015000D01*
X5584163Y-1015912D02*
X5614162Y-1045912D01*
X5614162Y-1015912D02*
X5584163Y-1045912D01*
X5584163Y-1296812D02*
X5614162Y-1326812D01*
X5614162Y-1296812D02*
X5584163Y-1326812D01*
X5648986Y-572706D02*
X5678986Y-602706D01*
X5678986Y-572706D02*
X5648986Y-602706D01*
X5708120Y-369020D02*
X5738120Y-399020D01*
X5738120Y-369020D02*
X5708120Y-399020D01*
X6140740Y-3501510D02*
X6170740Y-3531510D01*
X6170740Y-3501510D02*
X6140740Y-3531510D01*
X6228809Y-3113930D02*
X6258809Y-3143930D01*
X6258809Y-3113930D02*
X6228809Y-3143930D01*
X6909920Y-1064750D02*
X6939920Y-1094750D01*
X6939920Y-1064750D02*
X6909920Y-1094750D01*
X6922350Y-3025270D02*
X6952350Y-3055270D01*
X6952350Y-3025270D02*
X6922350Y-3055270D01*
X8285000Y-1185000D02*
X8315000Y-1215000D01*
X8315000Y-1185000D02*
X8285000Y-1215000D01*
X8285000Y-2685000D02*
X8315000Y-2715000D01*
X8315000Y-2685000D02*
X8285000Y-2715000D01*
X8285000Y-5085000D02*
X8315000Y-5115000D01*
X8315000Y-5085000D02*
X8285000Y-5115000D01*
X815000Y-1420000D02*
G75*
G02*
X785000Y-1420000I-15000J0D01*
G01*
X785000Y-1420000D02*
G75*
G02*
X815000Y-1420000I15000J0D01*
G01*
X865000Y-2280000D02*
G75*
G02*
X835000Y-2280000I-15000J0D01*
G01*
X835000Y-2280000D02*
G75*
G02*
X865000Y-2280000I15000J0D01*
G01*
X8145500Y-2607500D02*
X8145500Y-2692500D01*
X8103000Y-2650000D02*
X8188000Y-2650000D01*
X8145500Y-2907500D02*
X8145500Y-2992500D01*
X8103000Y-2950000D02*
X8188000Y-2950000D01*
D11*
X255777Y-5714484D02*
X255777Y-5514484D01*
X255777Y-5514484D02*
X303396Y-5514484D01*
X303396Y-5514484D02*
X331967Y-5524008D01*
X331967Y-5524008D02*
X351015Y-5543055D01*
X351015Y-5543055D02*
X360539Y-5562103D01*
X360539Y-5562103D02*
X370062Y-5600198D01*
X370062Y-5600198D02*
X370062Y-5628769D01*
X370062Y-5628769D02*
X360539Y-5666865D01*
X360539Y-5666865D02*
X351015Y-5685912D01*
X351015Y-5685912D02*
X331967Y-5704960D01*
X331967Y-5704960D02*
X303396Y-5714484D01*
X303396Y-5714484D02*
X255777Y-5714484D01*
X455777Y-5714484D02*
X455777Y-5581150D01*
X455777Y-5619246D02*
X465301Y-5600198D01*
X465301Y-5600198D02*
X474824Y-5590674D01*
X474824Y-5590674D02*
X493872Y-5581150D01*
X493872Y-5581150D02*
X512920Y-5581150D01*
X579586Y-5714484D02*
X579586Y-5581150D01*
X579586Y-5514484D02*
X570063Y-5524008D01*
X570063Y-5524008D02*
X579586Y-5533531D01*
X579586Y-5533531D02*
X589110Y-5524008D01*
X589110Y-5524008D02*
X579586Y-5514484D01*
X579586Y-5514484D02*
X579586Y-5533531D01*
X703396Y-5714484D02*
X684348Y-5704960D01*
X684348Y-5704960D02*
X674824Y-5685912D01*
X674824Y-5685912D02*
X674824Y-5514484D01*
X808158Y-5714484D02*
X789110Y-5704960D01*
X789110Y-5704960D02*
X779586Y-5685912D01*
X779586Y-5685912D02*
X779586Y-5514484D01*
X1036729Y-5714484D02*
X1036729Y-5514484D01*
X1036729Y-5514484D02*
X1103396Y-5657341D01*
X1103396Y-5657341D02*
X1170063Y-5514484D01*
X1170063Y-5514484D02*
X1170063Y-5714484D01*
X1351015Y-5714484D02*
X1351015Y-5609722D01*
X1351015Y-5609722D02*
X1341491Y-5590674D01*
X1341491Y-5590674D02*
X1322444Y-5581150D01*
X1322444Y-5581150D02*
X1284348Y-5581150D01*
X1284348Y-5581150D02*
X1265301Y-5590674D01*
X1351015Y-5704960D02*
X1331967Y-5714484D01*
X1331967Y-5714484D02*
X1284348Y-5714484D01*
X1284348Y-5714484D02*
X1265301Y-5704960D01*
X1265301Y-5704960D02*
X1255777Y-5685912D01*
X1255777Y-5685912D02*
X1255777Y-5666865D01*
X1255777Y-5666865D02*
X1265301Y-5647817D01*
X1265301Y-5647817D02*
X1284348Y-5638293D01*
X1284348Y-5638293D02*
X1331967Y-5638293D01*
X1331967Y-5638293D02*
X1351015Y-5628769D01*
X1446253Y-5581150D02*
X1446253Y-5781150D01*
X1446253Y-5590674D02*
X1465301Y-5581150D01*
X1465301Y-5581150D02*
X1503396Y-5581150D01*
X1503396Y-5581150D02*
X1522443Y-5590674D01*
X1522443Y-5590674D02*
X1531967Y-5600198D01*
X1531967Y-5600198D02*
X1541491Y-5619246D01*
X1541491Y-5619246D02*
X1541491Y-5676388D01*
X1541491Y-5676388D02*
X1531967Y-5695436D01*
X1531967Y-5695436D02*
X1522443Y-5704960D01*
X1522443Y-5704960D02*
X1503396Y-5714484D01*
X1503396Y-5714484D02*
X1465301Y-5714484D01*
X1465301Y-5714484D02*
X1446253Y-5704960D01*
X1627205Y-5695436D02*
X1636729Y-5704960D01*
X1636729Y-5704960D02*
X1627205Y-5714484D01*
X1627205Y-5714484D02*
X1617682Y-5704960D01*
X1617682Y-5704960D02*
X1627205Y-5695436D01*
X1627205Y-5695436D02*
X1627205Y-5714484D01*
X1627205Y-5590674D02*
X1636729Y-5600198D01*
X1636729Y-5600198D02*
X1627205Y-5609722D01*
X1627205Y-5609722D02*
X1617682Y-5600198D01*
X1617682Y-5600198D02*
X1627205Y-5590674D01*
X1627205Y-5590674D02*
X1627205Y-5609722D01*
D10*
X-35000Y-6028000D02*
X-5000Y-6058000D01*
X-5000Y-6028000D02*
X-35000Y-6058000D01*
D11*
X293872Y-5934484D02*
X312920Y-5934484D01*
X312920Y-5934484D02*
X331967Y-5944008D01*
X331967Y-5944008D02*
X341491Y-5953531D01*
X341491Y-5953531D02*
X351015Y-5972579D01*
X351015Y-5972579D02*
X360539Y-6010674D01*
X360539Y-6010674D02*
X360539Y-6058293D01*
X360539Y-6058293D02*
X351015Y-6096388D01*
X351015Y-6096388D02*
X341491Y-6115436D01*
X341491Y-6115436D02*
X331967Y-6124960D01*
X331967Y-6124960D02*
X312920Y-6134484D01*
X312920Y-6134484D02*
X293872Y-6134484D01*
X293872Y-6134484D02*
X274824Y-6124960D01*
X274824Y-6124960D02*
X265301Y-6115436D01*
X265301Y-6115436D02*
X255777Y-6096388D01*
X255777Y-6096388D02*
X246253Y-6058293D01*
X246253Y-6058293D02*
X246253Y-6010674D01*
X246253Y-6010674D02*
X255777Y-5972579D01*
X255777Y-5972579D02*
X265301Y-5953531D01*
X265301Y-5953531D02*
X274824Y-5944008D01*
X274824Y-5944008D02*
X293872Y-5934484D01*
X446253Y-6115436D02*
X455777Y-6124960D01*
X455777Y-6124960D02*
X446253Y-6134484D01*
X446253Y-6134484D02*
X436729Y-6124960D01*
X436729Y-6124960D02*
X446253Y-6115436D01*
X446253Y-6115436D02*
X446253Y-6134484D01*
X522443Y-5934484D02*
X646253Y-5934484D01*
X646253Y-5934484D02*
X579586Y-6010674D01*
X579586Y-6010674D02*
X608158Y-6010674D01*
X608158Y-6010674D02*
X627205Y-6020198D01*
X627205Y-6020198D02*
X636729Y-6029722D01*
X636729Y-6029722D02*
X646253Y-6048769D01*
X646253Y-6048769D02*
X646253Y-6096388D01*
X646253Y-6096388D02*
X636729Y-6115436D01*
X636729Y-6115436D02*
X627205Y-6124960D01*
X627205Y-6124960D02*
X608158Y-6134484D01*
X608158Y-6134484D02*
X551015Y-6134484D01*
X551015Y-6134484D02*
X531967Y-6124960D01*
X531967Y-6124960D02*
X522443Y-6115436D01*
X770062Y-5934484D02*
X789110Y-5934484D01*
X789110Y-5934484D02*
X808158Y-5944008D01*
X808158Y-5944008D02*
X817682Y-5953531D01*
X817682Y-5953531D02*
X827205Y-5972579D01*
X827205Y-5972579D02*
X836729Y-6010674D01*
X836729Y-6010674D02*
X836729Y-6058293D01*
X836729Y-6058293D02*
X827205Y-6096388D01*
X827205Y-6096388D02*
X817682Y-6115436D01*
X817682Y-6115436D02*
X808158Y-6124960D01*
X808158Y-6124960D02*
X789110Y-6134484D01*
X789110Y-6134484D02*
X770062Y-6134484D01*
X770062Y-6134484D02*
X751015Y-6124960D01*
X751015Y-6124960D02*
X741491Y-6115436D01*
X741491Y-6115436D02*
X731967Y-6096388D01*
X731967Y-6096388D02*
X722443Y-6058293D01*
X722443Y-6058293D02*
X722443Y-6010674D01*
X722443Y-6010674D02*
X731967Y-5972579D01*
X731967Y-5972579D02*
X741491Y-5953531D01*
X741491Y-5953531D02*
X751015Y-5944008D01*
X751015Y-5944008D02*
X770062Y-5934484D01*
X960539Y-5934484D02*
X979586Y-5934484D01*
X979586Y-5934484D02*
X998634Y-5944008D01*
X998634Y-5944008D02*
X1008158Y-5953531D01*
X1008158Y-5953531D02*
X1017682Y-5972579D01*
X1017682Y-5972579D02*
X1027205Y-6010674D01*
X1027205Y-6010674D02*
X1027205Y-6058293D01*
X1027205Y-6058293D02*
X1017682Y-6096388D01*
X1017682Y-6096388D02*
X1008158Y-6115436D01*
X1008158Y-6115436D02*
X998634Y-6124960D01*
X998634Y-6124960D02*
X979586Y-6134484D01*
X979586Y-6134484D02*
X960539Y-6134484D01*
X960539Y-6134484D02*
X941491Y-6124960D01*
X941491Y-6124960D02*
X931967Y-6115436D01*
X931967Y-6115436D02*
X922443Y-6096388D01*
X922443Y-6096388D02*
X912920Y-6058293D01*
X912920Y-6058293D02*
X912920Y-6010674D01*
X912920Y-6010674D02*
X922443Y-5972579D01*
X922443Y-5972579D02*
X931967Y-5953531D01*
X931967Y-5953531D02*
X941491Y-5944008D01*
X941491Y-5944008D02*
X960539Y-5934484D01*
X1112920Y-6134484D02*
X1112920Y-6001150D01*
X1112920Y-6020198D02*
X1122444Y-6010674D01*
X1122444Y-6010674D02*
X1141491Y-6001150D01*
X1141491Y-6001150D02*
X1170063Y-6001150D01*
X1170063Y-6001150D02*
X1189110Y-6010674D01*
X1189110Y-6010674D02*
X1198634Y-6029722D01*
X1198634Y-6029722D02*
X1198634Y-6134484D01*
X1198634Y-6029722D02*
X1208158Y-6010674D01*
X1208158Y-6010674D02*
X1227205Y-6001150D01*
X1227205Y-6001150D02*
X1255777Y-6001150D01*
X1255777Y-6001150D02*
X1274825Y-6010674D01*
X1274825Y-6010674D02*
X1284348Y-6029722D01*
X1284348Y-6029722D02*
X1284348Y-6134484D01*
X1379586Y-6134484D02*
X1379586Y-6001150D01*
X1379586Y-6020198D02*
X1389110Y-6010674D01*
X1389110Y-6010674D02*
X1408158Y-6001150D01*
X1408158Y-6001150D02*
X1436729Y-6001150D01*
X1436729Y-6001150D02*
X1455777Y-6010674D01*
X1455777Y-6010674D02*
X1465301Y-6029722D01*
X1465301Y-6029722D02*
X1465301Y-6134484D01*
X1465301Y-6029722D02*
X1474824Y-6010674D01*
X1474824Y-6010674D02*
X1493872Y-6001150D01*
X1493872Y-6001150D02*
X1522443Y-6001150D01*
X1522443Y-6001150D02*
X1541491Y-6010674D01*
X1541491Y-6010674D02*
X1551015Y-6029722D01*
X1551015Y-6029722D02*
X1551015Y-6134484D01*
X1941491Y-5924960D02*
X1770063Y-6182103D01*
X2198634Y-5934484D02*
X2217682Y-5934484D01*
X2217682Y-5934484D02*
X2236729Y-5944008D01*
X2236729Y-5944008D02*
X2246253Y-5953531D01*
X2246253Y-5953531D02*
X2255777Y-5972579D01*
X2255777Y-5972579D02*
X2265301Y-6010674D01*
X2265301Y-6010674D02*
X2265301Y-6058293D01*
X2265301Y-6058293D02*
X2255777Y-6096388D01*
X2255777Y-6096388D02*
X2246253Y-6115436D01*
X2246253Y-6115436D02*
X2236729Y-6124960D01*
X2236729Y-6124960D02*
X2217682Y-6134484D01*
X2217682Y-6134484D02*
X2198634Y-6134484D01*
X2198634Y-6134484D02*
X2179587Y-6124960D01*
X2179587Y-6124960D02*
X2170063Y-6115436D01*
X2170063Y-6115436D02*
X2160539Y-6096388D01*
X2160539Y-6096388D02*
X2151015Y-6058293D01*
X2151015Y-6058293D02*
X2151015Y-6010674D01*
X2151015Y-6010674D02*
X2160539Y-5972579D01*
X2160539Y-5972579D02*
X2170063Y-5953531D01*
X2170063Y-5953531D02*
X2179587Y-5944008D01*
X2179587Y-5944008D02*
X2198634Y-5934484D01*
X2351015Y-6115436D02*
X2360539Y-6124960D01*
X2360539Y-6124960D02*
X2351015Y-6134484D01*
X2351015Y-6134484D02*
X2341491Y-6124960D01*
X2341491Y-6124960D02*
X2351015Y-6115436D01*
X2351015Y-6115436D02*
X2351015Y-6134484D01*
X2484348Y-5934484D02*
X2503396Y-5934484D01*
X2503396Y-5934484D02*
X2522444Y-5944008D01*
X2522444Y-5944008D02*
X2531968Y-5953531D01*
X2531968Y-5953531D02*
X2541491Y-5972579D01*
X2541491Y-5972579D02*
X2551015Y-6010674D01*
X2551015Y-6010674D02*
X2551015Y-6058293D01*
X2551015Y-6058293D02*
X2541491Y-6096388D01*
X2541491Y-6096388D02*
X2531968Y-6115436D01*
X2531968Y-6115436D02*
X2522444Y-6124960D01*
X2522444Y-6124960D02*
X2503396Y-6134484D01*
X2503396Y-6134484D02*
X2484348Y-6134484D01*
X2484348Y-6134484D02*
X2465301Y-6124960D01*
X2465301Y-6124960D02*
X2455777Y-6115436D01*
X2455777Y-6115436D02*
X2446253Y-6096388D01*
X2446253Y-6096388D02*
X2436729Y-6058293D01*
X2436729Y-6058293D02*
X2436729Y-6010674D01*
X2436729Y-6010674D02*
X2446253Y-5972579D01*
X2446253Y-5972579D02*
X2455777Y-5953531D01*
X2455777Y-5953531D02*
X2465301Y-5944008D01*
X2465301Y-5944008D02*
X2484348Y-5934484D01*
X2741491Y-6134484D02*
X2627206Y-6134484D01*
X2684348Y-6134484D02*
X2684348Y-5934484D01*
X2684348Y-5934484D02*
X2665301Y-5963055D01*
X2665301Y-5963055D02*
X2646253Y-5982103D01*
X2646253Y-5982103D02*
X2627206Y-5991627D01*
X2931967Y-6134484D02*
X2817682Y-6134484D01*
X2874825Y-6134484D02*
X2874825Y-5934484D01*
X2874825Y-5934484D02*
X2855777Y-5963055D01*
X2855777Y-5963055D02*
X2836729Y-5982103D01*
X2836729Y-5982103D02*
X2817682Y-5991627D01*
X3046253Y-6020198D02*
X3027206Y-6010674D01*
X3027206Y-6010674D02*
X3017682Y-6001150D01*
X3017682Y-6001150D02*
X3008158Y-5982103D01*
X3008158Y-5982103D02*
X3008158Y-5972579D01*
X3008158Y-5972579D02*
X3017682Y-5953531D01*
X3017682Y-5953531D02*
X3027206Y-5944008D01*
X3027206Y-5944008D02*
X3046253Y-5934484D01*
X3046253Y-5934484D02*
X3084348Y-5934484D01*
X3084348Y-5934484D02*
X3103396Y-5944008D01*
X3103396Y-5944008D02*
X3112920Y-5953531D01*
X3112920Y-5953531D02*
X3122444Y-5972579D01*
X3122444Y-5972579D02*
X3122444Y-5982103D01*
X3122444Y-5982103D02*
X3112920Y-6001150D01*
X3112920Y-6001150D02*
X3103396Y-6010674D01*
X3103396Y-6010674D02*
X3084348Y-6020198D01*
X3084348Y-6020198D02*
X3046253Y-6020198D01*
X3046253Y-6020198D02*
X3027206Y-6029722D01*
X3027206Y-6029722D02*
X3017682Y-6039246D01*
X3017682Y-6039246D02*
X3008158Y-6058293D01*
X3008158Y-6058293D02*
X3008158Y-6096388D01*
X3008158Y-6096388D02*
X3017682Y-6115436D01*
X3017682Y-6115436D02*
X3027206Y-6124960D01*
X3027206Y-6124960D02*
X3046253Y-6134484D01*
X3046253Y-6134484D02*
X3084348Y-6134484D01*
X3084348Y-6134484D02*
X3103396Y-6124960D01*
X3103396Y-6124960D02*
X3112920Y-6115436D01*
X3112920Y-6115436D02*
X3122444Y-6096388D01*
X3122444Y-6096388D02*
X3122444Y-6058293D01*
X3122444Y-6058293D02*
X3112920Y-6039246D01*
X3112920Y-6039246D02*
X3103396Y-6029722D01*
X3103396Y-6029722D02*
X3084348Y-6020198D01*
X3198634Y-5934484D02*
X3198634Y-5972579D01*
X3274825Y-5934484D02*
X3274825Y-5972579D01*
X3570063Y-6210674D02*
X3560539Y-6201150D01*
X3560539Y-6201150D02*
X3541491Y-6172579D01*
X3541491Y-6172579D02*
X3531968Y-6153531D01*
X3531968Y-6153531D02*
X3522444Y-6124960D01*
X3522444Y-6124960D02*
X3512920Y-6077341D01*
X3512920Y-6077341D02*
X3512920Y-6039246D01*
X3512920Y-6039246D02*
X3522444Y-5991627D01*
X3522444Y-5991627D02*
X3531968Y-5963055D01*
X3531968Y-5963055D02*
X3541491Y-5944008D01*
X3541491Y-5944008D02*
X3560539Y-5915436D01*
X3560539Y-5915436D02*
X3570063Y-5905912D01*
X3627206Y-5934484D02*
X3760539Y-5934484D01*
X3760539Y-5934484D02*
X3674825Y-6134484D01*
X3846253Y-6134484D02*
X3884348Y-6134484D01*
X3884348Y-6134484D02*
X3903396Y-6124960D01*
X3903396Y-6124960D02*
X3912920Y-6115436D01*
X3912920Y-6115436D02*
X3931968Y-6086865D01*
X3931968Y-6086865D02*
X3941491Y-6048769D01*
X3941491Y-6048769D02*
X3941491Y-5972579D01*
X3941491Y-5972579D02*
X3931968Y-5953531D01*
X3931968Y-5953531D02*
X3922444Y-5944008D01*
X3922444Y-5944008D02*
X3903396Y-5934484D01*
X3903396Y-5934484D02*
X3865301Y-5934484D01*
X3865301Y-5934484D02*
X3846253Y-5944008D01*
X3846253Y-5944008D02*
X3836729Y-5953531D01*
X3836729Y-5953531D02*
X3827206Y-5972579D01*
X3827206Y-5972579D02*
X3827206Y-6020198D01*
X3827206Y-6020198D02*
X3836729Y-6039246D01*
X3836729Y-6039246D02*
X3846253Y-6048769D01*
X3846253Y-6048769D02*
X3865301Y-6058293D01*
X3865301Y-6058293D02*
X3903396Y-6058293D01*
X3903396Y-6058293D02*
X3922444Y-6048769D01*
X3922444Y-6048769D02*
X3931968Y-6039246D01*
X3931968Y-6039246D02*
X3941491Y-6020198D01*
X4179587Y-6134484D02*
X4179587Y-5934484D01*
X4265301Y-6134484D02*
X4265301Y-6029722D01*
X4265301Y-6029722D02*
X4255777Y-6010674D01*
X4255777Y-6010674D02*
X4236730Y-6001150D01*
X4236730Y-6001150D02*
X4208158Y-6001150D01*
X4208158Y-6001150D02*
X4189110Y-6010674D01*
X4189110Y-6010674D02*
X4179587Y-6020198D01*
X4389111Y-6134484D02*
X4370063Y-6124960D01*
X4370063Y-6124960D02*
X4360539Y-6115436D01*
X4360539Y-6115436D02*
X4351015Y-6096388D01*
X4351015Y-6096388D02*
X4351015Y-6039246D01*
X4351015Y-6039246D02*
X4360539Y-6020198D01*
X4360539Y-6020198D02*
X4370063Y-6010674D01*
X4370063Y-6010674D02*
X4389111Y-6001150D01*
X4389111Y-6001150D02*
X4417682Y-6001150D01*
X4417682Y-6001150D02*
X4436730Y-6010674D01*
X4436730Y-6010674D02*
X4446253Y-6020198D01*
X4446253Y-6020198D02*
X4455777Y-6039246D01*
X4455777Y-6039246D02*
X4455777Y-6096388D01*
X4455777Y-6096388D02*
X4446253Y-6115436D01*
X4446253Y-6115436D02*
X4436730Y-6124960D01*
X4436730Y-6124960D02*
X4417682Y-6134484D01*
X4417682Y-6134484D02*
X4389111Y-6134484D01*
X4570063Y-6134484D02*
X4551015Y-6124960D01*
X4551015Y-6124960D02*
X4541492Y-6105912D01*
X4541492Y-6105912D02*
X4541492Y-5934484D01*
X4722444Y-6124960D02*
X4703396Y-6134484D01*
X4703396Y-6134484D02*
X4665301Y-6134484D01*
X4665301Y-6134484D02*
X4646253Y-6124960D01*
X4646253Y-6124960D02*
X4636730Y-6105912D01*
X4636730Y-6105912D02*
X4636730Y-6029722D01*
X4636730Y-6029722D02*
X4646253Y-6010674D01*
X4646253Y-6010674D02*
X4665301Y-6001150D01*
X4665301Y-6001150D02*
X4703396Y-6001150D01*
X4703396Y-6001150D02*
X4722444Y-6010674D01*
X4722444Y-6010674D02*
X4731968Y-6029722D01*
X4731968Y-6029722D02*
X4731968Y-6048769D01*
X4731968Y-6048769D02*
X4636730Y-6067817D01*
X4808158Y-6124960D02*
X4827206Y-6134484D01*
X4827206Y-6134484D02*
X4865301Y-6134484D01*
X4865301Y-6134484D02*
X4884349Y-6124960D01*
X4884349Y-6124960D02*
X4893873Y-6105912D01*
X4893873Y-6105912D02*
X4893873Y-6096388D01*
X4893873Y-6096388D02*
X4884349Y-6077341D01*
X4884349Y-6077341D02*
X4865301Y-6067817D01*
X4865301Y-6067817D02*
X4836730Y-6067817D01*
X4836730Y-6067817D02*
X4817682Y-6058293D01*
X4817682Y-6058293D02*
X4808158Y-6039246D01*
X4808158Y-6039246D02*
X4808158Y-6029722D01*
X4808158Y-6029722D02*
X4817682Y-6010674D01*
X4817682Y-6010674D02*
X4836730Y-6001150D01*
X4836730Y-6001150D02*
X4865301Y-6001150D01*
X4865301Y-6001150D02*
X4884349Y-6010674D01*
X4960539Y-6210674D02*
X4970063Y-6201150D01*
X4970063Y-6201150D02*
X4989111Y-6172579D01*
X4989111Y-6172579D02*
X4998634Y-6153531D01*
X4998634Y-6153531D02*
X5008158Y-6124960D01*
X5008158Y-6124960D02*
X5017682Y-6077341D01*
X5017682Y-6077341D02*
X5017682Y-6039246D01*
X5017682Y-6039246D02*
X5008158Y-5991627D01*
X5008158Y-5991627D02*
X4998634Y-5963055D01*
X4998634Y-5963055D02*
X4989111Y-5944008D01*
X4989111Y-5944008D02*
X4970063Y-5915436D01*
X4970063Y-5915436D02*
X4960539Y-5905912D01*
D10*
X-5000Y-6307000D02*
G75*
G02*
X-35000Y-6307000I-15000J0D01*
G01*
X-35000Y-6307000D02*
G75*
G02*
X-5000Y-6307000I15000J0D01*
G01*
D11*
X293872Y-6198484D02*
X312920Y-6198484D01*
X312920Y-6198484D02*
X331967Y-6208008D01*
X331967Y-6208008D02*
X341491Y-6217531D01*
X341491Y-6217531D02*
X351015Y-6236579D01*
X351015Y-6236579D02*
X360539Y-6274674D01*
X360539Y-6274674D02*
X360539Y-6322293D01*
X360539Y-6322293D02*
X351015Y-6360388D01*
X351015Y-6360388D02*
X341491Y-6379436D01*
X341491Y-6379436D02*
X331967Y-6388960D01*
X331967Y-6388960D02*
X312920Y-6398484D01*
X312920Y-6398484D02*
X293872Y-6398484D01*
X293872Y-6398484D02*
X274824Y-6388960D01*
X274824Y-6388960D02*
X265301Y-6379436D01*
X265301Y-6379436D02*
X255777Y-6360388D01*
X255777Y-6360388D02*
X246253Y-6322293D01*
X246253Y-6322293D02*
X246253Y-6274674D01*
X246253Y-6274674D02*
X255777Y-6236579D01*
X255777Y-6236579D02*
X265301Y-6217531D01*
X265301Y-6217531D02*
X274824Y-6208008D01*
X274824Y-6208008D02*
X293872Y-6198484D01*
X446253Y-6379436D02*
X455777Y-6388960D01*
X455777Y-6388960D02*
X446253Y-6398484D01*
X446253Y-6398484D02*
X436729Y-6388960D01*
X436729Y-6388960D02*
X446253Y-6379436D01*
X446253Y-6379436D02*
X446253Y-6398484D01*
X522443Y-6198484D02*
X646253Y-6198484D01*
X646253Y-6198484D02*
X579586Y-6274674D01*
X579586Y-6274674D02*
X608158Y-6274674D01*
X608158Y-6274674D02*
X627205Y-6284198D01*
X627205Y-6284198D02*
X636729Y-6293722D01*
X636729Y-6293722D02*
X646253Y-6312769D01*
X646253Y-6312769D02*
X646253Y-6360388D01*
X646253Y-6360388D02*
X636729Y-6379436D01*
X636729Y-6379436D02*
X627205Y-6388960D01*
X627205Y-6388960D02*
X608158Y-6398484D01*
X608158Y-6398484D02*
X551015Y-6398484D01*
X551015Y-6398484D02*
X531967Y-6388960D01*
X531967Y-6388960D02*
X522443Y-6379436D01*
X770062Y-6198484D02*
X789110Y-6198484D01*
X789110Y-6198484D02*
X808158Y-6208008D01*
X808158Y-6208008D02*
X817682Y-6217531D01*
X817682Y-6217531D02*
X827205Y-6236579D01*
X827205Y-6236579D02*
X836729Y-6274674D01*
X836729Y-6274674D02*
X836729Y-6322293D01*
X836729Y-6322293D02*
X827205Y-6360388D01*
X827205Y-6360388D02*
X817682Y-6379436D01*
X817682Y-6379436D02*
X808158Y-6388960D01*
X808158Y-6388960D02*
X789110Y-6398484D01*
X789110Y-6398484D02*
X770062Y-6398484D01*
X770062Y-6398484D02*
X751015Y-6388960D01*
X751015Y-6388960D02*
X741491Y-6379436D01*
X741491Y-6379436D02*
X731967Y-6360388D01*
X731967Y-6360388D02*
X722443Y-6322293D01*
X722443Y-6322293D02*
X722443Y-6274674D01*
X722443Y-6274674D02*
X731967Y-6236579D01*
X731967Y-6236579D02*
X741491Y-6217531D01*
X741491Y-6217531D02*
X751015Y-6208008D01*
X751015Y-6208008D02*
X770062Y-6198484D01*
X960539Y-6198484D02*
X979586Y-6198484D01*
X979586Y-6198484D02*
X998634Y-6208008D01*
X998634Y-6208008D02*
X1008158Y-6217531D01*
X1008158Y-6217531D02*
X1017682Y-6236579D01*
X1017682Y-6236579D02*
X1027205Y-6274674D01*
X1027205Y-6274674D02*
X1027205Y-6322293D01*
X1027205Y-6322293D02*
X1017682Y-6360388D01*
X1017682Y-6360388D02*
X1008158Y-6379436D01*
X1008158Y-6379436D02*
X998634Y-6388960D01*
X998634Y-6388960D02*
X979586Y-6398484D01*
X979586Y-6398484D02*
X960539Y-6398484D01*
X960539Y-6398484D02*
X941491Y-6388960D01*
X941491Y-6388960D02*
X931967Y-6379436D01*
X931967Y-6379436D02*
X922443Y-6360388D01*
X922443Y-6360388D02*
X912920Y-6322293D01*
X912920Y-6322293D02*
X912920Y-6274674D01*
X912920Y-6274674D02*
X922443Y-6236579D01*
X922443Y-6236579D02*
X931967Y-6217531D01*
X931967Y-6217531D02*
X941491Y-6208008D01*
X941491Y-6208008D02*
X960539Y-6198484D01*
X1112920Y-6398484D02*
X1112920Y-6265150D01*
X1112920Y-6284198D02*
X1122444Y-6274674D01*
X1122444Y-6274674D02*
X1141491Y-6265150D01*
X1141491Y-6265150D02*
X1170063Y-6265150D01*
X1170063Y-6265150D02*
X1189110Y-6274674D01*
X1189110Y-6274674D02*
X1198634Y-6293722D01*
X1198634Y-6293722D02*
X1198634Y-6398484D01*
X1198634Y-6293722D02*
X1208158Y-6274674D01*
X1208158Y-6274674D02*
X1227205Y-6265150D01*
X1227205Y-6265150D02*
X1255777Y-6265150D01*
X1255777Y-6265150D02*
X1274825Y-6274674D01*
X1274825Y-6274674D02*
X1284348Y-6293722D01*
X1284348Y-6293722D02*
X1284348Y-6398484D01*
X1379586Y-6398484D02*
X1379586Y-6265150D01*
X1379586Y-6284198D02*
X1389110Y-6274674D01*
X1389110Y-6274674D02*
X1408158Y-6265150D01*
X1408158Y-6265150D02*
X1436729Y-6265150D01*
X1436729Y-6265150D02*
X1455777Y-6274674D01*
X1455777Y-6274674D02*
X1465301Y-6293722D01*
X1465301Y-6293722D02*
X1465301Y-6398484D01*
X1465301Y-6293722D02*
X1474824Y-6274674D01*
X1474824Y-6274674D02*
X1493872Y-6265150D01*
X1493872Y-6265150D02*
X1522443Y-6265150D01*
X1522443Y-6265150D02*
X1541491Y-6274674D01*
X1541491Y-6274674D02*
X1551015Y-6293722D01*
X1551015Y-6293722D02*
X1551015Y-6398484D01*
X1941491Y-6188960D02*
X1770063Y-6446103D01*
X2198634Y-6198484D02*
X2217682Y-6198484D01*
X2217682Y-6198484D02*
X2236729Y-6208008D01*
X2236729Y-6208008D02*
X2246253Y-6217531D01*
X2246253Y-6217531D02*
X2255777Y-6236579D01*
X2255777Y-6236579D02*
X2265301Y-6274674D01*
X2265301Y-6274674D02*
X2265301Y-6322293D01*
X2265301Y-6322293D02*
X2255777Y-6360388D01*
X2255777Y-6360388D02*
X2246253Y-6379436D01*
X2246253Y-6379436D02*
X2236729Y-6388960D01*
X2236729Y-6388960D02*
X2217682Y-6398484D01*
X2217682Y-6398484D02*
X2198634Y-6398484D01*
X2198634Y-6398484D02*
X2179587Y-6388960D01*
X2179587Y-6388960D02*
X2170063Y-6379436D01*
X2170063Y-6379436D02*
X2160539Y-6360388D01*
X2160539Y-6360388D02*
X2151015Y-6322293D01*
X2151015Y-6322293D02*
X2151015Y-6274674D01*
X2151015Y-6274674D02*
X2160539Y-6236579D01*
X2160539Y-6236579D02*
X2170063Y-6217531D01*
X2170063Y-6217531D02*
X2179587Y-6208008D01*
X2179587Y-6208008D02*
X2198634Y-6198484D01*
X2351015Y-6379436D02*
X2360539Y-6388960D01*
X2360539Y-6388960D02*
X2351015Y-6398484D01*
X2351015Y-6398484D02*
X2341491Y-6388960D01*
X2341491Y-6388960D02*
X2351015Y-6379436D01*
X2351015Y-6379436D02*
X2351015Y-6398484D01*
X2484348Y-6198484D02*
X2503396Y-6198484D01*
X2503396Y-6198484D02*
X2522444Y-6208008D01*
X2522444Y-6208008D02*
X2531968Y-6217531D01*
X2531968Y-6217531D02*
X2541491Y-6236579D01*
X2541491Y-6236579D02*
X2551015Y-6274674D01*
X2551015Y-6274674D02*
X2551015Y-6322293D01*
X2551015Y-6322293D02*
X2541491Y-6360388D01*
X2541491Y-6360388D02*
X2531968Y-6379436D01*
X2531968Y-6379436D02*
X2522444Y-6388960D01*
X2522444Y-6388960D02*
X2503396Y-6398484D01*
X2503396Y-6398484D02*
X2484348Y-6398484D01*
X2484348Y-6398484D02*
X2465301Y-6388960D01*
X2465301Y-6388960D02*
X2455777Y-6379436D01*
X2455777Y-6379436D02*
X2446253Y-6360388D01*
X2446253Y-6360388D02*
X2436729Y-6322293D01*
X2436729Y-6322293D02*
X2436729Y-6274674D01*
X2436729Y-6274674D02*
X2446253Y-6236579D01*
X2446253Y-6236579D02*
X2455777Y-6217531D01*
X2455777Y-6217531D02*
X2465301Y-6208008D01*
X2465301Y-6208008D02*
X2484348Y-6198484D01*
X2741491Y-6398484D02*
X2627206Y-6398484D01*
X2684348Y-6398484D02*
X2684348Y-6198484D01*
X2684348Y-6198484D02*
X2665301Y-6227055D01*
X2665301Y-6227055D02*
X2646253Y-6246103D01*
X2646253Y-6246103D02*
X2627206Y-6255627D01*
X2931967Y-6398484D02*
X2817682Y-6398484D01*
X2874825Y-6398484D02*
X2874825Y-6198484D01*
X2874825Y-6198484D02*
X2855777Y-6227055D01*
X2855777Y-6227055D02*
X2836729Y-6246103D01*
X2836729Y-6246103D02*
X2817682Y-6255627D01*
X3046253Y-6284198D02*
X3027206Y-6274674D01*
X3027206Y-6274674D02*
X3017682Y-6265150D01*
X3017682Y-6265150D02*
X3008158Y-6246103D01*
X3008158Y-6246103D02*
X3008158Y-6236579D01*
X3008158Y-6236579D02*
X3017682Y-6217531D01*
X3017682Y-6217531D02*
X3027206Y-6208008D01*
X3027206Y-6208008D02*
X3046253Y-6198484D01*
X3046253Y-6198484D02*
X3084348Y-6198484D01*
X3084348Y-6198484D02*
X3103396Y-6208008D01*
X3103396Y-6208008D02*
X3112920Y-6217531D01*
X3112920Y-6217531D02*
X3122444Y-6236579D01*
X3122444Y-6236579D02*
X3122444Y-6246103D01*
X3122444Y-6246103D02*
X3112920Y-6265150D01*
X3112920Y-6265150D02*
X3103396Y-6274674D01*
X3103396Y-6274674D02*
X3084348Y-6284198D01*
X3084348Y-6284198D02*
X3046253Y-6284198D01*
X3046253Y-6284198D02*
X3027206Y-6293722D01*
X3027206Y-6293722D02*
X3017682Y-6303246D01*
X3017682Y-6303246D02*
X3008158Y-6322293D01*
X3008158Y-6322293D02*
X3008158Y-6360388D01*
X3008158Y-6360388D02*
X3017682Y-6379436D01*
X3017682Y-6379436D02*
X3027206Y-6388960D01*
X3027206Y-6388960D02*
X3046253Y-6398484D01*
X3046253Y-6398484D02*
X3084348Y-6398484D01*
X3084348Y-6398484D02*
X3103396Y-6388960D01*
X3103396Y-6388960D02*
X3112920Y-6379436D01*
X3112920Y-6379436D02*
X3122444Y-6360388D01*
X3122444Y-6360388D02*
X3122444Y-6322293D01*
X3122444Y-6322293D02*
X3112920Y-6303246D01*
X3112920Y-6303246D02*
X3103396Y-6293722D01*
X3103396Y-6293722D02*
X3084348Y-6284198D01*
X3198634Y-6198484D02*
X3198634Y-6236579D01*
X3274825Y-6198484D02*
X3274825Y-6236579D01*
X3570063Y-6474674D02*
X3560539Y-6465150D01*
X3560539Y-6465150D02*
X3541491Y-6436579D01*
X3541491Y-6436579D02*
X3531968Y-6417531D01*
X3531968Y-6417531D02*
X3522444Y-6388960D01*
X3522444Y-6388960D02*
X3512920Y-6341341D01*
X3512920Y-6341341D02*
X3512920Y-6303246D01*
X3512920Y-6303246D02*
X3522444Y-6255627D01*
X3522444Y-6255627D02*
X3531968Y-6227055D01*
X3531968Y-6227055D02*
X3541491Y-6208008D01*
X3541491Y-6208008D02*
X3560539Y-6179436D01*
X3560539Y-6179436D02*
X3570063Y-6169912D01*
X3636729Y-6217531D02*
X3646253Y-6208008D01*
X3646253Y-6208008D02*
X3665301Y-6198484D01*
X3665301Y-6198484D02*
X3712920Y-6198484D01*
X3712920Y-6198484D02*
X3731968Y-6208008D01*
X3731968Y-6208008D02*
X3741491Y-6217531D01*
X3741491Y-6217531D02*
X3751015Y-6236579D01*
X3751015Y-6236579D02*
X3751015Y-6255627D01*
X3751015Y-6255627D02*
X3741491Y-6284198D01*
X3741491Y-6284198D02*
X3627206Y-6398484D01*
X3627206Y-6398484D02*
X3751015Y-6398484D01*
X3989110Y-6398484D02*
X3989110Y-6198484D01*
X4074825Y-6398484D02*
X4074825Y-6293722D01*
X4074825Y-6293722D02*
X4065301Y-6274674D01*
X4065301Y-6274674D02*
X4046253Y-6265150D01*
X4046253Y-6265150D02*
X4017682Y-6265150D01*
X4017682Y-6265150D02*
X3998634Y-6274674D01*
X3998634Y-6274674D02*
X3989110Y-6284198D01*
X4198634Y-6398484D02*
X4179587Y-6388960D01*
X4179587Y-6388960D02*
X4170063Y-6379436D01*
X4170063Y-6379436D02*
X4160539Y-6360388D01*
X4160539Y-6360388D02*
X4160539Y-6303246D01*
X4160539Y-6303246D02*
X4170063Y-6284198D01*
X4170063Y-6284198D02*
X4179587Y-6274674D01*
X4179587Y-6274674D02*
X4198634Y-6265150D01*
X4198634Y-6265150D02*
X4227206Y-6265150D01*
X4227206Y-6265150D02*
X4246253Y-6274674D01*
X4246253Y-6274674D02*
X4255777Y-6284198D01*
X4255777Y-6284198D02*
X4265301Y-6303246D01*
X4265301Y-6303246D02*
X4265301Y-6360388D01*
X4265301Y-6360388D02*
X4255777Y-6379436D01*
X4255777Y-6379436D02*
X4246253Y-6388960D01*
X4246253Y-6388960D02*
X4227206Y-6398484D01*
X4227206Y-6398484D02*
X4198634Y-6398484D01*
X4379587Y-6398484D02*
X4360539Y-6388960D01*
X4360539Y-6388960D02*
X4351015Y-6369912D01*
X4351015Y-6369912D02*
X4351015Y-6198484D01*
X4531968Y-6388960D02*
X4512920Y-6398484D01*
X4512920Y-6398484D02*
X4474825Y-6398484D01*
X4474825Y-6398484D02*
X4455777Y-6388960D01*
X4455777Y-6388960D02*
X4446253Y-6369912D01*
X4446253Y-6369912D02*
X4446253Y-6293722D01*
X4446253Y-6293722D02*
X4455777Y-6274674D01*
X4455777Y-6274674D02*
X4474825Y-6265150D01*
X4474825Y-6265150D02*
X4512920Y-6265150D01*
X4512920Y-6265150D02*
X4531968Y-6274674D01*
X4531968Y-6274674D02*
X4541492Y-6293722D01*
X4541492Y-6293722D02*
X4541492Y-6312769D01*
X4541492Y-6312769D02*
X4446253Y-6331817D01*
X4617682Y-6388960D02*
X4636730Y-6398484D01*
X4636730Y-6398484D02*
X4674825Y-6398484D01*
X4674825Y-6398484D02*
X4693873Y-6388960D01*
X4693873Y-6388960D02*
X4703396Y-6369912D01*
X4703396Y-6369912D02*
X4703396Y-6360388D01*
X4703396Y-6360388D02*
X4693873Y-6341341D01*
X4693873Y-6341341D02*
X4674825Y-6331817D01*
X4674825Y-6331817D02*
X4646253Y-6331817D01*
X4646253Y-6331817D02*
X4627206Y-6322293D01*
X4627206Y-6322293D02*
X4617682Y-6303246D01*
X4617682Y-6303246D02*
X4617682Y-6293722D01*
X4617682Y-6293722D02*
X4627206Y-6274674D01*
X4627206Y-6274674D02*
X4646253Y-6265150D01*
X4646253Y-6265150D02*
X4674825Y-6265150D01*
X4674825Y-6265150D02*
X4693873Y-6274674D01*
X4770063Y-6474674D02*
X4779587Y-6465150D01*
X4779587Y-6465150D02*
X4798634Y-6436579D01*
X4798634Y-6436579D02*
X4808158Y-6417531D01*
X4808158Y-6417531D02*
X4817682Y-6388960D01*
X4817682Y-6388960D02*
X4827206Y-6341341D01*
X4827206Y-6341341D02*
X4827206Y-6303246D01*
X4827206Y-6303246D02*
X4817682Y-6255627D01*
X4817682Y-6255627D02*
X4808158Y-6227055D01*
X4808158Y-6227055D02*
X4798634Y-6208008D01*
X4798634Y-6208008D02*
X4779587Y-6179436D01*
X4779587Y-6179436D02*
X4770063Y-6169912D01*
D10*
X-47500Y-6528500D02*
X-47500Y-6613500D01*
X-90000Y-6571000D02*
X-5000Y-6571000D01*
D11*
X293872Y-6462484D02*
X312920Y-6462484D01*
X312920Y-6462484D02*
X331967Y-6472008D01*
X331967Y-6472008D02*
X341491Y-6481531D01*
X341491Y-6481531D02*
X351015Y-6500579D01*
X351015Y-6500579D02*
X360539Y-6538674D01*
X360539Y-6538674D02*
X360539Y-6586293D01*
X360539Y-6586293D02*
X351015Y-6624388D01*
X351015Y-6624388D02*
X341491Y-6643436D01*
X341491Y-6643436D02*
X331967Y-6652960D01*
X331967Y-6652960D02*
X312920Y-6662484D01*
X312920Y-6662484D02*
X293872Y-6662484D01*
X293872Y-6662484D02*
X274824Y-6652960D01*
X274824Y-6652960D02*
X265301Y-6643436D01*
X265301Y-6643436D02*
X255777Y-6624388D01*
X255777Y-6624388D02*
X246253Y-6586293D01*
X246253Y-6586293D02*
X246253Y-6538674D01*
X246253Y-6538674D02*
X255777Y-6500579D01*
X255777Y-6500579D02*
X265301Y-6481531D01*
X265301Y-6481531D02*
X274824Y-6472008D01*
X274824Y-6472008D02*
X293872Y-6462484D01*
X446253Y-6643436D02*
X455777Y-6652960D01*
X455777Y-6652960D02*
X446253Y-6662484D01*
X446253Y-6662484D02*
X436729Y-6652960D01*
X436729Y-6652960D02*
X446253Y-6643436D01*
X446253Y-6643436D02*
X446253Y-6662484D01*
X570063Y-6548198D02*
X551015Y-6538674D01*
X551015Y-6538674D02*
X541491Y-6529150D01*
X541491Y-6529150D02*
X531967Y-6510103D01*
X531967Y-6510103D02*
X531967Y-6500579D01*
X531967Y-6500579D02*
X541491Y-6481531D01*
X541491Y-6481531D02*
X551015Y-6472008D01*
X551015Y-6472008D02*
X570063Y-6462484D01*
X570063Y-6462484D02*
X608158Y-6462484D01*
X608158Y-6462484D02*
X627205Y-6472008D01*
X627205Y-6472008D02*
X636729Y-6481531D01*
X636729Y-6481531D02*
X646253Y-6500579D01*
X646253Y-6500579D02*
X646253Y-6510103D01*
X646253Y-6510103D02*
X636729Y-6529150D01*
X636729Y-6529150D02*
X627205Y-6538674D01*
X627205Y-6538674D02*
X608158Y-6548198D01*
X608158Y-6548198D02*
X570063Y-6548198D01*
X570063Y-6548198D02*
X551015Y-6557722D01*
X551015Y-6557722D02*
X541491Y-6567246D01*
X541491Y-6567246D02*
X531967Y-6586293D01*
X531967Y-6586293D02*
X531967Y-6624388D01*
X531967Y-6624388D02*
X541491Y-6643436D01*
X541491Y-6643436D02*
X551015Y-6652960D01*
X551015Y-6652960D02*
X570063Y-6662484D01*
X570063Y-6662484D02*
X608158Y-6662484D01*
X608158Y-6662484D02*
X627205Y-6652960D01*
X627205Y-6652960D02*
X636729Y-6643436D01*
X636729Y-6643436D02*
X646253Y-6624388D01*
X646253Y-6624388D02*
X646253Y-6586293D01*
X646253Y-6586293D02*
X636729Y-6567246D01*
X636729Y-6567246D02*
X627205Y-6557722D01*
X627205Y-6557722D02*
X608158Y-6548198D01*
X827205Y-6462484D02*
X731967Y-6462484D01*
X731967Y-6462484D02*
X722443Y-6557722D01*
X722443Y-6557722D02*
X731967Y-6548198D01*
X731967Y-6548198D02*
X751015Y-6538674D01*
X751015Y-6538674D02*
X798634Y-6538674D01*
X798634Y-6538674D02*
X817682Y-6548198D01*
X817682Y-6548198D02*
X827205Y-6557722D01*
X827205Y-6557722D02*
X836729Y-6576769D01*
X836729Y-6576769D02*
X836729Y-6624388D01*
X836729Y-6624388D02*
X827205Y-6643436D01*
X827205Y-6643436D02*
X817682Y-6652960D01*
X817682Y-6652960D02*
X798634Y-6662484D01*
X798634Y-6662484D02*
X751015Y-6662484D01*
X751015Y-6662484D02*
X731967Y-6652960D01*
X731967Y-6652960D02*
X722443Y-6643436D01*
X960539Y-6462484D02*
X979586Y-6462484D01*
X979586Y-6462484D02*
X998634Y-6472008D01*
X998634Y-6472008D02*
X1008158Y-6481531D01*
X1008158Y-6481531D02*
X1017682Y-6500579D01*
X1017682Y-6500579D02*
X1027205Y-6538674D01*
X1027205Y-6538674D02*
X1027205Y-6586293D01*
X1027205Y-6586293D02*
X1017682Y-6624388D01*
X1017682Y-6624388D02*
X1008158Y-6643436D01*
X1008158Y-6643436D02*
X998634Y-6652960D01*
X998634Y-6652960D02*
X979586Y-6662484D01*
X979586Y-6662484D02*
X960539Y-6662484D01*
X960539Y-6662484D02*
X941491Y-6652960D01*
X941491Y-6652960D02*
X931967Y-6643436D01*
X931967Y-6643436D02*
X922443Y-6624388D01*
X922443Y-6624388D02*
X912920Y-6586293D01*
X912920Y-6586293D02*
X912920Y-6538674D01*
X912920Y-6538674D02*
X922443Y-6500579D01*
X922443Y-6500579D02*
X931967Y-6481531D01*
X931967Y-6481531D02*
X941491Y-6472008D01*
X941491Y-6472008D02*
X960539Y-6462484D01*
X1112920Y-6662484D02*
X1112920Y-6529150D01*
X1112920Y-6548198D02*
X1122444Y-6538674D01*
X1122444Y-6538674D02*
X1141491Y-6529150D01*
X1141491Y-6529150D02*
X1170063Y-6529150D01*
X1170063Y-6529150D02*
X1189110Y-6538674D01*
X1189110Y-6538674D02*
X1198634Y-6557722D01*
X1198634Y-6557722D02*
X1198634Y-6662484D01*
X1198634Y-6557722D02*
X1208158Y-6538674D01*
X1208158Y-6538674D02*
X1227205Y-6529150D01*
X1227205Y-6529150D02*
X1255777Y-6529150D01*
X1255777Y-6529150D02*
X1274825Y-6538674D01*
X1274825Y-6538674D02*
X1284348Y-6557722D01*
X1284348Y-6557722D02*
X1284348Y-6662484D01*
X1379586Y-6662484D02*
X1379586Y-6529150D01*
X1379586Y-6548198D02*
X1389110Y-6538674D01*
X1389110Y-6538674D02*
X1408158Y-6529150D01*
X1408158Y-6529150D02*
X1436729Y-6529150D01*
X1436729Y-6529150D02*
X1455777Y-6538674D01*
X1455777Y-6538674D02*
X1465301Y-6557722D01*
X1465301Y-6557722D02*
X1465301Y-6662484D01*
X1465301Y-6557722D02*
X1474824Y-6538674D01*
X1474824Y-6538674D02*
X1493872Y-6529150D01*
X1493872Y-6529150D02*
X1522443Y-6529150D01*
X1522443Y-6529150D02*
X1541491Y-6538674D01*
X1541491Y-6538674D02*
X1551015Y-6557722D01*
X1551015Y-6557722D02*
X1551015Y-6662484D01*
X1941491Y-6452960D02*
X1770063Y-6710103D01*
X2198634Y-6462484D02*
X2217682Y-6462484D01*
X2217682Y-6462484D02*
X2236729Y-6472008D01*
X2236729Y-6472008D02*
X2246253Y-6481531D01*
X2246253Y-6481531D02*
X2255777Y-6500579D01*
X2255777Y-6500579D02*
X2265301Y-6538674D01*
X2265301Y-6538674D02*
X2265301Y-6586293D01*
X2265301Y-6586293D02*
X2255777Y-6624388D01*
X2255777Y-6624388D02*
X2246253Y-6643436D01*
X2246253Y-6643436D02*
X2236729Y-6652960D01*
X2236729Y-6652960D02*
X2217682Y-6662484D01*
X2217682Y-6662484D02*
X2198634Y-6662484D01*
X2198634Y-6662484D02*
X2179587Y-6652960D01*
X2179587Y-6652960D02*
X2170063Y-6643436D01*
X2170063Y-6643436D02*
X2160539Y-6624388D01*
X2160539Y-6624388D02*
X2151015Y-6586293D01*
X2151015Y-6586293D02*
X2151015Y-6538674D01*
X2151015Y-6538674D02*
X2160539Y-6500579D01*
X2160539Y-6500579D02*
X2170063Y-6481531D01*
X2170063Y-6481531D02*
X2179587Y-6472008D01*
X2179587Y-6472008D02*
X2198634Y-6462484D01*
X2351015Y-6643436D02*
X2360539Y-6652960D01*
X2360539Y-6652960D02*
X2351015Y-6662484D01*
X2351015Y-6662484D02*
X2341491Y-6652960D01*
X2341491Y-6652960D02*
X2351015Y-6643436D01*
X2351015Y-6643436D02*
X2351015Y-6662484D01*
X2484348Y-6462484D02*
X2503396Y-6462484D01*
X2503396Y-6462484D02*
X2522444Y-6472008D01*
X2522444Y-6472008D02*
X2531968Y-6481531D01*
X2531968Y-6481531D02*
X2541491Y-6500579D01*
X2541491Y-6500579D02*
X2551015Y-6538674D01*
X2551015Y-6538674D02*
X2551015Y-6586293D01*
X2551015Y-6586293D02*
X2541491Y-6624388D01*
X2541491Y-6624388D02*
X2531968Y-6643436D01*
X2531968Y-6643436D02*
X2522444Y-6652960D01*
X2522444Y-6652960D02*
X2503396Y-6662484D01*
X2503396Y-6662484D02*
X2484348Y-6662484D01*
X2484348Y-6662484D02*
X2465301Y-6652960D01*
X2465301Y-6652960D02*
X2455777Y-6643436D01*
X2455777Y-6643436D02*
X2446253Y-6624388D01*
X2446253Y-6624388D02*
X2436729Y-6586293D01*
X2436729Y-6586293D02*
X2436729Y-6538674D01*
X2436729Y-6538674D02*
X2446253Y-6500579D01*
X2446253Y-6500579D02*
X2455777Y-6481531D01*
X2455777Y-6481531D02*
X2465301Y-6472008D01*
X2465301Y-6472008D02*
X2484348Y-6462484D01*
X2617682Y-6462484D02*
X2741491Y-6462484D01*
X2741491Y-6462484D02*
X2674825Y-6538674D01*
X2674825Y-6538674D02*
X2703396Y-6538674D01*
X2703396Y-6538674D02*
X2722444Y-6548198D01*
X2722444Y-6548198D02*
X2731968Y-6557722D01*
X2731968Y-6557722D02*
X2741491Y-6576769D01*
X2741491Y-6576769D02*
X2741491Y-6624388D01*
X2741491Y-6624388D02*
X2731968Y-6643436D01*
X2731968Y-6643436D02*
X2722444Y-6652960D01*
X2722444Y-6652960D02*
X2703396Y-6662484D01*
X2703396Y-6662484D02*
X2646253Y-6662484D01*
X2646253Y-6662484D02*
X2627206Y-6652960D01*
X2627206Y-6652960D02*
X2617682Y-6643436D01*
X2808158Y-6462484D02*
X2931967Y-6462484D01*
X2931967Y-6462484D02*
X2865301Y-6538674D01*
X2865301Y-6538674D02*
X2893872Y-6538674D01*
X2893872Y-6538674D02*
X2912920Y-6548198D01*
X2912920Y-6548198D02*
X2922444Y-6557722D01*
X2922444Y-6557722D02*
X2931967Y-6576769D01*
X2931967Y-6576769D02*
X2931967Y-6624388D01*
X2931967Y-6624388D02*
X2922444Y-6643436D01*
X2922444Y-6643436D02*
X2912920Y-6652960D01*
X2912920Y-6652960D02*
X2893872Y-6662484D01*
X2893872Y-6662484D02*
X2836729Y-6662484D01*
X2836729Y-6662484D02*
X2817682Y-6652960D01*
X2817682Y-6652960D02*
X2808158Y-6643436D01*
X3112920Y-6462484D02*
X3017682Y-6462484D01*
X3017682Y-6462484D02*
X3008158Y-6557722D01*
X3008158Y-6557722D02*
X3017682Y-6548198D01*
X3017682Y-6548198D02*
X3036729Y-6538674D01*
X3036729Y-6538674D02*
X3084348Y-6538674D01*
X3084348Y-6538674D02*
X3103396Y-6548198D01*
X3103396Y-6548198D02*
X3112920Y-6557722D01*
X3112920Y-6557722D02*
X3122444Y-6576769D01*
X3122444Y-6576769D02*
X3122444Y-6624388D01*
X3122444Y-6624388D02*
X3112920Y-6643436D01*
X3112920Y-6643436D02*
X3103396Y-6652960D01*
X3103396Y-6652960D02*
X3084348Y-6662484D01*
X3084348Y-6662484D02*
X3036729Y-6662484D01*
X3036729Y-6662484D02*
X3017682Y-6652960D01*
X3017682Y-6652960D02*
X3008158Y-6643436D01*
X3198634Y-6462484D02*
X3198634Y-6500579D01*
X3274825Y-6462484D02*
X3274825Y-6500579D01*
X3570063Y-6738674D02*
X3560539Y-6729150D01*
X3560539Y-6729150D02*
X3541491Y-6700579D01*
X3541491Y-6700579D02*
X3531968Y-6681531D01*
X3531968Y-6681531D02*
X3522444Y-6652960D01*
X3522444Y-6652960D02*
X3512920Y-6605341D01*
X3512920Y-6605341D02*
X3512920Y-6567246D01*
X3512920Y-6567246D02*
X3522444Y-6519627D01*
X3522444Y-6519627D02*
X3531968Y-6491055D01*
X3531968Y-6491055D02*
X3541491Y-6472008D01*
X3541491Y-6472008D02*
X3560539Y-6443436D01*
X3560539Y-6443436D02*
X3570063Y-6433912D01*
X3636729Y-6481531D02*
X3646253Y-6472008D01*
X3646253Y-6472008D02*
X3665301Y-6462484D01*
X3665301Y-6462484D02*
X3712920Y-6462484D01*
X3712920Y-6462484D02*
X3731968Y-6472008D01*
X3731968Y-6472008D02*
X3741491Y-6481531D01*
X3741491Y-6481531D02*
X3751015Y-6500579D01*
X3751015Y-6500579D02*
X3751015Y-6519627D01*
X3751015Y-6519627D02*
X3741491Y-6548198D01*
X3741491Y-6548198D02*
X3627206Y-6662484D01*
X3627206Y-6662484D02*
X3751015Y-6662484D01*
X3989110Y-6662484D02*
X3989110Y-6462484D01*
X4074825Y-6662484D02*
X4074825Y-6557722D01*
X4074825Y-6557722D02*
X4065301Y-6538674D01*
X4065301Y-6538674D02*
X4046253Y-6529150D01*
X4046253Y-6529150D02*
X4017682Y-6529150D01*
X4017682Y-6529150D02*
X3998634Y-6538674D01*
X3998634Y-6538674D02*
X3989110Y-6548198D01*
X4198634Y-6662484D02*
X4179587Y-6652960D01*
X4179587Y-6652960D02*
X4170063Y-6643436D01*
X4170063Y-6643436D02*
X4160539Y-6624388D01*
X4160539Y-6624388D02*
X4160539Y-6567246D01*
X4160539Y-6567246D02*
X4170063Y-6548198D01*
X4170063Y-6548198D02*
X4179587Y-6538674D01*
X4179587Y-6538674D02*
X4198634Y-6529150D01*
X4198634Y-6529150D02*
X4227206Y-6529150D01*
X4227206Y-6529150D02*
X4246253Y-6538674D01*
X4246253Y-6538674D02*
X4255777Y-6548198D01*
X4255777Y-6548198D02*
X4265301Y-6567246D01*
X4265301Y-6567246D02*
X4265301Y-6624388D01*
X4265301Y-6624388D02*
X4255777Y-6643436D01*
X4255777Y-6643436D02*
X4246253Y-6652960D01*
X4246253Y-6652960D02*
X4227206Y-6662484D01*
X4227206Y-6662484D02*
X4198634Y-6662484D01*
X4379587Y-6662484D02*
X4360539Y-6652960D01*
X4360539Y-6652960D02*
X4351015Y-6633912D01*
X4351015Y-6633912D02*
X4351015Y-6462484D01*
X4531968Y-6652960D02*
X4512920Y-6662484D01*
X4512920Y-6662484D02*
X4474825Y-6662484D01*
X4474825Y-6662484D02*
X4455777Y-6652960D01*
X4455777Y-6652960D02*
X4446253Y-6633912D01*
X4446253Y-6633912D02*
X4446253Y-6557722D01*
X4446253Y-6557722D02*
X4455777Y-6538674D01*
X4455777Y-6538674D02*
X4474825Y-6529150D01*
X4474825Y-6529150D02*
X4512920Y-6529150D01*
X4512920Y-6529150D02*
X4531968Y-6538674D01*
X4531968Y-6538674D02*
X4541492Y-6557722D01*
X4541492Y-6557722D02*
X4541492Y-6576769D01*
X4541492Y-6576769D02*
X4446253Y-6595817D01*
X4617682Y-6652960D02*
X4636730Y-6662484D01*
X4636730Y-6662484D02*
X4674825Y-6662484D01*
X4674825Y-6662484D02*
X4693873Y-6652960D01*
X4693873Y-6652960D02*
X4703396Y-6633912D01*
X4703396Y-6633912D02*
X4703396Y-6624388D01*
X4703396Y-6624388D02*
X4693873Y-6605341D01*
X4693873Y-6605341D02*
X4674825Y-6595817D01*
X4674825Y-6595817D02*
X4646253Y-6595817D01*
X4646253Y-6595817D02*
X4627206Y-6586293D01*
X4627206Y-6586293D02*
X4617682Y-6567246D01*
X4617682Y-6567246D02*
X4617682Y-6557722D01*
X4617682Y-6557722D02*
X4627206Y-6538674D01*
X4627206Y-6538674D02*
X4646253Y-6529150D01*
X4646253Y-6529150D02*
X4674825Y-6529150D01*
X4674825Y-6529150D02*
X4693873Y-6538674D01*
X4770063Y-6738674D02*
X4779587Y-6729150D01*
X4779587Y-6729150D02*
X4798634Y-6700579D01*
X4798634Y-6700579D02*
X4808158Y-6681531D01*
X4808158Y-6681531D02*
X4817682Y-6652960D01*
X4817682Y-6652960D02*
X4827206Y-6605341D01*
X4827206Y-6605341D02*
X4827206Y-6567246D01*
X4827206Y-6567246D02*
X4817682Y-6519627D01*
X4817682Y-6519627D02*
X4808158Y-6491055D01*
X4808158Y-6491055D02*
X4798634Y-6472008D01*
X4798634Y-6472008D02*
X4779587Y-6443436D01*
X4779587Y-6443436D02*
X4770063Y-6433912D01*
X5131968Y-6738674D02*
X5122444Y-6729150D01*
X5122444Y-6729150D02*
X5103396Y-6700579D01*
X5103396Y-6700579D02*
X5093873Y-6681531D01*
X5093873Y-6681531D02*
X5084349Y-6652960D01*
X5084349Y-6652960D02*
X5074825Y-6605341D01*
X5074825Y-6605341D02*
X5074825Y-6567246D01*
X5074825Y-6567246D02*
X5084349Y-6519627D01*
X5084349Y-6519627D02*
X5093873Y-6491055D01*
X5093873Y-6491055D02*
X5103396Y-6472008D01*
X5103396Y-6472008D02*
X5122444Y-6443436D01*
X5122444Y-6443436D02*
X5131968Y-6433912D01*
X5208158Y-6529150D02*
X5208158Y-6662484D01*
X5208158Y-6548198D02*
X5217682Y-6538674D01*
X5217682Y-6538674D02*
X5236730Y-6529150D01*
X5236730Y-6529150D02*
X5265301Y-6529150D01*
X5265301Y-6529150D02*
X5284349Y-6538674D01*
X5284349Y-6538674D02*
X5293873Y-6557722D01*
X5293873Y-6557722D02*
X5293873Y-6662484D01*
X5417682Y-6662484D02*
X5398634Y-6652960D01*
X5398634Y-6652960D02*
X5389111Y-6643436D01*
X5389111Y-6643436D02*
X5379587Y-6624388D01*
X5379587Y-6624388D02*
X5379587Y-6567246D01*
X5379587Y-6567246D02*
X5389111Y-6548198D01*
X5389111Y-6548198D02*
X5398634Y-6538674D01*
X5398634Y-6538674D02*
X5417682Y-6529150D01*
X5417682Y-6529150D02*
X5446254Y-6529150D01*
X5446254Y-6529150D02*
X5465301Y-6538674D01*
X5465301Y-6538674D02*
X5474825Y-6548198D01*
X5474825Y-6548198D02*
X5484349Y-6567246D01*
X5484349Y-6567246D02*
X5484349Y-6624388D01*
X5484349Y-6624388D02*
X5474825Y-6643436D01*
X5474825Y-6643436D02*
X5465301Y-6652960D01*
X5465301Y-6652960D02*
X5446254Y-6662484D01*
X5446254Y-6662484D02*
X5417682Y-6662484D01*
X5541492Y-6529150D02*
X5617682Y-6529150D01*
X5570063Y-6462484D02*
X5570063Y-6633912D01*
X5570063Y-6633912D02*
X5579587Y-6652960D01*
X5579587Y-6652960D02*
X5598634Y-6662484D01*
X5598634Y-6662484D02*
X5617682Y-6662484D01*
X5836730Y-6529150D02*
X5836730Y-6729150D01*
X5836730Y-6538674D02*
X5855777Y-6529150D01*
X5855777Y-6529150D02*
X5893873Y-6529150D01*
X5893873Y-6529150D02*
X5912920Y-6538674D01*
X5912920Y-6538674D02*
X5922444Y-6548198D01*
X5922444Y-6548198D02*
X5931968Y-6567246D01*
X5931968Y-6567246D02*
X5931968Y-6624388D01*
X5931968Y-6624388D02*
X5922444Y-6643436D01*
X5922444Y-6643436D02*
X5912920Y-6652960D01*
X5912920Y-6652960D02*
X5893873Y-6662484D01*
X5893873Y-6662484D02*
X5855777Y-6662484D01*
X5855777Y-6662484D02*
X5836730Y-6652960D01*
X6046253Y-6662484D02*
X6027206Y-6652960D01*
X6027206Y-6652960D02*
X6017682Y-6633912D01*
X6017682Y-6633912D02*
X6017682Y-6462484D01*
X6208158Y-6662484D02*
X6208158Y-6557722D01*
X6208158Y-6557722D02*
X6198634Y-6538674D01*
X6198634Y-6538674D02*
X6179587Y-6529150D01*
X6179587Y-6529150D02*
X6141492Y-6529150D01*
X6141492Y-6529150D02*
X6122444Y-6538674D01*
X6208158Y-6652960D02*
X6189111Y-6662484D01*
X6189111Y-6662484D02*
X6141492Y-6662484D01*
X6141492Y-6662484D02*
X6122444Y-6652960D01*
X6122444Y-6652960D02*
X6112920Y-6633912D01*
X6112920Y-6633912D02*
X6112920Y-6614865D01*
X6112920Y-6614865D02*
X6122444Y-6595817D01*
X6122444Y-6595817D02*
X6141492Y-6586293D01*
X6141492Y-6586293D02*
X6189111Y-6586293D01*
X6189111Y-6586293D02*
X6208158Y-6576769D01*
X6274825Y-6529150D02*
X6351015Y-6529150D01*
X6303396Y-6462484D02*
X6303396Y-6633912D01*
X6303396Y-6633912D02*
X6312920Y-6652960D01*
X6312920Y-6652960D02*
X6331968Y-6662484D01*
X6331968Y-6662484D02*
X6351015Y-6662484D01*
X6493873Y-6652960D02*
X6474825Y-6662484D01*
X6474825Y-6662484D02*
X6436730Y-6662484D01*
X6436730Y-6662484D02*
X6417682Y-6652960D01*
X6417682Y-6652960D02*
X6408158Y-6633912D01*
X6408158Y-6633912D02*
X6408158Y-6557722D01*
X6408158Y-6557722D02*
X6417682Y-6538674D01*
X6417682Y-6538674D02*
X6436730Y-6529150D01*
X6436730Y-6529150D02*
X6474825Y-6529150D01*
X6474825Y-6529150D02*
X6493873Y-6538674D01*
X6493873Y-6538674D02*
X6503396Y-6557722D01*
X6503396Y-6557722D02*
X6503396Y-6576769D01*
X6503396Y-6576769D02*
X6408158Y-6595817D01*
X6674825Y-6662484D02*
X6674825Y-6462484D01*
X6674825Y-6652960D02*
X6655777Y-6662484D01*
X6655777Y-6662484D02*
X6617682Y-6662484D01*
X6617682Y-6662484D02*
X6598634Y-6652960D01*
X6598634Y-6652960D02*
X6589111Y-6643436D01*
X6589111Y-6643436D02*
X6579587Y-6624388D01*
X6579587Y-6624388D02*
X6579587Y-6567246D01*
X6579587Y-6567246D02*
X6589111Y-6548198D01*
X6589111Y-6548198D02*
X6598634Y-6538674D01*
X6598634Y-6538674D02*
X6617682Y-6529150D01*
X6617682Y-6529150D02*
X6655777Y-6529150D01*
X6655777Y-6529150D02*
X6674825Y-6538674D01*
X6751015Y-6738674D02*
X6760539Y-6729150D01*
X6760539Y-6729150D02*
X6779587Y-6700579D01*
X6779587Y-6700579D02*
X6789111Y-6681531D01*
X6789111Y-6681531D02*
X6798634Y-6652960D01*
X6798634Y-6652960D02*
X6808158Y-6605341D01*
X6808158Y-6605341D02*
X6808158Y-6567246D01*
X6808158Y-6567246D02*
X6798634Y-6519627D01*
X6798634Y-6519627D02*
X6789111Y-6491055D01*
X6789111Y-6491055D02*
X6779587Y-6472008D01*
X6779587Y-6472008D02*
X6760539Y-6443436D01*
X6760539Y-6443436D02*
X6751015Y-6433912D01*
M02*
