%TF.GenerationSoftware,KiCad,Pcbnew,10.0.3*%
%TF.CreationDate,2026-07-20T00:49:10-04:00*%
%TF.ProjectId,NeuralCard,4e657572-616c-4436-9172-642e6b696361,rev?*%
%TF.SameCoordinates,Original*%
%TF.FileFunction,Copper,L2,Bot*%
%TF.FilePolarity,Positive*%
%FSLAX46Y46*%
G04 Gerber Fmt 4.6, Leading zero omitted, Abs format (unit mm)*
G04 Created by KiCad (PCBNEW 10.0.3) date 2026-07-20 00:49:10*
%MOMM*%
%LPD*%
G01*
G04 APERTURE LIST*
G04 Aperture macros list*
%AMRoundRect*
0 Rectangle with rounded corners*
0 $1 Rounding radius*
0 $2 $3 $4 $5 $6 $7 $8 $9 X,Y pos of 4 corners*
0 Add a 4 corners polygon primitive as box body*
4,1,4,$2,$3,$4,$5,$6,$7,$8,$9,$2,$3,0*
0 Add four circle primitives for the rounded corners*
1,1,$1+$1,$2,$3*
1,1,$1+$1,$4,$5*
1,1,$1+$1,$6,$7*
1,1,$1+$1,$8,$9*
0 Add four rect primitives between the rounded corners*
20,1,$1+$1,$2,$3,$4,$5,0*
20,1,$1+$1,$4,$5,$6,$7,0*
20,1,$1+$1,$6,$7,$8,$9,0*
20,1,$1+$1,$8,$9,$2,$3,0*%
G04 Aperture macros list end*
%TA.AperFunction,EtchedComponent*%
%ADD10C,0.300000*%
%TD*%
%TA.AperFunction,SMDPad,CuDef*%
%ADD11R,0.675000X0.280000*%
%TD*%
%TA.AperFunction,SMDPad,CuDef*%
%ADD12R,0.280000X0.675000*%
%TD*%
%TA.AperFunction,SMDPad,CuDef*%
%ADD13RoundRect,0.200000X-0.200000X-0.275000X0.200000X-0.275000X0.200000X0.275000X-0.200000X0.275000X0*%
%TD*%
%TA.AperFunction,SMDPad,CuDef*%
%ADD14RoundRect,0.225000X-0.225000X-0.250000X0.225000X-0.250000X0.225000X0.250000X-0.225000X0.250000X0*%
%TD*%
%TA.AperFunction,SMDPad,CuDef*%
%ADD15R,1.000000X0.750000*%
%TD*%
%TA.AperFunction,SMDPad,CuDef*%
%ADD16RoundRect,0.250000X-0.250000X-0.475000X0.250000X-0.475000X0.250000X0.475000X-0.250000X0.475000X0*%
%TD*%
%TA.AperFunction,SMDPad,CuDef*%
%ADD17R,1.500000X2.200000*%
%TD*%
%TA.AperFunction,SMDPad,CuDef*%
%ADD18R,4.200000X3.800000*%
%TD*%
%TA.AperFunction,SMDPad,CuDef*%
%ADD19O,0.574000X1.888000*%
%TD*%
%TA.AperFunction,SMDPad,CuDef*%
%ADD20R,1.500000X0.900000*%
%TD*%
%TA.AperFunction,SMDPad,CuDef*%
%ADD21R,0.900000X1.500000*%
%TD*%
%TA.AperFunction,SMDPad,CuDef*%
%ADD22R,0.900000X0.900000*%
%TD*%
%TA.AperFunction,SMDPad,CuDef*%
%ADD23R,1.200000X1.000000*%
%TD*%
%TA.AperFunction,ComponentPad*%
%ADD24C,1.200000*%
%TD*%
%TA.AperFunction,SMDPad,CuDef*%
%ADD25RoundRect,0.225000X0.250000X-0.225000X0.250000X0.225000X-0.250000X0.225000X-0.250000X-0.225000X0*%
%TD*%
%TA.AperFunction,ViaPad*%
%ADD26C,0.600000*%
%TD*%
%TA.AperFunction,Conductor*%
%ADD27C,0.200000*%
%TD*%
G04 APERTURE END LIST*
%TO.C,ANT1*%
D10*
X2650000Y-16150000D02*
X2650000Y-40350000D01*
X2650000Y-40350000D02*
X14350000Y-40350000D01*
X3200000Y-14200000D02*
X3200000Y-16150000D01*
X3200000Y-16150000D02*
X2650000Y-16150000D01*
X3250000Y-16750000D02*
X3250000Y-16750000D01*
X3250000Y-16750000D02*
X3250000Y-39750000D01*
X3250000Y-39750000D02*
X13750000Y-39750000D01*
X3850000Y-17350000D02*
X3850000Y-17350000D01*
X3850000Y-17350000D02*
X3850000Y-39150000D01*
X3850000Y-39150000D02*
X13150000Y-39150000D01*
X4450000Y-17950000D02*
X4450000Y-17950000D01*
X4450000Y-17950000D02*
X4450000Y-38550000D01*
X4450000Y-38550000D02*
X12550000Y-38550000D01*
X5050000Y-18550000D02*
X5050000Y-18550000D01*
X5050000Y-18550000D02*
X5050000Y-37950000D01*
X5050000Y-37950000D02*
X11950000Y-37950000D01*
X5650000Y-19150000D02*
X5650000Y-19150000D01*
X5650000Y-19150000D02*
X5650000Y-37350000D01*
X5650000Y-37350000D02*
X11350000Y-37350000D01*
X6250000Y-19750000D02*
X6250000Y-19750000D01*
X6250000Y-19750000D02*
X6250000Y-36750000D01*
X6250000Y-36750000D02*
X10750000Y-36750000D01*
X6850000Y-20350000D02*
X6850000Y-20350000D01*
X6850000Y-20350000D02*
X6850000Y-36150000D01*
X6850000Y-36150000D02*
X10150000Y-36150000D01*
X7450000Y-20950000D02*
X7450000Y-20950000D01*
X7450000Y-20950000D02*
X7450000Y-35550000D01*
X7450000Y-35550000D02*
X9550000Y-35550000D01*
X9550000Y-21550000D02*
X8886000Y-22341000D01*
X9550000Y-35550000D02*
X9550000Y-21550000D01*
X10150000Y-20950000D02*
X7450000Y-20950000D01*
X10150000Y-36150000D02*
X10150000Y-20950000D01*
X10750000Y-20350000D02*
X6850000Y-20350000D01*
X10750000Y-36750000D02*
X10750000Y-20350000D01*
X11350000Y-19750000D02*
X6250000Y-19750000D01*
X11350000Y-37350000D02*
X11350000Y-19750000D01*
X11950000Y-19150000D02*
X5650000Y-19150000D01*
X11950000Y-37950000D02*
X11950000Y-19150000D01*
X12550000Y-18550000D02*
X5050000Y-18550000D01*
X12550000Y-38550000D02*
X12550000Y-18550000D01*
X13150000Y-17950000D02*
X4450000Y-17950000D01*
X13150000Y-39150000D02*
X13150000Y-17950000D01*
X13750000Y-17350000D02*
X3850000Y-17350000D01*
X13750000Y-39750000D02*
X13750000Y-17350000D01*
X14350000Y-16750000D02*
X3250000Y-16750000D01*
X14350000Y-40350000D02*
X14350000Y-16750000D01*
%TD*%
D11*
%TO.P,U2,1*%
%TO.N,+3V3*%
X20240000Y-10250000D03*
%TO.P,U2,2*%
%TO.N,unconnected-(U2-SDx-Pad2)*%
X20240000Y-9750000D03*
%TO.P,U2,3*%
%TO.N,unconnected-(U2-SCx-Pad3)*%
X20240000Y-9250000D03*
%TO.P,U2,4*%
%TO.N,IMU_INT*%
X20240000Y-8750000D03*
D12*
%TO.P,U2,5*%
%TO.N,+3V3*%
X21000000Y-8490000D03*
%TO.P,U2,6*%
%TO.N,GND*%
X21500000Y-8490000D03*
%TO.P,U2,7*%
X22000000Y-8490000D03*
D11*
%TO.P,U2,8*%
%TO.N,+3V3*%
X22760000Y-8750000D03*
%TO.P,U2,9*%
%TO.N,unconnected-(U2-INT2-Pad9)*%
X22760000Y-9250000D03*
%TO.P,U2,10*%
%TO.N,unconnected-(U2-NC-Pad10)*%
X22760000Y-9750000D03*
%TO.P,U2,11*%
%TO.N,unconnected-(U2-NC-Pad11)*%
X22760000Y-10250000D03*
D12*
%TO.P,U2,12*%
%TO.N,+3V3*%
X22000000Y-10510000D03*
%TO.P,U2,13*%
%TO.N,SCL*%
X21500000Y-10510000D03*
%TO.P,U2,14*%
%TO.N,SDA*%
X21000000Y-10510000D03*
%TD*%
D13*
%TO.P,R10,1*%
%TO.N,+3V3*%
X52993000Y-4500000D03*
%TO.P,R10,2*%
%TO.N,IO0*%
X54643000Y-4500000D03*
%TD*%
D14*
%TO.P,C2,1*%
%TO.N,+3V3*%
X79225000Y-4500000D03*
%TO.P,C2,2*%
%TO.N,GND*%
X80775000Y-4500000D03*
%TD*%
D15*
%TO.P,SW2,1*%
%TO.N,EN*%
X21000000Y-49150000D03*
%TO.P,SW2,2*%
%TO.N,GND*%
X27000000Y-49150000D03*
%TO.P,SW2,3*%
%TO.N,EN*%
X21000000Y-45450000D03*
%TO.P,SW2,4*%
%TO.N,GND*%
X27000000Y-45450000D03*
%TD*%
D13*
%TO.P,R3,1*%
%TO.N,CHX3*%
X20266000Y-4500000D03*
%TO.P,R3,2*%
%TO.N,CP3*%
X21916000Y-4500000D03*
%TD*%
D16*
%TO.P,C8,1*%
%TO.N,+3V3*%
X37050000Y-51500000D03*
%TO.P,C8,2*%
%TO.N,GND*%
X38950000Y-51500000D03*
%TD*%
D17*
%TO.P,J1,1*%
%TO.N,+3V3*%
X66000000Y-50000000D03*
%TO.P,J1,2*%
%TO.N,GND*%
X68540000Y-50000000D03*
%TO.P,J1,3*%
%TO.N,TXD*%
X71080000Y-50000000D03*
%TO.P,J1,4*%
%TO.N,RXD*%
X73620000Y-50000000D03*
%TO.P,J1,5*%
%TO.N,EN*%
X76160000Y-50000000D03*
%TO.P,J1,6*%
%TO.N,IO0*%
X78700000Y-50000000D03*
%TD*%
D16*
%TO.P,C10,1*%
%TO.N,+3V3*%
X57050000Y-51500000D03*
%TO.P,C10,2*%
%TO.N,GND*%
X58950000Y-51500000D03*
%TD*%
D18*
%TO.P,BT1,1*%
%TO.N,+3V3*%
X76390000Y-28000000D03*
%TO.P,BT1,2*%
%TO.N,GND*%
X47610000Y-28000000D03*
%TD*%
D16*
%TO.P,C9,1*%
%TO.N,+3V3*%
X47050000Y-51500000D03*
%TO.P,C9,2*%
%TO.N,GND*%
X48950000Y-51500000D03*
%TD*%
D14*
%TO.P,C1,1*%
%TO.N,+3V3*%
X72680000Y-4500000D03*
%TO.P,C1,2*%
%TO.N,GND*%
X74230000Y-4500000D03*
%TD*%
D13*
%TO.P,R6,1*%
%TO.N,CHX6*%
X39902000Y-4500000D03*
%TO.P,R6,2*%
%TO.N,CP6*%
X41552000Y-4500000D03*
%TD*%
D19*
%TO.P,U4,1*%
%TO.N,unconnected-(U4-V_EH-Pad1)*%
X4300000Y-6900000D03*
%TO.P,U4,2*%
%TO.N,NFC_ANT_A*%
X5570000Y-6900000D03*
%TO.P,U4,3*%
%TO.N,NFC_ANT_B*%
X6830000Y-6900000D03*
%TO.P,U4,4*%
%TO.N,GND*%
X8100000Y-6900000D03*
%TO.P,U4,5*%
%TO.N,SDA*%
X8100000Y-12300000D03*
%TO.P,U4,6*%
%TO.N,SCL*%
X6830000Y-12300000D03*
%TO.P,U4,7*%
%TO.N,NFC_GPO*%
X5570000Y-12300000D03*
%TO.P,U4,8*%
%TO.N,+3V3*%
X4300000Y-12300000D03*
%TD*%
D13*
%TO.P,R4,1*%
%TO.N,CHX4*%
X26811000Y-4500000D03*
%TO.P,R4,2*%
%TO.N,CP4*%
X28461000Y-4500000D03*
%TD*%
%TO.P,R12,1*%
%TO.N,+3V3*%
X66084000Y-4500000D03*
%TO.P,R12,2*%
%TO.N,SCL*%
X67734000Y-4500000D03*
%TD*%
%TO.P,R5,1*%
%TO.N,CHX5*%
X33357000Y-4500000D03*
%TO.P,R5,2*%
%TO.N,CP5*%
X35007000Y-4500000D03*
%TD*%
D20*
%TO.P,U1,1*%
%TO.N,GND*%
X23250000Y-35890000D03*
%TO.P,U1,2*%
%TO.N,+3V3*%
X23250000Y-34620000D03*
%TO.P,U1,3*%
%TO.N,EN*%
X23250000Y-33350000D03*
%TO.P,U1,4*%
%TO.N,CHX1*%
X23250000Y-32080000D03*
%TO.P,U1,5*%
%TO.N,CHX2*%
X23250000Y-30810000D03*
%TO.P,U1,6*%
%TO.N,CHX3*%
X23250000Y-29540000D03*
%TO.P,U1,7*%
%TO.N,CHX4*%
X23250000Y-28270000D03*
%TO.P,U1,8*%
%TO.N,CHX5*%
X23250000Y-27000000D03*
%TO.P,U1,9*%
%TO.N,CHX6*%
X23250000Y-25730000D03*
%TO.P,U1,10*%
%TO.N,SCL*%
X23250000Y-24460000D03*
%TO.P,U1,11*%
%TO.N,IMU_INT*%
X23250000Y-23190000D03*
%TO.P,U1,12*%
%TO.N,SDA*%
X23250000Y-21920000D03*
%TO.P,U1,13*%
%TO.N,unconnected-(U1-IO19-Pad13)*%
X23250000Y-20650000D03*
%TO.P,U1,14*%
%TO.N,unconnected-(U1-IO20-Pad14)*%
X23250000Y-19380000D03*
D21*
%TO.P,U1,15*%
%TO.N,unconnected-(U1-IO3-Pad15)*%
X25010000Y-18110000D03*
%TO.P,U1,16*%
%TO.N,unconnected-(U1-IO46-Pad16)*%
X26280000Y-18110000D03*
%TO.P,U1,17*%
%TO.N,unconnected-(U1-IO9-Pad17)*%
X27550000Y-18110000D03*
%TO.P,U1,18*%
%TO.N,unconnected-(U1-IO10-Pad18)*%
X28830000Y-18110000D03*
%TO.P,U1,19*%
%TO.N,unconnected-(U1-IO11-Pad19)*%
X30100000Y-18110000D03*
%TO.P,U1,20*%
%TO.N,unconnected-(U1-IO12-Pad20)*%
X31370000Y-18110000D03*
%TO.P,U1,21*%
%TO.N,unconnected-(U1-IO13-Pad21)*%
X32640000Y-18110000D03*
%TO.P,U1,22*%
%TO.N,unconnected-(U1-IO14-Pad22)*%
X33910000Y-18110000D03*
%TO.P,U1,23*%
%TO.N,NFC_GPO*%
X35180000Y-18110000D03*
%TO.P,U1,24*%
%TO.N,unconnected-(U1-IO47-Pad24)*%
X36450000Y-18110000D03*
%TO.P,U1,25*%
%TO.N,unconnected-(U1-IO48-Pad25)*%
X37720000Y-18110000D03*
%TO.P,U1,26*%
%TO.N,unconnected-(U1-IO45-Pad26)*%
X38990000Y-18140000D03*
D20*
%TO.P,U1,27*%
%TO.N,IO0*%
X40750000Y-19380000D03*
%TO.P,U1,28*%
%TO.N,unconnected-(U1-IO35-Pad28)*%
X40750000Y-20650000D03*
%TO.P,U1,29*%
%TO.N,unconnected-(U1-IO36-Pad29)*%
X40750000Y-21920000D03*
%TO.P,U1,30*%
%TO.N,unconnected-(U1-IO37-Pad30)*%
X40750000Y-23190000D03*
%TO.P,U1,31*%
%TO.N,unconnected-(U1-IO38-Pad31)*%
X40750000Y-24460000D03*
%TO.P,U1,32*%
%TO.N,unconnected-(U1-IO39-Pad32)*%
X40750000Y-25730000D03*
%TO.P,U1,33*%
%TO.N,unconnected-(U1-IO40-Pad33)*%
X40750000Y-27000000D03*
%TO.P,U1,34*%
%TO.N,unconnected-(U1-IO41-Pad34)*%
X40750000Y-28270000D03*
%TO.P,U1,35*%
%TO.N,unconnected-(U1-IO42-Pad35)*%
X40750000Y-29540000D03*
%TO.P,U1,36*%
%TO.N,RXD*%
X40750000Y-30810000D03*
%TO.P,U1,37*%
%TO.N,TXD*%
X40750000Y-32080000D03*
%TO.P,U1,38*%
%TO.N,unconnected-(U1-IO2-Pad38)*%
X40750000Y-33350000D03*
%TO.P,U1,39*%
%TO.N,unconnected-(U1-IO1-Pad39)*%
X40750000Y-34620000D03*
%TO.P,U1,40*%
%TO.N,GND*%
X40750000Y-35890000D03*
D22*
%TO.P,U1,41*%
X29100000Y-26770000D03*
X29100000Y-28170000D03*
X29100000Y-29570000D03*
X30500000Y-26770000D03*
X30500000Y-28170000D03*
X30500000Y-29570000D03*
X31900000Y-26770000D03*
X31900000Y-28170000D03*
X31900000Y-29570000D03*
%TD*%
D13*
%TO.P,R1,1*%
%TO.N,CHX1*%
X7175000Y-4500000D03*
%TO.P,R1,2*%
%TO.N,CP1*%
X8825000Y-4500000D03*
%TD*%
D14*
%TO.P,C12,1*%
%TO.N,NFC_ANT_A*%
X10125000Y-13400000D03*
%TO.P,C12,2*%
%TO.N,NFC_ANT_B*%
X11675000Y-13400000D03*
%TD*%
D13*
%TO.P,R2,1*%
%TO.N,CHX2*%
X13720000Y-4500000D03*
%TO.P,R2,2*%
%TO.N,CP2*%
X15370000Y-4500000D03*
%TD*%
%TO.P,R14,1*%
%TO.N,+3V3*%
X61175000Y-52300000D03*
%TO.P,R14,2*%
%TO.N,NFC_GPO*%
X62825000Y-52300000D03*
%TD*%
D23*
%TO.P,ANT1,1*%
%TO.N,NFC_ANT_A*%
X3200000Y-14200000D03*
D24*
%TO.P,ANT1,2*%
%TO.N,NFC_ANT_B*%
X8000000Y-14200000D03*
%TO.P,ANT1,3*%
%TO.N,N/C*%
X8500000Y-22800000D03*
%TD*%
D14*
%TO.P,C3,1*%
%TO.N,+3V3*%
X7225000Y-51500000D03*
%TO.P,C3,2*%
%TO.N,GND*%
X8775000Y-51500000D03*
%TD*%
D13*
%TO.P,R9,1*%
%TO.N,+3V3*%
X46448000Y-4500000D03*
%TO.P,R9,2*%
%TO.N,EN*%
X48098000Y-4500000D03*
%TD*%
D14*
%TO.P,C5,1*%
%TO.N,+3V3*%
X27225000Y-51500000D03*
%TO.P,C5,2*%
%TO.N,GND*%
X28775000Y-51500000D03*
%TD*%
D15*
%TO.P,SW1,1*%
%TO.N,IO0*%
X9000000Y-49150000D03*
%TO.P,SW1,2*%
%TO.N,GND*%
X15000000Y-49150000D03*
%TO.P,SW1,3*%
%TO.N,IO0*%
X9000000Y-45450000D03*
%TO.P,SW1,4*%
%TO.N,GND*%
X15000000Y-45450000D03*
%TD*%
D14*
%TO.P,C4,1*%
%TO.N,EN*%
X17225000Y-51500000D03*
%TO.P,C4,2*%
%TO.N,GND*%
X18775000Y-51500000D03*
%TD*%
D13*
%TO.P,R11,1*%
%TO.N,+3V3*%
X59539000Y-4500000D03*
%TO.P,R11,2*%
%TO.N,SDA*%
X61189000Y-4500000D03*
%TD*%
D25*
%TO.P,C11,1*%
%TO.N,+3V3*%
X10800000Y-8775000D03*
%TO.P,C11,2*%
%TO.N,GND*%
X10800000Y-7225000D03*
%TD*%
D26*
%TO.N,CP1*%
X63215100Y-27533600D03*
X10373800Y-9826000D03*
X69100900Y-10797500D03*
%TO.N,CP2*%
X17165900Y-9525600D03*
X42073500Y-23020000D03*
X42769100Y-28937900D03*
%TO.N,CP4*%
X43167700Y-13635800D03*
X19787800Y-24142200D03*
%TO.N,CP3*%
X25347100Y-20423700D03*
X24090100Y-11872600D03*
X36864400Y-34063800D03*
X21446900Y-14952100D03*
X41987800Y-39621600D03*
%TO.N,CP5*%
X43365300Y-17519100D03*
X63845700Y-49149100D03*
X63306800Y-43898400D03*
%TO.N,CP6*%
X43116700Y-4764200D03*
X45816200Y-24312700D03*
X43368500Y-23227700D03*
X44895300Y-28122500D03*
%TO.N,+3V3*%
X22264400Y-13334800D03*
X19358400Y-13128700D03*
%TO.N,IMU_INT*%
X20314900Y-7756700D03*
X18114500Y-21286600D03*
X24933200Y-23639300D03*
X17459100Y-7163100D03*
%TO.N,GND*%
X57869674Y-26942183D03*
X73791283Y-5952133D03*
X30186958Y-4905022D03*
X17563839Y-32133768D03*
X83000000Y-27000000D03*
X39709763Y-41409583D03*
X39146616Y-9489650D03*
X52000000Y-40000000D03*
X21009102Y-36222250D03*
X24000000Y-8000000D03*
X68964250Y-26999999D03*
X52068935Y-46166650D03*
X53908375Y-10353329D03*
X69023541Y-16249194D03*
X68920200Y-31947908D03*
X53908375Y-14460554D03*
X4950000Y-14266656D03*
X43000000Y-2400000D03*
X56278150Y-6102618D03*
X17014594Y-3994306D03*
X45269134Y-13844501D03*
X63030800Y-31290500D03*
X22798686Y-44971357D03*
X44952683Y-36733604D03*
X47813370Y-40184650D03*
X43000000Y-51600000D03*
X43151090Y-42919824D03*
X36429674Y-7261529D03*
X83000000Y-51000000D03*
X48000000Y-27000000D03*
X83000000Y-12000000D03*
X49669057Y-15253366D03*
X2600000Y-12000000D03*
%TO.N,SCL*%
X6788000Y-10070200D03*
X20064300Y-23191800D03*
X20223900Y-15583400D03*
X25179800Y-25001100D03*
X63512100Y-3824000D03*
%TO.N,SDA*%
X9019000Y-9339300D03*
X60835900Y-3237600D03*
X20028100Y-11833000D03*
X19736800Y-21286600D03*
X18205200Y-8632000D03*
X19005900Y-3431400D03*
X25062400Y-21286600D03*
%TO.N,IO0*%
X39383600Y-35342600D03*
X19230500Y-38411000D03*
%TO.N,EN*%
X60763500Y-36158300D03*
X40432700Y-39187600D03*
%TO.N,CHX6*%
X39842500Y-5884000D03*
X32058700Y-8067400D03*
X36883800Y-15583400D03*
X24882700Y-22203700D03*
%TO.N,NFC_ANT_A*%
X10255500Y-11753000D03*
X3456500Y-11853000D03*
%TO.N,NFC_GPO*%
X5316900Y-10401200D03*
X31422300Y-10281000D03*
%TD*%
%TO.N,CP1*%
D27*
X8825000Y-8275600D02*
X10373800Y-9824400D01*
X63215100Y-16683300D02*
X69100900Y-10797500D01*
X63215100Y-27533600D02*
X63215100Y-16683300D01*
X8825000Y-4500000D02*
X8825000Y-8275600D01*
X10373800Y-9824400D02*
X10373800Y-9826000D01*
%TO.N,CP2*%
X42769100Y-28937900D02*
X42073500Y-28242300D01*
X17164400Y-7719200D02*
X17164400Y-9524100D01*
X42073500Y-28242300D02*
X42073500Y-23020000D01*
X16857400Y-5987400D02*
X16857400Y-7412200D01*
X15370000Y-4500000D02*
X16857400Y-5987400D01*
X16857400Y-7412200D02*
X17164400Y-7719200D01*
X17164400Y-9524100D02*
X17165900Y-9525600D01*
%TO.N,CP4*%
X21094500Y-16685300D02*
X21094500Y-23012500D01*
X21094500Y-23012500D02*
X19964800Y-24142200D01*
X28461000Y-4500000D02*
X29244300Y-3716700D01*
X19964800Y-24142200D02*
X19787800Y-24142200D01*
X25727400Y-4331100D02*
X25727400Y-12052400D01*
X25727400Y-12052400D02*
X21094500Y-16685300D01*
X29244300Y-3716700D02*
X35417200Y-3716700D01*
X28461000Y-4500000D02*
X27680300Y-3719300D01*
X26339200Y-3719300D02*
X25727400Y-4331100D01*
X27680300Y-3719300D02*
X26339200Y-3719300D01*
X35417200Y-3716700D02*
X43167700Y-11467200D01*
X43167700Y-11467200D02*
X43167700Y-13635800D01*
%TO.N,CP3*%
X41987800Y-39621600D02*
X36864400Y-34498200D01*
X23408300Y-13041800D02*
X23408300Y-11872600D01*
X24090100Y-11872600D02*
X23408300Y-11872600D01*
X23408300Y-11872600D02*
X23408300Y-8332000D01*
X33573500Y-31032600D02*
X36604700Y-34063800D01*
X21916000Y-6839700D02*
X21916000Y-4500000D01*
X25347100Y-20423700D02*
X26951200Y-20423700D01*
X36604700Y-34063800D02*
X36864400Y-34063800D01*
X36864400Y-34498200D02*
X36864400Y-34063800D01*
X23408300Y-8332000D02*
X21916000Y-6839700D01*
X21498000Y-14952100D02*
X23408300Y-13041800D01*
X33573500Y-27046000D02*
X33573500Y-31032600D01*
X26951200Y-20423700D02*
X33573500Y-27046000D01*
X21446900Y-14952100D02*
X21498000Y-14952100D01*
%TO.N,CP5*%
X35007000Y-4500000D02*
X35007000Y-9160800D01*
X35007000Y-9160800D02*
X43365300Y-17519100D01*
X63845700Y-44437300D02*
X63306800Y-43898400D01*
X63845700Y-49149100D02*
X63845700Y-44437300D01*
%TO.N,CP6*%
X43985400Y-6933400D02*
X43985400Y-22607600D01*
X44895300Y-25233600D02*
X44895300Y-28122500D01*
X41552000Y-4500000D02*
X42466500Y-5414400D01*
X43116700Y-4764200D02*
X42466500Y-5414400D01*
X45816200Y-24312700D02*
X44895300Y-25233600D01*
X43368500Y-23224500D02*
X43368500Y-23227700D01*
X43985400Y-22607600D02*
X43368500Y-23224500D01*
X42466500Y-5414400D02*
X43985400Y-6933400D01*
%TO.N,+3V3*%
X22000000Y-9870800D02*
X21741600Y-9870800D01*
X47426400Y-3286000D02*
X46448000Y-4264400D01*
X22264400Y-13334800D02*
X22000000Y-13070400D01*
X8382600Y-3707100D02*
X9244200Y-3707100D01*
X7594000Y-2829700D02*
X6425600Y-3998100D01*
X59539000Y-4500000D02*
X60316500Y-5277500D01*
X60316500Y-5277500D02*
X65306500Y-5277500D01*
X73482600Y-3697400D02*
X72680000Y-4500000D01*
X64291200Y-53110500D02*
X66000000Y-51401700D01*
X76390000Y-28000000D02*
X76390000Y-30201700D01*
X46007500Y-50457500D02*
X47050000Y-51500000D01*
X66000000Y-51300800D02*
X66000000Y-51400200D01*
X28025500Y-38343800D02*
X28025500Y-50699500D01*
X10007900Y-7982900D02*
X10800000Y-8775000D01*
X22000000Y-13070400D02*
X22000000Y-10510000D01*
X13269300Y-50712900D02*
X14884900Y-52328500D01*
X6187800Y-8679500D02*
X4300000Y-10567300D01*
X37050000Y-51500000D02*
X36249500Y-50699500D01*
X21000000Y-7808700D02*
X21000000Y-8490000D01*
X47050000Y-51500000D02*
X48082800Y-52532800D01*
X72680000Y-4500000D02*
X71902500Y-5277500D01*
X76390000Y-28000000D02*
X76390000Y-25798300D01*
X26396500Y-52328500D02*
X27225000Y-51500000D01*
X36249500Y-50699500D02*
X28025500Y-50699500D01*
X37050000Y-51500000D02*
X38092500Y-50457500D01*
X56017200Y-52532800D02*
X57050000Y-51500000D01*
X48082800Y-52532800D02*
X56017200Y-52532800D01*
X58080700Y-52530700D02*
X60944300Y-52530700D01*
X21741600Y-9870800D02*
X21000000Y-9129200D01*
X79225000Y-4500000D02*
X78422400Y-3697400D01*
X10007900Y-4470800D02*
X10007900Y-7982900D01*
X7625500Y-5295800D02*
X8000000Y-4921300D01*
X23250000Y-34620000D02*
X24301700Y-34620000D01*
X55382900Y-4986000D02*
X55382900Y-4500000D01*
X21000000Y-4027900D02*
X19801800Y-2829700D01*
X66000000Y-51401700D02*
X79577100Y-51401700D01*
X54624200Y-3286000D02*
X47426400Y-3286000D01*
X66000000Y-51400200D02*
X66000000Y-51401700D01*
X60944300Y-52530700D02*
X61175000Y-52300000D01*
X8000000Y-4921300D02*
X8000000Y-4089700D01*
X21748100Y-3279800D02*
X21000000Y-4027900D01*
X14884900Y-52328500D02*
X26396500Y-52328500D01*
X9244200Y-3707100D02*
X10007900Y-4470800D01*
X19358400Y-10492400D02*
X19358400Y-13128700D01*
X19600800Y-10250000D02*
X19358400Y-10492400D01*
X53770500Y-5277500D02*
X55091400Y-5277500D01*
X66861500Y-5277500D02*
X66084000Y-4500000D01*
X24301700Y-34620000D02*
X28025500Y-38343800D01*
X20240000Y-10250000D02*
X19600800Y-10250000D01*
X61985500Y-53110500D02*
X64291200Y-53110500D01*
X46448000Y-4264400D02*
X46448000Y-4500000D01*
X6425600Y-5295800D02*
X7625500Y-5295800D01*
X6187800Y-5533600D02*
X6187800Y-8679500D01*
X76390000Y-25798300D02*
X79225000Y-22963300D01*
X21000000Y-4027900D02*
X21000000Y-7808700D01*
X28025500Y-50699500D02*
X27225000Y-51500000D01*
X55382900Y-4500000D02*
X55382900Y-4044700D01*
X22760000Y-8345800D02*
X22222900Y-7808700D01*
X46448000Y-4264400D02*
X45463400Y-3279800D01*
X22760000Y-8750000D02*
X22760000Y-8345800D01*
X78422400Y-3697400D02*
X73482600Y-3697400D01*
X4300000Y-10567300D02*
X4300000Y-12300000D01*
X79751700Y-51227100D02*
X79751700Y-33563400D01*
X66000000Y-50000000D02*
X66000000Y-51300800D01*
X59539000Y-4500000D02*
X55382900Y-4500000D01*
X65306500Y-5277500D02*
X66084000Y-4500000D01*
X22222900Y-7808700D02*
X21000000Y-7808700D01*
X79577100Y-51401700D02*
X79751700Y-51227100D01*
X7225000Y-51500000D02*
X8012100Y-50712900D01*
X79751700Y-33563400D02*
X76390000Y-30201700D01*
X45463400Y-3279800D02*
X21748100Y-3279800D01*
X6425600Y-5295800D02*
X6187800Y-5533600D01*
X8012100Y-50712900D02*
X13269300Y-50712900D01*
X55382900Y-4044700D02*
X54624200Y-3286000D01*
X21000000Y-8490000D02*
X21000000Y-9129200D01*
X38092500Y-50457500D02*
X46007500Y-50457500D01*
X52993000Y-4500000D02*
X53770500Y-5277500D01*
X6425600Y-3998100D02*
X6425600Y-5295800D01*
X79225000Y-22963300D02*
X79225000Y-4500000D01*
X55091400Y-5277500D02*
X55382900Y-4986000D01*
X19801800Y-2829700D02*
X7594000Y-2829700D01*
X22000000Y-10510000D02*
X22000000Y-9870800D01*
X8000000Y-4089700D02*
X8382600Y-3707100D01*
X61175000Y-52300000D02*
X61985500Y-53110500D01*
X57050000Y-51500000D02*
X58080700Y-52530700D01*
X71902500Y-5277500D02*
X66861500Y-5277500D01*
%TO.N,IMU_INT*%
X23250000Y-23190000D02*
X24301700Y-23190000D01*
X17585600Y-7289600D02*
X17585600Y-9051600D01*
X24933200Y-23639300D02*
X24751000Y-23639300D01*
X20240000Y-8750000D02*
X20314900Y-8675100D01*
X20314900Y-8675100D02*
X20314900Y-7756700D01*
X18114500Y-9580500D02*
X18114500Y-21286600D01*
X17585600Y-9051600D02*
X18114500Y-9580500D01*
X24751000Y-23639300D02*
X24301700Y-23190000D01*
X17459100Y-7163100D02*
X17585600Y-7289600D01*
%TO.N,SCL*%
X20223900Y-15583400D02*
X20351200Y-15583400D01*
X24638700Y-24460000D02*
X25179800Y-25001100D01*
X20351200Y-22904900D02*
X20351200Y-15583400D01*
X63613600Y-3722500D02*
X63512100Y-3824000D01*
X6830000Y-12300000D02*
X6830000Y-11054300D01*
X21500000Y-12695100D02*
X21500000Y-10510000D01*
X20351200Y-13843900D02*
X21500000Y-12695100D01*
X67734000Y-4500000D02*
X66956500Y-3722500D01*
X20351200Y-15583400D02*
X20351200Y-13843900D01*
X66956500Y-3722500D02*
X63613600Y-3722500D01*
X23250000Y-24460000D02*
X24638700Y-24460000D01*
X6788000Y-11012300D02*
X6788000Y-10070200D01*
X20064300Y-23191800D02*
X20351200Y-22904900D01*
X6830000Y-11054300D02*
X6788000Y-11012300D01*
%TO.N,SDA*%
X24949000Y-21286600D02*
X24315600Y-21920000D01*
X9019400Y-9339300D02*
X9019000Y-9339300D01*
X19736900Y-13601100D02*
X19736900Y-15219600D01*
X19736900Y-15947200D02*
X19736900Y-21286600D01*
X19736900Y-21286600D02*
X19736800Y-21286600D01*
X60835900Y-3237600D02*
X61189000Y-3590700D01*
X19622200Y-15832500D02*
X19736900Y-15947200D01*
X18205200Y-4232100D02*
X19005900Y-3431400D01*
X8100000Y-12300000D02*
X8100000Y-10261100D01*
X19622200Y-15334300D02*
X19622200Y-15832500D01*
X19960100Y-12189100D02*
X19960100Y-13377900D01*
X24315600Y-21920000D02*
X23250000Y-21920000D01*
X19736900Y-15219600D02*
X19622200Y-15334300D01*
X61189000Y-3590700D02*
X61189000Y-4500000D01*
X21000000Y-10510000D02*
X21000000Y-11149200D01*
X20172200Y-11977000D02*
X19960100Y-12189100D01*
X25062400Y-21286600D02*
X24949000Y-21286600D01*
X9020600Y-9340500D02*
X9019400Y-9339300D01*
X20028100Y-11833000D02*
X20172200Y-11977000D01*
X19960100Y-13377900D02*
X19736900Y-13601100D01*
X8100000Y-10261100D02*
X9020600Y-9340500D01*
X21000000Y-11149200D02*
X20172200Y-11977000D01*
X18205200Y-8632000D02*
X18205200Y-4232100D01*
%TO.N,IO0*%
X47273000Y-4081100D02*
X47638400Y-3715700D01*
X77648300Y-48948300D02*
X52263100Y-23563100D01*
X39698300Y-35027900D02*
X39383600Y-35342600D01*
X47273000Y-20265500D02*
X47273000Y-4081100D01*
X47638400Y-3715700D02*
X52263100Y-3715700D01*
X52263100Y-23563100D02*
X52263100Y-3715700D01*
X53858700Y-3715700D02*
X54643000Y-4500000D01*
X40750000Y-19380000D02*
X39698300Y-19380000D01*
X42766700Y-20345000D02*
X42766700Y-23495500D01*
X9000000Y-45450000D02*
X12191500Y-45450000D01*
X43654500Y-23884000D02*
X47273000Y-20265500D01*
X52263100Y-3715700D02*
X53858700Y-3715700D01*
X77648300Y-50000000D02*
X77648300Y-48948300D01*
X43155200Y-23884000D02*
X43654500Y-23884000D01*
X42766700Y-23495500D02*
X43155200Y-23884000D01*
X78700000Y-50000000D02*
X77648300Y-50000000D01*
X9000000Y-45450000D02*
X9000000Y-49150000D01*
X39698300Y-19380000D02*
X39698300Y-35027900D01*
X40750000Y-19380000D02*
X41801700Y-19380000D01*
X41801700Y-19380000D02*
X42766700Y-20345000D01*
X12191500Y-45450000D02*
X19230500Y-38411000D01*
%TO.N,EN*%
X48098000Y-23492800D02*
X48098000Y-4500000D01*
X60763500Y-36158300D02*
X48098000Y-23492800D01*
X22198300Y-43575000D02*
X21000000Y-44773300D01*
X62067600Y-36158300D02*
X60763500Y-36158300D01*
X21000000Y-45450000D02*
X21000000Y-44773300D01*
X21000000Y-45450000D02*
X21000000Y-49150000D01*
X75108300Y-49199000D02*
X62067600Y-36158300D01*
X21000000Y-49150000D02*
X19575000Y-49150000D01*
X22198300Y-33350000D02*
X22198300Y-43575000D01*
X34595100Y-33350000D02*
X40432700Y-39187600D01*
X23250000Y-33350000D02*
X34595100Y-33350000D01*
X19575000Y-49150000D02*
X17225000Y-51500000D01*
X75108300Y-50000000D02*
X75108300Y-49199000D01*
X76160000Y-50000000D02*
X75108300Y-50000000D01*
X23250000Y-33350000D02*
X22198300Y-33350000D01*
%TO.N,CHX3*%
X20265900Y-6954900D02*
X20266000Y-6954900D01*
X18716200Y-26057900D02*
X18716200Y-8975800D01*
X23250000Y-29540000D02*
X22198300Y-29540000D01*
X18716200Y-8975800D02*
X19713200Y-7978800D01*
X20266000Y-6954900D02*
X20266000Y-4500000D01*
X19713200Y-7978800D02*
X19713200Y-7507600D01*
X22198300Y-29540000D02*
X18716200Y-26057900D01*
X19713200Y-7507600D02*
X20265900Y-6954900D01*
%TO.N,TXD*%
X52897100Y-32080000D02*
X70028300Y-49211200D01*
X71080000Y-50000000D02*
X70028300Y-50000000D01*
X70028300Y-49211200D02*
X70028300Y-50000000D01*
X40750000Y-32080000D02*
X52897100Y-32080000D01*
%TO.N,RXD*%
X40750000Y-30810000D02*
X54167100Y-30810000D01*
X73620000Y-50000000D02*
X72568300Y-50000000D01*
X54167100Y-30810000D02*
X72568300Y-49211200D01*
X72568300Y-49211200D02*
X72568300Y-50000000D01*
%TO.N,CHX6*%
X36883800Y-15583400D02*
X36883800Y-12892500D01*
X39842500Y-5884000D02*
X39902000Y-5824500D01*
X23250000Y-25730000D02*
X25305400Y-25730000D01*
X39902000Y-5824500D02*
X39902000Y-4500000D01*
X25831400Y-23152400D02*
X24882700Y-22203700D01*
X36883800Y-12892500D02*
X32058700Y-8067400D01*
X25305400Y-25730000D02*
X25831400Y-25204000D01*
X25831400Y-25204000D02*
X25831400Y-23152400D01*
%TO.N,NFC_ANT_A*%
X3200000Y-14200000D02*
X3200000Y-13398300D01*
X5570000Y-8368100D02*
X3456500Y-10481600D01*
X3456500Y-13141800D02*
X3200000Y-13398300D01*
X5570000Y-6900000D02*
X5570000Y-8368100D01*
X3456500Y-11853000D02*
X3456500Y-13141800D01*
X3456500Y-10481600D02*
X3456500Y-11853000D01*
X10125000Y-11883500D02*
X10255500Y-11753000D01*
X10125000Y-13400000D02*
X10125000Y-11883500D01*
%TO.N,NFC_ANT_B*%
X6830000Y-6900000D02*
X6830000Y-8145700D01*
X10875000Y-14200000D02*
X11675000Y-13400000D01*
X7418700Y-8734400D02*
X7418700Y-13618700D01*
X7418700Y-13618700D02*
X8000000Y-14200000D01*
X8000000Y-14200000D02*
X10875000Y-14200000D01*
X6830000Y-8145700D02*
X7418700Y-8734400D01*
%TO.N,NFC_GPO*%
X5570000Y-12300000D02*
X5570000Y-11054300D01*
X37466100Y-34359400D02*
X37466100Y-33814600D01*
X36593200Y-33484200D02*
X36593100Y-33484200D01*
X36593100Y-33484200D02*
X35180000Y-32071100D01*
X37113600Y-33462100D02*
X36615300Y-33462100D01*
X5570000Y-11054300D02*
X5316900Y-10801200D01*
X5316900Y-10801200D02*
X5316900Y-10401200D01*
X35180000Y-32071100D02*
X35180000Y-18110000D01*
X62825000Y-52300000D02*
X49544900Y-39019900D01*
X31422300Y-10281000D02*
X35180000Y-14038700D01*
X36615300Y-33462100D02*
X36593200Y-33484200D01*
X49544900Y-39019900D02*
X42126600Y-39019900D01*
X42126600Y-39019900D02*
X37466100Y-34359400D01*
X35180000Y-14038700D02*
X35180000Y-18110000D01*
X37466100Y-33814600D02*
X37113600Y-33462100D01*
%TO.N,CHX4*%
X21760200Y-27831900D02*
X21760200Y-16858300D01*
X22198300Y-28270000D02*
X21760200Y-27831900D01*
X23250000Y-28270000D02*
X22198300Y-28270000D01*
X21760200Y-16858300D02*
X26329100Y-12289400D01*
X26329100Y-12289400D02*
X26329100Y-4981900D01*
X26329100Y-4981900D02*
X26811000Y-4500000D01*
%TO.N,CHX5*%
X22198300Y-27000000D02*
X22198300Y-17077100D01*
X26831700Y-12443700D02*
X26831700Y-11025300D01*
X26831700Y-11025300D02*
X33357000Y-4500000D01*
X22198300Y-17077100D02*
X26831700Y-12443700D01*
X23250000Y-27000000D02*
X22198300Y-27000000D01*
%TO.N,CHX1*%
X15806000Y-9696600D02*
X9406800Y-3297400D01*
X23250000Y-32080000D02*
X22198300Y-32080000D01*
X7175000Y-4311200D02*
X7175000Y-4500000D01*
X15806000Y-25687700D02*
X15806000Y-9696600D01*
X9406800Y-3297400D02*
X8188800Y-3297400D01*
X22198300Y-32080000D02*
X15806000Y-25687700D01*
X8188800Y-3297400D02*
X7175000Y-4311200D01*
%TO.N,CHX2*%
X13720000Y-4842800D02*
X16564200Y-7687000D01*
X16564200Y-25175900D02*
X22198300Y-30810000D01*
X13720000Y-4500000D02*
X13720000Y-4842800D01*
X23250000Y-30810000D02*
X22198300Y-30810000D01*
X16564200Y-7687000D02*
X16564200Y-25175900D01*
%TD*%
%TA.AperFunction,Conductor*%
%TO.N,GND*%
G36*
X83141859Y-603868D02*
G01*
X83299646Y-649326D01*
X83310117Y-652990D01*
X83436514Y-705346D01*
X83577457Y-763727D01*
X83587459Y-768544D01*
X83840711Y-908511D01*
X83850111Y-914417D01*
X84086106Y-1081864D01*
X84094783Y-1088784D01*
X84310555Y-1281609D01*
X84318390Y-1289444D01*
X84511213Y-1505213D01*
X84518135Y-1513893D01*
X84685582Y-1749888D01*
X84691488Y-1759288D01*
X84831455Y-2012540D01*
X84836272Y-2022542D01*
X84947007Y-2289878D01*
X84950674Y-2300357D01*
X84995656Y-2456493D01*
X84996131Y-2458139D01*
X85000000Y-2485546D01*
X85000000Y-51494452D01*
X84996131Y-51521859D01*
X84950674Y-51679642D01*
X84947007Y-51690121D01*
X84836272Y-51957457D01*
X84831455Y-51967459D01*
X84691488Y-52220711D01*
X84685582Y-52230111D01*
X84518135Y-52466106D01*
X84511213Y-52474786D01*
X84318398Y-52690547D01*
X84310547Y-52698398D01*
X84094786Y-52891213D01*
X84086106Y-52898135D01*
X83850111Y-53065582D01*
X83840711Y-53071488D01*
X83587459Y-53211455D01*
X83577457Y-53216272D01*
X83310121Y-53327007D01*
X83299642Y-53330674D01*
X83141860Y-53376131D01*
X83114453Y-53380000D01*
X64827101Y-53380000D01*
X64768910Y-53361093D01*
X64732946Y-53311593D01*
X64732946Y-53250407D01*
X64757097Y-53210996D01*
X66136897Y-51831196D01*
X66191414Y-51803419D01*
X66206901Y-51802200D01*
X79629825Y-51802200D01*
X79629827Y-51802200D01*
X79731688Y-51774907D01*
X79731690Y-51774905D01*
X79731692Y-51774905D01*
X79823013Y-51722180D01*
X79843903Y-51701290D01*
X79997611Y-51547580D01*
X79997613Y-51547580D01*
X80072180Y-51473013D01*
X80124907Y-51381687D01*
X80152201Y-51279827D01*
X80152201Y-51174373D01*
X80152201Y-51168311D01*
X80152200Y-51168293D01*
X80152200Y-33624114D01*
X80152201Y-33624101D01*
X80152201Y-33510675D01*
X80152201Y-33510673D01*
X80124907Y-33408813D01*
X80121393Y-33402727D01*
X80121392Y-33402724D01*
X80072181Y-33317489D01*
X80072180Y-33317487D01*
X79997613Y-33242920D01*
X79997610Y-33242918D01*
X78618891Y-31864199D01*
X77124196Y-30369503D01*
X77096419Y-30314986D01*
X77105990Y-30254554D01*
X77149255Y-30211289D01*
X77194200Y-30200499D01*
X78534861Y-30200499D01*
X78534864Y-30200499D01*
X78559991Y-30197585D01*
X78662765Y-30152206D01*
X78742206Y-30072765D01*
X78787585Y-29969991D01*
X78790500Y-29944865D01*
X78790499Y-26055136D01*
X78787585Y-26030009D01*
X78742206Y-25927235D01*
X78662765Y-25847794D01*
X78559991Y-25802415D01*
X78559990Y-25802414D01*
X78559988Y-25802414D01*
X78534869Y-25799500D01*
X78534865Y-25799500D01*
X77194200Y-25799500D01*
X77136009Y-25780593D01*
X77100045Y-25731093D01*
X77100045Y-25669907D01*
X77124196Y-25630496D01*
X78243777Y-24510915D01*
X79545480Y-23209213D01*
X79567096Y-23171773D01*
X79598207Y-23117887D01*
X79625500Y-23016027D01*
X79625500Y-5313055D01*
X79644407Y-5254864D01*
X79688181Y-5220957D01*
X79709975Y-5212364D01*
X79825078Y-5125078D01*
X79912364Y-5009975D01*
X79965359Y-4875590D01*
X79975500Y-4791144D01*
X79975500Y-4208856D01*
X79965359Y-4124410D01*
X79929358Y-4033119D01*
X79912365Y-3990027D01*
X79912364Y-3990026D01*
X79912364Y-3990025D01*
X79825078Y-3874922D01*
X79709975Y-3787636D01*
X79709974Y-3787635D01*
X79709972Y-3787634D01*
X79575591Y-3734641D01*
X79491148Y-3724500D01*
X79491144Y-3724500D01*
X79056901Y-3724500D01*
X78998710Y-3705593D01*
X78986898Y-3695504D01*
X78668313Y-3376920D01*
X78668308Y-3376916D01*
X78576991Y-3324194D01*
X78576993Y-3324194D01*
X78519304Y-3308737D01*
X78475127Y-3296900D01*
X73535327Y-3296900D01*
X73429873Y-3296900D01*
X73385696Y-3308737D01*
X73328007Y-3324194D01*
X73236691Y-3376916D01*
X73236686Y-3376920D01*
X72918102Y-3695504D01*
X72863586Y-3723281D01*
X72848099Y-3724500D01*
X72413851Y-3724500D01*
X72329408Y-3734641D01*
X72195027Y-3787634D01*
X72079922Y-3874922D01*
X71992634Y-3990027D01*
X71939641Y-4124408D01*
X71929500Y-4208851D01*
X71929500Y-4643099D01*
X71927031Y-4650696D01*
X71928281Y-4658586D01*
X71917756Y-4679241D01*
X71910593Y-4701290D01*
X71900504Y-4713103D01*
X71765603Y-4848004D01*
X71711086Y-4875781D01*
X71695599Y-4877000D01*
X68533500Y-4877000D01*
X68475309Y-4858093D01*
X68439345Y-4808593D01*
X68434500Y-4778000D01*
X68434499Y-4177133D01*
X68434499Y-4177128D01*
X68428091Y-4117517D01*
X68427600Y-4116200D01*
X68377797Y-3982670D01*
X68291549Y-3867458D01*
X68291548Y-3867457D01*
X68291546Y-3867454D01*
X68270885Y-3851987D01*
X68176329Y-3781202D01*
X68041488Y-3730910D01*
X68041483Y-3730909D01*
X68041481Y-3730908D01*
X68041477Y-3730908D01*
X68010249Y-3727550D01*
X67981873Y-3724500D01*
X67981870Y-3724500D01*
X67565901Y-3724500D01*
X67507710Y-3705593D01*
X67495898Y-3695504D01*
X67202413Y-3402020D01*
X67202408Y-3402016D01*
X67111091Y-3349294D01*
X67111093Y-3349294D01*
X67071570Y-3338704D01*
X67009227Y-3322000D01*
X67009225Y-3322000D01*
X63870138Y-3322000D01*
X63820639Y-3308737D01*
X63743885Y-3264423D01*
X63686724Y-3249107D01*
X63591157Y-3223500D01*
X63433043Y-3223500D01*
X63280316Y-3264423D01*
X63143384Y-3343480D01*
X63031580Y-3455284D01*
X62952523Y-3592216D01*
X62911600Y-3744943D01*
X62911600Y-3903057D01*
X62952523Y-4055784D01*
X63031580Y-4192716D01*
X63143384Y-4304520D01*
X63280316Y-4383577D01*
X63433043Y-4424500D01*
X63433045Y-4424500D01*
X63591155Y-4424500D01*
X63591157Y-4424500D01*
X63743884Y-4383577D01*
X63880816Y-4304520D01*
X63992620Y-4192716D01*
X64000322Y-4179375D01*
X64004292Y-4172500D01*
X64049761Y-4131559D01*
X64090028Y-4123000D01*
X65284500Y-4123000D01*
X65342691Y-4141907D01*
X65378655Y-4191407D01*
X65383500Y-4222000D01*
X65383500Y-4593099D01*
X65364593Y-4651290D01*
X65354504Y-4663102D01*
X65169604Y-4848003D01*
X65115087Y-4875781D01*
X65099600Y-4877000D01*
X61988500Y-4877000D01*
X61930309Y-4858093D01*
X61894345Y-4808593D01*
X61889500Y-4778000D01*
X61889499Y-4177133D01*
X61889499Y-4177128D01*
X61883091Y-4117517D01*
X61882600Y-4116200D01*
X61832797Y-3982670D01*
X61746549Y-3867458D01*
X61746548Y-3867457D01*
X61746546Y-3867454D01*
X61725885Y-3851987D01*
X61629171Y-3779586D01*
X61593918Y-3729577D01*
X61589500Y-3700333D01*
X61589500Y-3537974D01*
X61589500Y-3537973D01*
X61576836Y-3490709D01*
X61562207Y-3436112D01*
X61562205Y-3436109D01*
X61562205Y-3436107D01*
X61509483Y-3344791D01*
X61509479Y-3344785D01*
X61465396Y-3300702D01*
X61437619Y-3246185D01*
X61436400Y-3230699D01*
X61436400Y-3158544D01*
X61436400Y-3158543D01*
X61395477Y-3005816D01*
X61316420Y-2868884D01*
X61204616Y-2757080D01*
X61067684Y-2678023D01*
X60914957Y-2637100D01*
X60756843Y-2637100D01*
X60604116Y-2678023D01*
X60467184Y-2757080D01*
X60355380Y-2868884D01*
X60276323Y-3005816D01*
X60235400Y-3158543D01*
X60235400Y-3316657D01*
X60276323Y-3469384D01*
X60355380Y-3606316D01*
X60467184Y-3718120D01*
X60563339Y-3773635D01*
X60604279Y-3819103D01*
X60610675Y-3879953D01*
X60593092Y-3918698D01*
X60545202Y-3982670D01*
X60494910Y-4117511D01*
X60494908Y-4117522D01*
X60491546Y-4148792D01*
X60488998Y-4172500D01*
X60488500Y-4177129D01*
X60488500Y-4644099D01*
X60481336Y-4666146D01*
X60477710Y-4689044D01*
X60472061Y-4694692D01*
X60469593Y-4702290D01*
X60450836Y-4715917D01*
X60434445Y-4732309D01*
X60426555Y-4733558D01*
X60420093Y-4738254D01*
X60396908Y-4738254D01*
X60374013Y-4741880D01*
X60366896Y-4738254D01*
X60358907Y-4738254D01*
X60319496Y-4714103D01*
X60268495Y-4663102D01*
X60240718Y-4608585D01*
X60239499Y-4593098D01*
X60239499Y-4177133D01*
X60239499Y-4177128D01*
X60233091Y-4117517D01*
X60232600Y-4116200D01*
X60182797Y-3982670D01*
X60096549Y-3867458D01*
X60096548Y-3867457D01*
X60096546Y-3867454D01*
X60075885Y-3851987D01*
X59981329Y-3781202D01*
X59846488Y-3730910D01*
X59846483Y-3730909D01*
X59846481Y-3730908D01*
X59846477Y-3730908D01*
X59815249Y-3727550D01*
X59786873Y-3724500D01*
X59786870Y-3724500D01*
X59291133Y-3724500D01*
X59291129Y-3724500D01*
X59291128Y-3724501D01*
X59283949Y-3725272D01*
X59231519Y-3730908D01*
X59231514Y-3730909D01*
X59096670Y-3781202D01*
X58981458Y-3867450D01*
X58981450Y-3867458D01*
X58895204Y-3982667D01*
X58891733Y-3991974D01*
X58875649Y-4035098D01*
X58837600Y-4083011D01*
X58782892Y-4099500D01*
X55882400Y-4099500D01*
X55824209Y-4080593D01*
X55788245Y-4031093D01*
X55783400Y-4000500D01*
X55783400Y-3991974D01*
X55783400Y-3991973D01*
X55770914Y-3945373D01*
X55756107Y-3890112D01*
X55743028Y-3867458D01*
X55703383Y-3798791D01*
X55703381Y-3798789D01*
X55703380Y-3798787D01*
X54870113Y-2965520D01*
X54870110Y-2965518D01*
X54870108Y-2965516D01*
X54778791Y-2912794D01*
X54778793Y-2912794D01*
X54739270Y-2902204D01*
X54676927Y-2885500D01*
X54676925Y-2885500D01*
X47485206Y-2885500D01*
X47485190Y-2885499D01*
X47479127Y-2885499D01*
X47373673Y-2885499D01*
X47373670Y-2885499D01*
X47271813Y-2912792D01*
X47271809Y-2912794D01*
X47180487Y-2965519D01*
X47105919Y-3040086D01*
X47105920Y-3040087D01*
X47105918Y-3040089D01*
X46518003Y-3628003D01*
X46463486Y-3655780D01*
X46403054Y-3646209D01*
X46377995Y-3628003D01*
X46082005Y-3332013D01*
X45709313Y-2959320D01*
X45709310Y-2959318D01*
X45709308Y-2959316D01*
X45617991Y-2906594D01*
X45617993Y-2906594D01*
X45578470Y-2896004D01*
X45516127Y-2879300D01*
X21800827Y-2879300D01*
X21695373Y-2879300D01*
X21633029Y-2896004D01*
X21593507Y-2906594D01*
X21502191Y-2959316D01*
X21502186Y-2959320D01*
X21070002Y-3391503D01*
X21015486Y-3419280D01*
X20955054Y-3409709D01*
X20929995Y-3391503D01*
X20537681Y-2999189D01*
X20047713Y-2509220D01*
X20047710Y-2509218D01*
X20047708Y-2509216D01*
X19956391Y-2456494D01*
X19956393Y-2456494D01*
X19916870Y-2445904D01*
X19854527Y-2429200D01*
X7646727Y-2429200D01*
X7541273Y-2429200D01*
X7478929Y-2445904D01*
X7439407Y-2456494D01*
X7348091Y-2509216D01*
X6105116Y-3752191D01*
X6052394Y-3843508D01*
X6052392Y-3843513D01*
X6050121Y-3851985D01*
X6050122Y-3851986D01*
X6025100Y-3945372D01*
X6025100Y-5088899D01*
X6006193Y-5147090D01*
X5996104Y-5158902D01*
X5867320Y-5287686D01*
X5867316Y-5287691D01*
X5814594Y-5379009D01*
X5814593Y-5379011D01*
X5814593Y-5379012D01*
X5814593Y-5379013D01*
X5794250Y-5454936D01*
X5787300Y-5480874D01*
X5787300Y-5563981D01*
X5768393Y-5622172D01*
X5718893Y-5658136D01*
X5662679Y-5659608D01*
X5647348Y-5655500D01*
X5647346Y-5655500D01*
X5492654Y-5655500D01*
X5401204Y-5680003D01*
X5343228Y-5695538D01*
X5209270Y-5772879D01*
X5099879Y-5882270D01*
X5020736Y-6019350D01*
X4975267Y-6060291D01*
X4914416Y-6066687D01*
X4861428Y-6036094D01*
X4849264Y-6019350D01*
X4770120Y-5882270D01*
X4770118Y-5882268D01*
X4770117Y-5882266D01*
X4660734Y-5772883D01*
X4660731Y-5772881D01*
X4660729Y-5772879D01*
X4526771Y-5695538D01*
X4509118Y-5690808D01*
X4377346Y-5655500D01*
X4222654Y-5655500D01*
X4131204Y-5680003D01*
X4073228Y-5695538D01*
X3939270Y-5772879D01*
X3829879Y-5882270D01*
X3752538Y-6016228D01*
X3747215Y-6036094D01*
X3712500Y-6165654D01*
X3712500Y-7634346D01*
X3747215Y-7763905D01*
X3752538Y-7783771D01*
X3829879Y-7917729D01*
X3829881Y-7917731D01*
X3829883Y-7917734D01*
X3939266Y-8027117D01*
X3939268Y-8027118D01*
X3939270Y-8027120D01*
X4073229Y-8104461D01*
X4073227Y-8104461D01*
X4073231Y-8104462D01*
X4073233Y-8104463D01*
X4222654Y-8144500D01*
X4222656Y-8144500D01*
X4377344Y-8144500D01*
X4377346Y-8144500D01*
X4526767Y-8104463D01*
X4526769Y-8104461D01*
X4526771Y-8104461D01*
X4660729Y-8027120D01*
X4660729Y-8027119D01*
X4660734Y-8027117D01*
X4770117Y-7917734D01*
X4817528Y-7835616D01*
X4849264Y-7780649D01*
X4894733Y-7739708D01*
X4955583Y-7733312D01*
X5008571Y-7763905D01*
X5020736Y-7780649D01*
X5099879Y-7917729D01*
X5099881Y-7917731D01*
X5099883Y-7917734D01*
X5140505Y-7958356D01*
X5144130Y-7965471D01*
X5150593Y-7970167D01*
X5157756Y-7992215D01*
X5168281Y-8012871D01*
X5169500Y-8028358D01*
X5169500Y-8161199D01*
X5150593Y-8219390D01*
X5140504Y-8231203D01*
X3136016Y-10235691D01*
X3083295Y-10327006D01*
X3083291Y-10327016D01*
X3077543Y-10348472D01*
X3056000Y-10428873D01*
X3056000Y-11363256D01*
X3037093Y-11421447D01*
X3027004Y-11433259D01*
X2975982Y-11484281D01*
X2975980Y-11484283D01*
X2975980Y-11484284D01*
X2896923Y-11621216D01*
X2856000Y-11773943D01*
X2856000Y-11932057D01*
X2896923Y-12084784D01*
X2975980Y-12221716D01*
X3027005Y-12272741D01*
X3054781Y-12327256D01*
X3056000Y-12342743D01*
X3056000Y-12934899D01*
X3037093Y-12993090D01*
X3027004Y-13004902D01*
X2879520Y-13152386D01*
X2879516Y-13152391D01*
X2826794Y-13243708D01*
X2826792Y-13243712D01*
X2816188Y-13283286D01*
X2816189Y-13283287D01*
X2804711Y-13326123D01*
X2771387Y-13377438D01*
X2714265Y-13399364D01*
X2709085Y-13399500D01*
X2555138Y-13399500D01*
X2555135Y-13399501D01*
X2530009Y-13402414D01*
X2427235Y-13447794D01*
X2347794Y-13527235D01*
X2302414Y-13630011D01*
X2299500Y-13655130D01*
X2299500Y-13655132D01*
X2299500Y-13655135D01*
X2299500Y-14195377D01*
X2299501Y-14651000D01*
X2280594Y-14709191D01*
X2231094Y-14745155D01*
X2200501Y-14750000D01*
X2000000Y-14750000D01*
X2000000Y-14750001D01*
X2000000Y-15301000D01*
X1981093Y-15359191D01*
X1931593Y-15395155D01*
X1901000Y-15400000D01*
X1900000Y-15400000D01*
X1900000Y-41100000D01*
X1900001Y-41100000D01*
X15049999Y-41100000D01*
X15050000Y-41100000D01*
X15050000Y-15400000D01*
X15049999Y-15400000D01*
X9099000Y-15400000D01*
X9040809Y-15381093D01*
X9004845Y-15331593D01*
X9000000Y-15301000D01*
X9000000Y-14731226D01*
X8991726Y-14714987D01*
X9001297Y-14654555D01*
X9044562Y-14611290D01*
X9089507Y-14600500D01*
X10927725Y-14600500D01*
X10927727Y-14600500D01*
X11029588Y-14573207D01*
X11029590Y-14573205D01*
X11029592Y-14573205D01*
X11120908Y-14520483D01*
X11120908Y-14520482D01*
X11120913Y-14520480D01*
X11352702Y-14288691D01*
X11436898Y-14204496D01*
X11491414Y-14176719D01*
X11506901Y-14175500D01*
X11941142Y-14175500D01*
X11941144Y-14175500D01*
X12025590Y-14165359D01*
X12159975Y-14112364D01*
X12275078Y-14025078D01*
X12362364Y-13909975D01*
X12415359Y-13775590D01*
X12425500Y-13691144D01*
X12425500Y-13108856D01*
X12415359Y-13024410D01*
X12362364Y-12890025D01*
X12275078Y-12774922D01*
X12159975Y-12687636D01*
X12159974Y-12687635D01*
X12159972Y-12687634D01*
X12025591Y-12634641D01*
X11941148Y-12624500D01*
X11941144Y-12624500D01*
X11408856Y-12624500D01*
X11408851Y-12624500D01*
X11324408Y-12634641D01*
X11190027Y-12687634D01*
X11074922Y-12774922D01*
X10987634Y-12890027D01*
X10986293Y-12892414D01*
X10984741Y-12893843D01*
X10983545Y-12895421D01*
X10983261Y-12895206D01*
X10941291Y-12933868D01*
X10880517Y-12940954D01*
X10827185Y-12910965D01*
X10813707Y-12892414D01*
X10812365Y-12890027D01*
X10812364Y-12890026D01*
X10812364Y-12890025D01*
X10725078Y-12774922D01*
X10609975Y-12687636D01*
X10609972Y-12687634D01*
X10609971Y-12687634D01*
X10588181Y-12679041D01*
X10540984Y-12640105D01*
X10525500Y-12586944D01*
X10525500Y-12347671D01*
X10544407Y-12289480D01*
X10574998Y-12261935D01*
X10624216Y-12233520D01*
X10736020Y-12121716D01*
X10815077Y-11984784D01*
X10856000Y-11832057D01*
X10856000Y-11673943D01*
X10815077Y-11521216D01*
X10736020Y-11384284D01*
X10624216Y-11272480D01*
X10487284Y-11193423D01*
X10334557Y-11152500D01*
X10176443Y-11152500D01*
X10023716Y-11193423D01*
X9886784Y-11272480D01*
X9774980Y-11384284D01*
X9695923Y-11521216D01*
X9655000Y-11673943D01*
X9655000Y-11832057D01*
X9669590Y-11886507D01*
X9695923Y-11984785D01*
X9711237Y-12011309D01*
X9724500Y-12060808D01*
X9724500Y-12586944D01*
X9705593Y-12645135D01*
X9661819Y-12679041D01*
X9640028Y-12687634D01*
X9640025Y-12687635D01*
X9640025Y-12687636D01*
X9573732Y-12737908D01*
X9524922Y-12774922D01*
X9437634Y-12890027D01*
X9384641Y-13024408D01*
X9374500Y-13108851D01*
X9374500Y-13691142D01*
X9374677Y-13694104D01*
X9373113Y-13694197D01*
X9362387Y-13748699D01*
X9317541Y-13790322D01*
X9275912Y-13799500D01*
X8868333Y-13799500D01*
X8810142Y-13780593D01*
X8786018Y-13755501D01*
X8699466Y-13625967D01*
X8574038Y-13500539D01*
X8574035Y-13500536D01*
X8562402Y-13492763D01*
X8524525Y-13444713D01*
X8522125Y-13383575D01*
X8547404Y-13340445D01*
X8570117Y-13317734D01*
X8640176Y-13196388D01*
X8647461Y-13183771D01*
X8647461Y-13183769D01*
X8647463Y-13183767D01*
X8687500Y-13034346D01*
X8687500Y-11565654D01*
X8647463Y-11416233D01*
X8647461Y-11416230D01*
X8647461Y-11416228D01*
X8570120Y-11282270D01*
X8570116Y-11282264D01*
X8529496Y-11241644D01*
X8501719Y-11187127D01*
X8500500Y-11171641D01*
X8500500Y-10468001D01*
X8519407Y-10409810D01*
X8529496Y-10397997D01*
X8958697Y-9968796D01*
X9013214Y-9941019D01*
X9028701Y-9939800D01*
X9098055Y-9939800D01*
X9098057Y-9939800D01*
X9250784Y-9898877D01*
X9387716Y-9819820D01*
X9499520Y-9708016D01*
X9505102Y-9698346D01*
X9525999Y-9679528D01*
X9545896Y-9659632D01*
X9548562Y-9659209D01*
X9550568Y-9657404D01*
X9578539Y-9654462D01*
X9606328Y-9650061D01*
X9608733Y-9651286D01*
X9611418Y-9651004D01*
X9660845Y-9677838D01*
X9744304Y-9761297D01*
X9772081Y-9815814D01*
X9773300Y-9831301D01*
X9773300Y-9905057D01*
X9814223Y-10057784D01*
X9893280Y-10194716D01*
X10005084Y-10306520D01*
X10142016Y-10385577D01*
X10294743Y-10426500D01*
X10294745Y-10426500D01*
X10452855Y-10426500D01*
X10452857Y-10426500D01*
X10605584Y-10385577D01*
X10742516Y-10306520D01*
X10854320Y-10194716D01*
X10933377Y-10057784D01*
X10974300Y-9905057D01*
X10974300Y-9746943D01*
X10948357Y-9650122D01*
X10951560Y-9589021D01*
X10990065Y-9541471D01*
X11043984Y-9525500D01*
X11091142Y-9525500D01*
X11091144Y-9525500D01*
X11175590Y-9515359D01*
X11309975Y-9462364D01*
X11425078Y-9375078D01*
X11512364Y-9259975D01*
X11565359Y-9125590D01*
X11575500Y-9041144D01*
X11575500Y-8508856D01*
X11565359Y-8424410D01*
X11538861Y-8357217D01*
X11512365Y-8290027D01*
X11512364Y-8290026D01*
X11512364Y-8290025D01*
X11425078Y-8174922D01*
X11309975Y-8087636D01*
X11309974Y-8087635D01*
X11309972Y-8087634D01*
X11175591Y-8034641D01*
X11091148Y-8024500D01*
X11091144Y-8024500D01*
X10656901Y-8024500D01*
X10598710Y-8005593D01*
X10586897Y-7995504D01*
X10437396Y-7846003D01*
X10409619Y-7791486D01*
X10408400Y-7775999D01*
X10408400Y-5104401D01*
X10427307Y-5046210D01*
X10476807Y-5010246D01*
X10537993Y-5010246D01*
X10577404Y-5034397D01*
X15376504Y-9833497D01*
X15404281Y-9888014D01*
X15405500Y-9903501D01*
X15405500Y-25634973D01*
X15405500Y-25740427D01*
X15422109Y-25802414D01*
X15432794Y-25842292D01*
X15485516Y-25933608D01*
X15485517Y-25933609D01*
X15485518Y-25933610D01*
X15485520Y-25933613D01*
X18721590Y-29169683D01*
X21877819Y-32325912D01*
X21877820Y-32325913D01*
X21877819Y-32325913D01*
X21952387Y-32400480D01*
X22043713Y-32453207D01*
X22126125Y-32475289D01*
X22177438Y-32508612D01*
X22195097Y-32541716D01*
X22199501Y-32555983D01*
X22199501Y-32574864D01*
X22202415Y-32599991D01*
X22237869Y-32680286D01*
X22239571Y-32685801D01*
X22239200Y-32710899D01*
X22241748Y-32735882D01*
X22238692Y-32745286D01*
X22238667Y-32746980D01*
X22237739Y-32748217D01*
X22235540Y-32754987D01*
X22202415Y-32830009D01*
X22202414Y-32830011D01*
X22199500Y-32855130D01*
X22199500Y-32859085D01*
X22180593Y-32917276D01*
X22131093Y-32953240D01*
X22126138Y-32954707D01*
X22043713Y-32976793D01*
X22043712Y-32976793D01*
X22043710Y-32976794D01*
X22043709Y-32976794D01*
X21952389Y-33029518D01*
X21877818Y-33104089D01*
X21825094Y-33195409D01*
X21825094Y-33195410D01*
X21797800Y-33297274D01*
X21797800Y-43368099D01*
X21778893Y-43426290D01*
X21768804Y-43438103D01*
X20679516Y-44527391D01*
X20626793Y-44618711D01*
X20626792Y-44618712D01*
X20626793Y-44618713D01*
X20604711Y-44701123D01*
X20571386Y-44752438D01*
X20514265Y-44774364D01*
X20509086Y-44774500D01*
X20455139Y-44774500D01*
X20455135Y-44774501D01*
X20430009Y-44777414D01*
X20327235Y-44822794D01*
X20247794Y-44902235D01*
X20202414Y-45005011D01*
X20199500Y-45030130D01*
X20199500Y-45869860D01*
X20199501Y-45869863D01*
X20202414Y-45894990D01*
X20227756Y-45952385D01*
X20247794Y-45997765D01*
X20327235Y-46077206D01*
X20430009Y-46122585D01*
X20455135Y-46125500D01*
X20500500Y-46125499D01*
X20558689Y-46144405D01*
X20594654Y-46193904D01*
X20599500Y-46224499D01*
X20599500Y-48375500D01*
X20580593Y-48433691D01*
X20531093Y-48469655D01*
X20500502Y-48474500D01*
X20455139Y-48474500D01*
X20455135Y-48474501D01*
X20430009Y-48477414D01*
X20327235Y-48522794D01*
X20247794Y-48602235D01*
X20226042Y-48651500D01*
X20208827Y-48690488D01*
X20168026Y-48736084D01*
X20118262Y-48749500D01*
X19627727Y-48749500D01*
X19522273Y-48749500D01*
X19459929Y-48766204D01*
X19420407Y-48776794D01*
X19329091Y-48829516D01*
X17463103Y-50695504D01*
X17408586Y-50723281D01*
X17393099Y-50724500D01*
X16958851Y-50724500D01*
X16874408Y-50734641D01*
X16740027Y-50787634D01*
X16624922Y-50874922D01*
X16537634Y-50990027D01*
X16484641Y-51124408D01*
X16474500Y-51208851D01*
X16474500Y-51791151D01*
X16477628Y-51817197D01*
X16465793Y-51877227D01*
X16420934Y-51918836D01*
X16379334Y-51928000D01*
X15091801Y-51928000D01*
X15033610Y-51909093D01*
X15021797Y-51899004D01*
X14291086Y-51168293D01*
X13515213Y-50392420D01*
X13515210Y-50392418D01*
X13515209Y-50392417D01*
X13515208Y-50392416D01*
X13423891Y-50339694D01*
X13423893Y-50339694D01*
X13373877Y-50326293D01*
X13322027Y-50312400D01*
X7959373Y-50312400D01*
X7908443Y-50326046D01*
X7857511Y-50339693D01*
X7799465Y-50373205D01*
X7799466Y-50373206D01*
X7766186Y-50392420D01*
X7463102Y-50695504D01*
X7408586Y-50723281D01*
X7393099Y-50724500D01*
X6958851Y-50724500D01*
X6874408Y-50734641D01*
X6740027Y-50787634D01*
X6624922Y-50874922D01*
X6537634Y-50990027D01*
X6484641Y-51124408D01*
X6474500Y-51208851D01*
X6474500Y-51791148D01*
X6484641Y-51875591D01*
X6537634Y-52009972D01*
X6537635Y-52009974D01*
X6537636Y-52009975D01*
X6624922Y-52125078D01*
X6740025Y-52212364D01*
X6740026Y-52212364D01*
X6740027Y-52212365D01*
X6761191Y-52220711D01*
X6874410Y-52265359D01*
X6958856Y-52275500D01*
X6958858Y-52275500D01*
X7491142Y-52275500D01*
X7491144Y-52275500D01*
X7575590Y-52265359D01*
X7709975Y-52212364D01*
X7825078Y-52125078D01*
X7912364Y-52009975D01*
X7965359Y-51875590D01*
X7975500Y-51791144D01*
X7975500Y-51356901D01*
X7994407Y-51298710D01*
X8004496Y-51286897D01*
X8148997Y-51142396D01*
X8203514Y-51114619D01*
X8219001Y-51113400D01*
X13062399Y-51113400D01*
X13120590Y-51132307D01*
X13132403Y-51142396D01*
X14564420Y-52574413D01*
X14564419Y-52574413D01*
X14612879Y-52622872D01*
X14638987Y-52648980D01*
X14730313Y-52701707D01*
X14832173Y-52729000D01*
X14832175Y-52729000D01*
X26449225Y-52729000D01*
X26449227Y-52729000D01*
X26551088Y-52701707D01*
X26551090Y-52701705D01*
X26551092Y-52701705D01*
X26642408Y-52648983D01*
X26642408Y-52648982D01*
X26642413Y-52648980D01*
X26898295Y-52393098D01*
X26986898Y-52304496D01*
X27041414Y-52276719D01*
X27056901Y-52275500D01*
X27491142Y-52275500D01*
X27491144Y-52275500D01*
X27575590Y-52265359D01*
X27709975Y-52212364D01*
X27825078Y-52125078D01*
X27912364Y-52009975D01*
X27965359Y-51875590D01*
X27975500Y-51791144D01*
X27975500Y-51356901D01*
X27994407Y-51298710D01*
X28004496Y-51286897D01*
X28162397Y-51128996D01*
X28216914Y-51101219D01*
X28232401Y-51100000D01*
X36042599Y-51100000D01*
X36050196Y-51102468D01*
X36058086Y-51101219D01*
X36078741Y-51111743D01*
X36100790Y-51118907D01*
X36112603Y-51128996D01*
X36220504Y-51236897D01*
X36248281Y-51291414D01*
X36249500Y-51306901D01*
X36249500Y-52018106D01*
X36260123Y-52106565D01*
X36315637Y-52247339D01*
X36315638Y-52247341D01*
X36315639Y-52247342D01*
X36407078Y-52367922D01*
X36527658Y-52459361D01*
X36527659Y-52459361D01*
X36527660Y-52459362D01*
X36537144Y-52463102D01*
X36668436Y-52514877D01*
X36756898Y-52525500D01*
X36756900Y-52525500D01*
X37343100Y-52525500D01*
X37343102Y-52525500D01*
X37431564Y-52514877D01*
X37572342Y-52459361D01*
X37692922Y-52367922D01*
X37784361Y-52247342D01*
X37839877Y-52106564D01*
X37850500Y-52018102D01*
X37850500Y-51306899D01*
X37869407Y-51248709D01*
X37879496Y-51236896D01*
X38229396Y-50886996D01*
X38283913Y-50859219D01*
X38299400Y-50858000D01*
X45800600Y-50858000D01*
X45858791Y-50876907D01*
X45870603Y-50886996D01*
X46220503Y-51236895D01*
X46248281Y-51291412D01*
X46249500Y-51306899D01*
X46249500Y-52018106D01*
X46260123Y-52106565D01*
X46315637Y-52247339D01*
X46315638Y-52247341D01*
X46315639Y-52247342D01*
X46407078Y-52367922D01*
X46527658Y-52459361D01*
X46527659Y-52459361D01*
X46527660Y-52459362D01*
X46537144Y-52463102D01*
X46668436Y-52514877D01*
X46756898Y-52525500D01*
X46756900Y-52525500D01*
X47343100Y-52525500D01*
X47343102Y-52525500D01*
X47431564Y-52514877D01*
X47431564Y-52514876D01*
X47437866Y-52514120D01*
X47438050Y-52515658D01*
X47491523Y-52519223D01*
X47524738Y-52541130D01*
X47762318Y-52778710D01*
X47762320Y-52778713D01*
X47836887Y-52853280D01*
X47882550Y-52879643D01*
X47928212Y-52906007D01*
X48030073Y-52933300D01*
X48030075Y-52933300D01*
X56069925Y-52933300D01*
X56069927Y-52933300D01*
X56171788Y-52906007D01*
X56171790Y-52906005D01*
X56171792Y-52906005D01*
X56263108Y-52853283D01*
X56263108Y-52853282D01*
X56263113Y-52853280D01*
X56575263Y-52541128D01*
X56629778Y-52513352D01*
X56662050Y-52514815D01*
X56662134Y-52514120D01*
X56668435Y-52514876D01*
X56668436Y-52514877D01*
X56756898Y-52525500D01*
X56756900Y-52525500D01*
X57343100Y-52525500D01*
X57343102Y-52525500D01*
X57431564Y-52514877D01*
X57431564Y-52514876D01*
X57437866Y-52514120D01*
X57438050Y-52515659D01*
X57491518Y-52519222D01*
X57524736Y-52541130D01*
X57834786Y-52851179D01*
X57834791Y-52851183D01*
X57926108Y-52903905D01*
X57926106Y-52903905D01*
X57926110Y-52903906D01*
X57926112Y-52903907D01*
X58027973Y-52931200D01*
X58133427Y-52931200D01*
X60582705Y-52931200D01*
X60640896Y-52950107D01*
X60642034Y-52950947D01*
X60732670Y-53018797D01*
X60867511Y-53069089D01*
X60867512Y-53069089D01*
X60867517Y-53069091D01*
X60927127Y-53075500D01*
X61343098Y-53075499D01*
X61350695Y-53077967D01*
X61358585Y-53076718D01*
X61379240Y-53087242D01*
X61401289Y-53094406D01*
X61413102Y-53104495D01*
X61519603Y-53210996D01*
X61547380Y-53265513D01*
X61537809Y-53325945D01*
X61494544Y-53369210D01*
X61449599Y-53380000D01*
X2485547Y-53380000D01*
X2458140Y-53376131D01*
X2300357Y-53330674D01*
X2289878Y-53327007D01*
X2022542Y-53216272D01*
X2012540Y-53211455D01*
X1759288Y-53071488D01*
X1749888Y-53065582D01*
X1513893Y-52898135D01*
X1505213Y-52891213D01*
X1379322Y-52778710D01*
X1289444Y-52698390D01*
X1281609Y-52690555D01*
X1088784Y-52474783D01*
X1081864Y-52466106D01*
X1017586Y-52375515D01*
X914417Y-52230111D01*
X908511Y-52220711D01*
X768544Y-51967459D01*
X763727Y-51957457D01*
X751525Y-51928000D01*
X652990Y-51690117D01*
X649325Y-51679641D01*
X603869Y-51521858D01*
X600000Y-51494452D01*
X600000Y-45030130D01*
X8199500Y-45030130D01*
X8199500Y-45869860D01*
X8199501Y-45869863D01*
X8202414Y-45894990D01*
X8227756Y-45952385D01*
X8247794Y-45997765D01*
X8327235Y-46077206D01*
X8430009Y-46122585D01*
X8455135Y-46125500D01*
X8500500Y-46125499D01*
X8558689Y-46144405D01*
X8594654Y-46193904D01*
X8599500Y-46224499D01*
X8599500Y-48375500D01*
X8580593Y-48433691D01*
X8531093Y-48469655D01*
X8500502Y-48474500D01*
X8455139Y-48474500D01*
X8455135Y-48474501D01*
X8430009Y-48477414D01*
X8327235Y-48522794D01*
X8247794Y-48602235D01*
X8202414Y-48705011D01*
X8199500Y-48730130D01*
X8199500Y-49569860D01*
X8199501Y-49569863D01*
X8202414Y-49594990D01*
X8217705Y-49629620D01*
X8247794Y-49697765D01*
X8327235Y-49777206D01*
X8430009Y-49822585D01*
X8455135Y-49825500D01*
X9544864Y-49825499D01*
X9569991Y-49822585D01*
X9672765Y-49777206D01*
X9752206Y-49697765D01*
X9797585Y-49594991D01*
X9800500Y-49569865D01*
X9800499Y-48730136D01*
X9797585Y-48705009D01*
X9752206Y-48602235D01*
X9672765Y-48522794D01*
X9569991Y-48477415D01*
X9569990Y-48477414D01*
X9569988Y-48477414D01*
X9544869Y-48474500D01*
X9544865Y-48474500D01*
X9499500Y-48474500D01*
X9441309Y-48455593D01*
X9405345Y-48406093D01*
X9400500Y-48375500D01*
X9400500Y-46224499D01*
X9419407Y-46166308D01*
X9468907Y-46130344D01*
X9499500Y-46125499D01*
X9544861Y-46125499D01*
X9544864Y-46125499D01*
X9569991Y-46122585D01*
X9672765Y-46077206D01*
X9752206Y-45997765D01*
X9791173Y-45909511D01*
X9831974Y-45863916D01*
X9881738Y-45850500D01*
X12244225Y-45850500D01*
X12244227Y-45850500D01*
X12346088Y-45823207D01*
X12346090Y-45823205D01*
X12346092Y-45823205D01*
X12437408Y-45770483D01*
X12437408Y-45770482D01*
X12437413Y-45770480D01*
X19167397Y-39040496D01*
X19221914Y-39012719D01*
X19237401Y-39011500D01*
X19309555Y-39011500D01*
X19309557Y-39011500D01*
X19462284Y-38970577D01*
X19599216Y-38891520D01*
X19711020Y-38779716D01*
X19790077Y-38642784D01*
X19831000Y-38490057D01*
X19831000Y-38331943D01*
X19790077Y-38179216D01*
X19711020Y-38042284D01*
X19599216Y-37930480D01*
X19462284Y-37851423D01*
X19309557Y-37810500D01*
X19151443Y-37810500D01*
X18998716Y-37851423D01*
X18861784Y-37930480D01*
X18749980Y-38042284D01*
X18670923Y-38179216D01*
X18630000Y-38331944D01*
X18630000Y-38404099D01*
X18611093Y-38462290D01*
X18601004Y-38474103D01*
X12054603Y-45020504D01*
X12000086Y-45048281D01*
X11984599Y-45049500D01*
X9881738Y-45049500D01*
X9823547Y-45030593D01*
X9791173Y-44990488D01*
X9752206Y-44902235D01*
X9672765Y-44822794D01*
X9569991Y-44777415D01*
X9569990Y-44777414D01*
X9569988Y-44777414D01*
X9544868Y-44774500D01*
X8455139Y-44774500D01*
X8455136Y-44774501D01*
X8430009Y-44777414D01*
X8327235Y-44822794D01*
X8247794Y-44902235D01*
X8202414Y-45005011D01*
X8199500Y-45030130D01*
X600000Y-45030130D01*
X600000Y-2485546D01*
X603869Y-2458139D01*
X604343Y-2456494D01*
X649328Y-2300347D01*
X652988Y-2289888D01*
X763729Y-2022535D01*
X768544Y-2012540D01*
X809420Y-1938581D01*
X908515Y-1759280D01*
X914412Y-1749895D01*
X1081872Y-1513882D01*
X1088776Y-1505224D01*
X1281617Y-1289435D01*
X1289435Y-1281617D01*
X1505224Y-1088776D01*
X1513882Y-1081872D01*
X1749895Y-914412D01*
X1759280Y-908515D01*
X2012546Y-768541D01*
X2022535Y-763729D01*
X2289888Y-652988D01*
X2300353Y-649326D01*
X2388687Y-623877D01*
X2458141Y-603869D01*
X2485547Y-600000D01*
X83114453Y-600000D01*
X83141859Y-603868D01*
G37*
%TD.AperFunction*%
%TA.AperFunction,Conductor*%
G36*
X52748390Y-32499407D02*
G01*
X52760203Y-32509496D01*
X63379603Y-43128896D01*
X63407380Y-43183413D01*
X63397809Y-43243845D01*
X63354544Y-43287110D01*
X63309599Y-43297900D01*
X63227743Y-43297900D01*
X63075016Y-43338823D01*
X62938084Y-43417880D01*
X62826280Y-43529684D01*
X62747223Y-43666616D01*
X62706300Y-43819343D01*
X62706300Y-43977457D01*
X62747223Y-44130184D01*
X62826280Y-44267116D01*
X62938084Y-44378920D01*
X63075016Y-44457977D01*
X63227743Y-44498900D01*
X63299900Y-44498900D01*
X63307497Y-44501368D01*
X63315387Y-44500119D01*
X63336042Y-44510643D01*
X63358091Y-44517807D01*
X63369904Y-44527896D01*
X63416204Y-44574196D01*
X63443981Y-44628713D01*
X63445200Y-44644200D01*
X63445200Y-48659356D01*
X63426293Y-48717547D01*
X63416204Y-48729359D01*
X63365182Y-48780381D01*
X63365180Y-48780383D01*
X63365180Y-48780384D01*
X63286123Y-48917316D01*
X63245200Y-49070043D01*
X63245200Y-49228157D01*
X63286123Y-49380884D01*
X63365180Y-49517816D01*
X63476984Y-49629620D01*
X63613916Y-49708677D01*
X63766643Y-49749600D01*
X63766645Y-49749600D01*
X63924755Y-49749600D01*
X63924757Y-49749600D01*
X64077484Y-49708677D01*
X64214416Y-49629620D01*
X64326220Y-49517816D01*
X64405277Y-49380884D01*
X64446200Y-49228157D01*
X64446200Y-49070043D01*
X64405277Y-48917316D01*
X64326220Y-48780384D01*
X64322629Y-48776793D01*
X64275196Y-48729359D01*
X64247419Y-48674842D01*
X64246200Y-48659356D01*
X64246200Y-44498014D01*
X64246201Y-44498001D01*
X64246201Y-44384572D01*
X64246200Y-44384570D01*
X64218907Y-44282713D01*
X64205152Y-44258889D01*
X64205152Y-44258888D01*
X64165265Y-44189802D01*
X64152543Y-44129954D01*
X64177430Y-44074058D01*
X64230418Y-44043465D01*
X64291268Y-44049861D01*
X64321005Y-44070298D01*
X69598804Y-49348097D01*
X69626581Y-49402614D01*
X69627800Y-49418101D01*
X69627800Y-50052727D01*
X69650385Y-50137016D01*
X69655094Y-50154589D01*
X69655094Y-50154590D01*
X69688003Y-50211589D01*
X69707820Y-50245913D01*
X69782387Y-50320480D01*
X69873713Y-50373207D01*
X69956125Y-50395289D01*
X70007438Y-50428612D01*
X70029365Y-50485733D01*
X70029501Y-50490915D01*
X70029501Y-50902200D01*
X70010594Y-50960391D01*
X69961094Y-50996355D01*
X69930501Y-51001200D01*
X67149500Y-51001200D01*
X67091309Y-50982293D01*
X67055345Y-50932793D01*
X67050500Y-50902200D01*
X67050499Y-48855139D01*
X67050499Y-48855136D01*
X67047585Y-48830009D01*
X67002206Y-48727235D01*
X66922765Y-48647794D01*
X66819991Y-48602415D01*
X66819990Y-48602414D01*
X66819988Y-48602414D01*
X66794868Y-48599500D01*
X65205139Y-48599500D01*
X65205136Y-48599501D01*
X65180009Y-48602414D01*
X65077235Y-48647794D01*
X64997794Y-48727235D01*
X64952414Y-48830011D01*
X64949500Y-48855130D01*
X64949500Y-51144860D01*
X64949501Y-51144863D01*
X64952414Y-51169990D01*
X64977756Y-51227385D01*
X64997794Y-51272765D01*
X65077235Y-51352206D01*
X65180009Y-51397585D01*
X65198682Y-51399751D01*
X65207582Y-51400784D01*
X65263206Y-51426271D01*
X65293226Y-51479586D01*
X65286175Y-51540363D01*
X65266177Y-51569128D01*
X64154303Y-52681004D01*
X64099786Y-52708781D01*
X64084299Y-52710000D01*
X63624500Y-52710000D01*
X63566309Y-52691093D01*
X63530345Y-52641593D01*
X63525500Y-52611000D01*
X63525499Y-51977133D01*
X63525499Y-51977128D01*
X63519091Y-51917517D01*
X63503454Y-51875591D01*
X63468797Y-51782670D01*
X63382549Y-51667458D01*
X63382548Y-51667457D01*
X63382546Y-51667454D01*
X63350012Y-51643099D01*
X63267329Y-51581202D01*
X63132488Y-51530910D01*
X63132483Y-51530909D01*
X63132481Y-51530908D01*
X63132477Y-51530908D01*
X63101249Y-51527550D01*
X63072873Y-51524500D01*
X63072870Y-51524500D01*
X62656900Y-51524500D01*
X62598709Y-51505593D01*
X62586896Y-51495504D01*
X56861872Y-45770480D01*
X49790813Y-38699420D01*
X49790810Y-38699418D01*
X49790808Y-38699416D01*
X49699491Y-38646694D01*
X49699493Y-38646694D01*
X49659970Y-38636104D01*
X49597627Y-38619400D01*
X49597625Y-38619400D01*
X42333501Y-38619400D01*
X42275310Y-38600493D01*
X42263497Y-38590404D01*
X39681183Y-36008090D01*
X39653406Y-35953573D01*
X39662977Y-35893141D01*
X39701686Y-35852350D01*
X39752316Y-35823120D01*
X39864120Y-35711316D01*
X39943177Y-35574384D01*
X39978146Y-35443874D01*
X40011470Y-35392562D01*
X40068592Y-35370635D01*
X40073773Y-35370499D01*
X41544861Y-35370499D01*
X41544864Y-35370499D01*
X41569991Y-35367585D01*
X41672765Y-35322206D01*
X41752206Y-35242765D01*
X41797585Y-35139991D01*
X41800500Y-35114865D01*
X41800499Y-34125136D01*
X41797585Y-34100009D01*
X41764460Y-34024987D01*
X41758251Y-33964118D01*
X41764457Y-33945018D01*
X41797585Y-33869991D01*
X41800500Y-33844865D01*
X41800499Y-32855136D01*
X41797585Y-32830009D01*
X41764460Y-32754987D01*
X41763919Y-32749690D01*
X41760799Y-32745374D01*
X41761704Y-32727972D01*
X41758251Y-32694118D01*
X41760940Y-32684189D01*
X41762467Y-32679525D01*
X41797585Y-32599991D01*
X41800500Y-32574865D01*
X41800500Y-32563387D01*
X41805313Y-32548690D01*
X41816126Y-32533879D01*
X41822789Y-32516792D01*
X41833728Y-32509769D01*
X41841392Y-32499273D01*
X41858844Y-32493646D01*
X41874279Y-32483739D01*
X41899397Y-32480500D01*
X52690199Y-32480500D01*
X52748390Y-32499407D01*
G37*
%TD.AperFunction*%
%TA.AperFunction,Conductor*%
G36*
X34446390Y-33769407D02*
G01*
X34458203Y-33779496D01*
X39803204Y-39124497D01*
X39830981Y-39179014D01*
X39832200Y-39194501D01*
X39832200Y-39266657D01*
X39873123Y-39419384D01*
X39952180Y-39556316D01*
X40063984Y-39668120D01*
X40200916Y-39747177D01*
X40353643Y-39788100D01*
X40353645Y-39788100D01*
X40511755Y-39788100D01*
X40511757Y-39788100D01*
X40664484Y-39747177D01*
X40801416Y-39668120D01*
X40913220Y-39556316D01*
X40992277Y-39419384D01*
X40995849Y-39406052D01*
X41029169Y-39354740D01*
X41086290Y-39332811D01*
X41145391Y-39348645D01*
X41161479Y-39361671D01*
X41358304Y-39558496D01*
X41386081Y-39613013D01*
X41387300Y-39628500D01*
X41387300Y-39700657D01*
X41428223Y-39853384D01*
X41507280Y-39990316D01*
X41619084Y-40102120D01*
X41756016Y-40181177D01*
X41908743Y-40222100D01*
X41908745Y-40222100D01*
X42066855Y-40222100D01*
X42066857Y-40222100D01*
X42219584Y-40181177D01*
X42356516Y-40102120D01*
X42468320Y-39990316D01*
X42547377Y-39853384D01*
X42588300Y-39700657D01*
X42588300Y-39542543D01*
X42588299Y-39542542D01*
X42587453Y-39536111D01*
X42589444Y-39535848D01*
X42592166Y-39483922D01*
X42630672Y-39436372D01*
X42684591Y-39420400D01*
X49337999Y-39420400D01*
X49396190Y-39439307D01*
X49408003Y-39449396D01*
X61314103Y-51355496D01*
X61341880Y-51410013D01*
X61332309Y-51470445D01*
X61289044Y-51513710D01*
X61244099Y-51524500D01*
X60927133Y-51524500D01*
X60927129Y-51524500D01*
X60927128Y-51524501D01*
X60919949Y-51525272D01*
X60867519Y-51530908D01*
X60867514Y-51530909D01*
X60732670Y-51581202D01*
X60617458Y-51667450D01*
X60617450Y-51667458D01*
X60531202Y-51782670D01*
X60480910Y-51917511D01*
X60480909Y-51917517D01*
X60475540Y-51967459D01*
X60474500Y-51977129D01*
X60474500Y-52031200D01*
X60455593Y-52089391D01*
X60406093Y-52125355D01*
X60375500Y-52130200D01*
X58287601Y-52130200D01*
X58229410Y-52111293D01*
X58217597Y-52101204D01*
X57879496Y-51763103D01*
X57851719Y-51708586D01*
X57850500Y-51693099D01*
X57850500Y-50981899D01*
X57850499Y-50981893D01*
X57840929Y-50902200D01*
X57839877Y-50893436D01*
X57784361Y-50752658D01*
X57692922Y-50632078D01*
X57572342Y-50540639D01*
X57572341Y-50540638D01*
X57572339Y-50540637D01*
X57431565Y-50485123D01*
X57343106Y-50474500D01*
X57343102Y-50474500D01*
X56756898Y-50474500D01*
X56756893Y-50474500D01*
X56668434Y-50485123D01*
X56527660Y-50540637D01*
X56527656Y-50540640D01*
X56407081Y-50632075D01*
X56407075Y-50632081D01*
X56315640Y-50752656D01*
X56315637Y-50752660D01*
X56260123Y-50893434D01*
X56249500Y-50981893D01*
X56249500Y-51693099D01*
X56230593Y-51751290D01*
X56220504Y-51763103D01*
X55880303Y-52103304D01*
X55825786Y-52131081D01*
X55810299Y-52132300D01*
X48289699Y-52132300D01*
X48231508Y-52113393D01*
X48219695Y-52103303D01*
X47879496Y-51763103D01*
X47851719Y-51708587D01*
X47850500Y-51693100D01*
X47850500Y-50981899D01*
X47850499Y-50981893D01*
X47840929Y-50902200D01*
X47839877Y-50893436D01*
X47784361Y-50752658D01*
X47692922Y-50632078D01*
X47572342Y-50540639D01*
X47572341Y-50540638D01*
X47572339Y-50540637D01*
X47431565Y-50485123D01*
X47343106Y-50474500D01*
X47343102Y-50474500D01*
X46756898Y-50474500D01*
X46756893Y-50474500D01*
X46687664Y-50482813D01*
X46668436Y-50485123D01*
X46668435Y-50485123D01*
X46662134Y-50485880D01*
X46661949Y-50484345D01*
X46608460Y-50480769D01*
X46575263Y-50458869D01*
X46253413Y-50137020D01*
X46253408Y-50137016D01*
X46162091Y-50084294D01*
X46162093Y-50084294D01*
X46122570Y-50073704D01*
X46060227Y-50057000D01*
X46060225Y-50057000D01*
X38151306Y-50057000D01*
X38151290Y-50056999D01*
X38145227Y-50056999D01*
X38039773Y-50056999D01*
X38039770Y-50056999D01*
X37937913Y-50084292D01*
X37937909Y-50084294D01*
X37846587Y-50137019D01*
X37772019Y-50211586D01*
X37772020Y-50211587D01*
X37772018Y-50211589D01*
X37772017Y-50211589D01*
X37524736Y-50458869D01*
X37470220Y-50486646D01*
X37437949Y-50485187D01*
X37437866Y-50485880D01*
X37431564Y-50485123D01*
X37407966Y-50482289D01*
X37343106Y-50474500D01*
X37343102Y-50474500D01*
X36756898Y-50474500D01*
X36756893Y-50474500D01*
X36687664Y-50482813D01*
X36668436Y-50485123D01*
X36668435Y-50485123D01*
X36662134Y-50485880D01*
X36661949Y-50484345D01*
X36608460Y-50480769D01*
X36575263Y-50458869D01*
X36495413Y-50379020D01*
X36495408Y-50379016D01*
X36404091Y-50326294D01*
X36404093Y-50326294D01*
X36364570Y-50315704D01*
X36302227Y-50299000D01*
X36302225Y-50299000D01*
X28525000Y-50299000D01*
X28466809Y-50280093D01*
X28430845Y-50230593D01*
X28426000Y-50200000D01*
X28426000Y-38291074D01*
X28426000Y-38291073D01*
X28398707Y-38189213D01*
X28392935Y-38179216D01*
X28345980Y-38097887D01*
X28271413Y-38023319D01*
X28271413Y-38023320D01*
X24547613Y-34299520D01*
X24547610Y-34299518D01*
X24547609Y-34299517D01*
X24547608Y-34299516D01*
X24456291Y-34246794D01*
X24456292Y-34246794D01*
X24373876Y-34224711D01*
X24322561Y-34191387D01*
X24304903Y-34158283D01*
X24300499Y-34144015D01*
X24300499Y-34125136D01*
X24297585Y-34100009D01*
X24262128Y-34019708D01*
X24260428Y-34014198D01*
X24260798Y-33989092D01*
X24258251Y-33964118D01*
X24261305Y-33954716D01*
X24261331Y-33953019D01*
X24262260Y-33951778D01*
X24264457Y-33945018D01*
X24297585Y-33869991D01*
X24300500Y-33844865D01*
X24300500Y-33844847D01*
X24300561Y-33843797D01*
X24300651Y-33843565D01*
X24300830Y-33842024D01*
X24301234Y-33842070D01*
X24322789Y-33786792D01*
X24374279Y-33753739D01*
X24399397Y-33750500D01*
X34388199Y-33750500D01*
X34446390Y-33769407D01*
G37*
%TD.AperFunction*%
%TA.AperFunction,Conductor*%
G36*
X24350082Y-35241629D02*
G01*
X24375142Y-35259835D01*
X27596004Y-38480697D01*
X27623781Y-38535214D01*
X27625000Y-38550701D01*
X27625000Y-50492599D01*
X27622531Y-50500196D01*
X27623781Y-50508086D01*
X27613256Y-50528741D01*
X27606093Y-50550790D01*
X27596004Y-50562603D01*
X27463103Y-50695504D01*
X27408586Y-50723281D01*
X27393099Y-50724500D01*
X26958851Y-50724500D01*
X26874408Y-50734641D01*
X26740027Y-50787634D01*
X26624922Y-50874922D01*
X26537634Y-50990027D01*
X26484641Y-51124408D01*
X26474500Y-51208851D01*
X26474500Y-51643099D01*
X26455593Y-51701290D01*
X26445504Y-51713103D01*
X26259603Y-51899004D01*
X26205086Y-51926781D01*
X26189599Y-51928000D01*
X18070666Y-51928000D01*
X18012475Y-51909093D01*
X17976511Y-51859593D01*
X17972372Y-51817197D01*
X17975499Y-51791151D01*
X17975500Y-51791144D01*
X17975500Y-51356901D01*
X17994407Y-51298710D01*
X18004496Y-51286897D01*
X19711897Y-49579496D01*
X19766414Y-49551719D01*
X19781901Y-49550500D01*
X20118262Y-49550500D01*
X20176453Y-49569407D01*
X20208826Y-49609510D01*
X20247794Y-49697765D01*
X20327235Y-49777206D01*
X20430009Y-49822585D01*
X20455135Y-49825500D01*
X21544864Y-49825499D01*
X21569991Y-49822585D01*
X21672765Y-49777206D01*
X21752206Y-49697765D01*
X21797585Y-49594991D01*
X21800500Y-49569865D01*
X21800499Y-48730136D01*
X21797585Y-48705009D01*
X21752206Y-48602235D01*
X21672765Y-48522794D01*
X21569991Y-48477415D01*
X21569990Y-48477414D01*
X21569988Y-48477414D01*
X21544869Y-48474500D01*
X21544865Y-48474500D01*
X21499500Y-48474500D01*
X21441309Y-48455593D01*
X21405345Y-48406093D01*
X21400500Y-48375500D01*
X21400500Y-46224499D01*
X21419407Y-46166308D01*
X21468907Y-46130344D01*
X21499500Y-46125499D01*
X21544861Y-46125499D01*
X21544864Y-46125499D01*
X21569991Y-46122585D01*
X21672765Y-46077206D01*
X21752206Y-45997765D01*
X21797585Y-45894991D01*
X21800500Y-45869865D01*
X21800499Y-45030136D01*
X21797585Y-45005009D01*
X21752206Y-44902235D01*
X21672765Y-44822794D01*
X21672763Y-44822793D01*
X21666278Y-44816308D01*
X21668684Y-44813901D01*
X21641291Y-44778300D01*
X21639609Y-44717137D01*
X21664563Y-44675128D01*
X22518780Y-43820913D01*
X22519686Y-43819344D01*
X22571505Y-43729592D01*
X22571505Y-43729590D01*
X22571507Y-43729588D01*
X22598800Y-43627727D01*
X22598800Y-43522273D01*
X22598800Y-35469499D01*
X22617707Y-35411308D01*
X22667207Y-35375344D01*
X22697800Y-35370499D01*
X24044861Y-35370499D01*
X24044864Y-35370499D01*
X24069991Y-35367585D01*
X24172765Y-35322206D01*
X24235136Y-35259834D01*
X24289650Y-35232058D01*
X24350082Y-35241629D01*
G37*
%TD.AperFunction*%
%TA.AperFunction,Conductor*%
G36*
X54018390Y-31229407D02*
G01*
X54030203Y-31239496D01*
X62644091Y-39853384D01*
X71221204Y-48430496D01*
X71248981Y-48485013D01*
X71239410Y-48545445D01*
X71196145Y-48588710D01*
X71151200Y-48599500D01*
X70285139Y-48599500D01*
X70285136Y-48599501D01*
X70260009Y-48602414D01*
X70157232Y-48647795D01*
X70150311Y-48652537D01*
X70091618Y-48669824D01*
X70033974Y-48649310D01*
X70024359Y-48640866D01*
X61605593Y-40222100D01*
X53143013Y-31759520D01*
X53143010Y-31759518D01*
X53143009Y-31759517D01*
X53143008Y-31759516D01*
X53051691Y-31706794D01*
X53051693Y-31706794D01*
X53012170Y-31696204D01*
X52949827Y-31679500D01*
X52949825Y-31679500D01*
X41899396Y-31679500D01*
X41841205Y-31660593D01*
X41805312Y-31611309D01*
X41800499Y-31596611D01*
X41800499Y-31585136D01*
X41797585Y-31560009D01*
X41762470Y-31480482D01*
X41760940Y-31475808D01*
X41760880Y-31449893D01*
X41758251Y-31424118D01*
X41760802Y-31416264D01*
X41760799Y-31414623D01*
X41761774Y-31413273D01*
X41764457Y-31405018D01*
X41797585Y-31329991D01*
X41800500Y-31304865D01*
X41800500Y-31304847D01*
X41800561Y-31303797D01*
X41800651Y-31303565D01*
X41800830Y-31302024D01*
X41801234Y-31302070D01*
X41822789Y-31246792D01*
X41874279Y-31213739D01*
X41899397Y-31210500D01*
X53960199Y-31210500D01*
X54018390Y-31229407D01*
G37*
%TD.AperFunction*%
%TA.AperFunction,Conductor*%
G36*
X61918890Y-36577707D02*
G01*
X61930703Y-36587796D01*
X73773403Y-48430496D01*
X73801180Y-48485013D01*
X73791609Y-48545445D01*
X73748344Y-48588710D01*
X73703399Y-48599500D01*
X72825139Y-48599500D01*
X72825136Y-48599501D01*
X72800009Y-48602414D01*
X72724159Y-48635906D01*
X72697235Y-48647794D01*
X72697234Y-48647794D01*
X72697231Y-48647796D01*
X72690307Y-48652539D01*
X72631614Y-48669824D01*
X72573970Y-48649308D01*
X72564358Y-48640866D01*
X60837410Y-36913917D01*
X60809633Y-36859400D01*
X60819204Y-36798968D01*
X60862469Y-36755703D01*
X60881783Y-36748289D01*
X60995284Y-36717877D01*
X61132216Y-36638820D01*
X61157729Y-36613306D01*
X61183241Y-36587796D01*
X61237758Y-36560019D01*
X61253244Y-36558800D01*
X61860699Y-36558800D01*
X61918890Y-36577707D01*
G37*
%TD.AperFunction*%
%TA.AperFunction,Conductor*%
G36*
X51821791Y-4135107D02*
G01*
X51857755Y-4184607D01*
X51862600Y-4215200D01*
X51862600Y-23510373D01*
X51862600Y-23615827D01*
X51874886Y-23661680D01*
X51889894Y-23717692D01*
X51942616Y-23809008D01*
X51942617Y-23809009D01*
X51942618Y-23809010D01*
X51942620Y-23809013D01*
X64257800Y-36124193D01*
X76564103Y-48430496D01*
X76591880Y-48485013D01*
X76582309Y-48545445D01*
X76539044Y-48588710D01*
X76494099Y-48599500D01*
X75365139Y-48599500D01*
X75365136Y-48599501D01*
X75340009Y-48602414D01*
X75269766Y-48633430D01*
X75237235Y-48647794D01*
X75237234Y-48647794D01*
X75228843Y-48651500D01*
X75228313Y-48650299D01*
X75178852Y-48664864D01*
X75121209Y-48644347D01*
X75111599Y-48635906D01*
X69604589Y-43128896D01*
X62313513Y-35837820D01*
X62313510Y-35837818D01*
X62313509Y-35837817D01*
X62313508Y-35837816D01*
X62222191Y-35785094D01*
X62222193Y-35785094D01*
X62182670Y-35774504D01*
X62120327Y-35757800D01*
X62120325Y-35757800D01*
X61253244Y-35757800D01*
X61195053Y-35738893D01*
X61183241Y-35728804D01*
X61132218Y-35677782D01*
X61132216Y-35677780D01*
X60995284Y-35598723D01*
X60842557Y-35557800D01*
X60842555Y-35557800D01*
X60770401Y-35557800D01*
X60712210Y-35538893D01*
X60700397Y-35528804D01*
X48527496Y-23355903D01*
X48499719Y-23301386D01*
X48498500Y-23285899D01*
X48498500Y-5299666D01*
X48517407Y-5241475D01*
X48538171Y-5220413D01*
X48548923Y-5212364D01*
X48655546Y-5132546D01*
X48741796Y-5017331D01*
X48771736Y-4937059D01*
X48792089Y-4882488D01*
X48792088Y-4882488D01*
X48792091Y-4882483D01*
X48798500Y-4822873D01*
X48798499Y-4215199D01*
X48817406Y-4157009D01*
X48866906Y-4121045D01*
X48897499Y-4116200D01*
X51763600Y-4116200D01*
X51821791Y-4135107D01*
G37*
%TD.AperFunction*%
%TA.AperFunction,Conductor*%
G36*
X78273690Y-4116807D02*
G01*
X78285503Y-4126896D01*
X78445504Y-4286897D01*
X78473281Y-4341414D01*
X78474500Y-4356901D01*
X78474500Y-4791148D01*
X78484641Y-4875591D01*
X78537634Y-5009972D01*
X78537635Y-5009974D01*
X78537636Y-5009975D01*
X78624922Y-5125078D01*
X78740025Y-5212364D01*
X78761818Y-5220957D01*
X78809015Y-5259893D01*
X78824500Y-5313055D01*
X78824500Y-22756399D01*
X78805593Y-22814590D01*
X78795504Y-22826403D01*
X76069516Y-25552391D01*
X76016795Y-25643706D01*
X76016793Y-25643710D01*
X76016793Y-25643712D01*
X75994712Y-25726123D01*
X75961388Y-25777437D01*
X75904266Y-25799364D01*
X75899085Y-25799500D01*
X74245139Y-25799500D01*
X74245136Y-25799501D01*
X74220009Y-25802414D01*
X74117235Y-25847794D01*
X74037794Y-25927235D01*
X73992414Y-26030011D01*
X73989500Y-26055130D01*
X73989500Y-29944860D01*
X73989501Y-29944863D01*
X73992414Y-29969990D01*
X74017756Y-30027385D01*
X74037794Y-30072765D01*
X74117235Y-30152206D01*
X74220009Y-30197585D01*
X74245135Y-30200500D01*
X75899084Y-30200499D01*
X75957275Y-30219406D01*
X75993239Y-30268906D01*
X75994711Y-30273876D01*
X76016794Y-30356292D01*
X76069516Y-30447608D01*
X76069518Y-30447610D01*
X76069520Y-30447613D01*
X77947820Y-32325912D01*
X79322204Y-33700296D01*
X79349981Y-33754813D01*
X79351200Y-33770300D01*
X79351200Y-48500500D01*
X79332293Y-48558691D01*
X79282793Y-48594655D01*
X79252200Y-48599500D01*
X77906901Y-48599500D01*
X77848710Y-48580593D01*
X77836897Y-48570504D01*
X56720936Y-27454543D01*
X62614600Y-27454543D01*
X62614600Y-27612657D01*
X62655523Y-27765384D01*
X62734580Y-27902316D01*
X62846384Y-28014120D01*
X62983316Y-28093177D01*
X63136043Y-28134100D01*
X63136045Y-28134100D01*
X63294155Y-28134100D01*
X63294157Y-28134100D01*
X63446884Y-28093177D01*
X63583816Y-28014120D01*
X63695620Y-27902316D01*
X63774677Y-27765384D01*
X63815600Y-27612657D01*
X63815600Y-27454543D01*
X63774677Y-27301816D01*
X63695620Y-27164884D01*
X63695617Y-27164881D01*
X63644596Y-27113859D01*
X63616819Y-27059342D01*
X63615600Y-27043856D01*
X63615600Y-16890201D01*
X63634507Y-16832010D01*
X63644596Y-16820197D01*
X69037797Y-11426996D01*
X69092314Y-11399219D01*
X69107801Y-11398000D01*
X69179955Y-11398000D01*
X69179957Y-11398000D01*
X69332684Y-11357077D01*
X69469616Y-11278020D01*
X69581420Y-11166216D01*
X69660477Y-11029284D01*
X69701400Y-10876557D01*
X69701400Y-10718443D01*
X69660477Y-10565716D01*
X69581420Y-10428784D01*
X69469616Y-10316980D01*
X69332684Y-10237923D01*
X69179957Y-10197000D01*
X69021843Y-10197000D01*
X68869116Y-10237923D01*
X68732184Y-10316980D01*
X68620380Y-10428784D01*
X68541323Y-10565716D01*
X68502822Y-10709406D01*
X68500400Y-10718444D01*
X68500400Y-10790599D01*
X68481493Y-10848790D01*
X68471404Y-10860603D01*
X62894616Y-16437391D01*
X62841893Y-16528711D01*
X62841892Y-16528711D01*
X62841893Y-16528712D01*
X62814600Y-16630573D01*
X62814600Y-27043856D01*
X62795693Y-27102047D01*
X62785604Y-27113859D01*
X62734582Y-27164881D01*
X62734580Y-27164883D01*
X62734580Y-27164884D01*
X62655523Y-27301816D01*
X62614600Y-27454543D01*
X56720936Y-27454543D01*
X52692596Y-23426203D01*
X52664819Y-23371686D01*
X52663600Y-23356199D01*
X52663600Y-5374499D01*
X52682507Y-5316308D01*
X52732007Y-5280344D01*
X52762593Y-5275499D01*
X53161098Y-5275499D01*
X53219289Y-5294406D01*
X53231101Y-5304495D01*
X53524586Y-5597979D01*
X53524591Y-5597983D01*
X53615908Y-5650705D01*
X53615906Y-5650705D01*
X53615910Y-5650706D01*
X53615912Y-5650707D01*
X53717773Y-5678000D01*
X53717775Y-5678000D01*
X55144125Y-5678000D01*
X55144127Y-5678000D01*
X55245988Y-5650707D01*
X55245990Y-5650705D01*
X55245992Y-5650705D01*
X55337308Y-5597983D01*
X55337308Y-5597982D01*
X55337313Y-5597980D01*
X55703380Y-5231913D01*
X55714667Y-5212364D01*
X55756105Y-5140592D01*
X55756105Y-5140590D01*
X55756107Y-5140588D01*
X55783400Y-5038727D01*
X55783400Y-4999500D01*
X55802307Y-4941309D01*
X55851807Y-4905345D01*
X55882400Y-4900500D01*
X58782892Y-4900500D01*
X58841083Y-4919407D01*
X58875649Y-4964901D01*
X58889655Y-5002454D01*
X58895204Y-5017332D01*
X58981450Y-5132541D01*
X58981454Y-5132546D01*
X58981457Y-5132548D01*
X58981458Y-5132549D01*
X59096670Y-5218797D01*
X59231511Y-5269089D01*
X59231512Y-5269089D01*
X59231517Y-5269091D01*
X59291127Y-5275500D01*
X59707098Y-5275499D01*
X59765289Y-5294406D01*
X59777101Y-5304495D01*
X60070586Y-5597979D01*
X60070591Y-5597983D01*
X60161908Y-5650705D01*
X60161906Y-5650705D01*
X60161910Y-5650706D01*
X60161912Y-5650707D01*
X60263773Y-5678000D01*
X60263775Y-5678000D01*
X65359225Y-5678000D01*
X65359227Y-5678000D01*
X65461088Y-5650707D01*
X65461090Y-5650705D01*
X65461092Y-5650705D01*
X65552408Y-5597983D01*
X65552408Y-5597982D01*
X65552413Y-5597980D01*
X65845896Y-5304495D01*
X65900413Y-5276718D01*
X65915900Y-5275499D01*
X66252098Y-5275499D01*
X66310289Y-5294406D01*
X66322101Y-5304495D01*
X66615586Y-5597979D01*
X66615591Y-5597983D01*
X66706908Y-5650705D01*
X66706906Y-5650705D01*
X66706910Y-5650706D01*
X66706912Y-5650707D01*
X66808773Y-5678000D01*
X66808775Y-5678000D01*
X71955225Y-5678000D01*
X71955227Y-5678000D01*
X72057088Y-5650707D01*
X72057090Y-5650705D01*
X72057092Y-5650705D01*
X72148408Y-5597983D01*
X72148408Y-5597982D01*
X72148413Y-5597980D01*
X72367384Y-5379009D01*
X72441898Y-5304496D01*
X72496414Y-5276719D01*
X72511901Y-5275500D01*
X72946142Y-5275500D01*
X72946144Y-5275500D01*
X73030590Y-5265359D01*
X73164975Y-5212364D01*
X73280078Y-5125078D01*
X73367364Y-5009975D01*
X73420359Y-4875590D01*
X73430500Y-4791144D01*
X73430500Y-4356901D01*
X73449407Y-4298710D01*
X73459496Y-4286897D01*
X73619497Y-4126896D01*
X73674014Y-4099119D01*
X73689501Y-4097900D01*
X78215499Y-4097900D01*
X78273690Y-4116807D01*
G37*
%TD.AperFunction*%
%TA.AperFunction,Conductor*%
G36*
X28229981Y-19122249D02*
G01*
X28310009Y-19157585D01*
X28335135Y-19160500D01*
X29324864Y-19160499D01*
X29349991Y-19157585D01*
X29425012Y-19124459D01*
X29485881Y-19118251D01*
X29504978Y-19124455D01*
X29580009Y-19157585D01*
X29605135Y-19160500D01*
X30594864Y-19160499D01*
X30619991Y-19157585D01*
X30695012Y-19124459D01*
X30755881Y-19118251D01*
X30774978Y-19124455D01*
X30850009Y-19157585D01*
X30875135Y-19160500D01*
X31864864Y-19160499D01*
X31889991Y-19157585D01*
X31965012Y-19124459D01*
X32025881Y-19118251D01*
X32044978Y-19124455D01*
X32120009Y-19157585D01*
X32145135Y-19160500D01*
X33134864Y-19160499D01*
X33159991Y-19157585D01*
X33235012Y-19124459D01*
X33295881Y-19118251D01*
X33314978Y-19124455D01*
X33390009Y-19157585D01*
X33415135Y-19160500D01*
X34404864Y-19160499D01*
X34429991Y-19157585D01*
X34505012Y-19124459D01*
X34510308Y-19123919D01*
X34514625Y-19120799D01*
X34532027Y-19121704D01*
X34565881Y-19118251D01*
X34575810Y-19120940D01*
X34580477Y-19122468D01*
X34660009Y-19157585D01*
X34685135Y-19160500D01*
X34696612Y-19160499D01*
X34711310Y-19165313D01*
X34726122Y-19176127D01*
X34743209Y-19182790D01*
X34750229Y-19193727D01*
X34760727Y-19201391D01*
X34766354Y-19218846D01*
X34776261Y-19234280D01*
X34779500Y-19259397D01*
X34779500Y-31433199D01*
X34760593Y-31491390D01*
X34711093Y-31527354D01*
X34649907Y-31527354D01*
X34610496Y-31503203D01*
X34002996Y-30895703D01*
X33975219Y-30841186D01*
X33974000Y-30825699D01*
X33974000Y-26993274D01*
X33974000Y-26993273D01*
X33946707Y-26891413D01*
X33893980Y-26800087D01*
X33819413Y-26725519D01*
X33819413Y-26725520D01*
X27197113Y-20103220D01*
X27197110Y-20103218D01*
X27197109Y-20103217D01*
X27197108Y-20103216D01*
X27105791Y-20050494D01*
X27105793Y-20050494D01*
X27066270Y-20039904D01*
X27003927Y-20023200D01*
X27003925Y-20023200D01*
X25836844Y-20023200D01*
X25778653Y-20004293D01*
X25766841Y-19994204D01*
X25715818Y-19943182D01*
X25715816Y-19943180D01*
X25578884Y-19864123D01*
X25426157Y-19823200D01*
X25268043Y-19823200D01*
X25115316Y-19864123D01*
X24978384Y-19943180D01*
X24866580Y-20054984D01*
X24787523Y-20191916D01*
X24746600Y-20344643D01*
X24746600Y-20502757D01*
X24773050Y-20601469D01*
X24789203Y-20661752D01*
X24787251Y-20662275D01*
X24791329Y-20714075D01*
X24759362Y-20766245D01*
X24744565Y-20776703D01*
X24693685Y-20806079D01*
X24581880Y-20917884D01*
X24502822Y-21054817D01*
X24495125Y-21083542D01*
X24461799Y-21134855D01*
X24404677Y-21156780D01*
X24345577Y-21140943D01*
X24307073Y-21093391D01*
X24300499Y-21057920D01*
X24300499Y-20155136D01*
X24297585Y-20130009D01*
X24285755Y-20103216D01*
X24264460Y-20054987D01*
X24258251Y-19994118D01*
X24264457Y-19975018D01*
X24297585Y-19899991D01*
X24300500Y-19874865D01*
X24300499Y-19225840D01*
X24319406Y-19167650D01*
X24368906Y-19131686D01*
X24430092Y-19131686D01*
X24439473Y-19135271D01*
X24490009Y-19157585D01*
X24515135Y-19160500D01*
X25504864Y-19160499D01*
X25529991Y-19157585D01*
X25605012Y-19124459D01*
X25665881Y-19118251D01*
X25684978Y-19124455D01*
X25760009Y-19157585D01*
X25785135Y-19160500D01*
X26774864Y-19160499D01*
X26799991Y-19157585D01*
X26875012Y-19124459D01*
X26935881Y-19118251D01*
X26954978Y-19124455D01*
X27030009Y-19157585D01*
X27055135Y-19160500D01*
X28044864Y-19160499D01*
X28069991Y-19157585D01*
X28150013Y-19122251D01*
X28210880Y-19116043D01*
X28229981Y-19122249D01*
G37*
%TD.AperFunction*%
%TA.AperFunction,Conductor*%
G36*
X47611360Y-20553108D02*
G01*
X47643445Y-20558190D01*
X47643447Y-20558192D01*
X47643450Y-20558193D01*
X47660754Y-20575499D01*
X47686710Y-20601455D01*
X47686710Y-20601458D01*
X47686712Y-20601460D01*
X47686713Y-20601469D01*
X47697500Y-20646400D01*
X47697500Y-23440073D01*
X47697500Y-23545527D01*
X47721570Y-23635359D01*
X47724794Y-23647392D01*
X47777516Y-23738708D01*
X47777517Y-23738709D01*
X47777518Y-23738710D01*
X47777520Y-23738713D01*
X51032080Y-26993273D01*
X54279303Y-30240496D01*
X54307080Y-30295013D01*
X54297509Y-30355445D01*
X54254244Y-30398710D01*
X54209299Y-30409500D01*
X41899396Y-30409500D01*
X41841205Y-30390593D01*
X41805312Y-30341309D01*
X41800499Y-30326611D01*
X41800499Y-30315136D01*
X41797585Y-30290009D01*
X41762470Y-30210482D01*
X41760940Y-30205808D01*
X41760880Y-30179893D01*
X41758251Y-30154118D01*
X41760802Y-30146264D01*
X41760799Y-30144623D01*
X41761774Y-30143273D01*
X41764457Y-30135018D01*
X41797585Y-30059991D01*
X41800500Y-30034865D01*
X41800499Y-29045136D01*
X41797585Y-29020009D01*
X41797583Y-29020004D01*
X41764460Y-28944987D01*
X41763876Y-28939262D01*
X41760543Y-28934569D01*
X41761558Y-28916540D01*
X41758251Y-28884118D01*
X41761207Y-28873387D01*
X41762639Y-28869134D01*
X41797585Y-28789991D01*
X41800500Y-28764865D01*
X41800499Y-28756773D01*
X41805255Y-28742661D01*
X41817597Y-28726054D01*
X41826218Y-28707241D01*
X41835439Y-28702048D01*
X41841753Y-28693554D01*
X41861501Y-28687373D01*
X41879533Y-28677220D01*
X41890046Y-28678439D01*
X41900145Y-28675279D01*
X41919754Y-28681886D01*
X41940311Y-28684271D01*
X41952987Y-28693083D01*
X41958128Y-28694816D01*
X41960710Y-28698453D01*
X41969076Y-28704269D01*
X42139604Y-28874797D01*
X42167381Y-28929314D01*
X42168600Y-28944801D01*
X42168600Y-29016957D01*
X42209523Y-29169684D01*
X42288580Y-29306616D01*
X42400384Y-29418420D01*
X42537316Y-29497477D01*
X42690043Y-29538400D01*
X42690045Y-29538400D01*
X42848155Y-29538400D01*
X42848157Y-29538400D01*
X43000884Y-29497477D01*
X43137816Y-29418420D01*
X43249620Y-29306616D01*
X43328677Y-29169684D01*
X43369600Y-29016957D01*
X43369600Y-28858843D01*
X43328677Y-28706116D01*
X43249620Y-28569184D01*
X43137816Y-28457380D01*
X43000884Y-28378323D01*
X42848157Y-28337400D01*
X42848155Y-28337400D01*
X42776001Y-28337400D01*
X42717810Y-28318493D01*
X42705997Y-28308404D01*
X42502996Y-28105403D01*
X42475219Y-28050886D01*
X42474633Y-28043443D01*
X44294800Y-28043443D01*
X44294800Y-28201557D01*
X44335723Y-28354284D01*
X44414780Y-28491216D01*
X44526584Y-28603020D01*
X44663516Y-28682077D01*
X44816243Y-28723000D01*
X44816245Y-28723000D01*
X44974355Y-28723000D01*
X44974357Y-28723000D01*
X45127084Y-28682077D01*
X45264016Y-28603020D01*
X45375820Y-28491216D01*
X45454877Y-28354284D01*
X45495800Y-28201557D01*
X45495800Y-28043443D01*
X45454877Y-27890716D01*
X45375820Y-27753784D01*
X45372040Y-27750004D01*
X45324796Y-27702759D01*
X45297019Y-27648242D01*
X45295800Y-27632756D01*
X45295800Y-25440501D01*
X45314707Y-25382310D01*
X45324796Y-25370497D01*
X45753097Y-24942196D01*
X45807614Y-24914419D01*
X45823101Y-24913200D01*
X45895255Y-24913200D01*
X45895257Y-24913200D01*
X46047984Y-24872277D01*
X46184916Y-24793220D01*
X46296720Y-24681416D01*
X46375777Y-24544484D01*
X46416700Y-24391757D01*
X46416700Y-24233643D01*
X46375777Y-24080916D01*
X46296720Y-23943984D01*
X46184916Y-23832180D01*
X46047984Y-23753123D01*
X45895257Y-23712200D01*
X45737143Y-23712200D01*
X45584416Y-23753123D01*
X45447484Y-23832180D01*
X45335680Y-23943984D01*
X45256623Y-24080916D01*
X45223514Y-24204483D01*
X45215700Y-24233644D01*
X45215700Y-24305799D01*
X45196793Y-24363990D01*
X45186704Y-24375803D01*
X44574816Y-24987691D01*
X44522094Y-25079008D01*
X44522093Y-25079010D01*
X44514530Y-25107233D01*
X44514531Y-25107234D01*
X44494800Y-25180873D01*
X44494800Y-27632756D01*
X44475893Y-27690947D01*
X44465804Y-27702759D01*
X44414782Y-27753781D01*
X44414780Y-27753783D01*
X44414780Y-27753784D01*
X44335723Y-27890716D01*
X44294800Y-28043443D01*
X42474633Y-28043443D01*
X42474000Y-28035399D01*
X42474000Y-24008200D01*
X42492907Y-23950009D01*
X42542407Y-23914045D01*
X42603593Y-23914045D01*
X42643001Y-23938194D01*
X42909287Y-24204480D01*
X42909289Y-24204481D01*
X42909291Y-24204483D01*
X43000608Y-24257205D01*
X43000606Y-24257205D01*
X43000610Y-24257206D01*
X43000612Y-24257207D01*
X43102473Y-24284500D01*
X43102475Y-24284500D01*
X43707225Y-24284500D01*
X43707227Y-24284500D01*
X43809088Y-24257207D01*
X43809090Y-24257205D01*
X43809092Y-24257205D01*
X43900408Y-24204483D01*
X43900408Y-24204482D01*
X43900413Y-24204480D01*
X47518910Y-20585981D01*
X47518913Y-20585980D01*
X47528502Y-20576390D01*
X47555114Y-20562833D01*
X47583013Y-20548619D01*
X47583016Y-20548619D01*
X47583019Y-20548618D01*
X47611360Y-20553108D01*
G37*
%TD.AperFunction*%
%TA.AperFunction,Conductor*%
G36*
X17659945Y-9977533D02*
G01*
X17703210Y-10020798D01*
X17714000Y-10065743D01*
X17714000Y-20796856D01*
X17695093Y-20855047D01*
X17685004Y-20866859D01*
X17633982Y-20917881D01*
X17633980Y-20917883D01*
X17633980Y-20917884D01*
X17554923Y-21054816D01*
X17514000Y-21207543D01*
X17514000Y-21365657D01*
X17554923Y-21518384D01*
X17633980Y-21655316D01*
X17745784Y-21767120D01*
X17882716Y-21846177D01*
X18035443Y-21887100D01*
X18035445Y-21887100D01*
X18193558Y-21887100D01*
X18199991Y-21886253D01*
X18200253Y-21888246D01*
X18252172Y-21890964D01*
X18299725Y-21929466D01*
X18315700Y-21983391D01*
X18315700Y-26117116D01*
X18314242Y-26117116D01*
X18304441Y-26169982D01*
X18260056Y-26212097D01*
X18199394Y-26220080D01*
X18147436Y-26192743D01*
X16993696Y-25039003D01*
X16965919Y-24984486D01*
X16964700Y-24968999D01*
X16964700Y-10222391D01*
X16983607Y-10164200D01*
X17033107Y-10128236D01*
X17080178Y-10127005D01*
X17080409Y-10125253D01*
X17086842Y-10126100D01*
X17086843Y-10126100D01*
X17244955Y-10126100D01*
X17244957Y-10126100D01*
X17397684Y-10085177D01*
X17534616Y-10006120D01*
X17544998Y-9995737D01*
X17599513Y-9967962D01*
X17659945Y-9977533D01*
G37*
%TD.AperFunction*%
%TA.AperFunction,Conductor*%
G36*
X45314690Y-3699207D02*
G01*
X45326503Y-3709296D01*
X45718665Y-4101458D01*
X45746442Y-4155975D01*
X45747402Y-4174476D01*
X45747500Y-4174476D01*
X45747500Y-4176357D01*
X45747520Y-4176743D01*
X45747500Y-4177117D01*
X45747500Y-4822866D01*
X45747501Y-4822870D01*
X45753908Y-4882480D01*
X45753909Y-4882485D01*
X45804202Y-5017329D01*
X45890450Y-5132541D01*
X45890454Y-5132546D01*
X45890457Y-5132548D01*
X45890458Y-5132549D01*
X46005670Y-5218797D01*
X46140511Y-5269089D01*
X46140512Y-5269089D01*
X46140517Y-5269091D01*
X46200127Y-5275500D01*
X46695872Y-5275499D01*
X46755483Y-5269091D01*
X46755483Y-5269090D01*
X46761641Y-5268429D01*
X46761933Y-5271148D01*
X46811644Y-5275202D01*
X46858057Y-5315071D01*
X46872500Y-5366559D01*
X46872500Y-20058599D01*
X46853593Y-20116790D01*
X46843504Y-20128603D01*
X44554904Y-22417203D01*
X44500387Y-22444980D01*
X44439955Y-22435409D01*
X44396690Y-22392144D01*
X44385900Y-22347199D01*
X44385900Y-6950989D01*
X44385902Y-6880687D01*
X44385900Y-6880679D01*
X44385900Y-6880673D01*
X44372385Y-6830237D01*
X44359840Y-6783409D01*
X44358987Y-6779471D01*
X44357033Y-6776087D01*
X44330193Y-6729599D01*
X44305888Y-6687498D01*
X44305885Y-6687495D01*
X44305883Y-6687491D01*
X44305881Y-6687488D01*
X44252816Y-6634422D01*
X44252810Y-6634417D01*
X43149339Y-5530872D01*
X43121563Y-5476355D01*
X43131137Y-5415923D01*
X43174403Y-5372660D01*
X43193722Y-5365244D01*
X43195752Y-5364700D01*
X43195757Y-5364700D01*
X43348484Y-5323777D01*
X43485416Y-5244720D01*
X43597220Y-5132916D01*
X43676277Y-4995984D01*
X43717200Y-4843257D01*
X43717200Y-4685143D01*
X43676277Y-4532416D01*
X43597220Y-4395484D01*
X43485416Y-4283680D01*
X43348484Y-4204623D01*
X43195757Y-4163700D01*
X43037643Y-4163700D01*
X42884916Y-4204623D01*
X42747984Y-4283680D01*
X42636180Y-4395484D01*
X42557123Y-4532416D01*
X42515651Y-4687191D01*
X42509890Y-4696061D01*
X42508236Y-4706509D01*
X42493599Y-4721147D01*
X42482326Y-4738506D01*
X42472452Y-4742296D01*
X42464974Y-4749775D01*
X42444529Y-4753014D01*
X42425205Y-4760432D01*
X42414989Y-4757694D01*
X42404542Y-4759350D01*
X42386097Y-4749953D01*
X42366104Y-4744596D01*
X42350024Y-4731575D01*
X42281499Y-4663057D01*
X42253719Y-4608542D01*
X42252499Y-4593050D01*
X42252499Y-4177133D01*
X42252499Y-4177128D01*
X42246091Y-4117517D01*
X42245600Y-4116200D01*
X42195797Y-3982670D01*
X42109549Y-3867458D01*
X42109548Y-3867457D01*
X42109546Y-3867454D01*
X42097656Y-3858553D01*
X42062403Y-3808544D01*
X42063277Y-3747365D01*
X42099945Y-3698384D01*
X42156985Y-3680300D01*
X45256499Y-3680300D01*
X45314690Y-3699207D01*
G37*
%TD.AperFunction*%
%TA.AperFunction,Conductor*%
G36*
X25630990Y-3699207D02*
G01*
X25666954Y-3748707D01*
X25666954Y-3809893D01*
X25642803Y-3849303D01*
X25406920Y-4085186D01*
X25406916Y-4085191D01*
X25354194Y-4176507D01*
X25353428Y-4179367D01*
X25332232Y-4258473D01*
X25330098Y-4266438D01*
X25326900Y-4278373D01*
X25326900Y-11845498D01*
X25307993Y-11903689D01*
X25297904Y-11915502D01*
X23956560Y-13256845D01*
X23902043Y-13284622D01*
X23841611Y-13275051D01*
X23798346Y-13231786D01*
X23788775Y-13171354D01*
X23790926Y-13161232D01*
X23808800Y-13094527D01*
X23808800Y-12989073D01*
X23808800Y-12547928D01*
X23827707Y-12489737D01*
X23877207Y-12453773D01*
X23933420Y-12452301D01*
X24011043Y-12473100D01*
X24011045Y-12473100D01*
X24169155Y-12473100D01*
X24169157Y-12473100D01*
X24321884Y-12432177D01*
X24458816Y-12353120D01*
X24570620Y-12241316D01*
X24649677Y-12104384D01*
X24690600Y-11951657D01*
X24690600Y-11793543D01*
X24649677Y-11640816D01*
X24570620Y-11503884D01*
X24458816Y-11392080D01*
X24321884Y-11313023D01*
X24169157Y-11272100D01*
X24011043Y-11272100D01*
X23988953Y-11278019D01*
X23933422Y-11292898D01*
X23872321Y-11289695D01*
X23824771Y-11251190D01*
X23808800Y-11197271D01*
X23808800Y-8279274D01*
X23808800Y-8279273D01*
X23797532Y-8237220D01*
X23781507Y-8177412D01*
X23781504Y-8177406D01*
X23728783Y-8086091D01*
X23728782Y-8086090D01*
X23728781Y-8086089D01*
X23728780Y-8086087D01*
X22345496Y-6702803D01*
X22317719Y-6648286D01*
X22316500Y-6632799D01*
X22316500Y-5299666D01*
X22335407Y-5241475D01*
X22356171Y-5220413D01*
X22366923Y-5212364D01*
X22473546Y-5132546D01*
X22559796Y-5017331D01*
X22589736Y-4937059D01*
X22610089Y-4882488D01*
X22610088Y-4882488D01*
X22610091Y-4882483D01*
X22616500Y-4822873D01*
X22616499Y-4177128D01*
X22610091Y-4117517D01*
X22609600Y-4116200D01*
X22559797Y-3982670D01*
X22473549Y-3867458D01*
X22473548Y-3867457D01*
X22473546Y-3867454D01*
X22461656Y-3858553D01*
X22426403Y-3808544D01*
X22427277Y-3747365D01*
X22463945Y-3698384D01*
X22520985Y-3680300D01*
X25572799Y-3680300D01*
X25630990Y-3699207D01*
G37*
%TD.AperFunction*%
%TA.AperFunction,Conductor*%
G36*
X39325486Y-3689550D02*
G01*
X39354055Y-3698384D01*
X39354499Y-3698977D01*
X39355206Y-3699207D01*
X39372813Y-3723441D01*
X39390723Y-3747365D01*
X39390733Y-3748106D01*
X39391170Y-3748707D01*
X39391170Y-3778654D01*
X39391597Y-3808544D01*
X39391170Y-3809149D01*
X39391170Y-3809893D01*
X39356344Y-3858553D01*
X39344458Y-3867450D01*
X39344450Y-3867458D01*
X39258202Y-3982670D01*
X39207910Y-4117511D01*
X39207908Y-4117522D01*
X39204546Y-4148792D01*
X39201998Y-4172500D01*
X39201500Y-4177129D01*
X39201500Y-4822866D01*
X39201501Y-4822870D01*
X39207908Y-4882480D01*
X39207909Y-4882485D01*
X39258202Y-5017329D01*
X39344450Y-5132541D01*
X39344454Y-5132546D01*
X39344457Y-5132548D01*
X39344458Y-5132549D01*
X39461829Y-5220413D01*
X39470464Y-5232663D01*
X39482593Y-5241475D01*
X39487651Y-5257043D01*
X39497082Y-5270421D01*
X39501500Y-5299666D01*
X39501500Y-5334757D01*
X39482593Y-5392948D01*
X39472509Y-5404754D01*
X39361980Y-5515284D01*
X39282923Y-5652216D01*
X39242000Y-5804943D01*
X39242000Y-5963057D01*
X39282923Y-6115784D01*
X39361980Y-6252716D01*
X39473784Y-6364520D01*
X39610716Y-6443577D01*
X39763443Y-6484500D01*
X39763445Y-6484500D01*
X39921555Y-6484500D01*
X39921557Y-6484500D01*
X40074284Y-6443577D01*
X40211216Y-6364520D01*
X40323020Y-6252716D01*
X40402077Y-6115784D01*
X40443000Y-5963057D01*
X40443000Y-5804943D01*
X40402077Y-5652216D01*
X40323020Y-5515284D01*
X40323018Y-5515282D01*
X40322955Y-5515200D01*
X40322930Y-5515130D01*
X40322038Y-5513586D01*
X40321407Y-5513127D01*
X40320934Y-5511674D01*
X40319775Y-5509665D01*
X40320202Y-5509418D01*
X40312332Y-5485196D01*
X40302534Y-5457523D01*
X40302500Y-5454936D01*
X40302500Y-5299666D01*
X40321407Y-5241475D01*
X40342171Y-5220413D01*
X40352923Y-5212364D01*
X40459546Y-5132546D01*
X40545796Y-5017331D01*
X40575736Y-4937059D01*
X40596089Y-4882488D01*
X40596088Y-4882488D01*
X40596091Y-4882483D01*
X40602500Y-4822873D01*
X40602499Y-4177128D01*
X40596091Y-4117517D01*
X40595600Y-4116200D01*
X40545797Y-3982670D01*
X40459549Y-3867458D01*
X40459548Y-3867457D01*
X40459546Y-3867454D01*
X40447656Y-3858553D01*
X40412403Y-3808544D01*
X40413277Y-3747365D01*
X40449945Y-3698384D01*
X40506985Y-3680300D01*
X40947015Y-3680300D01*
X41005206Y-3699207D01*
X41041170Y-3748707D01*
X41041170Y-3809893D01*
X41006344Y-3858553D01*
X40994458Y-3867450D01*
X40994450Y-3867458D01*
X40908202Y-3982670D01*
X40857910Y-4117511D01*
X40857908Y-4117522D01*
X40854546Y-4148792D01*
X40851998Y-4172500D01*
X40851500Y-4177129D01*
X40851500Y-4822866D01*
X40851501Y-4822870D01*
X40857908Y-4882480D01*
X40857909Y-4882485D01*
X40908202Y-5017329D01*
X40994450Y-5132541D01*
X40994454Y-5132546D01*
X40994457Y-5132548D01*
X40994458Y-5132549D01*
X41109670Y-5218797D01*
X41244511Y-5269089D01*
X41244512Y-5269089D01*
X41244517Y-5269091D01*
X41304127Y-5275500D01*
X41720156Y-5275499D01*
X41778347Y-5294406D01*
X41790156Y-5304492D01*
X41878622Y-5392948D01*
X42181244Y-5695537D01*
X42191539Y-5705832D01*
X43318123Y-6832490D01*
X43555906Y-7070288D01*
X43583682Y-7124805D01*
X43584900Y-7140289D01*
X43584900Y-11078999D01*
X43565993Y-11137190D01*
X43516493Y-11173154D01*
X43455307Y-11173154D01*
X43415896Y-11149003D01*
X36116197Y-3849304D01*
X36088420Y-3794787D01*
X36097991Y-3734355D01*
X36141256Y-3691090D01*
X36186201Y-3680300D01*
X39297015Y-3680300D01*
X39325486Y-3689550D01*
G37*
%TD.AperFunction*%
%TA.AperFunction,Conductor*%
G36*
X32615691Y-4136107D02*
G01*
X32651655Y-4185607D01*
X32656500Y-4216200D01*
X32656500Y-4593099D01*
X32637593Y-4651290D01*
X32627504Y-4663103D01*
X26898604Y-10392003D01*
X26844087Y-10419780D01*
X26783655Y-10410209D01*
X26740390Y-10366944D01*
X26729600Y-10321999D01*
X26729600Y-5374499D01*
X26748507Y-5316308D01*
X26798007Y-5280344D01*
X26828600Y-5275499D01*
X27058867Y-5275499D01*
X27058872Y-5275499D01*
X27118483Y-5269091D01*
X27217404Y-5232196D01*
X27253329Y-5218797D01*
X27253329Y-5218796D01*
X27253331Y-5218796D01*
X27368546Y-5132546D01*
X27454796Y-5017331D01*
X27484736Y-4937059D01*
X27505089Y-4882488D01*
X27505088Y-4882488D01*
X27505091Y-4882483D01*
X27511500Y-4822873D01*
X27511499Y-4355897D01*
X27518662Y-4333850D01*
X27522289Y-4310953D01*
X27527937Y-4305304D01*
X27530406Y-4297707D01*
X27549162Y-4284079D01*
X27565554Y-4267688D01*
X27573443Y-4266438D01*
X27579906Y-4261743D01*
X27603091Y-4261743D01*
X27625986Y-4258117D01*
X27633103Y-4261743D01*
X27641091Y-4261743D01*
X27680499Y-4285891D01*
X27731505Y-4336897D01*
X27759281Y-4391412D01*
X27760500Y-4406899D01*
X27760500Y-4822866D01*
X27760501Y-4822870D01*
X27766908Y-4882480D01*
X27766909Y-4882485D01*
X27817202Y-5017329D01*
X27903450Y-5132541D01*
X27903454Y-5132546D01*
X27903457Y-5132548D01*
X27903458Y-5132549D01*
X28018670Y-5218797D01*
X28153511Y-5269089D01*
X28153512Y-5269089D01*
X28153517Y-5269091D01*
X28213127Y-5275500D01*
X28708872Y-5275499D01*
X28768483Y-5269091D01*
X28867404Y-5232196D01*
X28903329Y-5218797D01*
X28903329Y-5218796D01*
X28903331Y-5218796D01*
X29018546Y-5132546D01*
X29104796Y-5017331D01*
X29134736Y-4937059D01*
X29155089Y-4882488D01*
X29155088Y-4882488D01*
X29155091Y-4882483D01*
X29161500Y-4822873D01*
X29161499Y-4406899D01*
X29180406Y-4348709D01*
X29190496Y-4336896D01*
X29381197Y-4146196D01*
X29435713Y-4118419D01*
X29451200Y-4117200D01*
X32557500Y-4117200D01*
X32615691Y-4136107D01*
G37*
%TD.AperFunction*%
%TA.AperFunction,Conductor*%
G36*
X22023596Y-8211668D02*
G01*
X22031486Y-8210419D01*
X22052141Y-8220943D01*
X22074190Y-8228107D01*
X22086003Y-8238196D01*
X22158812Y-8311005D01*
X22186589Y-8365522D01*
X22177018Y-8425954D01*
X22170491Y-8436946D01*
X22170297Y-8437228D01*
X22124914Y-8540011D01*
X22122000Y-8565130D01*
X22122000Y-8934859D01*
X22122001Y-8934864D01*
X22124914Y-8959989D01*
X22124915Y-8959992D01*
X22124926Y-8960016D01*
X22124928Y-8960039D01*
X22126870Y-8967176D01*
X22125688Y-8967497D01*
X22131130Y-9020886D01*
X22124928Y-9039977D01*
X22124917Y-9039999D01*
X22124914Y-9040011D01*
X22122000Y-9065130D01*
X22122000Y-9065132D01*
X22122000Y-9065135D01*
X22122000Y-9248899D01*
X22122001Y-9371300D01*
X22117156Y-9386211D01*
X22117156Y-9401893D01*
X22107938Y-9414579D01*
X22103094Y-9429490D01*
X22090410Y-9438705D01*
X22081192Y-9451393D01*
X22066277Y-9456238D01*
X22053594Y-9465454D01*
X22023001Y-9470300D01*
X21948500Y-9470300D01*
X21890309Y-9451393D01*
X21878496Y-9441303D01*
X21454019Y-9016825D01*
X21426242Y-8962309D01*
X21433460Y-8906831D01*
X21437585Y-8897491D01*
X21440500Y-8872365D01*
X21440499Y-8308199D01*
X21459406Y-8250009D01*
X21508906Y-8214045D01*
X21539499Y-8209200D01*
X22015999Y-8209200D01*
X22023596Y-8211668D01*
G37*
%TD.AperFunction*%
%TA.AperFunction,Conductor*%
G36*
X18325324Y-3235468D02*
G01*
X18342365Y-3235953D01*
X18353693Y-3244686D01*
X18367300Y-3249107D01*
X18377322Y-3262901D01*
X18390823Y-3273309D01*
X18394854Y-3287032D01*
X18403264Y-3298607D01*
X18403754Y-3317325D01*
X18408069Y-3332013D01*
X18407739Y-3343612D01*
X18405400Y-3352343D01*
X18405400Y-3425904D01*
X18405360Y-3427312D01*
X18395534Y-3454861D01*
X18386493Y-3482690D01*
X18385301Y-3483555D01*
X18384807Y-3484942D01*
X18376404Y-3494503D01*
X17884716Y-3986191D01*
X17831995Y-4077506D01*
X17831993Y-4077510D01*
X17831993Y-4077512D01*
X17805467Y-4176512D01*
X17805467Y-4176513D01*
X17805464Y-4176521D01*
X17804701Y-4179367D01*
X17804700Y-4179375D01*
X17804700Y-6505000D01*
X17785793Y-6563191D01*
X17736293Y-6599155D01*
X17680077Y-6600627D01*
X17631546Y-6587623D01*
X17538157Y-6562600D01*
X17380043Y-6562600D01*
X17380042Y-6562600D01*
X17373611Y-6563447D01*
X17373349Y-6561459D01*
X17321399Y-6558724D01*
X17273858Y-6520207D01*
X17257900Y-6466308D01*
X17257900Y-5934674D01*
X17257900Y-5934673D01*
X17242508Y-5877227D01*
X17242508Y-5877226D01*
X17242508Y-5877225D01*
X17230607Y-5832812D01*
X17230605Y-5832808D01*
X17177883Y-5741491D01*
X17177882Y-5741490D01*
X17177881Y-5741489D01*
X17177880Y-5741487D01*
X16099495Y-4663102D01*
X16071718Y-4608585D01*
X16070499Y-4593098D01*
X16070499Y-4177133D01*
X16070499Y-4177128D01*
X16064091Y-4117517D01*
X16063600Y-4116200D01*
X16013797Y-3982670D01*
X15927549Y-3867458D01*
X15927548Y-3867457D01*
X15927546Y-3867454D01*
X15906885Y-3851987D01*
X15812329Y-3781202D01*
X15677488Y-3730910D01*
X15677483Y-3730909D01*
X15677481Y-3730908D01*
X15677477Y-3730908D01*
X15646249Y-3727550D01*
X15617873Y-3724500D01*
X15617870Y-3724500D01*
X15122133Y-3724500D01*
X15122129Y-3724500D01*
X15122128Y-3724501D01*
X15114949Y-3725272D01*
X15062519Y-3730908D01*
X15062514Y-3730909D01*
X14927670Y-3781202D01*
X14812458Y-3867450D01*
X14812450Y-3867458D01*
X14726202Y-3982670D01*
X14675910Y-4117511D01*
X14675908Y-4117522D01*
X14672546Y-4148792D01*
X14669998Y-4172500D01*
X14669500Y-4177129D01*
X14669500Y-4822866D01*
X14669501Y-4822870D01*
X14675908Y-4882480D01*
X14675909Y-4882485D01*
X14724964Y-5014009D01*
X14725396Y-5024109D01*
X14729987Y-5033118D01*
X14726678Y-5054008D01*
X14727584Y-5075138D01*
X14721997Y-5083563D01*
X14720416Y-5093550D01*
X14705460Y-5108505D01*
X14693773Y-5126133D01*
X14684299Y-5129666D01*
X14677151Y-5136815D01*
X14656260Y-5140123D01*
X14636445Y-5147514D01*
X14626704Y-5144804D01*
X14616719Y-5146386D01*
X14597873Y-5136784D01*
X14577498Y-5131116D01*
X14562202Y-5118609D01*
X14435169Y-4991576D01*
X14407392Y-4937059D01*
X14412417Y-4886971D01*
X14414089Y-4882488D01*
X14414091Y-4882483D01*
X14420500Y-4822873D01*
X14420499Y-4177128D01*
X14414091Y-4117517D01*
X14413600Y-4116200D01*
X14363797Y-3982670D01*
X14277549Y-3867458D01*
X14277548Y-3867457D01*
X14277546Y-3867454D01*
X14256885Y-3851987D01*
X14162329Y-3781202D01*
X14027488Y-3730910D01*
X14027483Y-3730909D01*
X14027481Y-3730908D01*
X14027477Y-3730908D01*
X13996249Y-3727550D01*
X13967873Y-3724500D01*
X13967870Y-3724500D01*
X13472133Y-3724500D01*
X13472129Y-3724500D01*
X13472128Y-3724501D01*
X13464949Y-3725272D01*
X13412519Y-3730908D01*
X13412514Y-3730909D01*
X13277670Y-3781202D01*
X13162458Y-3867450D01*
X13162450Y-3867458D01*
X13076202Y-3982670D01*
X13025910Y-4117511D01*
X13025908Y-4117522D01*
X13022546Y-4148792D01*
X13019998Y-4172500D01*
X13019500Y-4177129D01*
X13019500Y-4822866D01*
X13019501Y-4822870D01*
X13025908Y-4882480D01*
X13025909Y-4882485D01*
X13076202Y-5017329D01*
X13162450Y-5132541D01*
X13162454Y-5132546D01*
X13162457Y-5132548D01*
X13162458Y-5132549D01*
X13277670Y-5218797D01*
X13412511Y-5269089D01*
X13412512Y-5269089D01*
X13412517Y-5269091D01*
X13472127Y-5275500D01*
X13545298Y-5275499D01*
X13603488Y-5294406D01*
X13615302Y-5304495D01*
X16134704Y-7823896D01*
X16162481Y-7878413D01*
X16163700Y-7893900D01*
X16163700Y-9248899D01*
X16144793Y-9307090D01*
X16095293Y-9343054D01*
X16034107Y-9343054D01*
X15994696Y-9318903D01*
X10074997Y-3399204D01*
X10047220Y-3344687D01*
X10056791Y-3284255D01*
X10100056Y-3240990D01*
X10145001Y-3230200D01*
X18309109Y-3230200D01*
X18325324Y-3235468D01*
G37*
%TD.AperFunction*%
%TA.AperFunction,Conductor*%
G36*
X19775404Y-3369697D02*
G01*
X19979306Y-3573600D01*
X20007083Y-3628116D01*
X19997512Y-3688548D01*
X19954247Y-3731813D01*
X19943898Y-3736361D01*
X19823670Y-3781202D01*
X19708458Y-3867450D01*
X19708450Y-3867458D01*
X19622202Y-3982670D01*
X19571910Y-4117511D01*
X19571908Y-4117522D01*
X19568546Y-4148792D01*
X19565998Y-4172500D01*
X19565500Y-4177129D01*
X19565500Y-4822866D01*
X19565501Y-4822870D01*
X19571908Y-4882480D01*
X19571909Y-4882485D01*
X19622202Y-5017329D01*
X19708450Y-5132541D01*
X19708454Y-5132546D01*
X19708457Y-5132548D01*
X19708458Y-5132549D01*
X19825829Y-5220413D01*
X19861082Y-5270421D01*
X19865500Y-5299666D01*
X19865500Y-6747899D01*
X19846593Y-6806090D01*
X19836504Y-6817902D01*
X19392720Y-7261686D01*
X19392716Y-7261691D01*
X19339995Y-7353006D01*
X19339991Y-7353015D01*
X19328774Y-7394883D01*
X19312700Y-7454873D01*
X19312700Y-7771898D01*
X19293793Y-7830089D01*
X19283704Y-7841902D01*
X18841591Y-8284015D01*
X18787074Y-8311792D01*
X18726642Y-8302221D01*
X18699170Y-8281515D01*
X18691486Y-8273272D01*
X18685720Y-8263284D01*
X18633478Y-8211042D01*
X18632283Y-8209760D01*
X18620056Y-8183526D01*
X18606919Y-8157742D01*
X18606691Y-8154849D01*
X18606436Y-8154302D01*
X18606587Y-8153525D01*
X18605700Y-8142256D01*
X18605700Y-4439001D01*
X18624607Y-4380810D01*
X18634696Y-4368997D01*
X18942797Y-4060896D01*
X18997314Y-4033119D01*
X19012801Y-4031900D01*
X19084955Y-4031900D01*
X19084957Y-4031900D01*
X19237684Y-3990977D01*
X19374616Y-3911920D01*
X19486420Y-3800116D01*
X19565477Y-3663184D01*
X19606400Y-3510457D01*
X19606400Y-3439700D01*
X19625307Y-3381509D01*
X19674807Y-3345545D01*
X19735993Y-3345545D01*
X19775404Y-3369697D01*
G37*
%TD.AperFunction*%
%TD*%
%TA.AperFunction,NonConductor*%
G36*
X8370445Y-5213989D02*
G01*
X8413710Y-5257254D01*
X8424500Y-5302199D01*
X8424500Y-8222873D01*
X8424500Y-8328327D01*
X8434466Y-8365522D01*
X8451794Y-8430192D01*
X8504516Y-8521508D01*
X8504520Y-8521513D01*
X8680461Y-8697455D01*
X8708238Y-8751971D01*
X8698667Y-8812403D01*
X8659962Y-8853192D01*
X8650285Y-8858779D01*
X8650284Y-8858780D01*
X8538480Y-8970584D01*
X8459423Y-9107516D01*
X8431018Y-9213527D01*
X8418500Y-9260244D01*
X8418500Y-9335199D01*
X8399593Y-9393390D01*
X8389504Y-9405203D01*
X7988204Y-9806503D01*
X7933687Y-9834280D01*
X7873255Y-9824709D01*
X7829990Y-9781444D01*
X7819200Y-9736499D01*
X7819200Y-8795114D01*
X7819201Y-8795101D01*
X7819201Y-8681676D01*
X7819201Y-8681674D01*
X7791907Y-8579813D01*
X7783433Y-8565135D01*
X7739180Y-8488487D01*
X7664613Y-8413920D01*
X7664610Y-8413918D01*
X7304274Y-8053582D01*
X7276497Y-7999065D01*
X7286068Y-7938633D01*
X7297049Y-7923556D01*
X7296168Y-7922880D01*
X7300120Y-7917730D01*
X7377461Y-7783771D01*
X7377461Y-7783769D01*
X7377463Y-7783767D01*
X7417500Y-7634346D01*
X7417500Y-6165654D01*
X7377463Y-6016233D01*
X7377461Y-6016230D01*
X7377461Y-6016228D01*
X7300120Y-5882270D01*
X7300118Y-5882268D01*
X7300117Y-5882266D01*
X7283152Y-5865301D01*
X7255377Y-5810787D01*
X7264948Y-5750355D01*
X7308213Y-5707090D01*
X7353158Y-5696300D01*
X7678225Y-5696300D01*
X7678227Y-5696300D01*
X7780088Y-5669007D01*
X7780090Y-5669005D01*
X7780092Y-5669005D01*
X7871408Y-5616283D01*
X7871408Y-5616282D01*
X7871413Y-5616280D01*
X8255496Y-5232195D01*
X8310013Y-5204418D01*
X8370445Y-5213989D01*
G37*
%TD.AperFunction*%
%TA.AperFunction,NonConductor*%
G36*
X5008571Y-13163905D02*
G01*
X5020736Y-13180649D01*
X5099879Y-13317729D01*
X5099881Y-13317731D01*
X5099883Y-13317734D01*
X5209266Y-13427117D01*
X5209268Y-13427118D01*
X5209270Y-13427120D01*
X5343229Y-13504461D01*
X5343227Y-13504461D01*
X5343231Y-13504462D01*
X5343233Y-13504463D01*
X5492654Y-13544500D01*
X5492656Y-13544500D01*
X5647344Y-13544500D01*
X5647346Y-13544500D01*
X5796767Y-13504463D01*
X5796769Y-13504461D01*
X5796771Y-13504461D01*
X5930729Y-13427120D01*
X5930729Y-13427119D01*
X5930734Y-13427117D01*
X6040117Y-13317734D01*
X6040120Y-13317729D01*
X6114264Y-13189309D01*
X6159733Y-13148368D01*
X6220583Y-13141972D01*
X6273571Y-13172565D01*
X6285736Y-13189309D01*
X6359879Y-13317729D01*
X6359881Y-13317731D01*
X6359883Y-13317734D01*
X6469266Y-13427117D01*
X6469268Y-13427118D01*
X6469270Y-13427120D01*
X6603229Y-13504461D01*
X6603227Y-13504461D01*
X6603231Y-13504462D01*
X6603233Y-13504463D01*
X6752654Y-13544500D01*
X6752656Y-13544500D01*
X6913835Y-13544500D01*
X6913835Y-13546043D01*
X6966428Y-13555784D01*
X7008551Y-13600161D01*
X7018200Y-13642793D01*
X7018200Y-13671427D01*
X7029837Y-13714857D01*
X7045494Y-13773292D01*
X7098216Y-13864608D01*
X7098218Y-13864610D01*
X7098220Y-13864613D01*
X7102801Y-13869194D01*
X7130577Y-13923709D01*
X7129894Y-13958510D01*
X7099500Y-14111306D01*
X7099500Y-14288693D01*
X7134106Y-14462665D01*
X7134106Y-14462667D01*
X7201985Y-14626544D01*
X7201985Y-14626545D01*
X7300537Y-14774037D01*
X7425965Y-14899464D01*
X7456001Y-14919533D01*
X7493881Y-14967582D01*
X7500000Y-15001849D01*
X7500000Y-15301000D01*
X7481093Y-15359191D01*
X7431593Y-15395155D01*
X7401000Y-15400000D01*
X3999000Y-15400000D01*
X3940809Y-15381093D01*
X3904845Y-15331593D01*
X3900000Y-15301000D01*
X3900000Y-15048843D01*
X3918907Y-14990652D01*
X3959015Y-14958277D01*
X3972765Y-14952206D01*
X4052206Y-14872765D01*
X4097585Y-14769991D01*
X4100500Y-14744865D01*
X4100499Y-13655136D01*
X4100125Y-13651916D01*
X4112201Y-13591937D01*
X4157227Y-13550509D01*
X4216220Y-13543665D01*
X4216222Y-13543653D01*
X4216269Y-13543659D01*
X4218005Y-13543458D01*
X4222188Y-13544438D01*
X4222653Y-13544499D01*
X4222654Y-13544500D01*
X4222655Y-13544500D01*
X4377344Y-13544500D01*
X4377346Y-13544500D01*
X4526767Y-13504463D01*
X4526769Y-13504461D01*
X4526771Y-13504461D01*
X4660729Y-13427120D01*
X4660729Y-13427119D01*
X4660734Y-13427117D01*
X4770117Y-13317734D01*
X4770120Y-13317729D01*
X4849264Y-13180649D01*
X4894733Y-13139708D01*
X4955583Y-13133312D01*
X5008571Y-13163905D01*
G37*
%TD.AperFunction*%
%TA.AperFunction,NonConductor*%
G36*
X35876503Y-4742396D02*
G01*
X42738204Y-11604097D01*
X42765981Y-11658614D01*
X42767200Y-11674101D01*
X42767200Y-13146056D01*
X42748293Y-13204247D01*
X42738204Y-13216059D01*
X42687182Y-13267081D01*
X42687180Y-13267083D01*
X42687180Y-13267084D01*
X42608123Y-13404016D01*
X42567200Y-13556743D01*
X42567200Y-13714857D01*
X42608123Y-13867584D01*
X42687180Y-14004516D01*
X42798984Y-14116320D01*
X42935916Y-14195377D01*
X43088643Y-14236300D01*
X43088645Y-14236300D01*
X43246755Y-14236300D01*
X43246757Y-14236300D01*
X43399484Y-14195377D01*
X43436402Y-14174062D01*
X43496247Y-14161341D01*
X43552143Y-14186227D01*
X43582736Y-14239214D01*
X43584900Y-14259799D01*
X43584900Y-16827239D01*
X43565993Y-16885430D01*
X43516493Y-16921394D01*
X43479264Y-16926016D01*
X43469614Y-16925367D01*
X43444357Y-16918600D01*
X43368884Y-16918600D01*
X43365565Y-16918377D01*
X43340105Y-16908171D01*
X43314010Y-16899693D01*
X43309638Y-16895959D01*
X43308772Y-16895612D01*
X43308239Y-16894764D01*
X43302197Y-16889604D01*
X35436496Y-9023903D01*
X35408719Y-8969386D01*
X35407500Y-8953899D01*
X35407500Y-5299666D01*
X35426407Y-5241475D01*
X35447171Y-5220413D01*
X35457923Y-5212364D01*
X35564546Y-5132546D01*
X35650796Y-5017331D01*
X35680736Y-4937059D01*
X35701089Y-4882488D01*
X35701088Y-4882488D01*
X35701091Y-4882483D01*
X35707500Y-4822873D01*
X35707499Y-4812405D01*
X35726402Y-4754215D01*
X35775899Y-4718248D01*
X35837085Y-4718243D01*
X35876503Y-4742396D01*
G37*
%TD.AperFunction*%
%TA.AperFunction,NonConductor*%
G36*
X34265691Y-4136107D02*
G01*
X34301655Y-4185607D01*
X34306500Y-4216200D01*
X34306500Y-4822866D01*
X34306501Y-4822870D01*
X34312908Y-4882480D01*
X34312909Y-4882485D01*
X34363202Y-5017329D01*
X34449450Y-5132541D01*
X34449454Y-5132546D01*
X34449457Y-5132548D01*
X34449458Y-5132549D01*
X34566829Y-5220413D01*
X34602082Y-5270421D01*
X34606500Y-5299666D01*
X34606500Y-9108073D01*
X34606500Y-9213527D01*
X34619018Y-9260244D01*
X34633794Y-9315392D01*
X34686516Y-9406708D01*
X34686518Y-9406710D01*
X34686520Y-9406713D01*
X42735805Y-17455998D01*
X42763581Y-17510513D01*
X42764800Y-17526000D01*
X42764800Y-17598157D01*
X42805723Y-17750884D01*
X42884780Y-17887816D01*
X42996584Y-17999620D01*
X43133516Y-18078677D01*
X43286243Y-18119600D01*
X43286245Y-18119600D01*
X43444355Y-18119600D01*
X43444357Y-18119600D01*
X43460276Y-18115334D01*
X43521374Y-18118534D01*
X43568926Y-18157037D01*
X43584900Y-18210960D01*
X43584900Y-22400699D01*
X43582431Y-22408296D01*
X43583681Y-22416186D01*
X43573156Y-22436841D01*
X43565993Y-22458890D01*
X43555904Y-22470703D01*
X43428403Y-22598204D01*
X43373886Y-22625981D01*
X43358399Y-22627200D01*
X43289443Y-22627200D01*
X43289442Y-22627200D01*
X43283011Y-22628047D01*
X43282753Y-22626090D01*
X43230704Y-22623353D01*
X43183161Y-22584839D01*
X43167200Y-22530935D01*
X43167200Y-20292274D01*
X43167200Y-20292273D01*
X43139907Y-20190413D01*
X43139907Y-20190412D01*
X43139907Y-20190411D01*
X43087183Y-20099091D01*
X43087181Y-20099089D01*
X43087180Y-20099087D01*
X42047613Y-19059520D01*
X42047610Y-19059518D01*
X42047608Y-19059516D01*
X41956291Y-19006794D01*
X41956292Y-19006794D01*
X41873876Y-18984711D01*
X41822561Y-18951387D01*
X41800635Y-18894265D01*
X41800499Y-18889084D01*
X41800499Y-18885139D01*
X41800499Y-18885136D01*
X41797585Y-18860009D01*
X41752206Y-18757235D01*
X41672765Y-18677794D01*
X41569991Y-18632415D01*
X41569990Y-18632414D01*
X41569988Y-18632414D01*
X41544868Y-18629500D01*
X39955139Y-18629500D01*
X39955136Y-18629501D01*
X39930009Y-18632414D01*
X39930007Y-18632415D01*
X39879486Y-18654722D01*
X39818616Y-18660929D01*
X39765723Y-18630173D01*
X39741010Y-18574201D01*
X39740499Y-18564157D01*
X39740499Y-17345139D01*
X39740499Y-17345136D01*
X39737585Y-17320009D01*
X39692206Y-17217235D01*
X39612765Y-17137794D01*
X39509991Y-17092415D01*
X39509990Y-17092414D01*
X39509988Y-17092414D01*
X39484868Y-17089500D01*
X38495139Y-17089500D01*
X38495136Y-17089501D01*
X38470009Y-17092414D01*
X38470007Y-17092415D01*
X38428958Y-17110540D01*
X38368089Y-17116748D01*
X38348983Y-17110540D01*
X38342765Y-17107794D01*
X38239991Y-17062415D01*
X38239990Y-17062414D01*
X38239988Y-17062414D01*
X38214868Y-17059500D01*
X37225139Y-17059500D01*
X37225136Y-17059501D01*
X37200009Y-17062414D01*
X37124987Y-17095540D01*
X37064117Y-17101748D01*
X37045015Y-17095541D01*
X36969991Y-17062415D01*
X36969990Y-17062414D01*
X36969988Y-17062414D01*
X36944868Y-17059500D01*
X35955139Y-17059500D01*
X35955136Y-17059501D01*
X35930009Y-17062414D01*
X35854987Y-17095540D01*
X35849688Y-17096080D01*
X35845374Y-17099200D01*
X35827974Y-17098294D01*
X35794117Y-17101748D01*
X35784189Y-17099059D01*
X35779516Y-17097528D01*
X35699991Y-17062415D01*
X35674865Y-17059500D01*
X35663390Y-17059500D01*
X35648690Y-17054686D01*
X35633868Y-17043864D01*
X35616773Y-17037194D01*
X35609760Y-17026263D01*
X35599273Y-17018607D01*
X35593642Y-17001141D01*
X35583733Y-16985696D01*
X35580500Y-16960602D01*
X35580500Y-13985974D01*
X35580500Y-13985973D01*
X35553207Y-13884113D01*
X35553207Y-13884112D01*
X35553207Y-13884111D01*
X35500483Y-13792791D01*
X35500482Y-13792790D01*
X35500481Y-13792789D01*
X35500480Y-13792787D01*
X32051796Y-10344103D01*
X32024019Y-10289586D01*
X32022800Y-10274099D01*
X32022800Y-10201944D01*
X32022800Y-10201943D01*
X31981877Y-10049216D01*
X31902820Y-9912284D01*
X31791016Y-9800480D01*
X31654084Y-9721423D01*
X31501357Y-9680500D01*
X31343243Y-9680500D01*
X31190516Y-9721423D01*
X31053584Y-9800480D01*
X30941780Y-9912284D01*
X30862723Y-10049216D01*
X30821800Y-10201943D01*
X30821800Y-10360057D01*
X30862723Y-10512784D01*
X30941780Y-10649716D01*
X31053584Y-10761520D01*
X31190516Y-10840577D01*
X31343243Y-10881500D01*
X31415399Y-10881500D01*
X31473590Y-10900407D01*
X31485403Y-10910496D01*
X34750504Y-14175597D01*
X34778281Y-14230114D01*
X34779500Y-14245601D01*
X34779500Y-16960603D01*
X34760593Y-17018794D01*
X34711309Y-17054687D01*
X34696608Y-17059500D01*
X34685136Y-17059501D01*
X34660009Y-17062415D01*
X34580491Y-17097525D01*
X34575808Y-17099059D01*
X34549897Y-17099118D01*
X34524117Y-17101748D01*
X34516263Y-17099196D01*
X34514623Y-17099200D01*
X34513274Y-17098225D01*
X34505015Y-17095541D01*
X34429991Y-17062415D01*
X34429990Y-17062414D01*
X34429988Y-17062414D01*
X34404868Y-17059500D01*
X33415139Y-17059500D01*
X33415136Y-17059501D01*
X33390009Y-17062414D01*
X33314987Y-17095540D01*
X33254117Y-17101748D01*
X33235015Y-17095541D01*
X33159991Y-17062415D01*
X33159990Y-17062414D01*
X33159988Y-17062414D01*
X33134868Y-17059500D01*
X32145139Y-17059500D01*
X32145136Y-17059501D01*
X32120009Y-17062414D01*
X32044987Y-17095540D01*
X31984117Y-17101748D01*
X31965015Y-17095541D01*
X31889991Y-17062415D01*
X31889990Y-17062414D01*
X31889988Y-17062414D01*
X31864868Y-17059500D01*
X30875139Y-17059500D01*
X30875136Y-17059501D01*
X30850009Y-17062414D01*
X30774987Y-17095540D01*
X30714117Y-17101748D01*
X30695015Y-17095541D01*
X30619991Y-17062415D01*
X30619990Y-17062414D01*
X30619988Y-17062414D01*
X30594868Y-17059500D01*
X29605139Y-17059500D01*
X29605136Y-17059501D01*
X29580009Y-17062414D01*
X29504987Y-17095540D01*
X29444117Y-17101748D01*
X29425015Y-17095541D01*
X29349991Y-17062415D01*
X29349990Y-17062414D01*
X29349988Y-17062414D01*
X29324868Y-17059500D01*
X28335139Y-17059500D01*
X28335136Y-17059501D01*
X28310009Y-17062414D01*
X28229987Y-17097748D01*
X28169117Y-17103956D01*
X28150018Y-17097750D01*
X28069991Y-17062415D01*
X28069988Y-17062414D01*
X28044868Y-17059500D01*
X27055139Y-17059500D01*
X27055136Y-17059501D01*
X27030009Y-17062414D01*
X26954987Y-17095540D01*
X26894117Y-17101748D01*
X26875015Y-17095541D01*
X26799991Y-17062415D01*
X26799990Y-17062414D01*
X26799988Y-17062414D01*
X26774868Y-17059500D01*
X25785139Y-17059500D01*
X25785136Y-17059501D01*
X25760009Y-17062414D01*
X25684987Y-17095540D01*
X25624117Y-17101748D01*
X25605015Y-17095541D01*
X25529991Y-17062415D01*
X25529990Y-17062414D01*
X25529988Y-17062414D01*
X25504868Y-17059500D01*
X24515139Y-17059500D01*
X24515136Y-17059501D01*
X24490009Y-17062414D01*
X24387235Y-17107794D01*
X24307794Y-17187235D01*
X24262414Y-17290011D01*
X24259500Y-17315130D01*
X24259500Y-18564157D01*
X24240593Y-18622348D01*
X24191093Y-18658312D01*
X24129907Y-18658312D01*
X24120513Y-18654722D01*
X24069991Y-18632415D01*
X24069988Y-18632414D01*
X24044869Y-18629500D01*
X24044865Y-18629500D01*
X22697800Y-18629500D01*
X22639609Y-18610593D01*
X22603645Y-18561093D01*
X22598800Y-18530500D01*
X22598800Y-17284000D01*
X22617707Y-17225809D01*
X22627790Y-17214002D01*
X27152180Y-12689613D01*
X27152183Y-12689608D01*
X27204905Y-12598292D01*
X27204905Y-12598290D01*
X27204907Y-12598288D01*
X27232200Y-12496427D01*
X27232200Y-12390973D01*
X27232200Y-11232199D01*
X27251107Y-11174008D01*
X27261190Y-11162201D01*
X30435047Y-7988343D01*
X31458200Y-7988343D01*
X31458200Y-8146457D01*
X31499123Y-8299184D01*
X31578180Y-8436116D01*
X31689984Y-8547920D01*
X31826916Y-8626977D01*
X31979643Y-8667900D01*
X32051799Y-8667900D01*
X32109990Y-8686807D01*
X32121803Y-8696896D01*
X36454304Y-13029397D01*
X36482081Y-13083914D01*
X36483300Y-13099401D01*
X36483300Y-15093656D01*
X36464393Y-15151847D01*
X36454304Y-15163659D01*
X36403282Y-15214681D01*
X36403280Y-15214683D01*
X36403280Y-15214684D01*
X36324223Y-15351616D01*
X36283300Y-15504343D01*
X36283300Y-15662457D01*
X36324223Y-15815184D01*
X36403280Y-15952116D01*
X36515084Y-16063920D01*
X36652016Y-16142977D01*
X36804743Y-16183900D01*
X36804745Y-16183900D01*
X36962855Y-16183900D01*
X36962857Y-16183900D01*
X37115584Y-16142977D01*
X37252516Y-16063920D01*
X37364320Y-15952116D01*
X37443377Y-15815184D01*
X37484300Y-15662457D01*
X37484300Y-15504343D01*
X37443377Y-15351616D01*
X37364320Y-15214684D01*
X37364317Y-15214681D01*
X37313296Y-15163659D01*
X37285519Y-15109142D01*
X37284300Y-15093656D01*
X37284300Y-12839774D01*
X37284300Y-12839773D01*
X37267004Y-12775223D01*
X37267004Y-12775222D01*
X37267004Y-12775221D01*
X37257006Y-12737910D01*
X37257005Y-12737908D01*
X37204283Y-12646591D01*
X37204282Y-12646590D01*
X37204281Y-12646589D01*
X37204280Y-12646587D01*
X32688196Y-8130503D01*
X32660419Y-8075986D01*
X32659200Y-8060499D01*
X32659200Y-7988344D01*
X32657923Y-7983579D01*
X32618277Y-7835616D01*
X32539220Y-7698684D01*
X32427416Y-7586880D01*
X32290484Y-7507823D01*
X32137757Y-7466900D01*
X31979643Y-7466900D01*
X31826916Y-7507823D01*
X31689984Y-7586880D01*
X31578180Y-7698684D01*
X31499123Y-7835616D01*
X31458200Y-7988343D01*
X30435047Y-7988343D01*
X33118896Y-5304494D01*
X33173413Y-5276718D01*
X33188900Y-5275499D01*
X33604867Y-5275499D01*
X33604872Y-5275499D01*
X33664483Y-5269091D01*
X33763404Y-5232196D01*
X33799329Y-5218797D01*
X33799329Y-5218796D01*
X33799331Y-5218796D01*
X33914546Y-5132546D01*
X34000796Y-5017331D01*
X34030736Y-4937059D01*
X34051089Y-4882488D01*
X34051088Y-4882488D01*
X34051091Y-4882483D01*
X34057500Y-4822873D01*
X34057499Y-4216199D01*
X34062344Y-4201288D01*
X34062344Y-4185607D01*
X34071560Y-4172921D01*
X34076406Y-4158009D01*
X34089091Y-4148792D01*
X34098308Y-4136107D01*
X34113220Y-4131261D01*
X34125906Y-4122045D01*
X34156499Y-4117200D01*
X34207500Y-4117200D01*
X34265691Y-4136107D01*
G37*
%TD.AperFunction*%
%TA.AperFunction,NonConductor*%
G36*
X21305645Y-23464490D02*
G01*
X21348910Y-23507755D01*
X21359700Y-23552700D01*
X21359700Y-27891116D01*
X21358242Y-27891116D01*
X21348441Y-27943982D01*
X21304056Y-27986097D01*
X21243394Y-27994080D01*
X21191436Y-27966743D01*
X19145696Y-25921003D01*
X19117919Y-25866486D01*
X19116700Y-25850999D01*
X19116700Y-24550294D01*
X19135607Y-24492103D01*
X19185107Y-24456139D01*
X19246293Y-24456139D01*
X19295793Y-24492103D01*
X19301429Y-24500781D01*
X19307280Y-24510916D01*
X19419084Y-24622720D01*
X19556016Y-24701777D01*
X19708743Y-24742700D01*
X19708745Y-24742700D01*
X19866855Y-24742700D01*
X19866857Y-24742700D01*
X20019584Y-24701777D01*
X20156516Y-24622720D01*
X20268320Y-24510916D01*
X20347377Y-24373984D01*
X20358068Y-24334081D01*
X20383688Y-24289703D01*
X21190697Y-23482695D01*
X21245213Y-23454919D01*
X21305645Y-23464490D01*
G37*
%TD.AperFunction*%
%TA.AperFunction,NonConductor*%
G36*
X26802490Y-20843107D02*
G01*
X26814303Y-20853196D01*
X33144004Y-27182897D01*
X33171781Y-27237414D01*
X33173000Y-27252901D01*
X33173000Y-30979873D01*
X33173000Y-31085327D01*
X33197070Y-31175159D01*
X33200294Y-31187192D01*
X33253016Y-31278508D01*
X33253018Y-31278510D01*
X33253020Y-31278513D01*
X34763840Y-32789333D01*
X34791616Y-32843848D01*
X34782045Y-32904280D01*
X34738780Y-32947545D01*
X34678348Y-32957116D01*
X34668214Y-32954962D01*
X34647829Y-32949500D01*
X34647827Y-32949500D01*
X24399396Y-32949500D01*
X24341205Y-32930593D01*
X24305312Y-32881309D01*
X24300499Y-32866611D01*
X24300499Y-32855136D01*
X24297585Y-32830009D01*
X24262470Y-32750482D01*
X24260940Y-32745808D01*
X24260880Y-32719893D01*
X24258251Y-32694118D01*
X24260802Y-32686264D01*
X24260799Y-32684623D01*
X24261774Y-32683273D01*
X24264457Y-32675018D01*
X24297585Y-32599991D01*
X24300500Y-32574865D01*
X24300499Y-31585136D01*
X24297585Y-31560009D01*
X24297583Y-31560004D01*
X24264460Y-31484987D01*
X24258251Y-31424118D01*
X24264457Y-31405018D01*
X24297585Y-31329991D01*
X24300500Y-31304865D01*
X24300499Y-30315136D01*
X24297585Y-30290009D01*
X24264460Y-30214987D01*
X24258251Y-30154118D01*
X24264457Y-30135018D01*
X24297585Y-30059991D01*
X24300500Y-30034865D01*
X24300499Y-29045136D01*
X24297585Y-29020009D01*
X24297583Y-29020004D01*
X24264460Y-28944987D01*
X24258251Y-28884118D01*
X24264457Y-28865018D01*
X24297585Y-28789991D01*
X24300500Y-28764865D01*
X24300499Y-27775136D01*
X24297585Y-27750009D01*
X24297583Y-27750004D01*
X24264460Y-27674987D01*
X24258251Y-27614118D01*
X24264457Y-27595018D01*
X24297585Y-27519991D01*
X24300500Y-27494865D01*
X24300499Y-26505136D01*
X24297585Y-26480009D01*
X24264460Y-26404987D01*
X24263919Y-26399690D01*
X24260799Y-26395374D01*
X24261704Y-26377972D01*
X24258251Y-26344118D01*
X24260940Y-26334189D01*
X24262467Y-26329525D01*
X24297585Y-26249991D01*
X24300500Y-26224865D01*
X24300500Y-26213387D01*
X24305313Y-26198690D01*
X24316126Y-26183879D01*
X24322789Y-26166792D01*
X24333728Y-26159769D01*
X24341392Y-26149273D01*
X24358844Y-26143646D01*
X24374279Y-26133739D01*
X24399397Y-26130500D01*
X25358125Y-26130500D01*
X25358127Y-26130500D01*
X25459988Y-26103207D01*
X25459990Y-26103205D01*
X25459992Y-26103205D01*
X25551308Y-26050483D01*
X25551308Y-26050482D01*
X25551313Y-26050480D01*
X26151880Y-25449913D01*
X26166210Y-25425093D01*
X26204607Y-25358587D01*
X26231900Y-25256727D01*
X26231900Y-23099673D01*
X26204607Y-22997813D01*
X26151880Y-22906487D01*
X26114913Y-22869520D01*
X26077313Y-22831919D01*
X26077313Y-22831920D01*
X25512196Y-22266803D01*
X25484419Y-22212286D01*
X25483200Y-22196799D01*
X25483200Y-22124644D01*
X25483200Y-22124643D01*
X25442277Y-21971916D01*
X25400306Y-21899220D01*
X25387585Y-21839374D01*
X25412471Y-21783478D01*
X25426688Y-21772004D01*
X25425970Y-21771069D01*
X25431109Y-21767125D01*
X25431111Y-21767122D01*
X25431116Y-21767120D01*
X25542920Y-21655316D01*
X25621977Y-21518384D01*
X25662900Y-21365657D01*
X25662900Y-21207543D01*
X25621977Y-21054816D01*
X25621976Y-21054814D01*
X25620297Y-21048548D01*
X25622249Y-21048024D01*
X25618169Y-20996227D01*
X25650134Y-20944056D01*
X25653289Y-20941471D01*
X25658827Y-20937121D01*
X25715816Y-20904220D01*
X25771030Y-20849005D01*
X25775698Y-20845340D01*
X25799127Y-20836745D01*
X25821358Y-20825419D01*
X25832368Y-20824552D01*
X25833141Y-20824269D01*
X25833754Y-20824443D01*
X25836844Y-20824200D01*
X26744299Y-20824200D01*
X26802490Y-20843107D01*
G37*
%TD.AperFunction*%
%TA.AperFunction,NonConductor*%
G36*
X37124978Y-19124455D02*
G01*
X37200009Y-19157585D01*
X37225135Y-19160500D01*
X38214864Y-19160499D01*
X38239991Y-19157585D01*
X38281039Y-19139459D01*
X38341907Y-19133251D01*
X38361016Y-19139459D01*
X38367233Y-19142204D01*
X38367235Y-19142206D01*
X38470009Y-19187585D01*
X38495135Y-19190500D01*
X39205429Y-19190499D01*
X39263620Y-19209406D01*
X39299584Y-19258906D01*
X39301056Y-19315120D01*
X39297800Y-19327270D01*
X39297800Y-34667940D01*
X39278893Y-34726131D01*
X39229393Y-34762095D01*
X39224425Y-34763566D01*
X39151818Y-34783022D01*
X39014884Y-34862080D01*
X38903079Y-34973885D01*
X38873849Y-35024513D01*
X38828379Y-35065453D01*
X38767529Y-35071848D01*
X38718109Y-35045016D01*
X37895596Y-34222503D01*
X37867819Y-34167986D01*
X37866600Y-34152499D01*
X37866600Y-33761874D01*
X37866600Y-33761873D01*
X37854841Y-33717988D01*
X37839307Y-33660012D01*
X37839304Y-33660006D01*
X37786583Y-33568691D01*
X37786581Y-33568689D01*
X37786580Y-33568687D01*
X37359513Y-33141620D01*
X37359510Y-33141618D01*
X37359508Y-33141616D01*
X37268191Y-33088894D01*
X37268193Y-33088894D01*
X37228670Y-33078304D01*
X37166327Y-33061600D01*
X37166325Y-33061600D01*
X36777901Y-33061600D01*
X36719710Y-33042693D01*
X36707897Y-33032604D01*
X35609496Y-31934203D01*
X35581719Y-31879686D01*
X35580500Y-31864199D01*
X35580500Y-19259396D01*
X35599407Y-19201205D01*
X35648690Y-19165312D01*
X35663388Y-19160499D01*
X35674864Y-19160499D01*
X35699991Y-19157585D01*
X35779523Y-19122468D01*
X35784190Y-19120940D01*
X35810104Y-19120880D01*
X35835881Y-19118251D01*
X35843734Y-19120802D01*
X35845376Y-19120799D01*
X35846724Y-19121774D01*
X35854978Y-19124455D01*
X35930009Y-19157585D01*
X35955135Y-19160500D01*
X36944864Y-19160499D01*
X36969991Y-19157585D01*
X37045012Y-19124459D01*
X37105881Y-19118251D01*
X37124978Y-19124455D01*
G37*
%TD.AperFunction*%
M02*
