%TF.GenerationSoftware,KiCad,Pcbnew,10.0.3*%
%TF.CreationDate,2026-08-03T21:39:11-04:00*%
%TF.ProjectId,NeuralCard,4e657572-616c-4436-9172-642e6b696361,rev?*%
%TF.SameCoordinates,Original*%
%TF.FileFunction,Copper,L2,Bot*%
%TF.FilePolarity,Positive*%
%FSLAX46Y46*%
G04 Gerber Fmt 4.6, Leading zero omitted, Abs format (unit mm)*
G04 Created by KiCad (PCBNEW 10.0.3) date 2026-08-03 21:39:11*
%MOMM*%
%LPD*%
G01*
G04 APERTURE LIST*
G04 Aperture macros list*
%AMRoundRect*
0 Rectangle with rounded corners*
0 $1 Rounding radius*
0 $2 $3 $4 $5 $6 $7 $8 $9 X,Y pos of 4 corners*
0 Add a 4 corners polygon primitive as box body*
4,1,4,$2,$3,$4,$5,$6,$7,$8,$9,$2,$3,0*
0 Add four circle primitives for the rounded corners*
1,1,$1+$1,$2,$3*
1,1,$1+$1,$4,$5*
1,1,$1+$1,$6,$7*
1,1,$1+$1,$8,$9*
0 Add four rect primitives between the rounded corners*
20,1,$1+$1,$2,$3,$4,$5,0*
20,1,$1+$1,$4,$5,$6,$7,0*
20,1,$1+$1,$6,$7,$8,$9,0*
20,1,$1+$1,$8,$9,$2,$3,0*%
G04 Aperture macros list end*
%TA.AperFunction,EtchedComponent*%
%ADD10C,0.300000*%
%TD*%
%TA.AperFunction,SMDPad,CuDef*%
%ADD11RoundRect,0.200000X-0.200000X-0.275000X0.200000X-0.275000X0.200000X0.275000X-0.200000X0.275000X0*%
%TD*%
%TA.AperFunction,SMDPad,CuDef*%
%ADD12RoundRect,0.225000X0.250000X-0.225000X0.250000X0.225000X-0.250000X0.225000X-0.250000X-0.225000X0*%
%TD*%
%TA.AperFunction,SMDPad,CuDef*%
%ADD13R,1.200000X1.000000*%
%TD*%
%TA.AperFunction,ComponentPad*%
%ADD14C,1.200000*%
%TD*%
%TA.AperFunction,SMDPad,CuDef*%
%ADD15R,1.000000X0.750000*%
%TD*%
%TA.AperFunction,SMDPad,CuDef*%
%ADD16RoundRect,0.150000X-0.500000X0.150000X-0.500000X-0.150000X0.500000X-0.150000X0.500000X0.150000X0*%
%TD*%
%TA.AperFunction,SMDPad,CuDef*%
%ADD17RoundRect,0.175000X-0.175000X0.350000X-0.175000X-0.350000X0.175000X-0.350000X0.175000X0.350000X0*%
%TD*%
%TA.AperFunction,SMDPad,CuDef*%
%ADD18R,1.500000X0.900000*%
%TD*%
%TA.AperFunction,SMDPad,CuDef*%
%ADD19R,0.900000X1.500000*%
%TD*%
%TA.AperFunction,SMDPad,CuDef*%
%ADD20R,0.900000X0.900000*%
%TD*%
%TA.AperFunction,SMDPad,CuDef*%
%ADD21RoundRect,0.225000X-0.225000X-0.250000X0.225000X-0.250000X0.225000X0.250000X-0.225000X0.250000X0*%
%TD*%
%TA.AperFunction,SMDPad,CuDef*%
%ADD22RoundRect,0.250000X-0.250000X-0.475000X0.250000X-0.475000X0.250000X0.475000X-0.250000X0.475000X0*%
%TD*%
%TA.AperFunction,SMDPad,CuDef*%
%ADD23R,0.675000X0.280000*%
%TD*%
%TA.AperFunction,SMDPad,CuDef*%
%ADD24R,0.280000X0.675000*%
%TD*%
%TA.AperFunction,SMDPad,CuDef*%
%ADD25C,1.000000*%
%TD*%
%TA.AperFunction,SMDPad,CuDef*%
%ADD26O,0.574000X1.888000*%
%TD*%
%TA.AperFunction,SMDPad,CuDef*%
%ADD27RoundRect,0.250000X0.475000X-0.250000X0.475000X0.250000X-0.475000X0.250000X-0.475000X-0.250000X0*%
%TD*%
%TA.AperFunction,SMDPad,CuDef*%
%ADD28R,1.500000X2.200000*%
%TD*%
%TA.AperFunction,SMDPad,CuDef*%
%ADD29R,4.200000X3.800000*%
%TD*%
%TA.AperFunction,ViaPad*%
%ADD30C,0.600000*%
%TD*%
%TA.AperFunction,Conductor*%
%ADD31C,0.200000*%
%TD*%
G04 APERTURE END LIST*
%TO.C,ANT1*%
D10*
X2650000Y-16150000D02*
X2650000Y-40350000D01*
X2650000Y-40350000D02*
X14350000Y-40350000D01*
X3200000Y-14200000D02*
X3200000Y-16150000D01*
X3200000Y-16150000D02*
X2650000Y-16150000D01*
X3250000Y-16750000D02*
X3250000Y-16750000D01*
X3250000Y-16750000D02*
X3250000Y-39750000D01*
X3250000Y-39750000D02*
X13750000Y-39750000D01*
X3850000Y-17350000D02*
X3850000Y-17350000D01*
X3850000Y-17350000D02*
X3850000Y-39150000D01*
X3850000Y-39150000D02*
X13150000Y-39150000D01*
X4450000Y-17950000D02*
X4450000Y-17950000D01*
X4450000Y-17950000D02*
X4450000Y-38550000D01*
X4450000Y-38550000D02*
X12550000Y-38550000D01*
X5050000Y-18550000D02*
X5050000Y-18550000D01*
X5050000Y-18550000D02*
X5050000Y-37950000D01*
X5050000Y-37950000D02*
X11950000Y-37950000D01*
X5650000Y-19150000D02*
X5650000Y-19150000D01*
X5650000Y-19150000D02*
X5650000Y-37350000D01*
X5650000Y-37350000D02*
X11350000Y-37350000D01*
X6250000Y-19750000D02*
X6250000Y-19750000D01*
X6250000Y-19750000D02*
X6250000Y-36750000D01*
X6250000Y-36750000D02*
X10750000Y-36750000D01*
X6850000Y-20350000D02*
X6850000Y-20350000D01*
X6850000Y-20350000D02*
X6850000Y-36150000D01*
X6850000Y-36150000D02*
X10150000Y-36150000D01*
X7450000Y-20950000D02*
X7450000Y-20950000D01*
X7450000Y-20950000D02*
X7450000Y-35550000D01*
X7450000Y-35550000D02*
X9550000Y-35550000D01*
X9550000Y-21550000D02*
X8886000Y-22341000D01*
X9550000Y-35550000D02*
X9550000Y-21550000D01*
X10150000Y-20950000D02*
X7450000Y-20950000D01*
X10150000Y-36150000D02*
X10150000Y-20950000D01*
X10750000Y-20350000D02*
X6850000Y-20350000D01*
X10750000Y-36750000D02*
X10750000Y-20350000D01*
X11350000Y-19750000D02*
X6250000Y-19750000D01*
X11350000Y-37350000D02*
X11350000Y-19750000D01*
X11950000Y-19150000D02*
X5650000Y-19150000D01*
X11950000Y-37950000D02*
X11950000Y-19150000D01*
X12550000Y-18550000D02*
X5050000Y-18550000D01*
X12550000Y-38550000D02*
X12550000Y-18550000D01*
X13150000Y-17950000D02*
X4450000Y-17950000D01*
X13150000Y-39150000D02*
X13150000Y-17950000D01*
X13750000Y-17350000D02*
X3850000Y-17350000D01*
X13750000Y-39750000D02*
X13750000Y-17350000D01*
X14350000Y-16750000D02*
X3250000Y-16750000D01*
X14350000Y-40350000D02*
X14350000Y-16750000D01*
%TD*%
D11*
%TO.P,R11,1*%
%TO.N,+3V3*%
X59539000Y-4500000D03*
%TO.P,R11,2*%
%TO.N,SDA*%
X61189000Y-4500000D03*
%TD*%
%TO.P,R9,1*%
%TO.N,+3V3*%
X46448000Y-4500000D03*
%TO.P,R9,2*%
%TO.N,EN*%
X48098000Y-4500000D03*
%TD*%
D12*
%TO.P,C4,1*%
%TO.N,EN*%
X44000000Y-22775000D03*
%TO.P,C4,2*%
%TO.N,GND*%
X44000000Y-21225000D03*
%TD*%
D11*
%TO.P,R1,1*%
%TO.N,CHX1*%
X7175000Y-4500000D03*
%TO.P,R1,2*%
%TO.N,CP1*%
X8825000Y-4500000D03*
%TD*%
D13*
%TO.P,ANT1,1*%
%TO.N,NFC_ANT_A*%
X3200000Y-14200000D03*
D14*
%TO.P,ANT1,2*%
%TO.N,NFC_ANT_B*%
X8000000Y-14200000D03*
%TO.P,ANT1,3*%
%TO.N,N/C*%
X8500000Y-22800000D03*
%TD*%
D12*
%TO.P,C3,1*%
%TO.N,+3V3*%
X44000000Y-17775000D03*
%TO.P,C3,2*%
%TO.N,GND*%
X44000000Y-16225000D03*
%TD*%
D11*
%TO.P,R10,1*%
%TO.N,+3V3*%
X52993000Y-4500000D03*
%TO.P,R10,2*%
%TO.N,IO0*%
X54643000Y-4500000D03*
%TD*%
%TO.P,R5,1*%
%TO.N,CHX5*%
X33357000Y-4500000D03*
%TO.P,R5,2*%
%TO.N,CP5*%
X35007000Y-4500000D03*
%TD*%
%TO.P,R4,1*%
%TO.N,CHX4*%
X26811000Y-4500000D03*
%TO.P,R4,2*%
%TO.N,CP4*%
X28461000Y-4500000D03*
%TD*%
D15*
%TO.P,SW2,1*%
%TO.N,EN*%
X21000000Y-49150000D03*
%TO.P,SW2,2*%
%TO.N,GND*%
X27000000Y-49150000D03*
%TO.P,SW2,3*%
%TO.N,EN*%
X21000000Y-45450000D03*
%TO.P,SW2,4*%
%TO.N,GND*%
X27000000Y-45450000D03*
%TD*%
D16*
%TO.P,SW3,1*%
%TO.N,unconnected-(SW3-A-Pad1)*%
X79505000Y-25750000D03*
%TO.P,SW3,2*%
%TO.N,VBAT*%
X79505000Y-28750000D03*
%TO.P,SW3,3*%
%TO.N,+3V3*%
X79505000Y-30250000D03*
D17*
%TO.P,SW3,SH*%
%TO.N,N/C*%
X82555000Y-24325000D03*
X80355000Y-24325000D03*
X82555000Y-31675000D03*
X80355000Y-31675000D03*
%TD*%
D18*
%TO.P,U1,1*%
%TO.N,GND*%
X23250000Y-35890000D03*
%TO.P,U1,2*%
%TO.N,+3V3*%
X23250000Y-34620000D03*
%TO.P,U1,3*%
%TO.N,EN*%
X23250000Y-33350000D03*
%TO.P,U1,4*%
%TO.N,CHX1*%
X23250000Y-32080000D03*
%TO.P,U1,5*%
%TO.N,CHX2*%
X23250000Y-30810000D03*
%TO.P,U1,6*%
%TO.N,CHX3*%
X23250000Y-29540000D03*
%TO.P,U1,7*%
%TO.N,CHX4*%
X23250000Y-28270000D03*
%TO.P,U1,8*%
%TO.N,CHX5*%
X23250000Y-27000000D03*
%TO.P,U1,9*%
%TO.N,CHX6*%
X23250000Y-25730000D03*
%TO.P,U1,10*%
%TO.N,SCL*%
X23250000Y-24460000D03*
%TO.P,U1,11*%
%TO.N,IMU_INT*%
X23250000Y-23190000D03*
%TO.P,U1,12*%
%TO.N,SDA*%
X23250000Y-21920000D03*
%TO.P,U1,13*%
%TO.N,unconnected-(U1-IO19-Pad13)*%
X23250000Y-20650000D03*
%TO.P,U1,14*%
%TO.N,unconnected-(U1-IO20-Pad14)*%
X23250000Y-19380000D03*
D19*
%TO.P,U1,15*%
%TO.N,unconnected-(U1-IO3-Pad15)*%
X25010000Y-18110000D03*
%TO.P,U1,16*%
%TO.N,unconnected-(U1-IO46-Pad16)*%
X26280000Y-18110000D03*
%TO.P,U1,17*%
%TO.N,unconnected-(U1-IO9-Pad17)*%
X27550000Y-18110000D03*
%TO.P,U1,18*%
%TO.N,unconnected-(U1-IO10-Pad18)*%
X28830000Y-18110000D03*
%TO.P,U1,19*%
%TO.N,unconnected-(U1-IO11-Pad19)*%
X30100000Y-18110000D03*
%TO.P,U1,20*%
%TO.N,unconnected-(U1-IO12-Pad20)*%
X31370000Y-18110000D03*
%TO.P,U1,21*%
%TO.N,unconnected-(U1-IO13-Pad21)*%
X32640000Y-18110000D03*
%TO.P,U1,22*%
%TO.N,unconnected-(U1-IO14-Pad22)*%
X33910000Y-18110000D03*
%TO.P,U1,23*%
%TO.N,NFC_GPO*%
X35180000Y-18110000D03*
%TO.P,U1,24*%
%TO.N,unconnected-(U1-IO47-Pad24)*%
X36450000Y-18110000D03*
%TO.P,U1,25*%
%TO.N,unconnected-(U1-IO48-Pad25)*%
X37720000Y-18110000D03*
%TO.P,U1,26*%
%TO.N,unconnected-(U1-IO45-Pad26)*%
X38990000Y-18140000D03*
D18*
%TO.P,U1,27*%
%TO.N,IO0*%
X40750000Y-19380000D03*
%TO.P,U1,28*%
%TO.N,unconnected-(U1-IO35-Pad28)*%
X40750000Y-20650000D03*
%TO.P,U1,29*%
%TO.N,unconnected-(U1-IO36-Pad29)*%
X40750000Y-21920000D03*
%TO.P,U1,30*%
%TO.N,unconnected-(U1-IO37-Pad30)*%
X40750000Y-23190000D03*
%TO.P,U1,31*%
%TO.N,unconnected-(U1-IO38-Pad31)*%
X40750000Y-24460000D03*
%TO.P,U1,32*%
%TO.N,unconnected-(U1-IO39-Pad32)*%
X40750000Y-25730000D03*
%TO.P,U1,33*%
%TO.N,unconnected-(U1-IO40-Pad33)*%
X40750000Y-27000000D03*
%TO.P,U1,34*%
%TO.N,unconnected-(U1-IO41-Pad34)*%
X40750000Y-28270000D03*
%TO.P,U1,35*%
%TO.N,unconnected-(U1-IO42-Pad35)*%
X40750000Y-29540000D03*
%TO.P,U1,36*%
%TO.N,RXD*%
X40750000Y-30810000D03*
%TO.P,U1,37*%
%TO.N,TXD*%
X40750000Y-32080000D03*
%TO.P,U1,38*%
%TO.N,unconnected-(U1-IO2-Pad38)*%
X40750000Y-33350000D03*
%TO.P,U1,39*%
%TO.N,unconnected-(U1-IO1-Pad39)*%
X40750000Y-34620000D03*
%TO.P,U1,40*%
%TO.N,GND*%
X40750000Y-35890000D03*
D20*
%TO.P,U1,41*%
X29100000Y-26770000D03*
X29100000Y-28170000D03*
X29100000Y-29570000D03*
X30500000Y-26770000D03*
X30500000Y-28170000D03*
X30500000Y-29570000D03*
X31900000Y-26770000D03*
X31900000Y-28170000D03*
X31900000Y-29570000D03*
%TD*%
D21*
%TO.P,C2,1*%
%TO.N,+3V3*%
X20225000Y-21500000D03*
%TO.P,C2,2*%
%TO.N,GND*%
X21775000Y-21500000D03*
%TD*%
D22*
%TO.P,C9,1*%
%TO.N,+3V3*%
X72505000Y-4500000D03*
%TO.P,C9,2*%
%TO.N,GND*%
X74405000Y-4500000D03*
%TD*%
D23*
%TO.P,U2,1*%
%TO.N,+3V3*%
X20240000Y-10250000D03*
%TO.P,U2,2*%
%TO.N,unconnected-(U2-SDx-Pad2)*%
X20240000Y-9750000D03*
%TO.P,U2,3*%
%TO.N,unconnected-(U2-SCx-Pad3)*%
X20240000Y-9250000D03*
%TO.P,U2,4*%
%TO.N,IMU_INT*%
X20240000Y-8750000D03*
D24*
%TO.P,U2,5*%
%TO.N,+3V3*%
X21000000Y-8490000D03*
%TO.P,U2,6*%
%TO.N,GND*%
X21500000Y-8490000D03*
%TO.P,U2,7*%
X22000000Y-8490000D03*
D23*
%TO.P,U2,8*%
%TO.N,+3V3*%
X22760000Y-8750000D03*
%TO.P,U2,9*%
%TO.N,unconnected-(U2-INT2-Pad9)*%
X22760000Y-9250000D03*
%TO.P,U2,10*%
%TO.N,unconnected-(U2-NC-Pad10)*%
X22760000Y-9750000D03*
%TO.P,U2,11*%
%TO.N,unconnected-(U2-NC-Pad11)*%
X22760000Y-10250000D03*
D24*
%TO.P,U2,12*%
%TO.N,+3V3*%
X22000000Y-10510000D03*
%TO.P,U2,13*%
%TO.N,SCL*%
X21500000Y-10510000D03*
%TO.P,U2,14*%
%TO.N,SDA*%
X21000000Y-10510000D03*
%TD*%
D11*
%TO.P,R3,1*%
%TO.N,CHX3*%
X20266000Y-4500000D03*
%TO.P,R3,2*%
%TO.N,CP3*%
X21916000Y-4500000D03*
%TD*%
%TO.P,R6,1*%
%TO.N,CHX6*%
X39902000Y-4500000D03*
%TO.P,R6,2*%
%TO.N,CP6*%
X41552000Y-4500000D03*
%TD*%
D25*
%TO.P,FID3,*%
%TO.N,*%
X81000000Y-50500000D03*
%TD*%
D21*
%TO.P,C1,1*%
%TO.N,+3V3*%
X20225000Y-16500000D03*
%TO.P,C1,2*%
%TO.N,GND*%
X21775000Y-16500000D03*
%TD*%
%TO.P,C12,1*%
%TO.N,NFC_ANT_A*%
X10125000Y-12900000D03*
%TO.P,C12,2*%
%TO.N,NFC_ANT_B*%
X11675000Y-12900000D03*
%TD*%
D12*
%TO.P,C11,1*%
%TO.N,+3V3*%
X10800000Y-8775000D03*
%TO.P,C11,2*%
%TO.N,GND*%
X10800000Y-7225000D03*
%TD*%
D21*
%TO.P,C5,1*%
%TO.N,+3V3*%
X24725000Y-9500000D03*
%TO.P,C5,2*%
%TO.N,GND*%
X26275000Y-9500000D03*
%TD*%
D11*
%TO.P,R12,1*%
%TO.N,+3V3*%
X66084000Y-4500000D03*
%TO.P,R12,2*%
%TO.N,SCL*%
X67734000Y-4500000D03*
%TD*%
D25*
%TO.P,FID1,*%
%TO.N,*%
X3500000Y-3000000D03*
%TD*%
D26*
%TO.P,U4,1*%
%TO.N,unconnected-(U4-V_EH-Pad1)*%
X4300000Y-6900000D03*
%TO.P,U4,2*%
%TO.N,NFC_ANT_A*%
X5570000Y-6900000D03*
%TO.P,U4,3*%
%TO.N,NFC_ANT_B*%
X6830000Y-6900000D03*
%TO.P,U4,4*%
%TO.N,GND*%
X8100000Y-6900000D03*
%TO.P,U4,5*%
%TO.N,SDA*%
X8100000Y-12300000D03*
%TO.P,U4,6*%
%TO.N,SCL*%
X6830000Y-12300000D03*
%TO.P,U4,7*%
%TO.N,NFC_GPO*%
X5570000Y-12300000D03*
%TO.P,U4,8*%
%TO.N,+3V3*%
X4300000Y-12300000D03*
%TD*%
D11*
%TO.P,R14,1*%
%TO.N,+3V3*%
X61175000Y-51900000D03*
%TO.P,R14,2*%
%TO.N,NFC_GPO*%
X62825000Y-51900000D03*
%TD*%
D25*
%TO.P,FID2,*%
%TO.N,*%
X3500000Y-50500000D03*
%TD*%
D22*
%TO.P,C10,1*%
%TO.N,+3V3*%
X79050000Y-4500000D03*
%TO.P,C10,2*%
%TO.N,GND*%
X80950000Y-4500000D03*
%TD*%
D11*
%TO.P,R2,1*%
%TO.N,CHX2*%
X13720000Y-4500000D03*
%TO.P,R2,2*%
%TO.N,CP2*%
X15370000Y-4500000D03*
%TD*%
D27*
%TO.P,C8,1*%
%TO.N,+3V3*%
X44000000Y-27950000D03*
%TO.P,C8,2*%
%TO.N,GND*%
X44000000Y-26050000D03*
%TD*%
D28*
%TO.P,J1,1*%
%TO.N,+3V3*%
X66000000Y-50000000D03*
%TO.P,J1,2*%
%TO.N,GND*%
X68540000Y-50000000D03*
%TO.P,J1,3*%
%TO.N,TXD*%
X71080000Y-50000000D03*
%TO.P,J1,4*%
%TO.N,RXD*%
X73620000Y-50000000D03*
%TO.P,J1,5*%
%TO.N,EN*%
X76160000Y-50000000D03*
%TO.P,J1,6*%
%TO.N,IO0*%
X78700000Y-50000000D03*
%TD*%
D15*
%TO.P,SW1,1*%
%TO.N,IO0*%
X9000000Y-49150000D03*
%TO.P,SW1,2*%
%TO.N,GND*%
X15000000Y-49150000D03*
%TO.P,SW1,3*%
%TO.N,IO0*%
X9000000Y-45450000D03*
%TO.P,SW1,4*%
%TO.N,GND*%
X15000000Y-45450000D03*
%TD*%
D29*
%TO.P,BT1,1*%
%TO.N,VBAT*%
X76390000Y-28000000D03*
%TO.P,BT1,2*%
%TO.N,GND*%
X47610000Y-28000000D03*
%TD*%
D30*
%TO.N,CP5*%
X33762900Y-29841400D03*
X33925100Y-12731800D03*
X69851800Y-26728100D03*
X43365300Y-46062600D03*
X69646700Y-32693600D03*
X67554300Y-43183800D03*
X63359000Y-38549200D03*
X42977000Y-17519100D03*
%TO.N,CP2*%
X25465000Y-41247800D03*
X66834100Y-35348900D03*
X17002000Y-9528800D03*
X26450400Y-20062100D03*
X68598500Y-12731800D03*
%TO.N,CP3*%
X66470800Y-7340000D03*
X69850900Y-18138100D03*
X19097900Y-15583400D03*
X68526000Y-21389700D03*
X67036600Y-40535400D03*
%TO.N,CP4*%
X21595200Y-20444000D03*
X43365300Y-11810000D03*
%TO.N,CP1*%
X68366200Y-31023300D03*
X69350000Y-10797500D03*
X10177300Y-10347300D03*
%TO.N,CP6*%
X48718600Y-21267900D03*
X49348400Y-4510100D03*
X44842400Y-4381900D03*
%TO.N,+3V3*%
X42171000Y-26476000D03*
X21555500Y-35309400D03*
%TO.N,SDA*%
X53155000Y-3387700D03*
X27636000Y-3832100D03*
X7679800Y-10616100D03*
%TO.N,EN*%
X25264200Y-29657800D03*
X43601900Y-25046000D03*
%TO.N,GND*%
X43000000Y-2400000D03*
X49874533Y-10754251D03*
X19515285Y-37700850D03*
X46971116Y-16897202D03*
X71959395Y-38529712D03*
X31385172Y-20287750D03*
X24000000Y-8000000D03*
X56747924Y-13642187D03*
X65139356Y-36750118D03*
X43000000Y-51600000D03*
X55991625Y-10298491D03*
X54501300Y-41188808D03*
X59181409Y-46035157D03*
X48000000Y-27000000D03*
X83000000Y-51000000D03*
X4950000Y-14684853D03*
X45076170Y-10588544D03*
X83000000Y-12000000D03*
X74238475Y-5729416D03*
X36355615Y-26605528D03*
X12987575Y-14271949D03*
X83000000Y-27000000D03*
X62469356Y-49356082D03*
X43525387Y-33364645D03*
X52000000Y-40000000D03*
X68517837Y-6881868D03*
X31076968Y-26342583D03*
X2600000Y-12000000D03*
%TO.N,NFC_ANT_A*%
X4144800Y-9285300D03*
X9205700Y-10343600D03*
%TO.N,IO0*%
X49199600Y-19194900D03*
X42494400Y-19344900D03*
X10617400Y-45300100D03*
X39467700Y-35776300D03*
%TO.N,CHX5*%
X25172900Y-21196900D03*
X32604400Y-14328800D03*
%TO.N,CHX4*%
X24972900Y-20378000D03*
X21294800Y-19391900D03*
%TO.N,CHX6*%
X41056600Y-17968000D03*
X24670600Y-24776200D03*
%TO.N,SCL*%
X56394800Y-5302800D03*
X18696200Y-13299200D03*
X7146900Y-9149200D03*
X21987900Y-12629500D03*
%TO.N,IMU_INT*%
X21726800Y-23364900D03*
X17771500Y-24758500D03*
X17835300Y-7819700D03*
X24097300Y-6651400D03*
%TO.N,NFC_GPO*%
X29584300Y-4409100D03*
X6555500Y-10699000D03*
%TD*%
%TO.N,CP5*%
D31*
X69851800Y-26728100D02*
X69851800Y-32488500D01*
X40755800Y-18569800D02*
X41926300Y-18569800D01*
X35007000Y-4500000D02*
X35007000Y-11649900D01*
X41926300Y-18569800D02*
X42977000Y-17519100D01*
X34567900Y-12089000D02*
X33925100Y-12731800D01*
X63359000Y-38549200D02*
X67554300Y-42744500D01*
X69851800Y-32488500D02*
X69646700Y-32693600D01*
X34567900Y-12089000D02*
X39741700Y-17262900D01*
X67554300Y-42744500D02*
X67554300Y-43183800D01*
X39741700Y-17555700D02*
X40755800Y-18569800D01*
X35007000Y-11649900D02*
X34567900Y-12089000D01*
X39741700Y-17262900D02*
X39741700Y-17555700D01*
X33762900Y-29841400D02*
X33762900Y-36460200D01*
X33762900Y-36460200D02*
X43365300Y-46062600D01*
%TO.N,CP2*%
X26450400Y-20062100D02*
X26450400Y-40262400D01*
X15370000Y-4500000D02*
X17002000Y-6132000D01*
X26450400Y-40262400D02*
X25465000Y-41247800D01*
X17002000Y-6132000D02*
X17002000Y-9528800D01*
X66834100Y-14496200D02*
X68598500Y-12731800D01*
X66834100Y-35348900D02*
X66834100Y-14496200D01*
%TO.N,CP3*%
X19297900Y-15383400D02*
X19097900Y-15583400D01*
X70047500Y-10631800D02*
X66755700Y-7340000D01*
X19189600Y-12941700D02*
X19297900Y-13050000D01*
X67482500Y-34627800D02*
X67482500Y-40089500D01*
X68526000Y-21389700D02*
X67283300Y-22632400D01*
X69850900Y-18138100D02*
X70047500Y-17941500D01*
X21916000Y-4500000D02*
X19189600Y-7226400D01*
X70047500Y-17941500D02*
X70047500Y-10631800D01*
X66755700Y-7340000D02*
X66470800Y-7340000D01*
X19297900Y-13050000D02*
X19297900Y-15383400D01*
X19189600Y-7226400D02*
X19189600Y-12941700D01*
X67482500Y-40089500D02*
X67036600Y-40535400D01*
X67283300Y-34428600D02*
X67482500Y-34627800D01*
X67283300Y-22632400D02*
X67283300Y-34428600D01*
%TO.N,CP4*%
X43365300Y-11810000D02*
X43365300Y-11652200D01*
X21595200Y-20444000D02*
X21896500Y-20142700D01*
X21896500Y-20142700D02*
X21896500Y-19090600D01*
X43365300Y-11652200D02*
X35397700Y-3684600D01*
X35397700Y-3684600D02*
X29276400Y-3684600D01*
X29276400Y-3684600D02*
X28461000Y-4500000D01*
X21896500Y-19090600D02*
X28461000Y-12526100D01*
X28461000Y-12526100D02*
X28461000Y-4500000D01*
%TO.N,CP1*%
X69602000Y-17536300D02*
X69601900Y-17536400D01*
X69249200Y-18387200D02*
X69601800Y-18739800D01*
X69350000Y-10797500D02*
X69602000Y-11049500D01*
X69603500Y-18741400D02*
X69603500Y-26125700D01*
X69601800Y-17536400D02*
X69249200Y-17889000D01*
X69250100Y-30139400D02*
X68366200Y-31023300D01*
X69249200Y-17889000D02*
X69249200Y-18387200D01*
X69601800Y-18739800D02*
X69601900Y-18739800D01*
X69602000Y-11049500D02*
X69602000Y-17536300D01*
X69601900Y-18739800D02*
X69603500Y-18741400D01*
X69602800Y-26126400D02*
X69602700Y-26126400D01*
X69603500Y-26125700D02*
X69602800Y-26126400D01*
X8825000Y-8995000D02*
X10177300Y-10347300D01*
X69250100Y-26479000D02*
X69250100Y-30139400D01*
X69602700Y-26126400D02*
X69250100Y-26479000D01*
X69601900Y-17536400D02*
X69601800Y-17536400D01*
X8825000Y-4500000D02*
X8825000Y-8995000D01*
%TO.N,CP6*%
X41670100Y-4381900D02*
X41552000Y-4500000D01*
X48597800Y-21147100D02*
X48718600Y-21267900D01*
X44842400Y-4381900D02*
X41670100Y-4381900D01*
X48597800Y-5260700D02*
X48597800Y-21147100D01*
X49348400Y-4510100D02*
X48597800Y-5260700D01*
%TO.N,+3V3*%
X79505000Y-30045000D02*
X79505000Y-30250000D01*
X56996500Y-5552000D02*
X56996500Y-5053600D01*
X79050000Y-4500000D02*
X81032900Y-6482900D01*
X72505000Y-3694600D02*
X72505000Y-4500000D01*
X72734600Y-3465000D02*
X72505000Y-3694600D01*
X61960600Y-4500000D02*
X61960600Y-4964400D01*
X23975000Y-8750000D02*
X24725000Y-9500000D01*
X6199900Y-8706100D02*
X4300000Y-10606000D01*
X64948300Y-50000000D02*
X64948300Y-51051700D01*
X46448000Y-15327000D02*
X46448000Y-4500000D01*
X67051700Y-50788800D02*
X67670400Y-51407500D01*
X44000000Y-18690200D02*
X44000000Y-17775000D01*
X81032900Y-6482900D02*
X81032900Y-25526300D01*
X52210500Y-3717500D02*
X52993000Y-4500000D01*
X79505000Y-32756700D02*
X79505000Y-30250000D01*
X22198300Y-34666600D02*
X22198300Y-34620000D01*
X80455800Y-26103400D02*
X80455800Y-27049500D01*
X19600800Y-10248500D02*
X19602300Y-10250000D01*
X61242700Y-5682300D02*
X57104200Y-5682300D01*
X4300000Y-10606000D02*
X4300000Y-12300000D01*
X24725000Y-9500000D02*
X23075800Y-11149200D01*
X66000000Y-50000000D02*
X67051700Y-50000000D01*
X6199900Y-4229100D02*
X6199900Y-8706100D01*
X60328700Y-3710300D02*
X61664500Y-3710300D01*
X20225000Y-12420700D02*
X19600800Y-11796500D01*
X61664500Y-3710300D02*
X61960600Y-4006400D01*
X80455800Y-27049500D02*
X80519500Y-27113200D01*
X61960600Y-4006400D02*
X61960600Y-4500000D01*
X64948300Y-51051700D02*
X63278700Y-52721300D01*
X63278700Y-52721300D02*
X61996300Y-52721300D01*
X61996300Y-52721300D02*
X61175000Y-51900000D01*
X22638500Y-5239600D02*
X19600800Y-8277300D01*
X24725000Y-3714800D02*
X24725000Y-9500000D01*
X19602300Y-10250000D02*
X19600800Y-10250000D01*
X56996400Y-5552100D02*
X56996500Y-5552000D01*
X53819400Y-3673600D02*
X52993000Y-4500000D01*
X79768800Y-51208300D02*
X79768800Y-33020500D01*
X7161700Y-3267300D02*
X6199900Y-4229100D01*
X56996400Y-5574500D02*
X56996400Y-5552100D01*
X66084000Y-4500000D02*
X61960600Y-4500000D01*
X22638500Y-3714800D02*
X22638500Y-5239600D01*
X44000000Y-27950000D02*
X42938700Y-26888700D01*
X79569600Y-51407500D02*
X79768800Y-51208300D01*
X66889400Y-3694600D02*
X66084000Y-4500000D01*
X20225000Y-16500000D02*
X20225000Y-12420700D01*
X42938700Y-26476000D02*
X42171000Y-26476000D01*
X19600800Y-8277300D02*
X19600800Y-10248500D01*
X79768800Y-33020500D02*
X79505000Y-32756700D01*
X19600800Y-11796500D02*
X19600800Y-10250000D01*
X80519500Y-29030500D02*
X79505000Y-30045000D01*
X42938700Y-26476000D02*
X42938700Y-19751500D01*
X13240900Y-3714800D02*
X11598900Y-5356800D01*
X23075800Y-11149200D02*
X22000000Y-11149200D01*
X67051700Y-50000000D02*
X67051700Y-50788800D01*
X67670400Y-51407500D02*
X79569600Y-51407500D01*
X24725000Y-3714800D02*
X22638500Y-3714800D01*
X11598900Y-7976100D02*
X10800000Y-8775000D01*
X44000000Y-17775000D02*
X46448000Y-15327000D01*
X45178400Y-3230400D02*
X25209400Y-3230400D01*
X56996500Y-5053600D02*
X55616500Y-3673600D01*
X9509400Y-3267300D02*
X7161700Y-3267300D01*
X11598900Y-5356800D02*
X11598900Y-7976100D01*
X20240000Y-10250000D02*
X19602300Y-10250000D01*
X57104200Y-5682300D02*
X56996400Y-5574500D01*
X25209400Y-3230400D02*
X24725000Y-3714800D01*
X61960600Y-4964400D02*
X61242700Y-5682300D01*
X22000000Y-10510000D02*
X22000000Y-11149200D01*
X21555500Y-35309400D02*
X22198300Y-34666600D01*
X59539000Y-4500000D02*
X60328700Y-3710300D01*
X42938700Y-19751500D02*
X44000000Y-18690200D01*
X22000000Y-9870800D02*
X21741600Y-9870800D01*
X72505000Y-3694600D02*
X66889400Y-3694600D01*
X42938700Y-26888700D02*
X42938700Y-26476000D01*
X78015000Y-3465000D02*
X72734600Y-3465000D01*
X66000000Y-50000000D02*
X64948300Y-50000000D01*
X21741600Y-9870800D02*
X21000000Y-9129200D01*
X55616500Y-3673600D02*
X53819400Y-3673600D01*
X79050000Y-4500000D02*
X78015000Y-3465000D01*
X22638500Y-3714800D02*
X13240900Y-3714800D01*
X20225000Y-16500000D02*
X20225000Y-21500000D01*
X81032900Y-25526300D02*
X80455800Y-26103400D01*
X22760000Y-8750000D02*
X23975000Y-8750000D01*
X46448000Y-4500000D02*
X45178400Y-3230400D01*
X22000000Y-10510000D02*
X22000000Y-9870800D01*
X46448000Y-4500000D02*
X47230500Y-3717500D01*
X21000000Y-8490000D02*
X21000000Y-9129200D01*
X80519500Y-27113200D02*
X80519500Y-29030500D01*
X23250000Y-34620000D02*
X22198300Y-34620000D01*
X11598900Y-5356800D02*
X9509400Y-3267300D01*
X47230500Y-3717500D02*
X52210500Y-3717500D01*
%TO.N,SDA*%
X21677100Y-13241900D02*
X21000000Y-12564800D01*
X20992000Y-13927000D02*
X21677100Y-13241900D01*
X57877400Y-5277500D02*
X55834600Y-3234700D01*
X21000000Y-12564800D02*
X21000000Y-11149200D01*
X21339800Y-22322300D02*
X20993500Y-21976000D01*
X20993500Y-19941800D02*
X20692700Y-19641000D01*
X60411500Y-5277500D02*
X57877400Y-5277500D01*
X20692700Y-19142800D02*
X20992000Y-18843500D01*
X25511200Y-9958900D02*
X25511200Y-4548300D01*
X8100000Y-11036300D02*
X7679800Y-10616100D01*
X27495000Y-3691100D02*
X27636000Y-3832100D01*
X21677100Y-13241900D02*
X22228200Y-13241900D01*
X22847700Y-22322300D02*
X21339800Y-22322300D01*
X53308000Y-3234700D02*
X53155000Y-3387700D01*
X61189000Y-4500000D02*
X60411500Y-5277500D01*
X22228200Y-13241900D02*
X25511200Y-9958900D01*
X20692700Y-19641000D02*
X20692700Y-19142800D01*
X21000000Y-10510000D02*
X21000000Y-11149200D01*
X23250000Y-21920000D02*
X22847700Y-22322300D01*
X26368400Y-3691100D02*
X27495000Y-3691100D01*
X20993500Y-21976000D02*
X20993500Y-19941800D01*
X8100000Y-12300000D02*
X8100000Y-11036300D01*
X25511200Y-4548300D02*
X26368400Y-3691100D01*
X20992000Y-18843500D02*
X20992000Y-13927000D01*
X55834600Y-3234700D02*
X53308000Y-3234700D01*
%TO.N,EN*%
X21000000Y-44773300D02*
X24301700Y-41471600D01*
X21000000Y-45450000D02*
X21000000Y-44773300D01*
X48098000Y-4500000D02*
X48098000Y-18677000D01*
X24301700Y-41471600D02*
X24301700Y-33350000D01*
X63960700Y-38310300D02*
X63960700Y-38300000D01*
X44000000Y-24647900D02*
X43601900Y-25046000D01*
X76160000Y-50000000D02*
X75108300Y-50000000D01*
X75108300Y-49211200D02*
X67034200Y-41137100D01*
X67034200Y-41137100D02*
X66787500Y-41137100D01*
X66787500Y-41137100D02*
X63960700Y-38310300D01*
X75108300Y-50000000D02*
X75108300Y-49211200D01*
X48435700Y-22775000D02*
X44000000Y-22775000D01*
X44000000Y-22775000D02*
X44000000Y-24647900D01*
X63960700Y-38300000D02*
X48435700Y-22775000D01*
X21000000Y-45450000D02*
X21000000Y-49150000D01*
X25264200Y-32387500D02*
X25264200Y-29657800D01*
X23250000Y-33350000D02*
X24301700Y-33350000D01*
X48098000Y-18677000D02*
X44000000Y-22775000D01*
X24301700Y-33350000D02*
X25264200Y-32387500D01*
%TO.N,CHX1*%
X15386000Y-14661800D02*
X9955100Y-9230900D01*
X22198300Y-31555600D02*
X15386000Y-24743300D01*
X9955100Y-9230900D02*
X9955100Y-4362700D01*
X7979300Y-3695700D02*
X7175000Y-4500000D01*
X15386000Y-24743300D02*
X15386000Y-14661800D01*
X23250000Y-32080000D02*
X22198300Y-32080000D01*
X9288100Y-3695700D02*
X7979300Y-3695700D01*
X9955100Y-4362700D02*
X9288100Y-3695700D01*
X22198300Y-32080000D02*
X22198300Y-31555600D01*
%TO.N,NFC_ANT_A*%
X4300000Y-9415700D02*
X4273600Y-9415700D01*
X3200000Y-14200000D02*
X3200000Y-13398300D01*
X3305300Y-13293000D02*
X3200000Y-13398300D01*
X4273600Y-9415700D02*
X4144800Y-9286900D01*
X9205700Y-10343600D02*
X9205700Y-11980700D01*
X5570000Y-6900000D02*
X5570000Y-8145700D01*
X9205700Y-11980700D02*
X10125000Y-12900000D01*
X4273600Y-9415700D02*
X3305300Y-10384000D01*
X3305300Y-10384000D02*
X3305300Y-13293000D01*
X5570000Y-8145700D02*
X4300000Y-9415700D01*
X4144800Y-9286900D02*
X4144800Y-9285300D01*
%TO.N,NFC_ANT_B*%
X11675000Y-12900000D02*
X10375000Y-14200000D01*
X6830000Y-6900000D02*
X6830000Y-8145700D01*
X8604000Y-9701700D02*
X8604000Y-10592700D01*
X8604000Y-10592700D02*
X8702800Y-10691500D01*
X10375000Y-14200000D02*
X8000000Y-14200000D01*
X8702800Y-13497200D02*
X8000000Y-14200000D01*
X7048000Y-8145700D02*
X8604000Y-9701700D01*
X8702800Y-10691500D02*
X8702800Y-13497200D01*
X6830000Y-8145700D02*
X7048000Y-8145700D01*
%TO.N,IO0*%
X67732500Y-31783100D02*
X77648300Y-41698900D01*
X54656200Y-13738300D02*
X49199600Y-19194900D01*
X10617400Y-45300100D02*
X9951600Y-45300100D01*
X69200300Y-12481100D02*
X69200300Y-17369900D01*
X9000000Y-45450000D02*
X9000000Y-49150000D01*
X54656200Y-12118500D02*
X68837700Y-12118500D01*
X54643000Y-4500000D02*
X54656200Y-4513200D01*
X78700000Y-50000000D02*
X77648300Y-50000000D01*
X68847500Y-17722700D02*
X68847500Y-18553500D01*
X67732500Y-27428600D02*
X67732500Y-31783100D01*
X42494400Y-19344900D02*
X41836800Y-19344900D01*
X39698300Y-35545700D02*
X39467700Y-35776300D01*
X54656200Y-4513200D02*
X54656200Y-12118500D01*
X69200300Y-17369900D02*
X68847500Y-17722700D01*
X9951600Y-45300100D02*
X9801700Y-45450000D01*
X69201800Y-25959300D02*
X67732500Y-27428600D01*
X39698300Y-19380000D02*
X39698300Y-35545700D01*
X40750000Y-19380000D02*
X39698300Y-19380000D01*
X68837700Y-12118500D02*
X69200300Y-12481100D01*
X69201800Y-18907800D02*
X69201800Y-25959300D01*
X68847500Y-18553500D02*
X69201800Y-18907800D01*
X77648300Y-41698900D02*
X77648300Y-50000000D01*
X54656200Y-12118500D02*
X54656200Y-13738300D01*
X9000000Y-45450000D02*
X9801700Y-45450000D01*
X41836800Y-19344900D02*
X41801700Y-19380000D01*
X40750000Y-19380000D02*
X41801700Y-19380000D01*
%TO.N,CHX5*%
X32604400Y-14328800D02*
X32604400Y-5252600D01*
X23250000Y-27000000D02*
X24301700Y-27000000D01*
X25272300Y-26029400D02*
X25272300Y-21296300D01*
X32604400Y-5252600D02*
X33357000Y-4500000D01*
X24301700Y-27000000D02*
X25272300Y-26029400D01*
X25272300Y-21296300D02*
X25172900Y-21196900D01*
%TO.N,CHX4*%
X21393700Y-19293000D02*
X21294800Y-19391900D01*
X27029500Y-13128200D02*
X21393700Y-18764000D01*
X23250000Y-28270000D02*
X24301700Y-28270000D01*
X26811000Y-4500000D02*
X27029500Y-4718500D01*
X24301700Y-28270000D02*
X25814900Y-26756800D01*
X27029500Y-4718500D02*
X27029500Y-13128200D01*
X25814900Y-20965700D02*
X25227200Y-20378000D01*
X25227200Y-20378000D02*
X24972900Y-20378000D01*
X21393700Y-18764000D02*
X21393700Y-19293000D01*
X25814900Y-26756800D02*
X25814900Y-20965700D01*
%TO.N,VBAT*%
X76390000Y-28000000D02*
X78791700Y-28000000D01*
X78791700Y-28036700D02*
X79505000Y-28750000D01*
X78791700Y-28000000D02*
X78791700Y-28036700D01*
%TO.N,CHX2*%
X16300600Y-24912300D02*
X22198300Y-30810000D01*
X16300600Y-7080600D02*
X16300600Y-24912300D01*
X13720000Y-4500000D02*
X16300600Y-7080600D01*
X23250000Y-30810000D02*
X22198300Y-30810000D01*
%TO.N,CHX3*%
X18637000Y-11700300D02*
X18637000Y-6129000D01*
X18094400Y-12242900D02*
X18637000Y-11700300D01*
X18094400Y-21757200D02*
X18094400Y-12242900D01*
X18637000Y-6129000D02*
X20266000Y-4500000D01*
X23250000Y-29540000D02*
X22198300Y-29540000D01*
X22198300Y-25861100D02*
X18094400Y-21757200D01*
X22198300Y-29540000D02*
X22198300Y-25861100D01*
%TO.N,CHX6*%
X43971100Y-8569100D02*
X39902000Y-4500000D01*
X24301700Y-25145100D02*
X24670600Y-24776200D01*
X23250000Y-25730000D02*
X24301700Y-25730000D01*
X41056600Y-15084400D02*
X43971100Y-12169900D01*
X24301700Y-25730000D02*
X24301700Y-25145100D01*
X43971100Y-12169900D02*
X43971100Y-8569100D01*
X41056600Y-17968000D02*
X41056600Y-15084400D01*
%TO.N,SCL*%
X66108300Y-6125700D02*
X56979600Y-6125700D01*
X56979600Y-6125700D02*
X56394800Y-5540900D01*
X56394800Y-5540900D02*
X56394800Y-5302800D01*
X5233200Y-13545700D02*
X4974800Y-13287300D01*
X6830000Y-13545700D02*
X5233200Y-13545700D01*
X21500000Y-12141600D02*
X21500000Y-10510000D01*
X4974800Y-13287300D02*
X4974800Y-11321300D01*
X18496100Y-13499300D02*
X18696200Y-13299200D01*
X23250000Y-24460000D02*
X21940000Y-24460000D01*
X21940000Y-24460000D02*
X18496100Y-21016100D01*
X4974800Y-11321300D02*
X7146900Y-9149200D01*
X6830000Y-12300000D02*
X6830000Y-13545700D01*
X18496100Y-21016100D02*
X18496100Y-13499300D01*
X21987900Y-12629500D02*
X21500000Y-12141600D01*
X67734000Y-4500000D02*
X66108300Y-6125700D01*
%TO.N,IMU_INT*%
X20712300Y-7851700D02*
X20714400Y-7851700D01*
X23250000Y-23190000D02*
X22198300Y-23190000D01*
X21914700Y-6651400D02*
X24097300Y-6651400D01*
X17681000Y-24668000D02*
X17771500Y-24758500D01*
X20714400Y-7851700D02*
X21914700Y-6651400D01*
X17681000Y-7974000D02*
X17681000Y-24668000D01*
X21726800Y-23364900D02*
X22023400Y-23364900D01*
X22023400Y-23364900D02*
X22198300Y-23190000D01*
X20240000Y-8324000D02*
X20712300Y-7851700D01*
X17835300Y-7819700D02*
X17681000Y-7974000D01*
X20240000Y-8750000D02*
X20240000Y-8324000D01*
%TO.N,NFC_GPO*%
X35180000Y-17058300D02*
X34403800Y-17058300D01*
X62825000Y-51900000D02*
X51853800Y-40928800D01*
X6555500Y-10699000D02*
X5570000Y-11684500D01*
X51853800Y-40928800D02*
X43767000Y-40928800D01*
X43767000Y-40928800D02*
X35180000Y-32341800D01*
X29584300Y-12238800D02*
X29584300Y-4409100D01*
X35180000Y-18110000D02*
X35180000Y-17058300D01*
X34403800Y-17058300D02*
X29584300Y-12238800D01*
X5570000Y-11684500D02*
X5570000Y-12300000D01*
X35180000Y-32341800D02*
X35180000Y-18110000D01*
%TO.N,RXD*%
X73620000Y-50000000D02*
X72568300Y-50000000D01*
X72568300Y-50000000D02*
X72568300Y-49211200D01*
X72568300Y-49211200D02*
X54167100Y-30810000D01*
X54167100Y-30810000D02*
X40750000Y-30810000D01*
%TO.N,TXD*%
X40750000Y-32080000D02*
X41801700Y-32080000D01*
X70028300Y-49211200D02*
X70028300Y-50000000D01*
X52897100Y-32080000D02*
X70028300Y-49211200D01*
X41801700Y-32080000D02*
X52897100Y-32080000D01*
X71080000Y-50000000D02*
X70028300Y-50000000D01*
%TD*%
%TA.AperFunction,Conductor*%
%TO.N,GND*%
G36*
X52748390Y-32499407D02*
G01*
X52760203Y-32509496D01*
X69598804Y-49348097D01*
X69626581Y-49402614D01*
X69627800Y-49418101D01*
X69627800Y-49947273D01*
X69627800Y-50052727D01*
X69655093Y-50154587D01*
X69655094Y-50154589D01*
X69655094Y-50154590D01*
X69705730Y-50242293D01*
X69707820Y-50245913D01*
X69782387Y-50320480D01*
X69873713Y-50373207D01*
X69956125Y-50395289D01*
X70007438Y-50428612D01*
X70029365Y-50485733D01*
X70029501Y-50490915D01*
X70029501Y-50908000D01*
X70010594Y-50966191D01*
X69961094Y-51002155D01*
X69930501Y-51007000D01*
X67877301Y-51007000D01*
X67819110Y-50988093D01*
X67807297Y-50978004D01*
X67481196Y-50651903D01*
X67453419Y-50597386D01*
X67452200Y-50581899D01*
X67452200Y-49947274D01*
X67445753Y-49923214D01*
X67424907Y-49845413D01*
X67372180Y-49754087D01*
X67297613Y-49679520D01*
X67297610Y-49679518D01*
X67206290Y-49626794D01*
X67206287Y-49626793D01*
X67123875Y-49604711D01*
X67072561Y-49571386D01*
X67050635Y-49514265D01*
X67050499Y-49509084D01*
X67050499Y-48855139D01*
X67050499Y-48855136D01*
X67047585Y-48830009D01*
X67002206Y-48727235D01*
X66922765Y-48647794D01*
X66819991Y-48602415D01*
X66819990Y-48602414D01*
X66819988Y-48602414D01*
X66794868Y-48599500D01*
X65205139Y-48599500D01*
X65205136Y-48599501D01*
X65180009Y-48602414D01*
X65077235Y-48647794D01*
X64997794Y-48727235D01*
X64952414Y-48830011D01*
X64949500Y-48855130D01*
X64949500Y-49509085D01*
X64930593Y-49567276D01*
X64881093Y-49603240D01*
X64876138Y-49604707D01*
X64793713Y-49626793D01*
X64793712Y-49626793D01*
X64793710Y-49626794D01*
X64793709Y-49626794D01*
X64702389Y-49679518D01*
X64627818Y-49754089D01*
X64575094Y-49845409D01*
X64575094Y-49845410D01*
X64547800Y-49947274D01*
X64547800Y-50844798D01*
X64528893Y-50902989D01*
X64518804Y-50914802D01*
X63694503Y-51739103D01*
X63639986Y-51766880D01*
X63579554Y-51757309D01*
X63536289Y-51714044D01*
X63525499Y-51669099D01*
X63525499Y-51577133D01*
X63525499Y-51577128D01*
X63519091Y-51517517D01*
X63514907Y-51506300D01*
X63468797Y-51382670D01*
X63382549Y-51267458D01*
X63382548Y-51267457D01*
X63382546Y-51267454D01*
X63373961Y-51261027D01*
X63267329Y-51181202D01*
X63132488Y-51130910D01*
X63132483Y-51130909D01*
X63132481Y-51130908D01*
X63132477Y-51130908D01*
X63101249Y-51127550D01*
X63072873Y-51124500D01*
X63072870Y-51124500D01*
X62656901Y-51124500D01*
X62598710Y-51105593D01*
X62586897Y-51095504D01*
X57350970Y-45859577D01*
X52099713Y-40608320D01*
X52099710Y-40608318D01*
X52099709Y-40608317D01*
X52099708Y-40608316D01*
X52008391Y-40555594D01*
X52008393Y-40555594D01*
X51968870Y-40545004D01*
X51906527Y-40528300D01*
X51906525Y-40528300D01*
X43973901Y-40528300D01*
X43915710Y-40509393D01*
X43903897Y-40499304D01*
X39816698Y-36412105D01*
X39788921Y-36357588D01*
X39798492Y-36297156D01*
X39832056Y-36261794D01*
X39831270Y-36260769D01*
X39836409Y-36256825D01*
X39836411Y-36256822D01*
X39836416Y-36256820D01*
X39948220Y-36145016D01*
X40027277Y-36008084D01*
X40068200Y-35855357D01*
X40068200Y-35725662D01*
X40071573Y-35700042D01*
X40075065Y-35687007D01*
X40079652Y-35669889D01*
X40098801Y-35598427D01*
X40098801Y-35492973D01*
X40098801Y-35486911D01*
X40098800Y-35486893D01*
X40098800Y-35469499D01*
X40117707Y-35411308D01*
X40167207Y-35375344D01*
X40197800Y-35370499D01*
X41544861Y-35370499D01*
X41544864Y-35370499D01*
X41569991Y-35367585D01*
X41672765Y-35322206D01*
X41752206Y-35242765D01*
X41797585Y-35139991D01*
X41800500Y-35114865D01*
X41800499Y-34125136D01*
X41797585Y-34100009D01*
X41764460Y-34024987D01*
X41758251Y-33964118D01*
X41764457Y-33945018D01*
X41797585Y-33869991D01*
X41800500Y-33844865D01*
X41800499Y-32855136D01*
X41797585Y-32830009D01*
X41788497Y-32809427D01*
X41764460Y-32754987D01*
X41763919Y-32749690D01*
X41760799Y-32745374D01*
X41761704Y-32727972D01*
X41758251Y-32694118D01*
X41760940Y-32684189D01*
X41762467Y-32679525D01*
X41797585Y-32599991D01*
X41800500Y-32574865D01*
X41800500Y-32563387D01*
X41805313Y-32548690D01*
X41816126Y-32533879D01*
X41822789Y-32516792D01*
X41833728Y-32509769D01*
X41841392Y-32499273D01*
X41858844Y-32493646D01*
X41874279Y-32483739D01*
X41899397Y-32480500D01*
X52690199Y-32480500D01*
X52748390Y-32499407D01*
G37*
%TD.AperFunction*%
%TA.AperFunction,Conductor*%
G36*
X67852804Y-32469797D02*
G01*
X77218804Y-41835797D01*
X77246581Y-41890314D01*
X77247800Y-41905801D01*
X77247800Y-48573822D01*
X77228893Y-48632013D01*
X77179393Y-48667977D01*
X77118207Y-48667977D01*
X77091338Y-48651512D01*
X77090334Y-48652979D01*
X77082766Y-48647795D01*
X77082765Y-48647794D01*
X76979991Y-48602415D01*
X76979990Y-48602414D01*
X76979988Y-48602414D01*
X76954868Y-48599500D01*
X75365139Y-48599500D01*
X75365136Y-48599501D01*
X75340009Y-48602414D01*
X75256709Y-48639195D01*
X75237235Y-48647794D01*
X75237234Y-48647794D01*
X75237231Y-48647796D01*
X75230307Y-48652539D01*
X75171614Y-48669824D01*
X75113970Y-48649308D01*
X75104358Y-48640866D01*
X67512368Y-41048875D01*
X67484591Y-40994358D01*
X67494162Y-40933926D01*
X67512372Y-40908864D01*
X67517117Y-40904119D01*
X67517117Y-40904118D01*
X67517120Y-40904116D01*
X67596177Y-40767184D01*
X67637100Y-40614457D01*
X67637100Y-40542300D01*
X67656007Y-40484109D01*
X67666090Y-40472302D01*
X67802980Y-40335413D01*
X67814692Y-40315127D01*
X67855705Y-40244092D01*
X67855705Y-40244090D01*
X67855707Y-40244088D01*
X67883000Y-40142227D01*
X67883000Y-40036773D01*
X67883000Y-34575073D01*
X67855707Y-34473213D01*
X67854447Y-34471031D01*
X67802980Y-34381887D01*
X67728413Y-34307319D01*
X67728413Y-34307320D01*
X67712796Y-34291703D01*
X67685019Y-34237186D01*
X67683800Y-34221699D01*
X67683800Y-32539801D01*
X67702707Y-32481610D01*
X67752207Y-32445646D01*
X67813393Y-32445646D01*
X67852804Y-32469797D01*
G37*
%TD.AperFunction*%
%TA.AperFunction,Conductor*%
G36*
X77866290Y-3884407D02*
G01*
X77878103Y-3894496D01*
X78220504Y-4236897D01*
X78248281Y-4291414D01*
X78249500Y-4306901D01*
X78249500Y-5018106D01*
X78260123Y-5106565D01*
X78315637Y-5247339D01*
X78315638Y-5247341D01*
X78315639Y-5247342D01*
X78407078Y-5367922D01*
X78527658Y-5459361D01*
X78527659Y-5459361D01*
X78527660Y-5459362D01*
X78593967Y-5485510D01*
X78668436Y-5514877D01*
X78756898Y-5525500D01*
X78756900Y-5525500D01*
X79343100Y-5525500D01*
X79343102Y-5525500D01*
X79431564Y-5514877D01*
X79431564Y-5514876D01*
X79437866Y-5514120D01*
X79438050Y-5515659D01*
X79491518Y-5519222D01*
X79524737Y-5541130D01*
X80603404Y-6619797D01*
X80631181Y-6674314D01*
X80632400Y-6689801D01*
X80632400Y-23400500D01*
X80613493Y-23458691D01*
X80563993Y-23494655D01*
X80533400Y-23499500D01*
X80134521Y-23499500D01*
X80134515Y-23499501D01*
X80077888Y-23505587D01*
X80077886Y-23505588D01*
X79949774Y-23553372D01*
X79949773Y-23553372D01*
X79949772Y-23553373D01*
X79840315Y-23635311D01*
X79840311Y-23635315D01*
X79758373Y-23744771D01*
X79710587Y-23872887D01*
X79704500Y-23929518D01*
X79704500Y-24720478D01*
X79704501Y-24720484D01*
X79710587Y-24777111D01*
X79710587Y-24777112D01*
X79710588Y-24777114D01*
X79758372Y-24905226D01*
X79795530Y-24954864D01*
X79822710Y-24991172D01*
X79842446Y-25049087D01*
X79824371Y-25107541D01*
X79775390Y-25144208D01*
X79743456Y-25149500D01*
X78950725Y-25149500D01*
X78920305Y-25152353D01*
X78920296Y-25152355D01*
X78792116Y-25197207D01*
X78682855Y-25277845D01*
X78682845Y-25277855D01*
X78602207Y-25387116D01*
X78557355Y-25515296D01*
X78557353Y-25515305D01*
X78554500Y-25545725D01*
X78554500Y-25700500D01*
X78535593Y-25758691D01*
X78486093Y-25794655D01*
X78455500Y-25799500D01*
X74245139Y-25799500D01*
X74245136Y-25799501D01*
X74220009Y-25802414D01*
X74117235Y-25847794D01*
X74037794Y-25927235D01*
X73992414Y-26030011D01*
X73989500Y-26055130D01*
X73989500Y-29944860D01*
X73989501Y-29944863D01*
X73992414Y-29969990D01*
X73993967Y-29973507D01*
X74037794Y-30072765D01*
X74117235Y-30152206D01*
X74220009Y-30197585D01*
X74245135Y-30200500D01*
X78455500Y-30200499D01*
X78513691Y-30219406D01*
X78549655Y-30268906D01*
X78554500Y-30299499D01*
X78554500Y-30454274D01*
X78557353Y-30484694D01*
X78557355Y-30484703D01*
X78602207Y-30612883D01*
X78682845Y-30722144D01*
X78682847Y-30722146D01*
X78682850Y-30722150D01*
X78682853Y-30722152D01*
X78682855Y-30722154D01*
X78792116Y-30802792D01*
X78792117Y-30802792D01*
X78792118Y-30802793D01*
X78920301Y-30847646D01*
X78950725Y-30850499D01*
X78950727Y-30850500D01*
X78950734Y-30850500D01*
X79005500Y-30850500D01*
X79063691Y-30869407D01*
X79099655Y-30918907D01*
X79104500Y-30949500D01*
X79104500Y-32703973D01*
X79104500Y-32809427D01*
X79116748Y-32855139D01*
X79131794Y-32911292D01*
X79184519Y-33002613D01*
X79339303Y-33157395D01*
X79367081Y-33211911D01*
X79368300Y-33227399D01*
X79368300Y-48500500D01*
X79349393Y-48558691D01*
X79299893Y-48594655D01*
X79269300Y-48599500D01*
X78147800Y-48599500D01*
X78089609Y-48580593D01*
X78053645Y-48531093D01*
X78048800Y-48500500D01*
X78048800Y-41646174D01*
X78048800Y-41646173D01*
X78021507Y-41544313D01*
X78021507Y-41544312D01*
X78021507Y-41544311D01*
X77968783Y-41452991D01*
X77968782Y-41452990D01*
X77968781Y-41452989D01*
X77968780Y-41452987D01*
X69900285Y-33384492D01*
X69872508Y-33329975D01*
X69882079Y-33269543D01*
X69920788Y-33228752D01*
X70015416Y-33174120D01*
X70127220Y-33062316D01*
X70206277Y-32925384D01*
X70247200Y-32772657D01*
X70247200Y-32614543D01*
X70246794Y-32613031D01*
X70246794Y-32611464D01*
X70246353Y-32608107D01*
X70246794Y-32608048D01*
X70246794Y-32561774D01*
X70252300Y-32541227D01*
X70252300Y-32435773D01*
X70252300Y-27217843D01*
X70271207Y-27159652D01*
X70281290Y-27147845D01*
X70332320Y-27096816D01*
X70411377Y-26959884D01*
X70452300Y-26807157D01*
X70452300Y-26649043D01*
X70411377Y-26496316D01*
X70332320Y-26359384D01*
X70220516Y-26247580D01*
X70083584Y-26168523D01*
X70083581Y-26168522D01*
X70077375Y-26166859D01*
X70026061Y-26133534D01*
X70004136Y-26076412D01*
X70004000Y-26071233D01*
X70004000Y-18802101D01*
X70004001Y-18794712D01*
X70006806Y-18786082D01*
X70005347Y-18785839D01*
X70005348Y-18785833D01*
X70006808Y-18786076D01*
X70013237Y-18766297D01*
X70022908Y-18736534D01*
X70022913Y-18736529D01*
X70022916Y-18736523D01*
X70047069Y-18718979D01*
X70072408Y-18700570D01*
X70072420Y-18700566D01*
X70072421Y-18700566D01*
X70077372Y-18699100D01*
X70082684Y-18697677D01*
X70219616Y-18618620D01*
X70331420Y-18506816D01*
X70410477Y-18369884D01*
X70451400Y-18217157D01*
X70451400Y-18059043D01*
X70447882Y-18045913D01*
X70447884Y-18000759D01*
X70447153Y-18000663D01*
X70447884Y-17995102D01*
X70447884Y-17994656D01*
X70448000Y-17994227D01*
X70448000Y-10579073D01*
X70433542Y-10525114D01*
X70433542Y-10525113D01*
X70433542Y-10525112D01*
X70420706Y-10477210D01*
X70420705Y-10477208D01*
X70367983Y-10385891D01*
X70367981Y-10385889D01*
X70367980Y-10385887D01*
X67001613Y-7019520D01*
X67001610Y-7019518D01*
X66990917Y-7013344D01*
X66954683Y-6977108D01*
X66951322Y-6971287D01*
X66951321Y-6971286D01*
X66951320Y-6971284D01*
X66839516Y-6859480D01*
X66702584Y-6780423D01*
X66549857Y-6739500D01*
X66391743Y-6739500D01*
X66239016Y-6780423D01*
X66102084Y-6859480D01*
X65990280Y-6971284D01*
X65911223Y-7108216D01*
X65870300Y-7260943D01*
X65870300Y-7419057D01*
X65911223Y-7571784D01*
X65990280Y-7708716D01*
X66102084Y-7820520D01*
X66239016Y-7899577D01*
X66391743Y-7940500D01*
X66391745Y-7940500D01*
X66549856Y-7940500D01*
X66549857Y-7940500D01*
X66683889Y-7904586D01*
X66744989Y-7907787D01*
X66779515Y-7930208D01*
X69007340Y-10158033D01*
X69035117Y-10212550D01*
X69025546Y-10272982D01*
X68986841Y-10313771D01*
X68981286Y-10316978D01*
X68981284Y-10316980D01*
X68869480Y-10428784D01*
X68790423Y-10565716D01*
X68749500Y-10718443D01*
X68749500Y-10876557D01*
X68790423Y-11029284D01*
X68869480Y-11166216D01*
X68981284Y-11278020D01*
X69118216Y-11357077D01*
X69128120Y-11359730D01*
X69179435Y-11393052D01*
X69201364Y-11450172D01*
X69201500Y-11455358D01*
X69201500Y-11694608D01*
X69182593Y-11752799D01*
X69133093Y-11788763D01*
X69071907Y-11788763D01*
X69053000Y-11780345D01*
X68992289Y-11745293D01*
X68958334Y-11736195D01*
X68890427Y-11718000D01*
X68890425Y-11718000D01*
X55155700Y-11718000D01*
X55097509Y-11699093D01*
X55061545Y-11649593D01*
X55056700Y-11619000D01*
X55056700Y-5289784D01*
X55075607Y-5231593D01*
X55096369Y-5210532D01*
X55200546Y-5132546D01*
X55286796Y-5017331D01*
X55290765Y-5006691D01*
X55337089Y-4882488D01*
X55337090Y-4882485D01*
X55337091Y-4882483D01*
X55343500Y-4822873D01*
X55343499Y-4205998D01*
X55362406Y-4147808D01*
X55411906Y-4111844D01*
X55473092Y-4111844D01*
X55512500Y-4135993D01*
X55796931Y-4420423D01*
X56044343Y-4667835D01*
X56072120Y-4722352D01*
X56062549Y-4782784D01*
X56030153Y-4816928D01*
X56031230Y-4818331D01*
X56026090Y-4822274D01*
X56026084Y-4822280D01*
X55914280Y-4934084D01*
X55835223Y-5071016D01*
X55794300Y-5223743D01*
X55794300Y-5381857D01*
X55835223Y-5534584D01*
X55914280Y-5671516D01*
X56026084Y-5783320D01*
X56120659Y-5837922D01*
X56141159Y-5853652D01*
X56733687Y-6446180D01*
X56733689Y-6446181D01*
X56733690Y-6446182D01*
X56733691Y-6446183D01*
X56825008Y-6498905D01*
X56825006Y-6498905D01*
X56825010Y-6498906D01*
X56825012Y-6498907D01*
X56926873Y-6526200D01*
X56926875Y-6526200D01*
X66161025Y-6526200D01*
X66161027Y-6526200D01*
X66262888Y-6498907D01*
X66262890Y-6498905D01*
X66262892Y-6498905D01*
X66354208Y-6446183D01*
X66354208Y-6446182D01*
X66354213Y-6446180D01*
X67495897Y-5304494D01*
X67550414Y-5276718D01*
X67565901Y-5275499D01*
X67981867Y-5275499D01*
X67981872Y-5275499D01*
X68041483Y-5269091D01*
X68134503Y-5234397D01*
X68176329Y-5218797D01*
X68176329Y-5218796D01*
X68176331Y-5218796D01*
X68291546Y-5132546D01*
X68377796Y-5017331D01*
X68381765Y-5006691D01*
X68428089Y-4882488D01*
X68428090Y-4882485D01*
X68428091Y-4882483D01*
X68434500Y-4822873D01*
X68434499Y-4194099D01*
X68453406Y-4135909D01*
X68502906Y-4099945D01*
X68533499Y-4095100D01*
X71605500Y-4095100D01*
X71663691Y-4114007D01*
X71699655Y-4163507D01*
X71704500Y-4194100D01*
X71704500Y-5018106D01*
X71715123Y-5106565D01*
X71770637Y-5247339D01*
X71770638Y-5247341D01*
X71770639Y-5247342D01*
X71862078Y-5367922D01*
X71982658Y-5459361D01*
X71982659Y-5459361D01*
X71982660Y-5459362D01*
X72048967Y-5485510D01*
X72123436Y-5514877D01*
X72211898Y-5525500D01*
X72211900Y-5525500D01*
X72798100Y-5525500D01*
X72798102Y-5525500D01*
X72886564Y-5514877D01*
X73027342Y-5459361D01*
X73147922Y-5367922D01*
X73239361Y-5247342D01*
X73294877Y-5106564D01*
X73305500Y-5018102D01*
X73305500Y-3981898D01*
X73304829Y-3976309D01*
X73316660Y-3916278D01*
X73361517Y-3874667D01*
X73403122Y-3865500D01*
X77808099Y-3865500D01*
X77866290Y-3884407D01*
G37*
%TD.AperFunction*%
%TA.AperFunction,Conductor*%
G36*
X67931572Y-12527693D02*
G01*
X67958735Y-12534971D01*
X67960435Y-12537071D01*
X67963008Y-12537907D01*
X67979545Y-12560668D01*
X67997241Y-12582520D01*
X67997382Y-12585219D01*
X67998972Y-12587407D01*
X68000444Y-12643622D01*
X67998000Y-12652743D01*
X67998000Y-12724899D01*
X67979093Y-12783090D01*
X67969004Y-12794903D01*
X66513616Y-14250291D01*
X66460894Y-14341607D01*
X66460893Y-14341612D01*
X66436869Y-14431275D01*
X66433600Y-14443474D01*
X66433600Y-34859156D01*
X66414693Y-34917347D01*
X66404604Y-34929159D01*
X66353582Y-34980181D01*
X66353580Y-34980183D01*
X66353580Y-34980184D01*
X66274523Y-35117116D01*
X66233600Y-35269843D01*
X66233600Y-35427957D01*
X66274523Y-35580684D01*
X66353580Y-35717616D01*
X66465384Y-35829420D01*
X66602316Y-35908477D01*
X66755043Y-35949400D01*
X66755045Y-35949400D01*
X66913156Y-35949400D01*
X66913157Y-35949400D01*
X66957377Y-35937551D01*
X67018477Y-35940752D01*
X67066028Y-35979257D01*
X67082000Y-36033177D01*
X67082000Y-39835900D01*
X67063093Y-39894091D01*
X67013593Y-39930055D01*
X66983000Y-39934900D01*
X66957543Y-39934900D01*
X66804816Y-39975823D01*
X66667884Y-40054880D01*
X66556074Y-40166690D01*
X66552131Y-40171830D01*
X66550516Y-40170591D01*
X66511923Y-40205325D01*
X66451071Y-40211707D01*
X66401672Y-40184879D01*
X64304463Y-38087670D01*
X64288730Y-38067165D01*
X64281180Y-38054087D01*
X64206613Y-37979520D01*
X64206610Y-37979518D01*
X48681613Y-22454520D01*
X48681610Y-22454518D01*
X48681608Y-22454516D01*
X48590291Y-22401794D01*
X48590293Y-22401794D01*
X48550770Y-22391204D01*
X48488427Y-22374500D01*
X48488425Y-22374500D01*
X45205901Y-22374500D01*
X45147710Y-22355593D01*
X45111746Y-22306093D01*
X45111746Y-22244907D01*
X45135897Y-22205496D01*
X48028296Y-19313097D01*
X48082813Y-19285320D01*
X48143245Y-19294891D01*
X48186510Y-19338156D01*
X48197300Y-19383101D01*
X48197300Y-20943290D01*
X48184037Y-20992789D01*
X48159023Y-21036114D01*
X48135365Y-21124410D01*
X48118100Y-21188843D01*
X48118100Y-21346957D01*
X48159023Y-21499684D01*
X48238080Y-21636616D01*
X48349884Y-21748420D01*
X48486816Y-21827477D01*
X48639543Y-21868400D01*
X48639545Y-21868400D01*
X48797655Y-21868400D01*
X48797657Y-21868400D01*
X48950384Y-21827477D01*
X49087316Y-21748420D01*
X49199120Y-21636616D01*
X49278177Y-21499684D01*
X49319100Y-21346957D01*
X49319100Y-21188843D01*
X49278177Y-21036116D01*
X49199120Y-20899184D01*
X49087316Y-20787380D01*
X49087313Y-20787378D01*
X49047800Y-20764565D01*
X49006859Y-20719095D01*
X48998300Y-20678829D01*
X48998300Y-19891664D01*
X49017207Y-19833473D01*
X49066707Y-19797509D01*
X49113884Y-19796275D01*
X49114111Y-19794553D01*
X49120542Y-19795399D01*
X49120543Y-19795400D01*
X49120544Y-19795400D01*
X49278655Y-19795400D01*
X49278657Y-19795400D01*
X49431384Y-19754477D01*
X49568316Y-19675420D01*
X49680120Y-19563616D01*
X49759177Y-19426684D01*
X49800100Y-19273957D01*
X49800100Y-19201799D01*
X49819007Y-19143608D01*
X49829090Y-19131801D01*
X54902110Y-14058781D01*
X54902113Y-14058780D01*
X54976680Y-13984213D01*
X55029407Y-13892887D01*
X55034868Y-13872507D01*
X55056701Y-13791027D01*
X55056701Y-13685573D01*
X55056701Y-13679511D01*
X55056700Y-13679493D01*
X55056700Y-12618000D01*
X55075607Y-12559809D01*
X55125107Y-12523845D01*
X55155700Y-12519000D01*
X67904817Y-12519000D01*
X67931572Y-12527693D01*
G37*
%TD.AperFunction*%
%TA.AperFunction,Conductor*%
G36*
X48286990Y-23194407D02*
G01*
X48298803Y-23204496D01*
X63008543Y-37914235D01*
X63036320Y-37968752D01*
X63026749Y-38029184D01*
X62994353Y-38063328D01*
X62995430Y-38064731D01*
X62990290Y-38068674D01*
X62878480Y-38180484D01*
X62799423Y-38317416D01*
X62758500Y-38470144D01*
X62758500Y-38595999D01*
X62739593Y-38654190D01*
X62690093Y-38690154D01*
X62628907Y-38690154D01*
X62589496Y-38666003D01*
X58603396Y-34679903D01*
X54413013Y-30489520D01*
X54413010Y-30489518D01*
X54413009Y-30489517D01*
X54413008Y-30489516D01*
X54321691Y-30436794D01*
X54321693Y-30436794D01*
X54268020Y-30422413D01*
X54219827Y-30409500D01*
X54219825Y-30409500D01*
X41899396Y-30409500D01*
X41841205Y-30390593D01*
X41805312Y-30341309D01*
X41800499Y-30326611D01*
X41800499Y-30315136D01*
X41797585Y-30290009D01*
X41762470Y-30210482D01*
X41760940Y-30205808D01*
X41760880Y-30179893D01*
X41758251Y-30154118D01*
X41760802Y-30146264D01*
X41760799Y-30144623D01*
X41761774Y-30143273D01*
X41764457Y-30135018D01*
X41797585Y-30059991D01*
X41800500Y-30034865D01*
X41800499Y-29045136D01*
X41797585Y-29020009D01*
X41778936Y-28977773D01*
X41764460Y-28944987D01*
X41758251Y-28884118D01*
X41764457Y-28865018D01*
X41797585Y-28789991D01*
X41800500Y-28764865D01*
X41800499Y-27775136D01*
X41797585Y-27750009D01*
X41797583Y-27750004D01*
X41764460Y-27674987D01*
X41758251Y-27614118D01*
X41764457Y-27595018D01*
X41797585Y-27519991D01*
X41800500Y-27494865D01*
X41800499Y-27126281D01*
X41819406Y-27068091D01*
X41868906Y-27032127D01*
X41930091Y-27032127D01*
X41937388Y-27034819D01*
X41939207Y-27035572D01*
X41939216Y-27035577D01*
X42091943Y-27076500D01*
X42091945Y-27076500D01*
X42250055Y-27076500D01*
X42250057Y-27076500D01*
X42402784Y-27035577D01*
X42435740Y-27016549D01*
X42495588Y-27003828D01*
X42551484Y-27028714D01*
X42570976Y-27052786D01*
X42618216Y-27134608D01*
X42618220Y-27134613D01*
X42958869Y-27475263D01*
X42986646Y-27529779D01*
X42985187Y-27562050D01*
X42985880Y-27562134D01*
X42974500Y-27656893D01*
X42974500Y-28243106D01*
X42985123Y-28331565D01*
X43040637Y-28472339D01*
X43040638Y-28472341D01*
X43040639Y-28472342D01*
X43132078Y-28592922D01*
X43252658Y-28684361D01*
X43252659Y-28684361D01*
X43252660Y-28684362D01*
X43276910Y-28693925D01*
X43393436Y-28739877D01*
X43481898Y-28750500D01*
X43481900Y-28750500D01*
X44518100Y-28750500D01*
X44518102Y-28750500D01*
X44606564Y-28739877D01*
X44747342Y-28684361D01*
X44867922Y-28592922D01*
X44959361Y-28472342D01*
X45014877Y-28331564D01*
X45025500Y-28243102D01*
X45025500Y-27656898D01*
X45014877Y-27568436D01*
X44959361Y-27427658D01*
X44867922Y-27307078D01*
X44747342Y-27215639D01*
X44747341Y-27215638D01*
X44747339Y-27215637D01*
X44606565Y-27160123D01*
X44518106Y-27149500D01*
X44518102Y-27149500D01*
X43806901Y-27149500D01*
X43748710Y-27130593D01*
X43736897Y-27120504D01*
X43368196Y-26751803D01*
X43340419Y-26697286D01*
X43339200Y-26681799D01*
X43339200Y-25726312D01*
X43358107Y-25668121D01*
X43407607Y-25632157D01*
X43463820Y-25630685D01*
X43522843Y-25646500D01*
X43522845Y-25646500D01*
X43680955Y-25646500D01*
X43680957Y-25646500D01*
X43833684Y-25605577D01*
X43970616Y-25526520D01*
X44082420Y-25414716D01*
X44161477Y-25277784D01*
X44202400Y-25125057D01*
X44202400Y-25052900D01*
X44221307Y-24994709D01*
X44231390Y-24982902D01*
X44320480Y-24893813D01*
X44320483Y-24893808D01*
X44357943Y-24828927D01*
X44366969Y-24813290D01*
X44373207Y-24802487D01*
X44400500Y-24700627D01*
X44400500Y-23572914D01*
X44419407Y-23514723D01*
X44463180Y-23480817D01*
X44509975Y-23462364D01*
X44625078Y-23375078D01*
X44712364Y-23259975D01*
X44720959Y-23238181D01*
X44759895Y-23190984D01*
X44813056Y-23175500D01*
X48228799Y-23175500D01*
X48286990Y-23194407D01*
G37*
%TD.AperFunction*%
%TA.AperFunction,Conductor*%
G36*
X37124978Y-19124455D02*
G01*
X37200009Y-19157585D01*
X37225135Y-19160500D01*
X38214864Y-19160499D01*
X38239991Y-19157585D01*
X38281039Y-19139459D01*
X38341907Y-19133251D01*
X38361016Y-19139459D01*
X38367233Y-19142204D01*
X38367235Y-19142206D01*
X38470009Y-19187585D01*
X38495135Y-19190500D01*
X39205429Y-19190499D01*
X39263620Y-19209406D01*
X39299584Y-19258906D01*
X39301056Y-19315120D01*
X39297800Y-19327270D01*
X39297800Y-35124940D01*
X39278893Y-35183131D01*
X39241180Y-35212862D01*
X39241536Y-35213479D01*
X39237284Y-35215933D01*
X39236689Y-35216403D01*
X39235918Y-35216722D01*
X39098984Y-35295780D01*
X38987177Y-35407587D01*
X38983229Y-35412733D01*
X38982050Y-35411828D01*
X38942146Y-35447745D01*
X38881295Y-35454129D01*
X38831893Y-35427300D01*
X35609496Y-32204903D01*
X35581719Y-32150386D01*
X35580500Y-32134899D01*
X35580500Y-19259396D01*
X35599407Y-19201205D01*
X35648690Y-19165312D01*
X35663388Y-19160499D01*
X35674864Y-19160499D01*
X35699991Y-19157585D01*
X35779523Y-19122468D01*
X35784190Y-19120940D01*
X35810104Y-19120880D01*
X35835881Y-19118251D01*
X35843734Y-19120802D01*
X35845376Y-19120799D01*
X35846724Y-19121774D01*
X35854978Y-19124455D01*
X35930009Y-19157585D01*
X35955135Y-19160500D01*
X36944864Y-19160499D01*
X36969991Y-19157585D01*
X37045012Y-19124459D01*
X37055234Y-19123417D01*
X37064119Y-19118251D01*
X37085001Y-19120380D01*
X37105881Y-19118251D01*
X37124978Y-19124455D01*
G37*
%TD.AperFunction*%
%TA.AperFunction,Conductor*%
G36*
X47343445Y-4267689D02*
G01*
X47386710Y-4310954D01*
X47397500Y-4355899D01*
X47397500Y-4822866D01*
X47397500Y-4822869D01*
X47397501Y-4822872D01*
X47398730Y-4834306D01*
X47403908Y-4882480D01*
X47403909Y-4882485D01*
X47454202Y-5017329D01*
X47540450Y-5132541D01*
X47540454Y-5132546D01*
X47540457Y-5132548D01*
X47540458Y-5132549D01*
X47657829Y-5220413D01*
X47693082Y-5270421D01*
X47697500Y-5299666D01*
X47697500Y-18470099D01*
X47678593Y-18528290D01*
X47668504Y-18540103D01*
X44213103Y-21995504D01*
X44158586Y-22023281D01*
X44143099Y-22024500D01*
X43708851Y-22024500D01*
X43624408Y-22034641D01*
X43490026Y-22087635D01*
X43486715Y-22089497D01*
X43483846Y-22090072D01*
X43483726Y-22090120D01*
X43483717Y-22090098D01*
X43426725Y-22101532D01*
X43371118Y-22076007D01*
X43341134Y-22022672D01*
X43339200Y-22003199D01*
X43339200Y-19958400D01*
X43358107Y-19900209D01*
X43368190Y-19888402D01*
X44320480Y-18936113D01*
X44320483Y-18936108D01*
X44373205Y-18844792D01*
X44373205Y-18844790D01*
X44373207Y-18844788D01*
X44400500Y-18742927D01*
X44400500Y-18637473D01*
X44400500Y-18572914D01*
X44419407Y-18514723D01*
X44463180Y-18480817D01*
X44509975Y-18462364D01*
X44625078Y-18375078D01*
X44712364Y-18259975D01*
X44765359Y-18125590D01*
X44775500Y-18041144D01*
X44775500Y-17606900D01*
X44794407Y-17548709D01*
X44804490Y-17536902D01*
X46768480Y-15572913D01*
X46768483Y-15572908D01*
X46821205Y-15481592D01*
X46821205Y-15481590D01*
X46821207Y-15481588D01*
X46848500Y-15379727D01*
X46848500Y-15274273D01*
X46848500Y-5299666D01*
X46867407Y-5241475D01*
X46888171Y-5220413D01*
X46907025Y-5206299D01*
X47005546Y-5132546D01*
X47091796Y-5017331D01*
X47095765Y-5006691D01*
X47142089Y-4882488D01*
X47142090Y-4882485D01*
X47142091Y-4882483D01*
X47148500Y-4822873D01*
X47148499Y-4406899D01*
X47150967Y-4399302D01*
X47149718Y-4391413D01*
X47160242Y-4370757D01*
X47167406Y-4348709D01*
X47177488Y-4336903D01*
X47228498Y-4285893D01*
X47283013Y-4258118D01*
X47343445Y-4267689D01*
G37*
%TD.AperFunction*%
%TA.AperFunction,Conductor*%
G36*
X22145444Y-20839732D02*
G01*
X22188709Y-20882996D01*
X22199500Y-20927942D01*
X22199500Y-21144860D01*
X22199501Y-21144863D01*
X22202414Y-21169990D01*
X22235540Y-21245012D01*
X22241748Y-21305882D01*
X22235540Y-21324987D01*
X22202415Y-21400009D01*
X22202414Y-21400011D01*
X22199500Y-21425130D01*
X22199500Y-21425132D01*
X22199500Y-21425135D01*
X22199500Y-21636616D01*
X22199501Y-21822800D01*
X22180594Y-21880991D01*
X22131094Y-21916955D01*
X22100501Y-21921800D01*
X21546701Y-21921800D01*
X21539103Y-21919331D01*
X21531214Y-21920581D01*
X21510558Y-21910056D01*
X21488510Y-21902893D01*
X21476697Y-21892804D01*
X21422996Y-21839103D01*
X21395219Y-21784586D01*
X21394000Y-21769099D01*
X21394000Y-21140791D01*
X21412907Y-21082600D01*
X21462407Y-21046636D01*
X21509478Y-21045405D01*
X21509709Y-21043653D01*
X21516142Y-21044500D01*
X21516143Y-21044500D01*
X21674255Y-21044500D01*
X21674257Y-21044500D01*
X21826984Y-21003577D01*
X21963916Y-20924520D01*
X22030498Y-20857937D01*
X22085012Y-20830161D01*
X22145444Y-20839732D01*
G37*
%TD.AperFunction*%
%TA.AperFunction,Conductor*%
G36*
X52061790Y-4136907D02*
G01*
X52073603Y-4146996D01*
X52263504Y-4336897D01*
X52291281Y-4391414D01*
X52292500Y-4406901D01*
X52292500Y-4822866D01*
X52292500Y-4822869D01*
X52292501Y-4822872D01*
X52293730Y-4834306D01*
X52298908Y-4882480D01*
X52298909Y-4882485D01*
X52349202Y-5017329D01*
X52435450Y-5132541D01*
X52435454Y-5132546D01*
X52435457Y-5132548D01*
X52435458Y-5132549D01*
X52550670Y-5218797D01*
X52685511Y-5269089D01*
X52685512Y-5269089D01*
X52685517Y-5269091D01*
X52745127Y-5275500D01*
X53240872Y-5275499D01*
X53300483Y-5269091D01*
X53393503Y-5234397D01*
X53435329Y-5218797D01*
X53435329Y-5218796D01*
X53435331Y-5218796D01*
X53550546Y-5132546D01*
X53636796Y-5017331D01*
X53640765Y-5006691D01*
X53687089Y-4882488D01*
X53687090Y-4882485D01*
X53687091Y-4882483D01*
X53693500Y-4822873D01*
X53693499Y-4406899D01*
X53695967Y-4399302D01*
X53694718Y-4391413D01*
X53705242Y-4370757D01*
X53712406Y-4348709D01*
X53722489Y-4336902D01*
X53773498Y-4285893D01*
X53828013Y-4258118D01*
X53888445Y-4267689D01*
X53931710Y-4310954D01*
X53942500Y-4355899D01*
X53942500Y-4822866D01*
X53942500Y-4822869D01*
X53942501Y-4822872D01*
X53943730Y-4834306D01*
X53948908Y-4882480D01*
X53948909Y-4882485D01*
X53999202Y-5017329D01*
X54085450Y-5132541D01*
X54085454Y-5132546D01*
X54200669Y-5218796D01*
X54200673Y-5218797D01*
X54204141Y-5220691D01*
X54246155Y-5265171D01*
X54255700Y-5307584D01*
X54255700Y-13531399D01*
X54236793Y-13589590D01*
X54226704Y-13601403D01*
X49262703Y-18565404D01*
X49256860Y-18568380D01*
X49253161Y-18573792D01*
X49232254Y-18580917D01*
X49208186Y-18593181D01*
X49195536Y-18594359D01*
X49194106Y-18594400D01*
X49120543Y-18594400D01*
X49111728Y-18596761D01*
X49100137Y-18597094D01*
X49081354Y-18591581D01*
X49061804Y-18590553D01*
X49052685Y-18583166D01*
X49041428Y-18579862D01*
X49029474Y-18564363D01*
X49014261Y-18552039D01*
X49010703Y-18540026D01*
X49004061Y-18531413D01*
X49003622Y-18516108D01*
X48998300Y-18498135D01*
X48998300Y-5467600D01*
X49017207Y-5409409D01*
X49027296Y-5397596D01*
X49285296Y-5139596D01*
X49339813Y-5111819D01*
X49355300Y-5110600D01*
X49427455Y-5110600D01*
X49427457Y-5110600D01*
X49580184Y-5069677D01*
X49717116Y-4990620D01*
X49828920Y-4878816D01*
X49907977Y-4741884D01*
X49948900Y-4589157D01*
X49948900Y-4431043D01*
X49907977Y-4278316D01*
X49901154Y-4266499D01*
X49888433Y-4206653D01*
X49913319Y-4150757D01*
X49966306Y-4120164D01*
X49986891Y-4118000D01*
X52003599Y-4118000D01*
X52061790Y-4136907D01*
G37*
%TD.AperFunction*%
%TA.AperFunction,Conductor*%
G36*
X45611904Y-4230296D02*
G01*
X45718504Y-4336896D01*
X45746281Y-4391413D01*
X45747500Y-4406900D01*
X45747500Y-4822866D01*
X45747500Y-4822869D01*
X45747501Y-4822872D01*
X45748730Y-4834306D01*
X45753908Y-4882480D01*
X45753909Y-4882485D01*
X45804202Y-5017329D01*
X45890450Y-5132541D01*
X45890454Y-5132546D01*
X45890457Y-5132548D01*
X45890458Y-5132549D01*
X46007829Y-5220413D01*
X46043082Y-5270421D01*
X46047500Y-5299666D01*
X46047500Y-15120099D01*
X46028593Y-15178290D01*
X46018504Y-15190103D01*
X44213103Y-16995504D01*
X44158586Y-17023281D01*
X44143099Y-17024500D01*
X43708851Y-17024500D01*
X43624408Y-17034641D01*
X43483726Y-17090120D01*
X43482692Y-17087499D01*
X43434459Y-17097157D01*
X43378862Y-17071611D01*
X43375992Y-17068856D01*
X43345716Y-17038580D01*
X43208784Y-16959523D01*
X43056057Y-16918600D01*
X42897943Y-16918600D01*
X42745216Y-16959523D01*
X42608284Y-17038580D01*
X42496480Y-17150384D01*
X42417423Y-17287316D01*
X42376500Y-17440044D01*
X42376500Y-17512199D01*
X42357593Y-17570390D01*
X42347504Y-17582203D01*
X41826104Y-18103603D01*
X41771587Y-18131380D01*
X41711155Y-18121809D01*
X41667890Y-18078544D01*
X41657100Y-18033599D01*
X41657100Y-17888944D01*
X41657100Y-17888943D01*
X41616177Y-17736216D01*
X41537120Y-17599284D01*
X41520039Y-17582203D01*
X41486096Y-17548259D01*
X41458319Y-17493742D01*
X41457100Y-17478256D01*
X41457100Y-15291300D01*
X41476007Y-15233109D01*
X41486090Y-15221302D01*
X44291580Y-12415813D01*
X44327910Y-12352887D01*
X44344307Y-12324487D01*
X44371600Y-12222627D01*
X44371600Y-8516373D01*
X44344307Y-8414513D01*
X44322529Y-8376793D01*
X44291580Y-8323187D01*
X44217013Y-8248619D01*
X44217013Y-8248620D01*
X41412896Y-5444503D01*
X41385119Y-5389986D01*
X41394690Y-5329554D01*
X41437955Y-5286289D01*
X41482897Y-5275499D01*
X41799872Y-5275499D01*
X41859483Y-5269091D01*
X41952503Y-5234397D01*
X41994329Y-5218797D01*
X41994329Y-5218796D01*
X41994331Y-5218796D01*
X42109546Y-5132546D01*
X42195796Y-5017331D01*
X42199765Y-5006691D01*
X42246089Y-4882488D01*
X42246090Y-4882485D01*
X42246091Y-4882483D01*
X42247345Y-4870817D01*
X42272364Y-4814982D01*
X42325424Y-4784515D01*
X42345778Y-4782400D01*
X44352656Y-4782400D01*
X44410847Y-4801307D01*
X44422659Y-4811396D01*
X44451916Y-4840652D01*
X44473684Y-4862420D01*
X44610616Y-4941477D01*
X44763343Y-4982400D01*
X44763345Y-4982400D01*
X44921455Y-4982400D01*
X44921457Y-4982400D01*
X45074184Y-4941477D01*
X45211116Y-4862420D01*
X45322920Y-4750616D01*
X45401977Y-4613684D01*
X45442900Y-4460957D01*
X45442900Y-4302843D01*
X45442900Y-4300300D01*
X45461807Y-4242109D01*
X45511307Y-4206145D01*
X45572493Y-4206145D01*
X45611904Y-4230296D01*
G37*
%TD.AperFunction*%
%TA.AperFunction,Conductor*%
G36*
X26056445Y-4666189D02*
G01*
X26099710Y-4709454D01*
X26110500Y-4754398D01*
X26110500Y-4822866D01*
X26110500Y-4822869D01*
X26110501Y-4822872D01*
X26111730Y-4834306D01*
X26116908Y-4882480D01*
X26116909Y-4882485D01*
X26167202Y-5017329D01*
X26253450Y-5132541D01*
X26253454Y-5132546D01*
X26253457Y-5132548D01*
X26253458Y-5132549D01*
X26368670Y-5218797D01*
X26503511Y-5269089D01*
X26503512Y-5269089D01*
X26503517Y-5269091D01*
X26540582Y-5273076D01*
X26596417Y-5298093D01*
X26626885Y-5351153D01*
X26629000Y-5371508D01*
X26629000Y-12921299D01*
X26610093Y-12979490D01*
X26600004Y-12991303D01*
X21561504Y-18029803D01*
X21506987Y-18057580D01*
X21446555Y-18048009D01*
X21403290Y-18004744D01*
X21392500Y-17959799D01*
X21392500Y-14133900D01*
X21411407Y-14075709D01*
X21421496Y-14063896D01*
X21813996Y-13671396D01*
X21868513Y-13643619D01*
X21884000Y-13642400D01*
X22280925Y-13642400D01*
X22280927Y-13642400D01*
X22382788Y-13615107D01*
X22382790Y-13615105D01*
X22382792Y-13615105D01*
X22474108Y-13562383D01*
X22474108Y-13562382D01*
X22474113Y-13562380D01*
X25831680Y-10204813D01*
X25835108Y-10198876D01*
X25884405Y-10113492D01*
X25884405Y-10113490D01*
X25884407Y-10113488D01*
X25911700Y-10011627D01*
X25911700Y-9906173D01*
X25911700Y-4755199D01*
X25914168Y-4747601D01*
X25912919Y-4739712D01*
X25923443Y-4719056D01*
X25930607Y-4697008D01*
X25940685Y-4685207D01*
X25941499Y-4684393D01*
X25996013Y-4656618D01*
X26056445Y-4666189D01*
G37*
%TD.AperFunction*%
%TA.AperFunction,Conductor*%
G36*
X4640410Y-13517816D02*
G01*
X4652723Y-13531133D01*
X4654316Y-13533209D01*
X4912717Y-13791611D01*
X4912718Y-13791611D01*
X4912720Y-13791613D01*
X4912719Y-13791613D01*
X4960163Y-13839056D01*
X4987287Y-13866180D01*
X5010393Y-13879520D01*
X5078612Y-13918907D01*
X5180473Y-13946200D01*
X5180475Y-13946200D01*
X6882725Y-13946200D01*
X6882727Y-13946200D01*
X6984587Y-13918907D01*
X6984588Y-13918906D01*
X6990855Y-13917227D01*
X6991536Y-13919771D01*
X7041350Y-13915823D01*
X7093537Y-13947763D01*
X7116983Y-14004278D01*
X7115391Y-14031414D01*
X7099500Y-14111303D01*
X7099500Y-14288693D01*
X7118015Y-14381774D01*
X7130288Y-14443474D01*
X7134106Y-14462665D01*
X7134106Y-14462667D01*
X7201985Y-14626544D01*
X7201985Y-14626545D01*
X7300537Y-14774037D01*
X7425965Y-14899464D01*
X7456001Y-14919533D01*
X7493881Y-14967582D01*
X7500000Y-15001849D01*
X7500000Y-15301000D01*
X7481093Y-15359191D01*
X7431593Y-15395155D01*
X7401000Y-15400000D01*
X3999000Y-15400000D01*
X3940809Y-15381093D01*
X3904845Y-15331593D01*
X3900000Y-15301000D01*
X3900000Y-15048843D01*
X3918907Y-14990652D01*
X3959015Y-14958277D01*
X3972765Y-14952206D01*
X4052206Y-14872765D01*
X4097585Y-14769991D01*
X4100500Y-14744865D01*
X4100499Y-13655136D01*
X4100125Y-13651916D01*
X4112201Y-13591937D01*
X4157227Y-13550509D01*
X4216220Y-13543665D01*
X4216222Y-13543653D01*
X4216269Y-13543659D01*
X4218005Y-13543458D01*
X4222188Y-13544438D01*
X4222653Y-13544499D01*
X4222654Y-13544500D01*
X4222655Y-13544500D01*
X4377344Y-13544500D01*
X4377346Y-13544500D01*
X4526767Y-13504463D01*
X4526769Y-13504461D01*
X4526772Y-13504461D01*
X4532765Y-13501979D01*
X4533516Y-13503793D01*
X4584509Y-13492942D01*
X4640410Y-13517816D01*
G37*
%TD.AperFunction*%
%TA.AperFunction,Conductor*%
G36*
X12561634Y-12407159D02*
G01*
X12578480Y-12420673D01*
X14956504Y-14798697D01*
X14984281Y-14853214D01*
X14985500Y-14868701D01*
X14985500Y-15301000D01*
X14966593Y-15359191D01*
X14917093Y-15395155D01*
X14886500Y-15400000D01*
X9099000Y-15400000D01*
X9040809Y-15381093D01*
X9004845Y-15331593D01*
X9000000Y-15301000D01*
X9000000Y-14731226D01*
X8991726Y-14714987D01*
X9001297Y-14654555D01*
X9044562Y-14611290D01*
X9089507Y-14600500D01*
X10427725Y-14600500D01*
X10427727Y-14600500D01*
X10529588Y-14573207D01*
X10529590Y-14573205D01*
X10529592Y-14573205D01*
X10620908Y-14520483D01*
X10620908Y-14520482D01*
X10620913Y-14520480D01*
X11436896Y-13704495D01*
X11491413Y-13676719D01*
X11506900Y-13675500D01*
X11941142Y-13675500D01*
X11941144Y-13675500D01*
X12025590Y-13665359D01*
X12159975Y-13612364D01*
X12275078Y-13525078D01*
X12362364Y-13409975D01*
X12415359Y-13275590D01*
X12425500Y-13191144D01*
X12425500Y-12608856D01*
X12415359Y-12524410D01*
X12415358Y-12524408D01*
X12415358Y-12524404D01*
X12413804Y-12518256D01*
X12415810Y-12517748D01*
X12412619Y-12465930D01*
X12445472Y-12414313D01*
X12502391Y-12391864D01*
X12561634Y-12407159D01*
G37*
%TD.AperFunction*%
%TA.AperFunction,Conductor*%
G36*
X23615153Y-7054368D02*
G01*
X23623042Y-7053119D01*
X23643695Y-7063642D01*
X23665747Y-7070807D01*
X23677559Y-7080896D01*
X23704880Y-7108216D01*
X23728584Y-7131920D01*
X23865516Y-7210977D01*
X24018243Y-7251900D01*
X24018245Y-7251900D01*
X24176356Y-7251900D01*
X24176357Y-7251900D01*
X24199876Y-7245598D01*
X24260977Y-7248799D01*
X24308528Y-7287304D01*
X24324500Y-7341224D01*
X24324500Y-8317852D01*
X24305593Y-8376043D01*
X24256093Y-8412007D01*
X24194907Y-8412007D01*
X24176000Y-8403589D01*
X24129589Y-8376793D01*
X24095634Y-8367695D01*
X24027727Y-8349500D01*
X24027725Y-8349500D01*
X23272365Y-8349500D01*
X23232378Y-8341065D01*
X23191887Y-8323187D01*
X23167491Y-8312415D01*
X23167489Y-8312414D01*
X23167488Y-8312414D01*
X23142368Y-8309500D01*
X22377639Y-8309500D01*
X22377636Y-8309501D01*
X22352509Y-8312414D01*
X22249735Y-8357794D01*
X22170294Y-8437235D01*
X22124914Y-8540011D01*
X22122000Y-8565130D01*
X22122000Y-8934859D01*
X22122001Y-8934864D01*
X22124914Y-8959989D01*
X22124915Y-8959992D01*
X22124926Y-8960016D01*
X22124928Y-8960039D01*
X22126870Y-8967176D01*
X22125688Y-8967497D01*
X22131130Y-9020886D01*
X22124928Y-9039977D01*
X22124917Y-9039999D01*
X22124914Y-9040011D01*
X22122000Y-9065130D01*
X22122000Y-9065132D01*
X22122000Y-9065135D01*
X22122000Y-9249501D01*
X22122001Y-9371300D01*
X22117156Y-9386211D01*
X22117156Y-9401893D01*
X22107938Y-9414579D01*
X22103094Y-9429490D01*
X22090410Y-9438705D01*
X22081192Y-9451393D01*
X22066277Y-9456238D01*
X22053594Y-9465454D01*
X22023001Y-9470300D01*
X21948500Y-9470300D01*
X21890309Y-9451393D01*
X21878496Y-9441303D01*
X21454019Y-9016825D01*
X21426242Y-8962309D01*
X21433460Y-8906831D01*
X21437585Y-8897491D01*
X21440500Y-8872365D01*
X21440499Y-8107636D01*
X21437585Y-8082509D01*
X21392206Y-7979735D01*
X21342483Y-7930012D01*
X21314708Y-7875498D01*
X21324279Y-7815066D01*
X21342485Y-7790007D01*
X22051596Y-7080896D01*
X22106113Y-7053119D01*
X22121600Y-7051900D01*
X23607556Y-7051900D01*
X23615153Y-7054368D01*
G37*
%TD.AperFunction*%
%TA.AperFunction,Conductor*%
G36*
X8070445Y-4267689D02*
G01*
X8113710Y-4310954D01*
X8124500Y-4355899D01*
X8124500Y-4822866D01*
X8124500Y-4822869D01*
X8124501Y-4822872D01*
X8125730Y-4834306D01*
X8130908Y-4882480D01*
X8130909Y-4882485D01*
X8181202Y-5017329D01*
X8267450Y-5132541D01*
X8267454Y-5132546D01*
X8267457Y-5132548D01*
X8267458Y-5132549D01*
X8384829Y-5220413D01*
X8420082Y-5270421D01*
X8424500Y-5299666D01*
X8424500Y-8716799D01*
X8405593Y-8774990D01*
X8356093Y-8810954D01*
X8294907Y-8810954D01*
X8255496Y-8786803D01*
X7385424Y-7916731D01*
X7357647Y-7862214D01*
X7367218Y-7801782D01*
X7369693Y-7797225D01*
X7373860Y-7790007D01*
X7377463Y-7783767D01*
X7417500Y-7634346D01*
X7417500Y-6165654D01*
X7377463Y-6016233D01*
X7377461Y-6016230D01*
X7377461Y-6016228D01*
X7300120Y-5882270D01*
X7300118Y-5882268D01*
X7300117Y-5882266D01*
X7190734Y-5772883D01*
X7190731Y-5772881D01*
X7190729Y-5772879D01*
X7056770Y-5695538D01*
X7056772Y-5695538D01*
X6998795Y-5680003D01*
X6907346Y-5655500D01*
X6752654Y-5655500D01*
X6725021Y-5662903D01*
X6663921Y-5659701D01*
X6616371Y-5621196D01*
X6600400Y-5567277D01*
X6600400Y-5312049D01*
X6619307Y-5253858D01*
X6668807Y-5217894D01*
X6729993Y-5217894D01*
X6733996Y-5219291D01*
X6745935Y-5223744D01*
X6867517Y-5269091D01*
X6927127Y-5275500D01*
X7422872Y-5275499D01*
X7482483Y-5269091D01*
X7575503Y-5234397D01*
X7617329Y-5218797D01*
X7617329Y-5218796D01*
X7617331Y-5218796D01*
X7732546Y-5132546D01*
X7818796Y-5017331D01*
X7822765Y-5006691D01*
X7869089Y-4882488D01*
X7869090Y-4882485D01*
X7869091Y-4882483D01*
X7875500Y-4822873D01*
X7875499Y-4406899D01*
X7877967Y-4399302D01*
X7876718Y-4391413D01*
X7887242Y-4370757D01*
X7894406Y-4348709D01*
X7904489Y-4336902D01*
X7955498Y-4285893D01*
X8010013Y-4258118D01*
X8070445Y-4267689D01*
G37*
%TD.AperFunction*%
%TA.AperFunction,Conductor*%
G36*
X10524604Y-4848897D02*
G01*
X11169404Y-5493697D01*
X11197181Y-5548214D01*
X11198400Y-5563701D01*
X11198400Y-7769199D01*
X11179493Y-7827390D01*
X11169404Y-7839203D01*
X11013103Y-7995504D01*
X10958586Y-8023281D01*
X10943099Y-8024500D01*
X10508851Y-8024500D01*
X10466404Y-8029598D01*
X10406374Y-8017764D01*
X10364765Y-7972905D01*
X10355600Y-7931304D01*
X10355600Y-4918901D01*
X10374507Y-4860710D01*
X10424007Y-4824746D01*
X10485193Y-4824746D01*
X10524604Y-4848897D01*
G37*
%TD.AperFunction*%
%TA.AperFunction,Conductor*%
G36*
X83141859Y-603868D02*
G01*
X83299646Y-649326D01*
X83310117Y-652990D01*
X83436514Y-705346D01*
X83577457Y-763727D01*
X83587459Y-768544D01*
X83840711Y-908511D01*
X83850111Y-914417D01*
X84086106Y-1081864D01*
X84094783Y-1088784D01*
X84310555Y-1281609D01*
X84318390Y-1289444D01*
X84511213Y-1505213D01*
X84518135Y-1513893D01*
X84685582Y-1749888D01*
X84691488Y-1759288D01*
X84831455Y-2012540D01*
X84836272Y-2022542D01*
X84947007Y-2289878D01*
X84950674Y-2300357D01*
X84986068Y-2423212D01*
X84996131Y-2458139D01*
X85000000Y-2485546D01*
X85000000Y-51494452D01*
X84996131Y-51521859D01*
X84950674Y-51679642D01*
X84947007Y-51690121D01*
X84836272Y-51957457D01*
X84831455Y-51967459D01*
X84691488Y-52220711D01*
X84685582Y-52230111D01*
X84518135Y-52466106D01*
X84511213Y-52474786D01*
X84318398Y-52690547D01*
X84310547Y-52698398D01*
X84094786Y-52891213D01*
X84086106Y-52898135D01*
X83850111Y-53065582D01*
X83840711Y-53071488D01*
X83587459Y-53211455D01*
X83577457Y-53216272D01*
X83310121Y-53327007D01*
X83299642Y-53330674D01*
X83141860Y-53376131D01*
X83114453Y-53380000D01*
X2485547Y-53380000D01*
X2458140Y-53376131D01*
X2300357Y-53330674D01*
X2289878Y-53327007D01*
X2022542Y-53216272D01*
X2012540Y-53211455D01*
X1759288Y-53071488D01*
X1749888Y-53065582D01*
X1513893Y-52898135D01*
X1505213Y-52891213D01*
X1296275Y-52704495D01*
X1289444Y-52698390D01*
X1281609Y-52690555D01*
X1088784Y-52474783D01*
X1081864Y-52466106D01*
X1047256Y-52417331D01*
X914417Y-52230111D01*
X908511Y-52220711D01*
X768544Y-51967459D01*
X763727Y-51957457D01*
X743285Y-51908107D01*
X652990Y-51690117D01*
X649325Y-51679641D01*
X603869Y-51521858D01*
X600000Y-51494452D01*
X600000Y-50413385D01*
X2399500Y-50413385D01*
X2399500Y-50586614D01*
X2426597Y-50757702D01*
X2426598Y-50757706D01*
X2480123Y-50922438D01*
X2480125Y-50922441D01*
X2524744Y-51010013D01*
X2558768Y-51076788D01*
X2660586Y-51216928D01*
X2783072Y-51339414D01*
X2923212Y-51441232D01*
X3077555Y-51519873D01*
X3077557Y-51519873D01*
X3077558Y-51519874D01*
X3077561Y-51519876D01*
X3242293Y-51573401D01*
X3242297Y-51573402D01*
X3413386Y-51600500D01*
X3413389Y-51600500D01*
X3586614Y-51600500D01*
X3757702Y-51573402D01*
X3757706Y-51573401D01*
X3922438Y-51519876D01*
X3922440Y-51519874D01*
X3922445Y-51519873D01*
X4076788Y-51441232D01*
X4216928Y-51339414D01*
X4339414Y-51216928D01*
X4441232Y-51076788D01*
X4519873Y-50922445D01*
X4519874Y-50922440D01*
X4519876Y-50922438D01*
X4573401Y-50757706D01*
X4573402Y-50757702D01*
X4600500Y-50586614D01*
X4600500Y-50413385D01*
X4573402Y-50242297D01*
X4573401Y-50242293D01*
X4519876Y-50077561D01*
X4519874Y-50077558D01*
X4519873Y-50077557D01*
X4519873Y-50077555D01*
X4441232Y-49923212D01*
X4339414Y-49783072D01*
X4216928Y-49660586D01*
X4076788Y-49558768D01*
X4076787Y-49558767D01*
X4076785Y-49558766D01*
X3922441Y-49480125D01*
X3922438Y-49480123D01*
X3757706Y-49426598D01*
X3757702Y-49426597D01*
X3586614Y-49399500D01*
X3586611Y-49399500D01*
X3413389Y-49399500D01*
X3413386Y-49399500D01*
X3242297Y-49426597D01*
X3242293Y-49426598D01*
X3077561Y-49480123D01*
X3077558Y-49480125D01*
X2923214Y-49558766D01*
X2783073Y-49660585D01*
X2660585Y-49783073D01*
X2558766Y-49923214D01*
X2480125Y-50077558D01*
X2480123Y-50077561D01*
X2426598Y-50242293D01*
X2426597Y-50242297D01*
X2399500Y-50413385D01*
X600000Y-50413385D01*
X600000Y-45030130D01*
X8199500Y-45030130D01*
X8199500Y-45869860D01*
X8199501Y-45869863D01*
X8202414Y-45894990D01*
X8227756Y-45952385D01*
X8247794Y-45997765D01*
X8327235Y-46077206D01*
X8430009Y-46122585D01*
X8455135Y-46125500D01*
X8500500Y-46125499D01*
X8558689Y-46144405D01*
X8594654Y-46193904D01*
X8599500Y-46224499D01*
X8599500Y-48375500D01*
X8580593Y-48433691D01*
X8531093Y-48469655D01*
X8500502Y-48474500D01*
X8455139Y-48474500D01*
X8455135Y-48474501D01*
X8430009Y-48477414D01*
X8327235Y-48522794D01*
X8247794Y-48602235D01*
X8202414Y-48705011D01*
X8199500Y-48730130D01*
X8199500Y-49569860D01*
X8199501Y-49569863D01*
X8202414Y-49594990D01*
X8206707Y-49604712D01*
X8247794Y-49697765D01*
X8327235Y-49777206D01*
X8430009Y-49822585D01*
X8455135Y-49825500D01*
X9544864Y-49825499D01*
X9569991Y-49822585D01*
X9672765Y-49777206D01*
X9752206Y-49697765D01*
X9797585Y-49594991D01*
X9800500Y-49569865D01*
X9800499Y-48730136D01*
X9797585Y-48705009D01*
X9752206Y-48602235D01*
X9672765Y-48522794D01*
X9569991Y-48477415D01*
X9569990Y-48477414D01*
X9569988Y-48477414D01*
X9544869Y-48474500D01*
X9544865Y-48474500D01*
X9499500Y-48474500D01*
X9441309Y-48455593D01*
X9405345Y-48406093D01*
X9400500Y-48375500D01*
X9400500Y-46224499D01*
X9419407Y-46166308D01*
X9468907Y-46130344D01*
X9499500Y-46125499D01*
X9544861Y-46125499D01*
X9544864Y-46125499D01*
X9569991Y-46122585D01*
X9672765Y-46077206D01*
X9752206Y-45997765D01*
X9793090Y-45905170D01*
X9833888Y-45859577D01*
X9858022Y-45849536D01*
X9956288Y-45823207D01*
X10047613Y-45770480D01*
X10073075Y-45745017D01*
X10127589Y-45717240D01*
X10188022Y-45726811D01*
X10213078Y-45745014D01*
X10248684Y-45780620D01*
X10385616Y-45859677D01*
X10538343Y-45900600D01*
X10538345Y-45900600D01*
X10696455Y-45900600D01*
X10696457Y-45900600D01*
X10849184Y-45859677D01*
X10986116Y-45780620D01*
X11097920Y-45668816D01*
X11176977Y-45531884D01*
X11217900Y-45379157D01*
X11217900Y-45221043D01*
X11176977Y-45068316D01*
X11097920Y-44931384D01*
X10986116Y-44819580D01*
X10849184Y-44740523D01*
X10696457Y-44699600D01*
X10538343Y-44699600D01*
X10385616Y-44740523D01*
X10254352Y-44816308D01*
X10248681Y-44819582D01*
X10197659Y-44870604D01*
X10190542Y-44874229D01*
X10185847Y-44880693D01*
X10163795Y-44887857D01*
X10143142Y-44898381D01*
X10127656Y-44899600D01*
X10010406Y-44899600D01*
X10010390Y-44899599D01*
X10004327Y-44899599D01*
X9898873Y-44899599D01*
X9889036Y-44902235D01*
X9836331Y-44916357D01*
X9775229Y-44913154D01*
X9740706Y-44890735D01*
X9672765Y-44822794D01*
X9569991Y-44777415D01*
X9569990Y-44777414D01*
X9569988Y-44777414D01*
X9544868Y-44774500D01*
X8455139Y-44774500D01*
X8455136Y-44774501D01*
X8430009Y-44777414D01*
X8327235Y-44822794D01*
X8247794Y-44902235D01*
X8202414Y-45005011D01*
X8199500Y-45030130D01*
X600000Y-45030130D01*
X600000Y-15400000D01*
X1900000Y-15400000D01*
X1900000Y-41100000D01*
X1900001Y-41100000D01*
X15049999Y-41100000D01*
X15050000Y-41100000D01*
X15050000Y-25212700D01*
X15068907Y-25154509D01*
X15118407Y-25118545D01*
X15179593Y-25118545D01*
X15219001Y-25142694D01*
X21768805Y-31692498D01*
X21796581Y-31747013D01*
X21797800Y-31762500D01*
X21797800Y-32132727D01*
X21825093Y-32234587D01*
X21825094Y-32234589D01*
X21825094Y-32234590D01*
X21877226Y-32324884D01*
X21877820Y-32325913D01*
X21952387Y-32400480D01*
X22043713Y-32453207D01*
X22126125Y-32475289D01*
X22177438Y-32508612D01*
X22195097Y-32541716D01*
X22199501Y-32555983D01*
X22199501Y-32574864D01*
X22202415Y-32599991D01*
X22237869Y-32680286D01*
X22239571Y-32685801D01*
X22239200Y-32710899D01*
X22241748Y-32735882D01*
X22238692Y-32745286D01*
X22238667Y-32746980D01*
X22237739Y-32748217D01*
X22235540Y-32754987D01*
X22202415Y-32830009D01*
X22202414Y-32830011D01*
X22199500Y-32855130D01*
X22199500Y-33844860D01*
X22199501Y-33844863D01*
X22202414Y-33869990D01*
X22235540Y-33945012D01*
X22235992Y-33949449D01*
X22238668Y-33953020D01*
X22237977Y-33968910D01*
X22241748Y-34005882D01*
X22239571Y-34014199D01*
X22237868Y-34019713D01*
X22202415Y-34100009D01*
X22199500Y-34125135D01*
X22199500Y-34144016D01*
X22195096Y-34158284D01*
X22185658Y-34171685D01*
X22180593Y-34187276D01*
X22168483Y-34196073D01*
X22159867Y-34208310D01*
X22144355Y-34213604D01*
X22131093Y-34223240D01*
X22126138Y-34224707D01*
X22043713Y-34246793D01*
X22043712Y-34246793D01*
X22043710Y-34246794D01*
X22043709Y-34246794D01*
X21952389Y-34299518D01*
X21877818Y-34374089D01*
X21821849Y-34471031D01*
X21820653Y-34470340D01*
X21805512Y-34492993D01*
X21618604Y-34679903D01*
X21564088Y-34707681D01*
X21548600Y-34708900D01*
X21476443Y-34708900D01*
X21323716Y-34749823D01*
X21186784Y-34828880D01*
X21074980Y-34940684D01*
X20995923Y-35077616D01*
X20955000Y-35230343D01*
X20955000Y-35388457D01*
X20995923Y-35541184D01*
X21074980Y-35678116D01*
X21186784Y-35789920D01*
X21323716Y-35868977D01*
X21476443Y-35909900D01*
X21476445Y-35909900D01*
X21634555Y-35909900D01*
X21634557Y-35909900D01*
X21787284Y-35868977D01*
X21924216Y-35789920D01*
X22036020Y-35678116D01*
X22115077Y-35541184D01*
X22156000Y-35388457D01*
X22156000Y-35388454D01*
X22156847Y-35382023D01*
X22158513Y-35382242D01*
X22174907Y-35331787D01*
X22224407Y-35295823D01*
X22285593Y-35295823D01*
X22325001Y-35319972D01*
X22327235Y-35322206D01*
X22430009Y-35367585D01*
X22455135Y-35370500D01*
X23802200Y-35370499D01*
X23860391Y-35389406D01*
X23896355Y-35438906D01*
X23901200Y-35469499D01*
X23901200Y-41264699D01*
X23882293Y-41322890D01*
X23872204Y-41334703D01*
X20679516Y-44527391D01*
X20626793Y-44618711D01*
X20626792Y-44618712D01*
X20626793Y-44618713D01*
X20604711Y-44701123D01*
X20571386Y-44752438D01*
X20514265Y-44774364D01*
X20509086Y-44774500D01*
X20455139Y-44774500D01*
X20455135Y-44774501D01*
X20430009Y-44777414D01*
X20327235Y-44822794D01*
X20247794Y-44902235D01*
X20202414Y-45005011D01*
X20199500Y-45030130D01*
X20199500Y-45869860D01*
X20199501Y-45869863D01*
X20202414Y-45894990D01*
X20227756Y-45952385D01*
X20247794Y-45997765D01*
X20327235Y-46077206D01*
X20430009Y-46122585D01*
X20455135Y-46125500D01*
X20500500Y-46125499D01*
X20558689Y-46144405D01*
X20594654Y-46193904D01*
X20599500Y-46224499D01*
X20599500Y-48375500D01*
X20580593Y-48433691D01*
X20531093Y-48469655D01*
X20500502Y-48474500D01*
X20455139Y-48474500D01*
X20455135Y-48474501D01*
X20430009Y-48477414D01*
X20327235Y-48522794D01*
X20247794Y-48602235D01*
X20202414Y-48705011D01*
X20199500Y-48730130D01*
X20199500Y-49569860D01*
X20199501Y-49569863D01*
X20202414Y-49594990D01*
X20206707Y-49604712D01*
X20247794Y-49697765D01*
X20327235Y-49777206D01*
X20430009Y-49822585D01*
X20455135Y-49825500D01*
X21544864Y-49825499D01*
X21569991Y-49822585D01*
X21672765Y-49777206D01*
X21752206Y-49697765D01*
X21797585Y-49594991D01*
X21800500Y-49569865D01*
X21800499Y-48730136D01*
X21797585Y-48705009D01*
X21752206Y-48602235D01*
X21672765Y-48522794D01*
X21569991Y-48477415D01*
X21569990Y-48477414D01*
X21569988Y-48477414D01*
X21544869Y-48474500D01*
X21544865Y-48474500D01*
X21499500Y-48474500D01*
X21441309Y-48455593D01*
X21405345Y-48406093D01*
X21400500Y-48375500D01*
X21400500Y-46224499D01*
X21419407Y-46166308D01*
X21468907Y-46130344D01*
X21499500Y-46125499D01*
X21544861Y-46125499D01*
X21544864Y-46125499D01*
X21569991Y-46122585D01*
X21672765Y-46077206D01*
X21752206Y-45997765D01*
X21797585Y-45894991D01*
X21800500Y-45869865D01*
X21800499Y-45030136D01*
X21797585Y-45005009D01*
X21752206Y-44902235D01*
X21672765Y-44822794D01*
X21672763Y-44822793D01*
X21666278Y-44816308D01*
X21668684Y-44813901D01*
X21641291Y-44778300D01*
X21639609Y-44717137D01*
X21664563Y-44675128D01*
X24622180Y-41717513D01*
X24674907Y-41626188D01*
X24702200Y-41524327D01*
X24702200Y-41473124D01*
X24721107Y-41414933D01*
X24770607Y-41378969D01*
X24831793Y-41378969D01*
X24881293Y-41414933D01*
X24896825Y-41447498D01*
X24905423Y-41479584D01*
X24984480Y-41616516D01*
X25096284Y-41728320D01*
X25233216Y-41807377D01*
X25385943Y-41848300D01*
X25385945Y-41848300D01*
X25544055Y-41848300D01*
X25544057Y-41848300D01*
X25696784Y-41807377D01*
X25833716Y-41728320D01*
X25945520Y-41616516D01*
X26024577Y-41479584D01*
X26065500Y-41326857D01*
X26065500Y-41254700D01*
X26084407Y-41196509D01*
X26094490Y-41184702D01*
X26770880Y-40508313D01*
X26774933Y-40501293D01*
X26823605Y-40416992D01*
X26823605Y-40416990D01*
X26823607Y-40416988D01*
X26850900Y-40315127D01*
X26850900Y-40209673D01*
X26850900Y-29762343D01*
X33162400Y-29762343D01*
X33162400Y-29920457D01*
X33203323Y-30073184D01*
X33282380Y-30210116D01*
X33333405Y-30261141D01*
X33361181Y-30315656D01*
X33362400Y-30331143D01*
X33362400Y-36407473D01*
X33362400Y-36512927D01*
X33386470Y-36602759D01*
X33389694Y-36614792D01*
X33442416Y-36706108D01*
X33442418Y-36706110D01*
X33442420Y-36706113D01*
X42735805Y-45999498D01*
X42763581Y-46054013D01*
X42764800Y-46069500D01*
X42764800Y-46141657D01*
X42805723Y-46294384D01*
X42884780Y-46431316D01*
X42996584Y-46543120D01*
X43133516Y-46622177D01*
X43286243Y-46663100D01*
X43286245Y-46663100D01*
X43444355Y-46663100D01*
X43444357Y-46663100D01*
X43597084Y-46622177D01*
X43734016Y-46543120D01*
X43845820Y-46431316D01*
X43924877Y-46294384D01*
X43965800Y-46141657D01*
X43965800Y-45983543D01*
X43924877Y-45830816D01*
X43845820Y-45693884D01*
X43734016Y-45582080D01*
X43597084Y-45503023D01*
X43444357Y-45462100D01*
X43444355Y-45462100D01*
X43372201Y-45462100D01*
X43314010Y-45443193D01*
X43302197Y-45433104D01*
X34192396Y-36323303D01*
X34164619Y-36268786D01*
X34163400Y-36253299D01*
X34163400Y-30331143D01*
X34182307Y-30272952D01*
X34192390Y-30261145D01*
X34243420Y-30210116D01*
X34322477Y-30073184D01*
X34363400Y-29920457D01*
X34363400Y-29762343D01*
X34322477Y-29609616D01*
X34243420Y-29472684D01*
X34131616Y-29360880D01*
X33994684Y-29281823D01*
X33841957Y-29240900D01*
X33683843Y-29240900D01*
X33531116Y-29281823D01*
X33394184Y-29360880D01*
X33282380Y-29472684D01*
X33203323Y-29609616D01*
X33162400Y-29762343D01*
X26850900Y-29762343D01*
X26850900Y-20551843D01*
X26869807Y-20493652D01*
X26879890Y-20481845D01*
X26930920Y-20430816D01*
X27009977Y-20293884D01*
X27050900Y-20141157D01*
X27050900Y-19983043D01*
X27009977Y-19830316D01*
X26930920Y-19693384D01*
X26819116Y-19581580D01*
X26682184Y-19502523D01*
X26529457Y-19461600D01*
X26371343Y-19461600D01*
X26218616Y-19502523D01*
X26081684Y-19581580D01*
X25969880Y-19693384D01*
X25890823Y-19830316D01*
X25852053Y-19975010D01*
X25849900Y-19983044D01*
X25849900Y-20141156D01*
X25861573Y-20184723D01*
X25858370Y-20245825D01*
X25819864Y-20293374D01*
X25760763Y-20309209D01*
X25703642Y-20287282D01*
X25695942Y-20280349D01*
X25501623Y-20086030D01*
X25485893Y-20065530D01*
X25453420Y-20009284D01*
X25341616Y-19897480D01*
X25204684Y-19818423D01*
X25051957Y-19777500D01*
X24893843Y-19777500D01*
X24762385Y-19812724D01*
X24741116Y-19818423D01*
X24604184Y-19897480D01*
X24492378Y-20009286D01*
X24449315Y-20083874D01*
X24437552Y-20094464D01*
X24429596Y-20108149D01*
X24415387Y-20114422D01*
X24403846Y-20124815D01*
X24388103Y-20126469D01*
X24373624Y-20132863D01*
X24358442Y-20129587D01*
X24342995Y-20131211D01*
X24329286Y-20123296D01*
X24313816Y-20119958D01*
X24303459Y-20108385D01*
X24290007Y-20100618D01*
X24273015Y-20074363D01*
X24264460Y-20054988D01*
X24258251Y-19994118D01*
X24264457Y-19975018D01*
X24297585Y-19899991D01*
X24300500Y-19874865D01*
X24300499Y-19225840D01*
X24319406Y-19167650D01*
X24368906Y-19131686D01*
X24430092Y-19131686D01*
X24439473Y-19135271D01*
X24490009Y-19157585D01*
X24515135Y-19160500D01*
X25504864Y-19160499D01*
X25529991Y-19157585D01*
X25605012Y-19124459D01*
X25665881Y-19118251D01*
X25684978Y-19124455D01*
X25760009Y-19157585D01*
X25785135Y-19160500D01*
X26774864Y-19160499D01*
X26799991Y-19157585D01*
X26875012Y-19124459D01*
X26935881Y-19118251D01*
X26954978Y-19124455D01*
X27030009Y-19157585D01*
X27055135Y-19160500D01*
X28044864Y-19160499D01*
X28069991Y-19157585D01*
X28150013Y-19122251D01*
X28210880Y-19116043D01*
X28229981Y-19122249D01*
X28310009Y-19157585D01*
X28335135Y-19160500D01*
X29324864Y-19160499D01*
X29349991Y-19157585D01*
X29425012Y-19124459D01*
X29485881Y-19118251D01*
X29504978Y-19124455D01*
X29580009Y-19157585D01*
X29605135Y-19160500D01*
X30594864Y-19160499D01*
X30619991Y-19157585D01*
X30695012Y-19124459D01*
X30755881Y-19118251D01*
X30774978Y-19124455D01*
X30850009Y-19157585D01*
X30875135Y-19160500D01*
X31864864Y-19160499D01*
X31889991Y-19157585D01*
X31965012Y-19124459D01*
X32025881Y-19118251D01*
X32044978Y-19124455D01*
X32120009Y-19157585D01*
X32145135Y-19160500D01*
X33134864Y-19160499D01*
X33159991Y-19157585D01*
X33235012Y-19124459D01*
X33295881Y-19118251D01*
X33314978Y-19124455D01*
X33390009Y-19157585D01*
X33415135Y-19160500D01*
X34404864Y-19160499D01*
X34429991Y-19157585D01*
X34505012Y-19124459D01*
X34510308Y-19123919D01*
X34514625Y-19120799D01*
X34532027Y-19121704D01*
X34565881Y-19118251D01*
X34575810Y-19120940D01*
X34580477Y-19122468D01*
X34660009Y-19157585D01*
X34685135Y-19160500D01*
X34696612Y-19160499D01*
X34711310Y-19165313D01*
X34726122Y-19176127D01*
X34743209Y-19182790D01*
X34750229Y-19193727D01*
X34760727Y-19201391D01*
X34766354Y-19218846D01*
X34776261Y-19234280D01*
X34779500Y-19259396D01*
X34779500Y-32289073D01*
X34779500Y-32394527D01*
X34795223Y-32453207D01*
X34806794Y-32496392D01*
X34859516Y-32587708D01*
X34859518Y-32587710D01*
X34859520Y-32587713D01*
X43521087Y-41249280D01*
X43521089Y-41249281D01*
X43521091Y-41249283D01*
X43612408Y-41302005D01*
X43612406Y-41302005D01*
X43612410Y-41302006D01*
X43612412Y-41302007D01*
X43714273Y-41329300D01*
X43819727Y-41329300D01*
X51646899Y-41329300D01*
X51705090Y-41348207D01*
X51716903Y-41358296D01*
X61314103Y-50955496D01*
X61341880Y-51010013D01*
X61332309Y-51070445D01*
X61289044Y-51113710D01*
X61244099Y-51124500D01*
X60927133Y-51124500D01*
X60927129Y-51124500D01*
X60927128Y-51124501D01*
X60919949Y-51125272D01*
X60867519Y-51130908D01*
X60867514Y-51130909D01*
X60732670Y-51181202D01*
X60617458Y-51267450D01*
X60617450Y-51267458D01*
X60531202Y-51382670D01*
X60480910Y-51517511D01*
X60480908Y-51517522D01*
X60480655Y-51519876D01*
X60474901Y-51573402D01*
X60474500Y-51577129D01*
X60474500Y-52222866D01*
X60474501Y-52222870D01*
X60480908Y-52282480D01*
X60480909Y-52282485D01*
X60531202Y-52417329D01*
X60617450Y-52532541D01*
X60617454Y-52532546D01*
X60617457Y-52532548D01*
X60617458Y-52532549D01*
X60732670Y-52618797D01*
X60867511Y-52669089D01*
X60867512Y-52669089D01*
X60867517Y-52669091D01*
X60927127Y-52675500D01*
X61343099Y-52675499D01*
X61401290Y-52694406D01*
X61413102Y-52704495D01*
X61675818Y-52967210D01*
X61675820Y-52967213D01*
X61750387Y-53041780D01*
X61797184Y-53068798D01*
X61841713Y-53094507D01*
X61943570Y-53121800D01*
X61943572Y-53121801D01*
X61943573Y-53121801D01*
X62055090Y-53121801D01*
X62055106Y-53121800D01*
X63331425Y-53121800D01*
X63331427Y-53121800D01*
X63433288Y-53094507D01*
X63433290Y-53094505D01*
X63433292Y-53094505D01*
X63524608Y-53041783D01*
X63524608Y-53041782D01*
X63524613Y-53041780D01*
X65136898Y-51429493D01*
X65191413Y-51401718D01*
X65206887Y-51400499D01*
X66794864Y-51400499D01*
X66819991Y-51397585D01*
X66922765Y-51352206D01*
X66922771Y-51352199D01*
X66929682Y-51347466D01*
X66988373Y-51330175D01*
X67046019Y-51350684D01*
X67055639Y-51359133D01*
X67424486Y-51727979D01*
X67424491Y-51727983D01*
X67515808Y-51780705D01*
X67515806Y-51780705D01*
X67515810Y-51780706D01*
X67515812Y-51780707D01*
X67617673Y-51808000D01*
X67617675Y-51808000D01*
X79622325Y-51808000D01*
X79622327Y-51808000D01*
X79724188Y-51780707D01*
X79724190Y-51780705D01*
X79724192Y-51780705D01*
X79815508Y-51727983D01*
X79815508Y-51727982D01*
X79815513Y-51727980D01*
X80089280Y-51454213D01*
X80120291Y-51400500D01*
X80138267Y-51369363D01*
X80183734Y-51328426D01*
X80244584Y-51322030D01*
X80282192Y-51338774D01*
X80283069Y-51339411D01*
X80283072Y-51339414D01*
X80423212Y-51441232D01*
X80577555Y-51519873D01*
X80577557Y-51519873D01*
X80577558Y-51519874D01*
X80577561Y-51519876D01*
X80742293Y-51573401D01*
X80742297Y-51573402D01*
X80913386Y-51600500D01*
X80913389Y-51600500D01*
X81086614Y-51600500D01*
X81257702Y-51573402D01*
X81257706Y-51573401D01*
X81422438Y-51519876D01*
X81422440Y-51519874D01*
X81422445Y-51519873D01*
X81576788Y-51441232D01*
X81716928Y-51339414D01*
X81839414Y-51216928D01*
X81941232Y-51076788D01*
X82019873Y-50922445D01*
X82019874Y-50922440D01*
X82019876Y-50922438D01*
X82073401Y-50757706D01*
X82073402Y-50757702D01*
X82100500Y-50586614D01*
X82100500Y-50413385D01*
X82073402Y-50242297D01*
X82073401Y-50242293D01*
X82019876Y-50077561D01*
X82019874Y-50077558D01*
X82019873Y-50077557D01*
X82019873Y-50077555D01*
X81941232Y-49923212D01*
X81839414Y-49783072D01*
X81716928Y-49660586D01*
X81576788Y-49558768D01*
X81576787Y-49558767D01*
X81576785Y-49558766D01*
X81422441Y-49480125D01*
X81422438Y-49480123D01*
X81257706Y-49426598D01*
X81257702Y-49426597D01*
X81086614Y-49399500D01*
X81086611Y-49399500D01*
X80913389Y-49399500D01*
X80913386Y-49399500D01*
X80742297Y-49426597D01*
X80742293Y-49426598D01*
X80577561Y-49480123D01*
X80577558Y-49480125D01*
X80423213Y-49558767D01*
X80326491Y-49629040D01*
X80268300Y-49647947D01*
X80210109Y-49629040D01*
X80174145Y-49579539D01*
X80169300Y-49548947D01*
X80169300Y-33081214D01*
X80169301Y-33081201D01*
X80169301Y-32967772D01*
X80169300Y-32967770D01*
X80157942Y-32925384D01*
X80142007Y-32865913D01*
X80119878Y-32827585D01*
X80119878Y-32827584D01*
X80089280Y-32774587D01*
X80014713Y-32700019D01*
X80014713Y-32700020D01*
X79971023Y-32656330D01*
X79943246Y-32601813D01*
X79952817Y-32541381D01*
X79996082Y-32498116D01*
X80056514Y-32488545D01*
X80075623Y-32493567D01*
X80077886Y-32494412D01*
X80134515Y-32500500D01*
X80575484Y-32500499D01*
X80632114Y-32494412D01*
X80760226Y-32446628D01*
X80869687Y-32364687D01*
X80951628Y-32255226D01*
X80999412Y-32127114D01*
X81005500Y-32070485D01*
X81005499Y-31279518D01*
X81904500Y-31279518D01*
X81904500Y-32070478D01*
X81904501Y-32070484D01*
X81910587Y-32127111D01*
X81910587Y-32127112D01*
X81910588Y-32127114D01*
X81958372Y-32255226D01*
X82040313Y-32364687D01*
X82105500Y-32413485D01*
X82140938Y-32440014D01*
X82149774Y-32446628D01*
X82277886Y-32494412D01*
X82334515Y-32500500D01*
X82775484Y-32500499D01*
X82832114Y-32494412D01*
X82960226Y-32446628D01*
X83069687Y-32364687D01*
X83151628Y-32255226D01*
X83199412Y-32127114D01*
X83205500Y-32070485D01*
X83205499Y-31279516D01*
X83199412Y-31222886D01*
X83151628Y-31094774D01*
X83069687Y-30985313D01*
X83004499Y-30936514D01*
X82960228Y-30903373D01*
X82960226Y-30903372D01*
X82832114Y-30855588D01*
X82832113Y-30855587D01*
X82793895Y-30851479D01*
X82775485Y-30849500D01*
X82775481Y-30849500D01*
X82334521Y-30849500D01*
X82334515Y-30849501D01*
X82277888Y-30855587D01*
X82277886Y-30855588D01*
X82149774Y-30903372D01*
X82149773Y-30903372D01*
X82149772Y-30903373D01*
X82040315Y-30985311D01*
X82040311Y-30985315D01*
X81958373Y-31094771D01*
X81910587Y-31222887D01*
X81904500Y-31279518D01*
X81005499Y-31279518D01*
X81005499Y-31279516D01*
X80999412Y-31222886D01*
X80951628Y-31094774D01*
X80869687Y-30985313D01*
X80804499Y-30936514D01*
X80760228Y-30903373D01*
X80760226Y-30903372D01*
X80632114Y-30855588D01*
X80632113Y-30855587D01*
X80593895Y-30851479D01*
X80575485Y-30849500D01*
X80575481Y-30849500D01*
X80429269Y-30849500D01*
X80371078Y-30830593D01*
X80335114Y-30781093D01*
X80335114Y-30719907D01*
X80349614Y-30691712D01*
X80407793Y-30612882D01*
X80452646Y-30484699D01*
X80455499Y-30454273D01*
X80455500Y-30454273D01*
X80455500Y-30045727D01*
X80455499Y-30045725D01*
X80454481Y-30034869D01*
X80452646Y-30015301D01*
X80407793Y-29887118D01*
X80407792Y-29887116D01*
X80407792Y-29887115D01*
X80382579Y-29852954D01*
X80363236Y-29794907D01*
X80381707Y-29736576D01*
X80392223Y-29724167D01*
X80610901Y-29505489D01*
X80665416Y-29477714D01*
X80725848Y-29487285D01*
X80769113Y-29530550D01*
X80778264Y-29561816D01*
X80778551Y-29561760D01*
X80779193Y-29564989D01*
X80779426Y-29565784D01*
X80779499Y-29566526D01*
X80805460Y-29697037D01*
X80856378Y-29819966D01*
X80923523Y-29920457D01*
X80930305Y-29930606D01*
X81024394Y-30024695D01*
X81135031Y-30098620D01*
X81257964Y-30149540D01*
X81388469Y-30175500D01*
X81388470Y-30175500D01*
X81521530Y-30175500D01*
X81521531Y-30175500D01*
X81652036Y-30149540D01*
X81774969Y-30098620D01*
X81885606Y-30024695D01*
X81979695Y-29930606D01*
X82053620Y-29819969D01*
X82104540Y-29697036D01*
X82130500Y-29566531D01*
X82130500Y-29433469D01*
X82104540Y-29302964D01*
X82053620Y-29180031D01*
X81979695Y-29069394D01*
X81885606Y-28975305D01*
X81829158Y-28937588D01*
X81774966Y-28901378D01*
X81652037Y-28850460D01*
X81521531Y-28824500D01*
X81388469Y-28824500D01*
X81388468Y-28824500D01*
X81257962Y-28850460D01*
X81135032Y-28901378D01*
X81074001Y-28942158D01*
X81015112Y-28958766D01*
X80957709Y-28937588D01*
X80923717Y-28886714D01*
X80920000Y-28859842D01*
X80920000Y-27140157D01*
X80938907Y-27081966D01*
X80988407Y-27046002D01*
X81049593Y-27046002D01*
X81073999Y-27057840D01*
X81135031Y-27098620D01*
X81257964Y-27149540D01*
X81388469Y-27175500D01*
X81388470Y-27175500D01*
X81521530Y-27175500D01*
X81521531Y-27175500D01*
X81652036Y-27149540D01*
X81774969Y-27098620D01*
X81885606Y-27024695D01*
X81979695Y-26930606D01*
X82053620Y-26819969D01*
X82104540Y-26697036D01*
X82130500Y-26566531D01*
X82130500Y-26433469D01*
X82104540Y-26302964D01*
X82053620Y-26180031D01*
X81979695Y-26069394D01*
X81885606Y-25975305D01*
X81800598Y-25918505D01*
X81774966Y-25901378D01*
X81652037Y-25850460D01*
X81521531Y-25824500D01*
X81494665Y-25824500D01*
X81436474Y-25805593D01*
X81400510Y-25756093D01*
X81399732Y-25697416D01*
X81403060Y-25686163D01*
X81406107Y-25680887D01*
X81420037Y-25628899D01*
X81433401Y-25579027D01*
X81433401Y-25473573D01*
X81433401Y-25467511D01*
X81433400Y-25467493D01*
X81433400Y-23929518D01*
X81904500Y-23929518D01*
X81904500Y-24720478D01*
X81904501Y-24720484D01*
X81910587Y-24777111D01*
X81910587Y-24777112D01*
X81910588Y-24777114D01*
X81958372Y-24905226D01*
X82040313Y-25014687D01*
X82149774Y-25096628D01*
X82277886Y-25144412D01*
X82334515Y-25150500D01*
X82775484Y-25150499D01*
X82832114Y-25144412D01*
X82960226Y-25096628D01*
X83069687Y-25014687D01*
X83151628Y-24905226D01*
X83199412Y-24777114D01*
X83205500Y-24720485D01*
X83205499Y-23929516D01*
X83199412Y-23872886D01*
X83151628Y-23744774D01*
X83069687Y-23635313D01*
X83033476Y-23608206D01*
X82960228Y-23553373D01*
X82960226Y-23553372D01*
X82832114Y-23505588D01*
X82832113Y-23505587D01*
X82793895Y-23501479D01*
X82775485Y-23499500D01*
X82775481Y-23499500D01*
X82334521Y-23499500D01*
X82334515Y-23499501D01*
X82277888Y-23505587D01*
X82277886Y-23505588D01*
X82149774Y-23553372D01*
X82149773Y-23553372D01*
X82149772Y-23553373D01*
X82040315Y-23635311D01*
X82040311Y-23635315D01*
X81958373Y-23744771D01*
X81910587Y-23872887D01*
X81904500Y-23929518D01*
X81433400Y-23929518D01*
X81433400Y-6430174D01*
X81433400Y-6430173D01*
X81430571Y-6419616D01*
X81406107Y-6328312D01*
X81388544Y-6297892D01*
X81353383Y-6236991D01*
X81353382Y-6236990D01*
X81353381Y-6236989D01*
X81353380Y-6236987D01*
X79879496Y-4763103D01*
X79851719Y-4708586D01*
X79850500Y-4693099D01*
X79850500Y-3981899D01*
X79850499Y-3981893D01*
X79839877Y-3893436D01*
X79802993Y-3799904D01*
X79784362Y-3752660D01*
X79784361Y-3752659D01*
X79784361Y-3752658D01*
X79692922Y-3632078D01*
X79572342Y-3540639D01*
X79572341Y-3540638D01*
X79572339Y-3540637D01*
X79431565Y-3485123D01*
X79343106Y-3474500D01*
X79343102Y-3474500D01*
X78756898Y-3474500D01*
X78756893Y-3474500D01*
X78687664Y-3482813D01*
X78668436Y-3485123D01*
X78668435Y-3485123D01*
X78662134Y-3485880D01*
X78661949Y-3484345D01*
X78608460Y-3480769D01*
X78575263Y-3458869D01*
X78260913Y-3144520D01*
X78260908Y-3144516D01*
X78169591Y-3091794D01*
X78169593Y-3091794D01*
X78130070Y-3081204D01*
X78067727Y-3064500D01*
X72681873Y-3064500D01*
X72619531Y-3081204D01*
X72580008Y-3091794D01*
X72493423Y-3141784D01*
X72493424Y-3141785D01*
X72488691Y-3144517D01*
X72488683Y-3144523D01*
X72368102Y-3265104D01*
X72313586Y-3292881D01*
X72298099Y-3294100D01*
X66948206Y-3294100D01*
X66948190Y-3294099D01*
X66942127Y-3294099D01*
X66836673Y-3294099D01*
X66747875Y-3317893D01*
X66747874Y-3317892D01*
X66734810Y-3321393D01*
X66734809Y-3321394D01*
X66643487Y-3374119D01*
X66568919Y-3448686D01*
X66568920Y-3448687D01*
X66568918Y-3448689D01*
X66568917Y-3448689D01*
X66322101Y-3695504D01*
X66267585Y-3723281D01*
X66252098Y-3724500D01*
X65836133Y-3724500D01*
X65836129Y-3724500D01*
X65836128Y-3724501D01*
X65828949Y-3725272D01*
X65776519Y-3730908D01*
X65776514Y-3730909D01*
X65641670Y-3781202D01*
X65526458Y-3867450D01*
X65526450Y-3867458D01*
X65440204Y-3982667D01*
X65440009Y-3983191D01*
X65420649Y-4035098D01*
X65382600Y-4083011D01*
X65327892Y-4099500D01*
X62460101Y-4099500D01*
X62401910Y-4080593D01*
X62365946Y-4031093D01*
X62361101Y-4000500D01*
X62361101Y-3953675D01*
X62361101Y-3953673D01*
X62333807Y-3851813D01*
X62326517Y-3839187D01*
X62281080Y-3760487D01*
X62243874Y-3723281D01*
X62206513Y-3685919D01*
X62206513Y-3685920D01*
X62206511Y-3685918D01*
X62206511Y-3685917D01*
X61910413Y-3389820D01*
X61910408Y-3389816D01*
X61819091Y-3337094D01*
X61819093Y-3337094D01*
X61760497Y-3321394D01*
X61717227Y-3309800D01*
X60275973Y-3309800D01*
X60232707Y-3321393D01*
X60174111Y-3337093D01*
X60091157Y-3384987D01*
X60082787Y-3389819D01*
X59777101Y-3695504D01*
X59722585Y-3723281D01*
X59707098Y-3724500D01*
X59291133Y-3724500D01*
X59291129Y-3724500D01*
X59291128Y-3724501D01*
X59283949Y-3725272D01*
X59231519Y-3730908D01*
X59231514Y-3730909D01*
X59096670Y-3781202D01*
X58981458Y-3867450D01*
X58981450Y-3867458D01*
X58895202Y-3982670D01*
X58844910Y-4117511D01*
X58844908Y-4117522D01*
X58840760Y-4156109D01*
X58838500Y-4177127D01*
X58838500Y-4499492D01*
X58838501Y-4778000D01*
X58819594Y-4836191D01*
X58770094Y-4872155D01*
X58739501Y-4877000D01*
X58084301Y-4877000D01*
X58026110Y-4858093D01*
X58014297Y-4848004D01*
X57050700Y-3884407D01*
X56080513Y-2914220D01*
X56080510Y-2914218D01*
X56080509Y-2914217D01*
X56080508Y-2914216D01*
X55989191Y-2861494D01*
X55989193Y-2861494D01*
X55949670Y-2850904D01*
X55887327Y-2834200D01*
X55887325Y-2834200D01*
X53421146Y-2834200D01*
X53393354Y-2828671D01*
X53393051Y-2829803D01*
X53386786Y-2828124D01*
X53386784Y-2828123D01*
X53234057Y-2787200D01*
X53075943Y-2787200D01*
X52923216Y-2828123D01*
X52786284Y-2907180D01*
X52674480Y-3018984D01*
X52595423Y-3155916D01*
X52558724Y-3292881D01*
X52554244Y-3309599D01*
X52520920Y-3360914D01*
X52463798Y-3382840D01*
X52409117Y-3369713D01*
X52365089Y-3344293D01*
X52331134Y-3335195D01*
X52263227Y-3317000D01*
X47283227Y-3317000D01*
X47177773Y-3317000D01*
X47115429Y-3333704D01*
X47075907Y-3344294D01*
X46984591Y-3397016D01*
X46984586Y-3397020D01*
X46686102Y-3695504D01*
X46631586Y-3723281D01*
X46616099Y-3724500D01*
X46279901Y-3724500D01*
X46221710Y-3705593D01*
X46209897Y-3695504D01*
X45823036Y-3308643D01*
X45424313Y-2909920D01*
X45424310Y-2909918D01*
X45424309Y-2909917D01*
X45424308Y-2909916D01*
X45332991Y-2857194D01*
X45332993Y-2857194D01*
X45293470Y-2846604D01*
X45231127Y-2829900D01*
X25262127Y-2829900D01*
X25156673Y-2829900D01*
X25094329Y-2846604D01*
X25054807Y-2857194D01*
X24963491Y-2909916D01*
X24963486Y-2909920D01*
X24588102Y-3285304D01*
X24533586Y-3313081D01*
X24518099Y-3314300D01*
X13299706Y-3314300D01*
X13299690Y-3314299D01*
X13293627Y-3314299D01*
X13188173Y-3314299D01*
X13188170Y-3314299D01*
X13086313Y-3341592D01*
X13086309Y-3341594D01*
X12994987Y-3394319D01*
X12920419Y-3468886D01*
X12920420Y-3468887D01*
X12920418Y-3468889D01*
X11668903Y-4720403D01*
X11614386Y-4748180D01*
X11553954Y-4738609D01*
X11528898Y-4720405D01*
X9755313Y-2946820D01*
X9755310Y-2946818D01*
X9755308Y-2946816D01*
X9663991Y-2894094D01*
X9663993Y-2894094D01*
X9624470Y-2883504D01*
X9562127Y-2866800D01*
X9562125Y-2866800D01*
X7220506Y-2866800D01*
X7220490Y-2866799D01*
X7214427Y-2866799D01*
X7108973Y-2866799D01*
X7108970Y-2866799D01*
X7007113Y-2894092D01*
X7007109Y-2894094D01*
X6915787Y-2946819D01*
X6841219Y-3021386D01*
X6841220Y-3021387D01*
X5879416Y-3983191D01*
X5826695Y-4074506D01*
X5826693Y-4074510D01*
X5826693Y-4074512D01*
X5819730Y-4100500D01*
X5809148Y-4139993D01*
X5799400Y-4176373D01*
X5799400Y-5567223D01*
X5780493Y-5625414D01*
X5730993Y-5661378D01*
X5674779Y-5662850D01*
X5647348Y-5655500D01*
X5647346Y-5655500D01*
X5492654Y-5655500D01*
X5401204Y-5680003D01*
X5343228Y-5695538D01*
X5209270Y-5772879D01*
X5099879Y-5882270D01*
X5020736Y-6019350D01*
X4975267Y-6060291D01*
X4914416Y-6066687D01*
X4861428Y-6036094D01*
X4849264Y-6019350D01*
X4770120Y-5882270D01*
X4770118Y-5882268D01*
X4770117Y-5882266D01*
X4660734Y-5772883D01*
X4660731Y-5772881D01*
X4660729Y-5772879D01*
X4526770Y-5695538D01*
X4526772Y-5695538D01*
X4468795Y-5680003D01*
X4377346Y-5655500D01*
X4222654Y-5655500D01*
X4131204Y-5680003D01*
X4073228Y-5695538D01*
X3939270Y-5772879D01*
X3829879Y-5882270D01*
X3752538Y-6016228D01*
X3734942Y-6081897D01*
X3712500Y-6165654D01*
X3712500Y-7634346D01*
X3744303Y-7753037D01*
X3752538Y-7783771D01*
X3829879Y-7917729D01*
X3829881Y-7917731D01*
X3829883Y-7917734D01*
X3939266Y-8027117D01*
X3939268Y-8027118D01*
X3939270Y-8027120D01*
X4073229Y-8104461D01*
X4073227Y-8104461D01*
X4073231Y-8104462D01*
X4073233Y-8104463D01*
X4222654Y-8144500D01*
X4222656Y-8144500D01*
X4377344Y-8144500D01*
X4377346Y-8144500D01*
X4526767Y-8104463D01*
X4526769Y-8104461D01*
X4526771Y-8104461D01*
X4660729Y-8027120D01*
X4660729Y-8027119D01*
X4660734Y-8027117D01*
X4770117Y-7917734D01*
X4780601Y-7899576D01*
X4849264Y-7780649D01*
X4856745Y-7773912D01*
X4860745Y-7764673D01*
X4878985Y-7753887D01*
X4894733Y-7739708D01*
X4904745Y-7738655D01*
X4913412Y-7733531D01*
X4934507Y-7735527D01*
X4955583Y-7733312D01*
X4964303Y-7738346D01*
X4974325Y-7739295D01*
X4989747Y-7753037D01*
X5008571Y-7763905D01*
X5020218Y-7779761D01*
X5022495Y-7783613D01*
X5022537Y-7783767D01*
X5099883Y-7917734D01*
X5104571Y-7922422D01*
X5110938Y-7933190D01*
X5115014Y-7951434D01*
X5123501Y-7968091D01*
X5121524Y-7980570D01*
X5124280Y-7992903D01*
X5116854Y-8010058D01*
X5113930Y-8028523D01*
X5101391Y-8045780D01*
X5099975Y-8049054D01*
X5098289Y-8050050D01*
X5095724Y-8053582D01*
X4454067Y-8695238D01*
X4399550Y-8723015D01*
X4358440Y-8720861D01*
X4302965Y-8705997D01*
X4223857Y-8684800D01*
X4065743Y-8684800D01*
X3913016Y-8725723D01*
X3776084Y-8804780D01*
X3664280Y-8916584D01*
X3585223Y-9053516D01*
X3544300Y-9206243D01*
X3544300Y-9364357D01*
X3547173Y-9375078D01*
X3574782Y-9478120D01*
X3571579Y-9539221D01*
X3549159Y-9573745D01*
X2984820Y-10138086D01*
X2984816Y-10138091D01*
X2932095Y-10229406D01*
X2932091Y-10229415D01*
X2917389Y-10284290D01*
X2917389Y-10284291D01*
X2904800Y-10331273D01*
X2904800Y-13086099D01*
X2885893Y-13144290D01*
X2883411Y-13147196D01*
X2883469Y-13147241D01*
X2879516Y-13152391D01*
X2826795Y-13243706D01*
X2826791Y-13243715D01*
X2813151Y-13294626D01*
X2813150Y-13294629D01*
X2804710Y-13326125D01*
X2771385Y-13377439D01*
X2714263Y-13399364D01*
X2709085Y-13399500D01*
X2555138Y-13399500D01*
X2555135Y-13399501D01*
X2530009Y-13402414D01*
X2427235Y-13447794D01*
X2347794Y-13527235D01*
X2302414Y-13630011D01*
X2299500Y-13655130D01*
X2299500Y-13655132D01*
X2299501Y-14651000D01*
X2280594Y-14709191D01*
X2231094Y-14745155D01*
X2200501Y-14750000D01*
X2000000Y-14750000D01*
X2000000Y-14750001D01*
X2000000Y-15301000D01*
X1993633Y-15320595D01*
X1991519Y-15341092D01*
X1984391Y-15349038D01*
X1981093Y-15359191D01*
X1964423Y-15371302D01*
X1950666Y-15386641D01*
X1927630Y-15400000D01*
X1900000Y-15400000D01*
X600000Y-15400000D01*
X600000Y-2913385D01*
X2399500Y-2913385D01*
X2399500Y-3086614D01*
X2426597Y-3257702D01*
X2426598Y-3257706D01*
X2480123Y-3422438D01*
X2480125Y-3422441D01*
X2540349Y-3540640D01*
X2558768Y-3576788D01*
X2660586Y-3716928D01*
X2783072Y-3839414D01*
X2923212Y-3941232D01*
X3077555Y-4019873D01*
X3077557Y-4019873D01*
X3077558Y-4019874D01*
X3077561Y-4019876D01*
X3242293Y-4073401D01*
X3242297Y-4073402D01*
X3413386Y-4100500D01*
X3413389Y-4100500D01*
X3586614Y-4100500D01*
X3757702Y-4073402D01*
X3757706Y-4073401D01*
X3922438Y-4019876D01*
X3922440Y-4019874D01*
X3922445Y-4019873D01*
X4076788Y-3941232D01*
X4216928Y-3839414D01*
X4339414Y-3716928D01*
X4441232Y-3576788D01*
X4519873Y-3422445D01*
X4519874Y-3422440D01*
X4519876Y-3422438D01*
X4573401Y-3257706D01*
X4573402Y-3257702D01*
X4600500Y-3086614D01*
X4600500Y-2913385D01*
X4573402Y-2742297D01*
X4573401Y-2742293D01*
X4519876Y-2577561D01*
X4519874Y-2577558D01*
X4519873Y-2577557D01*
X4519873Y-2577555D01*
X4441232Y-2423212D01*
X4339414Y-2283072D01*
X4216928Y-2160586D01*
X4076788Y-2058768D01*
X4076787Y-2058767D01*
X4076785Y-2058766D01*
X3922441Y-1980125D01*
X3922438Y-1980123D01*
X3757706Y-1926598D01*
X3757702Y-1926597D01*
X3586614Y-1899500D01*
X3586611Y-1899500D01*
X3413389Y-1899500D01*
X3413386Y-1899500D01*
X3242297Y-1926597D01*
X3242293Y-1926598D01*
X3077561Y-1980123D01*
X3077558Y-1980125D01*
X2923214Y-2058766D01*
X2783073Y-2160585D01*
X2660585Y-2283073D01*
X2558766Y-2423214D01*
X2480125Y-2577558D01*
X2480123Y-2577561D01*
X2426598Y-2742293D01*
X2426597Y-2742297D01*
X2399500Y-2913385D01*
X600000Y-2913385D01*
X600000Y-2485546D01*
X603869Y-2458139D01*
X613931Y-2423214D01*
X649328Y-2300347D01*
X652988Y-2289888D01*
X763729Y-2022535D01*
X768544Y-2012540D01*
X786458Y-1980127D01*
X908515Y-1759280D01*
X914412Y-1749895D01*
X1081872Y-1513882D01*
X1088776Y-1505224D01*
X1281617Y-1289435D01*
X1289435Y-1281617D01*
X1505224Y-1088776D01*
X1513882Y-1081872D01*
X1749895Y-914412D01*
X1759280Y-908515D01*
X2012546Y-768541D01*
X2022535Y-763729D01*
X2289888Y-652988D01*
X2300353Y-649326D01*
X2388687Y-623877D01*
X2458141Y-603869D01*
X2485547Y-600000D01*
X83114453Y-600000D01*
X83141859Y-603868D01*
G37*
%TD.AperFunction*%
%TD*%
M02*
