%TF.GenerationSoftware,KiCad,Pcbnew,10.0.3*%
%TF.CreationDate,2026-07-31T15:20:20-04:00*%
%TF.ProjectId,NeuralCard,4e657572-616c-4436-9172-642e6b696361,rev?*%
%TF.SameCoordinates,Original*%
%TF.FileFunction,Paste,Bot*%
%TF.FilePolarity,Positive*%
%FSLAX46Y46*%
G04 Gerber Fmt 4.6, Leading zero omitted, Abs format (unit mm)*
G04 Created by KiCad (PCBNEW 10.0.3) date 2026-07-31 15:20:20*
%MOMM*%
%LPD*%
G01*
G04 APERTURE LIST*
G04 Aperture macros list*
%AMRoundRect*
0 Rectangle with rounded corners*
0 $1 Rounding radius*
0 $2 $3 $4 $5 $6 $7 $8 $9 X,Y pos of 4 corners*
0 Add a 4 corners polygon primitive as box body*
4,1,4,$2,$3,$4,$5,$6,$7,$8,$9,$2,$3,0*
0 Add four circle primitives for the rounded corners*
1,1,$1+$1,$2,$3*
1,1,$1+$1,$4,$5*
1,1,$1+$1,$6,$7*
1,1,$1+$1,$8,$9*
0 Add four rect primitives between the rounded corners*
20,1,$1+$1,$2,$3,$4,$5,0*
20,1,$1+$1,$4,$5,$6,$7,0*
20,1,$1+$1,$6,$7,$8,$9,0*
20,1,$1+$1,$8,$9,$2,$3,0*%
G04 Aperture macros list end*
%ADD10R,0.675000X0.280000*%
%ADD11R,0.280000X0.675000*%
%ADD12RoundRect,0.200000X-0.200000X-0.275000X0.200000X-0.275000X0.200000X0.275000X-0.200000X0.275000X0*%
%ADD13RoundRect,0.225000X-0.225000X-0.250000X0.225000X-0.250000X0.225000X0.250000X-0.225000X0.250000X0*%
%ADD14R,1.000000X0.750000*%
%ADD15RoundRect,0.250000X-0.250000X-0.475000X0.250000X-0.475000X0.250000X0.475000X-0.250000X0.475000X0*%
%ADD16RoundRect,0.150000X-0.500000X0.150000X-0.500000X-0.150000X0.500000X-0.150000X0.500000X0.150000X0*%
%ADD17RoundRect,0.175000X-0.175000X0.350000X-0.175000X-0.350000X0.175000X-0.350000X0.175000X0.350000X0*%
%ADD18R,4.200000X3.800000*%
%ADD19O,0.574000X1.888000*%
%ADD20R,1.500000X0.900000*%
%ADD21R,0.900000X1.500000*%
%ADD22R,0.900000X0.900000*%
%ADD23RoundRect,0.225000X0.250000X-0.225000X0.250000X0.225000X-0.250000X0.225000X-0.250000X-0.225000X0*%
G04 APERTURE END LIST*
D10*
%TO.C,U2*%
X80896200Y-46693400D03*
X80896200Y-46193400D03*
X80896200Y-45693400D03*
X80896200Y-45193400D03*
D11*
X81656200Y-44933400D03*
X82156200Y-44933400D03*
X82656200Y-44933400D03*
D10*
X83416200Y-45193400D03*
X83416200Y-45693400D03*
X83416200Y-46193400D03*
X83416200Y-46693400D03*
D11*
X82656200Y-46953400D03*
X82156200Y-46953400D03*
X81656200Y-46953400D03*
%TD*%
D12*
%TO.C,R10*%
X113649200Y-40943400D03*
X115299200Y-40943400D03*
%TD*%
D13*
%TO.C,C2*%
X139881200Y-40943400D03*
X141431200Y-40943400D03*
%TD*%
D14*
%TO.C,SW2*%
X81656200Y-85593400D03*
X87656200Y-85593400D03*
X81656200Y-81893400D03*
X87656200Y-81893400D03*
%TD*%
D12*
%TO.C,R3*%
X80922200Y-40943400D03*
X82572200Y-40943400D03*
%TD*%
D15*
%TO.C,C8*%
X97706200Y-87943400D03*
X99606200Y-87943400D03*
%TD*%
D16*
%TO.C,SW3*%
X140161200Y-62193400D03*
X140161200Y-65193400D03*
X140161200Y-66693400D03*
D17*
X143211200Y-60768400D03*
X141011200Y-60768400D03*
X143211200Y-68118400D03*
X141011200Y-68118400D03*
%TD*%
D15*
%TO.C,C10*%
X117706200Y-87943400D03*
X119606200Y-87943400D03*
%TD*%
D18*
%TO.C,BT1*%
X137046200Y-64443400D03*
X108266200Y-64443400D03*
%TD*%
D15*
%TO.C,C9*%
X107706200Y-87943400D03*
X109606200Y-87943400D03*
%TD*%
D13*
%TO.C,C1*%
X133336200Y-40943400D03*
X134886200Y-40943400D03*
%TD*%
D12*
%TO.C,R6*%
X100558200Y-40943400D03*
X102208200Y-40943400D03*
%TD*%
D19*
%TO.C,U4*%
X64956200Y-43343400D03*
X66226200Y-43343400D03*
X67486200Y-43343400D03*
X68756200Y-43343400D03*
X68756200Y-48743400D03*
X67486200Y-48743400D03*
X66226200Y-48743400D03*
X64956200Y-48743400D03*
%TD*%
D12*
%TO.C,R4*%
X87467200Y-40943400D03*
X89117200Y-40943400D03*
%TD*%
%TO.C,R12*%
X126740200Y-40943400D03*
X128390200Y-40943400D03*
%TD*%
%TO.C,R5*%
X94013200Y-40943400D03*
X95663200Y-40943400D03*
%TD*%
D20*
%TO.C,U1*%
X83906200Y-72333400D03*
X83906200Y-71063400D03*
X83906200Y-69793400D03*
X83906200Y-68523400D03*
X83906200Y-67253400D03*
X83906200Y-65983400D03*
X83906200Y-64713400D03*
X83906200Y-63443400D03*
X83906200Y-62173400D03*
X83906200Y-60903400D03*
X83906200Y-59633400D03*
X83906200Y-58363400D03*
X83906200Y-57093400D03*
X83906200Y-55823400D03*
D21*
X85666200Y-54553400D03*
X86936200Y-54553400D03*
X88206200Y-54553400D03*
X89486200Y-54553400D03*
X90756200Y-54553400D03*
X92026200Y-54553400D03*
X93296200Y-54553400D03*
X94566200Y-54553400D03*
X95836200Y-54553400D03*
X97106200Y-54553400D03*
X98376200Y-54553400D03*
X99646200Y-54583400D03*
D20*
X101406200Y-55823400D03*
X101406200Y-57093400D03*
X101406200Y-58363400D03*
X101406200Y-59633400D03*
X101406200Y-60903400D03*
X101406200Y-62173400D03*
X101406200Y-63443400D03*
X101406200Y-64713400D03*
X101406200Y-65983400D03*
X101406200Y-67253400D03*
X101406200Y-68523400D03*
X101406200Y-69793400D03*
X101406200Y-71063400D03*
X101406200Y-72333400D03*
D22*
X89756200Y-63213400D03*
X89756200Y-64613400D03*
X89756200Y-66013400D03*
X91156200Y-63213400D03*
X91156200Y-64613400D03*
X91156200Y-66013400D03*
X92556200Y-63213400D03*
X92556200Y-64613400D03*
X92556200Y-66013400D03*
%TD*%
D12*
%TO.C,R1*%
X67831200Y-40943400D03*
X69481200Y-40943400D03*
%TD*%
D13*
%TO.C,C12*%
X70781200Y-49843400D03*
X72331200Y-49843400D03*
%TD*%
D12*
%TO.C,R2*%
X74376200Y-40943400D03*
X76026200Y-40943400D03*
%TD*%
%TO.C,R14*%
X121831200Y-88743400D03*
X123481200Y-88743400D03*
%TD*%
D13*
%TO.C,C3*%
X67881200Y-87943400D03*
X69431200Y-87943400D03*
%TD*%
D12*
%TO.C,R9*%
X107104200Y-40943400D03*
X108754200Y-40943400D03*
%TD*%
D13*
%TO.C,C5*%
X87881200Y-87943400D03*
X89431200Y-87943400D03*
%TD*%
D14*
%TO.C,SW1*%
X69656200Y-85593400D03*
X75656200Y-85593400D03*
X69656200Y-81893400D03*
X75656200Y-81893400D03*
%TD*%
D13*
%TO.C,C4*%
X77881200Y-87943400D03*
X79431200Y-87943400D03*
%TD*%
D12*
%TO.C,R11*%
X120195200Y-40943400D03*
X121845200Y-40943400D03*
%TD*%
D23*
%TO.C,C11*%
X71456200Y-45218400D03*
X71456200Y-43668400D03*
%TD*%
M02*
