M48
; DRILL file KiCad 10.0.3 date 2026-08-02T20:19:36
; FORMAT={-:-/ absolute / metric / decimal}
; #@! TF.CreationDate,2026-08-02T20:19:36-04:00
; #@! TF.GenerationSoftware,Kicad,Pcbnew,10.0.3
; #@! TF.FileFunction,MixedPlating,1,2
FMAT,2
METRIC
; #@! TA.AperFunction,Plated,PTH,ViaDrill
T1C0.300
; #@! TA.AperFunction,Plated,PTH,ComponentDrill
T2C0.300
; #@! TA.AperFunction,NonPlated,NPTH,ComponentDrill
T3C0.850
%
G90
G05
T1
X2.6Y-12.0
X4.687Y-10.13
X4.95Y-14.267
X5.979Y-8.644
X7.397Y-8.599
X8.278Y-9.524
X9.731Y-9.249
X10.39Y-11.991
X17.261Y-8.258
X17.601Y-32.303
X17.8Y-9.527
X18.049Y-15.579
X19.141Y-40.005
X19.38Y-43.337
X19.927Y-7.962
X20.091Y-11.869
X20.468Y-12.732
X20.755Y-13.731
X21.193Y-24.465
X21.341Y-9.584
X21.951Y-20.332
X24.0Y-8.0
X24.658Y-21.535
X24.673Y-23.164
X24.884Y-4.372
X25.178Y-20.425
X26.113Y-10.603
X26.977Y-21.581
X27.426Y-27.381
X28.27Y-19.485
X28.601Y-6.431
X29.204Y-16.726
X30.084Y-20.667
X33.07Y-8.05
X33.763Y-29.086
X35.777Y-33.722
X36.884Y-37.836
X36.885Y-10.15
X37.758Y-31.189
X38.937Y-19.498
X39.537Y-38.7
X39.735Y-42.099
X39.818Y-41.223
X39.843Y-44.099
X40.739Y-14.741
X41.636Y-17.066
X42.124Y-28.118
X42.482Y-4.734
X42.837Y-16.223
X42.989Y-17.521
X43.0Y-2.4
X43.0Y-51.6
X43.365Y-11.81
X43.614Y-33.149
X43.659Y-38.683
X44.141Y-26.029
X44.993Y-13.533
X45.104Y-41.152
X45.195Y-33.292
X45.57Y-37.278
X46.02Y-17.747
X46.051Y-38.105
X46.382Y-48.487
X48.0Y-27.0
X48.751Y-36.508
X48.822Y-32.752
X48.903Y-14.04
X52.0Y-40.0
X55.992Y-10.309
X55.992Y-13.118
X56.64Y-5.877
X57.231Y-3.84
X61.557Y-35.165
X62.438Y-31.289
X69.249Y-10.797
X69.373Y-30.403
X83.0Y-12.0
X83.0Y-27.0
X83.0Y-51.0
T2
X8.0Y-14.2
X8.5Y-22.8
T3
X81.455Y-26.5
X81.455Y-29.5
M30
