%TF.GenerationSoftware,KiCad,Pcbnew,10.0.3*%
%TF.CreationDate,2026-07-20T00:49:10-04:00*%
%TF.ProjectId,NeuralCard,4e657572-616c-4436-9172-642e6b696361,rev?*%
%TF.SameCoordinates,Original*%
%TF.FileFunction,Other,User*%
%FSLAX46Y46*%
G04 Gerber Fmt 4.6, Leading zero omitted, Abs format (unit mm)*
G04 Created by KiCad (PCBNEW 10.0.3) date 2026-07-20 00:49:10*
%MOMM*%
%LPD*%
G01*
G04 APERTURE LIST*
%ADD10C,0.050000*%
G04 APERTURE END LIST*
%TO.C,D6*%
D10*
X16200000Y-42600000D02*
X17800000Y-42600000D01*
X16200000Y-43400000D02*
X16200000Y-42600000D01*
X17800000Y-42600000D02*
X17800000Y-43400000D01*
X17800000Y-43400000D02*
X16200000Y-43400000D01*
%TO.C,D16*%
X67800000Y-9489000D02*
X69400000Y-9489000D01*
X67800000Y-10289000D02*
X67800000Y-9489000D01*
X69400000Y-9489000D02*
X69400000Y-10289000D01*
X69400000Y-10289000D02*
X67800000Y-10289000D01*
%TO.C,D23*%
X67800000Y-43711000D02*
X69400000Y-43711000D01*
X67800000Y-44511000D02*
X67800000Y-43711000D01*
X69400000Y-43711000D02*
X69400000Y-44511000D01*
X69400000Y-44511000D02*
X67800000Y-44511000D01*
%TO.C,D11*%
X42000000Y-29457000D02*
X43600000Y-29457000D01*
X42000000Y-30257000D02*
X42000000Y-29457000D01*
X43600000Y-29457000D02*
X43600000Y-30257000D01*
X43600000Y-30257000D02*
X42000000Y-30257000D01*
%TO.C,D14*%
X42000000Y-46600000D02*
X43600000Y-46600000D01*
X42000000Y-47400000D02*
X42000000Y-46600000D01*
X43600000Y-46600000D02*
X43600000Y-47400000D01*
X43600000Y-47400000D02*
X42000000Y-47400000D01*
%TO.C,D9*%
X42000000Y-18029000D02*
X43600000Y-18029000D01*
X42000000Y-18829000D02*
X42000000Y-18029000D01*
X43600000Y-18029000D02*
X43600000Y-18829000D01*
X43600000Y-18829000D02*
X42000000Y-18829000D01*
%TO.C,D10*%
X42000000Y-23743000D02*
X43600000Y-23743000D01*
X42000000Y-24543000D02*
X42000000Y-23743000D01*
X43600000Y-23743000D02*
X43600000Y-24543000D01*
X43600000Y-24543000D02*
X42000000Y-24543000D01*
%TO.C,D8*%
X42000000Y-12314000D02*
X43600000Y-12314000D01*
X42000000Y-13114000D02*
X42000000Y-12314000D01*
X43600000Y-12314000D02*
X43600000Y-13114000D01*
X43600000Y-13114000D02*
X42000000Y-13114000D01*
%TO.C,D18*%
X67800000Y-19267000D02*
X69400000Y-19267000D01*
X67800000Y-20067000D02*
X67800000Y-19267000D01*
X69400000Y-19267000D02*
X69400000Y-20067000D01*
X69400000Y-20067000D02*
X67800000Y-20067000D01*
%TO.C,D1*%
X16200000Y-10600000D02*
X17800000Y-10600000D01*
X16200000Y-11400000D02*
X16200000Y-10600000D01*
X17800000Y-10600000D02*
X17800000Y-11400000D01*
X17800000Y-11400000D02*
X16200000Y-11400000D01*
%TO.C,D7*%
X42000000Y-6600000D02*
X43600000Y-6600000D01*
X42000000Y-7400000D02*
X42000000Y-6600000D01*
X43600000Y-6600000D02*
X43600000Y-7400000D01*
X43600000Y-7400000D02*
X42000000Y-7400000D01*
%TO.C,D12*%
X42000000Y-35171000D02*
X43600000Y-35171000D01*
X42000000Y-35971000D02*
X42000000Y-35171000D01*
X43600000Y-35171000D02*
X43600000Y-35971000D01*
X43600000Y-35971000D02*
X42000000Y-35971000D01*
%TO.C,D5*%
X16200000Y-36200000D02*
X17800000Y-36200000D01*
X16200000Y-37000000D02*
X16200000Y-36200000D01*
X17800000Y-36200000D02*
X17800000Y-37000000D01*
X17800000Y-37000000D02*
X16200000Y-37000000D01*
%TO.C,D24*%
X67800000Y-48600000D02*
X69400000Y-48600000D01*
X67800000Y-49400000D02*
X67800000Y-48600000D01*
X69400000Y-48600000D02*
X69400000Y-49400000D01*
X69400000Y-49400000D02*
X67800000Y-49400000D01*
%TO.C,D2*%
X16200000Y-17000000D02*
X17800000Y-17000000D01*
X16200000Y-17800000D02*
X16200000Y-17000000D01*
X17800000Y-17000000D02*
X17800000Y-17800000D01*
X17800000Y-17800000D02*
X16200000Y-17800000D01*
%TO.C,D17*%
X67800000Y-14378000D02*
X69400000Y-14378000D01*
X67800000Y-15178000D02*
X67800000Y-14378000D01*
X69400000Y-14378000D02*
X69400000Y-15178000D01*
X69400000Y-15178000D02*
X67800000Y-15178000D01*
%TO.C,D13*%
X42000000Y-40886000D02*
X43600000Y-40886000D01*
X42000000Y-41686000D02*
X42000000Y-40886000D01*
X43600000Y-40886000D02*
X43600000Y-41686000D01*
X43600000Y-41686000D02*
X42000000Y-41686000D01*
%TO.C,D22*%
X67800000Y-38822000D02*
X69400000Y-38822000D01*
X67800000Y-39622000D02*
X67800000Y-38822000D01*
X69400000Y-38822000D02*
X69400000Y-39622000D01*
X69400000Y-39622000D02*
X67800000Y-39622000D01*
%TO.C,D20*%
X67800000Y-29044000D02*
X69400000Y-29044000D01*
X67800000Y-29844000D02*
X67800000Y-29044000D01*
X69400000Y-29044000D02*
X69400000Y-29844000D01*
X69400000Y-29844000D02*
X67800000Y-29844000D01*
%TO.C,D15*%
X67800000Y-4600000D02*
X69400000Y-4600000D01*
X67800000Y-5400000D02*
X67800000Y-4600000D01*
X69400000Y-4600000D02*
X69400000Y-5400000D01*
X69400000Y-5400000D02*
X67800000Y-5400000D01*
%TO.C,D21*%
X67800000Y-33933000D02*
X69400000Y-33933000D01*
X67800000Y-34733000D02*
X67800000Y-33933000D01*
X69400000Y-33933000D02*
X69400000Y-34733000D01*
X69400000Y-34733000D02*
X67800000Y-34733000D01*
%TO.C,D19*%
X67800000Y-24156000D02*
X69400000Y-24156000D01*
X67800000Y-24956000D02*
X67800000Y-24156000D01*
X69400000Y-24156000D02*
X69400000Y-24956000D01*
X69400000Y-24956000D02*
X67800000Y-24956000D01*
%TO.C,D3*%
X16200000Y-23400000D02*
X17800000Y-23400000D01*
X16200000Y-24200000D02*
X16200000Y-23400000D01*
X17800000Y-23400000D02*
X17800000Y-24200000D01*
X17800000Y-24200000D02*
X16200000Y-24200000D01*
%TO.C,D4*%
X16200000Y-29800000D02*
X17800000Y-29800000D01*
X16200000Y-30600000D02*
X16200000Y-29800000D01*
X17800000Y-29800000D02*
X17800000Y-30600000D01*
X17800000Y-30600000D02*
X16200000Y-30600000D01*
%TD*%
M02*
