%TF.GenerationSoftware,KiCad,Pcbnew,10.0.3*%
%TF.CreationDate,2026-09-16T00:48:09-04:00*%
%TF.ProjectId,NeuralCard,4e657572-616c-4436-9172-642e6b696361,v3.0.0-dev*%
%TF.SameCoordinates,Original*%
%TF.FileFunction,Copper,L2,Bot*%
%TF.FilePolarity,Positive*%
%FSLAX46Y46*%
G04 Gerber Fmt 4.6, Leading zero omitted, Abs format (unit mm)*
G04 Created by KiCad (PCBNEW 10.0.3) date 2026-09-16 00:48:09*
%MOMM*%
%LPD*%
G01*
G04 APERTURE LIST*
G04 Aperture macros list*
%AMRoundRect*
0 Rectangle with rounded corners*
0 $1 Rounding radius*
0 $2 $3 $4 $5 $6 $7 $8 $9 X,Y pos of 4 corners*
0 Add a 4 corners polygon primitive as box body*
4,1,4,$2,$3,$4,$5,$6,$7,$8,$9,$2,$3,0*
0 Add four circle primitives for the rounded corners*
1,1,$1+$1,$2,$3*
1,1,$1+$1,$4,$5*
1,1,$1+$1,$6,$7*
1,1,$1+$1,$8,$9*
0 Add four rect primitives between the rounded corners*
20,1,$1+$1,$2,$3,$4,$5,0*
20,1,$1+$1,$4,$5,$6,$7,0*
20,1,$1+$1,$6,$7,$8,$9,0*
20,1,$1+$1,$8,$9,$2,$3,0*%
%AMFreePoly0*
4,1,17,0.000318,0.699935,0.299923,0.699935,0.335278,0.685290,0.349923,0.649935,0.349923,-0.650088,0.335278,-0.685443,0.299923,-0.700088,-0.000076,-0.700088,-0.000445,-0.699935,-0.300050,-0.699935,-0.335405,-0.685290,-0.350050,-0.649935,-0.350050,0.650088,-0.335405,0.685443,-0.300050,0.700088,-0.000051,0.700088,0.000318,0.699935,0.000318,0.699935,$1*%
%AMFreePoly1*
4,1,17,0.000187,0.700037,0.300076,0.700037,0.335431,0.685392,0.350076,0.650037,0.350076,-0.649935,0.335431,-0.685290,0.300076,-0.699935,0.000051,-0.699935,-0.000009,-0.699910,-0.299898,-0.699910,-0.335253,-0.685265,-0.349898,-0.649910,-0.349898,0.650062,-0.335253,0.685417,-0.299898,0.700062,0.000127,0.700062,0.000187,0.700037,0.000187,0.700037,$1*%
%AMFreePoly2*
4,1,13,0.335227,0.685239,0.349872,0.649884,0.349872,-0.650088,0.335227,-0.685443,0.299872,-0.700088,-0.300152,-0.700088,-0.335507,-0.685443,-0.350152,-0.650088,-0.350152,0.649884,-0.335507,0.685239,-0.300152,0.699884,0.299872,0.699884,0.335227,0.685239,0.335227,0.685239,$1*%
G04 Aperture macros list end*
%TA.AperFunction,EtchedComponent*%
%ADD10C,0.300000*%
%TD*%
%TA.AperFunction,SMDPad,CuDef*%
%ADD11RoundRect,0.200000X-0.200000X-0.275000X0.200000X-0.275000X0.200000X0.275000X-0.200000X0.275000X0*%
%TD*%
%TA.AperFunction,SMDPad,CuDef*%
%ADD12R,1.072000X0.532000*%
%TD*%
%TA.AperFunction,SMDPad,CuDef*%
%ADD13R,0.490000X1.157000*%
%TD*%
%TA.AperFunction,SMDPad,CuDef*%
%ADD14R,0.490000X1.175000*%
%TD*%
%TA.AperFunction,SMDPad,CuDef*%
%ADD15RoundRect,0.225000X-0.225000X-0.250000X0.225000X-0.250000X0.225000X0.250000X-0.225000X0.250000X0*%
%TD*%
%TA.AperFunction,SMDPad,CuDef*%
%ADD16RoundRect,0.225000X-0.225000X-0.375000X0.225000X-0.375000X0.225000X0.375000X-0.225000X0.375000X0*%
%TD*%
%TA.AperFunction,SMDPad,CuDef*%
%ADD17RoundRect,0.200000X-0.275000X0.200000X-0.275000X-0.200000X0.275000X-0.200000X0.275000X0.200000X0*%
%TD*%
%TA.AperFunction,SMDPad,CuDef*%
%ADD18RoundRect,0.225000X0.250000X-0.225000X0.250000X0.225000X-0.250000X0.225000X-0.250000X-0.225000X0*%
%TD*%
%TA.AperFunction,SMDPad,CuDef*%
%ADD19R,1.200000X1.000000*%
%TD*%
%TA.AperFunction,ComponentPad*%
%ADD20C,1.200000*%
%TD*%
%TA.AperFunction,SMDPad,CuDef*%
%ADD21R,1.000000X0.800000*%
%TD*%
%TA.AperFunction,SMDPad,CuDef*%
%ADD22R,1.500000X0.900000*%
%TD*%
%TA.AperFunction,SMDPad,CuDef*%
%ADD23R,0.900000X1.500000*%
%TD*%
%TA.AperFunction,SMDPad,CuDef*%
%ADD24R,0.900000X0.900000*%
%TD*%
%TA.AperFunction,SMDPad,CuDef*%
%ADD25RoundRect,0.150000X-0.500000X0.150000X-0.500000X-0.150000X0.500000X-0.150000X0.500000X0.150000X0*%
%TD*%
%TA.AperFunction,SMDPad,CuDef*%
%ADD26RoundRect,0.175000X-0.175000X0.350000X-0.175000X-0.350000X0.175000X-0.350000X0.175000X0.350000X0*%
%TD*%
%TA.AperFunction,SMDPad,CuDef*%
%ADD27RoundRect,0.225000X-0.250000X0.225000X-0.250000X-0.225000X0.250000X-0.225000X0.250000X0.225000X0*%
%TD*%
%TA.AperFunction,SMDPad,CuDef*%
%ADD28RoundRect,0.250000X-0.250000X-0.475000X0.250000X-0.475000X0.250000X0.475000X-0.250000X0.475000X0*%
%TD*%
%TA.AperFunction,SMDPad,CuDef*%
%ADD29C,1.000000*%
%TD*%
%TA.AperFunction,ComponentPad*%
%ADD30C,3.000000*%
%TD*%
%TA.AperFunction,SMDPad,CuDef*%
%ADD31C,20.000000*%
%TD*%
%TA.AperFunction,SMDPad,CuDef*%
%ADD32R,1.000000X0.750000*%
%TD*%
%TA.AperFunction,SMDPad,CuDef*%
%ADD33RoundRect,0.200000X0.275000X-0.200000X0.275000X0.200000X-0.275000X0.200000X-0.275000X-0.200000X0*%
%TD*%
%TA.AperFunction,ComponentPad*%
%ADD34O,2.000000X1.200000*%
%TD*%
%TA.AperFunction,ComponentPad*%
%ADD35O,1.800000X1.200000*%
%TD*%
%TA.AperFunction,SMDPad,CuDef*%
%ADD36FreePoly0,270.000000*%
%TD*%
%TA.AperFunction,SMDPad,CuDef*%
%ADD37FreePoly1,270.000000*%
%TD*%
%TA.AperFunction,SMDPad,CuDef*%
%ADD38R,1.300000X0.300000*%
%TD*%
%TA.AperFunction,SMDPad,CuDef*%
%ADD39FreePoly2,270.000000*%
%TD*%
%TA.AperFunction,SMDPad,CuDef*%
%ADD40RoundRect,0.250000X0.475000X-0.250000X0.475000X0.250000X-0.475000X0.250000X-0.475000X-0.250000X0*%
%TD*%
%TA.AperFunction,SMDPad,CuDef*%
%ADD41RoundRect,0.150000X-0.150000X-0.550000X0.150000X-0.550000X0.150000X0.550000X-0.150000X0.550000X0*%
%TD*%
%TA.AperFunction,SMDPad,CuDef*%
%ADD42R,1.500000X2.200000*%
%TD*%
%TA.AperFunction,SMDPad,CuDef*%
%ADD43R,0.675000X0.280000*%
%TD*%
%TA.AperFunction,SMDPad,CuDef*%
%ADD44R,0.280000X0.675000*%
%TD*%
%TA.AperFunction,SMDPad,CuDef*%
%ADD45R,1.157000X0.490000*%
%TD*%
%TA.AperFunction,SMDPad,CuDef*%
%ADD46R,1.175000X0.490000*%
%TD*%
%TA.AperFunction,ViaPad*%
%ADD47C,0.600000*%
%TD*%
%TA.AperFunction,Conductor*%
%ADD48C,0.200000*%
%TD*%
%TA.AperFunction,Conductor*%
%ADD49C,0.300000*%
%TD*%
G04 APERTURE END LIST*
%TO.C,ANT1*%
D10*
X2650000Y-16150000D02*
X2650000Y-40350000D01*
X2650000Y-40350000D02*
X14350000Y-40350000D01*
X3200000Y-14200000D02*
X3200000Y-16150000D01*
X3200000Y-16150000D02*
X2650000Y-16150000D01*
X3250000Y-16750000D02*
X3250000Y-16750000D01*
X3250000Y-16750000D02*
X3250000Y-39750000D01*
X3250000Y-39750000D02*
X13750000Y-39750000D01*
X3850000Y-17350000D02*
X3850000Y-17350000D01*
X3850000Y-17350000D02*
X3850000Y-39150000D01*
X3850000Y-39150000D02*
X13150000Y-39150000D01*
X4450000Y-17950000D02*
X4450000Y-17950000D01*
X4450000Y-17950000D02*
X4450000Y-38550000D01*
X4450000Y-38550000D02*
X12550000Y-38550000D01*
X5050000Y-18550000D02*
X5050000Y-18550000D01*
X5050000Y-18550000D02*
X5050000Y-37950000D01*
X5050000Y-37950000D02*
X11950000Y-37950000D01*
X5650000Y-19150000D02*
X5650000Y-19150000D01*
X5650000Y-19150000D02*
X5650000Y-37350000D01*
X5650000Y-37350000D02*
X11350000Y-37350000D01*
X6250000Y-19750000D02*
X6250000Y-19750000D01*
X6250000Y-19750000D02*
X6250000Y-36750000D01*
X6250000Y-36750000D02*
X10750000Y-36750000D01*
X6850000Y-20350000D02*
X6850000Y-20350000D01*
X6850000Y-20350000D02*
X6850000Y-36150000D01*
X6850000Y-36150000D02*
X10150000Y-36150000D01*
X7450000Y-20950000D02*
X7450000Y-20950000D01*
X7450000Y-20950000D02*
X7450000Y-35550000D01*
X7450000Y-35550000D02*
X9550000Y-35550000D01*
X9550000Y-21550000D02*
X8886000Y-22341000D01*
X9550000Y-35550000D02*
X9550000Y-21550000D01*
X10150000Y-20950000D02*
X7450000Y-20950000D01*
X10150000Y-36150000D02*
X10150000Y-20950000D01*
X10750000Y-20350000D02*
X6850000Y-20350000D01*
X10750000Y-36750000D02*
X10750000Y-20350000D01*
X11350000Y-19750000D02*
X6250000Y-19750000D01*
X11350000Y-37350000D02*
X11350000Y-19750000D01*
X11950000Y-19150000D02*
X5650000Y-19150000D01*
X11950000Y-37950000D02*
X11950000Y-19150000D01*
X12550000Y-18550000D02*
X5050000Y-18550000D01*
X12550000Y-38550000D02*
X12550000Y-18550000D01*
X13150000Y-17950000D02*
X4450000Y-17950000D01*
X13150000Y-39150000D02*
X13150000Y-17950000D01*
X13750000Y-17350000D02*
X3850000Y-17350000D01*
X13750000Y-39750000D02*
X13750000Y-17350000D01*
X14350000Y-16750000D02*
X3250000Y-16750000D01*
X14350000Y-40350000D02*
X14350000Y-16750000D01*
%TD*%
D11*
%TO.P,R11,1*%
%TO.N,+3V3*%
X59539000Y-4500000D03*
%TO.P,R11,2*%
%TO.N,SDA*%
X61189000Y-4500000D03*
%TD*%
D12*
%TO.P,U5,1*%
%TO.N,USB_DP*%
X74650000Y-16050000D03*
%TO.P,U5,2*%
%TO.N,GND*%
X74650000Y-17000000D03*
%TO.P,U5,3*%
%TO.N,USB_DM*%
X74650000Y-17950000D03*
%TO.P,U5,4*%
X72350000Y-17950000D03*
%TO.P,U5,5*%
%TO.N,VBUS*%
X72350000Y-17000000D03*
%TO.P,U5,6*%
%TO.N,USB_DP*%
X72350000Y-16050000D03*
%TD*%
D13*
%TO.P,U6,1*%
%TO.N,unconnected-(U6-STAT-Pad1)*%
X51050000Y-10850000D03*
%TO.P,U6,2*%
%TO.N,GND*%
X52000000Y-10850000D03*
%TO.P,U6,3*%
%TO.N,VBAT*%
X52950000Y-10850000D03*
D14*
%TO.P,U6,4*%
%TO.N,VBUS*%
X52950000Y-13150000D03*
%TO.P,U6,5*%
%TO.N,PROG*%
X51050000Y-13150000D03*
%TD*%
D15*
%TO.P,C13,1*%
%TO.N,VBAT*%
X47225000Y-16000000D03*
%TO.P,C13,2*%
%TO.N,GND*%
X48775000Y-16000000D03*
%TD*%
D16*
%TO.P,D25,1*%
%TO.N,VSYS*%
X67350000Y-10500000D03*
%TO.P,D25,2*%
%TO.N,VBUS*%
X70650000Y-10500000D03*
%TD*%
D17*
%TO.P,R13,1*%
%TO.N,VBUS*%
X83600000Y-21075000D03*
%TO.P,R13,2*%
%TO.N,GND*%
X83600000Y-22725000D03*
%TD*%
D11*
%TO.P,R9,1*%
%TO.N,+3V3*%
X46448000Y-4500000D03*
%TO.P,R9,2*%
%TO.N,EN*%
X48098000Y-4500000D03*
%TD*%
D18*
%TO.P,C4,1*%
%TO.N,EN*%
X44000000Y-22775000D03*
%TO.P,C4,2*%
%TO.N,GND*%
X44000000Y-21225000D03*
%TD*%
D11*
%TO.P,R1,1*%
%TO.N,CHX1*%
X7175000Y-4500000D03*
%TO.P,R1,2*%
%TO.N,CP1*%
X8825000Y-4500000D03*
%TD*%
D18*
%TO.P,C7,1*%
%TO.N,+3V3*%
X79000000Y-8475000D03*
%TO.P,C7,2*%
%TO.N,GND*%
X79000000Y-6925000D03*
%TD*%
D19*
%TO.P,ANT1,1*%
%TO.N,NFC_ANT_A*%
X3200000Y-14200000D03*
D20*
%TO.P,ANT1,2*%
%TO.N,NFC_ANT_B*%
X8000000Y-14200000D03*
%TO.P,ANT1,3*%
%TO.N,N/C*%
X8500000Y-22800000D03*
%TD*%
D18*
%TO.P,C3,1*%
%TO.N,+3V3*%
X44000000Y-17775000D03*
%TO.P,C3,2*%
%TO.N,GND*%
X44000000Y-16225000D03*
%TD*%
D11*
%TO.P,R10,1*%
%TO.N,+3V3*%
X52993000Y-4500000D03*
%TO.P,R10,2*%
%TO.N,IO0*%
X54643000Y-4500000D03*
%TD*%
D21*
%TO.P,Q1,1*%
%TO.N,VBUS*%
X81750000Y-20550000D03*
%TO.P,Q1,2*%
%TO.N,VSYS*%
X81750000Y-22450000D03*
%TO.P,Q1,3*%
%TO.N,VBAT_SW*%
X79450000Y-21500000D03*
%TD*%
D11*
%TO.P,R5,1*%
%TO.N,CHX5*%
X33357000Y-4500000D03*
%TO.P,R5,2*%
%TO.N,CP5*%
X35007000Y-4500000D03*
%TD*%
%TO.P,R4,1*%
%TO.N,CHX4*%
X26811000Y-4500000D03*
%TO.P,R4,2*%
%TO.N,CP4*%
X28461000Y-4500000D03*
%TD*%
D22*
%TO.P,U1,1*%
%TO.N,GND*%
X23250000Y-35890000D03*
%TO.P,U1,2*%
%TO.N,+3V3*%
X23250000Y-34620000D03*
%TO.P,U1,3*%
%TO.N,EN*%
X23250000Y-33350000D03*
%TO.P,U1,4*%
%TO.N,CHX1*%
X23250000Y-32080000D03*
%TO.P,U1,5*%
%TO.N,CHX2*%
X23250000Y-30810000D03*
%TO.P,U1,6*%
%TO.N,CHX3*%
X23250000Y-29540000D03*
%TO.P,U1,7*%
%TO.N,CHX4*%
X23250000Y-28270000D03*
%TO.P,U1,8*%
%TO.N,CHX5*%
X23250000Y-27000000D03*
%TO.P,U1,9*%
%TO.N,CHX6*%
X23250000Y-25730000D03*
%TO.P,U1,10*%
%TO.N,SCL*%
X23250000Y-24460000D03*
%TO.P,U1,11*%
%TO.N,IMU_INT*%
X23250000Y-23190000D03*
%TO.P,U1,12*%
%TO.N,SDA*%
X23250000Y-21920000D03*
%TO.P,U1,13*%
%TO.N,USB_DM*%
X23250000Y-20650000D03*
%TO.P,U1,14*%
%TO.N,USB_DP*%
X23250000Y-19380000D03*
D23*
%TO.P,U1,15*%
%TO.N,unconnected-(U1-IO3-Pad15)*%
X25010000Y-18110000D03*
%TO.P,U1,16*%
%TO.N,unconnected-(U1-IO46-Pad16)*%
X26280000Y-18110000D03*
%TO.P,U1,17*%
%TO.N,unconnected-(U1-IO9-Pad17)*%
X27550000Y-18110000D03*
%TO.P,U1,18*%
%TO.N,unconnected-(U1-IO10-Pad18)*%
X28830000Y-18110000D03*
%TO.P,U1,19*%
%TO.N,unconnected-(U1-IO11-Pad19)*%
X30100000Y-18110000D03*
%TO.P,U1,20*%
%TO.N,unconnected-(U1-IO12-Pad20)*%
X31370000Y-18110000D03*
%TO.P,U1,21*%
%TO.N,unconnected-(U1-IO13-Pad21)*%
X32640000Y-18110000D03*
%TO.P,U1,22*%
%TO.N,unconnected-(U1-IO14-Pad22)*%
X33910000Y-18110000D03*
%TO.P,U1,23*%
%TO.N,NFC_GPO*%
X35180000Y-18110000D03*
%TO.P,U1,24*%
%TO.N,unconnected-(U1-IO47-Pad24)*%
X36450000Y-18110000D03*
%TO.P,U1,25*%
%TO.N,unconnected-(U1-IO48-Pad25)*%
X37720000Y-18110000D03*
%TO.P,U1,26*%
%TO.N,unconnected-(U1-IO45-Pad26)*%
X38990000Y-18140000D03*
D22*
%TO.P,U1,27*%
%TO.N,IO0*%
X40750000Y-19380000D03*
%TO.P,U1,28*%
%TO.N,unconnected-(U1-IO35-Pad28)*%
X40750000Y-20650000D03*
%TO.P,U1,29*%
%TO.N,unconnected-(U1-IO36-Pad29)*%
X40750000Y-21920000D03*
%TO.P,U1,30*%
%TO.N,unconnected-(U1-IO37-Pad30)*%
X40750000Y-23190000D03*
%TO.P,U1,31*%
%TO.N,unconnected-(U1-IO38-Pad31)*%
X40750000Y-24460000D03*
%TO.P,U1,32*%
%TO.N,unconnected-(U1-IO39-Pad32)*%
X40750000Y-25730000D03*
%TO.P,U1,33*%
%TO.N,unconnected-(U1-IO40-Pad33)*%
X40750000Y-27000000D03*
%TO.P,U1,34*%
%TO.N,unconnected-(U1-IO41-Pad34)*%
X40750000Y-28270000D03*
%TO.P,U1,35*%
%TO.N,unconnected-(U1-IO42-Pad35)*%
X40750000Y-29540000D03*
%TO.P,U1,36*%
%TO.N,RXD*%
X40750000Y-30810000D03*
%TO.P,U1,37*%
%TO.N,TXD*%
X40750000Y-32080000D03*
%TO.P,U1,38*%
%TO.N,unconnected-(U1-IO2-Pad38)*%
X40750000Y-33350000D03*
%TO.P,U1,39*%
%TO.N,unconnected-(U1-IO1-Pad39)*%
X40750000Y-34620000D03*
%TO.P,U1,40*%
%TO.N,GND*%
X40750000Y-35890000D03*
D24*
%TO.P,U1,41*%
X29100000Y-26770000D03*
X29100000Y-28170000D03*
X29100000Y-29570000D03*
X30500000Y-26770000D03*
X30500000Y-28170000D03*
X30500000Y-29570000D03*
X31900000Y-26770000D03*
X31900000Y-28170000D03*
X31900000Y-29570000D03*
%TD*%
D25*
%TO.P,SW3,1*%
%TO.N,unconnected-(SW3-A-Pad1)*%
X79505000Y-25750000D03*
%TO.P,SW3,2*%
%TO.N,VBAT*%
X79505000Y-28750000D03*
%TO.P,SW3,3*%
%TO.N,VBAT_SW*%
X79505000Y-30250000D03*
D26*
%TO.P,SW3,SH*%
%TO.N,N/C*%
X82555000Y-24325000D03*
X80355000Y-24325000D03*
X82555000Y-31675000D03*
X80355000Y-31675000D03*
%TD*%
D27*
%TO.P,C2,1*%
%TO.N,+3V3*%
X20500000Y-34475000D03*
%TO.P,C2,2*%
%TO.N,GND*%
X20500000Y-36025000D03*
%TD*%
D15*
%TO.P,C14,1*%
%TO.N,VBUS*%
X51225000Y-16500000D03*
%TO.P,C14,2*%
%TO.N,GND*%
X52775000Y-16500000D03*
%TD*%
D28*
%TO.P,C9,1*%
%TO.N,+3V3*%
X72505000Y-4500000D03*
%TO.P,C9,2*%
%TO.N,GND*%
X74405000Y-4500000D03*
%TD*%
D11*
%TO.P,R3,1*%
%TO.N,CHX3*%
X20266000Y-4500000D03*
%TO.P,R3,2*%
%TO.N,CP3*%
X21916000Y-4500000D03*
%TD*%
D18*
%TO.P,C6,1*%
%TO.N,VSYS*%
X73000000Y-8775000D03*
%TO.P,C6,2*%
%TO.N,GND*%
X73000000Y-7225000D03*
%TD*%
D11*
%TO.P,R6,1*%
%TO.N,CHX6*%
X39902000Y-4500000D03*
%TO.P,R6,2*%
%TO.N,CP6*%
X41552000Y-4500000D03*
%TD*%
D29*
%TO.P,FID3,*%
%TO.N,*%
X81000000Y-50500000D03*
%TD*%
D30*
%TO.P,BT1,1*%
%TO.N,VBAT*%
X49300000Y-28000000D03*
X74700000Y-28000000D03*
D31*
%TO.P,BT1,2*%
%TO.N,GND*%
X62000000Y-28000000D03*
%TD*%
D15*
%TO.P,C1,1*%
%TO.N,+3V3*%
X20225000Y-16500000D03*
%TO.P,C1,2*%
%TO.N,GND*%
X21775000Y-16500000D03*
%TD*%
%TO.P,C12,1*%
%TO.N,NFC_ANT_A*%
X10125000Y-12900000D03*
%TO.P,C12,2*%
%TO.N,NFC_ANT_B*%
X11675000Y-12900000D03*
%TD*%
D18*
%TO.P,C11,1*%
%TO.N,+3V3*%
X10800000Y-8775000D03*
%TO.P,C11,2*%
%TO.N,GND*%
X10800000Y-7225000D03*
%TD*%
D15*
%TO.P,C5,1*%
%TO.N,+3V3*%
X24725000Y-9500000D03*
%TO.P,C5,2*%
%TO.N,GND*%
X26275000Y-9500000D03*
%TD*%
D32*
%TO.P,SW1,1*%
%TO.N,IO0*%
X9000000Y-49150000D03*
%TO.P,SW1,2*%
%TO.N,GND*%
X15000000Y-49150000D03*
%TO.P,SW1,3*%
%TO.N,IO0*%
X9000000Y-45450000D03*
%TO.P,SW1,4*%
%TO.N,GND*%
X15000000Y-45450000D03*
%TD*%
D11*
%TO.P,R12,1*%
%TO.N,+3V3*%
X66084000Y-4500000D03*
%TO.P,R12,2*%
%TO.N,SCL*%
X67734000Y-4500000D03*
%TD*%
D29*
%TO.P,FID4,*%
%TO.N,*%
X81000000Y-3000000D03*
%TD*%
D17*
%TO.P,R8,1*%
%TO.N,CC2*%
X76800000Y-15975000D03*
%TO.P,R8,2*%
%TO.N,GND*%
X76800000Y-17625000D03*
%TD*%
D11*
%TO.P,R7,1*%
%TO.N,CC1*%
X75975000Y-12200000D03*
%TO.P,R7,2*%
%TO.N,GND*%
X77625000Y-12200000D03*
%TD*%
D32*
%TO.P,SW2,1*%
%TO.N,EN*%
X21000000Y-49150000D03*
%TO.P,SW2,2*%
%TO.N,GND*%
X27000000Y-49150000D03*
%TO.P,SW2,3*%
%TO.N,EN*%
X21000000Y-45450000D03*
%TO.P,SW2,4*%
%TO.N,GND*%
X27000000Y-45450000D03*
%TD*%
D11*
%TO.P,R15,1*%
%TO.N,PROG*%
X56175000Y-11500000D03*
%TO.P,R15,2*%
%TO.N,GND*%
X57825000Y-11500000D03*
%TD*%
D33*
%TO.P,R14,1*%
%TO.N,+3V3*%
X44000000Y-32325000D03*
%TO.P,R14,2*%
%TO.N,NFC_GPO*%
X44000000Y-30675000D03*
%TD*%
D34*
%TO.P,J2,1*%
%TO.N,GND*%
X79990000Y-18830000D03*
D35*
%TO.P,J2,2*%
X84170000Y-18830000D03*
%TO.P,J2,3*%
X84170000Y-10170000D03*
D34*
%TO.P,J2,4*%
X79990000Y-10170000D03*
D36*
%TO.P,J2,A1B12*%
X79230000Y-11300000D03*
D37*
%TO.P,J2,A4B9*%
%TO.N,VBUS*%
X79230000Y-12100000D03*
D38*
%TO.P,J2,A5*%
%TO.N,CC1*%
X79230000Y-13250000D03*
%TO.P,J2,A6*%
%TO.N,USB_DP*%
X79230000Y-14250000D03*
%TO.P,J2,A7*%
%TO.N,USB_DM*%
X79230000Y-14750000D03*
%TO.P,J2,A8*%
%TO.N,N/C*%
X79230000Y-15750000D03*
D39*
%TO.P,J2,B1A12*%
%TO.N,GND*%
X79230000Y-17700000D03*
%TO.P,J2,B4A9*%
%TO.N,VBUS*%
X79230000Y-16900000D03*
D38*
%TO.P,J2,B5*%
%TO.N,CC2*%
X79230000Y-16250000D03*
%TO.P,J2,B6*%
%TO.N,USB_DP*%
X79230000Y-15250000D03*
%TO.P,J2,B7*%
%TO.N,USB_DM*%
X79230000Y-13750000D03*
%TO.P,J2,B8*%
%TO.N,N/C*%
X79230000Y-12750000D03*
%TD*%
D29*
%TO.P,FID2,*%
%TO.N,*%
X3500000Y-50500000D03*
%TD*%
D28*
%TO.P,C10,1*%
%TO.N,+3V3*%
X76450000Y-4500000D03*
%TO.P,C10,2*%
%TO.N,GND*%
X78350000Y-4500000D03*
%TD*%
D11*
%TO.P,R2,1*%
%TO.N,CHX2*%
X13720000Y-4500000D03*
%TO.P,R2,2*%
%TO.N,CP2*%
X15370000Y-4500000D03*
%TD*%
D40*
%TO.P,C8,1*%
%TO.N,+3V3*%
X44000000Y-27950000D03*
%TO.P,C8,2*%
%TO.N,GND*%
X44000000Y-26050000D03*
%TD*%
D41*
%TO.P,U4,1*%
%TO.N,unconnected-(U4-V_EH-Pad1)*%
X4295000Y-6950000D03*
%TO.P,U4,2*%
%TO.N,NFC_ANT_A*%
X5565000Y-6950000D03*
%TO.P,U4,3*%
%TO.N,NFC_ANT_B*%
X6835000Y-6950000D03*
%TO.P,U4,4*%
%TO.N,GND*%
X8105000Y-6950000D03*
%TO.P,U4,5*%
%TO.N,SDA*%
X8105000Y-12250000D03*
%TO.P,U4,6*%
%TO.N,SCL*%
X6835000Y-12250000D03*
%TO.P,U4,7*%
%TO.N,NFC_GPO*%
X5565000Y-12250000D03*
%TO.P,U4,8*%
%TO.N,+3V3*%
X4295000Y-12250000D03*
%TD*%
D29*
%TO.P,FID1,*%
%TO.N,*%
X3500000Y-3000000D03*
%TD*%
D42*
%TO.P,J1,1*%
%TO.N,+3V3*%
X66000000Y-50000000D03*
%TO.P,J1,2*%
%TO.N,GND*%
X68540000Y-50000000D03*
%TO.P,J1,3*%
%TO.N,TXD*%
X71080000Y-50000000D03*
%TO.P,J1,4*%
%TO.N,RXD*%
X73620000Y-50000000D03*
%TO.P,J1,5*%
%TO.N,EN*%
X76160000Y-50000000D03*
%TO.P,J1,6*%
%TO.N,IO0*%
X78700000Y-50000000D03*
%TD*%
D43*
%TO.P,U2,1*%
%TO.N,+3V3*%
X20240000Y-10250000D03*
%TO.P,U2,2*%
%TO.N,unconnected-(U2-SDx-Pad2)*%
X20240000Y-9750000D03*
%TO.P,U2,3*%
%TO.N,unconnected-(U2-SCx-Pad3)*%
X20240000Y-9250000D03*
%TO.P,U2,4*%
%TO.N,IMU_INT*%
X20240000Y-8750000D03*
D44*
%TO.P,U2,5*%
%TO.N,+3V3*%
X21000000Y-8490000D03*
%TO.P,U2,6*%
%TO.N,GND*%
X21500000Y-8490000D03*
%TO.P,U2,7*%
X22000000Y-8490000D03*
D43*
%TO.P,U2,8*%
%TO.N,+3V3*%
X22760000Y-8750000D03*
%TO.P,U2,9*%
%TO.N,unconnected-(U2-INT2-Pad9)*%
X22760000Y-9250000D03*
%TO.P,U2,10*%
%TO.N,unconnected-(U2-NC-Pad10)*%
X22760000Y-9750000D03*
%TO.P,U2,11*%
%TO.N,unconnected-(U2-NC-Pad11)*%
X22760000Y-10250000D03*
D44*
%TO.P,U2,12*%
%TO.N,+3V3*%
X22000000Y-10510000D03*
%TO.P,U2,13*%
%TO.N,SCL*%
X21500000Y-10510000D03*
%TO.P,U2,14*%
%TO.N,SDA*%
X21000000Y-10510000D03*
%TD*%
D45*
%TO.P,U3,1*%
%TO.N,VSYS*%
X77150000Y-7050000D03*
%TO.P,U3,2*%
%TO.N,GND*%
X77150000Y-8000000D03*
%TO.P,U3,3*%
%TO.N,VSYS*%
X77150000Y-8950000D03*
D46*
%TO.P,U3,4*%
%TO.N,unconnected-(U3-NC-Pad4)*%
X74850000Y-8950000D03*
%TO.P,U3,5*%
%TO.N,+3V3*%
X74850000Y-7050000D03*
%TD*%
D47*
%TO.N,CP6*%
X45048500Y-22297500D03*
X51625000Y-4301600D03*
X57085800Y-3931400D03*
%TO.N,CP3*%
X42182500Y-42568900D03*
X23884600Y-13148400D03*
X44513600Y-35953600D03*
%TO.N,CP2*%
X17605800Y-9200300D03*
%TO.N,CP5*%
X27512100Y-13210900D03*
%TO.N,CP4*%
X27570600Y-11956100D03*
X28682600Y-10430500D03*
%TO.N,CP1*%
X10236900Y-9726900D03*
%TO.N,SDA*%
X24470100Y-20708400D03*
X19873000Y-20708400D03*
%TO.N,USB_DP*%
X38755500Y-3346100D03*
X66470800Y-3135300D03*
%TO.N,GND*%
X46328600Y-5453400D03*
X73463900Y-17390800D03*
%TO.N,USB_DM*%
X75652100Y-16193100D03*
X73859400Y-15373400D03*
X38625300Y-2573600D03*
%TO.N,VSYS*%
X76100000Y-7842200D03*
X81968500Y-7842200D03*
%TO.N,CHX1*%
X16935900Y-29480400D03*
X24462900Y-32440500D03*
X8364300Y-9708800D03*
X13683000Y-13741700D03*
%TO.N,NFC_ANT_B*%
X5840800Y-10303800D03*
%TO.N,CHX5*%
X21890900Y-12755300D03*
X24672800Y-26148700D03*
X21464300Y-26148700D03*
X29512500Y-9220600D03*
%TO.N,CHX4*%
X26632300Y-12501900D03*
X19417100Y-18961700D03*
%TO.N,CHX2*%
X19314900Y-12501300D03*
X25354400Y-21418000D03*
X19379100Y-21461800D03*
X18849200Y-8177800D03*
%TO.N,CHX3*%
X25242200Y-26711500D03*
X26340700Y-13606100D03*
%TO.N,CHX6*%
X25078000Y-22189500D03*
X35382200Y-15583400D03*
%TO.N,SCL*%
X19372800Y-11363800D03*
X38968100Y-9262500D03*
X21046500Y-12902300D03*
%TO.N,IMU_INT*%
X24471900Y-24051000D03*
X16844100Y-9461800D03*
X17785500Y-12174800D03*
X19272400Y-24051000D03*
%TO.N,NFC_GPO*%
X19024100Y-9887000D03*
X34997400Y-11129800D03*
X41818200Y-11129800D03*
X34942500Y-8921200D03*
%TO.N,RXD*%
X69503500Y-46136400D03*
X52204000Y-46136400D03*
%TO.N,TXD*%
X61353700Y-39020300D03*
X45082200Y-39020300D03*
%TD*%
%TO.N,CP6*%
D48*
X43817000Y-2235000D02*
X41552000Y-4500000D01*
X45048500Y-22297500D02*
X45977500Y-21368500D01*
X45977500Y-21368500D02*
X45977500Y-9949100D01*
X55389400Y-2235000D02*
X43817000Y-2235000D01*
X57085800Y-3931400D02*
X55389400Y-2235000D01*
X45977500Y-9949100D02*
X51625000Y-4301600D01*
%TO.N,CP3*%
X44513600Y-40237800D02*
X42182500Y-42568900D01*
X26993300Y-9053600D02*
X26993300Y-10039700D01*
X44513600Y-35953600D02*
X44513600Y-40237800D01*
X26993300Y-10039700D02*
X23884600Y-13148400D01*
X22439700Y-4500000D02*
X26993300Y-9053600D01*
X21916000Y-4500000D02*
X22439700Y-4500000D01*
%TO.N,CP2*%
X14627700Y-3757700D02*
X15370000Y-4500000D01*
X13003400Y-4939900D02*
X13003400Y-4026200D01*
X17238000Y-8832500D02*
X16896000Y-8832500D01*
X16896000Y-8832500D02*
X13003400Y-4939900D01*
X17605800Y-9200300D02*
X17238000Y-8832500D01*
X13003400Y-4026200D02*
X13271900Y-3757700D01*
X13271900Y-3757700D02*
X14627700Y-3757700D01*
%TO.N,CP5*%
X35007000Y-4500000D02*
X35007000Y-5865800D01*
X27661900Y-13210900D02*
X27512100Y-13210900D01*
X35007000Y-5865800D02*
X27661900Y-13210900D01*
%TO.N,CP4*%
X28461000Y-11065700D02*
X27570600Y-11956100D01*
X28461000Y-10430500D02*
X28461000Y-11065700D01*
X28461000Y-4500000D02*
X28461000Y-10430500D01*
X28461000Y-10430500D02*
X28682600Y-10430500D01*
%TO.N,CP1*%
X11575000Y-7615500D02*
X11190500Y-8000000D01*
X9359400Y-4500000D02*
X11575000Y-6715600D01*
X8825000Y-4500000D02*
X9359400Y-4500000D01*
X10029200Y-8316900D02*
X10029200Y-9519200D01*
X10346100Y-8000000D02*
X10029200Y-8316900D01*
X10029200Y-9519200D02*
X10236900Y-9726900D01*
X11190500Y-8000000D02*
X10346100Y-8000000D01*
X11575000Y-6715600D02*
X11575000Y-7615500D01*
%TO.N,+3V3*%
X39701700Y-19051600D02*
X39701700Y-9548400D01*
X53759300Y-5266300D02*
X52993000Y-4500000D01*
X20995400Y-17270400D02*
X20225000Y-16500000D01*
X21000100Y-9089200D02*
X21000000Y-9089200D01*
X68396500Y-3946800D02*
X68212200Y-3762500D01*
X23250000Y-34620000D02*
X24261700Y-34620000D01*
X23359200Y-8750000D02*
X24140900Y-9531700D01*
X76450000Y-4500000D02*
X75454500Y-3504500D01*
X38855500Y-1511600D02*
X35916300Y-4450800D01*
X75699200Y-7050000D02*
X75699200Y-5250800D01*
X59539000Y-5266300D02*
X55305500Y-5266300D01*
X10800000Y-9958200D02*
X10800000Y-9614500D01*
X19640800Y-9679500D02*
X19279200Y-9317900D01*
X39701700Y-9548400D02*
X46290900Y-2959200D01*
X35916300Y-4450800D02*
X35916300Y-5601200D01*
X22000000Y-10510000D02*
X22000000Y-11109200D01*
X25012500Y-14529500D02*
X22271600Y-17270400D01*
X12624000Y-9614500D02*
X10800000Y-9614500D01*
X21000000Y-8490000D02*
X21000000Y-9089200D01*
X66000000Y-50000000D02*
X64988300Y-50000000D01*
X46448000Y-4500000D02*
X47221000Y-3727000D01*
X67783900Y-5628000D02*
X68396500Y-5015400D01*
X24261700Y-34620000D02*
X26771600Y-32110100D01*
X46542300Y-31554000D02*
X44771000Y-31554000D01*
X21741400Y-9910800D02*
X21000100Y-9169500D01*
X54258000Y-2959200D02*
X55305500Y-4006700D01*
X44000000Y-17775000D02*
X43237400Y-17012400D01*
X4295000Y-12250000D02*
X4295000Y-12178500D01*
X22814300Y-11716400D02*
X22488800Y-11390900D01*
X24725000Y-9500000D02*
X24693300Y-9531700D01*
X20645000Y-34620000D02*
X20500000Y-34475000D01*
X22000000Y-9910800D02*
X21741400Y-9910800D01*
X26988000Y-14529500D02*
X25012500Y-14529500D01*
X24693300Y-9531700D02*
X24140900Y-9531700D01*
X44000000Y-27950000D02*
X44771000Y-28721000D01*
X59900700Y-5628000D02*
X67783900Y-5628000D01*
X21000100Y-9169500D02*
X21000100Y-9089200D01*
X44771000Y-28721000D02*
X44771000Y-31554000D01*
X66084000Y-4500000D02*
X63095600Y-1511600D01*
X42848200Y-18926800D02*
X44000000Y-17775000D01*
X12624000Y-9614500D02*
X12624000Y-3889500D01*
X6650500Y-10288600D02*
X10469600Y-10288600D01*
X77462200Y-3487800D02*
X78802100Y-3487800D01*
X75699200Y-5250800D02*
X76450000Y-4500000D01*
X22488800Y-11390900D02*
X22281700Y-11390900D01*
X35916300Y-5601200D02*
X26988000Y-14529500D01*
X52220000Y-3727000D02*
X52993000Y-4500000D01*
X44000000Y-27950000D02*
X42848200Y-26798200D01*
X20240000Y-10250000D02*
X19640800Y-10250000D01*
X26771600Y-32110100D02*
X26771600Y-27810300D01*
X22271600Y-17270400D02*
X20995400Y-17270400D01*
X5608000Y-10865500D02*
X6073600Y-10865500D01*
X22760000Y-8750000D02*
X23359200Y-8750000D01*
X22281700Y-11390900D02*
X22000000Y-11109200D01*
X21000000Y-8490000D02*
X21000000Y-7890800D01*
X22000000Y-10510000D02*
X22000000Y-9910800D01*
X66821500Y-3762500D02*
X66084000Y-4500000D01*
X6073600Y-10865500D02*
X6650500Y-10288600D01*
X22814300Y-13910700D02*
X22814300Y-11716400D01*
X68212200Y-3762500D02*
X66821500Y-3762500D01*
X13176600Y-10167100D02*
X12624000Y-9614500D01*
X68396500Y-4500000D02*
X72505000Y-4500000D01*
X74850000Y-7050000D02*
X75699200Y-7050000D01*
X78802100Y-3487800D02*
X79786500Y-4472200D01*
X68396500Y-4500000D02*
X68396500Y-3946800D01*
X19640800Y-10250000D02*
X19640800Y-9679500D01*
X34566200Y-20015700D02*
X38737600Y-20015700D01*
X43237400Y-17012400D02*
X43237400Y-7710600D01*
X18796200Y-9317900D02*
X17947000Y-10167100D01*
X46290900Y-2959200D02*
X54258000Y-2959200D01*
X10800000Y-9614500D02*
X10800000Y-8775000D01*
X13141500Y-3372000D02*
X16481200Y-3372000D01*
X55305500Y-4006700D02*
X55305500Y-5266300D01*
X16481200Y-3372000D02*
X21000000Y-7890800D01*
X73500500Y-3504500D02*
X72505000Y-4500000D01*
X4295000Y-12178500D02*
X5608000Y-10865500D01*
X42848200Y-26798200D02*
X42848200Y-18926800D01*
X79786500Y-7688500D02*
X79000000Y-8475000D01*
X23250000Y-34620000D02*
X20645000Y-34620000D01*
X55305500Y-5266300D02*
X53759300Y-5266300D01*
X20225000Y-16500000D02*
X22814300Y-13910700D01*
X47221000Y-3727000D02*
X52220000Y-3727000D01*
X26771600Y-27810300D02*
X34566200Y-20015700D01*
X44771000Y-31554000D02*
X44000000Y-32325000D01*
X24140900Y-9738800D02*
X22488800Y-11390900D01*
X17947000Y-10167100D02*
X13176600Y-10167100D01*
X63095600Y-1511600D02*
X38855500Y-1511600D01*
X64988300Y-50000000D02*
X46542300Y-31554000D01*
X79786500Y-4472200D02*
X79786500Y-7688500D01*
X24140900Y-9531700D02*
X24140900Y-9738800D01*
X19279200Y-9317900D02*
X18796200Y-9317900D01*
X38737600Y-20015700D02*
X39701700Y-19051600D01*
X12624000Y-3889500D02*
X13141500Y-3372000D01*
X59539000Y-5266300D02*
X59539000Y-4500000D01*
X68396500Y-5015400D02*
X68396500Y-4500000D01*
X43237400Y-7710600D02*
X46448000Y-4500000D01*
X59539000Y-5266300D02*
X59900700Y-5628000D01*
X10469600Y-10288600D02*
X10800000Y-9958200D01*
X76450000Y-4500000D02*
X77462200Y-3487800D01*
X75454500Y-3504500D02*
X73500500Y-3504500D01*
%TO.N,SDA*%
X21000000Y-10510000D02*
X21000000Y-11109200D01*
X19894100Y-11925500D02*
X20183700Y-11925500D01*
X19894100Y-11925500D02*
X19894100Y-14615400D01*
X18737800Y-19573200D02*
X19873000Y-20708400D01*
X24263200Y-20708400D02*
X24470100Y-20708400D01*
X24263200Y-21827700D02*
X24170900Y-21920000D01*
X18737800Y-15771700D02*
X18737800Y-19573200D01*
X19894100Y-14615400D02*
X18737800Y-15771700D01*
X24263200Y-17286100D02*
X25934600Y-15614700D01*
X58562300Y-1873300D02*
X61189000Y-4500000D01*
X25934600Y-15614700D02*
X27454400Y-15614700D01*
X8105000Y-12250000D02*
X8753400Y-11601600D01*
X18810000Y-11925500D02*
X19894100Y-11925500D01*
X18486100Y-11601600D02*
X18810000Y-11925500D01*
X23250000Y-21920000D02*
X24170900Y-21920000D01*
X8753400Y-11601600D02*
X18486100Y-11601600D01*
X24263200Y-20708400D02*
X24263200Y-17286100D01*
X41195800Y-1873300D02*
X58562300Y-1873300D01*
X20183700Y-11925500D02*
X21000000Y-11109200D01*
X24263200Y-20708400D02*
X24263200Y-21827700D01*
X27454400Y-15614700D02*
X41195800Y-1873300D01*
%TO.N,USB_DP*%
X38755500Y-3802100D02*
X38755500Y-3346100D01*
X80531300Y-4702200D02*
X78914100Y-3085000D01*
X81408300Y-13477400D02*
X81408300Y-9309800D01*
X27304700Y-15252900D02*
X38755500Y-3802100D01*
X66521100Y-3085000D02*
X66470800Y-3135300D01*
X80531300Y-8432800D02*
X80531300Y-4702200D01*
X23250000Y-19380000D02*
X23250000Y-17766800D01*
X80141700Y-15250000D02*
X80141700Y-14744000D01*
X79230000Y-15250000D02*
X80141700Y-15250000D01*
X76450000Y-14250000D02*
X74650000Y-16050000D01*
X25763900Y-15252900D02*
X27304700Y-15252900D01*
X78914100Y-3085000D02*
X66521100Y-3085000D01*
X79230000Y-14250000D02*
X80050900Y-14250000D01*
X80141700Y-14744000D02*
X80141700Y-14250700D01*
X80141700Y-14744000D02*
X81408300Y-13477400D01*
X80050900Y-14250000D02*
X80140200Y-14250000D01*
X23250000Y-17766800D02*
X25763900Y-15252900D01*
X72350000Y-16050000D02*
X74650000Y-16050000D01*
X81408300Y-9309800D02*
X80531300Y-8432800D01*
X80141700Y-14250700D02*
X80141000Y-14250000D01*
X79230000Y-14250000D02*
X76450000Y-14250000D01*
X80140200Y-14250000D02*
X80141000Y-14250000D01*
%TO.N,GND*%
X66637400Y-9892900D02*
X69305300Y-7225000D01*
X77442100Y-1101500D02*
X37227300Y-1101500D01*
X82843200Y-52533000D02*
X83019400Y-52356800D01*
X77112600Y-51361700D02*
X70221600Y-51361700D01*
X48775000Y-16000000D02*
X49050000Y-15725000D01*
X54245000Y-10748600D02*
X53303400Y-11690200D01*
X51998500Y-11690200D02*
X51140700Y-11690200D01*
X66901500Y-11369800D02*
X66637400Y-11105700D01*
X73463900Y-17388400D02*
X73463900Y-17390800D01*
X24665800Y-7890800D02*
X22000000Y-7890800D01*
X26573600Y-14167800D02*
X23596600Y-14167800D01*
X22000000Y-8490000D02*
X22000000Y-7981600D01*
X52000000Y-11688500D02*
X52000000Y-11688700D01*
X77611000Y-48801900D02*
X77611000Y-50863300D01*
X82882900Y-48488300D02*
X77924600Y-48488300D01*
X44000000Y-26050000D02*
X44311400Y-26050000D01*
X78877500Y-10947500D02*
X77625000Y-12200000D01*
X15000000Y-49150000D02*
X15000000Y-46086700D01*
X22103300Y-36025000D02*
X22103300Y-49786700D01*
X77971300Y-7953700D02*
X77971300Y-8000000D01*
X27000000Y-49150000D02*
X27000000Y-45450000D01*
D49*
X62000000Y-28000000D02*
X56300000Y-22300000D01*
D48*
X31900000Y-29570000D02*
X31900000Y-28170000D01*
X9147500Y-3000700D02*
X8105000Y-4043200D01*
X13987700Y-44756000D02*
X8437500Y-44756000D01*
X23250000Y-35890000D02*
X22238300Y-35890000D01*
X52000000Y-11688700D02*
X51998500Y-11690200D01*
X8105000Y-6950000D02*
X10525000Y-6950000D01*
X27000000Y-49786700D02*
X22103300Y-49786700D01*
X11113600Y-52533000D02*
X82843200Y-52533000D01*
X73000000Y-7225000D02*
X73000000Y-5905000D01*
X43210600Y-22014400D02*
X44000000Y-21225000D01*
X40750000Y-35890000D02*
X38931700Y-35890000D01*
X23596500Y-14167900D02*
X21775000Y-15989400D01*
X30500000Y-28170000D02*
X30500000Y-26770000D01*
X17109900Y-3000700D02*
X9147500Y-3000700D01*
X79000000Y-5150000D02*
X79000000Y-6925000D01*
X23596600Y-14167800D02*
X23596500Y-14167900D01*
X27000000Y-49150000D02*
X27000000Y-49786700D01*
X52000000Y-10850000D02*
X52000000Y-11598600D01*
D49*
X50300000Y-16900000D02*
X50300000Y-15800000D01*
D48*
X57825000Y-11500000D02*
X57073600Y-10748600D01*
X22103300Y-36025000D02*
X22238300Y-35890000D01*
X44000000Y-7782000D02*
X46328600Y-5453400D01*
X31900000Y-26770000D02*
X30500000Y-26770000D01*
X29100000Y-31051700D02*
X29100000Y-29570000D01*
D49*
X55700000Y-22300000D02*
X50300000Y-16900000D01*
D48*
X15000000Y-45768300D02*
X13987700Y-44756000D01*
X67872200Y-11369800D02*
X66901500Y-11369800D01*
X29100000Y-29539800D02*
X29100000Y-28858300D01*
X77971300Y-8000000D02*
X77990200Y-8018900D01*
X69551700Y-50691800D02*
X69551700Y-50000000D01*
X78979200Y-17950800D02*
X78728300Y-17950800D01*
X77990200Y-8018900D02*
X77990200Y-9431900D01*
X83010000Y-2670000D02*
X81440000Y-1100000D01*
X78728300Y-10798300D02*
X78877500Y-10947500D01*
X58219300Y-11105700D02*
X66637400Y-11105700D01*
X26902500Y-13838900D02*
X26573600Y-14167800D01*
X44794300Y-17019300D02*
X44794300Y-20430700D01*
X22000000Y-9089200D02*
X21500000Y-9089200D01*
X15000000Y-45450000D02*
X15000000Y-45768300D01*
X22000000Y-7981600D02*
X22000000Y-7892300D01*
X22000000Y-7890800D02*
X17109900Y-3000700D01*
X29100000Y-28170000D02*
X29100000Y-26770000D01*
X84170000Y-18830000D02*
X84379500Y-19039500D01*
X27279500Y-12649200D02*
X26902500Y-13026200D01*
X8437500Y-44756000D02*
X8238300Y-44955200D01*
X30500000Y-29570000D02*
X30500000Y-28170000D01*
X78728300Y-17950800D02*
X78728300Y-18830000D01*
X77990200Y-9431900D02*
X78728300Y-10170000D01*
D49*
X56300000Y-22300000D02*
X55700000Y-22300000D01*
D48*
X50487400Y-12343500D02*
X50487400Y-15725000D01*
X77924600Y-48488300D02*
X77611000Y-48801900D01*
X84170000Y-10170000D02*
X83008300Y-10170000D01*
X77611000Y-50863300D02*
X77112600Y-51361700D01*
X57825000Y-11500000D02*
X58219300Y-11105700D01*
X50487400Y-15725000D02*
X52000000Y-15725000D01*
X78728300Y-17950800D02*
X77125800Y-17950800D01*
X44311400Y-26050000D02*
X67528300Y-49266900D01*
X52000000Y-15725000D02*
X52775000Y-16500000D01*
X84379500Y-19039500D02*
X84379500Y-21945500D01*
X57073600Y-10748600D02*
X54245000Y-10748600D01*
X77125800Y-17950800D02*
X76800000Y-17625000D01*
X49050000Y-15725000D02*
X50487400Y-15725000D01*
X31900000Y-28170000D02*
X31900000Y-26770000D01*
X78350000Y-4500000D02*
X79000000Y-5150000D01*
X10525000Y-6950000D02*
X10800000Y-7225000D01*
X15000000Y-49150000D02*
X15000000Y-49786700D01*
X8238300Y-49657700D02*
X11113600Y-52533000D01*
X73852300Y-17000000D02*
X73463900Y-17388400D01*
X83019400Y-48624800D02*
X82882900Y-48488300D01*
X26275000Y-9500000D02*
X23322900Y-12452100D01*
X77784700Y-9637400D02*
X69604600Y-9637400D01*
X77990200Y-9431900D02*
X77784700Y-9637400D01*
X78877500Y-10947500D02*
X79230000Y-11300000D01*
X23322900Y-13894300D02*
X23596500Y-14167900D01*
X66637400Y-11105700D02*
X66637400Y-9892900D01*
X43210600Y-25260600D02*
X43210600Y-22014400D01*
X15000000Y-45768300D02*
X15000000Y-46086700D01*
X34199000Y-6122300D02*
X27672100Y-12649200D01*
X68540000Y-50000000D02*
X67528300Y-50000000D01*
X44000000Y-26050000D02*
X43210600Y-25260600D01*
X79230000Y-17700000D02*
X78979200Y-17950800D01*
X29100000Y-28858300D02*
X29100000Y-28170000D01*
X81440000Y-1100000D02*
X77442100Y-1101500D01*
X83008300Y-18830000D02*
X83008300Y-10170000D01*
X8105000Y-4043200D02*
X8105000Y-6950000D01*
X84170000Y-18830000D02*
X83008300Y-18830000D01*
X70221600Y-51361700D02*
X69551700Y-50691800D01*
X8238300Y-44955200D02*
X8238300Y-49657700D01*
X22000000Y-7892300D02*
X22000000Y-7890800D01*
X30500000Y-26770000D02*
X29100000Y-26770000D01*
X26902500Y-13026200D02*
X26902500Y-13838900D01*
X83008300Y-10170000D02*
X83008300Y-6667700D01*
X31900000Y-29570000D02*
X32611700Y-29570000D01*
X83008300Y-6667700D02*
X83010000Y-2670000D01*
X52000000Y-11598600D02*
X52000000Y-11688500D01*
X26275000Y-9500000D02*
X24665800Y-7890800D01*
X79000000Y-6925000D02*
X77971300Y-7953700D01*
X84379500Y-21945500D02*
X83600000Y-22725000D01*
X37227300Y-1101500D02*
X34199000Y-4129800D01*
X44794300Y-20430700D02*
X44000000Y-21225000D01*
X83019400Y-52356800D02*
X83019400Y-48624800D01*
X52001500Y-11690200D02*
X52000000Y-11688700D01*
X38931700Y-35890000D02*
X32611700Y-29570000D01*
X44000000Y-16225000D02*
X44000000Y-7782000D01*
X24261700Y-35890000D02*
X29100000Y-31051700D01*
X21500000Y-8490000D02*
X21500000Y-9089200D01*
X22103300Y-49786700D02*
X15000000Y-49786700D01*
X67528300Y-49266900D02*
X67528300Y-50000000D01*
X74650000Y-17000000D02*
X73852300Y-17000000D01*
X27672100Y-12649200D02*
X27279500Y-12649200D01*
X73000000Y-5905000D02*
X74405000Y-4500000D01*
X69305300Y-7225000D02*
X73000000Y-7225000D01*
X68540000Y-50000000D02*
X69551700Y-50000000D01*
X77150000Y-8000000D02*
X77971300Y-8000000D01*
X23322900Y-12452100D02*
X23322900Y-13894300D01*
X51140700Y-11690200D02*
X50487400Y-12343500D01*
X44000000Y-16225000D02*
X44794300Y-17019300D01*
X69604600Y-9637400D02*
X67872200Y-11369800D01*
X20500000Y-36025000D02*
X22103300Y-36025000D01*
X34199000Y-4129800D02*
X34199000Y-6122300D01*
X29100000Y-29539800D02*
X29100000Y-29570000D01*
X23250000Y-35890000D02*
X24261700Y-35890000D01*
X21775000Y-15989400D02*
X21775000Y-16500000D01*
X22000000Y-8490000D02*
X22000000Y-9089200D01*
X79990000Y-18830000D02*
X78728300Y-18830000D01*
X53303400Y-11690200D02*
X52001500Y-11690200D01*
X78728300Y-10170000D02*
X78728300Y-10798300D01*
X79990000Y-10170000D02*
X78728300Y-10170000D01*
%TO.N,USB_DM*%
X22238300Y-20650000D02*
X22238300Y-18267000D01*
X25614100Y-14891200D02*
X27137800Y-14891200D01*
X28912700Y-13133400D02*
X37882700Y-4163400D01*
X28895600Y-13133400D02*
X28912700Y-13133400D01*
X23250000Y-20650000D02*
X22238300Y-20650000D01*
X79230000Y-13750000D02*
X75482800Y-13750000D01*
X75482800Y-13750000D02*
X73859400Y-15373400D01*
X22238300Y-18267000D02*
X25614100Y-14891200D01*
X73147700Y-17950000D02*
X73150200Y-17952500D01*
X75447700Y-16397500D02*
X75652100Y-16193100D01*
X27137800Y-14891200D02*
X28895600Y-13133400D01*
X73849800Y-17952500D02*
X73852300Y-17950000D01*
X37882700Y-3316200D02*
X38625300Y-2573600D01*
X75652100Y-15973100D02*
X76875200Y-14750000D01*
X75652100Y-16193100D02*
X75652100Y-15973100D01*
X74650000Y-17950000D02*
X73852300Y-17950000D01*
X74650000Y-17950000D02*
X75447700Y-17950000D01*
X72350000Y-17950000D02*
X73147700Y-17950000D01*
X75447700Y-17950000D02*
X75447700Y-16397500D01*
X79230000Y-14750000D02*
X78318300Y-14750000D01*
X37882700Y-4163400D02*
X37882700Y-3316200D01*
X73150200Y-17952500D02*
X73849800Y-17952500D01*
X76875200Y-14750000D02*
X78318300Y-14750000D01*
%TO.N,VBUS*%
X80412200Y-21189700D02*
X80412200Y-22382300D01*
X80412200Y-22382300D02*
X81165300Y-23135400D01*
X77717600Y-18495100D02*
X80412200Y-21189700D01*
X71552300Y-17000000D02*
X70889600Y-17662700D01*
X82830600Y-22684200D02*
X82830600Y-21844400D01*
X53498500Y-17117900D02*
X53498500Y-14547700D01*
X70494500Y-17267600D02*
X70889600Y-17662700D01*
X70494500Y-17267600D02*
X70494400Y-17267700D01*
X53322200Y-17294200D02*
X53498500Y-17117900D01*
X53498500Y-14547700D02*
X52950000Y-13999200D01*
X78287500Y-12477400D02*
X78664900Y-12100000D01*
X78287500Y-12666600D02*
X78287500Y-12477400D01*
X53648300Y-17267700D02*
X53498500Y-17117900D01*
X77233400Y-12937500D02*
X78016600Y-12937500D01*
X72350000Y-17000000D02*
X71552300Y-17000000D01*
X83075000Y-20550000D02*
X83600000Y-21075000D01*
X70889600Y-17662700D02*
X71721900Y-18495100D01*
X70494400Y-17267700D02*
X53648300Y-17267700D01*
X51225000Y-16500000D02*
X52019200Y-17294200D01*
X75404200Y-10500000D02*
X76664200Y-11760000D01*
X78664900Y-12100000D02*
X79230000Y-12100000D01*
X82379400Y-23135400D02*
X82830600Y-22684200D01*
X81750000Y-20550000D02*
X83075000Y-20550000D01*
X70650000Y-10500000D02*
X70650000Y-17112100D01*
X78016600Y-12937500D02*
X78287500Y-12666600D01*
X76664200Y-11760000D02*
X76664200Y-12368300D01*
X82830600Y-21844400D02*
X83600000Y-21075000D01*
X76664200Y-12368300D02*
X77233400Y-12937500D01*
X70650000Y-10500000D02*
X75404200Y-10500000D01*
X76059500Y-18495100D02*
X76059500Y-17218500D01*
X76059500Y-17218500D02*
X76378000Y-16900000D01*
X76378000Y-16900000D02*
X79230000Y-16900000D01*
X81165300Y-23135400D02*
X82379400Y-23135400D01*
X52019200Y-17294200D02*
X53322200Y-17294200D01*
X70650000Y-17112100D02*
X70494500Y-17267600D01*
X71721900Y-18495100D02*
X76059500Y-18495100D01*
X76059500Y-18495100D02*
X77717600Y-18495100D01*
X52950000Y-13150000D02*
X52950000Y-13999200D01*
%TO.N,VBAT*%
X47225000Y-16000000D02*
X49300000Y-18075000D01*
X78755000Y-28000000D02*
X79505000Y-28750000D01*
X50671600Y-10009800D02*
X52950000Y-10009800D01*
X52950000Y-10850000D02*
X52950000Y-10009800D01*
X49300000Y-18075000D02*
X49300000Y-28000000D01*
X47225000Y-13456400D02*
X50671600Y-10009800D01*
X74700000Y-28000000D02*
X78755000Y-28000000D01*
X47225000Y-16000000D02*
X47225000Y-13456400D01*
%TO.N,PROG*%
X51050000Y-12300800D02*
X55374200Y-12300800D01*
X51050000Y-13150000D02*
X51050000Y-12300800D01*
X55374200Y-12300800D02*
X56175000Y-11500000D01*
%TO.N,VSYS*%
X76100000Y-7842200D02*
X76100000Y-7259800D01*
X81968500Y-18742300D02*
X81968500Y-11639500D01*
X76094500Y-8387500D02*
X76094500Y-7847700D01*
X73000000Y-8775000D02*
X73387500Y-8387500D01*
X76094500Y-7847700D02*
X76100000Y-7842200D01*
X77150000Y-7050000D02*
X76309800Y-7050000D01*
X81970000Y-11638000D02*
X81970000Y-11316700D01*
X73387500Y-8387500D02*
X76094500Y-8387500D01*
X81970000Y-11316700D02*
X81968500Y-11315200D01*
X80980400Y-19730400D02*
X81968500Y-18742300D01*
X76309800Y-8950000D02*
X76094500Y-8734700D01*
X73000000Y-8775000D02*
X69075000Y-8775000D01*
X69075000Y-8775000D02*
X67350000Y-10500000D01*
X81667300Y-21788300D02*
X80980400Y-21101400D01*
X81750000Y-22450000D02*
X81750000Y-21788300D01*
X81750000Y-21788300D02*
X81667300Y-21788300D01*
X81968500Y-11639500D02*
X81970000Y-11638000D01*
X80980400Y-21101400D02*
X80980400Y-19730400D01*
X77150000Y-8950000D02*
X76309800Y-8950000D01*
X81968500Y-11315200D02*
X81968500Y-7842200D01*
X76094500Y-8734700D02*
X76094500Y-8387500D01*
X76100000Y-7259800D02*
X76309800Y-7050000D01*
%TO.N,EN*%
X7876600Y-49807500D02*
X7876600Y-44805400D01*
X17650100Y-36097100D02*
X17650100Y-41463400D01*
X75148300Y-50000000D02*
X75148300Y-49241200D01*
X77171700Y-48729700D02*
X77774800Y-48126600D01*
X77774800Y-48126600D02*
X83032700Y-48126600D01*
X21000000Y-49150000D02*
X21000000Y-45450000D01*
X83032700Y-48126600D02*
X83381100Y-48475000D01*
X10963800Y-52894700D02*
X7876600Y-49807500D01*
X83381100Y-48475000D02*
X83381100Y-52506600D01*
X11218600Y-41463400D02*
X17650100Y-41463400D01*
X44000000Y-22551700D02*
X45525700Y-21026000D01*
X44000000Y-22775000D02*
X44000000Y-22551700D01*
X17650100Y-41463400D02*
X21000000Y-44813300D01*
X82993000Y-52894700D02*
X10963800Y-52894700D01*
X83381100Y-52506600D02*
X82993000Y-52894700D01*
X46176200Y-24951200D02*
X44000000Y-22775000D01*
X77171700Y-50000000D02*
X77171700Y-48729700D01*
X76160000Y-50000000D02*
X75148300Y-50000000D01*
X7876600Y-44805400D02*
X11218600Y-41463400D01*
X64365700Y-38458600D02*
X57231500Y-38458600D01*
X46176200Y-27403300D02*
X46176200Y-24951200D01*
X45525700Y-7072300D02*
X48098000Y-4500000D01*
X45525700Y-21026000D02*
X45525700Y-7072300D01*
X20397200Y-33350000D02*
X17650100Y-36097100D01*
X76160000Y-50000000D02*
X77171700Y-50000000D01*
X23250000Y-33350000D02*
X20397200Y-33350000D01*
X75148300Y-49241200D02*
X64365700Y-38458600D01*
X57231500Y-38458600D02*
X46176200Y-27403300D01*
X21000000Y-45450000D02*
X21000000Y-44813300D01*
%TO.N,CHX1*%
X23250000Y-32080000D02*
X24261700Y-32080000D01*
X7175000Y-4500000D02*
X7470000Y-4795000D01*
X7470000Y-8814500D02*
X8364300Y-9708800D01*
X24462900Y-32440500D02*
X24261700Y-32239300D01*
X13787100Y-13741700D02*
X16935900Y-16890500D01*
X16935900Y-16890500D02*
X16935900Y-29480400D01*
X13683000Y-13741700D02*
X13787100Y-13741700D01*
X24261700Y-32239300D02*
X24261700Y-32080000D01*
X7470000Y-4795000D02*
X7470000Y-8814500D01*
%TO.N,NFC_ANT_A*%
X3200000Y-13438300D02*
X3354500Y-13283800D01*
X9741200Y-13283800D02*
X10125000Y-12900000D01*
X3354500Y-13283800D02*
X3717300Y-13283800D01*
X3200000Y-14200000D02*
X3200000Y-13438300D01*
X3717300Y-10524300D02*
X3717300Y-13283800D01*
X3717300Y-13283800D02*
X9741200Y-13283800D01*
X5565000Y-8676600D02*
X3717300Y-10524300D01*
X5565000Y-6950000D02*
X5565000Y-8676600D01*
%TO.N,NFC_ANT_B*%
X5840800Y-10303800D02*
X6835000Y-9309600D01*
X8000000Y-14200000D02*
X10375000Y-14200000D01*
X10375000Y-14200000D02*
X11675000Y-12900000D01*
X6835000Y-9309600D02*
X6835000Y-6950000D01*
%TO.N,IO0*%
X40750000Y-19380000D02*
X41255900Y-19380000D01*
X49019900Y-50148400D02*
X9361700Y-50148400D01*
X52795600Y-46372700D02*
X49019900Y-50148400D01*
X9361700Y-50148400D02*
X9000000Y-49786700D01*
X41255900Y-8511000D02*
X46444500Y-3322400D01*
X9000000Y-45450000D02*
X9000000Y-49150000D01*
X58146300Y-51723400D02*
X78338300Y-51723400D01*
X46444500Y-3322400D02*
X53465400Y-3322400D01*
X52795600Y-46372700D02*
X58146300Y-51723400D01*
X41761700Y-26946900D02*
X41761700Y-19380000D01*
X52795600Y-42418200D02*
X42140600Y-31763200D01*
X42140600Y-27325800D02*
X41761700Y-26946900D01*
X53465400Y-3322400D02*
X54643000Y-4500000D01*
X41255900Y-19380000D02*
X41255900Y-8511000D01*
X42140600Y-31763200D02*
X42140600Y-27325800D01*
X41255900Y-19380000D02*
X41761700Y-19380000D01*
X78700000Y-50000000D02*
X78700000Y-51361700D01*
X78338300Y-51723400D02*
X78700000Y-51361700D01*
X9000000Y-49150000D02*
X9000000Y-49786700D01*
X52795600Y-46372700D02*
X52795600Y-42418200D01*
%TO.N,VBAT_SW*%
X79505000Y-30250000D02*
X80424600Y-29330400D01*
X80424600Y-27962300D02*
X78553200Y-26090900D01*
X78553200Y-26090900D02*
X78553200Y-23058500D01*
X80424600Y-29330400D02*
X80424600Y-27962300D01*
X78553200Y-23058500D02*
X79450000Y-22161700D01*
X79450000Y-21500000D02*
X79450000Y-22161700D01*
%TO.N,CHX5*%
X33357000Y-4500000D02*
X29512500Y-8344500D01*
X24261700Y-27000000D02*
X24261700Y-26559800D01*
X21890900Y-13130100D02*
X19099500Y-15921500D01*
X23250000Y-27000000D02*
X24261700Y-27000000D01*
X19099500Y-15921500D02*
X19099500Y-17502100D01*
X21890900Y-12755300D02*
X21890900Y-13130100D01*
X19099500Y-17502100D02*
X21464300Y-19866900D01*
X21464300Y-19866900D02*
X21464300Y-26148700D01*
X24261700Y-26559800D02*
X24672800Y-26148700D01*
X29512500Y-8344500D02*
X29512500Y-9220600D01*
%TO.N,CHX4*%
X22238300Y-28270000D02*
X20484400Y-26516100D01*
X23250000Y-28270000D02*
X22238300Y-28270000D01*
X26632300Y-11571700D02*
X26632300Y-12501900D01*
X26811000Y-4500000D02*
X27757700Y-5446700D01*
X20484400Y-20029000D02*
X19417100Y-18961700D01*
X27757700Y-5446700D02*
X27757700Y-10446300D01*
X20484400Y-26516100D02*
X20484400Y-20029000D01*
X27757700Y-10446300D02*
X26632300Y-11571700D01*
%TO.N,CHX2*%
X25829800Y-21893400D02*
X25829800Y-29241900D01*
X23250000Y-30810000D02*
X24261700Y-30810000D01*
X18376100Y-20458800D02*
X19379100Y-21461800D01*
X13720000Y-4500000D02*
X17397700Y-8177700D01*
X19314900Y-12501300D02*
X18376100Y-13440100D01*
X25354400Y-21418000D02*
X25829800Y-21893400D01*
X25829800Y-29241900D02*
X24261700Y-30810000D01*
X18376100Y-13440100D02*
X18376100Y-20458800D01*
X18849200Y-8177700D02*
X18849200Y-8177800D01*
X17397700Y-8177700D02*
X18849200Y-8177700D01*
%TO.N,CHX3*%
X23250000Y-29540000D02*
X24261700Y-29540000D01*
X25242200Y-26711500D02*
X25242200Y-28559500D01*
X26070500Y-11475300D02*
X26070500Y-13335900D01*
X27356500Y-8807700D02*
X27356500Y-10189300D01*
X22298400Y-3749600D02*
X27356500Y-8807700D01*
X26070500Y-13335900D02*
X26340700Y-13606100D01*
X20266000Y-4500000D02*
X21016400Y-3749600D01*
X27356500Y-10189300D02*
X26070500Y-11475300D01*
X21016400Y-3749600D02*
X22298400Y-3749600D01*
X25242200Y-28559500D02*
X24261700Y-29540000D01*
%TO.N,CHX6*%
X23250000Y-25730000D02*
X24261700Y-25730000D01*
X36886200Y-7515800D02*
X39902000Y-4500000D01*
X36886200Y-14079400D02*
X36886200Y-7515800D01*
X24261700Y-25730000D02*
X25078000Y-24913700D01*
X35382200Y-15583400D02*
X36886200Y-14079400D01*
X25078000Y-24913700D02*
X25078000Y-22189500D01*
%TO.N,SCL*%
X21046500Y-12152400D02*
X21046500Y-12902300D01*
X22452600Y-13079900D02*
X19461200Y-16071300D01*
X6835000Y-12250000D02*
X6835000Y-12163900D01*
X19199400Y-11190400D02*
X19372800Y-11363800D01*
X60767100Y-5266300D02*
X60364000Y-4863200D01*
X19461200Y-16071300D02*
X19461200Y-17352300D01*
X7808500Y-11190400D02*
X19199400Y-11190400D01*
X59926000Y-3753200D02*
X58605500Y-3753200D01*
X60364000Y-4191200D02*
X59926000Y-3753200D01*
X45633900Y-2596700D02*
X38968100Y-9262500D01*
X21876600Y-19767700D02*
X21876600Y-24098300D01*
X66967700Y-5266300D02*
X60767100Y-5266300D01*
X54943800Y-2596700D02*
X45633900Y-2596700D01*
X67734000Y-4500000D02*
X66967700Y-5266300D01*
X21876600Y-24098300D02*
X22238300Y-24460000D01*
X56871100Y-4524000D02*
X54943800Y-2596700D01*
X58605500Y-3753200D02*
X57834700Y-4524000D01*
X23250000Y-24460000D02*
X22238300Y-24460000D01*
X22452600Y-12509600D02*
X22452600Y-13079900D01*
X57834700Y-4524000D02*
X56871100Y-4524000D01*
X19461200Y-17352300D02*
X21876600Y-19767700D01*
X21641900Y-11698900D02*
X22452600Y-12509600D01*
X60364000Y-4863200D02*
X60364000Y-4191200D01*
X21500000Y-11698900D02*
X21046500Y-12152400D01*
X21500000Y-11698900D02*
X21641900Y-11698900D01*
X6835000Y-12163900D02*
X7808500Y-11190400D01*
X21500000Y-10510000D02*
X21500000Y-11698900D01*
%TO.N,IMU_INT*%
X17797200Y-9805400D02*
X17187700Y-9805400D01*
X20240000Y-8750000D02*
X18852600Y-8750000D01*
X17785500Y-22564100D02*
X17785500Y-12174800D01*
X23250000Y-23190000D02*
X24261700Y-23190000D01*
X24261700Y-23190000D02*
X24261700Y-23840800D01*
X17187700Y-9805400D02*
X16844100Y-9461800D01*
X19272400Y-24051000D02*
X17785500Y-22564100D01*
X18852600Y-8750000D02*
X17797200Y-9805400D01*
X24261700Y-23840800D02*
X24471900Y-24051000D01*
%TO.N,NFC_GPO*%
X44000000Y-30675000D02*
X42629900Y-29304900D01*
X5565000Y-12115100D02*
X6900900Y-10779200D01*
X34942500Y-8921200D02*
X34997400Y-8976100D01*
X5565000Y-12250000D02*
X5565000Y-12115100D01*
X42266300Y-26759800D02*
X42266300Y-11577900D01*
X18131900Y-10779200D02*
X19024100Y-9887000D01*
X34997400Y-8976100D02*
X34997400Y-11129800D01*
X42629900Y-29304900D02*
X42629900Y-27123400D01*
X35179900Y-16175400D02*
X35180000Y-16175400D01*
X35180000Y-16175400D02*
X35180000Y-18110000D01*
X42266300Y-11577900D02*
X41818200Y-11129800D01*
X34997400Y-11129800D02*
X34820500Y-11306700D01*
X34820500Y-15816000D02*
X35179900Y-16175400D01*
X42629900Y-27123400D02*
X42266300Y-26759800D01*
X6900900Y-10779200D02*
X18131900Y-10779200D01*
X34820500Y-11306700D02*
X34820500Y-15816000D01*
%TO.N,RXD*%
X41761700Y-31895800D02*
X41761700Y-30810000D01*
X40750000Y-30810000D02*
X41761700Y-30810000D01*
X52204000Y-46136400D02*
X52204000Y-42338100D01*
X72608300Y-49241200D02*
X69503500Y-46136400D01*
X72608300Y-50000000D02*
X72608300Y-49241200D01*
X52204000Y-42338100D02*
X41761700Y-31895800D01*
X73620000Y-50000000D02*
X72608300Y-50000000D01*
%TO.N,TXD*%
X71080000Y-50000000D02*
X70068300Y-50000000D01*
X70068300Y-50000000D02*
X70068300Y-47734900D01*
X45082200Y-35727800D02*
X41434400Y-32080000D01*
X45082200Y-39020300D02*
X45082200Y-35727800D01*
X41434400Y-32080000D02*
X40750000Y-32080000D01*
X70068300Y-47734900D02*
X61353700Y-39020300D01*
%TO.N,CC2*%
X77075000Y-16250000D02*
X76800000Y-15975000D01*
X79230000Y-16250000D02*
X77075000Y-16250000D01*
%TO.N,CC1*%
X79230000Y-13250000D02*
X78318300Y-13250000D01*
X77074200Y-13299200D02*
X78269100Y-13299200D01*
X75975000Y-12200000D02*
X77074200Y-13299200D01*
X78269100Y-13299200D02*
X78318300Y-13250000D01*
%TD*%
M02*
