%TF.GenerationSoftware,KiCad,Pcbnew,10.0.3*%
%TF.CreationDate,2026-07-31T15:20:20-04:00*%
%TF.ProjectId,NeuralCard,4e657572-616c-4436-9172-642e6b696361,rev?*%
%TF.SameCoordinates,Original*%
%TF.FileFunction,Copper,L1,Top*%
%TF.FilePolarity,Positive*%
%FSLAX46Y46*%
G04 Gerber Fmt 4.6, Leading zero omitted, Abs format (unit mm)*
G04 Created by KiCad (PCBNEW 10.0.3) date 2026-07-31 15:20:20*
%MOMM*%
%LPD*%
G01*
G04 APERTURE LIST*
%TA.AperFunction,EtchedComponent*%
%ADD10C,0.300000*%
%TD*%
%TA.AperFunction,SMDPad,CuDef*%
%ADD11R,0.800000X0.800000*%
%TD*%
%TA.AperFunction,ComponentPad*%
%ADD12C,1.200000*%
%TD*%
%TA.AperFunction,ViaPad*%
%ADD13C,0.600000*%
%TD*%
%TA.AperFunction,ViaPad*%
%ADD14C,0.500000*%
%TD*%
%TA.AperFunction,Conductor*%
%ADD15C,0.200000*%
%TD*%
G04 APERTURE END LIST*
%TO.C,ANT1*%
D10*
X69156200Y-58643400D02*
X68656200Y-51243400D01*
%TD*%
D11*
%TO.P,D6,1*%
%TO.N,CP1*%
X78406200Y-79443400D03*
%TO.P,D6,2*%
%TO.N,CP2*%
X76906200Y-79443400D03*
%TD*%
%TO.P,D16,1*%
%TO.N,CP1*%
X130006200Y-46332400D03*
%TO.P,D16,2*%
%TO.N,CP4*%
X128506200Y-46332400D03*
%TD*%
%TO.P,D23,1*%
%TO.N,CP3*%
X130006200Y-80554400D03*
%TO.P,D23,2*%
%TO.N,CP5*%
X128506200Y-80554400D03*
%TD*%
%TO.P,D11,1*%
%TO.N,CP1*%
X104206200Y-66300400D03*
%TO.P,D11,2*%
%TO.N,CP3*%
X102706200Y-66300400D03*
%TD*%
%TO.P,D14,1*%
%TO.N,CP5*%
X104206200Y-83443400D03*
%TO.P,D14,2*%
%TO.N,CP3*%
X102706200Y-83443400D03*
%TD*%
%TO.P,D9,1*%
%TO.N,CP5*%
X104206200Y-54872400D03*
%TO.P,D9,2*%
%TO.N,CP2*%
X102706200Y-54872400D03*
%TD*%
%TO.P,D10,1*%
%TO.N,CP6*%
X104206200Y-60586400D03*
%TO.P,D10,2*%
%TO.N,CP2*%
X102706200Y-60586400D03*
%TD*%
%TO.P,D8,1*%
%TO.N,CP4*%
X104206200Y-49157400D03*
%TO.P,D8,2*%
%TO.N,CP2*%
X102706200Y-49157400D03*
%TD*%
%TO.P,D18,1*%
%TO.N,CP3*%
X130006200Y-56110400D03*
%TO.P,D18,2*%
%TO.N,CP4*%
X128506200Y-56110400D03*
%TD*%
%TO.P,D1,1*%
%TO.N,CP2*%
X78406200Y-47443400D03*
%TO.P,D1,2*%
%TO.N,CP1*%
X76906200Y-47443400D03*
%TD*%
%TO.P,D7,1*%
%TO.N,CP3*%
X104206200Y-43443400D03*
%TO.P,D7,2*%
%TO.N,CP2*%
X102706200Y-43443400D03*
%TD*%
%TO.P,D12,1*%
%TO.N,CP2*%
X104206200Y-72014400D03*
%TO.P,D12,2*%
%TO.N,CP3*%
X102706200Y-72014400D03*
%TD*%
%TO.P,D5,1*%
%TO.N,CP6*%
X78406200Y-73043400D03*
%TO.P,D5,2*%
%TO.N,CP1*%
X76906200Y-73043400D03*
%TD*%
%TO.P,D24,1*%
%TO.N,CP4*%
X130006200Y-85443400D03*
%TO.P,D24,2*%
%TO.N,CP5*%
X128506200Y-85443400D03*
%TD*%
%TO.P,D2,1*%
%TO.N,CP3*%
X78406200Y-53843400D03*
%TO.P,D2,2*%
%TO.N,CP1*%
X76906200Y-53843400D03*
%TD*%
%TO.P,D17,1*%
%TO.N,CP2*%
X130006200Y-51221400D03*
%TO.P,D17,2*%
%TO.N,CP4*%
X128506200Y-51221400D03*
%TD*%
%TO.P,D13,1*%
%TO.N,CP4*%
X104206200Y-77729400D03*
%TO.P,D13,2*%
%TO.N,CP3*%
X102706200Y-77729400D03*
%TD*%
%TO.P,D22,1*%
%TO.N,CP2*%
X130006200Y-75665400D03*
%TO.P,D22,2*%
%TO.N,CP5*%
X128506200Y-75665400D03*
%TD*%
%TO.P,D20,1*%
%TO.N,CP6*%
X130006200Y-65887400D03*
%TO.P,D20,2*%
%TO.N,CP4*%
X128506200Y-65887400D03*
%TD*%
%TO.P,D15,1*%
%TO.N,CP6*%
X130006200Y-41443400D03*
%TO.P,D15,2*%
%TO.N,CP3*%
X128506200Y-41443400D03*
%TD*%
%TO.P,D21,1*%
%TO.N,CP1*%
X130006200Y-70776400D03*
%TO.P,D21,2*%
%TO.N,CP5*%
X128506200Y-70776400D03*
%TD*%
%TO.P,D19,1*%
%TO.N,CP5*%
X130006200Y-60999400D03*
%TO.P,D19,2*%
%TO.N,CP4*%
X128506200Y-60999400D03*
%TD*%
%TO.P,D3,1*%
%TO.N,CP4*%
X78406200Y-60243400D03*
%TO.P,D3,2*%
%TO.N,CP1*%
X76906200Y-60243400D03*
%TD*%
%TO.P,D4,1*%
%TO.N,CP5*%
X78406200Y-66643400D03*
%TO.P,D4,2*%
%TO.N,CP1*%
X76906200Y-66643400D03*
%TD*%
D12*
%TO.P,ANT1,2*%
%TO.N,NFC_ANT_B*%
X68656200Y-50643400D03*
%TO.P,ANT1,3*%
%TO.N,N/C*%
X69156200Y-59243400D03*
%TD*%
D13*
%TO.N,CP1*%
X123871300Y-63977000D03*
X71030000Y-46269400D03*
X129757100Y-47240900D03*
%TO.N,CP2*%
X77822100Y-45969000D03*
X102729700Y-59463400D03*
X103425300Y-65381300D03*
%TO.N,CP4*%
X103823900Y-50079200D03*
X80444000Y-60585600D03*
%TO.N,CP3*%
X86003300Y-56867100D03*
X84746300Y-48316000D03*
X97520600Y-70507200D03*
X82103100Y-51395500D03*
X102644000Y-76065000D03*
%TO.N,CP5*%
X104021500Y-53962500D03*
X124501900Y-85592500D03*
X123963000Y-80341800D03*
%TO.N,CP6*%
X103772900Y-41207600D03*
X106472400Y-60756100D03*
X104024700Y-59671100D03*
X105551500Y-64565900D03*
%TO.N,+3V3*%
X82920600Y-49778200D03*
X80014600Y-49572100D03*
%TO.N,IMU_INT*%
X80971100Y-44200100D03*
X78770700Y-57730000D03*
X85589400Y-60082700D03*
X78115300Y-43606500D03*
%TO.N,GND*%
X118525874Y-63385583D03*
X134447483Y-42395533D03*
X90843158Y-41348422D03*
X78220039Y-68577168D03*
X100365963Y-77852983D03*
X99802816Y-45933050D03*
X112656200Y-76443400D03*
X81665302Y-72665650D03*
D14*
X86514000Y-68068000D03*
D13*
X84656200Y-44443400D03*
X129620450Y-63443399D03*
X112725135Y-82610050D03*
X114564575Y-46796729D03*
X129679741Y-52692594D03*
X129576400Y-68391308D03*
X114564575Y-50903954D03*
X65606200Y-50710056D03*
X103656200Y-38843400D03*
X116934350Y-42546018D03*
X77670794Y-40437706D03*
X105925334Y-50287901D03*
X123687000Y-67733900D03*
X83454886Y-81414757D03*
X105608883Y-73177004D03*
D14*
X68756200Y-42543400D03*
D13*
X108469570Y-76628050D03*
X103656200Y-88043400D03*
X103807290Y-79363224D03*
X97085874Y-43704929D03*
X143656200Y-87443400D03*
X108656200Y-63443400D03*
X143656200Y-48443400D03*
D14*
X82556200Y-45383400D03*
D13*
X110325257Y-51696766D03*
X63256200Y-48443400D03*
%TO.N,SCL*%
X67444200Y-46513600D03*
X80720500Y-59635200D03*
X80880100Y-52026800D03*
X85836000Y-61444500D03*
X124168300Y-40267400D03*
%TO.N,SDA*%
X69675200Y-45782700D03*
X121492100Y-39681000D03*
X80684300Y-48276400D03*
X80393000Y-57730000D03*
X78861400Y-45075400D03*
X79662100Y-39874800D03*
X85718600Y-57730000D03*
%TO.N,IO0*%
X100039800Y-71786000D03*
X79886700Y-74854400D03*
%TO.N,EN*%
X121419700Y-72601700D03*
X101088900Y-75631000D03*
%TO.N,CHX6*%
X100498700Y-42327400D03*
X92714900Y-44510800D03*
X97540000Y-52026800D03*
X85538900Y-58647100D03*
%TO.N,NFC_ANT_A*%
X70911700Y-48196400D03*
X64112700Y-48296400D03*
%TO.N,NFC_GPO*%
X65973100Y-46844600D03*
X92078500Y-46724400D03*
%TD*%
%TO.N,CP1*%
D15*
X123871300Y-66300400D02*
X123871300Y-63977000D01*
X129757100Y-47240900D02*
X129963900Y-47034100D01*
X72204000Y-47443400D02*
X71030000Y-46269400D01*
X76906200Y-73745100D02*
X78406200Y-75245100D01*
X106153200Y-66300400D02*
X106153200Y-64316700D01*
X106153200Y-66300400D02*
X123871300Y-66300400D01*
X129963900Y-47034100D02*
X130006200Y-47034100D01*
X76906200Y-67383000D02*
X76906200Y-73043400D01*
X130006200Y-46332400D02*
X130006200Y-47034100D01*
X105800700Y-63964200D02*
X103187300Y-63964200D01*
X76906200Y-60243400D02*
X76906200Y-53843400D01*
X130006200Y-70776400D02*
X129304500Y-70776400D01*
X103187300Y-63964200D02*
X99768500Y-67383000D01*
X129304500Y-70298600D02*
X129304500Y-70776400D01*
X78406200Y-75245100D02*
X78406200Y-79443400D01*
X76906200Y-53843400D02*
X76906200Y-47443400D01*
X99768500Y-67383000D02*
X76906200Y-67383000D01*
X106153200Y-66300400D02*
X104206200Y-66300400D01*
X76906200Y-73043400D02*
X76906200Y-73745100D01*
X76906200Y-66643400D02*
X76906200Y-67383000D01*
X76906200Y-66643400D02*
X76906200Y-60243400D01*
X125306300Y-66300400D02*
X129304500Y-70298600D01*
X106153200Y-64316700D02*
X105800700Y-63964200D01*
X76906200Y-47443400D02*
X72204000Y-47443400D01*
X123871300Y-66300400D02*
X125306300Y-66300400D01*
%TO.N,CP2*%
X103504500Y-72014400D02*
X103504500Y-72453000D01*
X102706200Y-45589100D02*
X102706200Y-49157400D01*
X104206200Y-72014400D02*
X104907900Y-72014400D01*
X78406200Y-47443400D02*
X78406200Y-46553100D01*
X100928200Y-75029300D02*
X100839800Y-75029300D01*
X102706200Y-43443400D02*
X102706200Y-45589100D01*
X129304500Y-75665400D02*
X129304500Y-75226800D01*
X103504500Y-72453000D02*
X100928200Y-75029300D01*
X79107900Y-47443400D02*
X79107900Y-47550800D01*
X102706200Y-60586400D02*
X102706200Y-59463400D01*
X102706200Y-59463400D02*
X102706200Y-54872400D01*
X104206200Y-72014400D02*
X103504500Y-72014400D01*
X78406200Y-46553100D02*
X77822100Y-45969000D01*
X76906200Y-79443400D02*
X77607900Y-79443400D01*
X77607900Y-79882000D02*
X77607900Y-79443400D01*
X130006200Y-75665400D02*
X129304500Y-75665400D01*
X104206200Y-71312700D02*
X103425300Y-70531800D01*
X78406200Y-47443400D02*
X79107900Y-47443400D01*
X80714500Y-49157400D02*
X102706200Y-49157400D01*
X104922300Y-72000000D02*
X104907900Y-72014400D01*
X102706200Y-54872400D02*
X102706200Y-54170700D01*
X130707900Y-45807400D02*
X130489600Y-45589100D01*
X100839800Y-75029300D02*
X95724000Y-80145100D01*
X79107900Y-47550800D02*
X80714500Y-49157400D01*
X129304500Y-75226800D02*
X126077700Y-72000000D01*
X77871000Y-80145100D02*
X77607900Y-79882000D01*
X104206200Y-72014400D02*
X104206200Y-71312700D01*
X130006200Y-51221400D02*
X130006200Y-50519700D01*
X130489600Y-45589100D02*
X102706200Y-45589100D01*
X126077700Y-72000000D02*
X104922300Y-72000000D01*
X102729700Y-59463400D02*
X102706200Y-59463400D01*
X103425300Y-70531800D02*
X103425300Y-65381300D01*
X102706200Y-49157400D02*
X102706200Y-54170700D01*
X130707900Y-49818000D02*
X130707900Y-45807400D01*
X95724000Y-80145100D02*
X77871000Y-80145100D01*
X130006200Y-50519700D02*
X130707900Y-49818000D01*
%TO.N,CP4*%
X104206200Y-49157400D02*
X104206200Y-49859100D01*
X104206200Y-77729400D02*
X104907900Y-77729400D01*
X130490600Y-60244000D02*
X131151500Y-60904900D01*
X104907900Y-49157400D02*
X128506200Y-49157400D01*
X131151500Y-60904900D02*
X131151500Y-83596400D01*
X79448100Y-60583600D02*
X80442400Y-60583600D01*
X80442400Y-60583600D02*
X80442400Y-60585200D01*
X128506200Y-60999400D02*
X128506200Y-65887400D01*
X130006200Y-85443400D02*
X130006200Y-84741700D01*
X128506200Y-49157400D02*
X128506200Y-46332400D01*
X79107900Y-60243400D02*
X79448100Y-60583600D01*
X80442400Y-60585200D02*
X80442800Y-60585600D01*
X104907900Y-77729400D02*
X111920200Y-84741700D01*
X104206200Y-49157400D02*
X104907900Y-49157400D01*
X128506200Y-56110400D02*
X128506200Y-51221400D01*
X128506200Y-51221400D02*
X128506200Y-49157400D01*
X128506200Y-60244000D02*
X128506200Y-60999400D01*
X128506200Y-60244000D02*
X130490600Y-60244000D01*
X131151500Y-83596400D02*
X130006200Y-84741700D01*
X128506200Y-56110400D02*
X128506200Y-60244000D01*
X104044000Y-49859100D02*
X104206200Y-49859100D01*
X80442800Y-60585600D02*
X80444000Y-60585600D01*
X78406200Y-60243400D02*
X79107900Y-60243400D01*
X103823900Y-50079200D02*
X104044000Y-49859100D01*
X111920200Y-84741700D02*
X130006200Y-84741700D01*
%TO.N,CP3*%
X130006200Y-56110400D02*
X130006200Y-55408700D01*
X106907900Y-41443400D02*
X128506200Y-41443400D01*
X128506200Y-42145100D02*
X131162500Y-44801400D01*
X131162500Y-44801400D02*
X131162500Y-54252400D01*
X102706200Y-72014400D02*
X102004500Y-72014400D01*
X84746300Y-48316000D02*
X95361000Y-48316000D01*
X104907900Y-43443400D02*
X106907900Y-41443400D01*
X103208400Y-42708700D02*
X103504500Y-43004800D01*
X129304500Y-80993000D02*
X129041400Y-81256100D01*
X129304500Y-80554400D02*
X129304500Y-80993000D01*
X106062200Y-77016100D02*
X103595100Y-77016100D01*
X104206200Y-43443400D02*
X104907900Y-43443400D01*
X104206200Y-43443400D02*
X103504500Y-43443400D01*
X110302200Y-81256100D02*
X106062200Y-77016100D01*
X102706200Y-77729400D02*
X102706200Y-83443400D01*
X103407900Y-77729400D02*
X103407900Y-77203300D01*
X100497300Y-70507200D02*
X102004500Y-72014400D01*
X97520600Y-70507200D02*
X100497300Y-70507200D01*
X103407900Y-77203300D02*
X103595100Y-77016100D01*
X82103100Y-51395500D02*
X82103100Y-53843400D01*
X78757100Y-53843400D02*
X82103100Y-53843400D01*
X102706200Y-72014400D02*
X102706200Y-66300400D01*
X128506200Y-41443400D02*
X128506200Y-42145100D01*
X82979600Y-53843400D02*
X86003300Y-56867100D01*
X82103100Y-53843400D02*
X82979600Y-53843400D01*
X100968300Y-42708700D02*
X103208400Y-42708700D01*
X95361000Y-48316000D02*
X100968300Y-42708700D01*
X130006200Y-80554400D02*
X129304500Y-80554400D01*
X131162500Y-54252400D02*
X130006200Y-55408700D01*
X78406200Y-53843400D02*
X78757100Y-53843400D01*
X103595100Y-77016100D02*
X102644000Y-76065000D01*
X102706200Y-77729400D02*
X103407900Y-77729400D01*
X129041400Y-81256100D02*
X110302200Y-81256100D01*
X103504500Y-43004800D02*
X103504500Y-43443400D01*
%TO.N,CP5*%
X130734700Y-71274600D02*
X130734700Y-67061700D01*
X128506200Y-76395000D02*
X130530500Y-76395000D01*
X128506200Y-70776400D02*
X128506200Y-71478100D01*
X130734700Y-67061700D02*
X130734700Y-62429600D01*
X128506200Y-75665400D02*
X128506200Y-76395000D01*
X99067300Y-66643400D02*
X103445000Y-62265700D01*
X130006200Y-60999400D02*
X130006200Y-61701100D01*
X104206200Y-54147200D02*
X104206200Y-54872400D01*
X127806900Y-67061700D02*
X123010900Y-62265700D01*
X130734700Y-62429600D02*
X130006200Y-61701100D01*
X130707900Y-76217600D02*
X130707900Y-73679800D01*
X104206200Y-83443400D02*
X104907900Y-83443400D01*
X103445000Y-59992700D02*
X103406400Y-59954100D01*
X127591900Y-80341800D02*
X127804500Y-80554400D01*
X106907900Y-85443400D02*
X124501900Y-85443400D01*
X124501900Y-85443400D02*
X127804500Y-85443400D01*
X78406200Y-66643400D02*
X99067300Y-66643400D01*
X130707900Y-73679800D02*
X128506200Y-71478100D01*
X104021500Y-53962500D02*
X104206200Y-54147200D01*
X130734700Y-67061700D02*
X127806900Y-67061700D01*
X130530500Y-76395000D02*
X130707900Y-76217600D01*
X104206200Y-54872400D02*
X104206200Y-55574100D01*
X128506200Y-80554400D02*
X127804500Y-80554400D01*
X104907900Y-83443400D02*
X106907900Y-85443400D01*
X123010900Y-62265700D02*
X103445000Y-62265700D01*
X124501900Y-85443400D02*
X124501900Y-85592500D01*
X128506200Y-70776400D02*
X129251800Y-71522000D01*
X123963000Y-80341800D02*
X127591900Y-80341800D01*
X128506200Y-76395000D02*
X128506200Y-80554400D01*
X103406400Y-56373900D02*
X104206200Y-55574100D01*
X129251800Y-71522000D02*
X130487300Y-71522000D01*
X103406400Y-59954100D02*
X103406400Y-56373900D01*
X130487300Y-71522000D02*
X130734700Y-71274600D01*
X103445000Y-62265700D02*
X103445000Y-59992700D01*
X128506200Y-85443400D02*
X127804500Y-85443400D01*
%TO.N,CP6*%
X104206200Y-59852600D02*
X104024700Y-59671100D01*
X82245800Y-69905500D02*
X79107900Y-73043400D01*
X122672000Y-61288100D02*
X106472400Y-61288100D01*
X104074500Y-40906000D02*
X103772900Y-41207600D01*
X105551500Y-64565900D02*
X103155700Y-64565900D01*
X129041400Y-66589100D02*
X127973000Y-66589100D01*
X130006200Y-65887400D02*
X129304500Y-65887400D01*
X129041400Y-40741700D02*
X126331900Y-40741700D01*
X103155700Y-64565900D02*
X97816100Y-69905500D01*
X104206200Y-60586400D02*
X104206200Y-59852600D01*
X127973000Y-66589100D02*
X122672000Y-61288100D01*
X78406200Y-73043400D02*
X79107900Y-73043400D01*
X129304500Y-66326000D02*
X129041400Y-66589100D01*
X106472400Y-61288100D02*
X106472400Y-60756100D01*
X129304500Y-41443400D02*
X129304500Y-41004800D01*
X126331900Y-40741700D02*
X126167600Y-40906000D01*
X104206200Y-60586400D02*
X104206200Y-61288100D01*
X126167600Y-40906000D02*
X104074500Y-40906000D01*
X130006200Y-41443400D02*
X129304500Y-41443400D01*
X106472400Y-61288100D02*
X104206200Y-61288100D01*
X97816100Y-69905500D02*
X82245800Y-69905500D01*
X129304500Y-65887400D02*
X129304500Y-66326000D01*
X129304500Y-41004800D02*
X129041400Y-40741700D01*
%TO.N,+3V3*%
X82714500Y-49572100D02*
X82920600Y-49778200D01*
X80014600Y-49572100D02*
X82714500Y-49572100D01*
%TO.N,IMU_INT*%
X80377500Y-43606500D02*
X78115300Y-43606500D01*
X79723300Y-58682600D02*
X84189300Y-58682600D01*
X78770700Y-57730000D02*
X79723300Y-58682600D01*
X80971100Y-44200100D02*
X80377500Y-43606500D01*
X84189300Y-58682600D02*
X85589400Y-60082700D01*
%TO.N,SCL*%
X75716100Y-38241700D02*
X67444200Y-46513600D01*
X104257900Y-38594200D02*
X104257900Y-38594100D01*
X65699800Y-46242700D02*
X65307200Y-46635300D01*
X124168300Y-40267400D02*
X122495100Y-38594200D01*
X104257900Y-38594100D02*
X103905500Y-38241700D01*
X80720500Y-59635200D02*
X84026700Y-59635200D01*
X68790900Y-47582100D02*
X70735600Y-45637400D01*
X76352900Y-45637400D02*
X77607900Y-46892400D01*
X67173300Y-46242700D02*
X65699800Y-46242700D01*
X70735600Y-45637400D02*
X76352900Y-45637400D01*
X77607900Y-48754600D02*
X80880100Y-52026800D01*
X67444200Y-46513600D02*
X67173300Y-46242700D01*
X65307200Y-47108800D02*
X65780500Y-47582100D01*
X84026700Y-59635200D02*
X85836000Y-61444500D01*
X65780500Y-47582100D02*
X68790900Y-47582100D01*
X77607900Y-46892400D02*
X77607900Y-48754600D01*
X65307200Y-46635300D02*
X65307200Y-47108800D01*
X103905500Y-38241700D02*
X75716100Y-38241700D01*
X122495100Y-38594200D02*
X104257900Y-38594200D01*
%TO.N,SDA*%
X78861400Y-45075400D02*
X80684300Y-46898300D01*
X85718600Y-57730000D02*
X80393000Y-57730000D01*
X79662100Y-39874800D02*
X79855900Y-39681000D01*
X70382500Y-45075400D02*
X69675200Y-45782700D01*
X78861400Y-45075400D02*
X70382500Y-45075400D01*
X80684300Y-46898300D02*
X80684300Y-48276400D01*
X79855900Y-39681000D02*
X121492100Y-39681000D01*
%TO.N,IO0*%
X100039800Y-71786000D02*
X96971400Y-74854400D01*
X96971400Y-74854400D02*
X79886700Y-74854400D01*
%TO.N,EN*%
X121419700Y-72601700D02*
X118558100Y-75463300D01*
X118558100Y-75463300D02*
X101256600Y-75463300D01*
X101256600Y-75463300D02*
X101088900Y-75631000D01*
%TO.N,CHX6*%
X85538900Y-58647100D02*
X90919700Y-58647100D01*
X90919700Y-58647100D02*
X97540000Y-52026800D01*
X94898300Y-42327400D02*
X100498700Y-42327400D01*
X92714900Y-44510800D02*
X94898300Y-42327400D01*
%TO.N,NFC_ANT_A*%
X64212700Y-48196400D02*
X64112700Y-48296400D01*
X70911700Y-48196400D02*
X64212700Y-48196400D01*
%TO.N,NFC_GPO*%
X92078500Y-46724400D02*
X81361300Y-46724400D01*
X66308900Y-47180400D02*
X65973100Y-46844600D01*
X70133400Y-44473700D02*
X69073500Y-45533600D01*
X81361300Y-46724400D02*
X79110600Y-44473700D01*
X67657900Y-47180400D02*
X66308900Y-47180400D01*
X79110600Y-44473700D02*
X70133400Y-44473700D01*
X69073500Y-45764800D02*
X67657900Y-47180400D01*
X69073500Y-45533600D02*
X69073500Y-45764800D01*
%TD*%
%TA.AperFunction,Conductor*%
%TO.N,GND*%
G36*
X103522213Y-78252001D02*
G01*
X103546763Y-78285789D01*
X103553994Y-78302165D01*
X103633435Y-78381606D01*
X103736209Y-78426985D01*
X103761335Y-78429900D01*
X104651064Y-78429899D01*
X104676191Y-78426985D01*
X104778965Y-78381606D01*
X104816336Y-78344234D01*
X104870850Y-78316458D01*
X104931282Y-78326029D01*
X104956342Y-78344235D01*
X111486004Y-84873896D01*
X111513781Y-84928413D01*
X111504210Y-84988845D01*
X111460945Y-85032110D01*
X111416000Y-85042900D01*
X107114801Y-85042900D01*
X107056610Y-85023993D01*
X107044797Y-85013904D01*
X106126498Y-84095605D01*
X105153813Y-83122920D01*
X105153810Y-83122918D01*
X105153809Y-83122917D01*
X105153808Y-83122916D01*
X105062491Y-83070194D01*
X105062493Y-83070194D01*
X105006873Y-83055291D01*
X104974673Y-83046663D01*
X104923360Y-83013340D01*
X104904769Y-82977026D01*
X104903785Y-82973410D01*
X104903785Y-82973409D01*
X104858406Y-82870635D01*
X104778965Y-82791194D01*
X104676191Y-82745815D01*
X104676190Y-82745814D01*
X104676188Y-82745814D01*
X104651068Y-82742900D01*
X103761339Y-82742900D01*
X103761336Y-82742901D01*
X103736209Y-82745814D01*
X103633435Y-82791194D01*
X103553993Y-82870636D01*
X103546764Y-82887009D01*
X103505963Y-82932604D01*
X103446154Y-82945509D01*
X103390183Y-82920795D01*
X103365636Y-82887009D01*
X103358406Y-82870636D01*
X103358406Y-82870635D01*
X103278965Y-82791194D01*
X103176191Y-82745815D01*
X103176188Y-82745814D01*
X103169379Y-82742808D01*
X103170337Y-82740636D01*
X103128519Y-82713246D01*
X103106816Y-82656038D01*
X103106700Y-82651245D01*
X103106700Y-78521555D01*
X103125607Y-78463364D01*
X103169902Y-78431181D01*
X103169378Y-78429993D01*
X103174884Y-78427561D01*
X103175107Y-78427400D01*
X103175548Y-78427268D01*
X103176188Y-78426985D01*
X103176191Y-78426985D01*
X103278965Y-78381606D01*
X103358406Y-78302165D01*
X103365635Y-78285792D01*
X103406432Y-78240197D01*
X103466240Y-78227289D01*
X103522213Y-78252001D01*
G37*
%TD.AperFunction*%
%TA.AperFunction,Conductor*%
G36*
X105913490Y-77435507D02*
G01*
X105925303Y-77445596D01*
X109981718Y-81502010D01*
X109981720Y-81502013D01*
X110056287Y-81576580D01*
X110056289Y-81576581D01*
X110147607Y-81629304D01*
X110147608Y-81629304D01*
X110147613Y-81629307D01*
X110249474Y-81656601D01*
X110249476Y-81656601D01*
X110360990Y-81656601D01*
X110361006Y-81656600D01*
X129094125Y-81656600D01*
X129094127Y-81656600D01*
X129195988Y-81629307D01*
X129195990Y-81629305D01*
X129195992Y-81629305D01*
X129287308Y-81576583D01*
X129287308Y-81576582D01*
X129287313Y-81576580D01*
X129550411Y-81313481D01*
X129550413Y-81313480D01*
X129580000Y-81283892D01*
X129606736Y-81270270D01*
X129634512Y-81256118D01*
X129650000Y-81254899D01*
X130451061Y-81254899D01*
X130451064Y-81254899D01*
X130476191Y-81251985D01*
X130578965Y-81206606D01*
X130581998Y-81203572D01*
X130636513Y-81175797D01*
X130696945Y-81185368D01*
X130740210Y-81228633D01*
X130751000Y-81273578D01*
X130751000Y-83389499D01*
X130732093Y-83447690D01*
X130722004Y-83459503D01*
X129869303Y-84312204D01*
X129814786Y-84339981D01*
X129799299Y-84341200D01*
X112127100Y-84341200D01*
X112068909Y-84322293D01*
X112057096Y-84312204D01*
X105330497Y-77585604D01*
X105302720Y-77531087D01*
X105312291Y-77470655D01*
X105355556Y-77427390D01*
X105400501Y-77416600D01*
X105855299Y-77416600D01*
X105913490Y-77435507D01*
G37*
%TD.AperFunction*%
%TA.AperFunction,Conductor*%
G36*
X125928990Y-72419407D02*
G01*
X125940803Y-72429496D01*
X128307203Y-74795896D01*
X128334980Y-74850413D01*
X128325409Y-74910845D01*
X128282144Y-74954110D01*
X128237200Y-74964900D01*
X128061339Y-74964900D01*
X128061336Y-74964901D01*
X128036209Y-74967814D01*
X127933435Y-75013194D01*
X127853994Y-75092635D01*
X127808614Y-75195411D01*
X127805700Y-75220530D01*
X127805700Y-76110260D01*
X127805701Y-76110263D01*
X127808614Y-76135390D01*
X127812441Y-76144057D01*
X127853994Y-76238165D01*
X127933435Y-76317606D01*
X128036209Y-76362985D01*
X128036211Y-76362985D01*
X128043021Y-76365992D01*
X128042060Y-76368166D01*
X128083865Y-76395534D01*
X128105583Y-76452735D01*
X128105700Y-76457554D01*
X128105700Y-79762244D01*
X128086793Y-79820435D01*
X128042497Y-79852618D01*
X128043022Y-79853807D01*
X128037511Y-79856239D01*
X128037293Y-79856399D01*
X128036857Y-79856529D01*
X127933433Y-79902195D01*
X127876627Y-79959001D01*
X127822110Y-79986778D01*
X127761678Y-79977206D01*
X127757123Y-79974733D01*
X127746491Y-79968594D01*
X127746488Y-79968593D01*
X127644627Y-79941300D01*
X127644625Y-79941300D01*
X124452744Y-79941300D01*
X124394553Y-79922393D01*
X124382741Y-79912304D01*
X124331718Y-79861282D01*
X124331716Y-79861280D01*
X124194784Y-79782223D01*
X124042057Y-79741300D01*
X123883943Y-79741300D01*
X123731216Y-79782223D01*
X123594284Y-79861280D01*
X123482480Y-79973084D01*
X123403423Y-80110016D01*
X123362500Y-80262743D01*
X123362500Y-80420857D01*
X123403423Y-80573584D01*
X123480509Y-80707103D01*
X123493230Y-80766948D01*
X123468343Y-80822844D01*
X123415355Y-80853437D01*
X123394772Y-80855600D01*
X110509100Y-80855600D01*
X110450909Y-80836693D01*
X110439096Y-80826604D01*
X108403686Y-78791194D01*
X106308113Y-76695620D01*
X106308110Y-76695618D01*
X106308108Y-76695616D01*
X106216791Y-76642894D01*
X106216793Y-76642894D01*
X106177270Y-76632304D01*
X106114927Y-76615600D01*
X106114925Y-76615600D01*
X103802000Y-76615600D01*
X103743809Y-76596693D01*
X103731996Y-76586603D01*
X103273496Y-76128102D01*
X103270514Y-76122250D01*
X103265093Y-76118542D01*
X103257964Y-76097620D01*
X103245719Y-76073586D01*
X103244540Y-76060912D01*
X103244500Y-76059504D01*
X103244500Y-75985943D01*
X103242160Y-75977212D01*
X103241831Y-75965613D01*
X103247342Y-75946852D01*
X103248366Y-75927322D01*
X103255763Y-75918186D01*
X103259077Y-75906909D01*
X103274565Y-75894969D01*
X103286872Y-75879772D01*
X103298901Y-75876208D01*
X103307535Y-75869553D01*
X103322838Y-75869117D01*
X103340791Y-75863800D01*
X118610825Y-75863800D01*
X118610827Y-75863800D01*
X118712688Y-75836507D01*
X118712690Y-75836505D01*
X118712692Y-75836505D01*
X118804008Y-75783783D01*
X118804008Y-75783782D01*
X118804013Y-75783780D01*
X121356596Y-73231195D01*
X121411113Y-73203419D01*
X121426600Y-73202200D01*
X121498755Y-73202200D01*
X121498757Y-73202200D01*
X121651484Y-73161277D01*
X121788416Y-73082220D01*
X121900220Y-72970416D01*
X121979277Y-72833484D01*
X122020200Y-72680757D01*
X122020200Y-72522643D01*
X122020199Y-72522642D01*
X122019353Y-72516211D01*
X122021344Y-72515948D01*
X122024066Y-72464022D01*
X122062572Y-72416472D01*
X122116491Y-72400500D01*
X125870799Y-72400500D01*
X125928990Y-72419407D01*
G37*
%TD.AperFunction*%
%TA.AperFunction,Conductor*%
G36*
X96882000Y-70324907D02*
G01*
X96917964Y-70374407D01*
X96919196Y-70421480D01*
X96920947Y-70421711D01*
X96920100Y-70428142D01*
X96920100Y-70428143D01*
X96920100Y-70586257D01*
X96961023Y-70738984D01*
X97040080Y-70875916D01*
X97151884Y-70987720D01*
X97288816Y-71066777D01*
X97441543Y-71107700D01*
X97441545Y-71107700D01*
X97599655Y-71107700D01*
X97599657Y-71107700D01*
X97752384Y-71066777D01*
X97889316Y-70987720D01*
X97916626Y-70960410D01*
X97940341Y-70936696D01*
X97994858Y-70908919D01*
X98010344Y-70907700D01*
X100290399Y-70907700D01*
X100348590Y-70926607D01*
X100360403Y-70936696D01*
X101684018Y-72260310D01*
X101684020Y-72260313D01*
X101758587Y-72334880D01*
X101758589Y-72334881D01*
X101838150Y-72380816D01*
X101838152Y-72380816D01*
X101847996Y-72386500D01*
X101849913Y-72387607D01*
X101939336Y-72411568D01*
X101940891Y-72412041D01*
X101964697Y-72428651D01*
X101989040Y-72444460D01*
X101989976Y-72446289D01*
X101991069Y-72447052D01*
X101992535Y-72451286D01*
X102007631Y-72480774D01*
X102008614Y-72484389D01*
X102008615Y-72484391D01*
X102053994Y-72587165D01*
X102133435Y-72666606D01*
X102236209Y-72711985D01*
X102261335Y-72714900D01*
X102437198Y-72714899D01*
X102495388Y-72733806D01*
X102531352Y-72783306D01*
X102531353Y-72844491D01*
X102507202Y-72883903D01*
X100771999Y-74619106D01*
X100740746Y-74640203D01*
X100734336Y-74642929D01*
X100685212Y-74656093D01*
X100639550Y-74682456D01*
X100634340Y-74685463D01*
X100634340Y-74685464D01*
X100593886Y-74708820D01*
X100519319Y-74783386D01*
X100519320Y-74783387D01*
X95587103Y-79715604D01*
X95532586Y-79743381D01*
X95517099Y-79744600D01*
X79205700Y-79744600D01*
X79147509Y-79725693D01*
X79111545Y-79676193D01*
X79106700Y-79645600D01*
X79106699Y-78998539D01*
X79106699Y-78998536D01*
X79103785Y-78973409D01*
X79058406Y-78870635D01*
X78978965Y-78791194D01*
X78876191Y-78745815D01*
X78876188Y-78745814D01*
X78869379Y-78742808D01*
X78870337Y-78740636D01*
X78828519Y-78713246D01*
X78806816Y-78656038D01*
X78806700Y-78651245D01*
X78806700Y-75192374D01*
X78806700Y-75192373D01*
X78779407Y-75090513D01*
X78726680Y-74999187D01*
X78692393Y-74964900D01*
X78652113Y-74924619D01*
X78652113Y-74924620D01*
X78502836Y-74775343D01*
X79286200Y-74775343D01*
X79286200Y-74933457D01*
X79327123Y-75086184D01*
X79406180Y-75223116D01*
X79517984Y-75334920D01*
X79654916Y-75413977D01*
X79807643Y-75454900D01*
X79807645Y-75454900D01*
X79965755Y-75454900D01*
X79965757Y-75454900D01*
X80118484Y-75413977D01*
X80255416Y-75334920D01*
X80280929Y-75309406D01*
X80306441Y-75283896D01*
X80360958Y-75256119D01*
X80376444Y-75254900D01*
X97024125Y-75254900D01*
X97024127Y-75254900D01*
X97125988Y-75227607D01*
X97125990Y-75227605D01*
X97125992Y-75227605D01*
X97217308Y-75174883D01*
X97217308Y-75174882D01*
X97217313Y-75174880D01*
X99976697Y-72415496D01*
X100031214Y-72387719D01*
X100046701Y-72386500D01*
X100118855Y-72386500D01*
X100118857Y-72386500D01*
X100271584Y-72345577D01*
X100408516Y-72266520D01*
X100520320Y-72154716D01*
X100599377Y-72017784D01*
X100640300Y-71865057D01*
X100640300Y-71706943D01*
X100599377Y-71554216D01*
X100520320Y-71417284D01*
X100408516Y-71305480D01*
X100271584Y-71226423D01*
X100118857Y-71185500D01*
X99960743Y-71185500D01*
X99808016Y-71226423D01*
X99671084Y-71305480D01*
X99559280Y-71417284D01*
X99480223Y-71554216D01*
X99459196Y-71632692D01*
X99439300Y-71706944D01*
X99439300Y-71779099D01*
X99420393Y-71837290D01*
X99410304Y-71849103D01*
X96834503Y-74424904D01*
X96779986Y-74452681D01*
X96764499Y-74453900D01*
X80376444Y-74453900D01*
X80318253Y-74434993D01*
X80306441Y-74424904D01*
X80255418Y-74373882D01*
X80255416Y-74373880D01*
X80118484Y-74294823D01*
X79965757Y-74253900D01*
X79807643Y-74253900D01*
X79654916Y-74294823D01*
X79517984Y-74373880D01*
X79406180Y-74485684D01*
X79327123Y-74622616D01*
X79286200Y-74775343D01*
X78502836Y-74775343D01*
X77521035Y-73793542D01*
X77516668Y-73784972D01*
X77509079Y-73779068D01*
X77503075Y-73758292D01*
X77493258Y-73739025D01*
X77494762Y-73729527D01*
X77492092Y-73720288D01*
X77498604Y-73705268D01*
X77502829Y-73678593D01*
X77512900Y-73662750D01*
X77516680Y-73657890D01*
X77558406Y-73616165D01*
X77570567Y-73588622D01*
X77578060Y-73578991D01*
X77593773Y-73568344D01*
X77606432Y-73554197D01*
X77618496Y-73551593D01*
X77628713Y-73544671D01*
X77647683Y-73545293D01*
X77666240Y-73541289D01*
X77677531Y-73546273D01*
X77689866Y-73546679D01*
X77704847Y-73558334D01*
X77722213Y-73566001D01*
X77731977Y-73579440D01*
X77738159Y-73584249D01*
X77739933Y-73590389D01*
X77746763Y-73599789D01*
X77753994Y-73616165D01*
X77833435Y-73695606D01*
X77936209Y-73740985D01*
X77961335Y-73743900D01*
X78851064Y-73743899D01*
X78876191Y-73740985D01*
X78978965Y-73695606D01*
X79058406Y-73616165D01*
X79103785Y-73513391D01*
X79103785Y-73513382D01*
X79104767Y-73509778D01*
X79106647Y-73506905D01*
X79106792Y-73506579D01*
X79106846Y-73506602D01*
X79138284Y-73458590D01*
X79174668Y-73440137D01*
X79262488Y-73416607D01*
X79353813Y-73363880D01*
X82382696Y-70334995D01*
X82437213Y-70307219D01*
X82452700Y-70306000D01*
X96823809Y-70306000D01*
X96882000Y-70324907D01*
G37*
%TD.AperFunction*%
%TA.AperFunction,Conductor*%
G36*
X120749669Y-72409194D02*
G01*
X120776828Y-72416472D01*
X120778528Y-72418571D01*
X120781100Y-72419407D01*
X120797639Y-72442171D01*
X120815334Y-72464022D01*
X120815475Y-72466720D01*
X120817064Y-72468907D01*
X120818296Y-72515980D01*
X120820047Y-72516211D01*
X120819200Y-72522644D01*
X120819200Y-72594799D01*
X120800293Y-72652990D01*
X120790204Y-72664803D01*
X118421203Y-75033804D01*
X118366686Y-75061581D01*
X118351199Y-75062800D01*
X101700101Y-75062800D01*
X101641910Y-75043893D01*
X101605946Y-74994393D01*
X101605946Y-74933207D01*
X101630097Y-74893796D01*
X103779997Y-72743895D01*
X103834514Y-72716118D01*
X103850001Y-72714899D01*
X104651061Y-72714899D01*
X104651064Y-72714899D01*
X104676191Y-72711985D01*
X104778965Y-72666606D01*
X104858406Y-72587165D01*
X104903785Y-72484391D01*
X104903785Y-72484382D01*
X104904767Y-72480778D01*
X104906647Y-72477905D01*
X104906792Y-72477579D01*
X104906846Y-72477602D01*
X104938284Y-72429590D01*
X104974671Y-72411137D01*
X105001786Y-72403871D01*
X105027403Y-72400500D01*
X120722909Y-72400500D01*
X120749669Y-72409194D01*
G37*
%TD.AperFunction*%
%TA.AperFunction,Conductor*%
G36*
X125157590Y-66719807D02*
G01*
X125169403Y-66729896D01*
X128346404Y-69906896D01*
X128374181Y-69961413D01*
X128364610Y-70021845D01*
X128321345Y-70065110D01*
X128276400Y-70075900D01*
X128061339Y-70075900D01*
X128061336Y-70075901D01*
X128036209Y-70078814D01*
X127933435Y-70124194D01*
X127853994Y-70203635D01*
X127808614Y-70306411D01*
X127805700Y-70331530D01*
X127805700Y-71221260D01*
X127805701Y-71221263D01*
X127808614Y-71246390D01*
X127832067Y-71299506D01*
X127853994Y-71349165D01*
X127933435Y-71428606D01*
X128036209Y-71473985D01*
X128036221Y-71473986D01*
X128039824Y-71474967D01*
X128042699Y-71476850D01*
X128043021Y-71476992D01*
X128042997Y-71477045D01*
X128091011Y-71508486D01*
X128109463Y-71544871D01*
X128127959Y-71613900D01*
X128132994Y-71632692D01*
X128185716Y-71724008D01*
X128185718Y-71724010D01*
X128185720Y-71724013D01*
X130278405Y-73816698D01*
X130306181Y-73871213D01*
X130307400Y-73886700D01*
X130307400Y-74865900D01*
X130288493Y-74924091D01*
X130238993Y-74960055D01*
X130208400Y-74964900D01*
X129650001Y-74964900D01*
X129591810Y-74945993D01*
X129579997Y-74935904D01*
X129550413Y-74906320D01*
X128007973Y-73363880D01*
X126323613Y-71679520D01*
X126323610Y-71679518D01*
X126323609Y-71679517D01*
X126323608Y-71679516D01*
X126232291Y-71626794D01*
X126232293Y-71626794D01*
X126192770Y-71616204D01*
X126130427Y-71599500D01*
X126130425Y-71599500D01*
X104992618Y-71599500D01*
X104934427Y-71580593D01*
X104902054Y-71540489D01*
X104858406Y-71441635D01*
X104778965Y-71362194D01*
X104676191Y-71316815D01*
X104676187Y-71316814D01*
X104672569Y-71315830D01*
X104669693Y-71313947D01*
X104669379Y-71313808D01*
X104669402Y-71313755D01*
X104621384Y-71282308D01*
X104602936Y-71245928D01*
X104579407Y-71158113D01*
X104526680Y-71066787D01*
X104526669Y-71066776D01*
X104452113Y-70992219D01*
X104452113Y-70992220D01*
X103854796Y-70394903D01*
X103827019Y-70340386D01*
X103825800Y-70324899D01*
X103825800Y-67099899D01*
X103844707Y-67041708D01*
X103894207Y-67005744D01*
X103924800Y-67000899D01*
X104651061Y-67000899D01*
X104651064Y-67000899D01*
X104676191Y-66997985D01*
X104778965Y-66952606D01*
X104858406Y-66873165D01*
X104903785Y-66770391D01*
X104903785Y-66770388D01*
X104906792Y-66763579D01*
X104908963Y-66764537D01*
X104936354Y-66722719D01*
X104993562Y-66701016D01*
X104998355Y-66700900D01*
X106100473Y-66700900D01*
X123818573Y-66700900D01*
X125099399Y-66700900D01*
X125157590Y-66719807D01*
G37*
%TD.AperFunction*%
%TA.AperFunction,Conductor*%
G36*
X99190890Y-67802407D02*
G01*
X99226854Y-67851907D01*
X99226854Y-67913093D01*
X99202703Y-67952504D01*
X97679203Y-69476004D01*
X97624686Y-69503781D01*
X97609199Y-69505000D01*
X82304606Y-69505000D01*
X82304590Y-69504999D01*
X82298527Y-69504999D01*
X82193073Y-69504999D01*
X82193070Y-69504999D01*
X82091213Y-69532292D01*
X82091209Y-69532294D01*
X81999887Y-69585019D01*
X81925319Y-69659586D01*
X81925320Y-69659587D01*
X81925318Y-69659589D01*
X79156342Y-72428563D01*
X79101825Y-72456340D01*
X79041393Y-72446769D01*
X79016335Y-72428563D01*
X78978966Y-72391195D01*
X78978965Y-72391194D01*
X78876191Y-72345815D01*
X78876190Y-72345814D01*
X78876188Y-72345814D01*
X78851068Y-72342900D01*
X77961339Y-72342900D01*
X77961336Y-72342901D01*
X77936209Y-72345814D01*
X77833435Y-72391194D01*
X77753993Y-72470636D01*
X77746764Y-72487009D01*
X77705963Y-72532604D01*
X77646154Y-72545509D01*
X77590183Y-72520795D01*
X77565636Y-72487009D01*
X77558406Y-72470636D01*
X77558406Y-72470635D01*
X77478965Y-72391194D01*
X77376191Y-72345815D01*
X77376188Y-72345814D01*
X77369379Y-72342808D01*
X77370337Y-72340636D01*
X77328519Y-72313246D01*
X77306816Y-72256038D01*
X77306700Y-72251245D01*
X77306700Y-67882500D01*
X77325607Y-67824309D01*
X77375107Y-67788345D01*
X77405700Y-67783500D01*
X99132699Y-67783500D01*
X99190890Y-67802407D01*
G37*
%TD.AperFunction*%
%TA.AperFunction,Conductor*%
G36*
X124437377Y-64302665D02*
G01*
X124456809Y-64300616D01*
X124467851Y-64306609D01*
X124478684Y-64308011D01*
X124489818Y-64318531D01*
X124506263Y-64327456D01*
X127560987Y-67382180D01*
X127560989Y-67382181D01*
X127560990Y-67382182D01*
X127560991Y-67382183D01*
X127652308Y-67434905D01*
X127652306Y-67434905D01*
X127652310Y-67434906D01*
X127652312Y-67434907D01*
X127754173Y-67462200D01*
X130235200Y-67462200D01*
X130293391Y-67481107D01*
X130329355Y-67530607D01*
X130334200Y-67561200D01*
X130334200Y-69976900D01*
X130315293Y-70035091D01*
X130265793Y-70071055D01*
X130235200Y-70075900D01*
X129689200Y-70075900D01*
X129631009Y-70056993D01*
X129619202Y-70046909D01*
X129550413Y-69978120D01*
X129550410Y-69978118D01*
X125552213Y-65979920D01*
X125552210Y-65979918D01*
X125552208Y-65979916D01*
X125460891Y-65927194D01*
X125460893Y-65927194D01*
X125408836Y-65913246D01*
X125359027Y-65899900D01*
X125359025Y-65899900D01*
X124370800Y-65899900D01*
X124312609Y-65880993D01*
X124276645Y-65831493D01*
X124271800Y-65800900D01*
X124271800Y-64466743D01*
X124273830Y-64460493D01*
X124272619Y-64454036D01*
X124282373Y-64434200D01*
X124290707Y-64408552D01*
X124298839Y-64398754D01*
X124299814Y-64397721D01*
X124351820Y-64345716D01*
X124356329Y-64337904D01*
X124364298Y-64329471D01*
X124381445Y-64320111D01*
X124395961Y-64307033D01*
X124407670Y-64305798D01*
X124418004Y-64300158D01*
X124437377Y-64302665D01*
G37*
%TD.AperFunction*%
%TA.AperFunction,Conductor*%
G36*
X122862190Y-62685107D02*
G01*
X122874003Y-62695196D01*
X123520842Y-63342035D01*
X123548619Y-63396552D01*
X123539048Y-63456984D01*
X123506655Y-63491125D01*
X123507733Y-63492529D01*
X123502587Y-63496477D01*
X123502584Y-63496480D01*
X123390780Y-63608284D01*
X123311723Y-63745216D01*
X123270800Y-63897943D01*
X123270800Y-64056057D01*
X123311723Y-64208784D01*
X123390780Y-64345716D01*
X123441805Y-64396741D01*
X123469581Y-64451256D01*
X123470800Y-64466743D01*
X123470800Y-65800900D01*
X123451893Y-65859091D01*
X123402393Y-65895055D01*
X123371800Y-65899900D01*
X106652700Y-65899900D01*
X106594509Y-65880993D01*
X106558545Y-65831493D01*
X106553700Y-65800900D01*
X106553700Y-64263975D01*
X106553699Y-64263969D01*
X106548729Y-64245420D01*
X106526407Y-64162112D01*
X106526405Y-64162109D01*
X106526405Y-64162107D01*
X106473683Y-64070791D01*
X106473681Y-64070789D01*
X106473680Y-64070787D01*
X106046613Y-63643720D01*
X106046610Y-63643718D01*
X106046608Y-63643716D01*
X105955291Y-63590994D01*
X105955293Y-63590994D01*
X105915770Y-63580404D01*
X105853427Y-63563700D01*
X103134573Y-63563700D01*
X103072231Y-63580404D01*
X103032708Y-63590994D01*
X102984377Y-63618898D01*
X102984378Y-63618899D01*
X102941388Y-63643719D01*
X99631603Y-66953504D01*
X99624485Y-66957130D01*
X99619790Y-66963593D01*
X99597741Y-66970756D01*
X99577086Y-66981281D01*
X99561599Y-66982500D01*
X99533600Y-66982500D01*
X99475409Y-66963593D01*
X99439445Y-66914093D01*
X99439445Y-66852907D01*
X99463594Y-66813498D01*
X103581896Y-62695195D01*
X103636413Y-62667419D01*
X103651900Y-62666200D01*
X122803999Y-62666200D01*
X122862190Y-62685107D01*
G37*
%TD.AperFunction*%
%TA.AperFunction,Conductor*%
G36*
X128064891Y-49576807D02*
G01*
X128100855Y-49626307D01*
X128105700Y-49656900D01*
X128105700Y-50429244D01*
X128086793Y-50487435D01*
X128042497Y-50519618D01*
X128043022Y-50520807D01*
X128037511Y-50523239D01*
X128037293Y-50523399D01*
X128036857Y-50523529D01*
X127933435Y-50569194D01*
X127853994Y-50648635D01*
X127808614Y-50751411D01*
X127805700Y-50776530D01*
X127805700Y-51666260D01*
X127805701Y-51666263D01*
X127808614Y-51691390D01*
X127833956Y-51748785D01*
X127853994Y-51794165D01*
X127933435Y-51873606D01*
X128036209Y-51918985D01*
X128036211Y-51918985D01*
X128043021Y-51921992D01*
X128042060Y-51924166D01*
X128083865Y-51951534D01*
X128105583Y-52008735D01*
X128105700Y-52013554D01*
X128105700Y-55318244D01*
X128086793Y-55376435D01*
X128042497Y-55408618D01*
X128043022Y-55409807D01*
X128037511Y-55412239D01*
X128037293Y-55412399D01*
X128036857Y-55412529D01*
X127933435Y-55458194D01*
X127853994Y-55537635D01*
X127808614Y-55640411D01*
X127805700Y-55665530D01*
X127805700Y-56555260D01*
X127805701Y-56555263D01*
X127808614Y-56580390D01*
X127832867Y-56635316D01*
X127853994Y-56683165D01*
X127933435Y-56762606D01*
X128036209Y-56807985D01*
X128036211Y-56807985D01*
X128043021Y-56810992D01*
X128042060Y-56813166D01*
X128083865Y-56840534D01*
X128105583Y-56897735D01*
X128105700Y-56902554D01*
X128105700Y-60207244D01*
X128086793Y-60265435D01*
X128042497Y-60297618D01*
X128043022Y-60298807D01*
X128037511Y-60301239D01*
X128037293Y-60301399D01*
X128036857Y-60301529D01*
X128036209Y-60301814D01*
X128036209Y-60301815D01*
X127933435Y-60347194D01*
X127853994Y-60426635D01*
X127808614Y-60529411D01*
X127805700Y-60554530D01*
X127805700Y-61444260D01*
X127805701Y-61444263D01*
X127808614Y-61469390D01*
X127832531Y-61523555D01*
X127853994Y-61572165D01*
X127933435Y-61651606D01*
X128036209Y-61696985D01*
X128036211Y-61696985D01*
X128043021Y-61699992D01*
X128042060Y-61702166D01*
X128083865Y-61729534D01*
X128105583Y-61786735D01*
X128105700Y-61791554D01*
X128105700Y-65095244D01*
X128086793Y-65153435D01*
X128042497Y-65185618D01*
X128043022Y-65186807D01*
X128037511Y-65189239D01*
X128037293Y-65189399D01*
X128036857Y-65189529D01*
X127933435Y-65235194D01*
X127853994Y-65314635D01*
X127808614Y-65417411D01*
X127805700Y-65442530D01*
X127805700Y-65616399D01*
X127786793Y-65674590D01*
X127737293Y-65710554D01*
X127676107Y-65710554D01*
X127636696Y-65686403D01*
X125292328Y-63342035D01*
X122917913Y-60967620D01*
X122917910Y-60967618D01*
X122917909Y-60967617D01*
X122917908Y-60967616D01*
X122826591Y-60914894D01*
X122826593Y-60914894D01*
X122786232Y-60904080D01*
X122724727Y-60887600D01*
X122724725Y-60887600D01*
X107171900Y-60887600D01*
X107113709Y-60868693D01*
X107077745Y-60819193D01*
X107072900Y-60788600D01*
X107072900Y-60677044D01*
X107069581Y-60664657D01*
X107031977Y-60524316D01*
X106952920Y-60387384D01*
X106841116Y-60275580D01*
X106704184Y-60196523D01*
X106551457Y-60155600D01*
X106393343Y-60155600D01*
X106240616Y-60196523D01*
X106103684Y-60275580D01*
X105991880Y-60387384D01*
X105912823Y-60524316D01*
X105875220Y-60664655D01*
X105871900Y-60677044D01*
X105871900Y-60788600D01*
X105852993Y-60846791D01*
X105803493Y-60882755D01*
X105772900Y-60887600D01*
X105005700Y-60887600D01*
X104947509Y-60868693D01*
X104911545Y-60819193D01*
X104906700Y-60788600D01*
X104906699Y-60141539D01*
X104906699Y-60141536D01*
X104903785Y-60116409D01*
X104858406Y-60013635D01*
X104778965Y-59934194D01*
X104676191Y-59888815D01*
X104676188Y-59888814D01*
X104674962Y-59888273D01*
X104629366Y-59847472D01*
X104616461Y-59787663D01*
X104619321Y-59772096D01*
X104625200Y-59750157D01*
X104625200Y-59592043D01*
X104584277Y-59439316D01*
X104505220Y-59302384D01*
X104393416Y-59190580D01*
X104256484Y-59111523D01*
X104103757Y-59070600D01*
X103945643Y-59070600D01*
X103940758Y-59071908D01*
X103931519Y-59074384D01*
X103870418Y-59071179D01*
X103822869Y-59032672D01*
X103806900Y-58978756D01*
X103806900Y-56580800D01*
X103825807Y-56522609D01*
X103835890Y-56510802D01*
X104526680Y-55820013D01*
X104579407Y-55728688D01*
X104602936Y-55640872D01*
X104636258Y-55589560D01*
X104672575Y-55570968D01*
X104676181Y-55569986D01*
X104676191Y-55569985D01*
X104778965Y-55524606D01*
X104858406Y-55445165D01*
X104903785Y-55342391D01*
X104906700Y-55317265D01*
X104906699Y-54427536D01*
X104903785Y-54402409D01*
X104858406Y-54299635D01*
X104778965Y-54220194D01*
X104676191Y-54174815D01*
X104676189Y-54174814D01*
X104673395Y-54173581D01*
X104627799Y-54132780D01*
X104614894Y-54072971D01*
X104617757Y-54057391D01*
X104622000Y-54041557D01*
X104622000Y-53883444D01*
X104622000Y-53883443D01*
X104581077Y-53730716D01*
X104502020Y-53593784D01*
X104390216Y-53481980D01*
X104253284Y-53402923D01*
X104100557Y-53362000D01*
X103942443Y-53362000D01*
X103789716Y-53402923D01*
X103652784Y-53481980D01*
X103540980Y-53593784D01*
X103461923Y-53730716D01*
X103421000Y-53883443D01*
X103421000Y-54041557D01*
X103440814Y-54115503D01*
X103442748Y-54122720D01*
X103439545Y-54183821D01*
X103401040Y-54231371D01*
X103341940Y-54247207D01*
X103304170Y-54237541D01*
X103289013Y-54230242D01*
X103278965Y-54220194D01*
X103176191Y-54174815D01*
X103173179Y-54174465D01*
X103162749Y-54169443D01*
X103146882Y-54154273D01*
X103128519Y-54142246D01*
X103125228Y-54133571D01*
X103118523Y-54127161D01*
X103114602Y-54105562D01*
X103106816Y-54085038D01*
X103106700Y-54080245D01*
X103106700Y-50407445D01*
X103125607Y-50349254D01*
X103175107Y-50313290D01*
X103236293Y-50313290D01*
X103285793Y-50349254D01*
X103291430Y-50357935D01*
X103343380Y-50447916D01*
X103455184Y-50559720D01*
X103592116Y-50638777D01*
X103744843Y-50679700D01*
X103744845Y-50679700D01*
X103902955Y-50679700D01*
X103902957Y-50679700D01*
X104055684Y-50638777D01*
X104192616Y-50559720D01*
X104304420Y-50447916D01*
X104383477Y-50310984D01*
X104401955Y-50242020D01*
X104435279Y-50190707D01*
X104448085Y-50181906D01*
X104450586Y-50180461D01*
X104452113Y-50179580D01*
X104526680Y-50105013D01*
X104579407Y-50013687D01*
X104602936Y-49925872D01*
X104636259Y-49874560D01*
X104672575Y-49855968D01*
X104676181Y-49854986D01*
X104676191Y-49854985D01*
X104778965Y-49809606D01*
X104858406Y-49730165D01*
X104903785Y-49627391D01*
X104903785Y-49627388D01*
X104906792Y-49620579D01*
X104908963Y-49621537D01*
X104936354Y-49579719D01*
X104993562Y-49558016D01*
X104998355Y-49557900D01*
X128006700Y-49557900D01*
X128064891Y-49576807D01*
G37*
%TD.AperFunction*%
%TA.AperFunction,Conductor*%
G36*
X129322213Y-61522001D02*
G01*
X129346763Y-61555789D01*
X129353994Y-61572165D01*
X129433435Y-61651606D01*
X129536209Y-61696985D01*
X129536221Y-61696986D01*
X129539824Y-61697967D01*
X129542699Y-61699850D01*
X129543021Y-61699992D01*
X129542997Y-61700045D01*
X129591011Y-61731486D01*
X129609463Y-61767871D01*
X129615809Y-61791554D01*
X129632994Y-61855692D01*
X129685716Y-61947008D01*
X129685718Y-61947010D01*
X129685720Y-61947013D01*
X130032568Y-62293860D01*
X130305204Y-62566496D01*
X130332981Y-62621013D01*
X130334200Y-62636500D01*
X130334200Y-65087900D01*
X130315293Y-65146091D01*
X130265793Y-65182055D01*
X130235200Y-65186900D01*
X129561339Y-65186900D01*
X129561336Y-65186901D01*
X129536209Y-65189814D01*
X129433435Y-65235194D01*
X129353993Y-65314636D01*
X129346764Y-65331009D01*
X129305963Y-65376604D01*
X129246154Y-65389509D01*
X129190183Y-65364795D01*
X129165636Y-65331009D01*
X129158406Y-65314636D01*
X129158406Y-65314635D01*
X129078965Y-65235194D01*
X128976191Y-65189815D01*
X128976188Y-65189814D01*
X128969379Y-65186808D01*
X128970337Y-65184636D01*
X128928519Y-65157246D01*
X128906816Y-65100038D01*
X128906700Y-65095245D01*
X128906700Y-61791555D01*
X128925607Y-61733364D01*
X128969902Y-61701181D01*
X128969378Y-61699993D01*
X128974884Y-61697561D01*
X128975107Y-61697400D01*
X128975548Y-61697268D01*
X128976188Y-61696985D01*
X128976191Y-61696985D01*
X129078965Y-61651606D01*
X129158406Y-61572165D01*
X129165635Y-61555792D01*
X129206432Y-61510197D01*
X129266240Y-61497289D01*
X129322213Y-61522001D01*
G37*
%TD.AperFunction*%
%TA.AperFunction,Conductor*%
G36*
X129322213Y-51744001D02*
G01*
X129346763Y-51777789D01*
X129353994Y-51794165D01*
X129433435Y-51873606D01*
X129536209Y-51918985D01*
X129561335Y-51921900D01*
X130451064Y-51921899D01*
X130476191Y-51918985D01*
X130578965Y-51873606D01*
X130592998Y-51859572D01*
X130647513Y-51831797D01*
X130707945Y-51841368D01*
X130751210Y-51884633D01*
X130762000Y-51929578D01*
X130762000Y-54045499D01*
X130743093Y-54103690D01*
X130733004Y-54115503D01*
X129685716Y-55162791D01*
X129632993Y-55254111D01*
X129632992Y-55254112D01*
X129632993Y-55254113D01*
X129609464Y-55341925D01*
X129576140Y-55393239D01*
X129539834Y-55411828D01*
X129536213Y-55412813D01*
X129433435Y-55458194D01*
X129353993Y-55537636D01*
X129346764Y-55554009D01*
X129305963Y-55599604D01*
X129246154Y-55612509D01*
X129190183Y-55587795D01*
X129165636Y-55554009D01*
X129158406Y-55537636D01*
X129158406Y-55537635D01*
X129078965Y-55458194D01*
X128976191Y-55412815D01*
X128976188Y-55412814D01*
X128969379Y-55409808D01*
X128970337Y-55407636D01*
X128928519Y-55380246D01*
X128906816Y-55323038D01*
X128906700Y-55318245D01*
X128906700Y-52013555D01*
X128925607Y-51955364D01*
X128969902Y-51923181D01*
X128969378Y-51921993D01*
X128974884Y-51919561D01*
X128975107Y-51919400D01*
X128975548Y-51919268D01*
X128976188Y-51918985D01*
X128976191Y-51918985D01*
X129078965Y-51873606D01*
X129158406Y-51794165D01*
X129165635Y-51777792D01*
X129206432Y-51732197D01*
X129266240Y-51719289D01*
X129322213Y-51744001D01*
G37*
%TD.AperFunction*%
%TA.AperFunction,Conductor*%
G36*
X103756790Y-38661107D02*
G01*
X103768603Y-38671196D01*
X103932510Y-38835103D01*
X103933231Y-38835925D01*
X103998846Y-38901539D01*
X104011987Y-38914680D01*
X104103313Y-38967407D01*
X104205173Y-38994700D01*
X121110333Y-38994700D01*
X121168524Y-39013607D01*
X121204488Y-39063107D01*
X121204488Y-39124293D01*
X121172791Y-39170511D01*
X121166666Y-39175491D01*
X121123384Y-39200480D01*
X121068768Y-39255095D01*
X121064814Y-39258311D01*
X121040787Y-39267589D01*
X121017842Y-39279281D01*
X121008639Y-39280005D01*
X121007737Y-39280354D01*
X121006931Y-39280139D01*
X121002356Y-39280500D01*
X79914706Y-39280500D01*
X79914690Y-39280499D01*
X79908627Y-39280499D01*
X79803173Y-39280499D01*
X79803172Y-39280499D01*
X79796741Y-39281346D01*
X79796439Y-39279059D01*
X79758112Y-39278842D01*
X79741161Y-39274300D01*
X79741157Y-39274300D01*
X79583043Y-39274300D01*
X79430316Y-39315223D01*
X79293384Y-39394280D01*
X79181580Y-39506084D01*
X79102523Y-39643016D01*
X79061600Y-39795743D01*
X79061600Y-39953857D01*
X79102523Y-40106584D01*
X79181580Y-40243516D01*
X79293384Y-40355320D01*
X79430316Y-40434377D01*
X79583043Y-40475300D01*
X79583045Y-40475300D01*
X79741155Y-40475300D01*
X79741157Y-40475300D01*
X79893884Y-40434377D01*
X80030816Y-40355320D01*
X80142620Y-40243516D01*
X80207581Y-40130998D01*
X80253050Y-40090059D01*
X80293317Y-40081500D01*
X121002356Y-40081500D01*
X121060547Y-40100407D01*
X121072359Y-40110496D01*
X121123381Y-40161517D01*
X121123384Y-40161520D01*
X121260316Y-40240577D01*
X121413043Y-40281500D01*
X121413045Y-40281500D01*
X121571155Y-40281500D01*
X121571157Y-40281500D01*
X121723884Y-40240577D01*
X121860816Y-40161520D01*
X121972620Y-40049716D01*
X122051677Y-39912784D01*
X122092600Y-39760057D01*
X122092600Y-39601943D01*
X122051677Y-39449216D01*
X121972620Y-39312284D01*
X121860816Y-39200480D01*
X121860813Y-39200478D01*
X121824367Y-39179436D01*
X121783426Y-39133967D01*
X121777030Y-39073117D01*
X121807623Y-39020129D01*
X121863519Y-38995242D01*
X121873867Y-38994700D01*
X122288199Y-38994700D01*
X122346390Y-39013607D01*
X122358203Y-39023696D01*
X123538804Y-40204297D01*
X123566581Y-40258814D01*
X123567800Y-40274301D01*
X123567800Y-40346456D01*
X123577023Y-40380878D01*
X123573820Y-40441979D01*
X123535315Y-40489529D01*
X123481396Y-40505500D01*
X104127227Y-40505500D01*
X104021773Y-40505500D01*
X103959429Y-40522204D01*
X103919907Y-40532794D01*
X103828587Y-40585518D01*
X103827124Y-40586642D01*
X103825878Y-40587083D01*
X103822967Y-40588764D01*
X103822655Y-40588224D01*
X103769448Y-40607066D01*
X103766857Y-40607100D01*
X103693843Y-40607100D01*
X103541116Y-40648023D01*
X103404184Y-40727080D01*
X103292380Y-40838884D01*
X103213323Y-40975816D01*
X103172400Y-41128543D01*
X103172400Y-41286657D01*
X103213323Y-41439384D01*
X103292380Y-41576316D01*
X103404184Y-41688120D01*
X103541116Y-41767177D01*
X103693843Y-41808100D01*
X103693845Y-41808100D01*
X103851955Y-41808100D01*
X103851957Y-41808100D01*
X104004684Y-41767177D01*
X104141616Y-41688120D01*
X104253420Y-41576316D01*
X104332477Y-41439384D01*
X104333596Y-41435204D01*
X104348423Y-41379876D01*
X104381747Y-41328562D01*
X104438869Y-41306636D01*
X104444049Y-41306500D01*
X106239399Y-41306500D01*
X106297590Y-41325407D01*
X106333554Y-41374907D01*
X106333554Y-41436093D01*
X106309403Y-41475504D01*
X104956342Y-42828563D01*
X104901825Y-42856340D01*
X104841393Y-42846769D01*
X104816335Y-42828563D01*
X104778966Y-42791195D01*
X104778965Y-42791194D01*
X104676191Y-42745815D01*
X104676190Y-42745814D01*
X104676188Y-42745814D01*
X104651069Y-42742900D01*
X104651065Y-42742900D01*
X103850001Y-42742900D01*
X103791810Y-42723993D01*
X103779997Y-42713904D01*
X103750411Y-42684318D01*
X103750411Y-42684317D01*
X103454313Y-42388220D01*
X103454308Y-42388216D01*
X103362991Y-42335494D01*
X103362993Y-42335494D01*
X103323470Y-42324904D01*
X103261127Y-42308200D01*
X103261125Y-42308200D01*
X101191204Y-42308200D01*
X101133013Y-42289293D01*
X101097049Y-42239793D01*
X101095577Y-42234823D01*
X101058277Y-42095616D01*
X100979220Y-41958684D01*
X100867416Y-41846880D01*
X100730484Y-41767823D01*
X100577757Y-41726900D01*
X100419643Y-41726900D01*
X100266916Y-41767823D01*
X100133035Y-41845119D01*
X100129981Y-41846882D01*
X100078959Y-41897904D01*
X100024442Y-41925681D01*
X100008956Y-41926900D01*
X94951027Y-41926900D01*
X94845573Y-41926900D01*
X94783229Y-41943604D01*
X94743707Y-41954194D01*
X94652391Y-42006916D01*
X92778003Y-43881304D01*
X92723486Y-43909081D01*
X92707999Y-43910300D01*
X92635843Y-43910300D01*
X92483116Y-43951223D01*
X92346184Y-44030280D01*
X92234380Y-44142084D01*
X92155323Y-44279016D01*
X92114400Y-44431743D01*
X92114400Y-44589857D01*
X92155323Y-44742584D01*
X92234380Y-44879516D01*
X92346184Y-44991320D01*
X92483116Y-45070377D01*
X92635843Y-45111300D01*
X92635845Y-45111300D01*
X92793955Y-45111300D01*
X92793957Y-45111300D01*
X92946684Y-45070377D01*
X93083616Y-44991320D01*
X93195420Y-44879516D01*
X93274477Y-44742584D01*
X93315400Y-44589857D01*
X93315400Y-44517701D01*
X93334307Y-44459510D01*
X93344396Y-44447697D01*
X95035197Y-42756896D01*
X95089714Y-42729119D01*
X95105201Y-42727900D01*
X100008956Y-42727900D01*
X100015205Y-42729930D01*
X100021663Y-42728719D01*
X100041497Y-42738473D01*
X100067147Y-42746807D01*
X100076945Y-42754939D01*
X100077995Y-42755931D01*
X100129984Y-42807920D01*
X100137792Y-42812428D01*
X100146228Y-42820398D01*
X100155590Y-42837550D01*
X100168671Y-42852072D01*
X100169903Y-42863775D01*
X100175541Y-42874104D01*
X100173032Y-42893484D01*
X100175080Y-42912921D01*
X100169089Y-42923958D01*
X100167688Y-42934784D01*
X100157170Y-42945915D01*
X100148243Y-42962363D01*
X95224103Y-47886504D01*
X95169586Y-47914281D01*
X95154099Y-47915500D01*
X85236044Y-47915500D01*
X85177853Y-47896593D01*
X85166041Y-47886504D01*
X85115018Y-47835482D01*
X85115016Y-47835480D01*
X84978084Y-47756423D01*
X84825357Y-47715500D01*
X84667243Y-47715500D01*
X84514516Y-47756423D01*
X84377584Y-47835480D01*
X84265780Y-47947284D01*
X84186723Y-48084216D01*
X84145800Y-48236943D01*
X84145800Y-48395057D01*
X84186723Y-48547784D01*
X84221720Y-48608401D01*
X84234441Y-48668249D01*
X84209554Y-48724144D01*
X84156566Y-48754737D01*
X84135983Y-48756900D01*
X81271754Y-48756900D01*
X81213563Y-48737993D01*
X81177599Y-48688493D01*
X81177599Y-48627307D01*
X81186014Y-48608406D01*
X81243877Y-48508184D01*
X81284800Y-48355457D01*
X81284800Y-48197343D01*
X81243877Y-48044616D01*
X81164820Y-47907684D01*
X81143640Y-47886504D01*
X81113796Y-47856659D01*
X81086019Y-47802142D01*
X81084800Y-47786656D01*
X81084800Y-47193959D01*
X81103707Y-47135768D01*
X81153207Y-47099804D01*
X81209419Y-47098332D01*
X81308573Y-47124900D01*
X81414027Y-47124900D01*
X91588756Y-47124900D01*
X91646947Y-47143807D01*
X91658759Y-47153896D01*
X91685245Y-47180381D01*
X91709784Y-47204920D01*
X91846716Y-47283977D01*
X91999443Y-47324900D01*
X91999445Y-47324900D01*
X92157555Y-47324900D01*
X92157557Y-47324900D01*
X92310284Y-47283977D01*
X92447216Y-47204920D01*
X92559020Y-47093116D01*
X92638077Y-46956184D01*
X92679000Y-46803457D01*
X92679000Y-46645343D01*
X92638077Y-46492616D01*
X92559020Y-46355684D01*
X92447216Y-46243880D01*
X92310284Y-46164823D01*
X92157557Y-46123900D01*
X91999443Y-46123900D01*
X91846716Y-46164823D01*
X91718712Y-46238726D01*
X91709781Y-46243882D01*
X91658759Y-46294904D01*
X91604242Y-46322681D01*
X91588756Y-46323900D01*
X81568201Y-46323900D01*
X81510010Y-46304993D01*
X81498197Y-46294904D01*
X80471913Y-45268620D01*
X79379294Y-44176001D01*
X79351519Y-44121487D01*
X79361090Y-44061055D01*
X79404355Y-44017790D01*
X79449300Y-44007000D01*
X80170599Y-44007000D01*
X80178196Y-44009468D01*
X80186086Y-44008219D01*
X80206741Y-44018743D01*
X80228790Y-44025907D01*
X80240603Y-44035996D01*
X80341604Y-44136997D01*
X80369381Y-44191514D01*
X80370600Y-44207001D01*
X80370600Y-44279157D01*
X80411523Y-44431884D01*
X80490580Y-44568816D01*
X80602384Y-44680620D01*
X80739316Y-44759677D01*
X80892043Y-44800600D01*
X80892045Y-44800600D01*
X81050155Y-44800600D01*
X81050157Y-44800600D01*
X81202884Y-44759677D01*
X81339816Y-44680620D01*
X81451620Y-44568816D01*
X81530677Y-44431884D01*
X81571600Y-44279157D01*
X81571600Y-44121043D01*
X81530677Y-43968316D01*
X81451620Y-43831384D01*
X81339816Y-43719580D01*
X81202884Y-43640523D01*
X81050157Y-43599600D01*
X81050155Y-43599600D01*
X80978001Y-43599600D01*
X80919810Y-43580693D01*
X80907998Y-43570604D01*
X80623413Y-43286020D01*
X80623408Y-43286016D01*
X80532091Y-43233294D01*
X80532093Y-43233294D01*
X80492570Y-43222704D01*
X80430227Y-43206000D01*
X80430225Y-43206000D01*
X78605044Y-43206000D01*
X78546853Y-43187093D01*
X78535041Y-43177004D01*
X78484018Y-43125982D01*
X78484016Y-43125980D01*
X78347084Y-43046923D01*
X78194357Y-43006000D01*
X78036243Y-43006000D01*
X77883516Y-43046923D01*
X77746584Y-43125980D01*
X77634780Y-43237784D01*
X77555723Y-43374716D01*
X77514800Y-43527443D01*
X77514800Y-43685557D01*
X77555723Y-43838284D01*
X77605616Y-43924703D01*
X77618337Y-43984548D01*
X77593450Y-44040444D01*
X77540462Y-44071037D01*
X77519879Y-44073200D01*
X70690001Y-44073200D01*
X70631810Y-44054293D01*
X70595846Y-44004793D01*
X70595846Y-43943607D01*
X70619997Y-43904196D01*
X75852997Y-38671196D01*
X75907514Y-38643419D01*
X75923001Y-38642200D01*
X103698599Y-38642200D01*
X103756790Y-38661107D01*
G37*
%TD.AperFunction*%
%TA.AperFunction,Conductor*%
G36*
X101964891Y-43128107D02*
G01*
X102000855Y-43177607D01*
X102005700Y-43208200D01*
X102005700Y-43888260D01*
X102005701Y-43888263D01*
X102008614Y-43913390D01*
X102032867Y-43968316D01*
X102053994Y-44016165D01*
X102133435Y-44095606D01*
X102236209Y-44140985D01*
X102236211Y-44140985D01*
X102243021Y-44143992D01*
X102242060Y-44146166D01*
X102283865Y-44173534D01*
X102305583Y-44230735D01*
X102305700Y-44235554D01*
X102305700Y-48365244D01*
X102286793Y-48423435D01*
X102242497Y-48455618D01*
X102243022Y-48456807D01*
X102237511Y-48459239D01*
X102237293Y-48459399D01*
X102236857Y-48459529D01*
X102236209Y-48459814D01*
X102236209Y-48459815D01*
X102133435Y-48505194D01*
X102053994Y-48584635D01*
X102008615Y-48687409D01*
X102008614Y-48687411D01*
X102005608Y-48694221D01*
X102003436Y-48693262D01*
X101976046Y-48735081D01*
X101918838Y-48756784D01*
X101914045Y-48756900D01*
X95725500Y-48756900D01*
X95667309Y-48737993D01*
X95631345Y-48688493D01*
X95631345Y-48627307D01*
X95655494Y-48587898D01*
X101105196Y-43138195D01*
X101159713Y-43110419D01*
X101175200Y-43109200D01*
X101906700Y-43109200D01*
X101964891Y-43128107D01*
G37*
%TD.AperFunction*%
%TA.AperFunction,Conductor*%
G36*
X127764891Y-46008507D02*
G01*
X127800855Y-46058007D01*
X127805700Y-46088600D01*
X127805700Y-46777260D01*
X127805701Y-46777263D01*
X127808614Y-46802390D01*
X127820180Y-46828583D01*
X127853994Y-46905165D01*
X127933435Y-46984606D01*
X128036209Y-47029985D01*
X128036211Y-47029985D01*
X128043021Y-47032992D01*
X128042060Y-47035166D01*
X128083865Y-47062534D01*
X128105583Y-47119735D01*
X128105700Y-47124554D01*
X128105700Y-48657900D01*
X128086793Y-48716091D01*
X128037293Y-48752055D01*
X128006700Y-48756900D01*
X104998355Y-48756900D01*
X104940164Y-48737993D01*
X104907981Y-48693697D01*
X104906793Y-48694222D01*
X104904361Y-48688715D01*
X104904200Y-48688493D01*
X104904068Y-48688051D01*
X104903785Y-48687409D01*
X104858406Y-48584635D01*
X104778965Y-48505194D01*
X104676191Y-48459815D01*
X104676190Y-48459814D01*
X104676188Y-48459814D01*
X104651068Y-48456900D01*
X103761339Y-48456900D01*
X103761336Y-48456901D01*
X103736209Y-48459814D01*
X103633435Y-48505194D01*
X103553993Y-48584636D01*
X103546764Y-48601009D01*
X103505963Y-48646604D01*
X103446154Y-48659509D01*
X103390183Y-48634795D01*
X103365636Y-48601009D01*
X103358406Y-48584636D01*
X103358406Y-48584635D01*
X103278965Y-48505194D01*
X103176191Y-48459815D01*
X103176188Y-48459814D01*
X103169379Y-48456808D01*
X103170337Y-48454636D01*
X103128519Y-48427246D01*
X103106816Y-48370038D01*
X103106700Y-48365245D01*
X103106700Y-46088600D01*
X103125607Y-46030409D01*
X103175107Y-45994445D01*
X103205700Y-45989600D01*
X127706700Y-45989600D01*
X127764891Y-46008507D01*
G37*
%TD.AperFunction*%
%TA.AperFunction,Conductor*%
G36*
X127772236Y-41862807D02*
G01*
X127804418Y-41907102D01*
X127805607Y-41906578D01*
X127808038Y-41912084D01*
X127808200Y-41912307D01*
X127808331Y-41912748D01*
X127808615Y-41913391D01*
X127853994Y-42016165D01*
X127933435Y-42095606D01*
X128036209Y-42140985D01*
X128036221Y-42140986D01*
X128039824Y-42141967D01*
X128042699Y-42143850D01*
X128043021Y-42143992D01*
X128042997Y-42144045D01*
X128091011Y-42175486D01*
X128109463Y-42211871D01*
X128129845Y-42287940D01*
X128132994Y-42299692D01*
X128185716Y-42391008D01*
X128185718Y-42391010D01*
X128185720Y-42391013D01*
X130733005Y-44938298D01*
X130736630Y-44945413D01*
X130743093Y-44950109D01*
X130750256Y-44972157D01*
X130760781Y-44992813D01*
X130762000Y-45008300D01*
X130762000Y-45118441D01*
X130743093Y-45176632D01*
X130693593Y-45212596D01*
X130637378Y-45214068D01*
X130586833Y-45200525D01*
X130542327Y-45188600D01*
X130542326Y-45188600D01*
X103205700Y-45188600D01*
X103147509Y-45169693D01*
X103111545Y-45120193D01*
X103106700Y-45089600D01*
X103106700Y-44235555D01*
X103125607Y-44177364D01*
X103169902Y-44145181D01*
X103169378Y-44143993D01*
X103174884Y-44141561D01*
X103175107Y-44141400D01*
X103175548Y-44141268D01*
X103176188Y-44140985D01*
X103176191Y-44140985D01*
X103278965Y-44095606D01*
X103358406Y-44016165D01*
X103365635Y-43999792D01*
X103406432Y-43954197D01*
X103466240Y-43941289D01*
X103522213Y-43966001D01*
X103546763Y-43999789D01*
X103551037Y-44009468D01*
X103553994Y-44016165D01*
X103633435Y-44095606D01*
X103736209Y-44140985D01*
X103761335Y-44143900D01*
X104651064Y-44143899D01*
X104676191Y-44140985D01*
X104778965Y-44095606D01*
X104858406Y-44016165D01*
X104903785Y-43913391D01*
X104903785Y-43913382D01*
X104904767Y-43909778D01*
X104906647Y-43906905D01*
X104906792Y-43906579D01*
X104906846Y-43906602D01*
X104938284Y-43858590D01*
X104974668Y-43840137D01*
X105062488Y-43816607D01*
X105153813Y-43763880D01*
X107044797Y-41872896D01*
X107099314Y-41845119D01*
X107114801Y-41843900D01*
X127714045Y-41843900D01*
X127772236Y-41862807D01*
G37*
%TD.AperFunction*%
%TA.AperFunction,Conductor*%
G36*
X143798059Y-37047268D02*
G01*
X143955846Y-37092726D01*
X143966317Y-37096390D01*
X144092714Y-37148746D01*
X144233657Y-37207127D01*
X144243659Y-37211944D01*
X144496911Y-37351911D01*
X144506311Y-37357817D01*
X144742306Y-37525264D01*
X144750983Y-37532184D01*
X144966755Y-37725009D01*
X144974590Y-37732844D01*
X145142933Y-37921220D01*
X145167413Y-37948613D01*
X145174335Y-37957293D01*
X145341782Y-38193288D01*
X145347688Y-38202688D01*
X145487655Y-38455940D01*
X145492472Y-38465942D01*
X145603207Y-38733278D01*
X145606874Y-38743757D01*
X145652331Y-38901539D01*
X145656200Y-38928946D01*
X145656200Y-87937852D01*
X145652331Y-87965259D01*
X145606874Y-88123042D01*
X145603207Y-88133521D01*
X145492472Y-88400857D01*
X145487655Y-88410859D01*
X145347688Y-88664111D01*
X145341782Y-88673511D01*
X145174335Y-88909506D01*
X145167413Y-88918186D01*
X144974598Y-89133947D01*
X144966747Y-89141798D01*
X144750986Y-89334613D01*
X144742306Y-89341535D01*
X144506311Y-89508982D01*
X144496911Y-89514888D01*
X144243659Y-89654855D01*
X144233657Y-89659672D01*
X143966321Y-89770407D01*
X143955842Y-89774074D01*
X143798060Y-89819531D01*
X143770653Y-89823400D01*
X63141747Y-89823400D01*
X63114340Y-89819531D01*
X62956557Y-89774074D01*
X62946078Y-89770407D01*
X62678742Y-89659672D01*
X62668740Y-89654855D01*
X62415488Y-89514888D01*
X62406088Y-89508982D01*
X62170093Y-89341535D01*
X62161413Y-89334613D01*
X61945644Y-89141790D01*
X61937809Y-89133955D01*
X61744984Y-88918183D01*
X61738064Y-88909506D01*
X61673786Y-88818915D01*
X61570617Y-88673511D01*
X61564711Y-88664111D01*
X61424744Y-88410859D01*
X61419927Y-88400857D01*
X61309192Y-88133521D01*
X61305525Y-88123041D01*
X61260069Y-87965258D01*
X61256200Y-87937852D01*
X61256200Y-50554706D01*
X67755700Y-50554706D01*
X67755700Y-50732093D01*
X67790306Y-50906065D01*
X67790306Y-50906067D01*
X67858185Y-51069944D01*
X67858185Y-51069945D01*
X67956735Y-51217434D01*
X68082165Y-51342864D01*
X68177012Y-51406240D01*
X68214891Y-51454290D01*
X68220785Y-51481881D01*
X68689087Y-58412750D01*
X68674145Y-58472083D01*
X68645315Y-58501738D01*
X68582166Y-58543934D01*
X68456737Y-58669362D01*
X68358185Y-58816854D01*
X68358185Y-58816855D01*
X68290306Y-58980732D01*
X68290306Y-58980734D01*
X68255700Y-59154706D01*
X68255700Y-59332093D01*
X68290306Y-59506065D01*
X68290306Y-59506067D01*
X68358185Y-59669944D01*
X68358185Y-59669945D01*
X68456735Y-59817434D01*
X68456736Y-59817435D01*
X68582165Y-59942864D01*
X68729653Y-60041413D01*
X68893534Y-60109294D01*
X69067509Y-60143900D01*
X69067510Y-60143900D01*
X69244890Y-60143900D01*
X69244891Y-60143900D01*
X69418866Y-60109294D01*
X69582747Y-60041413D01*
X69730235Y-59942864D01*
X69855664Y-59817435D01*
X69954213Y-59669947D01*
X70022094Y-59506066D01*
X70056700Y-59332091D01*
X70056700Y-59154709D01*
X70022094Y-58980734D01*
X69954214Y-58816855D01*
X69954214Y-58816854D01*
X69855664Y-58669365D01*
X69730234Y-58543935D01*
X69635386Y-58480559D01*
X69597507Y-58432509D01*
X69591613Y-58404918D01*
X69585553Y-58315236D01*
X69123311Y-51474047D01*
X69138253Y-51414715D01*
X69167080Y-51385062D01*
X69230235Y-51342864D01*
X69355664Y-51217435D01*
X69454213Y-51069947D01*
X69522094Y-50906066D01*
X69556700Y-50732091D01*
X69556700Y-50554709D01*
X69522094Y-50380734D01*
X69454214Y-50216855D01*
X69454214Y-50216854D01*
X69355664Y-50069365D01*
X69230234Y-49943935D01*
X69082744Y-49845385D01*
X68918866Y-49777506D01*
X68744893Y-49742900D01*
X68744891Y-49742900D01*
X68567509Y-49742900D01*
X68567506Y-49742900D01*
X68393534Y-49777506D01*
X68393532Y-49777506D01*
X68229655Y-49845385D01*
X68229654Y-49845385D01*
X68082165Y-49943935D01*
X67956735Y-50069365D01*
X67858185Y-50216854D01*
X67858185Y-50216855D01*
X67790306Y-50380732D01*
X67790306Y-50380734D01*
X67755700Y-50554706D01*
X61256200Y-50554706D01*
X61256200Y-48217343D01*
X63512200Y-48217343D01*
X63512200Y-48375457D01*
X63553123Y-48528184D01*
X63632180Y-48665116D01*
X63743984Y-48776920D01*
X63880916Y-48855977D01*
X64033643Y-48896900D01*
X64033645Y-48896900D01*
X64191755Y-48896900D01*
X64191757Y-48896900D01*
X64344484Y-48855977D01*
X64481416Y-48776920D01*
X64593220Y-48665116D01*
X64604026Y-48646400D01*
X64649496Y-48605459D01*
X64689762Y-48596900D01*
X70421956Y-48596900D01*
X70480147Y-48615807D01*
X70491959Y-48625896D01*
X70523964Y-48657900D01*
X70542984Y-48676920D01*
X70679916Y-48755977D01*
X70832643Y-48796900D01*
X70832645Y-48796900D01*
X70990755Y-48796900D01*
X70990757Y-48796900D01*
X71143484Y-48755977D01*
X71280416Y-48676920D01*
X71392220Y-48565116D01*
X71471277Y-48428184D01*
X71512200Y-48275457D01*
X71512200Y-48117343D01*
X71471277Y-47964616D01*
X71392220Y-47827684D01*
X71280416Y-47715880D01*
X71143484Y-47636823D01*
X70990757Y-47595900D01*
X70832643Y-47595900D01*
X70679916Y-47636823D01*
X70543643Y-47715500D01*
X70542981Y-47715882D01*
X70491959Y-47766904D01*
X70437442Y-47794681D01*
X70421956Y-47795900D01*
X69382501Y-47795900D01*
X69324310Y-47776993D01*
X69288346Y-47727493D01*
X69288346Y-47666307D01*
X69312497Y-47626896D01*
X69556597Y-47382796D01*
X70367402Y-46571989D01*
X70421917Y-46544214D01*
X70482349Y-46553785D01*
X70523140Y-46592494D01*
X70549480Y-46638116D01*
X70661284Y-46749920D01*
X70798216Y-46828977D01*
X70950943Y-46869900D01*
X71023099Y-46869900D01*
X71081290Y-46888807D01*
X71093103Y-46898896D01*
X71514163Y-47319955D01*
X71883518Y-47689310D01*
X71883520Y-47689313D01*
X71958087Y-47763880D01*
X72014956Y-47796713D01*
X72049413Y-47816607D01*
X72151270Y-47843900D01*
X72151272Y-47843901D01*
X72151273Y-47843901D01*
X72262790Y-47843901D01*
X72262806Y-47843900D01*
X76114045Y-47843900D01*
X76172236Y-47862807D01*
X76204418Y-47907102D01*
X76205607Y-47906578D01*
X76208038Y-47912084D01*
X76208200Y-47912307D01*
X76208331Y-47912748D01*
X76208615Y-47913391D01*
X76253994Y-48016165D01*
X76333435Y-48095606D01*
X76436209Y-48140985D01*
X76436211Y-48140985D01*
X76443021Y-48143992D01*
X76442060Y-48146166D01*
X76483865Y-48173534D01*
X76505583Y-48230735D01*
X76505700Y-48235554D01*
X76505700Y-53051244D01*
X76486793Y-53109435D01*
X76442497Y-53141618D01*
X76443022Y-53142807D01*
X76437511Y-53145239D01*
X76437293Y-53145399D01*
X76436857Y-53145529D01*
X76333435Y-53191194D01*
X76253994Y-53270635D01*
X76208614Y-53373411D01*
X76205700Y-53398530D01*
X76205700Y-54288260D01*
X76205701Y-54288263D01*
X76208614Y-54313390D01*
X76233956Y-54370785D01*
X76253994Y-54416165D01*
X76333435Y-54495606D01*
X76436209Y-54540985D01*
X76436211Y-54540985D01*
X76443021Y-54543992D01*
X76442060Y-54546166D01*
X76483865Y-54573534D01*
X76505583Y-54630735D01*
X76505700Y-54635554D01*
X76505700Y-59451244D01*
X76486793Y-59509435D01*
X76442497Y-59541618D01*
X76443022Y-59542807D01*
X76437511Y-59545239D01*
X76437293Y-59545399D01*
X76436857Y-59545529D01*
X76333435Y-59591194D01*
X76253994Y-59670635D01*
X76208614Y-59773411D01*
X76205700Y-59798530D01*
X76205700Y-60688260D01*
X76205701Y-60688263D01*
X76208614Y-60713390D01*
X76233956Y-60770785D01*
X76253994Y-60816165D01*
X76333435Y-60895606D01*
X76436209Y-60940985D01*
X76436211Y-60940985D01*
X76443021Y-60943992D01*
X76442060Y-60946166D01*
X76483865Y-60973534D01*
X76505583Y-61030735D01*
X76505700Y-61035554D01*
X76505700Y-65851244D01*
X76486793Y-65909435D01*
X76442497Y-65941618D01*
X76443022Y-65942807D01*
X76437511Y-65945239D01*
X76437293Y-65945399D01*
X76436857Y-65945529D01*
X76333435Y-65991194D01*
X76253994Y-66070635D01*
X76208614Y-66173411D01*
X76205700Y-66198530D01*
X76205700Y-67088260D01*
X76205701Y-67088263D01*
X76208614Y-67113390D01*
X76233956Y-67170785D01*
X76253994Y-67216165D01*
X76333435Y-67295606D01*
X76436209Y-67340985D01*
X76436211Y-67340985D01*
X76443021Y-67343992D01*
X76442060Y-67346166D01*
X76483865Y-67373534D01*
X76505583Y-67430735D01*
X76505700Y-67435554D01*
X76505700Y-72251244D01*
X76486793Y-72309435D01*
X76442497Y-72341618D01*
X76443022Y-72342807D01*
X76437511Y-72345239D01*
X76437293Y-72345399D01*
X76436857Y-72345529D01*
X76333435Y-72391194D01*
X76253994Y-72470635D01*
X76208614Y-72573411D01*
X76205700Y-72598530D01*
X76205700Y-73488260D01*
X76205701Y-73488263D01*
X76208614Y-73513390D01*
X76232879Y-73568344D01*
X76253994Y-73616165D01*
X76333435Y-73695606D01*
X76436209Y-73740985D01*
X76436221Y-73740986D01*
X76439824Y-73741967D01*
X76442699Y-73743850D01*
X76443021Y-73743992D01*
X76442997Y-73744045D01*
X76491011Y-73775486D01*
X76509463Y-73811871D01*
X76525363Y-73871213D01*
X76532994Y-73899692D01*
X76585716Y-73991008D01*
X76585718Y-73991010D01*
X76585720Y-73991013D01*
X77976705Y-75381998D01*
X78004481Y-75436513D01*
X78005700Y-75452000D01*
X78005700Y-78651244D01*
X77986793Y-78709435D01*
X77942497Y-78741618D01*
X77943022Y-78742807D01*
X77937511Y-78745239D01*
X77937293Y-78745399D01*
X77936857Y-78745529D01*
X77833435Y-78791194D01*
X77753993Y-78870636D01*
X77746764Y-78887009D01*
X77705963Y-78932604D01*
X77646154Y-78945509D01*
X77590183Y-78920795D01*
X77565636Y-78887009D01*
X77558406Y-78870636D01*
X77558406Y-78870635D01*
X77478965Y-78791194D01*
X77376191Y-78745815D01*
X77376190Y-78745814D01*
X77376188Y-78745814D01*
X77351068Y-78742900D01*
X76461339Y-78742900D01*
X76461336Y-78742901D01*
X76436209Y-78745814D01*
X76333435Y-78791194D01*
X76253994Y-78870635D01*
X76208614Y-78973411D01*
X76205700Y-78998530D01*
X76205700Y-79888260D01*
X76205701Y-79888263D01*
X76208614Y-79913390D01*
X76215673Y-79929377D01*
X76253994Y-80016165D01*
X76333435Y-80095606D01*
X76436209Y-80140985D01*
X76461335Y-80143900D01*
X77262398Y-80143899D01*
X77320589Y-80162806D01*
X77332402Y-80172895D01*
X77550520Y-80391013D01*
X77550519Y-80391013D01*
X77625085Y-80465579D01*
X77687601Y-80501673D01*
X77687602Y-80501673D01*
X77716413Y-80518307D01*
X77818270Y-80545600D01*
X77818272Y-80545601D01*
X77818273Y-80545601D01*
X77929790Y-80545601D01*
X77929806Y-80545600D01*
X95776725Y-80545600D01*
X95776727Y-80545600D01*
X95878588Y-80518307D01*
X95878590Y-80518305D01*
X95878592Y-80518305D01*
X95969908Y-80465583D01*
X95969908Y-80465582D01*
X95969913Y-80465580D01*
X100453973Y-75981517D01*
X100508488Y-75953742D01*
X100568920Y-75963313D01*
X100603006Y-75995658D01*
X100604429Y-75994567D01*
X100608377Y-75999712D01*
X100608378Y-75999713D01*
X100608380Y-75999716D01*
X100720184Y-76111520D01*
X100857116Y-76190577D01*
X101009843Y-76231500D01*
X101009845Y-76231500D01*
X101167955Y-76231500D01*
X101167957Y-76231500D01*
X101320684Y-76190577D01*
X101457616Y-76111520D01*
X101569420Y-75999716D01*
X101619312Y-75913298D01*
X101664781Y-75872359D01*
X101705048Y-75863800D01*
X101947209Y-75863800D01*
X102005400Y-75882707D01*
X102041364Y-75932207D01*
X102042596Y-75979280D01*
X102044347Y-75979511D01*
X102043500Y-75985942D01*
X102043500Y-75985943D01*
X102043500Y-76144057D01*
X102084423Y-76296784D01*
X102163480Y-76433716D01*
X102275284Y-76545520D01*
X102412216Y-76624577D01*
X102564943Y-76665500D01*
X102637099Y-76665500D01*
X102695290Y-76684407D01*
X102707103Y-76694496D01*
X102872503Y-76859896D01*
X102900280Y-76914413D01*
X102890709Y-76974845D01*
X102847444Y-77018110D01*
X102802499Y-77028900D01*
X102261339Y-77028900D01*
X102261336Y-77028901D01*
X102236209Y-77031814D01*
X102133435Y-77077194D01*
X102053994Y-77156635D01*
X102008614Y-77259411D01*
X102005700Y-77284530D01*
X102005700Y-78174260D01*
X102005701Y-78174263D01*
X102008614Y-78199390D01*
X102033956Y-78256785D01*
X102053994Y-78302165D01*
X102133435Y-78381606D01*
X102236209Y-78426985D01*
X102236211Y-78426985D01*
X102243021Y-78429992D01*
X102242060Y-78432166D01*
X102283865Y-78459534D01*
X102305583Y-78516735D01*
X102305700Y-78521554D01*
X102305700Y-82651244D01*
X102286793Y-82709435D01*
X102242497Y-82741618D01*
X102243022Y-82742807D01*
X102237511Y-82745239D01*
X102237293Y-82745399D01*
X102236857Y-82745529D01*
X102133435Y-82791194D01*
X102053994Y-82870635D01*
X102008614Y-82973411D01*
X102005700Y-82998530D01*
X102005700Y-83888260D01*
X102005701Y-83888263D01*
X102008614Y-83913390D01*
X102033956Y-83970785D01*
X102053994Y-84016165D01*
X102133435Y-84095606D01*
X102236209Y-84140985D01*
X102261335Y-84143900D01*
X103151064Y-84143899D01*
X103176191Y-84140985D01*
X103278965Y-84095606D01*
X103358406Y-84016165D01*
X103365635Y-83999792D01*
X103406432Y-83954197D01*
X103466240Y-83941289D01*
X103522213Y-83966001D01*
X103546763Y-83999789D01*
X103553994Y-84016165D01*
X103633435Y-84095606D01*
X103736209Y-84140985D01*
X103761335Y-84143900D01*
X104651064Y-84143899D01*
X104676191Y-84140985D01*
X104778965Y-84095606D01*
X104816336Y-84058234D01*
X104870850Y-84030458D01*
X104931282Y-84040029D01*
X104956342Y-84058235D01*
X106661987Y-85763880D01*
X106661989Y-85763881D01*
X106661990Y-85763882D01*
X106661991Y-85763883D01*
X106753308Y-85816605D01*
X106753306Y-85816605D01*
X106753310Y-85816606D01*
X106753312Y-85816607D01*
X106855173Y-85843900D01*
X106960627Y-85843900D01*
X123896490Y-85843900D01*
X123954681Y-85862807D01*
X123982226Y-85893400D01*
X124021378Y-85961213D01*
X124021380Y-85961216D01*
X124133184Y-86073020D01*
X124270116Y-86152077D01*
X124422843Y-86193000D01*
X124422845Y-86193000D01*
X124580955Y-86193000D01*
X124580957Y-86193000D01*
X124733684Y-86152077D01*
X124870616Y-86073020D01*
X124982420Y-85961216D01*
X125010032Y-85913391D01*
X125021574Y-85893400D01*
X125067043Y-85852459D01*
X125107310Y-85843900D01*
X127714045Y-85843900D01*
X127772236Y-85862807D01*
X127804418Y-85907102D01*
X127805607Y-85906578D01*
X127808038Y-85912084D01*
X127808200Y-85912307D01*
X127808331Y-85912748D01*
X127808615Y-85913391D01*
X127853994Y-86016165D01*
X127933435Y-86095606D01*
X128036209Y-86140985D01*
X128061335Y-86143900D01*
X128951064Y-86143899D01*
X128976191Y-86140985D01*
X129078965Y-86095606D01*
X129158406Y-86016165D01*
X129165635Y-85999792D01*
X129206432Y-85954197D01*
X129266240Y-85941289D01*
X129322213Y-85966001D01*
X129346763Y-85999789D01*
X129353994Y-86016165D01*
X129433435Y-86095606D01*
X129536209Y-86140985D01*
X129561335Y-86143900D01*
X130451064Y-86143899D01*
X130476191Y-86140985D01*
X130578965Y-86095606D01*
X130658406Y-86016165D01*
X130703785Y-85913391D01*
X130706700Y-85888265D01*
X130706699Y-84998536D01*
X130703785Y-84973409D01*
X130658406Y-84870635D01*
X130621033Y-84833262D01*
X130593258Y-84778748D01*
X130602829Y-84718316D01*
X130621035Y-84693257D01*
X131002088Y-84312204D01*
X131471980Y-83842313D01*
X131524707Y-83750988D01*
X131552000Y-83649127D01*
X131552000Y-83543673D01*
X131552000Y-65876868D01*
X141435700Y-65876868D01*
X141435700Y-66009931D01*
X141461660Y-66140437D01*
X141512578Y-66263366D01*
X141512579Y-66263368D01*
X141512580Y-66263369D01*
X141586505Y-66374006D01*
X141680594Y-66468095D01*
X141791231Y-66542020D01*
X141914164Y-66592940D01*
X142044669Y-66618900D01*
X142044670Y-66618900D01*
X142177730Y-66618900D01*
X142177731Y-66618900D01*
X142308236Y-66592940D01*
X142431169Y-66542020D01*
X142541806Y-66468095D01*
X142635895Y-66374006D01*
X142709820Y-66263369D01*
X142760740Y-66140436D01*
X142786700Y-66009931D01*
X142786700Y-65876869D01*
X142760740Y-65746364D01*
X142709820Y-65623431D01*
X142635895Y-65512794D01*
X142541806Y-65418705D01*
X142539869Y-65417411D01*
X142431166Y-65344778D01*
X142308237Y-65293860D01*
X142177731Y-65267900D01*
X142044669Y-65267900D01*
X142044668Y-65267900D01*
X141914162Y-65293860D01*
X141791233Y-65344778D01*
X141680597Y-65418702D01*
X141586502Y-65512797D01*
X141512578Y-65623433D01*
X141461660Y-65746362D01*
X141435700Y-65876868D01*
X131552000Y-65876868D01*
X131552000Y-62876868D01*
X141435700Y-62876868D01*
X141435700Y-63009931D01*
X141461660Y-63140437D01*
X141512578Y-63263366D01*
X141512579Y-63263368D01*
X141512580Y-63263369D01*
X141586505Y-63374006D01*
X141680594Y-63468095D01*
X141791231Y-63542020D01*
X141914164Y-63592940D01*
X142044669Y-63618900D01*
X142044670Y-63618900D01*
X142177730Y-63618900D01*
X142177731Y-63618900D01*
X142308236Y-63592940D01*
X142431169Y-63542020D01*
X142541806Y-63468095D01*
X142635895Y-63374006D01*
X142709820Y-63263369D01*
X142760740Y-63140436D01*
X142786700Y-63009931D01*
X142786700Y-62876869D01*
X142760740Y-62746364D01*
X142709820Y-62623431D01*
X142635895Y-62512794D01*
X142541806Y-62418705D01*
X142431169Y-62344780D01*
X142431168Y-62344779D01*
X142431166Y-62344778D01*
X142308237Y-62293860D01*
X142177731Y-62267900D01*
X142044669Y-62267900D01*
X142044668Y-62267900D01*
X141914162Y-62293860D01*
X141791233Y-62344778D01*
X141680597Y-62418702D01*
X141586502Y-62512797D01*
X141512578Y-62623433D01*
X141461660Y-62746362D01*
X141435700Y-62876868D01*
X131552000Y-62876868D01*
X131552000Y-60965614D01*
X131552001Y-60965601D01*
X131552001Y-60852175D01*
X131552001Y-60852173D01*
X131524707Y-60750312D01*
X131519497Y-60741289D01*
X131493806Y-60696791D01*
X131493806Y-60696790D01*
X131471981Y-60658989D01*
X131471980Y-60658987D01*
X131397413Y-60584420D01*
X131397410Y-60584418D01*
X130736513Y-59923520D01*
X130736510Y-59923518D01*
X130736508Y-59923516D01*
X130645191Y-59870794D01*
X130645193Y-59870794D01*
X130605670Y-59860204D01*
X130543327Y-59843500D01*
X130543325Y-59843500D01*
X129005700Y-59843500D01*
X128947509Y-59824593D01*
X128911545Y-59775093D01*
X128906700Y-59744500D01*
X128906700Y-56902555D01*
X128925607Y-56844364D01*
X128969902Y-56812181D01*
X128969378Y-56810993D01*
X128974884Y-56808561D01*
X128975107Y-56808400D01*
X128975548Y-56808268D01*
X128976188Y-56807985D01*
X128976191Y-56807985D01*
X129078965Y-56762606D01*
X129158406Y-56683165D01*
X129165635Y-56666792D01*
X129206432Y-56621197D01*
X129266240Y-56608289D01*
X129322213Y-56633001D01*
X129346763Y-56666789D01*
X129353994Y-56683165D01*
X129433435Y-56762606D01*
X129536209Y-56807985D01*
X129561335Y-56810900D01*
X130451064Y-56810899D01*
X130476191Y-56807985D01*
X130578965Y-56762606D01*
X130658406Y-56683165D01*
X130703785Y-56580391D01*
X130706700Y-56555265D01*
X130706699Y-55665536D01*
X130703785Y-55640409D01*
X130658406Y-55537635D01*
X130621033Y-55500262D01*
X130593258Y-55445748D01*
X130602829Y-55385316D01*
X130621035Y-55360257D01*
X130818505Y-55162787D01*
X131482980Y-54498313D01*
X131484543Y-54495606D01*
X131535705Y-54406992D01*
X131535705Y-54406990D01*
X131535707Y-54406988D01*
X131563000Y-54305127D01*
X131563000Y-54199673D01*
X131563000Y-44748673D01*
X131535707Y-44646813D01*
X131502823Y-44589857D01*
X131482980Y-44555487D01*
X131408413Y-44480919D01*
X131408413Y-44480920D01*
X129121035Y-42193542D01*
X129116668Y-42184972D01*
X129109079Y-42179068D01*
X129103075Y-42158292D01*
X129093258Y-42139025D01*
X129094762Y-42129527D01*
X129092092Y-42120288D01*
X129098604Y-42105268D01*
X129102829Y-42078593D01*
X129112900Y-42062750D01*
X129116680Y-42057890D01*
X129158406Y-42016165D01*
X129170567Y-41988622D01*
X129178060Y-41978991D01*
X129193773Y-41968344D01*
X129206432Y-41954197D01*
X129218496Y-41951593D01*
X129228713Y-41944671D01*
X129247683Y-41945293D01*
X129266240Y-41941289D01*
X129277531Y-41946273D01*
X129289866Y-41946679D01*
X129304847Y-41958334D01*
X129322213Y-41966001D01*
X129331977Y-41979440D01*
X129338159Y-41984249D01*
X129339933Y-41990389D01*
X129346763Y-41999789D01*
X129353994Y-42016165D01*
X129433435Y-42095606D01*
X129536209Y-42140985D01*
X129561335Y-42143900D01*
X130451064Y-42143899D01*
X130476191Y-42140985D01*
X130578965Y-42095606D01*
X130658406Y-42016165D01*
X130703785Y-41913391D01*
X130706700Y-41888265D01*
X130706699Y-40998536D01*
X130703785Y-40973409D01*
X130658406Y-40870635D01*
X130578965Y-40791194D01*
X130476191Y-40745815D01*
X130476190Y-40745814D01*
X130476188Y-40745814D01*
X130451069Y-40742900D01*
X130451065Y-40742900D01*
X129650001Y-40742900D01*
X129591810Y-40723993D01*
X129579997Y-40713904D01*
X129550411Y-40684318D01*
X129550411Y-40684317D01*
X129287313Y-40421220D01*
X129287308Y-40421216D01*
X129195991Y-40368494D01*
X129195993Y-40368494D01*
X129156470Y-40357904D01*
X129094127Y-40341200D01*
X126384627Y-40341200D01*
X126279173Y-40341200D01*
X126216829Y-40357904D01*
X126177307Y-40368494D01*
X126085991Y-40421216D01*
X126085986Y-40421220D01*
X126030702Y-40476504D01*
X125976185Y-40504281D01*
X125960699Y-40505500D01*
X124855204Y-40505500D01*
X124797013Y-40486593D01*
X124761049Y-40437093D01*
X124759577Y-40380878D01*
X124762895Y-40368493D01*
X124768800Y-40346457D01*
X124768800Y-40188343D01*
X124727877Y-40035616D01*
X124648820Y-39898684D01*
X124537016Y-39786880D01*
X124400084Y-39707823D01*
X124247357Y-39666900D01*
X124247355Y-39666900D01*
X124175201Y-39666900D01*
X124117010Y-39647993D01*
X124105197Y-39637904D01*
X123434698Y-38967405D01*
X122741013Y-38273720D01*
X122741010Y-38273718D01*
X122741009Y-38273717D01*
X122741008Y-38273716D01*
X122649691Y-38220994D01*
X122649693Y-38220994D01*
X122610170Y-38210404D01*
X122547827Y-38193700D01*
X122547825Y-38193700D01*
X104464901Y-38193700D01*
X104406710Y-38174793D01*
X104394898Y-38164704D01*
X104151413Y-37921220D01*
X104151408Y-37921216D01*
X104060091Y-37868494D01*
X104060093Y-37868494D01*
X104020570Y-37857904D01*
X103958227Y-37841200D01*
X75768827Y-37841200D01*
X75663373Y-37841200D01*
X75601029Y-37857904D01*
X75561507Y-37868494D01*
X75470191Y-37921216D01*
X67507303Y-45884104D01*
X67500185Y-45887730D01*
X67495490Y-45894193D01*
X67473441Y-45901356D01*
X67452786Y-45911881D01*
X67437299Y-45913100D01*
X67429944Y-45913100D01*
X67380443Y-45899836D01*
X67327891Y-45869494D01*
X67327888Y-45869493D01*
X67226027Y-45842200D01*
X65752527Y-45842200D01*
X65647073Y-45842200D01*
X65584729Y-45858904D01*
X65545207Y-45869494D01*
X65453891Y-45922216D01*
X64986716Y-46389391D01*
X64933994Y-46480708D01*
X64933993Y-46480710D01*
X64921167Y-46528575D01*
X64921168Y-46528576D01*
X64910203Y-46569500D01*
X64906700Y-46582573D01*
X64906700Y-47056073D01*
X64906700Y-47161527D01*
X64916336Y-47197489D01*
X64933994Y-47263392D01*
X64986716Y-47354708D01*
X64986720Y-47354713D01*
X65258903Y-47626897D01*
X65286680Y-47681413D01*
X65277109Y-47741845D01*
X65233844Y-47785110D01*
X65188899Y-47795900D01*
X64473336Y-47795900D01*
X64423837Y-47782637D01*
X64344484Y-47736823D01*
X64191757Y-47695900D01*
X64033643Y-47695900D01*
X63880916Y-47736823D01*
X63743984Y-47815880D01*
X63632180Y-47927684D01*
X63553123Y-48064616D01*
X63512200Y-48217343D01*
X61256200Y-48217343D01*
X61256200Y-38928946D01*
X61260069Y-38901539D01*
X61305528Y-38743747D01*
X61309188Y-38733288D01*
X61419929Y-38465935D01*
X61424744Y-38455940D01*
X61465620Y-38381981D01*
X61564715Y-38202680D01*
X61570612Y-38193295D01*
X61738072Y-37957282D01*
X61744976Y-37948624D01*
X61937817Y-37732835D01*
X61945635Y-37725017D01*
X62161424Y-37532176D01*
X62170082Y-37525272D01*
X62406095Y-37357812D01*
X62415480Y-37351915D01*
X62668746Y-37211941D01*
X62678735Y-37207129D01*
X62946088Y-37096388D01*
X62956553Y-37092726D01*
X63044887Y-37067277D01*
X63114341Y-37047269D01*
X63141747Y-37043400D01*
X143770653Y-37043400D01*
X143798059Y-37047268D01*
G37*
%TD.AperFunction*%
%TD*%
M02*
