M48
; DRILL file KiCad 10.0.3 date 2026-08-03T21:39:11
; FORMAT={-:-/ absolute / metric / decimal}
; #@! TF.CreationDate,2026-08-03T21:39:11-04:00
; #@! TF.GenerationSoftware,Kicad,Pcbnew,10.0.3
; #@! TF.FileFunction,MixedPlating,1,2
FMAT,2
METRIC
; #@! TA.AperFunction,Plated,PTH,ViaDrill
T1C0.300
; #@! TA.AperFunction,Plated,PTH,ComponentDrill
T2C0.300
; #@! TA.AperFunction,NonPlated,NPTH,ComponentDrill
T3C0.850
%
G90
G05
T1
X2.6Y-12.0
X4.145Y-9.285
X4.95Y-14.685
X6.555Y-10.699
X7.147Y-9.149
X7.68Y-10.616
X9.206Y-10.344
X10.177Y-10.347
X10.617Y-45.3
X12.988Y-14.272
X17.002Y-9.529
X17.771Y-24.758
X17.835Y-7.82
X18.696Y-13.299
X19.098Y-15.583
X19.515Y-37.701
X21.295Y-19.392
X21.555Y-35.309
X21.595Y-20.444
X21.727Y-23.365
X21.988Y-12.63
X24.0Y-8.0
X24.097Y-6.651
X24.671Y-24.776
X24.973Y-20.378
X25.173Y-21.197
X25.264Y-29.658
X25.465Y-41.248
X26.45Y-20.062
X27.636Y-3.832
X29.584Y-4.409
X31.077Y-26.343
X31.385Y-20.288
X32.604Y-14.329
X33.763Y-29.841
X33.925Y-12.732
X36.356Y-26.606
X39.468Y-35.776
X41.057Y-17.968
X42.171Y-26.476
X42.494Y-19.345
X42.977Y-17.519
X43.0Y-2.4
X43.0Y-51.6
X43.365Y-11.81
X43.365Y-46.063
X43.525Y-33.365
X43.602Y-25.046
X44.842Y-4.382
X45.076Y-10.589
X46.971Y-16.897
X48.0Y-27.0
X48.719Y-21.268
X49.2Y-19.195
X49.348Y-4.51
X49.875Y-10.754
X52.0Y-40.0
X53.155Y-3.388
X54.501Y-41.189
X55.992Y-10.298
X56.395Y-5.303
X56.748Y-13.642
X59.181Y-46.035
X62.469Y-49.356
X63.359Y-38.549
X65.139Y-36.75
X66.471Y-7.34
X66.834Y-35.349
X67.037Y-40.535
X67.554Y-43.184
X68.366Y-31.023
X68.518Y-6.882
X68.526Y-21.39
X68.599Y-12.732
X69.35Y-10.797
X69.647Y-32.694
X69.851Y-18.138
X69.852Y-26.728
X71.959Y-38.53
X74.238Y-5.729
X83.0Y-12.0
X83.0Y-27.0
X83.0Y-51.0
T2
X8.0Y-14.2
X8.5Y-22.8
T3
X81.455Y-26.5
X81.455Y-29.5
M30
