%TF.GenerationSoftware,KiCad,Pcbnew,10.0.3*%
%TF.CreationDate,2026-07-31T15:20:20-04:00*%
%TF.ProjectId,NeuralCard,4e657572-616c-4436-9172-642e6b696361,rev?*%
%TF.SameCoordinates,Original*%
%TF.FileFunction,Copper,L2,Bot*%
%TF.FilePolarity,Positive*%
%FSLAX46Y46*%
G04 Gerber Fmt 4.6, Leading zero omitted, Abs format (unit mm)*
G04 Created by KiCad (PCBNEW 10.0.3) date 2026-07-31 15:20:20*
%MOMM*%
%LPD*%
G01*
G04 APERTURE LIST*
G04 Aperture macros list*
%AMRoundRect*
0 Rectangle with rounded corners*
0 $1 Rounding radius*
0 $2 $3 $4 $5 $6 $7 $8 $9 X,Y pos of 4 corners*
0 Add a 4 corners polygon primitive as box body*
4,1,4,$2,$3,$4,$5,$6,$7,$8,$9,$2,$3,0*
0 Add four circle primitives for the rounded corners*
1,1,$1+$1,$2,$3*
1,1,$1+$1,$4,$5*
1,1,$1+$1,$6,$7*
1,1,$1+$1,$8,$9*
0 Add four rect primitives between the rounded corners*
20,1,$1+$1,$2,$3,$4,$5,0*
20,1,$1+$1,$4,$5,$6,$7,0*
20,1,$1+$1,$6,$7,$8,$9,0*
20,1,$1+$1,$8,$9,$2,$3,0*%
G04 Aperture macros list end*
%TA.AperFunction,EtchedComponent*%
%ADD10C,0.300000*%
%TD*%
%TA.AperFunction,SMDPad,CuDef*%
%ADD11R,0.675000X0.280000*%
%TD*%
%TA.AperFunction,SMDPad,CuDef*%
%ADD12R,0.280000X0.675000*%
%TD*%
%TA.AperFunction,SMDPad,CuDef*%
%ADD13RoundRect,0.200000X-0.200000X-0.275000X0.200000X-0.275000X0.200000X0.275000X-0.200000X0.275000X0*%
%TD*%
%TA.AperFunction,SMDPad,CuDef*%
%ADD14RoundRect,0.225000X-0.225000X-0.250000X0.225000X-0.250000X0.225000X0.250000X-0.225000X0.250000X0*%
%TD*%
%TA.AperFunction,SMDPad,CuDef*%
%ADD15R,1.000000X0.750000*%
%TD*%
%TA.AperFunction,SMDPad,CuDef*%
%ADD16RoundRect,0.250000X-0.250000X-0.475000X0.250000X-0.475000X0.250000X0.475000X-0.250000X0.475000X0*%
%TD*%
%TA.AperFunction,SMDPad,CuDef*%
%ADD17R,1.500000X2.200000*%
%TD*%
%TA.AperFunction,SMDPad,CuDef*%
%ADD18RoundRect,0.150000X-0.500000X0.150000X-0.500000X-0.150000X0.500000X-0.150000X0.500000X0.150000X0*%
%TD*%
%TA.AperFunction,SMDPad,CuDef*%
%ADD19RoundRect,0.175000X-0.175000X0.350000X-0.175000X-0.350000X0.175000X-0.350000X0.175000X0.350000X0*%
%TD*%
%TA.AperFunction,SMDPad,CuDef*%
%ADD20R,4.200000X3.800000*%
%TD*%
%TA.AperFunction,SMDPad,CuDef*%
%ADD21O,0.574000X1.888000*%
%TD*%
%TA.AperFunction,SMDPad,CuDef*%
%ADD22R,1.500000X0.900000*%
%TD*%
%TA.AperFunction,SMDPad,CuDef*%
%ADD23R,0.900000X1.500000*%
%TD*%
%TA.AperFunction,SMDPad,CuDef*%
%ADD24R,0.900000X0.900000*%
%TD*%
%TA.AperFunction,SMDPad,CuDef*%
%ADD25R,1.200000X1.000000*%
%TD*%
%TA.AperFunction,ComponentPad*%
%ADD26C,1.200000*%
%TD*%
%TA.AperFunction,SMDPad,CuDef*%
%ADD27RoundRect,0.225000X0.250000X-0.225000X0.250000X0.225000X-0.250000X0.225000X-0.250000X-0.225000X0*%
%TD*%
%TA.AperFunction,ViaPad*%
%ADD28C,0.600000*%
%TD*%
%TA.AperFunction,ViaPad*%
%ADD29C,0.500000*%
%TD*%
%TA.AperFunction,Conductor*%
%ADD30C,0.200000*%
%TD*%
%TA.AperFunction,Conductor*%
%ADD31C,0.300000*%
%TD*%
G04 APERTURE END LIST*
%TO.C,ANT1*%
D10*
X63306200Y-52593400D02*
X63306200Y-76793400D01*
X63306200Y-76793400D02*
X75006200Y-76793400D01*
X63856200Y-50643400D02*
X63856200Y-52593400D01*
X63856200Y-52593400D02*
X63306200Y-52593400D01*
X63906200Y-53193400D02*
X63906200Y-53193400D01*
X63906200Y-53193400D02*
X63906200Y-76193400D01*
X63906200Y-76193400D02*
X74406200Y-76193400D01*
X64506200Y-53793400D02*
X64506200Y-53793400D01*
X64506200Y-53793400D02*
X64506200Y-75593400D01*
X64506200Y-75593400D02*
X73806200Y-75593400D01*
X65106200Y-54393400D02*
X65106200Y-54393400D01*
X65106200Y-54393400D02*
X65106200Y-74993400D01*
X65106200Y-74993400D02*
X73206200Y-74993400D01*
X65706200Y-54993400D02*
X65706200Y-54993400D01*
X65706200Y-54993400D02*
X65706200Y-74393400D01*
X65706200Y-74393400D02*
X72606200Y-74393400D01*
X66306200Y-55593400D02*
X66306200Y-55593400D01*
X66306200Y-55593400D02*
X66306200Y-73793400D01*
X66306200Y-73793400D02*
X72006200Y-73793400D01*
X66906200Y-56193400D02*
X66906200Y-56193400D01*
X66906200Y-56193400D02*
X66906200Y-73193400D01*
X66906200Y-73193400D02*
X71406200Y-73193400D01*
X67506200Y-56793400D02*
X67506200Y-56793400D01*
X67506200Y-56793400D02*
X67506200Y-72593400D01*
X67506200Y-72593400D02*
X70806200Y-72593400D01*
X68106200Y-57393400D02*
X68106200Y-57393400D01*
X68106200Y-57393400D02*
X68106200Y-71993400D01*
X68106200Y-71993400D02*
X70206200Y-71993400D01*
X70206200Y-57993400D02*
X69542200Y-58784400D01*
X70206200Y-71993400D02*
X70206200Y-57993400D01*
X70806200Y-57393400D02*
X68106200Y-57393400D01*
X70806200Y-72593400D02*
X70806200Y-57393400D01*
X71406200Y-56793400D02*
X67506200Y-56793400D01*
X71406200Y-73193400D02*
X71406200Y-56793400D01*
X72006200Y-56193400D02*
X66906200Y-56193400D01*
X72006200Y-73793400D02*
X72006200Y-56193400D01*
X72606200Y-55593400D02*
X66306200Y-55593400D01*
X72606200Y-74393400D02*
X72606200Y-55593400D01*
X73206200Y-54993400D02*
X65706200Y-54993400D01*
X73206200Y-74993400D02*
X73206200Y-54993400D01*
X73806200Y-54393400D02*
X65106200Y-54393400D01*
X73806200Y-75593400D02*
X73806200Y-54393400D01*
X74406200Y-53793400D02*
X64506200Y-53793400D01*
X74406200Y-76193400D02*
X74406200Y-53793400D01*
X75006200Y-53193400D02*
X63906200Y-53193400D01*
X75006200Y-76793400D02*
X75006200Y-53193400D01*
%TD*%
D11*
%TO.P,U2,1*%
%TO.N,+3V3*%
X80896200Y-46693400D03*
%TO.P,U2,2*%
%TO.N,unconnected-(U2-SDx-Pad2)*%
X80896200Y-46193400D03*
%TO.P,U2,3*%
%TO.N,unconnected-(U2-SCx-Pad3)*%
X80896200Y-45693400D03*
%TO.P,U2,4*%
%TO.N,IMU_INT*%
X80896200Y-45193400D03*
D12*
%TO.P,U2,5*%
%TO.N,+3V3*%
X81656200Y-44933400D03*
%TO.P,U2,6*%
%TO.N,GND*%
X82156200Y-44933400D03*
%TO.P,U2,7*%
X82656200Y-44933400D03*
D11*
%TO.P,U2,8*%
%TO.N,+3V3*%
X83416200Y-45193400D03*
%TO.P,U2,9*%
%TO.N,unconnected-(U2-INT2-Pad9)*%
X83416200Y-45693400D03*
%TO.P,U2,10*%
%TO.N,unconnected-(U2-NC-Pad10)*%
X83416200Y-46193400D03*
%TO.P,U2,11*%
%TO.N,unconnected-(U2-NC-Pad11)*%
X83416200Y-46693400D03*
D12*
%TO.P,U2,12*%
%TO.N,+3V3*%
X82656200Y-46953400D03*
%TO.P,U2,13*%
%TO.N,SCL*%
X82156200Y-46953400D03*
%TO.P,U2,14*%
%TO.N,SDA*%
X81656200Y-46953400D03*
%TD*%
D13*
%TO.P,R10,1*%
%TO.N,+3V3*%
X113649200Y-40943400D03*
%TO.P,R10,2*%
%TO.N,IO0*%
X115299200Y-40943400D03*
%TD*%
D14*
%TO.P,C2,1*%
%TO.N,+3V3*%
X139881200Y-40943400D03*
%TO.P,C2,2*%
%TO.N,GND*%
X141431200Y-40943400D03*
%TD*%
D15*
%TO.P,SW2,1*%
%TO.N,EN*%
X81656200Y-85593400D03*
%TO.P,SW2,2*%
%TO.N,GND*%
X87656200Y-85593400D03*
%TO.P,SW2,3*%
%TO.N,EN*%
X81656200Y-81893400D03*
%TO.P,SW2,4*%
%TO.N,GND*%
X87656200Y-81893400D03*
%TD*%
D13*
%TO.P,R3,1*%
%TO.N,CHX3*%
X80922200Y-40943400D03*
%TO.P,R3,2*%
%TO.N,CP3*%
X82572200Y-40943400D03*
%TD*%
D16*
%TO.P,C8,1*%
%TO.N,+3V3*%
X97706200Y-87943400D03*
%TO.P,C8,2*%
%TO.N,GND*%
X99606200Y-87943400D03*
%TD*%
D17*
%TO.P,J1,1*%
%TO.N,+3V3*%
X126656200Y-86443400D03*
%TO.P,J1,2*%
%TO.N,GND*%
X129196200Y-86443400D03*
%TO.P,J1,3*%
%TO.N,TXD*%
X131736200Y-86443400D03*
%TO.P,J1,4*%
%TO.N,RXD*%
X134276200Y-86443400D03*
%TO.P,J1,5*%
%TO.N,EN*%
X136816200Y-86443400D03*
%TO.P,J1,6*%
%TO.N,IO0*%
X139356200Y-86443400D03*
%TD*%
D18*
%TO.P,SW3,1*%
%TO.N,N/C*%
X140161200Y-62193400D03*
%TO.P,SW3,2*%
%TO.N,VBAT*%
X140161200Y-65193400D03*
%TO.P,SW3,3*%
%TO.N,+3V3*%
X140161200Y-66693400D03*
D19*
%TO.P,SW3,SH*%
%TO.N,N/C*%
X143211200Y-60768400D03*
X141011200Y-60768400D03*
X143211200Y-68118400D03*
X141011200Y-68118400D03*
%TD*%
D16*
%TO.P,C10,1*%
%TO.N,+3V3*%
X117706200Y-87943400D03*
%TO.P,C10,2*%
%TO.N,GND*%
X119606200Y-87943400D03*
%TD*%
D20*
%TO.P,BT1,1*%
%TO.N,VBAT*%
X137046200Y-64443400D03*
%TO.P,BT1,2*%
%TO.N,GND*%
X108266200Y-64443400D03*
%TD*%
D16*
%TO.P,C9,1*%
%TO.N,+3V3*%
X107706200Y-87943400D03*
%TO.P,C9,2*%
%TO.N,GND*%
X109606200Y-87943400D03*
%TD*%
D14*
%TO.P,C1,1*%
%TO.N,+3V3*%
X133336200Y-40943400D03*
%TO.P,C1,2*%
%TO.N,GND*%
X134886200Y-40943400D03*
%TD*%
D13*
%TO.P,R6,1*%
%TO.N,CHX6*%
X100558200Y-40943400D03*
%TO.P,R6,2*%
%TO.N,CP6*%
X102208200Y-40943400D03*
%TD*%
D21*
%TO.P,U4,1*%
%TO.N,unconnected-(U4-V_EH-Pad1)*%
X64956200Y-43343400D03*
%TO.P,U4,2*%
%TO.N,NFC_ANT_A*%
X66226200Y-43343400D03*
%TO.P,U4,3*%
%TO.N,NFC_ANT_B*%
X67486200Y-43343400D03*
%TO.P,U4,4*%
%TO.N,GND*%
X68756200Y-43343400D03*
%TO.P,U4,5*%
%TO.N,SDA*%
X68756200Y-48743400D03*
%TO.P,U4,6*%
%TO.N,SCL*%
X67486200Y-48743400D03*
%TO.P,U4,7*%
%TO.N,NFC_GPO*%
X66226200Y-48743400D03*
%TO.P,U4,8*%
%TO.N,+3V3*%
X64956200Y-48743400D03*
%TD*%
D13*
%TO.P,R4,1*%
%TO.N,CHX4*%
X87467200Y-40943400D03*
%TO.P,R4,2*%
%TO.N,CP4*%
X89117200Y-40943400D03*
%TD*%
%TO.P,R12,1*%
%TO.N,+3V3*%
X126740200Y-40943400D03*
%TO.P,R12,2*%
%TO.N,SCL*%
X128390200Y-40943400D03*
%TD*%
%TO.P,R5,1*%
%TO.N,CHX5*%
X94013200Y-40943400D03*
%TO.P,R5,2*%
%TO.N,CP5*%
X95663200Y-40943400D03*
%TD*%
D22*
%TO.P,U1,1*%
%TO.N,GND*%
X83906200Y-72333400D03*
%TO.P,U1,2*%
%TO.N,+3V3*%
X83906200Y-71063400D03*
%TO.P,U1,3*%
%TO.N,EN*%
X83906200Y-69793400D03*
%TO.P,U1,4*%
%TO.N,CHX1*%
X83906200Y-68523400D03*
%TO.P,U1,5*%
%TO.N,CHX2*%
X83906200Y-67253400D03*
%TO.P,U1,6*%
%TO.N,CHX3*%
X83906200Y-65983400D03*
%TO.P,U1,7*%
%TO.N,CHX4*%
X83906200Y-64713400D03*
%TO.P,U1,8*%
%TO.N,CHX5*%
X83906200Y-63443400D03*
%TO.P,U1,9*%
%TO.N,CHX6*%
X83906200Y-62173400D03*
%TO.P,U1,10*%
%TO.N,SCL*%
X83906200Y-60903400D03*
%TO.P,U1,11*%
%TO.N,IMU_INT*%
X83906200Y-59633400D03*
%TO.P,U1,12*%
%TO.N,SDA*%
X83906200Y-58363400D03*
%TO.P,U1,13*%
%TO.N,unconnected-(U1-IO19-Pad13)*%
X83906200Y-57093400D03*
%TO.P,U1,14*%
%TO.N,unconnected-(U1-IO20-Pad14)*%
X83906200Y-55823400D03*
D23*
%TO.P,U1,15*%
%TO.N,unconnected-(U1-IO3-Pad15)*%
X85666200Y-54553400D03*
%TO.P,U1,16*%
%TO.N,unconnected-(U1-IO46-Pad16)*%
X86936200Y-54553400D03*
%TO.P,U1,17*%
%TO.N,unconnected-(U1-IO9-Pad17)*%
X88206200Y-54553400D03*
%TO.P,U1,18*%
%TO.N,unconnected-(U1-IO10-Pad18)*%
X89486200Y-54553400D03*
%TO.P,U1,19*%
%TO.N,unconnected-(U1-IO11-Pad19)*%
X90756200Y-54553400D03*
%TO.P,U1,20*%
%TO.N,unconnected-(U1-IO12-Pad20)*%
X92026200Y-54553400D03*
%TO.P,U1,21*%
%TO.N,unconnected-(U1-IO13-Pad21)*%
X93296200Y-54553400D03*
%TO.P,U1,22*%
%TO.N,unconnected-(U1-IO14-Pad22)*%
X94566200Y-54553400D03*
%TO.P,U1,23*%
%TO.N,NFC_GPO*%
X95836200Y-54553400D03*
%TO.P,U1,24*%
%TO.N,unconnected-(U1-IO47-Pad24)*%
X97106200Y-54553400D03*
%TO.P,U1,25*%
%TO.N,unconnected-(U1-IO48-Pad25)*%
X98376200Y-54553400D03*
%TO.P,U1,26*%
%TO.N,unconnected-(U1-IO45-Pad26)*%
X99646200Y-54583400D03*
D22*
%TO.P,U1,27*%
%TO.N,IO0*%
X101406200Y-55823400D03*
%TO.P,U1,28*%
%TO.N,unconnected-(U1-IO35-Pad28)*%
X101406200Y-57093400D03*
%TO.P,U1,29*%
%TO.N,unconnected-(U1-IO36-Pad29)*%
X101406200Y-58363400D03*
%TO.P,U1,30*%
%TO.N,unconnected-(U1-IO37-Pad30)*%
X101406200Y-59633400D03*
%TO.P,U1,31*%
%TO.N,unconnected-(U1-IO38-Pad31)*%
X101406200Y-60903400D03*
%TO.P,U1,32*%
%TO.N,unconnected-(U1-IO39-Pad32)*%
X101406200Y-62173400D03*
%TO.P,U1,33*%
%TO.N,unconnected-(U1-IO40-Pad33)*%
X101406200Y-63443400D03*
%TO.P,U1,34*%
%TO.N,unconnected-(U1-IO41-Pad34)*%
X101406200Y-64713400D03*
%TO.P,U1,35*%
%TO.N,unconnected-(U1-IO42-Pad35)*%
X101406200Y-65983400D03*
%TO.P,U1,36*%
%TO.N,RXD*%
X101406200Y-67253400D03*
%TO.P,U1,37*%
%TO.N,TXD*%
X101406200Y-68523400D03*
%TO.P,U1,38*%
%TO.N,unconnected-(U1-IO2-Pad38)*%
X101406200Y-69793400D03*
%TO.P,U1,39*%
%TO.N,unconnected-(U1-IO1-Pad39)*%
X101406200Y-71063400D03*
%TO.P,U1,40*%
%TO.N,GND*%
X101406200Y-72333400D03*
D24*
%TO.P,U1,41*%
X89756200Y-63213400D03*
X89756200Y-64613400D03*
X89756200Y-66013400D03*
X91156200Y-63213400D03*
X91156200Y-64613400D03*
X91156200Y-66013400D03*
X92556200Y-63213400D03*
X92556200Y-64613400D03*
X92556200Y-66013400D03*
%TD*%
D13*
%TO.P,R1,1*%
%TO.N,CHX1*%
X67831200Y-40943400D03*
%TO.P,R1,2*%
%TO.N,CP1*%
X69481200Y-40943400D03*
%TD*%
D14*
%TO.P,C12,1*%
%TO.N,NFC_ANT_A*%
X70781200Y-49843400D03*
%TO.P,C12,2*%
%TO.N,NFC_ANT_B*%
X72331200Y-49843400D03*
%TD*%
D13*
%TO.P,R2,1*%
%TO.N,CHX2*%
X74376200Y-40943400D03*
%TO.P,R2,2*%
%TO.N,CP2*%
X76026200Y-40943400D03*
%TD*%
%TO.P,R14,1*%
%TO.N,+3V3*%
X121831200Y-88743400D03*
%TO.P,R14,2*%
%TO.N,NFC_GPO*%
X123481200Y-88743400D03*
%TD*%
D25*
%TO.P,ANT1,1*%
%TO.N,NFC_ANT_A*%
X63856200Y-50643400D03*
D26*
%TO.P,ANT1,2*%
%TO.N,NFC_ANT_B*%
X68656200Y-50643400D03*
%TO.P,ANT1,3*%
%TO.N,N/C*%
X69156200Y-59243400D03*
%TD*%
D14*
%TO.P,C3,1*%
%TO.N,+3V3*%
X67881200Y-87943400D03*
%TO.P,C3,2*%
%TO.N,GND*%
X69431200Y-87943400D03*
%TD*%
D13*
%TO.P,R9,1*%
%TO.N,+3V3*%
X107104200Y-40943400D03*
%TO.P,R9,2*%
%TO.N,EN*%
X108754200Y-40943400D03*
%TD*%
D14*
%TO.P,C5,1*%
%TO.N,+3V3*%
X87881200Y-87943400D03*
%TO.P,C5,2*%
%TO.N,GND*%
X89431200Y-87943400D03*
%TD*%
D15*
%TO.P,SW1,1*%
%TO.N,IO0*%
X69656200Y-85593400D03*
%TO.P,SW1,2*%
%TO.N,GND*%
X75656200Y-85593400D03*
%TO.P,SW1,3*%
%TO.N,IO0*%
X69656200Y-81893400D03*
%TO.P,SW1,4*%
%TO.N,GND*%
X75656200Y-81893400D03*
%TD*%
D14*
%TO.P,C4,1*%
%TO.N,EN*%
X77881200Y-87943400D03*
%TO.P,C4,2*%
%TO.N,GND*%
X79431200Y-87943400D03*
%TD*%
D13*
%TO.P,R11,1*%
%TO.N,+3V3*%
X120195200Y-40943400D03*
%TO.P,R11,2*%
%TO.N,SDA*%
X121845200Y-40943400D03*
%TD*%
D27*
%TO.P,C11,1*%
%TO.N,+3V3*%
X71456200Y-45218400D03*
%TO.P,C11,2*%
%TO.N,GND*%
X71456200Y-43668400D03*
%TD*%
D28*
%TO.N,CP1*%
X123871300Y-63977000D03*
X71030000Y-46269400D03*
X129757100Y-47240900D03*
%TO.N,CP2*%
X77822100Y-45969000D03*
X102729700Y-59463400D03*
X103425300Y-65381300D03*
%TO.N,CP4*%
X103823900Y-50079200D03*
X80444000Y-60585600D03*
%TO.N,CP3*%
X86003300Y-56867100D03*
X84746300Y-48316000D03*
X97520600Y-70507200D03*
X82103100Y-51395500D03*
X102644000Y-76065000D03*
%TO.N,CP5*%
X104021500Y-53962500D03*
X124501900Y-85592500D03*
X123963000Y-80341800D03*
%TO.N,CP6*%
X103772900Y-41207600D03*
X106472400Y-60756100D03*
X104024700Y-59671100D03*
X105551500Y-64565900D03*
%TO.N,+3V3*%
X82920600Y-49778200D03*
X80014600Y-49572100D03*
%TO.N,IMU_INT*%
X80971100Y-44200100D03*
X78770700Y-57730000D03*
X85589400Y-60082700D03*
X78115300Y-43606500D03*
%TO.N,GND*%
X118525874Y-63385583D03*
X134447483Y-42395533D03*
X90843158Y-41348422D03*
X78220039Y-68577168D03*
X100365963Y-77852983D03*
X99802816Y-45933050D03*
X112656200Y-76443400D03*
X81665302Y-72665650D03*
D29*
X86514000Y-68068000D03*
D28*
X84656200Y-44443400D03*
X129620450Y-63443399D03*
X112725135Y-82610050D03*
X114564575Y-46796729D03*
X129679741Y-52692594D03*
X129576400Y-68391308D03*
X114564575Y-50903954D03*
X65606200Y-50710056D03*
X103656200Y-38843400D03*
X116934350Y-42546018D03*
X77670794Y-40437706D03*
X105925334Y-50287901D03*
X123687000Y-67733900D03*
X83454886Y-81414757D03*
X105608883Y-73177004D03*
D29*
X68756200Y-42543400D03*
D28*
X108469570Y-76628050D03*
X103656200Y-88043400D03*
X103807290Y-79363224D03*
X97085874Y-43704929D03*
X143656200Y-87443400D03*
X108656200Y-63443400D03*
X143656200Y-48443400D03*
D29*
X82556200Y-45383400D03*
D28*
X110325257Y-51696766D03*
X63256200Y-48443400D03*
%TO.N,SCL*%
X67444200Y-46513600D03*
X80720500Y-59635200D03*
X80880100Y-52026800D03*
X85836000Y-61444500D03*
X124168300Y-40267400D03*
%TO.N,SDA*%
X69675200Y-45782700D03*
X121492100Y-39681000D03*
X80684300Y-48276400D03*
X80393000Y-57730000D03*
X78861400Y-45075400D03*
X79662100Y-39874800D03*
X85718600Y-57730000D03*
%TO.N,IO0*%
X100039800Y-71786000D03*
X79886700Y-74854400D03*
%TO.N,EN*%
X121419700Y-72601700D03*
X101088900Y-75631000D03*
%TO.N,CHX6*%
X100498700Y-42327400D03*
X92714900Y-44510800D03*
X97540000Y-52026800D03*
X85538900Y-58647100D03*
%TO.N,NFC_ANT_A*%
X70911700Y-48196400D03*
X64112700Y-48296400D03*
%TO.N,NFC_GPO*%
X65973100Y-46844600D03*
X92078500Y-46724400D03*
%TD*%
%TO.N,CP1*%
D30*
X69481200Y-44719000D02*
X71030000Y-46267800D01*
X123871300Y-53126700D02*
X129757100Y-47240900D01*
X123871300Y-63977000D02*
X123871300Y-53126700D01*
X69481200Y-40943400D02*
X69481200Y-44719000D01*
X71030000Y-46267800D02*
X71030000Y-46269400D01*
%TO.N,CP2*%
X103425300Y-65381300D02*
X102729700Y-64685700D01*
X77820600Y-44162600D02*
X77820600Y-45967500D01*
X102729700Y-64685700D02*
X102729700Y-59463400D01*
X77513600Y-42430800D02*
X77513600Y-43855600D01*
X76026200Y-40943400D02*
X77513600Y-42430800D01*
X77513600Y-43855600D02*
X77820600Y-44162600D01*
X77820600Y-45967500D02*
X77822100Y-45969000D01*
%TO.N,CP4*%
X81750700Y-53128700D02*
X81750700Y-59455900D01*
X81750700Y-59455900D02*
X80621000Y-60585600D01*
X89117200Y-40943400D02*
X89900500Y-40160100D01*
X80621000Y-60585600D02*
X80444000Y-60585600D01*
X86383600Y-40774500D02*
X86383600Y-48495800D01*
X86383600Y-48495800D02*
X81750700Y-53128700D01*
X89900500Y-40160100D02*
X96073400Y-40160100D01*
X89117200Y-40943400D02*
X88336500Y-40162700D01*
X86995400Y-40162700D02*
X86383600Y-40774500D01*
X88336500Y-40162700D02*
X86995400Y-40162700D01*
X96073400Y-40160100D02*
X103823900Y-47910600D01*
X103823900Y-47910600D02*
X103823900Y-50079200D01*
%TO.N,CP3*%
X102644000Y-76065000D02*
X97520600Y-70941600D01*
X84064500Y-49485200D02*
X84064500Y-48316000D01*
X84746300Y-48316000D02*
X84064500Y-48316000D01*
X84064500Y-48316000D02*
X84064500Y-44775400D01*
X94229700Y-67476000D02*
X97260900Y-70507200D01*
X82572200Y-43283100D02*
X82572200Y-40943400D01*
X86003300Y-56867100D02*
X87607400Y-56867100D01*
X97260900Y-70507200D02*
X97520600Y-70507200D01*
X97520600Y-70941600D02*
X97520600Y-70507200D01*
X84064500Y-44775400D02*
X82572200Y-43283100D01*
X82154200Y-51395500D02*
X84064500Y-49485200D01*
X94229700Y-63489400D02*
X94229700Y-67476000D01*
X87607400Y-56867100D02*
X94229700Y-63489400D01*
X82103100Y-51395500D02*
X82154200Y-51395500D01*
%TO.N,CP5*%
X95663200Y-40943400D02*
X95663200Y-45604200D01*
X95663200Y-45604200D02*
X104021500Y-53962500D01*
X124501900Y-80880700D02*
X123963000Y-80341800D01*
X124501900Y-85592500D02*
X124501900Y-80880700D01*
%TO.N,CP6*%
X104641600Y-43376800D02*
X104641600Y-59051000D01*
X105551500Y-61677000D02*
X105551500Y-64565900D01*
X102208200Y-40943400D02*
X103122700Y-41857800D01*
X103772900Y-41207600D02*
X103122700Y-41857800D01*
X106472400Y-60756100D02*
X105551500Y-61677000D01*
X104024700Y-59667900D02*
X104024700Y-59671100D01*
X104641600Y-59051000D02*
X104024700Y-59667900D01*
X103122700Y-41857800D02*
X104641600Y-43376800D01*
%TO.N,+3V3*%
X82656200Y-46314200D02*
X82397800Y-46314200D01*
X108082600Y-39729400D02*
X107104200Y-40707800D01*
X82920600Y-49778200D02*
X82656200Y-49513800D01*
X69038800Y-40150500D02*
X69900400Y-40150500D01*
X68250200Y-39273100D02*
X67081800Y-40441500D01*
X120195200Y-40943400D02*
X120972700Y-41720900D01*
X120972700Y-41720900D02*
X125962700Y-41720900D01*
X134138800Y-40140800D02*
X133336200Y-40943400D01*
X124947400Y-89553900D02*
X126656200Y-87845100D01*
X106663700Y-86900900D02*
X107706200Y-87943400D01*
X126656200Y-87744200D02*
X126656200Y-87843600D01*
X88681700Y-74787200D02*
X88681700Y-87142900D01*
X70664100Y-44426300D02*
X71456200Y-45218400D01*
X82656200Y-49513800D02*
X82656200Y-46953400D01*
X73925500Y-87156300D02*
X75541100Y-88771900D01*
X66844000Y-45122900D02*
X64956200Y-47010700D01*
X97706200Y-87943400D02*
X96905700Y-87142900D01*
X81656200Y-44252100D02*
X81656200Y-44933400D01*
X107706200Y-87943400D02*
X108739000Y-88976200D01*
X133336200Y-40943400D02*
X132558700Y-41720900D01*
X140161200Y-66693400D02*
X139500000Y-67443400D01*
D31*
X145156200Y-69943400D02*
X145156200Y-59843400D01*
D30*
X87052700Y-88771900D02*
X87881200Y-87943400D01*
X96905700Y-87142900D02*
X88681700Y-87142900D01*
X97706200Y-87943400D02*
X98748700Y-86900900D01*
X116673400Y-88976200D02*
X117706200Y-87943400D01*
X108739000Y-88976200D02*
X116673400Y-88976200D01*
X118736900Y-88974100D02*
X121600500Y-88974100D01*
X82397800Y-46314200D02*
X81656200Y-45572600D01*
X139881200Y-40943400D02*
X139078600Y-40140800D01*
D31*
X139881200Y-59843400D02*
X139881200Y-59403400D01*
D30*
X70664100Y-40914200D02*
X70664100Y-44426300D01*
X68281700Y-41739200D02*
X68656200Y-41364700D01*
X83906200Y-71063400D02*
X84957900Y-71063400D01*
X116039100Y-41429400D02*
X116039100Y-40943400D01*
X81656200Y-40471300D02*
X80458000Y-39273100D01*
X126656200Y-87845100D02*
X140233300Y-87845100D01*
X115280400Y-39729400D02*
X108082600Y-39729400D01*
X126656200Y-87843600D02*
X126656200Y-87845100D01*
X121600500Y-88974100D02*
X121831200Y-88743400D01*
X68656200Y-41364700D02*
X68656200Y-40533100D01*
X82404300Y-39723200D02*
X81656200Y-40471300D01*
X75541100Y-88771900D02*
X87052700Y-88771900D01*
X69900400Y-40150500D02*
X70664100Y-40914200D01*
X80014600Y-46935800D02*
X80014600Y-49572100D01*
X80257000Y-46693400D02*
X80014600Y-46935800D01*
X114426700Y-41720900D02*
X115747600Y-41720900D01*
D31*
X145156200Y-59843400D02*
X141356200Y-59843400D01*
D30*
X127517700Y-41720900D02*
X126740200Y-40943400D01*
X84957900Y-71063400D02*
X88681700Y-74787200D01*
X80896200Y-46693400D02*
X80257000Y-46693400D01*
X122641700Y-89553900D02*
X124947400Y-89553900D01*
X107104200Y-40707800D02*
X107104200Y-40943400D01*
X139500000Y-70010000D02*
X140410000Y-70010000D01*
X67081800Y-41739200D02*
X68281700Y-41739200D01*
X66844000Y-41977000D02*
X66844000Y-45122900D01*
X81656200Y-40471300D02*
X81656200Y-44252100D01*
X88681700Y-87142900D02*
X87881200Y-87943400D01*
D31*
X141356200Y-59843400D02*
X139881200Y-59843400D01*
D30*
X116039100Y-40943400D02*
X116039100Y-40488100D01*
X83416200Y-44789200D02*
X82879100Y-44252100D01*
X107104200Y-40707800D02*
X106119600Y-39723200D01*
X83416200Y-45193400D02*
X83416200Y-44789200D01*
X139078600Y-40140800D02*
X134138800Y-40140800D01*
X64956200Y-47010700D02*
X64956200Y-48743400D01*
X140407900Y-87670500D02*
X140407900Y-70006800D01*
X126656200Y-86443400D02*
X126656200Y-87744200D01*
X120195200Y-40943400D02*
X116039100Y-40943400D01*
X125962700Y-41720900D02*
X126740200Y-40943400D01*
X82879100Y-44252100D02*
X81656200Y-44252100D01*
X140233300Y-87845100D02*
X140407900Y-87670500D01*
X67881200Y-87943400D02*
X68668300Y-87156300D01*
X106119600Y-39723200D02*
X82404300Y-39723200D01*
X67081800Y-41739200D02*
X66844000Y-41977000D01*
X68668300Y-87156300D02*
X73925500Y-87156300D01*
X116039100Y-40488100D02*
X115280400Y-39729400D01*
X81656200Y-44933400D02*
X81656200Y-45572600D01*
X139500000Y-67443400D02*
X139500000Y-70010000D01*
X98748700Y-86900900D02*
X106663700Y-86900900D01*
X113649200Y-40943400D02*
X114426700Y-41720900D01*
X67081800Y-40441500D02*
X67081800Y-41739200D01*
X139881200Y-59406700D02*
X139881200Y-40943400D01*
X115747600Y-41720900D02*
X116039100Y-41429400D01*
X80458000Y-39273100D02*
X68250200Y-39273100D01*
X82656200Y-46953400D02*
X82656200Y-46314200D01*
X68656200Y-40533100D02*
X69038800Y-40150500D01*
X121831200Y-88743400D02*
X122641700Y-89553900D01*
D31*
X140407900Y-70006800D02*
X145156200Y-69943400D01*
D30*
X117706200Y-87943400D02*
X118736900Y-88974100D01*
X132558700Y-41720900D02*
X127517700Y-41720900D01*
%TO.N,IMU_INT*%
X83906200Y-59633400D02*
X84957900Y-59633400D01*
X78241800Y-43733000D02*
X78241800Y-45495000D01*
X85589400Y-60082700D02*
X85407200Y-60082700D01*
X80896200Y-45193400D02*
X80971100Y-45118500D01*
X80971100Y-45118500D02*
X80971100Y-44200100D01*
X78770700Y-46023900D02*
X78770700Y-57730000D01*
X78241800Y-45495000D02*
X78770700Y-46023900D01*
X85407200Y-60082700D02*
X84957900Y-59633400D01*
X78115300Y-43606500D02*
X78241800Y-43733000D01*
%TO.N,GND*%
X68756200Y-43343400D02*
X68756200Y-42543400D01*
X82656200Y-44933400D02*
X82556200Y-45383400D01*
%TO.N,SCL*%
X80880100Y-52026800D02*
X81007400Y-52026800D01*
X85294900Y-60903400D02*
X85836000Y-61444500D01*
X81007400Y-59348300D02*
X81007400Y-52026800D01*
X124269800Y-40165900D02*
X124168300Y-40267400D01*
X67486200Y-48743400D02*
X67486200Y-47497700D01*
X82156200Y-49138500D02*
X82156200Y-46953400D01*
X81007400Y-50287300D02*
X82156200Y-49138500D01*
X128390200Y-40943400D02*
X127612700Y-40165900D01*
X81007400Y-52026800D02*
X81007400Y-50287300D01*
X127612700Y-40165900D02*
X124269800Y-40165900D01*
X83906200Y-60903400D02*
X85294900Y-60903400D01*
X67444200Y-47455700D02*
X67444200Y-46513600D01*
X80720500Y-59635200D02*
X81007400Y-59348300D01*
X67486200Y-47497700D02*
X67444200Y-47455700D01*
%TO.N,SDA*%
X85605200Y-57730000D02*
X84971800Y-58363400D01*
X69675600Y-45782700D02*
X69675200Y-45782700D01*
X80393100Y-50044500D02*
X80393100Y-51663000D01*
X80393100Y-52390600D02*
X80393100Y-57730000D01*
X80393100Y-57730000D02*
X80393000Y-57730000D01*
X121492100Y-39681000D02*
X121845200Y-40034100D01*
X80278400Y-52275900D02*
X80393100Y-52390600D01*
X78861400Y-40675500D02*
X79662100Y-39874800D01*
X68756200Y-48743400D02*
X68756200Y-46704500D01*
X80278400Y-51777700D02*
X80278400Y-52275900D01*
X80616300Y-48632500D02*
X80616300Y-49821300D01*
X84971800Y-58363400D02*
X83906200Y-58363400D01*
X80393100Y-51663000D02*
X80278400Y-51777700D01*
X121845200Y-40034100D02*
X121845200Y-40943400D01*
X81656200Y-46953400D02*
X81656200Y-47592600D01*
X80828400Y-48420400D02*
X80616300Y-48632500D01*
X85718600Y-57730000D02*
X85605200Y-57730000D01*
X69676800Y-45783900D02*
X69675600Y-45782700D01*
X80684300Y-48276400D02*
X80828400Y-48420400D01*
X80616300Y-49821300D02*
X80393100Y-50044500D01*
X68756200Y-46704500D02*
X69676800Y-45783900D01*
X81656200Y-47592600D02*
X80828400Y-48420400D01*
X78861400Y-45075400D02*
X78861400Y-40675500D01*
%TO.N,IO0*%
X107929200Y-40524500D02*
X108294600Y-40159100D01*
X138304500Y-85391700D02*
X112919300Y-60006500D01*
X100354500Y-71471300D02*
X100039800Y-71786000D01*
X107929200Y-56708900D02*
X107929200Y-40524500D01*
X108294600Y-40159100D02*
X112919300Y-40159100D01*
X112919300Y-60006500D02*
X112919300Y-40159100D01*
X114514900Y-40159100D02*
X115299200Y-40943400D01*
X101406200Y-55823400D02*
X100354500Y-55823400D01*
X103422900Y-56788400D02*
X103422900Y-59938900D01*
X69656200Y-81893400D02*
X72847700Y-81893400D01*
X104310700Y-60327400D02*
X107929200Y-56708900D01*
X112919300Y-40159100D02*
X114514900Y-40159100D01*
X138304500Y-86443400D02*
X138304500Y-85391700D01*
X103811400Y-60327400D02*
X104310700Y-60327400D01*
X103422900Y-59938900D02*
X103811400Y-60327400D01*
X139356200Y-86443400D02*
X138304500Y-86443400D01*
X69656200Y-81893400D02*
X69656200Y-85593400D01*
X100354500Y-55823400D02*
X100354500Y-71471300D01*
X101406200Y-55823400D02*
X102457900Y-55823400D01*
X102457900Y-55823400D02*
X103422900Y-56788400D01*
X72847700Y-81893400D02*
X79886700Y-74854400D01*
%TO.N,EN*%
X108754200Y-59936200D02*
X108754200Y-40943400D01*
X121419700Y-72601700D02*
X108754200Y-59936200D01*
X82854500Y-80018400D02*
X81656200Y-81216700D01*
X122723800Y-72601700D02*
X121419700Y-72601700D01*
X81656200Y-81893400D02*
X81656200Y-81216700D01*
X81656200Y-81893400D02*
X81656200Y-85593400D01*
X135764500Y-85642400D02*
X122723800Y-72601700D01*
X81656200Y-85593400D02*
X80231200Y-85593400D01*
X82854500Y-69793400D02*
X82854500Y-80018400D01*
X95251300Y-69793400D02*
X101088900Y-75631000D01*
X83906200Y-69793400D02*
X95251300Y-69793400D01*
X80231200Y-85593400D02*
X77881200Y-87943400D01*
X135764500Y-86443400D02*
X135764500Y-85642400D01*
X136816200Y-86443400D02*
X135764500Y-86443400D01*
X83906200Y-69793400D02*
X82854500Y-69793400D01*
%TO.N,CHX3*%
X80922100Y-43398300D02*
X80922200Y-43398300D01*
X79372400Y-62501300D02*
X79372400Y-45419200D01*
X83906200Y-65983400D02*
X82854500Y-65983400D01*
X79372400Y-45419200D02*
X80369400Y-44422200D01*
X80922200Y-43398300D02*
X80922200Y-40943400D01*
X80369400Y-44422200D02*
X80369400Y-43951000D01*
X82854500Y-65983400D02*
X79372400Y-62501300D01*
X80369400Y-43951000D02*
X80922100Y-43398300D01*
%TO.N,TXD*%
X113553300Y-68523400D02*
X130684500Y-85654600D01*
X131736200Y-86443400D02*
X130684500Y-86443400D01*
X130684500Y-85654600D02*
X130684500Y-86443400D01*
X101406200Y-68523400D02*
X113553300Y-68523400D01*
%TO.N,RXD*%
X101406200Y-67253400D02*
X114823300Y-67253400D01*
X134276200Y-86443400D02*
X133224500Y-86443400D01*
X114823300Y-67253400D02*
X133224500Y-85654600D01*
X133224500Y-85654600D02*
X133224500Y-86443400D01*
%TO.N,VBAT*%
X140161200Y-65193400D02*
X138000000Y-65193400D01*
%TO.N,CHX6*%
X97540000Y-52026800D02*
X97540000Y-49335900D01*
X100498700Y-42327400D02*
X100558200Y-42267900D01*
X83906200Y-62173400D02*
X85961600Y-62173400D01*
X100558200Y-42267900D02*
X100558200Y-40943400D01*
X86487600Y-59595800D02*
X85538900Y-58647100D01*
X97540000Y-49335900D02*
X92714900Y-44510800D01*
X85961600Y-62173400D02*
X86487600Y-61647400D01*
X86487600Y-61647400D02*
X86487600Y-59595800D01*
%TO.N,NFC_ANT_A*%
X63856200Y-50643400D02*
X63856200Y-49841700D01*
X66226200Y-44811500D02*
X64112700Y-46925000D01*
X64112700Y-49585200D02*
X63856200Y-49841700D01*
X66226200Y-43343400D02*
X66226200Y-44811500D01*
X64112700Y-48296400D02*
X64112700Y-49585200D01*
X64112700Y-46925000D02*
X64112700Y-48296400D01*
X70781200Y-48326900D02*
X70911700Y-48196400D01*
X70781200Y-49843400D02*
X70781200Y-48326900D01*
%TO.N,NFC_ANT_B*%
X67486200Y-43343400D02*
X67486200Y-44589100D01*
X71531200Y-50643400D02*
X72331200Y-49843400D01*
X68074900Y-45177800D02*
X68074900Y-50062100D01*
X68074900Y-50062100D02*
X68656200Y-50643400D01*
X68656200Y-50643400D02*
X71531200Y-50643400D01*
X67486200Y-44589100D02*
X68074900Y-45177800D01*
%TO.N,NFC_GPO*%
X66226200Y-48743400D02*
X66226200Y-47497700D01*
X98122300Y-70802800D02*
X98122300Y-70258000D01*
X97249400Y-69927600D02*
X97249300Y-69927600D01*
X97249300Y-69927600D02*
X95836200Y-68514500D01*
X97769800Y-69905500D02*
X97271500Y-69905500D01*
X66226200Y-47497700D02*
X65973100Y-47244600D01*
X65973100Y-47244600D02*
X65973100Y-46844600D01*
X95836200Y-68514500D02*
X95836200Y-54553400D01*
X123481200Y-88743400D02*
X110201100Y-75463300D01*
X92078500Y-46724400D02*
X95836200Y-50482100D01*
X97271500Y-69905500D02*
X97249400Y-69927600D01*
X110201100Y-75463300D02*
X102782800Y-75463300D01*
X102782800Y-75463300D02*
X98122300Y-70802800D01*
X95836200Y-50482100D02*
X95836200Y-54553400D01*
X98122300Y-70258000D02*
X97769800Y-69905500D01*
%TO.N,CHX4*%
X82416400Y-64275300D02*
X82416400Y-53301700D01*
X82854500Y-64713400D02*
X82416400Y-64275300D01*
X83906200Y-64713400D02*
X82854500Y-64713400D01*
X82416400Y-53301700D02*
X86985300Y-48732800D01*
X86985300Y-48732800D02*
X86985300Y-41425300D01*
X86985300Y-41425300D02*
X87467200Y-40943400D01*
%TO.N,CHX5*%
X82854500Y-63443400D02*
X82854500Y-53520500D01*
X87487900Y-48887100D02*
X87487900Y-47468700D01*
X87487900Y-47468700D02*
X94013200Y-40943400D01*
X82854500Y-53520500D02*
X87487900Y-48887100D01*
X83906200Y-63443400D02*
X82854500Y-63443400D01*
%TO.N,CHX1*%
X76462200Y-46140000D02*
X70063000Y-39740800D01*
X83906200Y-68523400D02*
X82854500Y-68523400D01*
X67831200Y-40754600D02*
X67831200Y-40943400D01*
X76462200Y-62131100D02*
X76462200Y-46140000D01*
X70063000Y-39740800D02*
X68845000Y-39740800D01*
X82854500Y-68523400D02*
X76462200Y-62131100D01*
X68845000Y-39740800D02*
X67831200Y-40754600D01*
%TO.N,CHX2*%
X74376200Y-41286200D02*
X77220400Y-44130400D01*
X77220400Y-61619300D02*
X82854500Y-67253400D01*
X74376200Y-40943400D02*
X74376200Y-41286200D01*
X83906200Y-67253400D02*
X82854500Y-67253400D01*
X77220400Y-44130400D02*
X77220400Y-61619300D01*
%TD*%
%TA.AperFunction,Conductor*%
%TO.N,GND*%
G36*
X143798059Y-37047268D02*
G01*
X143955846Y-37092726D01*
X143966317Y-37096390D01*
X144092714Y-37148746D01*
X144233657Y-37207127D01*
X144243659Y-37211944D01*
X144496911Y-37351911D01*
X144506311Y-37357817D01*
X144742306Y-37525264D01*
X144750983Y-37532184D01*
X144966755Y-37725009D01*
X144974590Y-37732844D01*
X145167413Y-37948613D01*
X145174335Y-37957293D01*
X145341782Y-38193288D01*
X145347688Y-38202688D01*
X145487655Y-38455940D01*
X145492472Y-38465942D01*
X145603207Y-38733278D01*
X145606874Y-38743757D01*
X145651856Y-38899893D01*
X145652331Y-38901539D01*
X145656200Y-38928946D01*
X145656200Y-59467291D01*
X145637293Y-59525482D01*
X145587793Y-59561446D01*
X145526607Y-59561446D01*
X145487198Y-59537296D01*
X145432813Y-59482911D01*
X145432810Y-59482909D01*
X145432808Y-59482907D01*
X145330089Y-59423602D01*
X145330090Y-59423602D01*
X145316551Y-59419974D01*
X145215509Y-59392900D01*
X145215507Y-59392900D01*
X140420743Y-59392900D01*
X140420614Y-59392858D01*
X140420485Y-59392900D01*
X140391516Y-59383403D01*
X140362552Y-59373993D01*
X140362472Y-59373882D01*
X140362344Y-59373841D01*
X140360719Y-59371471D01*
X140326588Y-59324493D01*
X140326509Y-59324248D01*
X140325759Y-59321919D01*
X140300999Y-59229514D01*
X140289695Y-59209935D01*
X140286466Y-59199908D01*
X140286498Y-59187467D01*
X140281700Y-59169560D01*
X140281700Y-41756455D01*
X140300607Y-41698264D01*
X140344381Y-41664357D01*
X140366175Y-41655764D01*
X140481278Y-41568478D01*
X140568564Y-41453375D01*
X140621559Y-41318990D01*
X140631700Y-41234544D01*
X140631700Y-40652256D01*
X140621559Y-40567810D01*
X140585558Y-40476519D01*
X140568565Y-40433427D01*
X140568564Y-40433426D01*
X140568564Y-40433425D01*
X140481278Y-40318322D01*
X140366175Y-40231036D01*
X140366174Y-40231035D01*
X140366172Y-40231034D01*
X140231791Y-40178041D01*
X140147348Y-40167900D01*
X140147344Y-40167900D01*
X139713101Y-40167900D01*
X139654910Y-40148993D01*
X139643098Y-40138904D01*
X139324513Y-39820320D01*
X139324508Y-39820316D01*
X139233191Y-39767594D01*
X139233193Y-39767594D01*
X139175504Y-39752137D01*
X139131327Y-39740300D01*
X134191527Y-39740300D01*
X134086073Y-39740300D01*
X134041896Y-39752137D01*
X133984207Y-39767594D01*
X133892891Y-39820316D01*
X133892886Y-39820320D01*
X133574302Y-40138904D01*
X133519786Y-40166681D01*
X133504299Y-40167900D01*
X133070051Y-40167900D01*
X132985608Y-40178041D01*
X132851227Y-40231034D01*
X132736122Y-40318322D01*
X132648834Y-40433427D01*
X132595841Y-40567808D01*
X132585700Y-40652251D01*
X132585700Y-41086499D01*
X132583231Y-41094096D01*
X132584481Y-41101986D01*
X132573956Y-41122641D01*
X132566793Y-41144690D01*
X132556704Y-41156503D01*
X132421803Y-41291404D01*
X132367286Y-41319181D01*
X132351799Y-41320400D01*
X129189700Y-41320400D01*
X129131509Y-41301493D01*
X129095545Y-41251993D01*
X129090700Y-41221400D01*
X129090699Y-40620533D01*
X129090699Y-40620528D01*
X129084291Y-40560917D01*
X129083800Y-40559600D01*
X129033997Y-40426070D01*
X128947749Y-40310858D01*
X128947748Y-40310857D01*
X128947746Y-40310854D01*
X128927085Y-40295387D01*
X128832529Y-40224602D01*
X128697688Y-40174310D01*
X128697683Y-40174309D01*
X128697681Y-40174308D01*
X128697677Y-40174308D01*
X128666449Y-40170950D01*
X128638073Y-40167900D01*
X128638070Y-40167900D01*
X128222101Y-40167900D01*
X128163910Y-40148993D01*
X128152098Y-40138904D01*
X127858613Y-39845420D01*
X127858608Y-39845416D01*
X127767291Y-39792694D01*
X127767293Y-39792694D01*
X127727770Y-39782104D01*
X127665427Y-39765400D01*
X127665425Y-39765400D01*
X124526338Y-39765400D01*
X124476839Y-39752137D01*
X124400085Y-39707823D01*
X124342924Y-39692507D01*
X124247357Y-39666900D01*
X124089243Y-39666900D01*
X123936516Y-39707823D01*
X123799584Y-39786880D01*
X123687780Y-39898684D01*
X123608723Y-40035616D01*
X123567800Y-40188343D01*
X123567800Y-40346457D01*
X123608723Y-40499184D01*
X123687780Y-40636116D01*
X123799584Y-40747920D01*
X123936516Y-40826977D01*
X124089243Y-40867900D01*
X124089245Y-40867900D01*
X124247355Y-40867900D01*
X124247357Y-40867900D01*
X124400084Y-40826977D01*
X124537016Y-40747920D01*
X124648820Y-40636116D01*
X124656522Y-40622775D01*
X124660492Y-40615900D01*
X124705961Y-40574959D01*
X124746228Y-40566400D01*
X125940700Y-40566400D01*
X125998891Y-40585307D01*
X126034855Y-40634807D01*
X126039700Y-40665400D01*
X126039700Y-41036499D01*
X126020793Y-41094690D01*
X126010704Y-41106502D01*
X125825804Y-41291403D01*
X125771287Y-41319181D01*
X125755800Y-41320400D01*
X122644700Y-41320400D01*
X122586509Y-41301493D01*
X122550545Y-41251993D01*
X122545700Y-41221400D01*
X122545699Y-40620533D01*
X122545699Y-40620528D01*
X122539291Y-40560917D01*
X122538800Y-40559600D01*
X122488997Y-40426070D01*
X122402749Y-40310858D01*
X122402748Y-40310857D01*
X122402746Y-40310854D01*
X122382085Y-40295387D01*
X122285371Y-40222986D01*
X122250118Y-40172977D01*
X122245700Y-40143733D01*
X122245700Y-39981374D01*
X122245700Y-39981373D01*
X122233036Y-39934109D01*
X122218407Y-39879512D01*
X122218405Y-39879509D01*
X122218405Y-39879507D01*
X122165683Y-39788191D01*
X122165679Y-39788185D01*
X122121596Y-39744102D01*
X122093819Y-39689585D01*
X122092600Y-39674099D01*
X122092600Y-39601944D01*
X122092600Y-39601943D01*
X122051677Y-39449216D01*
X121972620Y-39312284D01*
X121860816Y-39200480D01*
X121723884Y-39121423D01*
X121571157Y-39080500D01*
X121413043Y-39080500D01*
X121260316Y-39121423D01*
X121123384Y-39200480D01*
X121011580Y-39312284D01*
X120932523Y-39449216D01*
X120891600Y-39601943D01*
X120891600Y-39760057D01*
X120932523Y-39912784D01*
X121011580Y-40049716D01*
X121123384Y-40161520D01*
X121219539Y-40217035D01*
X121260479Y-40262503D01*
X121266875Y-40323353D01*
X121249292Y-40362098D01*
X121201402Y-40426070D01*
X121151110Y-40560911D01*
X121151108Y-40560922D01*
X121147746Y-40592192D01*
X121145198Y-40615900D01*
X121144700Y-40620529D01*
X121144700Y-41087499D01*
X121137536Y-41109546D01*
X121133910Y-41132444D01*
X121128261Y-41138092D01*
X121125793Y-41145690D01*
X121107036Y-41159317D01*
X121090645Y-41175709D01*
X121082755Y-41176958D01*
X121076293Y-41181654D01*
X121053108Y-41181654D01*
X121030213Y-41185280D01*
X121023096Y-41181654D01*
X121015107Y-41181654D01*
X120975696Y-41157503D01*
X120924695Y-41106502D01*
X120896918Y-41051985D01*
X120895699Y-41036498D01*
X120895699Y-40620533D01*
X120895699Y-40620528D01*
X120889291Y-40560917D01*
X120888800Y-40559600D01*
X120838997Y-40426070D01*
X120752749Y-40310858D01*
X120752748Y-40310857D01*
X120752746Y-40310854D01*
X120732085Y-40295387D01*
X120637529Y-40224602D01*
X120502688Y-40174310D01*
X120502683Y-40174309D01*
X120502681Y-40174308D01*
X120502677Y-40174308D01*
X120471449Y-40170950D01*
X120443073Y-40167900D01*
X120443070Y-40167900D01*
X119947333Y-40167900D01*
X119947329Y-40167900D01*
X119947328Y-40167901D01*
X119940149Y-40168672D01*
X119887719Y-40174308D01*
X119887714Y-40174309D01*
X119752870Y-40224602D01*
X119637658Y-40310850D01*
X119637650Y-40310858D01*
X119551404Y-40426067D01*
X119547933Y-40435374D01*
X119531849Y-40478498D01*
X119493800Y-40526411D01*
X119439092Y-40542900D01*
X116538600Y-40542900D01*
X116480409Y-40523993D01*
X116444445Y-40474493D01*
X116439600Y-40443900D01*
X116439600Y-40435374D01*
X116439600Y-40435373D01*
X116427114Y-40388773D01*
X116412307Y-40333512D01*
X116399228Y-40310858D01*
X116359583Y-40242191D01*
X116359581Y-40242189D01*
X116359580Y-40242187D01*
X115526313Y-39408920D01*
X115526310Y-39408918D01*
X115526308Y-39408916D01*
X115434991Y-39356194D01*
X115434993Y-39356194D01*
X115395470Y-39345604D01*
X115333127Y-39328900D01*
X115333125Y-39328900D01*
X108141406Y-39328900D01*
X108141390Y-39328899D01*
X108135327Y-39328899D01*
X108029873Y-39328899D01*
X108029870Y-39328899D01*
X107928013Y-39356192D01*
X107928009Y-39356194D01*
X107836687Y-39408919D01*
X107762119Y-39483486D01*
X107762120Y-39483487D01*
X107762118Y-39483489D01*
X107174203Y-40071403D01*
X107119686Y-40099180D01*
X107059254Y-40089609D01*
X107034195Y-40071403D01*
X106738205Y-39775413D01*
X106365513Y-39402720D01*
X106365510Y-39402718D01*
X106365508Y-39402716D01*
X106274191Y-39349994D01*
X106274193Y-39349994D01*
X106234670Y-39339404D01*
X106172327Y-39322700D01*
X82457027Y-39322700D01*
X82351573Y-39322700D01*
X82289229Y-39339404D01*
X82249707Y-39349994D01*
X82158391Y-39402716D01*
X82158386Y-39402720D01*
X81726202Y-39834903D01*
X81671686Y-39862680D01*
X81611254Y-39853109D01*
X81586195Y-39834903D01*
X81193881Y-39442589D01*
X80703913Y-38952620D01*
X80703910Y-38952618D01*
X80703908Y-38952616D01*
X80612591Y-38899894D01*
X80612593Y-38899894D01*
X80573070Y-38889304D01*
X80510727Y-38872600D01*
X68302927Y-38872600D01*
X68197473Y-38872600D01*
X68135129Y-38889304D01*
X68095607Y-38899894D01*
X68004291Y-38952616D01*
X66761316Y-40195591D01*
X66708594Y-40286908D01*
X66708592Y-40286913D01*
X66706321Y-40295385D01*
X66706322Y-40295386D01*
X66681300Y-40388772D01*
X66681300Y-41532299D01*
X66662393Y-41590490D01*
X66652304Y-41602302D01*
X66523520Y-41731086D01*
X66523516Y-41731091D01*
X66470794Y-41822409D01*
X66470793Y-41822411D01*
X66470793Y-41822412D01*
X66470793Y-41822413D01*
X66450450Y-41898336D01*
X66443500Y-41924274D01*
X66443500Y-42007381D01*
X66424593Y-42065572D01*
X66375093Y-42101536D01*
X66318879Y-42103008D01*
X66303548Y-42098900D01*
X66303546Y-42098900D01*
X66148854Y-42098900D01*
X66057404Y-42123403D01*
X65999428Y-42138938D01*
X65865470Y-42216279D01*
X65756079Y-42325670D01*
X65676936Y-42462750D01*
X65631467Y-42503691D01*
X65570616Y-42510087D01*
X65517628Y-42479494D01*
X65505464Y-42462750D01*
X65426320Y-42325670D01*
X65426318Y-42325668D01*
X65426317Y-42325666D01*
X65316934Y-42216283D01*
X65316931Y-42216281D01*
X65316929Y-42216279D01*
X65182971Y-42138938D01*
X65165318Y-42134208D01*
X65033546Y-42098900D01*
X64878854Y-42098900D01*
X64787404Y-42123403D01*
X64729428Y-42138938D01*
X64595470Y-42216279D01*
X64486079Y-42325670D01*
X64408738Y-42459628D01*
X64403415Y-42479494D01*
X64368700Y-42609054D01*
X64368700Y-44077746D01*
X64403415Y-44207305D01*
X64408738Y-44227171D01*
X64486079Y-44361129D01*
X64486081Y-44361131D01*
X64486083Y-44361134D01*
X64595466Y-44470517D01*
X64595468Y-44470518D01*
X64595470Y-44470520D01*
X64729429Y-44547861D01*
X64729427Y-44547861D01*
X64729431Y-44547862D01*
X64729433Y-44547863D01*
X64878854Y-44587900D01*
X64878856Y-44587900D01*
X65033544Y-44587900D01*
X65033546Y-44587900D01*
X65182967Y-44547863D01*
X65182969Y-44547861D01*
X65182971Y-44547861D01*
X65316929Y-44470520D01*
X65316929Y-44470519D01*
X65316934Y-44470517D01*
X65426317Y-44361134D01*
X65440077Y-44337301D01*
X65505464Y-44224049D01*
X65550933Y-44183108D01*
X65611783Y-44176712D01*
X65664771Y-44207305D01*
X65676936Y-44224049D01*
X65756079Y-44361129D01*
X65756081Y-44361131D01*
X65756083Y-44361134D01*
X65796705Y-44401756D01*
X65800330Y-44408871D01*
X65806793Y-44413567D01*
X65813956Y-44435615D01*
X65824481Y-44456271D01*
X65825700Y-44471758D01*
X65825700Y-44604599D01*
X65806793Y-44662790D01*
X65796704Y-44674603D01*
X63792216Y-46679091D01*
X63739495Y-46770406D01*
X63739491Y-46770416D01*
X63733743Y-46791872D01*
X63712200Y-46872273D01*
X63712200Y-47806656D01*
X63693293Y-47864847D01*
X63683204Y-47876659D01*
X63632182Y-47927681D01*
X63632180Y-47927683D01*
X63632180Y-47927684D01*
X63553123Y-48064616D01*
X63512200Y-48217343D01*
X63512200Y-48375457D01*
X63553123Y-48528184D01*
X63632180Y-48665116D01*
X63683205Y-48716141D01*
X63710981Y-48770656D01*
X63712200Y-48786143D01*
X63712200Y-49378299D01*
X63693293Y-49436490D01*
X63683204Y-49448302D01*
X63535720Y-49595786D01*
X63535716Y-49595791D01*
X63482994Y-49687108D01*
X63482992Y-49687112D01*
X63472388Y-49726686D01*
X63472389Y-49726687D01*
X63460911Y-49769523D01*
X63427587Y-49820838D01*
X63370465Y-49842764D01*
X63365285Y-49842900D01*
X63211338Y-49842900D01*
X63211335Y-49842901D01*
X63186209Y-49845814D01*
X63083435Y-49891194D01*
X63003994Y-49970635D01*
X62958614Y-50073411D01*
X62955700Y-50098530D01*
X62955700Y-51188260D01*
X62955701Y-51188263D01*
X62958614Y-51213390D01*
X62983956Y-51270785D01*
X63003994Y-51316165D01*
X63083435Y-51395606D01*
X63186209Y-51440985D01*
X63211335Y-51443900D01*
X63306700Y-51443899D01*
X63364890Y-51462806D01*
X63400854Y-51512305D01*
X63405700Y-51542899D01*
X63405700Y-52043900D01*
X63386793Y-52102091D01*
X63337293Y-52138055D01*
X63306700Y-52142900D01*
X63246891Y-52142900D01*
X63176767Y-52161689D01*
X63132309Y-52173602D01*
X63029591Y-52232907D01*
X62945707Y-52316791D01*
X62886402Y-52419509D01*
X62871805Y-52473985D01*
X62855700Y-52534091D01*
X62855700Y-76734091D01*
X62855700Y-76852709D01*
X62882774Y-76953751D01*
X62886402Y-76967290D01*
X62945707Y-77070008D01*
X62945709Y-77070010D01*
X62945711Y-77070013D01*
X63029587Y-77153889D01*
X63029589Y-77153890D01*
X63029591Y-77153892D01*
X63132310Y-77213197D01*
X63132311Y-77213197D01*
X63132314Y-77213199D01*
X63246891Y-77243900D01*
X63246893Y-77243900D01*
X75065507Y-77243900D01*
X75065509Y-77243900D01*
X75180086Y-77213199D01*
X75180088Y-77213197D01*
X75180090Y-77213197D01*
X75282808Y-77153892D01*
X75282808Y-77153891D01*
X75282813Y-77153889D01*
X75366689Y-77070013D01*
X75425999Y-76967286D01*
X75456700Y-76852709D01*
X75456700Y-53134091D01*
X75425999Y-53019514D01*
X75425997Y-53019511D01*
X75425997Y-53019509D01*
X75366692Y-52916791D01*
X75366690Y-52916789D01*
X75366689Y-52916787D01*
X75282813Y-52832911D01*
X75282810Y-52832909D01*
X75282808Y-52832907D01*
X75180089Y-52773602D01*
X75180090Y-52773602D01*
X75143807Y-52763880D01*
X75065509Y-52742900D01*
X75065507Y-52742900D01*
X64405700Y-52742900D01*
X64347509Y-52723993D01*
X64311545Y-52674493D01*
X64306700Y-52643900D01*
X64306700Y-51542899D01*
X64325607Y-51484708D01*
X64375107Y-51448744D01*
X64405700Y-51443899D01*
X64501061Y-51443899D01*
X64501064Y-51443899D01*
X64526191Y-51440985D01*
X64628965Y-51395606D01*
X64708406Y-51316165D01*
X64753785Y-51213391D01*
X64756700Y-51188265D01*
X64756699Y-50098536D01*
X64756325Y-50095316D01*
X64768401Y-50035337D01*
X64813427Y-49993909D01*
X64872420Y-49987065D01*
X64872422Y-49987053D01*
X64872469Y-49987059D01*
X64874205Y-49986858D01*
X64878388Y-49987838D01*
X64878853Y-49987899D01*
X64878854Y-49987900D01*
X64878855Y-49987900D01*
X65033544Y-49987900D01*
X65033546Y-49987900D01*
X65182967Y-49947863D01*
X65182969Y-49947861D01*
X65182971Y-49947861D01*
X65316929Y-49870520D01*
X65316929Y-49870519D01*
X65316934Y-49870517D01*
X65426317Y-49761134D01*
X65426320Y-49761129D01*
X65505464Y-49624049D01*
X65550933Y-49583108D01*
X65611783Y-49576712D01*
X65664771Y-49607305D01*
X65676936Y-49624049D01*
X65756079Y-49761129D01*
X65756081Y-49761131D01*
X65756083Y-49761134D01*
X65865466Y-49870517D01*
X65865468Y-49870518D01*
X65865470Y-49870520D01*
X65999429Y-49947861D01*
X65999427Y-49947861D01*
X65999431Y-49947862D01*
X65999433Y-49947863D01*
X66148854Y-49987900D01*
X66148856Y-49987900D01*
X66303544Y-49987900D01*
X66303546Y-49987900D01*
X66452967Y-49947863D01*
X66452969Y-49947861D01*
X66452971Y-49947861D01*
X66586929Y-49870520D01*
X66586929Y-49870519D01*
X66586934Y-49870517D01*
X66696317Y-49761134D01*
X66696320Y-49761129D01*
X66770464Y-49632709D01*
X66815933Y-49591768D01*
X66876783Y-49585372D01*
X66929771Y-49615965D01*
X66941936Y-49632709D01*
X67016079Y-49761129D01*
X67016081Y-49761131D01*
X67016083Y-49761134D01*
X67125466Y-49870517D01*
X67125468Y-49870518D01*
X67125470Y-49870520D01*
X67259429Y-49947861D01*
X67259427Y-49947861D01*
X67259431Y-49947862D01*
X67259433Y-49947863D01*
X67408854Y-49987900D01*
X67408856Y-49987900D01*
X67570035Y-49987900D01*
X67570035Y-49989443D01*
X67622628Y-49999184D01*
X67664751Y-50043561D01*
X67674400Y-50086193D01*
X67674400Y-50114827D01*
X67686037Y-50158257D01*
X67701694Y-50216692D01*
X67754416Y-50308008D01*
X67754418Y-50308010D01*
X67754420Y-50308013D01*
X67759001Y-50312594D01*
X67786777Y-50367109D01*
X67786094Y-50401910D01*
X67755700Y-50554706D01*
X67755700Y-50732093D01*
X67790306Y-50906065D01*
X67790306Y-50906067D01*
X67858185Y-51069944D01*
X67858185Y-51069945D01*
X67954032Y-51213388D01*
X67956736Y-51217435D01*
X68082165Y-51342864D01*
X68229653Y-51441413D01*
X68229654Y-51441413D01*
X68229655Y-51441414D01*
X68235657Y-51443900D01*
X68393534Y-51509294D01*
X68567509Y-51543900D01*
X68567510Y-51543900D01*
X68744890Y-51543900D01*
X68744891Y-51543900D01*
X68918866Y-51509294D01*
X69082747Y-51441413D01*
X69230235Y-51342864D01*
X69355664Y-51217435D01*
X69391558Y-51163716D01*
X69442218Y-51087899D01*
X69490267Y-51050019D01*
X69524533Y-51043900D01*
X71583925Y-51043900D01*
X71583927Y-51043900D01*
X71685788Y-51016607D01*
X71685790Y-51016605D01*
X71685792Y-51016605D01*
X71777108Y-50963883D01*
X71777108Y-50963882D01*
X71777113Y-50963880D01*
X72008902Y-50732091D01*
X72093098Y-50647896D01*
X72147614Y-50620119D01*
X72163101Y-50618900D01*
X72597342Y-50618900D01*
X72597344Y-50618900D01*
X72681790Y-50608759D01*
X72816175Y-50555764D01*
X72931278Y-50468478D01*
X73018564Y-50353375D01*
X73071559Y-50218990D01*
X73081700Y-50134544D01*
X73081700Y-49552256D01*
X73071559Y-49467810D01*
X73018564Y-49333425D01*
X72931278Y-49218322D01*
X72816175Y-49131036D01*
X72816174Y-49131035D01*
X72816172Y-49131034D01*
X72681791Y-49078041D01*
X72597348Y-49067900D01*
X72597344Y-49067900D01*
X72065056Y-49067900D01*
X72065051Y-49067900D01*
X71980608Y-49078041D01*
X71846227Y-49131034D01*
X71731122Y-49218322D01*
X71643834Y-49333427D01*
X71642493Y-49335814D01*
X71640941Y-49337243D01*
X71639745Y-49338821D01*
X71639461Y-49338606D01*
X71597491Y-49377268D01*
X71536717Y-49384354D01*
X71483385Y-49354365D01*
X71469907Y-49335814D01*
X71468565Y-49333427D01*
X71468564Y-49333426D01*
X71468564Y-49333425D01*
X71381278Y-49218322D01*
X71266175Y-49131036D01*
X71266172Y-49131034D01*
X71266171Y-49131034D01*
X71244381Y-49122441D01*
X71197184Y-49083505D01*
X71181700Y-49030344D01*
X71181700Y-48791071D01*
X71200607Y-48732880D01*
X71231198Y-48705335D01*
X71280416Y-48676920D01*
X71392220Y-48565116D01*
X71471277Y-48428184D01*
X71512200Y-48275457D01*
X71512200Y-48117343D01*
X71471277Y-47964616D01*
X71392220Y-47827684D01*
X71280416Y-47715880D01*
X71143484Y-47636823D01*
X70990757Y-47595900D01*
X70832643Y-47595900D01*
X70679916Y-47636823D01*
X70542984Y-47715880D01*
X70431180Y-47827684D01*
X70352123Y-47964616D01*
X70311200Y-48117343D01*
X70311200Y-48275457D01*
X70325790Y-48329907D01*
X70352123Y-48428185D01*
X70367437Y-48454709D01*
X70380700Y-48504208D01*
X70380700Y-49030344D01*
X70361793Y-49088535D01*
X70318019Y-49122441D01*
X70296228Y-49131034D01*
X70296225Y-49131035D01*
X70296225Y-49131036D01*
X70229932Y-49181308D01*
X70181122Y-49218322D01*
X70093834Y-49333427D01*
X70040841Y-49467808D01*
X70030700Y-49552251D01*
X70030700Y-50134542D01*
X70030877Y-50137504D01*
X70029313Y-50137597D01*
X70018587Y-50192099D01*
X69973741Y-50233722D01*
X69932112Y-50242900D01*
X69524533Y-50242900D01*
X69466342Y-50223993D01*
X69442218Y-50198901D01*
X69355666Y-50069367D01*
X69230238Y-49943939D01*
X69230235Y-49943936D01*
X69218602Y-49936163D01*
X69180725Y-49888113D01*
X69178325Y-49826975D01*
X69203604Y-49783845D01*
X69226317Y-49761134D01*
X69296376Y-49639788D01*
X69303661Y-49627171D01*
X69303661Y-49627169D01*
X69303663Y-49627167D01*
X69343700Y-49477746D01*
X69343700Y-48009054D01*
X69303663Y-47859633D01*
X69303661Y-47859630D01*
X69303661Y-47859628D01*
X69226320Y-47725670D01*
X69226316Y-47725664D01*
X69185696Y-47685044D01*
X69157919Y-47630527D01*
X69156700Y-47615041D01*
X69156700Y-46911401D01*
X69175607Y-46853210D01*
X69185696Y-46841397D01*
X69614897Y-46412196D01*
X69669414Y-46384419D01*
X69684901Y-46383200D01*
X69754255Y-46383200D01*
X69754257Y-46383200D01*
X69906984Y-46342277D01*
X70043916Y-46263220D01*
X70155720Y-46151416D01*
X70161302Y-46141746D01*
X70182199Y-46122928D01*
X70202096Y-46103032D01*
X70204762Y-46102609D01*
X70206768Y-46100804D01*
X70234739Y-46097862D01*
X70262528Y-46093461D01*
X70264933Y-46094686D01*
X70267618Y-46094404D01*
X70317045Y-46121238D01*
X70400504Y-46204697D01*
X70428281Y-46259214D01*
X70429500Y-46274701D01*
X70429500Y-46348457D01*
X70470423Y-46501184D01*
X70549480Y-46638116D01*
X70661284Y-46749920D01*
X70798216Y-46828977D01*
X70950943Y-46869900D01*
X70950945Y-46869900D01*
X71109055Y-46869900D01*
X71109057Y-46869900D01*
X71261784Y-46828977D01*
X71398716Y-46749920D01*
X71510520Y-46638116D01*
X71589577Y-46501184D01*
X71630500Y-46348457D01*
X71630500Y-46190343D01*
X71604557Y-46093522D01*
X71607760Y-46032421D01*
X71646265Y-45984871D01*
X71700184Y-45968900D01*
X71747342Y-45968900D01*
X71747344Y-45968900D01*
X71831790Y-45958759D01*
X71966175Y-45905764D01*
X72081278Y-45818478D01*
X72168564Y-45703375D01*
X72221559Y-45568990D01*
X72231700Y-45484544D01*
X72231700Y-44952256D01*
X72221559Y-44867810D01*
X72195061Y-44800617D01*
X72168565Y-44733427D01*
X72168564Y-44733426D01*
X72168564Y-44733425D01*
X72081278Y-44618322D01*
X71966175Y-44531036D01*
X71966174Y-44531035D01*
X71966172Y-44531034D01*
X71831791Y-44478041D01*
X71747348Y-44467900D01*
X71747344Y-44467900D01*
X71313101Y-44467900D01*
X71254910Y-44448993D01*
X71243097Y-44438904D01*
X71093596Y-44289403D01*
X71065819Y-44234886D01*
X71064600Y-44219399D01*
X71064600Y-41547801D01*
X71083507Y-41489610D01*
X71133007Y-41453646D01*
X71194193Y-41453646D01*
X71233604Y-41477797D01*
X76032704Y-46276897D01*
X76060481Y-46331414D01*
X76061700Y-46346901D01*
X76061700Y-62078373D01*
X76061700Y-62183827D01*
X76078309Y-62245814D01*
X76088994Y-62285692D01*
X76141716Y-62377008D01*
X76141717Y-62377009D01*
X76141718Y-62377010D01*
X76141720Y-62377013D01*
X79377790Y-65613083D01*
X82534019Y-68769312D01*
X82534020Y-68769313D01*
X82534019Y-68769313D01*
X82572791Y-68808084D01*
X82608587Y-68843880D01*
X82699913Y-68896607D01*
X82782325Y-68918689D01*
X82833638Y-68952012D01*
X82851297Y-68985116D01*
X82855701Y-68999383D01*
X82855701Y-69018264D01*
X82858615Y-69043391D01*
X82894069Y-69123686D01*
X82895771Y-69129201D01*
X82895400Y-69154299D01*
X82897948Y-69179282D01*
X82894892Y-69188686D01*
X82894867Y-69190380D01*
X82893939Y-69191617D01*
X82891740Y-69198387D01*
X82858615Y-69273409D01*
X82858614Y-69273411D01*
X82855700Y-69298530D01*
X82855700Y-69302485D01*
X82836793Y-69360676D01*
X82787293Y-69396640D01*
X82782338Y-69398107D01*
X82699913Y-69420193D01*
X82699912Y-69420193D01*
X82699910Y-69420194D01*
X82699909Y-69420194D01*
X82608589Y-69472918D01*
X82534018Y-69547489D01*
X82481294Y-69638809D01*
X82481294Y-69638810D01*
X82454000Y-69740674D01*
X82454000Y-79811499D01*
X82435093Y-79869690D01*
X82425004Y-79881503D01*
X81335716Y-80970791D01*
X81282993Y-81062111D01*
X81282992Y-81062112D01*
X81282993Y-81062113D01*
X81260911Y-81144523D01*
X81227586Y-81195838D01*
X81170465Y-81217764D01*
X81165286Y-81217900D01*
X81111339Y-81217900D01*
X81111335Y-81217901D01*
X81086209Y-81220814D01*
X80983435Y-81266194D01*
X80903994Y-81345635D01*
X80858614Y-81448411D01*
X80855700Y-81473530D01*
X80855700Y-82313260D01*
X80855701Y-82313263D01*
X80858614Y-82338390D01*
X80883956Y-82395785D01*
X80903994Y-82441165D01*
X80983435Y-82520606D01*
X81086209Y-82565985D01*
X81111335Y-82568900D01*
X81156700Y-82568899D01*
X81214889Y-82587805D01*
X81250854Y-82637304D01*
X81255700Y-82667899D01*
X81255700Y-84818900D01*
X81236793Y-84877091D01*
X81187293Y-84913055D01*
X81156702Y-84917900D01*
X81111339Y-84917900D01*
X81111335Y-84917901D01*
X81086209Y-84920814D01*
X80983435Y-84966194D01*
X80903994Y-85045635D01*
X80882242Y-85094900D01*
X80865027Y-85133888D01*
X80824226Y-85179484D01*
X80774462Y-85192900D01*
X80283927Y-85192900D01*
X80178473Y-85192900D01*
X80116129Y-85209604D01*
X80076607Y-85220194D01*
X79985291Y-85272916D01*
X78119303Y-87138904D01*
X78064786Y-87166681D01*
X78049299Y-87167900D01*
X77615051Y-87167900D01*
X77530608Y-87178041D01*
X77396227Y-87231034D01*
X77281122Y-87318322D01*
X77193834Y-87433427D01*
X77140841Y-87567808D01*
X77130700Y-87652251D01*
X77130700Y-88234551D01*
X77133828Y-88260597D01*
X77121993Y-88320627D01*
X77077134Y-88362236D01*
X77035534Y-88371400D01*
X75748001Y-88371400D01*
X75689810Y-88352493D01*
X75677997Y-88342404D01*
X74947286Y-87611693D01*
X74171413Y-86835820D01*
X74171410Y-86835818D01*
X74171409Y-86835817D01*
X74171408Y-86835816D01*
X74080091Y-86783094D01*
X74080093Y-86783094D01*
X74030077Y-86769693D01*
X73978227Y-86755800D01*
X68615573Y-86755800D01*
X68564643Y-86769446D01*
X68513711Y-86783093D01*
X68455665Y-86816605D01*
X68455666Y-86816606D01*
X68422386Y-86835820D01*
X68119302Y-87138904D01*
X68064786Y-87166681D01*
X68049299Y-87167900D01*
X67615051Y-87167900D01*
X67530608Y-87178041D01*
X67396227Y-87231034D01*
X67281122Y-87318322D01*
X67193834Y-87433427D01*
X67140841Y-87567808D01*
X67130700Y-87652251D01*
X67130700Y-88234548D01*
X67140841Y-88318991D01*
X67193834Y-88453372D01*
X67193835Y-88453374D01*
X67193836Y-88453375D01*
X67281122Y-88568478D01*
X67396225Y-88655764D01*
X67396226Y-88655764D01*
X67396227Y-88655765D01*
X67417391Y-88664111D01*
X67530610Y-88708759D01*
X67615056Y-88718900D01*
X67615058Y-88718900D01*
X68147342Y-88718900D01*
X68147344Y-88718900D01*
X68231790Y-88708759D01*
X68366175Y-88655764D01*
X68481278Y-88568478D01*
X68568564Y-88453375D01*
X68621559Y-88318990D01*
X68631700Y-88234544D01*
X68631700Y-87800301D01*
X68650607Y-87742110D01*
X68660696Y-87730297D01*
X68805197Y-87585796D01*
X68859714Y-87558019D01*
X68875201Y-87556800D01*
X73718599Y-87556800D01*
X73776790Y-87575707D01*
X73788603Y-87585796D01*
X75220620Y-89017813D01*
X75220619Y-89017813D01*
X75269079Y-89066272D01*
X75295187Y-89092380D01*
X75386513Y-89145107D01*
X75488373Y-89172400D01*
X75488375Y-89172400D01*
X87105425Y-89172400D01*
X87105427Y-89172400D01*
X87207288Y-89145107D01*
X87207290Y-89145105D01*
X87207292Y-89145105D01*
X87298608Y-89092383D01*
X87298608Y-89092382D01*
X87298613Y-89092380D01*
X87554495Y-88836498D01*
X87643098Y-88747896D01*
X87697614Y-88720119D01*
X87713101Y-88718900D01*
X88147342Y-88718900D01*
X88147344Y-88718900D01*
X88231790Y-88708759D01*
X88366175Y-88655764D01*
X88481278Y-88568478D01*
X88568564Y-88453375D01*
X88621559Y-88318990D01*
X88631700Y-88234544D01*
X88631700Y-87800301D01*
X88650607Y-87742110D01*
X88660696Y-87730297D01*
X88818597Y-87572396D01*
X88873114Y-87544619D01*
X88888601Y-87543400D01*
X96698799Y-87543400D01*
X96706396Y-87545868D01*
X96714286Y-87544619D01*
X96734941Y-87555143D01*
X96756990Y-87562307D01*
X96768803Y-87572396D01*
X96876704Y-87680297D01*
X96904481Y-87734814D01*
X96905700Y-87750301D01*
X96905700Y-88461506D01*
X96916323Y-88549965D01*
X96971837Y-88690739D01*
X96971838Y-88690741D01*
X96971839Y-88690742D01*
X97063278Y-88811322D01*
X97183858Y-88902761D01*
X97183859Y-88902761D01*
X97183860Y-88902762D01*
X97193344Y-88906502D01*
X97324636Y-88958277D01*
X97413098Y-88968900D01*
X97413100Y-88968900D01*
X97999300Y-88968900D01*
X97999302Y-88968900D01*
X98087764Y-88958277D01*
X98228542Y-88902761D01*
X98349122Y-88811322D01*
X98440561Y-88690742D01*
X98496077Y-88549964D01*
X98506700Y-88461502D01*
X98506700Y-87750299D01*
X98525607Y-87692109D01*
X98535696Y-87680296D01*
X98885596Y-87330396D01*
X98940113Y-87302619D01*
X98955600Y-87301400D01*
X106456800Y-87301400D01*
X106514991Y-87320307D01*
X106526803Y-87330396D01*
X106876703Y-87680295D01*
X106904481Y-87734812D01*
X106905700Y-87750299D01*
X106905700Y-88461506D01*
X106916323Y-88549965D01*
X106971837Y-88690739D01*
X106971838Y-88690741D01*
X106971839Y-88690742D01*
X107063278Y-88811322D01*
X107183858Y-88902761D01*
X107183859Y-88902761D01*
X107183860Y-88902762D01*
X107193344Y-88906502D01*
X107324636Y-88958277D01*
X107413098Y-88968900D01*
X107413100Y-88968900D01*
X107999300Y-88968900D01*
X107999302Y-88968900D01*
X108087764Y-88958277D01*
X108087764Y-88958276D01*
X108094066Y-88957520D01*
X108094250Y-88959058D01*
X108147723Y-88962623D01*
X108180938Y-88984530D01*
X108418518Y-89222110D01*
X108418520Y-89222113D01*
X108493087Y-89296680D01*
X108538750Y-89323043D01*
X108584412Y-89349407D01*
X108686273Y-89376700D01*
X108686275Y-89376700D01*
X116726125Y-89376700D01*
X116726127Y-89376700D01*
X116827988Y-89349407D01*
X116827990Y-89349405D01*
X116827992Y-89349405D01*
X116919308Y-89296683D01*
X116919308Y-89296682D01*
X116919313Y-89296680D01*
X117231463Y-88984528D01*
X117285978Y-88956752D01*
X117318250Y-88958215D01*
X117318334Y-88957520D01*
X117324635Y-88958276D01*
X117324636Y-88958277D01*
X117413098Y-88968900D01*
X117413100Y-88968900D01*
X117999300Y-88968900D01*
X117999302Y-88968900D01*
X118087764Y-88958277D01*
X118087764Y-88958276D01*
X118094066Y-88957520D01*
X118094250Y-88959059D01*
X118147718Y-88962622D01*
X118180936Y-88984530D01*
X118490986Y-89294579D01*
X118490991Y-89294583D01*
X118582308Y-89347305D01*
X118582306Y-89347305D01*
X118582310Y-89347306D01*
X118582312Y-89347307D01*
X118684173Y-89374600D01*
X118789627Y-89374600D01*
X121238905Y-89374600D01*
X121297096Y-89393507D01*
X121298234Y-89394347D01*
X121388870Y-89462197D01*
X121523711Y-89512489D01*
X121523712Y-89512489D01*
X121523717Y-89512491D01*
X121583327Y-89518900D01*
X121999298Y-89518899D01*
X122006895Y-89521367D01*
X122014785Y-89520118D01*
X122035440Y-89530642D01*
X122057489Y-89537806D01*
X122069302Y-89547895D01*
X122175803Y-89654396D01*
X122203580Y-89708913D01*
X122194009Y-89769345D01*
X122150744Y-89812610D01*
X122105799Y-89823400D01*
X63141747Y-89823400D01*
X63114340Y-89819531D01*
X62956557Y-89774074D01*
X62946078Y-89770407D01*
X62678742Y-89659672D01*
X62668740Y-89654855D01*
X62415488Y-89514888D01*
X62406088Y-89508982D01*
X62170093Y-89341535D01*
X62161413Y-89334613D01*
X62035522Y-89222110D01*
X61945644Y-89141790D01*
X61937809Y-89133955D01*
X61744984Y-88918183D01*
X61738064Y-88909506D01*
X61673786Y-88818915D01*
X61570617Y-88673511D01*
X61564711Y-88664111D01*
X61424744Y-88410859D01*
X61419927Y-88400857D01*
X61407725Y-88371400D01*
X61309190Y-88133517D01*
X61305525Y-88123041D01*
X61260069Y-87965258D01*
X61256200Y-87937852D01*
X61256200Y-81473530D01*
X68855700Y-81473530D01*
X68855700Y-82313260D01*
X68855701Y-82313263D01*
X68858614Y-82338390D01*
X68883956Y-82395785D01*
X68903994Y-82441165D01*
X68983435Y-82520606D01*
X69086209Y-82565985D01*
X69111335Y-82568900D01*
X69156700Y-82568899D01*
X69214889Y-82587805D01*
X69250854Y-82637304D01*
X69255700Y-82667899D01*
X69255700Y-84818900D01*
X69236793Y-84877091D01*
X69187293Y-84913055D01*
X69156702Y-84917900D01*
X69111339Y-84917900D01*
X69111335Y-84917901D01*
X69086209Y-84920814D01*
X68983435Y-84966194D01*
X68903994Y-85045635D01*
X68858614Y-85148411D01*
X68855700Y-85173530D01*
X68855700Y-86013260D01*
X68855701Y-86013263D01*
X68858614Y-86038390D01*
X68873905Y-86073020D01*
X68903994Y-86141165D01*
X68983435Y-86220606D01*
X69086209Y-86265985D01*
X69111335Y-86268900D01*
X70201064Y-86268899D01*
X70226191Y-86265985D01*
X70328965Y-86220606D01*
X70408406Y-86141165D01*
X70453785Y-86038391D01*
X70456700Y-86013265D01*
X70456699Y-85173536D01*
X70453785Y-85148409D01*
X70408406Y-85045635D01*
X70328965Y-84966194D01*
X70226191Y-84920815D01*
X70226190Y-84920814D01*
X70226188Y-84920814D01*
X70201069Y-84917900D01*
X70201065Y-84917900D01*
X70155700Y-84917900D01*
X70097509Y-84898993D01*
X70061545Y-84849493D01*
X70056700Y-84818900D01*
X70056700Y-82667899D01*
X70075607Y-82609708D01*
X70125107Y-82573744D01*
X70155700Y-82568899D01*
X70201061Y-82568899D01*
X70201064Y-82568899D01*
X70226191Y-82565985D01*
X70328965Y-82520606D01*
X70408406Y-82441165D01*
X70447373Y-82352911D01*
X70488174Y-82307316D01*
X70537938Y-82293900D01*
X72900425Y-82293900D01*
X72900427Y-82293900D01*
X73002288Y-82266607D01*
X73002290Y-82266605D01*
X73002292Y-82266605D01*
X73093608Y-82213883D01*
X73093608Y-82213882D01*
X73093613Y-82213880D01*
X79823597Y-75483896D01*
X79878114Y-75456119D01*
X79893601Y-75454900D01*
X79965755Y-75454900D01*
X79965757Y-75454900D01*
X80118484Y-75413977D01*
X80255416Y-75334920D01*
X80367220Y-75223116D01*
X80446277Y-75086184D01*
X80487200Y-74933457D01*
X80487200Y-74775343D01*
X80446277Y-74622616D01*
X80367220Y-74485684D01*
X80255416Y-74373880D01*
X80118484Y-74294823D01*
X79965757Y-74253900D01*
X79807643Y-74253900D01*
X79654916Y-74294823D01*
X79517984Y-74373880D01*
X79406180Y-74485684D01*
X79327123Y-74622616D01*
X79286200Y-74775344D01*
X79286200Y-74847499D01*
X79267293Y-74905690D01*
X79257204Y-74917503D01*
X72710803Y-81463904D01*
X72656286Y-81491681D01*
X72640799Y-81492900D01*
X70537938Y-81492900D01*
X70479747Y-81473993D01*
X70447373Y-81433888D01*
X70408406Y-81345635D01*
X70328965Y-81266194D01*
X70226191Y-81220815D01*
X70226190Y-81220814D01*
X70226188Y-81220814D01*
X70201068Y-81217900D01*
X69111339Y-81217900D01*
X69111336Y-81217901D01*
X69086209Y-81220814D01*
X68983435Y-81266194D01*
X68903994Y-81345635D01*
X68858614Y-81448411D01*
X68855700Y-81473530D01*
X61256200Y-81473530D01*
X61256200Y-38928946D01*
X61260069Y-38901539D01*
X61260543Y-38899894D01*
X61305528Y-38743747D01*
X61309188Y-38733288D01*
X61419929Y-38465935D01*
X61424744Y-38455940D01*
X61465620Y-38381981D01*
X61564715Y-38202680D01*
X61570612Y-38193295D01*
X61738072Y-37957282D01*
X61744976Y-37948624D01*
X61937817Y-37732835D01*
X61945635Y-37725017D01*
X62161424Y-37532176D01*
X62170082Y-37525272D01*
X62406095Y-37357812D01*
X62415480Y-37351915D01*
X62668746Y-37211941D01*
X62678735Y-37207129D01*
X62946088Y-37096388D01*
X62956553Y-37092726D01*
X63044887Y-37067277D01*
X63114341Y-37047269D01*
X63141747Y-37043400D01*
X143770653Y-37043400D01*
X143798059Y-37047268D01*
G37*
%TD.AperFunction*%
%TA.AperFunction,Conductor*%
G36*
X145602150Y-70231301D02*
G01*
X145645412Y-70274567D01*
X145656200Y-70319508D01*
X145656200Y-87937852D01*
X145652331Y-87965259D01*
X145606874Y-88123042D01*
X145603207Y-88133521D01*
X145492472Y-88400857D01*
X145487655Y-88410859D01*
X145347688Y-88664111D01*
X145341782Y-88673511D01*
X145174335Y-88909506D01*
X145167413Y-88918186D01*
X144974598Y-89133947D01*
X144966747Y-89141798D01*
X144750986Y-89334613D01*
X144742306Y-89341535D01*
X144506311Y-89508982D01*
X144496911Y-89514888D01*
X144243659Y-89654855D01*
X144233657Y-89659672D01*
X143966321Y-89770407D01*
X143955842Y-89774074D01*
X143798060Y-89819531D01*
X143770653Y-89823400D01*
X125483301Y-89823400D01*
X125425110Y-89804493D01*
X125389146Y-89754993D01*
X125389146Y-89693807D01*
X125413297Y-89654396D01*
X126793097Y-88274596D01*
X126847614Y-88246819D01*
X126863101Y-88245600D01*
X140286025Y-88245600D01*
X140286027Y-88245600D01*
X140387888Y-88218307D01*
X140387890Y-88218305D01*
X140387892Y-88218305D01*
X140479213Y-88165580D01*
X140500103Y-88144690D01*
X140653811Y-87990980D01*
X140653813Y-87990980D01*
X140728380Y-87916413D01*
X140781107Y-87825087D01*
X140808401Y-87723227D01*
X140808401Y-87617773D01*
X140808401Y-87611711D01*
X140808400Y-87611693D01*
X140808400Y-70549678D01*
X140827307Y-70491487D01*
X140876807Y-70455523D01*
X140906072Y-70450687D01*
X145158532Y-70393909D01*
X145158535Y-70393909D01*
X145159210Y-70393900D01*
X145215509Y-70393900D01*
X145218451Y-70393110D01*
X145221504Y-70393070D01*
X145221515Y-70393068D01*
X145221518Y-70393068D01*
X145256446Y-70383207D01*
X145275080Y-70377946D01*
X145275080Y-70377945D01*
X145275696Y-70377772D01*
X145330086Y-70363199D01*
X145332731Y-70361671D01*
X145335668Y-70360842D01*
X145335668Y-70360841D01*
X145335675Y-70360840D01*
X145384051Y-70332041D01*
X145432813Y-70303889D01*
X145434973Y-70301727D01*
X145436348Y-70300909D01*
X145437601Y-70300164D01*
X145476427Y-70260285D01*
X145477285Y-70259415D01*
X145487200Y-70249500D01*
X145541718Y-70221726D01*
X145602150Y-70231301D01*
G37*
%TD.AperFunction*%
%TA.AperFunction,Conductor*%
G36*
X113404590Y-68942807D02*
G01*
X113416403Y-68952896D01*
X124035803Y-79572296D01*
X124063580Y-79626813D01*
X124054009Y-79687245D01*
X124010744Y-79730510D01*
X123965799Y-79741300D01*
X123883943Y-79741300D01*
X123731216Y-79782223D01*
X123594284Y-79861280D01*
X123482480Y-79973084D01*
X123403423Y-80110016D01*
X123362500Y-80262743D01*
X123362500Y-80420857D01*
X123403423Y-80573584D01*
X123482480Y-80710516D01*
X123594284Y-80822320D01*
X123731216Y-80901377D01*
X123883943Y-80942300D01*
X123956100Y-80942300D01*
X123963697Y-80944768D01*
X123971587Y-80943519D01*
X123992242Y-80954043D01*
X124014291Y-80961207D01*
X124026104Y-80971296D01*
X124072404Y-81017596D01*
X124100181Y-81072113D01*
X124101400Y-81087600D01*
X124101400Y-85102756D01*
X124082493Y-85160947D01*
X124072404Y-85172759D01*
X124021382Y-85223781D01*
X124021380Y-85223783D01*
X124021380Y-85223784D01*
X123942323Y-85360716D01*
X123901400Y-85513443D01*
X123901400Y-85671557D01*
X123942323Y-85824284D01*
X124021380Y-85961216D01*
X124133184Y-86073020D01*
X124270116Y-86152077D01*
X124422843Y-86193000D01*
X124422845Y-86193000D01*
X124580955Y-86193000D01*
X124580957Y-86193000D01*
X124733684Y-86152077D01*
X124870616Y-86073020D01*
X124982420Y-85961216D01*
X125061477Y-85824284D01*
X125102400Y-85671557D01*
X125102400Y-85513443D01*
X125061477Y-85360716D01*
X124982420Y-85223784D01*
X124978829Y-85220193D01*
X124931396Y-85172759D01*
X124903619Y-85118242D01*
X124902400Y-85102756D01*
X124902400Y-80941414D01*
X124902401Y-80941401D01*
X124902401Y-80827972D01*
X124902400Y-80827970D01*
X124875107Y-80726113D01*
X124861352Y-80702289D01*
X124861352Y-80702288D01*
X124821465Y-80633202D01*
X124808743Y-80573354D01*
X124833630Y-80517458D01*
X124886618Y-80486865D01*
X124947468Y-80493261D01*
X124977205Y-80513698D01*
X130255004Y-85791497D01*
X130282781Y-85846014D01*
X130284000Y-85861501D01*
X130284000Y-86496127D01*
X130306585Y-86580416D01*
X130311294Y-86597989D01*
X130311294Y-86597990D01*
X130344203Y-86654989D01*
X130364020Y-86689313D01*
X130438587Y-86763880D01*
X130529913Y-86816607D01*
X130612325Y-86838689D01*
X130663638Y-86872012D01*
X130685565Y-86929133D01*
X130685701Y-86934315D01*
X130685701Y-87345600D01*
X130666794Y-87403791D01*
X130617294Y-87439755D01*
X130586701Y-87444600D01*
X127805700Y-87444600D01*
X127747509Y-87425693D01*
X127711545Y-87376193D01*
X127706700Y-87345600D01*
X127706699Y-85298539D01*
X127706699Y-85298536D01*
X127703785Y-85273409D01*
X127658406Y-85170635D01*
X127578965Y-85091194D01*
X127476191Y-85045815D01*
X127476190Y-85045814D01*
X127476188Y-85045814D01*
X127451068Y-85042900D01*
X125861339Y-85042900D01*
X125861336Y-85042901D01*
X125836209Y-85045814D01*
X125733435Y-85091194D01*
X125653994Y-85170635D01*
X125608614Y-85273411D01*
X125605700Y-85298530D01*
X125605700Y-87588260D01*
X125605701Y-87588263D01*
X125608614Y-87613390D01*
X125633956Y-87670785D01*
X125653994Y-87716165D01*
X125733435Y-87795606D01*
X125836209Y-87840985D01*
X125854882Y-87843151D01*
X125863782Y-87844184D01*
X125919406Y-87869671D01*
X125949426Y-87922986D01*
X125942375Y-87983763D01*
X125922377Y-88012528D01*
X124810503Y-89124404D01*
X124755986Y-89152181D01*
X124740499Y-89153400D01*
X124280700Y-89153400D01*
X124222509Y-89134493D01*
X124186545Y-89084993D01*
X124181700Y-89054400D01*
X124181699Y-88420533D01*
X124181699Y-88420528D01*
X124175291Y-88360917D01*
X124159654Y-88318991D01*
X124124997Y-88226070D01*
X124038749Y-88110858D01*
X124038748Y-88110857D01*
X124038746Y-88110854D01*
X124006212Y-88086499D01*
X123923529Y-88024602D01*
X123788688Y-87974310D01*
X123788683Y-87974309D01*
X123788681Y-87974308D01*
X123788677Y-87974308D01*
X123757449Y-87970950D01*
X123729073Y-87967900D01*
X123729070Y-87967900D01*
X123313100Y-87967900D01*
X123254909Y-87948993D01*
X123243096Y-87938904D01*
X117518072Y-82213880D01*
X110447013Y-75142820D01*
X110447010Y-75142818D01*
X110447008Y-75142816D01*
X110355691Y-75090094D01*
X110355693Y-75090094D01*
X110316170Y-75079504D01*
X110253827Y-75062800D01*
X110253825Y-75062800D01*
X102989701Y-75062800D01*
X102931510Y-75043893D01*
X102919697Y-75033804D01*
X100337383Y-72451490D01*
X100309606Y-72396973D01*
X100319177Y-72336541D01*
X100357886Y-72295750D01*
X100408516Y-72266520D01*
X100520320Y-72154716D01*
X100599377Y-72017784D01*
X100634346Y-71887274D01*
X100667670Y-71835962D01*
X100724792Y-71814035D01*
X100729973Y-71813899D01*
X102201061Y-71813899D01*
X102201064Y-71813899D01*
X102226191Y-71810985D01*
X102328965Y-71765606D01*
X102408406Y-71686165D01*
X102453785Y-71583391D01*
X102456700Y-71558265D01*
X102456699Y-70568536D01*
X102453785Y-70543409D01*
X102438813Y-70509500D01*
X102420660Y-70468387D01*
X102414451Y-70407518D01*
X102420657Y-70388418D01*
X102453785Y-70313391D01*
X102456700Y-70288265D01*
X102456699Y-69298536D01*
X102453785Y-69273409D01*
X102420660Y-69198387D01*
X102420119Y-69193090D01*
X102416999Y-69188774D01*
X102417904Y-69171372D01*
X102414451Y-69137518D01*
X102417140Y-69127589D01*
X102418667Y-69122925D01*
X102453785Y-69043391D01*
X102456700Y-69018265D01*
X102456700Y-69006787D01*
X102461513Y-68992090D01*
X102472326Y-68977279D01*
X102478989Y-68960192D01*
X102489928Y-68953169D01*
X102497592Y-68942673D01*
X102515044Y-68937046D01*
X102530479Y-68927139D01*
X102555597Y-68923900D01*
X113346399Y-68923900D01*
X113404590Y-68942807D01*
G37*
%TD.AperFunction*%
%TA.AperFunction,Conductor*%
G36*
X95102590Y-70212807D02*
G01*
X95114403Y-70222896D01*
X100459404Y-75567897D01*
X100487181Y-75622414D01*
X100488400Y-75637901D01*
X100488400Y-75710057D01*
X100529323Y-75862784D01*
X100608380Y-75999716D01*
X100720184Y-76111520D01*
X100857116Y-76190577D01*
X101009843Y-76231500D01*
X101009845Y-76231500D01*
X101167955Y-76231500D01*
X101167957Y-76231500D01*
X101320684Y-76190577D01*
X101457616Y-76111520D01*
X101569420Y-75999716D01*
X101648477Y-75862784D01*
X101652049Y-75849452D01*
X101685369Y-75798140D01*
X101742490Y-75776211D01*
X101801591Y-75792045D01*
X101817679Y-75805071D01*
X102014504Y-76001896D01*
X102042281Y-76056413D01*
X102043500Y-76071900D01*
X102043500Y-76144057D01*
X102084423Y-76296784D01*
X102163480Y-76433716D01*
X102275284Y-76545520D01*
X102412216Y-76624577D01*
X102564943Y-76665500D01*
X102564945Y-76665500D01*
X102723055Y-76665500D01*
X102723057Y-76665500D01*
X102875784Y-76624577D01*
X103012716Y-76545520D01*
X103124520Y-76433716D01*
X103203577Y-76296784D01*
X103244500Y-76144057D01*
X103244500Y-75985943D01*
X103244499Y-75985942D01*
X103243653Y-75979511D01*
X103245644Y-75979248D01*
X103248366Y-75927322D01*
X103286872Y-75879772D01*
X103340791Y-75863800D01*
X109994199Y-75863800D01*
X110052390Y-75882707D01*
X110064203Y-75892796D01*
X121970303Y-87798896D01*
X121998080Y-87853413D01*
X121988509Y-87913845D01*
X121945244Y-87957110D01*
X121900299Y-87967900D01*
X121583333Y-87967900D01*
X121583329Y-87967900D01*
X121583328Y-87967901D01*
X121576149Y-87968672D01*
X121523719Y-87974308D01*
X121523714Y-87974309D01*
X121388870Y-88024602D01*
X121273658Y-88110850D01*
X121273650Y-88110858D01*
X121187402Y-88226070D01*
X121137110Y-88360911D01*
X121137109Y-88360917D01*
X121131740Y-88410859D01*
X121130700Y-88420529D01*
X121130700Y-88474600D01*
X121111793Y-88532791D01*
X121062293Y-88568755D01*
X121031700Y-88573600D01*
X118943801Y-88573600D01*
X118885610Y-88554693D01*
X118873797Y-88544604D01*
X118535696Y-88206503D01*
X118507919Y-88151986D01*
X118506700Y-88136499D01*
X118506700Y-87425299D01*
X118506699Y-87425293D01*
X118497129Y-87345600D01*
X118496077Y-87336836D01*
X118440561Y-87196058D01*
X118349122Y-87075478D01*
X118228542Y-86984039D01*
X118228541Y-86984038D01*
X118228539Y-86984037D01*
X118087765Y-86928523D01*
X117999306Y-86917900D01*
X117999302Y-86917900D01*
X117413098Y-86917900D01*
X117413093Y-86917900D01*
X117324634Y-86928523D01*
X117183860Y-86984037D01*
X117183856Y-86984040D01*
X117063281Y-87075475D01*
X117063275Y-87075481D01*
X116971840Y-87196056D01*
X116971837Y-87196060D01*
X116916323Y-87336834D01*
X116905700Y-87425293D01*
X116905700Y-88136499D01*
X116886793Y-88194690D01*
X116876704Y-88206503D01*
X116536503Y-88546704D01*
X116481986Y-88574481D01*
X116466499Y-88575700D01*
X108945899Y-88575700D01*
X108887708Y-88556793D01*
X108875895Y-88546703D01*
X108535696Y-88206503D01*
X108507919Y-88151987D01*
X108506700Y-88136500D01*
X108506700Y-87425299D01*
X108506699Y-87425293D01*
X108497129Y-87345600D01*
X108496077Y-87336836D01*
X108440561Y-87196058D01*
X108349122Y-87075478D01*
X108228542Y-86984039D01*
X108228541Y-86984038D01*
X108228539Y-86984037D01*
X108087765Y-86928523D01*
X107999306Y-86917900D01*
X107999302Y-86917900D01*
X107413098Y-86917900D01*
X107413093Y-86917900D01*
X107343864Y-86926213D01*
X107324636Y-86928523D01*
X107324635Y-86928523D01*
X107318334Y-86929280D01*
X107318149Y-86927745D01*
X107264660Y-86924169D01*
X107231463Y-86902269D01*
X106909613Y-86580420D01*
X106909608Y-86580416D01*
X106818291Y-86527694D01*
X106818293Y-86527694D01*
X106778770Y-86517104D01*
X106716427Y-86500400D01*
X106716425Y-86500400D01*
X98807506Y-86500400D01*
X98807490Y-86500399D01*
X98801427Y-86500399D01*
X98695973Y-86500399D01*
X98695970Y-86500399D01*
X98594113Y-86527692D01*
X98594109Y-86527694D01*
X98502787Y-86580419D01*
X98428219Y-86654986D01*
X98428220Y-86654987D01*
X98428218Y-86654989D01*
X98428217Y-86654989D01*
X98180936Y-86902269D01*
X98126420Y-86930046D01*
X98094149Y-86928587D01*
X98094066Y-86929280D01*
X98087764Y-86928523D01*
X98064166Y-86925689D01*
X97999306Y-86917900D01*
X97999302Y-86917900D01*
X97413098Y-86917900D01*
X97413093Y-86917900D01*
X97343864Y-86926213D01*
X97324636Y-86928523D01*
X97324635Y-86928523D01*
X97318334Y-86929280D01*
X97318149Y-86927745D01*
X97264660Y-86924169D01*
X97231463Y-86902269D01*
X97151613Y-86822420D01*
X97151608Y-86822416D01*
X97060291Y-86769694D01*
X97060293Y-86769694D01*
X97020770Y-86759104D01*
X96958427Y-86742400D01*
X96958425Y-86742400D01*
X89181200Y-86742400D01*
X89123009Y-86723493D01*
X89087045Y-86673993D01*
X89082200Y-86643400D01*
X89082200Y-74734474D01*
X89082200Y-74734473D01*
X89054907Y-74632613D01*
X89049135Y-74622616D01*
X89002180Y-74541287D01*
X88927613Y-74466719D01*
X88927613Y-74466720D01*
X85203813Y-70742920D01*
X85203810Y-70742918D01*
X85203809Y-70742917D01*
X85203808Y-70742916D01*
X85112491Y-70690194D01*
X85112492Y-70690194D01*
X85030076Y-70668111D01*
X84978761Y-70634787D01*
X84961103Y-70601683D01*
X84956699Y-70587415D01*
X84956699Y-70568536D01*
X84953785Y-70543409D01*
X84918328Y-70463108D01*
X84916628Y-70457598D01*
X84916998Y-70432492D01*
X84914451Y-70407518D01*
X84917505Y-70398116D01*
X84917531Y-70396419D01*
X84918460Y-70395178D01*
X84920657Y-70388418D01*
X84953785Y-70313391D01*
X84956700Y-70288265D01*
X84956700Y-70288247D01*
X84956761Y-70287197D01*
X84956851Y-70286965D01*
X84957030Y-70285424D01*
X84957434Y-70285470D01*
X84978989Y-70230192D01*
X85030479Y-70197139D01*
X85055597Y-70193900D01*
X95044399Y-70193900D01*
X95102590Y-70212807D01*
G37*
%TD.AperFunction*%
%TA.AperFunction,Conductor*%
G36*
X85006282Y-71685029D02*
G01*
X85031342Y-71703235D01*
X88252204Y-74924097D01*
X88279981Y-74978614D01*
X88281200Y-74994101D01*
X88281200Y-86935999D01*
X88278731Y-86943596D01*
X88279981Y-86951486D01*
X88269456Y-86972141D01*
X88262293Y-86994190D01*
X88252204Y-87006003D01*
X88119303Y-87138904D01*
X88064786Y-87166681D01*
X88049299Y-87167900D01*
X87615051Y-87167900D01*
X87530608Y-87178041D01*
X87396227Y-87231034D01*
X87281122Y-87318322D01*
X87193834Y-87433427D01*
X87140841Y-87567808D01*
X87130700Y-87652251D01*
X87130700Y-88086499D01*
X87111793Y-88144690D01*
X87101704Y-88156503D01*
X86915803Y-88342404D01*
X86861286Y-88370181D01*
X86845799Y-88371400D01*
X78726866Y-88371400D01*
X78668675Y-88352493D01*
X78632711Y-88302993D01*
X78628572Y-88260597D01*
X78631699Y-88234551D01*
X78631700Y-88234544D01*
X78631700Y-87800301D01*
X78650607Y-87742110D01*
X78660696Y-87730297D01*
X80368097Y-86022896D01*
X80422614Y-85995119D01*
X80438101Y-85993900D01*
X80774462Y-85993900D01*
X80832653Y-86012807D01*
X80865026Y-86052910D01*
X80903994Y-86141165D01*
X80983435Y-86220606D01*
X81086209Y-86265985D01*
X81111335Y-86268900D01*
X82201064Y-86268899D01*
X82226191Y-86265985D01*
X82328965Y-86220606D01*
X82408406Y-86141165D01*
X82453785Y-86038391D01*
X82456700Y-86013265D01*
X82456699Y-85173536D01*
X82453785Y-85148409D01*
X82408406Y-85045635D01*
X82328965Y-84966194D01*
X82226191Y-84920815D01*
X82226190Y-84920814D01*
X82226188Y-84920814D01*
X82201069Y-84917900D01*
X82201065Y-84917900D01*
X82155700Y-84917900D01*
X82097509Y-84898993D01*
X82061545Y-84849493D01*
X82056700Y-84818900D01*
X82056700Y-82667899D01*
X82075607Y-82609708D01*
X82125107Y-82573744D01*
X82155700Y-82568899D01*
X82201061Y-82568899D01*
X82201064Y-82568899D01*
X82226191Y-82565985D01*
X82328965Y-82520606D01*
X82408406Y-82441165D01*
X82453785Y-82338391D01*
X82456700Y-82313265D01*
X82456699Y-81473536D01*
X82453785Y-81448409D01*
X82408406Y-81345635D01*
X82328965Y-81266194D01*
X82328963Y-81266193D01*
X82322478Y-81259708D01*
X82324884Y-81257301D01*
X82297491Y-81221700D01*
X82295809Y-81160537D01*
X82320763Y-81118528D01*
X83174980Y-80264313D01*
X83175886Y-80262744D01*
X83227705Y-80172992D01*
X83227705Y-80172990D01*
X83227707Y-80172988D01*
X83255000Y-80071127D01*
X83255000Y-79965673D01*
X83255000Y-71912899D01*
X83273907Y-71854708D01*
X83323407Y-71818744D01*
X83354000Y-71813899D01*
X84701061Y-71813899D01*
X84701064Y-71813899D01*
X84726191Y-71810985D01*
X84828965Y-71765606D01*
X84891336Y-71703234D01*
X84945850Y-71675458D01*
X85006282Y-71685029D01*
G37*
%TD.AperFunction*%
%TA.AperFunction,Conductor*%
G36*
X112477991Y-40578507D02*
G01*
X112513955Y-40628007D01*
X112518800Y-40658600D01*
X112518800Y-59953773D01*
X112518800Y-60059227D01*
X112531086Y-60105080D01*
X112546094Y-60161092D01*
X112598816Y-60252408D01*
X112598817Y-60252409D01*
X112598818Y-60252410D01*
X112598820Y-60252413D01*
X124914000Y-72567593D01*
X137220303Y-84873896D01*
X137248080Y-84928413D01*
X137238509Y-84988845D01*
X137195244Y-85032110D01*
X137150299Y-85042900D01*
X136021339Y-85042900D01*
X136021336Y-85042901D01*
X135996209Y-85045814D01*
X135925966Y-85076830D01*
X135893435Y-85091194D01*
X135893434Y-85091194D01*
X135885043Y-85094900D01*
X135884513Y-85093699D01*
X135835052Y-85108264D01*
X135777409Y-85087747D01*
X135767799Y-85079306D01*
X130260789Y-79572296D01*
X122969713Y-72281220D01*
X122969710Y-72281218D01*
X122969709Y-72281217D01*
X122969708Y-72281216D01*
X122878391Y-72228494D01*
X122878393Y-72228494D01*
X122838870Y-72217904D01*
X122776527Y-72201200D01*
X122776525Y-72201200D01*
X121909444Y-72201200D01*
X121851253Y-72182293D01*
X121839441Y-72172204D01*
X121788418Y-72121182D01*
X121788416Y-72121180D01*
X121651484Y-72042123D01*
X121498757Y-72001200D01*
X121498755Y-72001200D01*
X121426601Y-72001200D01*
X121368410Y-71982293D01*
X121356597Y-71972204D01*
X109183696Y-59799303D01*
X109155919Y-59744786D01*
X109154700Y-59729299D01*
X109154700Y-41743066D01*
X109173607Y-41684875D01*
X109194371Y-41663813D01*
X109205123Y-41655764D01*
X109311746Y-41575946D01*
X109397996Y-41460731D01*
X109427936Y-41380459D01*
X109448289Y-41325888D01*
X109448288Y-41325888D01*
X109448291Y-41325883D01*
X109454700Y-41266273D01*
X109454699Y-40658599D01*
X109473606Y-40600409D01*
X109523106Y-40564445D01*
X109553699Y-40559600D01*
X112419800Y-40559600D01*
X112477991Y-40578507D01*
G37*
%TD.AperFunction*%
%TA.AperFunction,Conductor*%
G36*
X138929890Y-40560207D02*
G01*
X138941703Y-40570296D01*
X139101704Y-40730297D01*
X139129481Y-40784814D01*
X139130700Y-40800301D01*
X139130700Y-41234548D01*
X139140841Y-41318991D01*
X139193834Y-41453372D01*
X139193835Y-41453374D01*
X139193836Y-41453375D01*
X139281122Y-41568478D01*
X139396225Y-41655764D01*
X139418018Y-41664357D01*
X139465215Y-41703293D01*
X139480700Y-41756455D01*
X139480700Y-59169560D01*
X139467437Y-59219059D01*
X139461401Y-59229512D01*
X139448785Y-59276596D01*
X139430700Y-59344091D01*
X139430700Y-59784091D01*
X139430700Y-59902709D01*
X139436067Y-59922738D01*
X139461402Y-60017290D01*
X139520707Y-60120008D01*
X139520709Y-60120010D01*
X139520711Y-60120013D01*
X139604587Y-60203889D01*
X139604589Y-60203890D01*
X139604591Y-60203892D01*
X139707310Y-60263197D01*
X139707311Y-60263197D01*
X139707314Y-60263199D01*
X139821891Y-60293900D01*
X140261700Y-60293900D01*
X140319891Y-60312807D01*
X140355855Y-60362307D01*
X140360700Y-60392900D01*
X140360700Y-61163878D01*
X140360701Y-61163884D01*
X140366787Y-61220511D01*
X140366787Y-61220512D01*
X140366788Y-61220514D01*
X140414572Y-61348626D01*
X140420541Y-61356600D01*
X140478910Y-61434572D01*
X140498646Y-61492487D01*
X140480571Y-61550941D01*
X140431590Y-61587608D01*
X140399656Y-61592900D01*
X139606925Y-61592900D01*
X139576505Y-61595753D01*
X139576496Y-61595755D01*
X139448316Y-61640607D01*
X139339055Y-61721245D01*
X139339045Y-61721255D01*
X139258407Y-61830516D01*
X139213555Y-61958696D01*
X139213553Y-61958705D01*
X139210700Y-61989125D01*
X139210700Y-62143900D01*
X139191793Y-62202091D01*
X139142293Y-62238055D01*
X139111700Y-62242900D01*
X134901339Y-62242900D01*
X134901336Y-62242901D01*
X134876209Y-62245814D01*
X134773435Y-62291194D01*
X134693994Y-62370635D01*
X134648614Y-62473411D01*
X134645700Y-62498530D01*
X134645700Y-66388260D01*
X134645701Y-66388263D01*
X134648614Y-66413390D01*
X134668619Y-66458696D01*
X134693994Y-66516165D01*
X134773435Y-66595606D01*
X134876209Y-66640985D01*
X134901335Y-66643900D01*
X139111700Y-66643899D01*
X139169891Y-66662806D01*
X139205855Y-66712306D01*
X139210700Y-66742899D01*
X139210700Y-66897674D01*
X139213553Y-66928094D01*
X139213553Y-66928097D01*
X139213554Y-66928099D01*
X139215241Y-66932920D01*
X139253178Y-67041339D01*
X139253654Y-67062598D01*
X139258294Y-67083350D01*
X139254325Y-67092519D01*
X139254550Y-67102509D01*
X139233995Y-67139504D01*
X139209957Y-67166771D01*
X139205701Y-67171304D01*
X139179524Y-67197482D01*
X139179514Y-67197494D01*
X139178076Y-67199986D01*
X139166619Y-67215931D01*
X139164709Y-67218097D01*
X139148244Y-67251264D01*
X139148245Y-67251265D01*
X139146862Y-67254051D01*
X139126793Y-67288813D01*
X139123492Y-67301131D01*
X139119102Y-67309976D01*
X139117821Y-67312555D01*
X139110500Y-67348862D01*
X139109885Y-67351911D01*
X139099500Y-67390673D01*
X139099500Y-67403420D01*
X139097547Y-67413107D01*
X139097547Y-67413111D01*
X139096979Y-67415926D01*
X139096979Y-67415928D01*
X139096979Y-67415929D01*
X139097784Y-67428715D01*
X139099305Y-67452891D01*
X139099500Y-67459108D01*
X139099500Y-70062727D01*
X139112613Y-70111666D01*
X139126793Y-70164586D01*
X139126794Y-70164590D01*
X139164670Y-70230192D01*
X139179520Y-70255913D01*
X139254087Y-70330480D01*
X139345413Y-70383207D01*
X139447273Y-70410500D01*
X139552727Y-70410500D01*
X139908400Y-70410500D01*
X139966591Y-70429407D01*
X140002555Y-70478907D01*
X140007400Y-70509500D01*
X140007400Y-84943900D01*
X139988493Y-85002091D01*
X139938993Y-85038055D01*
X139908400Y-85042900D01*
X138563101Y-85042900D01*
X138504910Y-85023993D01*
X138493097Y-85013904D01*
X117377136Y-63897943D01*
X123270800Y-63897943D01*
X123270800Y-64056057D01*
X123311723Y-64208784D01*
X123390780Y-64345716D01*
X123502584Y-64457520D01*
X123639516Y-64536577D01*
X123792243Y-64577500D01*
X123792245Y-64577500D01*
X123950355Y-64577500D01*
X123950357Y-64577500D01*
X124103084Y-64536577D01*
X124240016Y-64457520D01*
X124351820Y-64345716D01*
X124430877Y-64208784D01*
X124471800Y-64056057D01*
X124471800Y-63897943D01*
X124430877Y-63745216D01*
X124351820Y-63608284D01*
X124336475Y-63592939D01*
X124300796Y-63557259D01*
X124273019Y-63502742D01*
X124271800Y-63487256D01*
X124271800Y-53333601D01*
X124290707Y-53275410D01*
X124300796Y-53263597D01*
X129693997Y-47870396D01*
X129748514Y-47842619D01*
X129764001Y-47841400D01*
X129836155Y-47841400D01*
X129836157Y-47841400D01*
X129988884Y-47800477D01*
X130125816Y-47721420D01*
X130237620Y-47609616D01*
X130316677Y-47472684D01*
X130357600Y-47319957D01*
X130357600Y-47161843D01*
X130316677Y-47009116D01*
X130237620Y-46872184D01*
X130125816Y-46760380D01*
X129988884Y-46681323D01*
X129836157Y-46640400D01*
X129678043Y-46640400D01*
X129525316Y-46681323D01*
X129388384Y-46760380D01*
X129276580Y-46872184D01*
X129197523Y-47009116D01*
X129159022Y-47152806D01*
X129156600Y-47161844D01*
X129156600Y-47233999D01*
X129137693Y-47292190D01*
X129127604Y-47304003D01*
X123550816Y-52880791D01*
X123498093Y-52972111D01*
X123498092Y-52972111D01*
X123498093Y-52972112D01*
X123470800Y-53073973D01*
X123470800Y-63487256D01*
X123451893Y-63545447D01*
X123441804Y-63557259D01*
X123390782Y-63608281D01*
X123390780Y-63608283D01*
X123390780Y-63608284D01*
X123311723Y-63745216D01*
X123270800Y-63897943D01*
X117377136Y-63897943D01*
X113348796Y-59869603D01*
X113321019Y-59815086D01*
X113319800Y-59799599D01*
X113319800Y-41817899D01*
X113338707Y-41759708D01*
X113388207Y-41723744D01*
X113418793Y-41718899D01*
X113817298Y-41718899D01*
X113875489Y-41737806D01*
X113887301Y-41747895D01*
X114180786Y-42041379D01*
X114180791Y-42041383D01*
X114272108Y-42094105D01*
X114272106Y-42094105D01*
X114272110Y-42094106D01*
X114272112Y-42094107D01*
X114373973Y-42121400D01*
X114373975Y-42121400D01*
X115800325Y-42121400D01*
X115800327Y-42121400D01*
X115902188Y-42094107D01*
X115902190Y-42094105D01*
X115902192Y-42094105D01*
X115993508Y-42041383D01*
X115993508Y-42041382D01*
X115993513Y-42041380D01*
X116359580Y-41675313D01*
X116370867Y-41655764D01*
X116412305Y-41583992D01*
X116412305Y-41583990D01*
X116412307Y-41583988D01*
X116439600Y-41482127D01*
X116439600Y-41442900D01*
X116458507Y-41384709D01*
X116508007Y-41348745D01*
X116538600Y-41343900D01*
X119439092Y-41343900D01*
X119497283Y-41362807D01*
X119531849Y-41408301D01*
X119545855Y-41445854D01*
X119551404Y-41460732D01*
X119637650Y-41575941D01*
X119637654Y-41575946D01*
X119637657Y-41575948D01*
X119637658Y-41575949D01*
X119752870Y-41662197D01*
X119887711Y-41712489D01*
X119887712Y-41712489D01*
X119887717Y-41712491D01*
X119947327Y-41718900D01*
X120363298Y-41718899D01*
X120421489Y-41737806D01*
X120433301Y-41747895D01*
X120726786Y-42041379D01*
X120726791Y-42041383D01*
X120818108Y-42094105D01*
X120818106Y-42094105D01*
X120818110Y-42094106D01*
X120818112Y-42094107D01*
X120919973Y-42121400D01*
X120919975Y-42121400D01*
X126015425Y-42121400D01*
X126015427Y-42121400D01*
X126117288Y-42094107D01*
X126117290Y-42094105D01*
X126117292Y-42094105D01*
X126208608Y-42041383D01*
X126208608Y-42041382D01*
X126208613Y-42041380D01*
X126502096Y-41747895D01*
X126556613Y-41720118D01*
X126572100Y-41718899D01*
X126908298Y-41718899D01*
X126966489Y-41737806D01*
X126978301Y-41747895D01*
X127271786Y-42041379D01*
X127271791Y-42041383D01*
X127363108Y-42094105D01*
X127363106Y-42094105D01*
X127363110Y-42094106D01*
X127363112Y-42094107D01*
X127464973Y-42121400D01*
X127464975Y-42121400D01*
X132611425Y-42121400D01*
X132611427Y-42121400D01*
X132713288Y-42094107D01*
X132713290Y-42094105D01*
X132713292Y-42094105D01*
X132804608Y-42041383D01*
X132804608Y-42041382D01*
X132804613Y-42041380D01*
X133023584Y-41822409D01*
X133098098Y-41747896D01*
X133152614Y-41720119D01*
X133168101Y-41718900D01*
X133602342Y-41718900D01*
X133602344Y-41718900D01*
X133686790Y-41708759D01*
X133821175Y-41655764D01*
X133936278Y-41568478D01*
X134023564Y-41453375D01*
X134076559Y-41318990D01*
X134086700Y-41234544D01*
X134086700Y-40800301D01*
X134105607Y-40742110D01*
X134115696Y-40730297D01*
X134275697Y-40570296D01*
X134330214Y-40542519D01*
X134345701Y-40541300D01*
X138871699Y-40541300D01*
X138929890Y-40560207D01*
G37*
%TD.AperFunction*%
%TA.AperFunction,Conductor*%
G36*
X87458690Y-57286507D02*
G01*
X87470503Y-57296596D01*
X93800204Y-63626297D01*
X93827981Y-63680814D01*
X93829200Y-63696301D01*
X93829200Y-67423273D01*
X93829200Y-67528727D01*
X93846886Y-67594734D01*
X93856494Y-67630592D01*
X93909216Y-67721908D01*
X93909218Y-67721910D01*
X93909220Y-67721913D01*
X95420040Y-69232733D01*
X95447816Y-69287248D01*
X95438245Y-69347680D01*
X95394980Y-69390945D01*
X95334548Y-69400516D01*
X95324414Y-69398362D01*
X95304029Y-69392900D01*
X95304027Y-69392900D01*
X85055596Y-69392900D01*
X84997405Y-69373993D01*
X84961512Y-69324709D01*
X84956699Y-69310011D01*
X84956699Y-69298536D01*
X84953785Y-69273409D01*
X84918670Y-69193882D01*
X84917140Y-69189208D01*
X84917080Y-69163293D01*
X84914451Y-69137518D01*
X84917002Y-69129664D01*
X84916999Y-69128023D01*
X84917974Y-69126673D01*
X84920657Y-69118418D01*
X84953785Y-69043391D01*
X84956700Y-69018265D01*
X84956699Y-68028536D01*
X84953785Y-68003409D01*
X84953783Y-68003404D01*
X84920660Y-67928387D01*
X84914451Y-67867518D01*
X84920657Y-67848418D01*
X84953785Y-67773391D01*
X84956700Y-67748265D01*
X84956699Y-66758536D01*
X84953785Y-66733409D01*
X84920660Y-66658387D01*
X84914451Y-66597518D01*
X84920657Y-66578418D01*
X84953785Y-66503391D01*
X84956700Y-66478265D01*
X84956699Y-65488536D01*
X84953785Y-65463409D01*
X84953783Y-65463404D01*
X84920660Y-65388387D01*
X84914451Y-65327518D01*
X84920657Y-65308418D01*
X84953785Y-65233391D01*
X84956700Y-65208265D01*
X84956699Y-64218536D01*
X84953785Y-64193409D01*
X84953783Y-64193404D01*
X84920660Y-64118387D01*
X84914451Y-64057518D01*
X84920657Y-64038418D01*
X84953785Y-63963391D01*
X84956700Y-63938265D01*
X84956699Y-62948536D01*
X84953785Y-62923409D01*
X84953783Y-62923404D01*
X84920660Y-62848387D01*
X84920119Y-62843090D01*
X84916999Y-62838774D01*
X84917904Y-62821372D01*
X84914451Y-62787518D01*
X84917140Y-62777589D01*
X84918667Y-62772925D01*
X84953785Y-62693391D01*
X84956700Y-62668265D01*
X84956700Y-62656787D01*
X84961513Y-62642090D01*
X84972326Y-62627279D01*
X84978989Y-62610192D01*
X84989928Y-62603169D01*
X84997592Y-62592673D01*
X85015044Y-62587046D01*
X85030479Y-62577139D01*
X85055597Y-62573900D01*
X86014325Y-62573900D01*
X86014327Y-62573900D01*
X86116188Y-62546607D01*
X86116190Y-62546605D01*
X86116192Y-62546605D01*
X86207508Y-62493883D01*
X86207508Y-62493882D01*
X86207513Y-62493880D01*
X86808080Y-61893313D01*
X86810792Y-61888615D01*
X86812776Y-61885181D01*
X86837190Y-61842893D01*
X86860807Y-61801987D01*
X86888100Y-61700127D01*
X86888100Y-59543073D01*
X86860807Y-59441213D01*
X86850639Y-59423602D01*
X86808080Y-59349887D01*
X86733513Y-59275319D01*
X86733513Y-59275320D01*
X86168396Y-58710203D01*
X86140619Y-58655686D01*
X86139400Y-58640199D01*
X86139400Y-58568044D01*
X86139400Y-58568043D01*
X86098477Y-58415316D01*
X86056506Y-58342620D01*
X86043785Y-58282774D01*
X86068671Y-58226878D01*
X86082888Y-58215404D01*
X86082170Y-58214469D01*
X86087309Y-58210525D01*
X86087311Y-58210522D01*
X86087316Y-58210520D01*
X86199120Y-58098716D01*
X86278177Y-57961784D01*
X86319100Y-57809057D01*
X86319100Y-57650943D01*
X86278177Y-57498216D01*
X86278176Y-57498214D01*
X86276497Y-57491948D01*
X86278449Y-57491424D01*
X86274369Y-57439627D01*
X86306334Y-57387456D01*
X86309489Y-57384871D01*
X86315027Y-57380521D01*
X86372016Y-57347620D01*
X86427230Y-57292405D01*
X86431898Y-57288740D01*
X86455327Y-57280145D01*
X86477558Y-57268819D01*
X86488568Y-57267952D01*
X86489341Y-57267669D01*
X86489954Y-57267843D01*
X86493044Y-57267600D01*
X87400499Y-57267600D01*
X87458690Y-57286507D01*
G37*
%TD.AperFunction*%
%TA.AperFunction,Conductor*%
G36*
X108267560Y-56996508D02*
G01*
X108299645Y-57001590D01*
X108299647Y-57001592D01*
X108299650Y-57001593D01*
X108316954Y-57018899D01*
X108342910Y-57044855D01*
X108342910Y-57044858D01*
X108342912Y-57044860D01*
X108342913Y-57044869D01*
X108353700Y-57089800D01*
X108353700Y-59883473D01*
X108353700Y-59988927D01*
X108377770Y-60078759D01*
X108380994Y-60090792D01*
X108433716Y-60182108D01*
X108433717Y-60182109D01*
X108433718Y-60182110D01*
X108433720Y-60182113D01*
X111688280Y-63436673D01*
X114935503Y-66683896D01*
X114963280Y-66738413D01*
X114953709Y-66798845D01*
X114910444Y-66842110D01*
X114865499Y-66852900D01*
X102555596Y-66852900D01*
X102497405Y-66833993D01*
X102461512Y-66784709D01*
X102456699Y-66770011D01*
X102456699Y-66758536D01*
X102453785Y-66733409D01*
X102418670Y-66653882D01*
X102417140Y-66649208D01*
X102417080Y-66623293D01*
X102414451Y-66597518D01*
X102417002Y-66589664D01*
X102416999Y-66588023D01*
X102417974Y-66586673D01*
X102420657Y-66578418D01*
X102453785Y-66503391D01*
X102456700Y-66478265D01*
X102456699Y-65488536D01*
X102453785Y-65463409D01*
X102453783Y-65463404D01*
X102420660Y-65388387D01*
X102420076Y-65382662D01*
X102416743Y-65377969D01*
X102417758Y-65359940D01*
X102414451Y-65327518D01*
X102417407Y-65316787D01*
X102418839Y-65312534D01*
X102453785Y-65233391D01*
X102456700Y-65208265D01*
X102456699Y-65200173D01*
X102461455Y-65186061D01*
X102473797Y-65169454D01*
X102482418Y-65150641D01*
X102491639Y-65145448D01*
X102497953Y-65136954D01*
X102517701Y-65130773D01*
X102535733Y-65120620D01*
X102546246Y-65121839D01*
X102556345Y-65118679D01*
X102575954Y-65125286D01*
X102596511Y-65127671D01*
X102609187Y-65136483D01*
X102614328Y-65138216D01*
X102616910Y-65141853D01*
X102625276Y-65147669D01*
X102795804Y-65318197D01*
X102823581Y-65372714D01*
X102824800Y-65388201D01*
X102824800Y-65460357D01*
X102865723Y-65613084D01*
X102944780Y-65750016D01*
X103056584Y-65861820D01*
X103193516Y-65940877D01*
X103346243Y-65981800D01*
X103346245Y-65981800D01*
X103504355Y-65981800D01*
X103504357Y-65981800D01*
X103657084Y-65940877D01*
X103794016Y-65861820D01*
X103905820Y-65750016D01*
X103984877Y-65613084D01*
X104025800Y-65460357D01*
X104025800Y-65302243D01*
X103984877Y-65149516D01*
X103905820Y-65012584D01*
X103794016Y-64900780D01*
X103657084Y-64821723D01*
X103504357Y-64780800D01*
X103504355Y-64780800D01*
X103432201Y-64780800D01*
X103374010Y-64761893D01*
X103362197Y-64751804D01*
X103159196Y-64548803D01*
X103131419Y-64494286D01*
X103130833Y-64486843D01*
X104951000Y-64486843D01*
X104951000Y-64644957D01*
X104991923Y-64797684D01*
X105070980Y-64934616D01*
X105182784Y-65046420D01*
X105319716Y-65125477D01*
X105472443Y-65166400D01*
X105472445Y-65166400D01*
X105630555Y-65166400D01*
X105630557Y-65166400D01*
X105783284Y-65125477D01*
X105920216Y-65046420D01*
X106032020Y-64934616D01*
X106111077Y-64797684D01*
X106152000Y-64644957D01*
X106152000Y-64486843D01*
X106111077Y-64334116D01*
X106032020Y-64197184D01*
X106028240Y-64193404D01*
X105980996Y-64146159D01*
X105953219Y-64091642D01*
X105952000Y-64076156D01*
X105952000Y-61883901D01*
X105970907Y-61825710D01*
X105980996Y-61813897D01*
X106409297Y-61385596D01*
X106463814Y-61357819D01*
X106479301Y-61356600D01*
X106551455Y-61356600D01*
X106551457Y-61356600D01*
X106704184Y-61315677D01*
X106841116Y-61236620D01*
X106952920Y-61124816D01*
X107031977Y-60987884D01*
X107072900Y-60835157D01*
X107072900Y-60677043D01*
X107031977Y-60524316D01*
X106952920Y-60387384D01*
X106841116Y-60275580D01*
X106704184Y-60196523D01*
X106551457Y-60155600D01*
X106393343Y-60155600D01*
X106240616Y-60196523D01*
X106103684Y-60275580D01*
X105991880Y-60387384D01*
X105912823Y-60524316D01*
X105879714Y-60647883D01*
X105871900Y-60677044D01*
X105871900Y-60749199D01*
X105852993Y-60807390D01*
X105842904Y-60819203D01*
X105231016Y-61431091D01*
X105178294Y-61522407D01*
X105177986Y-61523557D01*
X105158642Y-61595754D01*
X105157748Y-61599089D01*
X105151000Y-61624272D01*
X105151000Y-64076156D01*
X105132093Y-64134347D01*
X105122004Y-64146159D01*
X105070982Y-64197181D01*
X105070980Y-64197183D01*
X105070980Y-64197184D01*
X104991923Y-64334116D01*
X104951000Y-64486843D01*
X103130833Y-64486843D01*
X103130200Y-64478799D01*
X103130200Y-60451600D01*
X103149107Y-60393409D01*
X103198607Y-60357445D01*
X103259793Y-60357445D01*
X103299201Y-60381594D01*
X103565487Y-60647880D01*
X103565489Y-60647881D01*
X103565491Y-60647883D01*
X103656808Y-60700605D01*
X103656806Y-60700605D01*
X103656810Y-60700606D01*
X103656812Y-60700607D01*
X103758673Y-60727900D01*
X103758675Y-60727900D01*
X104363425Y-60727900D01*
X104363427Y-60727900D01*
X104465288Y-60700607D01*
X104465290Y-60700605D01*
X104465292Y-60700605D01*
X104556608Y-60647883D01*
X104556608Y-60647882D01*
X104556613Y-60647880D01*
X108175110Y-57029381D01*
X108175113Y-57029380D01*
X108184702Y-57019790D01*
X108211314Y-57006233D01*
X108239213Y-56992019D01*
X108239216Y-56992019D01*
X108239219Y-56992018D01*
X108267560Y-56996508D01*
G37*
%TD.AperFunction*%
%TA.AperFunction,Conductor*%
G36*
X105970890Y-40142607D02*
G01*
X105982703Y-40152696D01*
X106374865Y-40544858D01*
X106402642Y-40599375D01*
X106403602Y-40617876D01*
X106403700Y-40617876D01*
X106403700Y-40619757D01*
X106403720Y-40620143D01*
X106403700Y-40620517D01*
X106403700Y-41266266D01*
X106403701Y-41266270D01*
X106410108Y-41325880D01*
X106410109Y-41325885D01*
X106460402Y-41460729D01*
X106546650Y-41575941D01*
X106546654Y-41575946D01*
X106546657Y-41575948D01*
X106546658Y-41575949D01*
X106661870Y-41662197D01*
X106796711Y-41712489D01*
X106796712Y-41712489D01*
X106796717Y-41712491D01*
X106856327Y-41718900D01*
X107352072Y-41718899D01*
X107411683Y-41712491D01*
X107411683Y-41712490D01*
X107417841Y-41711829D01*
X107418133Y-41714548D01*
X107467844Y-41718602D01*
X107514257Y-41758471D01*
X107528700Y-41809959D01*
X107528700Y-56501999D01*
X107509793Y-56560190D01*
X107499704Y-56572003D01*
X105211104Y-58860603D01*
X105156587Y-58888380D01*
X105096155Y-58878809D01*
X105052890Y-58835544D01*
X105042100Y-58790599D01*
X105042100Y-43394389D01*
X105042102Y-43324087D01*
X105042100Y-43324079D01*
X105042100Y-43324073D01*
X105028585Y-43273637D01*
X105016040Y-43226809D01*
X105015187Y-43222871D01*
X105013233Y-43219487D01*
X104986393Y-43172999D01*
X104962088Y-43130898D01*
X104962085Y-43130895D01*
X104962083Y-43130891D01*
X104962081Y-43130888D01*
X104909016Y-43077822D01*
X104909010Y-43077817D01*
X103805539Y-41974272D01*
X103777763Y-41919755D01*
X103787337Y-41859323D01*
X103830603Y-41816060D01*
X103849922Y-41808644D01*
X103851952Y-41808100D01*
X103851957Y-41808100D01*
X104004684Y-41767177D01*
X104141616Y-41688120D01*
X104253420Y-41576316D01*
X104332477Y-41439384D01*
X104373400Y-41286657D01*
X104373400Y-41128543D01*
X104332477Y-40975816D01*
X104253420Y-40838884D01*
X104141616Y-40727080D01*
X104004684Y-40648023D01*
X103851957Y-40607100D01*
X103693843Y-40607100D01*
X103541116Y-40648023D01*
X103404184Y-40727080D01*
X103292380Y-40838884D01*
X103213323Y-40975816D01*
X103171851Y-41130591D01*
X103166090Y-41139461D01*
X103164436Y-41149909D01*
X103149799Y-41164547D01*
X103138526Y-41181906D01*
X103128652Y-41185696D01*
X103121174Y-41193175D01*
X103100729Y-41196414D01*
X103081405Y-41203832D01*
X103071189Y-41201094D01*
X103060742Y-41202750D01*
X103042297Y-41193353D01*
X103022304Y-41187996D01*
X103006224Y-41174975D01*
X102937699Y-41106457D01*
X102909919Y-41051942D01*
X102908699Y-41036450D01*
X102908699Y-40620533D01*
X102908699Y-40620528D01*
X102902291Y-40560917D01*
X102901800Y-40559600D01*
X102851997Y-40426070D01*
X102765749Y-40310858D01*
X102765748Y-40310857D01*
X102765746Y-40310854D01*
X102753856Y-40301953D01*
X102718603Y-40251944D01*
X102719477Y-40190765D01*
X102756145Y-40141784D01*
X102813185Y-40123700D01*
X105912699Y-40123700D01*
X105970890Y-40142607D01*
G37*
%TD.AperFunction*%
%TA.AperFunction,Conductor*%
G36*
X96532703Y-41185796D02*
G01*
X103394404Y-48047497D01*
X103422181Y-48102014D01*
X103423400Y-48117501D01*
X103423400Y-49589456D01*
X103404493Y-49647647D01*
X103394404Y-49659459D01*
X103343382Y-49710481D01*
X103343380Y-49710483D01*
X103343380Y-49710484D01*
X103264323Y-49847416D01*
X103223400Y-50000143D01*
X103223400Y-50158257D01*
X103264323Y-50310984D01*
X103343380Y-50447916D01*
X103455184Y-50559720D01*
X103592116Y-50638777D01*
X103744843Y-50679700D01*
X103744845Y-50679700D01*
X103902955Y-50679700D01*
X103902957Y-50679700D01*
X104055684Y-50638777D01*
X104092602Y-50617462D01*
X104152447Y-50604741D01*
X104208343Y-50629627D01*
X104238936Y-50682614D01*
X104241100Y-50703199D01*
X104241100Y-53270639D01*
X104222193Y-53328830D01*
X104172693Y-53364794D01*
X104135464Y-53369416D01*
X104125814Y-53368767D01*
X104100557Y-53362000D01*
X104025084Y-53362000D01*
X104021765Y-53361777D01*
X103996305Y-53351571D01*
X103970210Y-53343093D01*
X103965838Y-53339359D01*
X103964972Y-53339012D01*
X103964439Y-53338164D01*
X103958397Y-53333004D01*
X96092696Y-45467303D01*
X96064919Y-45412786D01*
X96063700Y-45397299D01*
X96063700Y-41743066D01*
X96082607Y-41684875D01*
X96103371Y-41663813D01*
X96114123Y-41655764D01*
X96220746Y-41575946D01*
X96306996Y-41460731D01*
X96336936Y-41380459D01*
X96357289Y-41325888D01*
X96357288Y-41325888D01*
X96357291Y-41325883D01*
X96363700Y-41266273D01*
X96363699Y-41255805D01*
X96382602Y-41197615D01*
X96432099Y-41161648D01*
X96493285Y-41161643D01*
X96532703Y-41185796D01*
G37*
%TD.AperFunction*%
%TA.AperFunction,Conductor*%
G36*
X86287190Y-40142607D02*
G01*
X86323154Y-40192107D01*
X86323154Y-40253293D01*
X86299003Y-40292703D01*
X86063120Y-40528586D01*
X86063116Y-40528591D01*
X86010394Y-40619907D01*
X86009628Y-40622767D01*
X85988432Y-40701873D01*
X85986298Y-40709838D01*
X85983100Y-40721773D01*
X85983100Y-48288898D01*
X85964193Y-48347089D01*
X85954104Y-48358902D01*
X84612760Y-49700245D01*
X84558243Y-49728022D01*
X84497811Y-49718451D01*
X84454546Y-49675186D01*
X84444975Y-49614754D01*
X84447126Y-49604632D01*
X84465000Y-49537927D01*
X84465000Y-49432473D01*
X84465000Y-48991328D01*
X84483907Y-48933137D01*
X84533407Y-48897173D01*
X84589620Y-48895701D01*
X84667243Y-48916500D01*
X84667245Y-48916500D01*
X84825355Y-48916500D01*
X84825357Y-48916500D01*
X84978084Y-48875577D01*
X85115016Y-48796520D01*
X85226820Y-48684716D01*
X85305877Y-48547784D01*
X85346800Y-48395057D01*
X85346800Y-48236943D01*
X85305877Y-48084216D01*
X85226820Y-47947284D01*
X85115016Y-47835480D01*
X84978084Y-47756423D01*
X84825357Y-47715500D01*
X84667243Y-47715500D01*
X84645153Y-47721419D01*
X84589622Y-47736298D01*
X84528521Y-47733095D01*
X84480971Y-47694590D01*
X84465000Y-47640671D01*
X84465000Y-44722674D01*
X84465000Y-44722673D01*
X84453732Y-44680620D01*
X84437707Y-44620812D01*
X84437704Y-44620806D01*
X84384983Y-44529491D01*
X84384982Y-44529490D01*
X84384981Y-44529489D01*
X84384980Y-44529487D01*
X83001696Y-43146203D01*
X82973919Y-43091686D01*
X82972700Y-43076199D01*
X82972700Y-41743066D01*
X82991607Y-41684875D01*
X83012371Y-41663813D01*
X83023123Y-41655764D01*
X83129746Y-41575946D01*
X83215996Y-41460731D01*
X83245936Y-41380459D01*
X83266289Y-41325888D01*
X83266288Y-41325888D01*
X83266291Y-41325883D01*
X83272700Y-41266273D01*
X83272699Y-40620528D01*
X83266291Y-40560917D01*
X83265800Y-40559600D01*
X83215997Y-40426070D01*
X83129749Y-40310858D01*
X83129748Y-40310857D01*
X83129746Y-40310854D01*
X83117856Y-40301953D01*
X83082603Y-40251944D01*
X83083477Y-40190765D01*
X83120145Y-40141784D01*
X83177185Y-40123700D01*
X86228999Y-40123700D01*
X86287190Y-40142607D01*
G37*
%TD.AperFunction*%
%TA.AperFunction,Conductor*%
G36*
X93271891Y-40579507D02*
G01*
X93307855Y-40629007D01*
X93312700Y-40659600D01*
X93312700Y-41036499D01*
X93293793Y-41094690D01*
X93283704Y-41106503D01*
X87554804Y-46835403D01*
X87500287Y-46863180D01*
X87439855Y-46853609D01*
X87396590Y-46810344D01*
X87385800Y-46765399D01*
X87385800Y-41817899D01*
X87404707Y-41759708D01*
X87454207Y-41723744D01*
X87484800Y-41718899D01*
X87715067Y-41718899D01*
X87715072Y-41718899D01*
X87774683Y-41712491D01*
X87873604Y-41675596D01*
X87909529Y-41662197D01*
X87909529Y-41662196D01*
X87909531Y-41662196D01*
X88024746Y-41575946D01*
X88110996Y-41460731D01*
X88140936Y-41380459D01*
X88161289Y-41325888D01*
X88161288Y-41325888D01*
X88161291Y-41325883D01*
X88167700Y-41266273D01*
X88167699Y-40799297D01*
X88174862Y-40777250D01*
X88178489Y-40754353D01*
X88184137Y-40748704D01*
X88186606Y-40741107D01*
X88205362Y-40727479D01*
X88221754Y-40711088D01*
X88229643Y-40709838D01*
X88236106Y-40705143D01*
X88259291Y-40705143D01*
X88282186Y-40701517D01*
X88289303Y-40705143D01*
X88297291Y-40705143D01*
X88336699Y-40729291D01*
X88387705Y-40780297D01*
X88415481Y-40834812D01*
X88416700Y-40850299D01*
X88416700Y-41266266D01*
X88416701Y-41266270D01*
X88423108Y-41325880D01*
X88423109Y-41325885D01*
X88473402Y-41460729D01*
X88559650Y-41575941D01*
X88559654Y-41575946D01*
X88559657Y-41575948D01*
X88559658Y-41575949D01*
X88674870Y-41662197D01*
X88809711Y-41712489D01*
X88809712Y-41712489D01*
X88809717Y-41712491D01*
X88869327Y-41718900D01*
X89365072Y-41718899D01*
X89424683Y-41712491D01*
X89523604Y-41675596D01*
X89559529Y-41662197D01*
X89559529Y-41662196D01*
X89559531Y-41662196D01*
X89674746Y-41575946D01*
X89760996Y-41460731D01*
X89790936Y-41380459D01*
X89811289Y-41325888D01*
X89811288Y-41325888D01*
X89811291Y-41325883D01*
X89817700Y-41266273D01*
X89817699Y-40850299D01*
X89836606Y-40792109D01*
X89846696Y-40780296D01*
X90037397Y-40589596D01*
X90091913Y-40561819D01*
X90107400Y-40560600D01*
X93213700Y-40560600D01*
X93271891Y-40579507D01*
G37*
%TD.AperFunction*%
%TA.AperFunction,Conductor*%
G36*
X69026645Y-41657389D02*
G01*
X69069910Y-41700654D01*
X69080700Y-41745599D01*
X69080700Y-44666273D01*
X69080700Y-44771727D01*
X69090666Y-44808922D01*
X69107994Y-44873592D01*
X69160716Y-44964908D01*
X69160720Y-44964913D01*
X69336661Y-45140855D01*
X69364438Y-45195371D01*
X69354867Y-45255803D01*
X69316162Y-45296592D01*
X69306485Y-45302179D01*
X69306484Y-45302180D01*
X69194680Y-45413984D01*
X69115623Y-45550916D01*
X69087218Y-45656927D01*
X69074700Y-45703644D01*
X69074700Y-45778599D01*
X69055793Y-45836790D01*
X69045704Y-45848603D01*
X68644404Y-46249903D01*
X68589887Y-46277680D01*
X68529455Y-46268109D01*
X68486190Y-46224844D01*
X68475400Y-46179899D01*
X68475400Y-45238514D01*
X68475401Y-45238501D01*
X68475401Y-45125076D01*
X68475401Y-45125074D01*
X68448107Y-45023213D01*
X68439633Y-45008535D01*
X68395380Y-44931887D01*
X68320813Y-44857320D01*
X68320810Y-44857318D01*
X67960474Y-44496982D01*
X67932697Y-44442465D01*
X67942268Y-44382033D01*
X67953249Y-44366956D01*
X67952368Y-44366280D01*
X67956320Y-44361130D01*
X68033661Y-44227171D01*
X68033661Y-44227169D01*
X68033663Y-44227167D01*
X68073700Y-44077746D01*
X68073700Y-42609054D01*
X68033663Y-42459633D01*
X68033661Y-42459630D01*
X68033661Y-42459628D01*
X67956320Y-42325670D01*
X67956318Y-42325668D01*
X67956317Y-42325666D01*
X67939352Y-42308701D01*
X67911577Y-42254187D01*
X67921148Y-42193755D01*
X67964413Y-42150490D01*
X68009358Y-42139700D01*
X68334425Y-42139700D01*
X68334427Y-42139700D01*
X68436288Y-42112407D01*
X68436290Y-42112405D01*
X68436292Y-42112405D01*
X68527608Y-42059683D01*
X68527608Y-42059682D01*
X68527613Y-42059680D01*
X68911696Y-41675595D01*
X68966213Y-41647818D01*
X69026645Y-41657389D01*
G37*
%TD.AperFunction*%
%TA.AperFunction,Conductor*%
G36*
X82679796Y-44655068D02*
G01*
X82687686Y-44653819D01*
X82708341Y-44664343D01*
X82730390Y-44671507D01*
X82742203Y-44681596D01*
X82815012Y-44754405D01*
X82842789Y-44808922D01*
X82833218Y-44869354D01*
X82826691Y-44880346D01*
X82826497Y-44880628D01*
X82781114Y-44983411D01*
X82778200Y-45008530D01*
X82778200Y-45378259D01*
X82778201Y-45378264D01*
X82781114Y-45403389D01*
X82781115Y-45403392D01*
X82781126Y-45403416D01*
X82781128Y-45403439D01*
X82783070Y-45410576D01*
X82781888Y-45410897D01*
X82787330Y-45464286D01*
X82781128Y-45483377D01*
X82781117Y-45483399D01*
X82781114Y-45483411D01*
X82778200Y-45508530D01*
X82778200Y-45508532D01*
X82778200Y-45508535D01*
X82778200Y-45692299D01*
X82778201Y-45814700D01*
X82773356Y-45829611D01*
X82773356Y-45845293D01*
X82764138Y-45857979D01*
X82759294Y-45872890D01*
X82746610Y-45882105D01*
X82737392Y-45894793D01*
X82722477Y-45899638D01*
X82709794Y-45908854D01*
X82679201Y-45913700D01*
X82604700Y-45913700D01*
X82546509Y-45894793D01*
X82534696Y-45884703D01*
X82110219Y-45460225D01*
X82082442Y-45405709D01*
X82089660Y-45350231D01*
X82093785Y-45340891D01*
X82096700Y-45315765D01*
X82096699Y-44751599D01*
X82115606Y-44693409D01*
X82165106Y-44657445D01*
X82195699Y-44652600D01*
X82672199Y-44652600D01*
X82679796Y-44655068D01*
G37*
%TD.AperFunction*%
%TA.AperFunction,Conductor*%
G36*
X78981524Y-39678868D02*
G01*
X78998565Y-39679353D01*
X79009893Y-39688086D01*
X79023500Y-39692507D01*
X79033522Y-39706301D01*
X79047023Y-39716709D01*
X79051054Y-39730432D01*
X79059464Y-39742007D01*
X79059954Y-39760725D01*
X79064269Y-39775413D01*
X79063939Y-39787012D01*
X79061600Y-39795743D01*
X79061600Y-39869304D01*
X79061560Y-39870712D01*
X79051734Y-39898261D01*
X79042693Y-39926090D01*
X79041501Y-39926955D01*
X79041007Y-39928342D01*
X79032604Y-39937903D01*
X78540916Y-40429591D01*
X78488195Y-40520906D01*
X78488193Y-40520910D01*
X78488193Y-40520912D01*
X78461667Y-40619912D01*
X78461667Y-40619913D01*
X78461664Y-40619921D01*
X78460901Y-40622767D01*
X78460900Y-40622775D01*
X78460900Y-42948400D01*
X78441993Y-43006591D01*
X78392493Y-43042555D01*
X78336277Y-43044027D01*
X78287746Y-43031023D01*
X78194357Y-43006000D01*
X78036243Y-43006000D01*
X78036242Y-43006000D01*
X78029811Y-43006847D01*
X78029549Y-43004859D01*
X77977599Y-43002124D01*
X77930058Y-42963607D01*
X77914100Y-42909708D01*
X77914100Y-42378074D01*
X77914100Y-42378073D01*
X77898708Y-42320627D01*
X77898708Y-42320626D01*
X77898708Y-42320625D01*
X77886807Y-42276212D01*
X77886805Y-42276208D01*
X77834083Y-42184891D01*
X77834082Y-42184890D01*
X77834081Y-42184889D01*
X77834080Y-42184887D01*
X76755695Y-41106502D01*
X76727918Y-41051985D01*
X76726699Y-41036498D01*
X76726699Y-40620533D01*
X76726699Y-40620528D01*
X76720291Y-40560917D01*
X76719800Y-40559600D01*
X76669997Y-40426070D01*
X76583749Y-40310858D01*
X76583748Y-40310857D01*
X76583746Y-40310854D01*
X76563085Y-40295387D01*
X76468529Y-40224602D01*
X76333688Y-40174310D01*
X76333683Y-40174309D01*
X76333681Y-40174308D01*
X76333677Y-40174308D01*
X76302449Y-40170950D01*
X76274073Y-40167900D01*
X76274070Y-40167900D01*
X75778333Y-40167900D01*
X75778329Y-40167900D01*
X75778328Y-40167901D01*
X75771149Y-40168672D01*
X75718719Y-40174308D01*
X75718714Y-40174309D01*
X75583870Y-40224602D01*
X75468658Y-40310850D01*
X75468650Y-40310858D01*
X75382402Y-40426070D01*
X75332110Y-40560911D01*
X75332108Y-40560922D01*
X75328746Y-40592192D01*
X75326198Y-40615900D01*
X75325700Y-40620529D01*
X75325700Y-41266266D01*
X75325701Y-41266270D01*
X75332108Y-41325880D01*
X75332109Y-41325885D01*
X75381164Y-41457409D01*
X75381596Y-41467509D01*
X75386187Y-41476518D01*
X75382878Y-41497408D01*
X75383784Y-41518538D01*
X75378197Y-41526963D01*
X75376616Y-41536950D01*
X75361660Y-41551905D01*
X75349973Y-41569533D01*
X75340499Y-41573066D01*
X75333351Y-41580215D01*
X75312460Y-41583523D01*
X75292645Y-41590914D01*
X75282904Y-41588204D01*
X75272919Y-41589786D01*
X75254073Y-41580184D01*
X75233698Y-41574516D01*
X75218402Y-41562009D01*
X75091369Y-41434976D01*
X75063592Y-41380459D01*
X75068617Y-41330371D01*
X75070289Y-41325888D01*
X75070291Y-41325883D01*
X75076700Y-41266273D01*
X75076699Y-40620528D01*
X75070291Y-40560917D01*
X75069800Y-40559600D01*
X75019997Y-40426070D01*
X74933749Y-40310858D01*
X74933748Y-40310857D01*
X74933746Y-40310854D01*
X74913085Y-40295387D01*
X74818529Y-40224602D01*
X74683688Y-40174310D01*
X74683683Y-40174309D01*
X74683681Y-40174308D01*
X74683677Y-40174308D01*
X74652449Y-40170950D01*
X74624073Y-40167900D01*
X74624070Y-40167900D01*
X74128333Y-40167900D01*
X74128329Y-40167900D01*
X74128328Y-40167901D01*
X74121149Y-40168672D01*
X74068719Y-40174308D01*
X74068714Y-40174309D01*
X73933870Y-40224602D01*
X73818658Y-40310850D01*
X73818650Y-40310858D01*
X73732402Y-40426070D01*
X73682110Y-40560911D01*
X73682108Y-40560922D01*
X73678746Y-40592192D01*
X73676198Y-40615900D01*
X73675700Y-40620529D01*
X73675700Y-41266266D01*
X73675701Y-41266270D01*
X73682108Y-41325880D01*
X73682109Y-41325885D01*
X73732402Y-41460729D01*
X73818650Y-41575941D01*
X73818654Y-41575946D01*
X73818657Y-41575948D01*
X73818658Y-41575949D01*
X73933870Y-41662197D01*
X74068711Y-41712489D01*
X74068712Y-41712489D01*
X74068717Y-41712491D01*
X74128327Y-41718900D01*
X74201498Y-41718899D01*
X74259688Y-41737806D01*
X74271502Y-41747895D01*
X76790904Y-44267297D01*
X76818681Y-44321814D01*
X76819900Y-44337301D01*
X76819900Y-45692299D01*
X76800993Y-45750490D01*
X76751493Y-45786454D01*
X76690307Y-45786454D01*
X76650896Y-45762303D01*
X70731197Y-39842604D01*
X70703420Y-39788087D01*
X70712991Y-39727655D01*
X70756256Y-39684390D01*
X70801201Y-39673600D01*
X78965309Y-39673600D01*
X78981524Y-39678868D01*
G37*
%TD.AperFunction*%
%TD*%
M02*
