%TF.GenerationSoftware,KiCad,Pcbnew,10.0.3*%
%TF.CreationDate,2026-08-03T21:15:36-04:00*%
%TF.ProjectId,NeuralCard,4e657572-616c-4436-9172-642e6b696361,rev?*%
%TF.SameCoordinates,Original*%
%TF.FileFunction,Copper,L1,Top*%
%TF.FilePolarity,Positive*%
%FSLAX46Y46*%
G04 Gerber Fmt 4.6, Leading zero omitted, Abs format (unit mm)*
G04 Created by KiCad (PCBNEW 10.0.3) date 2026-08-03 21:15:36*
%MOMM*%
%LPD*%
G01*
G04 APERTURE LIST*
%TA.AperFunction,EtchedComponent*%
%ADD10C,0.300000*%
%TD*%
%TA.AperFunction,SMDPad,CuDef*%
%ADD11R,0.800000X0.800000*%
%TD*%
%TA.AperFunction,ComponentPad*%
%ADD12C,1.200000*%
%TD*%
%TA.AperFunction,ViaPad*%
%ADD13C,0.600000*%
%TD*%
%TA.AperFunction,Conductor*%
%ADD14C,0.200000*%
%TD*%
G04 APERTURE END LIST*
%TO.C,ANT1*%
D10*
X8500000Y-22200000D02*
X8000000Y-14800000D01*
%TD*%
D11*
%TO.P,D13,1*%
%TO.N,CP4*%
X43550000Y-41286000D03*
%TO.P,D13,2*%
%TO.N,CP3*%
X42050000Y-41286000D03*
%TD*%
%TO.P,D14,1*%
%TO.N,CP5*%
X43550000Y-47000000D03*
%TO.P,D14,2*%
%TO.N,CP3*%
X42050000Y-47000000D03*
%TD*%
%TO.P,D9,1*%
%TO.N,CP5*%
X43550000Y-18429000D03*
%TO.P,D9,2*%
%TO.N,CP2*%
X42050000Y-18429000D03*
%TD*%
%TO.P,D5,1*%
%TO.N,CP6*%
X17750000Y-36600000D03*
%TO.P,D5,2*%
%TO.N,CP1*%
X16250000Y-36600000D03*
%TD*%
%TO.P,D12,1*%
%TO.N,CP2*%
X43550000Y-35571000D03*
%TO.P,D12,2*%
%TO.N,CP3*%
X42050000Y-35571000D03*
%TD*%
%TO.P,D11,1*%
%TO.N,CP1*%
X43550000Y-29857000D03*
%TO.P,D11,2*%
%TO.N,CP3*%
X42050000Y-29857000D03*
%TD*%
%TO.P,D3,1*%
%TO.N,CP4*%
X17750000Y-23800000D03*
%TO.P,D3,2*%
%TO.N,CP1*%
X16250000Y-23800000D03*
%TD*%
%TO.P,D24,1*%
%TO.N,CP4*%
X69350000Y-49000000D03*
%TO.P,D24,2*%
%TO.N,CP5*%
X67850000Y-49000000D03*
%TD*%
%TO.P,D6,1*%
%TO.N,CP1*%
X17750000Y-43000000D03*
%TO.P,D6,2*%
%TO.N,CP2*%
X16250000Y-43000000D03*
%TD*%
%TO.P,D19,1*%
%TO.N,CP5*%
X69350000Y-24556000D03*
%TO.P,D19,2*%
%TO.N,CP4*%
X67850000Y-24556000D03*
%TD*%
%TO.P,D10,1*%
%TO.N,CP6*%
X43550000Y-24143000D03*
%TO.P,D10,2*%
%TO.N,CP2*%
X42050000Y-24143000D03*
%TD*%
%TO.P,D23,1*%
%TO.N,CP3*%
X69350000Y-44111000D03*
%TO.P,D23,2*%
%TO.N,CP5*%
X67850000Y-44111000D03*
%TD*%
%TO.P,D21,1*%
%TO.N,CP1*%
X69350000Y-34333000D03*
%TO.P,D21,2*%
%TO.N,CP5*%
X67850000Y-34333000D03*
%TD*%
%TO.P,D4,1*%
%TO.N,CP5*%
X17750000Y-30200000D03*
%TO.P,D4,2*%
%TO.N,CP1*%
X16250000Y-30200000D03*
%TD*%
%TO.P,D17,1*%
%TO.N,CP2*%
X69350000Y-14778000D03*
%TO.P,D17,2*%
%TO.N,CP4*%
X67850000Y-14778000D03*
%TD*%
%TO.P,D8,1*%
%TO.N,CP4*%
X43550000Y-12714000D03*
%TO.P,D8,2*%
%TO.N,CP2*%
X42050000Y-12714000D03*
%TD*%
%TO.P,D20,1*%
%TO.N,CP6*%
X69350000Y-29444000D03*
%TO.P,D20,2*%
%TO.N,CP4*%
X67850000Y-29444000D03*
%TD*%
%TO.P,D18,1*%
%TO.N,CP3*%
X69350000Y-19667000D03*
%TO.P,D18,2*%
%TO.N,CP4*%
X67850000Y-19667000D03*
%TD*%
%TO.P,D1,1*%
%TO.N,CP2*%
X17750000Y-11000000D03*
%TO.P,D1,2*%
%TO.N,CP1*%
X16250000Y-11000000D03*
%TD*%
%TO.P,D7,1*%
%TO.N,CP3*%
X43550000Y-7000000D03*
%TO.P,D7,2*%
%TO.N,CP2*%
X42050000Y-7000000D03*
%TD*%
%TO.P,D2,1*%
%TO.N,CP3*%
X17750000Y-17400000D03*
%TO.P,D2,2*%
%TO.N,CP1*%
X16250000Y-17400000D03*
%TD*%
%TO.P,D15,1*%
%TO.N,CP6*%
X69350000Y-5000000D03*
%TO.P,D15,2*%
%TO.N,CP3*%
X67850000Y-5000000D03*
%TD*%
%TO.P,D16,1*%
%TO.N,CP1*%
X69350000Y-9889000D03*
%TO.P,D16,2*%
%TO.N,CP4*%
X67850000Y-9889000D03*
%TD*%
%TO.P,D22,1*%
%TO.N,CP2*%
X69350000Y-39222000D03*
%TO.P,D22,2*%
%TO.N,CP5*%
X67850000Y-39222000D03*
%TD*%
D12*
%TO.P,ANT1,2*%
%TO.N,NFC_ANT_B*%
X8000000Y-14200000D03*
%TO.P,ANT1,3*%
%TO.N,N/C*%
X8500000Y-22800000D03*
%TD*%
D13*
%TO.N,CP4*%
X30150200Y-10256700D03*
%TO.N,CP3*%
X18534900Y-16373600D03*
X16595600Y-6043000D03*
X22879400Y-4436200D03*
X67056800Y-36327300D03*
X70016200Y-21389700D03*
%TO.N,CP5*%
X43215300Y-33149400D03*
X43003000Y-17391600D03*
X43365300Y-46062600D03*
X39181600Y-26652200D03*
%TO.N,CP2*%
X39842500Y-12731800D03*
X69579400Y-37896200D03*
X39229900Y-9518300D03*
X18363700Y-9527200D03*
X66195300Y-35721000D03*
X69023600Y-17805800D03*
%TO.N,CP6*%
X46893600Y-7772900D03*
X45857600Y-21267900D03*
X45507700Y-7215700D03*
%TO.N,CP1*%
X69554200Y-10797500D03*
X10236800Y-10347300D03*
X63213800Y-27288000D03*
%TO.N,+3V3*%
X19954200Y-11162900D03*
X21789700Y-11580800D03*
X24850000Y-8165000D03*
X39934900Y-6936100D03*
X18126500Y-27941300D03*
%TO.N,GND*%
X69169900Y-36250001D03*
X56145911Y-25462250D03*
X2600000Y-12000000D03*
X45552950Y-36691645D03*
X68656029Y-7735166D03*
X45582225Y-18178879D03*
X55991625Y-14460437D03*
X43000000Y-2400000D03*
X25071659Y-27806817D03*
X43252658Y-42787141D03*
X48000000Y-27000000D03*
X83000000Y-51000000D03*
X36390463Y-11620747D03*
X29024299Y-30701250D03*
X83000000Y-12000000D03*
X56642999Y-6107850D03*
X56511924Y-10347945D03*
X43000000Y-51600000D03*
X42940666Y-10377212D03*
X12150646Y-14402310D03*
X25065851Y-20179654D03*
X24000000Y-8000000D03*
X31911904Y-11453437D03*
X52000000Y-40000000D03*
X61429085Y-30984258D03*
X83000000Y-27000000D03*
X40073050Y-40982928D03*
%TO.N,EN*%
X27973200Y-28735400D03*
X54636000Y-29086300D03*
X45916500Y-24903500D03*
%TO.N,IO0*%
X33762900Y-28525500D03*
X42413600Y-27816000D03*
%TO.N,CHX6*%
X30966400Y-21286600D03*
X33762900Y-15583400D03*
%TO.N,SCL*%
X63512100Y-3825600D03*
X18500800Y-18830400D03*
X22279400Y-12676400D03*
X6287500Y-10913700D03*
%TO.N,CHX4*%
X22335200Y-15088000D03*
X17804100Y-15579000D03*
%TO.N,CHX5*%
X21596500Y-20120600D03*
X19436400Y-24283100D03*
%TO.N,SDA*%
X8208800Y-9975500D03*
X19538900Y-7030200D03*
%TO.N,NFC_GPO*%
X34430700Y-6833900D03*
X6968500Y-9870400D03*
%TO.N,NFC_ANT_A*%
X6568100Y-13867400D03*
X10000100Y-11865000D03*
%TD*%
%TO.N,CP4*%
D14*
X70489800Y-24462500D02*
X70489800Y-44945800D01*
X43550000Y-12714000D02*
X42848300Y-12714000D01*
X67850000Y-29444000D02*
X67850000Y-24556000D01*
X18451700Y-23800000D02*
X18451700Y-21955200D01*
X18451700Y-21955200D02*
X30150200Y-10256700D01*
X67850000Y-19667000D02*
X67850000Y-23788900D01*
X69350000Y-46085600D02*
X49051300Y-46085600D01*
X49051300Y-46085600D02*
X44251700Y-41286000D01*
X69350000Y-46085600D02*
X69350000Y-48298300D01*
X67850000Y-14778000D02*
X67850000Y-19667000D01*
X40829600Y-10256700D02*
X30150200Y-10256700D01*
X67850000Y-12714000D02*
X43550000Y-12714000D01*
X42848300Y-12275400D02*
X40829600Y-10256700D01*
X43550000Y-41286000D02*
X44251700Y-41286000D01*
X69350000Y-49000000D02*
X69350000Y-48298300D01*
X17750000Y-23800000D02*
X18451700Y-23800000D01*
X67850000Y-9889000D02*
X67850000Y-12714000D01*
X67850000Y-23788900D02*
X69816200Y-23788900D01*
X67850000Y-23788900D02*
X67850000Y-24556000D01*
X67850000Y-12714000D02*
X67850000Y-14778000D01*
X69816200Y-23788900D02*
X70489800Y-24462500D01*
X70489800Y-44945800D02*
X69350000Y-46085600D01*
X42848300Y-12714000D02*
X42848300Y-12275400D01*
%TO.N,CP3*%
X42848300Y-7000000D02*
X42848300Y-6561400D01*
X69350000Y-20723500D02*
X69350000Y-19667000D01*
X68385200Y-44812700D02*
X67284000Y-44812700D01*
X42050000Y-29857000D02*
X42050000Y-34836000D01*
X43550000Y-7000000D02*
X42848300Y-7000000D01*
X69931800Y-4298300D02*
X68814800Y-4298300D01*
X17750000Y-17400000D02*
X17750000Y-16698300D01*
X64002800Y-41531500D02*
X64002800Y-39382900D01*
X42751700Y-41286000D02*
X42751700Y-40847400D01*
X67056800Y-36327300D02*
X67056800Y-35679000D01*
X67056800Y-35679000D02*
X66213800Y-34836000D01*
X42848300Y-6561400D02*
X40723100Y-4436200D01*
X42050000Y-34836000D02*
X42050000Y-35571000D01*
X46251700Y-5000000D02*
X44251700Y-7000000D01*
X69350000Y-44111000D02*
X68648300Y-44111000D01*
X67850000Y-5000000D02*
X68551700Y-5000000D01*
X67850000Y-5000000D02*
X46251700Y-5000000D01*
X68648300Y-44111000D02*
X68648300Y-44549600D01*
X43550000Y-7000000D02*
X44251700Y-7000000D01*
X70195900Y-18119400D02*
X70195900Y-4562400D01*
X40723100Y-4436200D02*
X22879400Y-4436200D01*
X18534900Y-16373600D02*
X18210200Y-16698300D01*
X42050000Y-47000000D02*
X42050000Y-41286000D01*
X18210200Y-16698300D02*
X17750000Y-16698300D01*
X69350000Y-18965300D02*
X70195900Y-18119400D01*
X64002800Y-39382900D02*
X67056800Y-36328900D01*
X68814800Y-4298300D02*
X68551700Y-4561400D01*
X42050000Y-41286000D02*
X42751700Y-41286000D01*
X69350000Y-19667000D02*
X69350000Y-18965300D01*
X66213800Y-34836000D02*
X42050000Y-34836000D01*
X68551700Y-4561400D02*
X68551700Y-5000000D01*
X67284000Y-44812700D02*
X64002800Y-41531500D01*
X68648300Y-44549600D02*
X68385200Y-44812700D01*
X70195900Y-4562400D02*
X69931800Y-4298300D01*
X42751700Y-40847400D02*
X44216200Y-39382900D01*
X67056800Y-36328900D02*
X67056800Y-36327300D01*
X22879400Y-4436200D02*
X18202400Y-4436200D01*
X18202400Y-4436200D02*
X16595600Y-6043000D01*
X44216200Y-39382900D02*
X64002800Y-39382900D01*
X70016200Y-21389700D02*
X69350000Y-20723500D01*
%TO.N,CP5*%
X70055200Y-34854500D02*
X69875000Y-35034700D01*
X69350000Y-24556000D02*
X69350000Y-25257700D01*
X67850000Y-34333000D02*
X67850000Y-35034700D01*
X43550000Y-47000000D02*
X65148300Y-47000000D01*
X43550000Y-18429000D02*
X43550000Y-17727300D01*
X21999500Y-26652200D02*
X39181600Y-26652200D01*
X43365300Y-46062600D02*
X43550000Y-46247300D01*
X43550000Y-46247300D02*
X43550000Y-47000000D01*
X67850000Y-35034700D02*
X67850000Y-39222000D01*
X43550000Y-18429000D02*
X43550000Y-19130700D01*
X18451700Y-30200000D02*
X21999500Y-26652200D01*
X42848300Y-24603000D02*
X42848300Y-19832400D01*
X39181600Y-26652200D02*
X40799100Y-26652200D01*
X17750000Y-30200000D02*
X18451700Y-30200000D01*
X65148300Y-47000000D02*
X67148300Y-49000000D01*
X69875000Y-35034700D02*
X67850000Y-35034700D01*
X42848300Y-19832400D02*
X43550000Y-19130700D01*
X67850000Y-39222000D02*
X67850000Y-44111000D01*
X40799100Y-26652200D02*
X42848300Y-24603000D01*
X67850000Y-34333000D02*
X67148300Y-34333000D01*
X43215300Y-33149400D02*
X65964700Y-33149400D01*
X43338700Y-17727300D02*
X43550000Y-17727300D01*
X70055200Y-25962900D02*
X70055200Y-34854500D01*
X69350000Y-25257700D02*
X70055200Y-25962900D01*
X67850000Y-49000000D02*
X67148300Y-49000000D01*
X65964700Y-33149400D02*
X67148300Y-34333000D01*
X43003000Y-17391600D02*
X43338700Y-17727300D01*
%TO.N,CP2*%
X68648300Y-9456300D02*
X68330100Y-9138100D01*
X16250000Y-43000000D02*
X16951700Y-43000000D01*
X42050000Y-24143000D02*
X42050000Y-23441300D01*
X39221000Y-9527200D02*
X39229900Y-9518300D01*
X41669800Y-9518300D02*
X42050000Y-9138100D01*
X42050000Y-18429000D02*
X42050000Y-23441300D01*
X69350000Y-17479400D02*
X69023600Y-17805800D01*
X17214800Y-43701700D02*
X35156200Y-43701700D01*
X68330100Y-9138100D02*
X42050000Y-9138100D01*
X69350000Y-38125600D02*
X69350000Y-39222000D01*
X44251700Y-35571000D02*
X66045300Y-35571000D01*
X17750000Y-11000000D02*
X17750000Y-10298300D01*
X39229900Y-9518300D02*
X41669800Y-9518300D01*
X43550000Y-35571000D02*
X44251700Y-35571000D01*
X69350000Y-14778000D02*
X69350000Y-17479400D01*
X18363700Y-9684600D02*
X18363700Y-9527200D01*
X43550000Y-35571000D02*
X42848300Y-35571000D01*
X42848300Y-36009600D02*
X42848300Y-35571000D01*
X42050000Y-18429000D02*
X42050000Y-12714000D01*
X16951700Y-43438600D02*
X17214800Y-43701700D01*
X68648300Y-13374600D02*
X68648300Y-9456300D01*
X41330500Y-12731800D02*
X41348300Y-12714000D01*
X69579400Y-37896200D02*
X69350000Y-38125600D01*
X16951700Y-43000000D02*
X16951700Y-43438600D01*
X39842500Y-12731800D02*
X41330500Y-12731800D01*
X17750000Y-10298300D02*
X18363700Y-9684600D01*
X42050000Y-12714000D02*
X41348300Y-12714000D01*
X66045300Y-35571000D02*
X66195300Y-35721000D01*
X69350000Y-14076300D02*
X68648300Y-13374600D01*
X35156200Y-43701700D02*
X42848300Y-36009600D01*
X18363700Y-9527200D02*
X39221000Y-9527200D01*
X42050000Y-7000000D02*
X42050000Y-9138100D01*
X69350000Y-14778000D02*
X69350000Y-14076300D01*
%TO.N,CP6*%
X27567200Y-27484500D02*
X18451700Y-36600000D01*
X43684200Y-23441300D02*
X43550000Y-23441300D01*
X42124000Y-26812600D02*
X41998200Y-26812600D01*
X41998200Y-26812600D02*
X41326300Y-27484500D01*
X44553800Y-24382800D02*
X42124000Y-26812600D01*
X61435400Y-24262900D02*
X44553800Y-24262900D01*
X67329600Y-30157100D02*
X61435400Y-24262900D01*
X68373800Y-30157100D02*
X67329600Y-30157100D01*
X69350000Y-5000000D02*
X67134300Y-7215700D01*
X44433900Y-24143000D02*
X44553800Y-24262900D01*
X44553800Y-24262900D02*
X44553800Y-24382800D01*
X46893600Y-7215700D02*
X46893600Y-7772900D01*
X46893600Y-7215700D02*
X45507700Y-7215700D01*
X43550000Y-24143000D02*
X44433900Y-24143000D01*
X17750000Y-36600000D02*
X18451700Y-36600000D01*
X41326300Y-27484500D02*
X27567200Y-27484500D01*
X68648300Y-29444000D02*
X68648300Y-29882600D01*
X69350000Y-29444000D02*
X68648300Y-29444000D01*
X67134300Y-7215700D02*
X46893600Y-7215700D01*
X43550000Y-24143000D02*
X43550000Y-23441300D01*
X45857600Y-21267900D02*
X43684200Y-23441300D01*
X68648300Y-29882600D02*
X68373800Y-30157100D01*
%TO.N,CP1*%
X69350000Y-10593300D02*
X69350000Y-9889000D01*
X16250000Y-17400000D02*
X16250000Y-18101700D01*
X42585200Y-29155300D02*
X42848300Y-29418400D01*
X16250000Y-11000000D02*
X16250000Y-17400000D01*
X17750000Y-38801700D02*
X16250000Y-37301700D01*
X16250000Y-23800000D02*
X16250000Y-23098300D01*
X63213800Y-29857000D02*
X63213800Y-27288000D01*
X68648300Y-33817900D02*
X68648300Y-34333000D01*
X16250000Y-36600000D02*
X16250000Y-37301700D01*
X16250000Y-11000000D02*
X15548300Y-11000000D01*
X16250000Y-23800000D02*
X16250000Y-30200000D01*
X42848300Y-29418400D02*
X42848300Y-29857000D01*
X14895600Y-10347300D02*
X10236800Y-10347300D01*
X17750000Y-38801700D02*
X18757800Y-38801700D01*
X15548300Y-11000000D02*
X14895600Y-10347300D01*
X43550000Y-29857000D02*
X63213800Y-29857000D01*
X18757800Y-38801700D02*
X28404200Y-29155300D01*
X64687400Y-29857000D02*
X68648300Y-33817900D01*
X16250000Y-18101700D02*
X16152500Y-18199200D01*
X28404200Y-29155300D02*
X42585200Y-29155300D01*
X16250000Y-30200000D02*
X16250000Y-36600000D01*
X17750000Y-43000000D02*
X17750000Y-38801700D01*
X69350000Y-34333000D02*
X68648300Y-34333000D01*
X43550000Y-29857000D02*
X42848300Y-29857000D01*
X69554200Y-10797500D02*
X69350000Y-10593300D01*
X63213800Y-29857000D02*
X64687400Y-29857000D01*
X16152500Y-23000800D02*
X16250000Y-23098300D01*
X16152500Y-18199200D02*
X16152500Y-23000800D01*
%TO.N,+3V3*%
X21789700Y-11580800D02*
X22072100Y-11580800D01*
X38706000Y-8165000D02*
X24850000Y-8165000D01*
X17048300Y-21344700D02*
X17048300Y-26863100D01*
X21789700Y-11580800D02*
X20372100Y-11580800D01*
X22989600Y-15403400D02*
X17048300Y-21344700D01*
X17048300Y-26863100D02*
X18126500Y-27941300D01*
X22072100Y-11580800D02*
X22989600Y-12498300D01*
X22989600Y-12498300D02*
X22989600Y-15403400D01*
X39934900Y-6936100D02*
X38706000Y-8165000D01*
X20372100Y-11580800D02*
X19954200Y-11162900D01*
%TO.N,EN*%
X32702300Y-28735400D02*
X27973200Y-28735400D01*
X41539600Y-27886200D02*
X33551400Y-27886200D01*
X32702300Y-28735300D02*
X32702300Y-28735400D01*
X41811900Y-27613900D02*
X41539600Y-27886200D01*
X47788500Y-29086300D02*
X54636000Y-29086300D01*
X42164500Y-27214300D02*
X41811900Y-27566900D01*
X33551400Y-27886200D02*
X32702300Y-28735300D01*
X45916500Y-27214300D02*
X42164500Y-27214300D01*
X45916500Y-24903500D02*
X45916500Y-27214300D01*
X41811900Y-27566900D02*
X41811900Y-27613900D01*
X45916500Y-27214300D02*
X47788500Y-29086300D01*
%TO.N,IO0*%
X33762900Y-28525500D02*
X41704100Y-28525500D01*
X41704100Y-28525500D02*
X42413600Y-27816000D01*
%TO.N,CHX6*%
X30966400Y-18379900D02*
X33762900Y-15583400D01*
X30966400Y-21286600D02*
X30966400Y-18379900D01*
%TO.N,SCL*%
X18173300Y-12676400D02*
X17011800Y-13837900D01*
X18173300Y-12676400D02*
X22279400Y-12676400D01*
X17048300Y-11551400D02*
X18173300Y-12676400D01*
X9297100Y-9738100D02*
X16332600Y-9738100D01*
X17011800Y-17928600D02*
X17913600Y-18830400D01*
X6287500Y-10685100D02*
X6354000Y-10618600D01*
X6354000Y-10618600D02*
X8416600Y-10618600D01*
X17913600Y-18830400D02*
X18500800Y-18830400D01*
X17011800Y-13837900D02*
X17011800Y-17928600D01*
X6287500Y-10913700D02*
X6287500Y-10685100D01*
X8416600Y-10618600D02*
X9297100Y-9738100D01*
X17048300Y-10453800D02*
X17048300Y-11551400D01*
X6354000Y-9593200D02*
X6354000Y-10618600D01*
X63512100Y-3825600D02*
X12121600Y-3825600D01*
X12121600Y-3825600D02*
X6354000Y-9593200D01*
X16332600Y-9738100D02*
X17048300Y-10453800D01*
%TO.N,CHX4*%
X17804100Y-15579000D02*
X21844200Y-15579000D01*
X21844200Y-15579000D02*
X22335200Y-15088000D01*
%TO.N,CHX5*%
X19436400Y-24283100D02*
X21596500Y-22123000D01*
X21596500Y-22123000D02*
X21596500Y-20120600D01*
%TO.N,SDA*%
X19522700Y-7046400D02*
X19538900Y-7030200D01*
X8208800Y-9975500D02*
X11137900Y-7046400D01*
X11137900Y-7046400D02*
X19522700Y-7046400D01*
%TO.N,NFC_GPO*%
X16844800Y-6644700D02*
X17082300Y-6407200D01*
X10194200Y-6644700D02*
X16844800Y-6644700D01*
X34004000Y-6407200D02*
X34430700Y-6833900D01*
X17082300Y-6407200D02*
X34004000Y-6407200D01*
X6968500Y-9870400D02*
X10194200Y-6644700D01*
%TO.N,NFC_ANT_A*%
X8570500Y-11865000D02*
X10000100Y-11865000D01*
X6568100Y-13867400D02*
X8570500Y-11865000D01*
%TD*%
%TA.AperFunction,Conductor*%
%TO.N,GND*%
G36*
X42866013Y-41808601D02*
G01*
X42890563Y-41842389D01*
X42897794Y-41858765D01*
X42977235Y-41938206D01*
X43080009Y-41983585D01*
X43105135Y-41986500D01*
X43994864Y-41986499D01*
X44019991Y-41983585D01*
X44122765Y-41938206D01*
X44160136Y-41900834D01*
X44214650Y-41873058D01*
X44275082Y-41882629D01*
X44300142Y-41900835D01*
X48730820Y-46331513D01*
X48730819Y-46331513D01*
X48768344Y-46369037D01*
X48805387Y-46406080D01*
X48820429Y-46414764D01*
X48861369Y-46460233D01*
X48867765Y-46521083D01*
X48837172Y-46574071D01*
X48781277Y-46598958D01*
X48770928Y-46599500D01*
X44342155Y-46599500D01*
X44283964Y-46580593D01*
X44251781Y-46536297D01*
X44250593Y-46536822D01*
X44248161Y-46531315D01*
X44248000Y-46531093D01*
X44247868Y-46530651D01*
X44247585Y-46530009D01*
X44202206Y-46427235D01*
X44122765Y-46347794D01*
X44019991Y-46302415D01*
X44019988Y-46302414D01*
X44013179Y-46299408D01*
X44014266Y-46296944D01*
X43973302Y-46270112D01*
X43951601Y-46212904D01*
X43954859Y-46182489D01*
X43965799Y-46141659D01*
X43965800Y-46141657D01*
X43965800Y-45983544D01*
X43965800Y-45983543D01*
X43924877Y-45830816D01*
X43845820Y-45693884D01*
X43734016Y-45582080D01*
X43597084Y-45503023D01*
X43444357Y-45462100D01*
X43286243Y-45462100D01*
X43133516Y-45503023D01*
X42996584Y-45582080D01*
X42884780Y-45693884D01*
X42805723Y-45830816D01*
X42764800Y-45983543D01*
X42764800Y-46141657D01*
X42788990Y-46231936D01*
X42796613Y-46260385D01*
X42793410Y-46321487D01*
X42754905Y-46369037D01*
X42695804Y-46384872D01*
X42655591Y-46373987D01*
X42641887Y-46366916D01*
X42622765Y-46347794D01*
X42519991Y-46302415D01*
X42515976Y-46301949D01*
X42504105Y-46295824D01*
X42489585Y-46281155D01*
X42472319Y-46269846D01*
X42468545Y-46259899D01*
X42461062Y-46252339D01*
X42457937Y-46231936D01*
X42450616Y-46212638D01*
X42450500Y-46207845D01*
X42450500Y-42078155D01*
X42469407Y-42019964D01*
X42513702Y-41987781D01*
X42513178Y-41986593D01*
X42518684Y-41984161D01*
X42518907Y-41984000D01*
X42519348Y-41983868D01*
X42519988Y-41983585D01*
X42519991Y-41983585D01*
X42622765Y-41938206D01*
X42702206Y-41858765D01*
X42709435Y-41842392D01*
X42750232Y-41796797D01*
X42810040Y-41783889D01*
X42866013Y-41808601D01*
G37*
%TD.AperFunction*%
%TA.AperFunction,Conductor*%
G36*
X63561491Y-39802307D02*
G01*
X63597455Y-39851807D01*
X63602300Y-39882400D01*
X63602300Y-41478773D01*
X63602300Y-41584227D01*
X63626370Y-41674059D01*
X63629594Y-41686092D01*
X63682316Y-41777408D01*
X63682318Y-41777410D01*
X63682320Y-41777413D01*
X66963518Y-45058610D01*
X66963520Y-45058613D01*
X67038087Y-45133180D01*
X67038089Y-45133181D01*
X67129409Y-45185905D01*
X67129413Y-45185907D01*
X67231270Y-45213200D01*
X67231272Y-45213201D01*
X67231273Y-45213201D01*
X67342790Y-45213201D01*
X67342806Y-45213200D01*
X68437925Y-45213200D01*
X68437927Y-45213200D01*
X68539788Y-45185907D01*
X68539790Y-45185905D01*
X68539792Y-45185905D01*
X68631108Y-45133183D01*
X68631108Y-45133182D01*
X68631113Y-45133180D01*
X68894211Y-44870081D01*
X68894213Y-44870080D01*
X68923800Y-44840492D01*
X68950536Y-44826870D01*
X68978312Y-44812718D01*
X68993800Y-44811499D01*
X69794858Y-44811499D01*
X69794864Y-44811499D01*
X69809672Y-44809781D01*
X69869651Y-44821858D01*
X69911078Y-44866884D01*
X69918129Y-44927662D01*
X69891080Y-44978126D01*
X69213103Y-45656104D01*
X69158586Y-45683881D01*
X69143099Y-45685100D01*
X49258201Y-45685100D01*
X49200010Y-45666193D01*
X49188197Y-45656104D01*
X46850937Y-43318844D01*
X44497613Y-40965520D01*
X44497610Y-40965518D01*
X44497609Y-40965517D01*
X44497608Y-40965516D01*
X44406291Y-40912794D01*
X44406293Y-40912794D01*
X44350673Y-40897891D01*
X44318473Y-40889263D01*
X44267160Y-40855940D01*
X44248569Y-40819626D01*
X44247585Y-40816010D01*
X44247585Y-40816009D01*
X44202206Y-40713235D01*
X44122765Y-40633794D01*
X44019991Y-40588415D01*
X44019990Y-40588414D01*
X44019988Y-40588414D01*
X43994869Y-40585500D01*
X43994865Y-40585500D01*
X43819000Y-40585500D01*
X43760809Y-40566593D01*
X43724845Y-40517093D01*
X43724845Y-40455907D01*
X43748996Y-40416496D01*
X44353096Y-39812396D01*
X44407613Y-39784619D01*
X44423100Y-39783400D01*
X63503300Y-39783400D01*
X63561491Y-39802307D01*
G37*
%TD.AperFunction*%
%TA.AperFunction,Conductor*%
G36*
X41308691Y-29574707D02*
G01*
X41344655Y-29624207D01*
X41349500Y-29654800D01*
X41349500Y-30301860D01*
X41349501Y-30301863D01*
X41352414Y-30326990D01*
X41377756Y-30384385D01*
X41397794Y-30429765D01*
X41477235Y-30509206D01*
X41580009Y-30554585D01*
X41580011Y-30554585D01*
X41586821Y-30557592D01*
X41585860Y-30559766D01*
X41627665Y-30587134D01*
X41649383Y-30644335D01*
X41649500Y-30649154D01*
X41649500Y-34778844D01*
X41630593Y-34837035D01*
X41586297Y-34869218D01*
X41586822Y-34870407D01*
X41581311Y-34872839D01*
X41581093Y-34872999D01*
X41580657Y-34873129D01*
X41477235Y-34918794D01*
X41397794Y-34998235D01*
X41352414Y-35101011D01*
X41349500Y-35126130D01*
X41349500Y-36015860D01*
X41349501Y-36015863D01*
X41352414Y-36040990D01*
X41368489Y-36077395D01*
X41397794Y-36143765D01*
X41477235Y-36223206D01*
X41580009Y-36268585D01*
X41605135Y-36271500D01*
X41780998Y-36271499D01*
X41839188Y-36290406D01*
X41875152Y-36339906D01*
X41875153Y-36401091D01*
X41851002Y-36440503D01*
X35019303Y-43272204D01*
X34964786Y-43299981D01*
X34949299Y-43301200D01*
X18549500Y-43301200D01*
X18491309Y-43282293D01*
X18455345Y-43232793D01*
X18450500Y-43202200D01*
X18450499Y-42555139D01*
X18450499Y-42555136D01*
X18447585Y-42530009D01*
X18402206Y-42427235D01*
X18322765Y-42347794D01*
X18219991Y-42302415D01*
X18219988Y-42302414D01*
X18213179Y-42299408D01*
X18214137Y-42297236D01*
X18172319Y-42269846D01*
X18150616Y-42212638D01*
X18150500Y-42207845D01*
X18150500Y-39301200D01*
X18169407Y-39243009D01*
X18218907Y-39207045D01*
X18249500Y-39202200D01*
X18810525Y-39202200D01*
X18810527Y-39202200D01*
X18912388Y-39174907D01*
X18912390Y-39174905D01*
X18912392Y-39174905D01*
X19003708Y-39122183D01*
X19003708Y-39122182D01*
X19003713Y-39122180D01*
X28541096Y-29584795D01*
X28595613Y-29557019D01*
X28611100Y-29555800D01*
X41250500Y-29555800D01*
X41308691Y-29574707D01*
G37*
%TD.AperFunction*%
%TA.AperFunction,Conductor*%
G36*
X70025777Y-35428500D02*
G01*
X70073327Y-35467004D01*
X70089300Y-35520925D01*
X70089300Y-37325720D01*
X70070393Y-37383911D01*
X70020893Y-37419875D01*
X69959707Y-37419875D01*
X69940806Y-37411459D01*
X69811184Y-37336623D01*
X69658457Y-37295700D01*
X69500343Y-37295700D01*
X69351180Y-37335668D01*
X69347616Y-37336623D01*
X69210684Y-37415680D01*
X69098880Y-37527484D01*
X69019823Y-37664416D01*
X68978900Y-37817144D01*
X68978900Y-37950114D01*
X68975527Y-37975736D01*
X68949500Y-38072873D01*
X68949500Y-38429844D01*
X68930593Y-38488035D01*
X68886297Y-38520218D01*
X68886822Y-38521407D01*
X68881311Y-38523839D01*
X68881093Y-38523999D01*
X68880657Y-38524129D01*
X68777235Y-38569794D01*
X68697793Y-38649236D01*
X68690564Y-38665609D01*
X68649763Y-38711204D01*
X68589954Y-38724109D01*
X68533983Y-38699395D01*
X68509436Y-38665609D01*
X68502206Y-38649236D01*
X68502206Y-38649235D01*
X68422765Y-38569794D01*
X68319991Y-38524415D01*
X68319988Y-38524414D01*
X68313179Y-38521408D01*
X68314137Y-38519236D01*
X68272319Y-38491846D01*
X68250616Y-38434638D01*
X68250500Y-38429845D01*
X68250500Y-35534200D01*
X68269407Y-35476009D01*
X68318907Y-35440045D01*
X68349500Y-35435200D01*
X69927726Y-35435200D01*
X69927727Y-35435200D01*
X69964678Y-35425299D01*
X70025777Y-35428500D01*
G37*
%TD.AperFunction*%
%TA.AperFunction,Conductor*%
G36*
X27251790Y-27071607D02*
G01*
X27287754Y-27121107D01*
X27287754Y-27182293D01*
X27263603Y-27221704D01*
X27246718Y-27238589D01*
X18500142Y-35985163D01*
X18445625Y-36012940D01*
X18385193Y-36003369D01*
X18360135Y-35985163D01*
X18322766Y-35947795D01*
X18322765Y-35947794D01*
X18219991Y-35902415D01*
X18219990Y-35902414D01*
X18219988Y-35902414D01*
X18194868Y-35899500D01*
X17305139Y-35899500D01*
X17305136Y-35899501D01*
X17280009Y-35902414D01*
X17177235Y-35947794D01*
X17097793Y-36027236D01*
X17090564Y-36043609D01*
X17049763Y-36089204D01*
X16989954Y-36102109D01*
X16933983Y-36077395D01*
X16909436Y-36043609D01*
X16902206Y-36027236D01*
X16902206Y-36027235D01*
X16822765Y-35947794D01*
X16719991Y-35902415D01*
X16719988Y-35902414D01*
X16713179Y-35899408D01*
X16714137Y-35897236D01*
X16672319Y-35869846D01*
X16650616Y-35812638D01*
X16650500Y-35807845D01*
X16650500Y-30992155D01*
X16669407Y-30933964D01*
X16713702Y-30901781D01*
X16713178Y-30900593D01*
X16718684Y-30898161D01*
X16718907Y-30898000D01*
X16719348Y-30897868D01*
X16719988Y-30897585D01*
X16719991Y-30897585D01*
X16822765Y-30852206D01*
X16902206Y-30772765D01*
X16909435Y-30756392D01*
X16950232Y-30710797D01*
X17010040Y-30697889D01*
X17066013Y-30722601D01*
X17090563Y-30756389D01*
X17097794Y-30772765D01*
X17177235Y-30852206D01*
X17280009Y-30897585D01*
X17305135Y-30900500D01*
X18194864Y-30900499D01*
X18219991Y-30897585D01*
X18322765Y-30852206D01*
X18402206Y-30772765D01*
X18447585Y-30669991D01*
X18447585Y-30669982D01*
X18448567Y-30666378D01*
X18450447Y-30663505D01*
X18450592Y-30663179D01*
X18450646Y-30663202D01*
X18482084Y-30615190D01*
X18518468Y-30596737D01*
X18606288Y-30573207D01*
X18697613Y-30520480D01*
X22136397Y-27081696D01*
X22190914Y-27053919D01*
X22206401Y-27052700D01*
X27193599Y-27052700D01*
X27251790Y-27071607D01*
G37*
%TD.AperFunction*%
%TA.AperFunction,Conductor*%
G36*
X64538690Y-30276407D02*
G01*
X64550503Y-30286496D01*
X67727503Y-33463496D01*
X67755280Y-33518013D01*
X67745709Y-33578445D01*
X67702444Y-33621710D01*
X67657499Y-33632500D01*
X67405139Y-33632500D01*
X67405136Y-33632501D01*
X67380009Y-33635414D01*
X67277233Y-33680795D01*
X67239864Y-33718164D01*
X67185347Y-33745941D01*
X67124915Y-33736369D01*
X67099857Y-33718164D01*
X66662524Y-33280831D01*
X66210613Y-32828920D01*
X66210610Y-32828918D01*
X66210609Y-32828917D01*
X66210608Y-32828916D01*
X66119291Y-32776194D01*
X66119293Y-32776194D01*
X66079770Y-32765604D01*
X66017427Y-32748900D01*
X66017425Y-32748900D01*
X43705044Y-32748900D01*
X43646853Y-32729993D01*
X43635041Y-32719904D01*
X43584018Y-32668882D01*
X43584016Y-32668880D01*
X43447084Y-32589823D01*
X43294357Y-32548900D01*
X43136243Y-32548900D01*
X42983516Y-32589823D01*
X42846584Y-32668880D01*
X42734780Y-32780684D01*
X42655723Y-32917616D01*
X42645127Y-32957162D01*
X42611802Y-33008477D01*
X42554681Y-33030403D01*
X42495580Y-33014567D01*
X42457075Y-32967017D01*
X42450500Y-32931539D01*
X42450500Y-30649155D01*
X42469407Y-30590964D01*
X42513702Y-30558781D01*
X42513178Y-30557593D01*
X42518684Y-30555161D01*
X42518907Y-30555000D01*
X42519348Y-30554868D01*
X42519988Y-30554585D01*
X42519991Y-30554585D01*
X42622765Y-30509206D01*
X42702206Y-30429765D01*
X42709435Y-30413392D01*
X42750232Y-30367797D01*
X42810040Y-30354889D01*
X42866013Y-30379601D01*
X42890563Y-30413389D01*
X42897794Y-30429765D01*
X42977235Y-30509206D01*
X43080009Y-30554585D01*
X43105135Y-30557500D01*
X43994864Y-30557499D01*
X44019991Y-30554585D01*
X44122765Y-30509206D01*
X44202206Y-30429765D01*
X44247585Y-30326991D01*
X44247585Y-30326988D01*
X44250592Y-30320179D01*
X44252763Y-30321137D01*
X44280154Y-30279319D01*
X44337362Y-30257616D01*
X44342155Y-30257500D01*
X63161073Y-30257500D01*
X64480499Y-30257500D01*
X64538690Y-30276407D01*
G37*
%TD.AperFunction*%
%TA.AperFunction,Conductor*%
G36*
X40680890Y-10676107D02*
G01*
X40692703Y-10686196D01*
X41851003Y-11844496D01*
X41878780Y-11899013D01*
X41869209Y-11959445D01*
X41825944Y-12002710D01*
X41781000Y-12013500D01*
X41605139Y-12013500D01*
X41605136Y-12013501D01*
X41580009Y-12016414D01*
X41477235Y-12061794D01*
X41397794Y-12141235D01*
X41365445Y-12214500D01*
X41352413Y-12244014D01*
X41351429Y-12247632D01*
X41349547Y-12250504D01*
X41349408Y-12250821D01*
X41349355Y-12250797D01*
X41340190Y-12264790D01*
X41332840Y-12283940D01*
X41323807Y-12289805D01*
X41317906Y-12298816D01*
X41281525Y-12317264D01*
X41241729Y-12327927D01*
X41216107Y-12331300D01*
X40332244Y-12331300D01*
X40274053Y-12312393D01*
X40262241Y-12302304D01*
X40211218Y-12251282D01*
X40211216Y-12251280D01*
X40074284Y-12172223D01*
X39921557Y-12131300D01*
X39763443Y-12131300D01*
X39610716Y-12172223D01*
X39473784Y-12251280D01*
X39361980Y-12363084D01*
X39282923Y-12500016D01*
X39242000Y-12652743D01*
X39242000Y-12810857D01*
X39282923Y-12963584D01*
X39361980Y-13100516D01*
X39473784Y-13212320D01*
X39610716Y-13291377D01*
X39763443Y-13332300D01*
X39763445Y-13332300D01*
X39921555Y-13332300D01*
X39921557Y-13332300D01*
X40074284Y-13291377D01*
X40211216Y-13212320D01*
X40246357Y-13177179D01*
X40262241Y-13161296D01*
X40316758Y-13133519D01*
X40332244Y-13132300D01*
X41265083Y-13132300D01*
X41323274Y-13151207D01*
X41355646Y-13191310D01*
X41397794Y-13286765D01*
X41477235Y-13366206D01*
X41580009Y-13411585D01*
X41580011Y-13411585D01*
X41586821Y-13414592D01*
X41585860Y-13416766D01*
X41627665Y-13444134D01*
X41649383Y-13501335D01*
X41649500Y-13506154D01*
X41649500Y-17636844D01*
X41630593Y-17695035D01*
X41586297Y-17727218D01*
X41586822Y-17728407D01*
X41581311Y-17730839D01*
X41581093Y-17730999D01*
X41580657Y-17731129D01*
X41477235Y-17776794D01*
X41397794Y-17856235D01*
X41352414Y-17959011D01*
X41349500Y-17984130D01*
X41349500Y-18873860D01*
X41349501Y-18873863D01*
X41352414Y-18898990D01*
X41377707Y-18956273D01*
X41397794Y-19001765D01*
X41477235Y-19081206D01*
X41580009Y-19126585D01*
X41580011Y-19126585D01*
X41586821Y-19129592D01*
X41585860Y-19131766D01*
X41627665Y-19159134D01*
X41649383Y-19216335D01*
X41649500Y-19221154D01*
X41649500Y-23350844D01*
X41630593Y-23409035D01*
X41586297Y-23441218D01*
X41586822Y-23442407D01*
X41581311Y-23444839D01*
X41581093Y-23444999D01*
X41580657Y-23445129D01*
X41580009Y-23445414D01*
X41580009Y-23445415D01*
X41477235Y-23490794D01*
X41397794Y-23570235D01*
X41352414Y-23673011D01*
X41349500Y-23698130D01*
X41349500Y-24587860D01*
X41349501Y-24587863D01*
X41352414Y-24612990D01*
X41369557Y-24651815D01*
X41397794Y-24715765D01*
X41477235Y-24795206D01*
X41580009Y-24840585D01*
X41605135Y-24843500D01*
X41802399Y-24843499D01*
X41860588Y-24862406D01*
X41896552Y-24911906D01*
X41896553Y-24973091D01*
X41872402Y-25012503D01*
X40662203Y-26222704D01*
X40607686Y-26250481D01*
X40592199Y-26251700D01*
X39671344Y-26251700D01*
X39613153Y-26232793D01*
X39601341Y-26222704D01*
X39550318Y-26171682D01*
X39550316Y-26171680D01*
X39413384Y-26092623D01*
X39260657Y-26051700D01*
X39102543Y-26051700D01*
X38949816Y-26092623D01*
X38816141Y-26169800D01*
X38812881Y-26171682D01*
X38761859Y-26222704D01*
X38707342Y-26250481D01*
X38691856Y-26251700D01*
X22052227Y-26251700D01*
X21946773Y-26251700D01*
X21884429Y-26268404D01*
X21844907Y-26278994D01*
X21753591Y-26331716D01*
X21753590Y-26331717D01*
X18500142Y-29585163D01*
X18445625Y-29612940D01*
X18385193Y-29603369D01*
X18360135Y-29585163D01*
X18322766Y-29547795D01*
X18322765Y-29547794D01*
X18219991Y-29502415D01*
X18219990Y-29502414D01*
X18219988Y-29502414D01*
X18194868Y-29499500D01*
X17305139Y-29499500D01*
X17305136Y-29499501D01*
X17280009Y-29502414D01*
X17177235Y-29547794D01*
X17097793Y-29627236D01*
X17090564Y-29643609D01*
X17049763Y-29689204D01*
X16989954Y-29702109D01*
X16933983Y-29677395D01*
X16909436Y-29643609D01*
X16902206Y-29627236D01*
X16902206Y-29627235D01*
X16822765Y-29547794D01*
X16719991Y-29502415D01*
X16719988Y-29502414D01*
X16713179Y-29499408D01*
X16714137Y-29497236D01*
X16672319Y-29469846D01*
X16650616Y-29412638D01*
X16650500Y-29407845D01*
X16650500Y-27270700D01*
X16669407Y-27212509D01*
X16718907Y-27176545D01*
X16780093Y-27176545D01*
X16819501Y-27200694D01*
X17497005Y-27878198D01*
X17524781Y-27932713D01*
X17526000Y-27948200D01*
X17526000Y-28020357D01*
X17566923Y-28173084D01*
X17645980Y-28310016D01*
X17757784Y-28421820D01*
X17894716Y-28500877D01*
X18047443Y-28541800D01*
X18047445Y-28541800D01*
X18205555Y-28541800D01*
X18205557Y-28541800D01*
X18358284Y-28500877D01*
X18495216Y-28421820D01*
X18607020Y-28310016D01*
X18686077Y-28173084D01*
X18727000Y-28020357D01*
X18727000Y-27862243D01*
X18686077Y-27709516D01*
X18607020Y-27572584D01*
X18495216Y-27460780D01*
X18358284Y-27381723D01*
X18205557Y-27340800D01*
X18205555Y-27340800D01*
X18133401Y-27340800D01*
X18075210Y-27321893D01*
X18063397Y-27311804D01*
X17477796Y-26726203D01*
X17450019Y-26671686D01*
X17448800Y-26656199D01*
X17448800Y-24599499D01*
X17467707Y-24541308D01*
X17517207Y-24505344D01*
X17547800Y-24500499D01*
X18194861Y-24500499D01*
X18194864Y-24500499D01*
X18219991Y-24497585D01*
X18322765Y-24452206D01*
X18402206Y-24372765D01*
X18447585Y-24269991D01*
X18447585Y-24269982D01*
X18448567Y-24266378D01*
X18450447Y-24263505D01*
X18450592Y-24263179D01*
X18450646Y-24263202D01*
X18482084Y-24215190D01*
X18518469Y-24196737D01*
X18606287Y-24173207D01*
X18687401Y-24126375D01*
X18747248Y-24113654D01*
X18803143Y-24138540D01*
X18833736Y-24191528D01*
X18835900Y-24212112D01*
X18835900Y-24362157D01*
X18876823Y-24514884D01*
X18955880Y-24651816D01*
X19067684Y-24763620D01*
X19204616Y-24842677D01*
X19357343Y-24883600D01*
X19357345Y-24883600D01*
X19515455Y-24883600D01*
X19515457Y-24883600D01*
X19668184Y-24842677D01*
X19805116Y-24763620D01*
X19916920Y-24651816D01*
X19995977Y-24514884D01*
X20036900Y-24362157D01*
X20036900Y-24289999D01*
X20055807Y-24231808D01*
X20065890Y-24220001D01*
X21842410Y-22443481D01*
X21842413Y-22443480D01*
X21916980Y-22368913D01*
X21969707Y-22277587D01*
X21970218Y-22275680D01*
X21997001Y-22175727D01*
X21997001Y-22070273D01*
X21997001Y-22064211D01*
X21997000Y-22064193D01*
X21997000Y-21207543D01*
X30365900Y-21207543D01*
X30365900Y-21365657D01*
X30406823Y-21518384D01*
X30485880Y-21655316D01*
X30597684Y-21767120D01*
X30734616Y-21846177D01*
X30887343Y-21887100D01*
X30887345Y-21887100D01*
X31045455Y-21887100D01*
X31045457Y-21887100D01*
X31198184Y-21846177D01*
X31335116Y-21767120D01*
X31446920Y-21655316D01*
X31525977Y-21518384D01*
X31566900Y-21365657D01*
X31566900Y-21207543D01*
X31525977Y-21054816D01*
X31446920Y-20917884D01*
X31428220Y-20899184D01*
X31395896Y-20866859D01*
X31368119Y-20812342D01*
X31366900Y-20796856D01*
X31366900Y-18586801D01*
X31385807Y-18528610D01*
X31395896Y-18516797D01*
X33699797Y-16212896D01*
X33754314Y-16185119D01*
X33769801Y-16183900D01*
X33841955Y-16183900D01*
X33841957Y-16183900D01*
X33994684Y-16142977D01*
X34131616Y-16063920D01*
X34243420Y-15952116D01*
X34322477Y-15815184D01*
X34363400Y-15662457D01*
X34363400Y-15504343D01*
X34322477Y-15351616D01*
X34243420Y-15214684D01*
X34131616Y-15102880D01*
X33994684Y-15023823D01*
X33841957Y-14982900D01*
X33683843Y-14982900D01*
X33531116Y-15023823D01*
X33394184Y-15102880D01*
X33282380Y-15214684D01*
X33203323Y-15351616D01*
X33168718Y-15480766D01*
X33162400Y-15504344D01*
X33162400Y-15576499D01*
X33143493Y-15634690D01*
X33133404Y-15646503D01*
X30645916Y-18133991D01*
X30593194Y-18225308D01*
X30593192Y-18225312D01*
X30584892Y-18256286D01*
X30584893Y-18256287D01*
X30565900Y-18327173D01*
X30565900Y-20796856D01*
X30546993Y-20855047D01*
X30536904Y-20866859D01*
X30485882Y-20917881D01*
X30485880Y-20917883D01*
X30485880Y-20917884D01*
X30406823Y-21054816D01*
X30365900Y-21207543D01*
X21997000Y-21207543D01*
X21997000Y-20610343D01*
X22015907Y-20552152D01*
X22025990Y-20540345D01*
X22077020Y-20489316D01*
X22156077Y-20352384D01*
X22197000Y-20199657D01*
X22197000Y-20041543D01*
X22156077Y-19888816D01*
X22077020Y-19751884D01*
X21965216Y-19640080D01*
X21828284Y-19561023D01*
X21675557Y-19520100D01*
X21675555Y-19520100D01*
X21669289Y-19518421D01*
X21669808Y-19516483D01*
X21622865Y-19494087D01*
X21593674Y-19440314D01*
X21601666Y-19379653D01*
X21621011Y-19352280D01*
X30087097Y-10886196D01*
X30141614Y-10858419D01*
X30157101Y-10857200D01*
X30229255Y-10857200D01*
X30229257Y-10857200D01*
X30381984Y-10816277D01*
X30518916Y-10737220D01*
X30544429Y-10711706D01*
X30569941Y-10686196D01*
X30624458Y-10658419D01*
X30639944Y-10657200D01*
X40622699Y-10657200D01*
X40680890Y-10676107D01*
G37*
%TD.AperFunction*%
%TA.AperFunction,Conductor*%
G36*
X61286690Y-24682307D02*
G01*
X61298503Y-24692396D01*
X63138785Y-26532678D01*
X63166562Y-26587195D01*
X63156991Y-26647627D01*
X63113726Y-26690892D01*
X63094405Y-26698308D01*
X62982016Y-26728423D01*
X62845084Y-26807480D01*
X62733280Y-26919284D01*
X62654223Y-27056216D01*
X62613300Y-27208943D01*
X62613300Y-27367057D01*
X62654223Y-27519784D01*
X62733280Y-27656716D01*
X62784305Y-27707741D01*
X62812081Y-27762256D01*
X62813300Y-27777743D01*
X62813300Y-29357500D01*
X62794393Y-29415691D01*
X62744893Y-29451655D01*
X62714300Y-29456500D01*
X55286407Y-29456500D01*
X55228216Y-29437593D01*
X55192252Y-29388093D01*
X55192252Y-29326907D01*
X55194943Y-29319614D01*
X55195576Y-29318085D01*
X55195577Y-29318084D01*
X55236500Y-29165357D01*
X55236500Y-29007243D01*
X55195577Y-28854516D01*
X55116520Y-28717584D01*
X55004716Y-28605780D01*
X54867784Y-28526723D01*
X54715057Y-28485800D01*
X54556943Y-28485800D01*
X54404216Y-28526723D01*
X54267281Y-28605782D01*
X54216259Y-28656804D01*
X54161742Y-28684581D01*
X54146256Y-28685800D01*
X47995400Y-28685800D01*
X47937209Y-28666893D01*
X47925396Y-28656804D01*
X46345996Y-27077403D01*
X46318219Y-27022886D01*
X46317000Y-27007399D01*
X46317000Y-25393243D01*
X46335907Y-25335052D01*
X46345990Y-25323245D01*
X46397020Y-25272216D01*
X46476077Y-25135284D01*
X46517000Y-24982557D01*
X46517000Y-24824443D01*
X46507241Y-24788022D01*
X46510444Y-24726921D01*
X46548949Y-24679371D01*
X46602868Y-24663400D01*
X61228499Y-24663400D01*
X61286690Y-24682307D01*
G37*
%TD.AperFunction*%
%TA.AperFunction,Conductor*%
G36*
X67408691Y-13133407D02*
G01*
X67444655Y-13182907D01*
X67449500Y-13213500D01*
X67449500Y-13985844D01*
X67430593Y-14044035D01*
X67386297Y-14076218D01*
X67386822Y-14077407D01*
X67381311Y-14079839D01*
X67381093Y-14079999D01*
X67380657Y-14080129D01*
X67380009Y-14080414D01*
X67380009Y-14080415D01*
X67337501Y-14099184D01*
X67277235Y-14125794D01*
X67197794Y-14205235D01*
X67152414Y-14308011D01*
X67149500Y-14333130D01*
X67149500Y-15222860D01*
X67149501Y-15222863D01*
X67152414Y-15247990D01*
X67175821Y-15301000D01*
X67197794Y-15350765D01*
X67277235Y-15430206D01*
X67380009Y-15475585D01*
X67380011Y-15475585D01*
X67386821Y-15478592D01*
X67385860Y-15480766D01*
X67427665Y-15508134D01*
X67449383Y-15565335D01*
X67449500Y-15570154D01*
X67449500Y-18874844D01*
X67430593Y-18933035D01*
X67386297Y-18965218D01*
X67386822Y-18966407D01*
X67381311Y-18968839D01*
X67381093Y-18968999D01*
X67380657Y-18969129D01*
X67277235Y-19014794D01*
X67197794Y-19094235D01*
X67152414Y-19197011D01*
X67149500Y-19222130D01*
X67149500Y-20111860D01*
X67149501Y-20111863D01*
X67152414Y-20136990D01*
X67177317Y-20193389D01*
X67197794Y-20239765D01*
X67277235Y-20319206D01*
X67380009Y-20364585D01*
X67380011Y-20364585D01*
X67386821Y-20367592D01*
X67385860Y-20369766D01*
X67427665Y-20397134D01*
X67449383Y-20454335D01*
X67449500Y-20459154D01*
X67449500Y-23763844D01*
X67430593Y-23822035D01*
X67386297Y-23854218D01*
X67386822Y-23855407D01*
X67381311Y-23857839D01*
X67381093Y-23857999D01*
X67380657Y-23858129D01*
X67277235Y-23903794D01*
X67197794Y-23983235D01*
X67152414Y-24086011D01*
X67149500Y-24111130D01*
X67149500Y-25000860D01*
X67149501Y-25000863D01*
X67152414Y-25025990D01*
X67177756Y-25083385D01*
X67197794Y-25128765D01*
X67277235Y-25208206D01*
X67380009Y-25253585D01*
X67380011Y-25253585D01*
X67386821Y-25256592D01*
X67385860Y-25258766D01*
X67427665Y-25286134D01*
X67449383Y-25343335D01*
X67449500Y-25348154D01*
X67449500Y-28651844D01*
X67430593Y-28710035D01*
X67386297Y-28742218D01*
X67386822Y-28743407D01*
X67381311Y-28745839D01*
X67381093Y-28745999D01*
X67380657Y-28746129D01*
X67380009Y-28746414D01*
X67380009Y-28746415D01*
X67277235Y-28791794D01*
X67197794Y-28871235D01*
X67152414Y-28974011D01*
X67149500Y-28999130D01*
X67149500Y-29171600D01*
X67130593Y-29229791D01*
X67081093Y-29265755D01*
X67019907Y-29265755D01*
X66980496Y-29241604D01*
X64423099Y-26684207D01*
X61681313Y-23942420D01*
X61681310Y-23942418D01*
X61681308Y-23942416D01*
X61589991Y-23889694D01*
X61589993Y-23889694D01*
X61542011Y-23876838D01*
X61488127Y-23862400D01*
X61488125Y-23862400D01*
X44760700Y-23862400D01*
X44702509Y-23843493D01*
X44690702Y-23833409D01*
X44679813Y-23822520D01*
X44679810Y-23822518D01*
X44679808Y-23822516D01*
X44588491Y-23769794D01*
X44588493Y-23769794D01*
X44548970Y-23759204D01*
X44486627Y-23742500D01*
X44486625Y-23742500D01*
X44342155Y-23742500D01*
X44283964Y-23723593D01*
X44251397Y-23683047D01*
X44247788Y-23674766D01*
X44247585Y-23673009D01*
X44204732Y-23575955D01*
X44201796Y-23545721D01*
X44198717Y-23515527D01*
X44198843Y-23515295D01*
X44198820Y-23515056D01*
X44200919Y-23511486D01*
X44225484Y-23466406D01*
X45794496Y-21897396D01*
X45849013Y-21869619D01*
X45864500Y-21868400D01*
X45936655Y-21868400D01*
X45936657Y-21868400D01*
X46089384Y-21827477D01*
X46226316Y-21748420D01*
X46338120Y-21636616D01*
X46417177Y-21499684D01*
X46458100Y-21346957D01*
X46458100Y-21188843D01*
X46417177Y-21036116D01*
X46338120Y-20899184D01*
X46226316Y-20787380D01*
X46089384Y-20708323D01*
X45936657Y-20667400D01*
X45778543Y-20667400D01*
X45625816Y-20708323D01*
X45488884Y-20787380D01*
X45377080Y-20899184D01*
X45298023Y-21036116D01*
X45257100Y-21188844D01*
X45257100Y-21260999D01*
X45238193Y-21319190D01*
X45228104Y-21331003D01*
X43544762Y-23014344D01*
X43502407Y-23039401D01*
X43497597Y-23040800D01*
X43497273Y-23040800D01*
X43395413Y-23068093D01*
X43386937Y-23072986D01*
X43375449Y-23076328D01*
X43356242Y-23075730D01*
X43337447Y-23079724D01*
X43326390Y-23074800D01*
X43314294Y-23074424D01*
X43299108Y-23062652D01*
X43281552Y-23054835D01*
X43275500Y-23044352D01*
X43265936Y-23036938D01*
X43260569Y-23018487D01*
X43250962Y-23001845D01*
X43248800Y-22981267D01*
X43248800Y-20039299D01*
X43267707Y-19981108D01*
X43277790Y-19969301D01*
X43795910Y-19451181D01*
X43795913Y-19451180D01*
X43870480Y-19376613D01*
X43923207Y-19285287D01*
X43946738Y-19197469D01*
X43980060Y-19146159D01*
X44016382Y-19127566D01*
X44019986Y-19126585D01*
X44019991Y-19126585D01*
X44122765Y-19081206D01*
X44202206Y-19001765D01*
X44247585Y-18898991D01*
X44250500Y-18873865D01*
X44250499Y-17984136D01*
X44247585Y-17959009D01*
X44202206Y-17856235D01*
X44122765Y-17776794D01*
X44019991Y-17731415D01*
X44019987Y-17731414D01*
X44016369Y-17730430D01*
X44013493Y-17728547D01*
X44013179Y-17728408D01*
X44013202Y-17728355D01*
X43965184Y-17696908D01*
X43946736Y-17660528D01*
X43923207Y-17572713D01*
X43870480Y-17481387D01*
X43795913Y-17406820D01*
X43795910Y-17406818D01*
X43704590Y-17354094D01*
X43704583Y-17354091D01*
X43662884Y-17342918D01*
X43611570Y-17309594D01*
X43592882Y-17272918D01*
X43562577Y-17159816D01*
X43483520Y-17022884D01*
X43371716Y-16911080D01*
X43234784Y-16832023D01*
X43082057Y-16791100D01*
X42923943Y-16791100D01*
X42771216Y-16832023D01*
X42634284Y-16911080D01*
X42619501Y-16925862D01*
X42564987Y-16953638D01*
X42504555Y-16944067D01*
X42461290Y-16900802D01*
X42450500Y-16855857D01*
X42450500Y-13506155D01*
X42469407Y-13447964D01*
X42513702Y-13415781D01*
X42513178Y-13414593D01*
X42518684Y-13412161D01*
X42518907Y-13412000D01*
X42519348Y-13411868D01*
X42519988Y-13411585D01*
X42519991Y-13411585D01*
X42622765Y-13366206D01*
X42702206Y-13286765D01*
X42709435Y-13270392D01*
X42750232Y-13224797D01*
X42810040Y-13211889D01*
X42866013Y-13236601D01*
X42890563Y-13270389D01*
X42897794Y-13286765D01*
X42977235Y-13366206D01*
X43080009Y-13411585D01*
X43105135Y-13414500D01*
X43994864Y-13414499D01*
X44019991Y-13411585D01*
X44122765Y-13366206D01*
X44202206Y-13286765D01*
X44247585Y-13183991D01*
X44247585Y-13183988D01*
X44250592Y-13177179D01*
X44252763Y-13178137D01*
X44280154Y-13136319D01*
X44337362Y-13114616D01*
X44342155Y-13114500D01*
X67350500Y-13114500D01*
X67408691Y-13133407D01*
G37*
%TD.AperFunction*%
%TA.AperFunction,Conductor*%
G36*
X45256884Y-24672092D02*
G01*
X45284051Y-24679371D01*
X45285752Y-24681471D01*
X45288323Y-24682307D01*
X45304859Y-24705068D01*
X45322556Y-24726921D01*
X45322697Y-24729619D01*
X45324287Y-24731807D01*
X45325758Y-24788021D01*
X45316000Y-24824443D01*
X45316000Y-24982557D01*
X45356923Y-25135284D01*
X45435980Y-25272216D01*
X45487005Y-25323241D01*
X45514781Y-25377756D01*
X45516000Y-25393243D01*
X45516000Y-26714800D01*
X45497093Y-26772991D01*
X45447593Y-26808955D01*
X45417000Y-26813800D01*
X42928201Y-26813800D01*
X42870010Y-26794893D01*
X42834046Y-26745393D01*
X42834046Y-26684207D01*
X42858197Y-26644796D01*
X44810597Y-24692396D01*
X44865114Y-24664619D01*
X44880601Y-24663400D01*
X45230132Y-24663400D01*
X45256884Y-24672092D01*
G37*
%TD.AperFunction*%
%TA.AperFunction,Conductor*%
G36*
X29545844Y-9946607D02*
G01*
X29581808Y-9996107D01*
X29583279Y-10052320D01*
X29570974Y-10098247D01*
X29551152Y-10172222D01*
X29551151Y-10172224D01*
X29549700Y-10177643D01*
X29549700Y-10250712D01*
X29549683Y-10251631D01*
X29539981Y-10279709D01*
X29530793Y-10307990D01*
X29529814Y-10309135D01*
X29529702Y-10309462D01*
X29529289Y-10309749D01*
X29520704Y-10319803D01*
X18131216Y-21709291D01*
X18078493Y-21800611D01*
X18078492Y-21800611D01*
X18078493Y-21800612D01*
X18051200Y-21902473D01*
X18051200Y-23000500D01*
X18032293Y-23058691D01*
X17982793Y-23094655D01*
X17952200Y-23099500D01*
X17547800Y-23099500D01*
X17489609Y-23080593D01*
X17453645Y-23031093D01*
X17448800Y-23000500D01*
X17448800Y-21551600D01*
X17467707Y-21493409D01*
X17477790Y-21481602D01*
X23310080Y-15649313D01*
X23318523Y-15634690D01*
X23362805Y-15557992D01*
X23362805Y-15557990D01*
X23362807Y-15557988D01*
X23390100Y-15456127D01*
X23390100Y-15350673D01*
X23390100Y-12445573D01*
X23370202Y-12371311D01*
X23370202Y-12371310D01*
X23370202Y-12371309D01*
X23362807Y-12343712D01*
X23362805Y-12343708D01*
X23310083Y-12252391D01*
X23310081Y-12252389D01*
X23310080Y-12252387D01*
X22318013Y-11260320D01*
X22318010Y-11260318D01*
X22318008Y-11260316D01*
X22311066Y-11256308D01*
X22274833Y-11220073D01*
X22270222Y-11212087D01*
X22270221Y-11212086D01*
X22270220Y-11212084D01*
X22158416Y-11100280D01*
X22021484Y-11021223D01*
X21868757Y-10980300D01*
X21710643Y-10980300D01*
X21557916Y-11021223D01*
X21449453Y-11083844D01*
X21420981Y-11100282D01*
X21369959Y-11151304D01*
X21315442Y-11179081D01*
X21299956Y-11180300D01*
X20653700Y-11180300D01*
X20595509Y-11161393D01*
X20559545Y-11111893D01*
X20556109Y-11090202D01*
X20555547Y-11090277D01*
X20554700Y-11083845D01*
X20554700Y-11083844D01*
X20554700Y-11083843D01*
X20513777Y-10931116D01*
X20434720Y-10794184D01*
X20322916Y-10682380D01*
X20185984Y-10603323D01*
X20033257Y-10562400D01*
X19875143Y-10562400D01*
X19722416Y-10603323D01*
X19585484Y-10682380D01*
X19473680Y-10794184D01*
X19394623Y-10931116D01*
X19353700Y-11083843D01*
X19353700Y-11241957D01*
X19394623Y-11394684D01*
X19473680Y-11531616D01*
X19585484Y-11643420D01*
X19722416Y-11722477D01*
X19875143Y-11763400D01*
X19947299Y-11763400D01*
X20005490Y-11782307D01*
X20017302Y-11792396D01*
X20126186Y-11901279D01*
X20126191Y-11901283D01*
X20217508Y-11954005D01*
X20217506Y-11954005D01*
X20217510Y-11954006D01*
X20217512Y-11954007D01*
X20319373Y-11981300D01*
X20424827Y-11981300D01*
X21299956Y-11981300D01*
X21301755Y-11981884D01*
X21303576Y-11981366D01*
X21313587Y-11985729D01*
X21358147Y-12000207D01*
X21361036Y-12002389D01*
X21365743Y-12006079D01*
X21420984Y-12061320D01*
X21478738Y-12094664D01*
X21484255Y-12098989D01*
X21497602Y-12118848D01*
X21513616Y-12136633D01*
X21514368Y-12143794D01*
X21518385Y-12149770D01*
X21517510Y-12173681D01*
X21520012Y-12197483D01*
X21516411Y-12203719D01*
X21516148Y-12210915D01*
X21501384Y-12229747D01*
X21489419Y-12250471D01*
X21482840Y-12253399D01*
X21478398Y-12259067D01*
X21455383Y-12265624D01*
X21433523Y-12275358D01*
X21423175Y-12275900D01*
X18380201Y-12275900D01*
X18322010Y-12256993D01*
X18310197Y-12246904D01*
X17932796Y-11869503D01*
X17905019Y-11814986D01*
X17914590Y-11754554D01*
X17957855Y-11711289D01*
X18002800Y-11700499D01*
X18194861Y-11700499D01*
X18194864Y-11700499D01*
X18219991Y-11697585D01*
X18322765Y-11652206D01*
X18402206Y-11572765D01*
X18447585Y-11469991D01*
X18450500Y-11444865D01*
X18450499Y-10555136D01*
X18447585Y-10530009D01*
X18402206Y-10427235D01*
X18364833Y-10389862D01*
X18357715Y-10375891D01*
X18346630Y-10364806D01*
X18344177Y-10349320D01*
X18337058Y-10335348D01*
X18339510Y-10319860D01*
X18337058Y-10304374D01*
X18344176Y-10290403D01*
X18346629Y-10274916D01*
X18364835Y-10249858D01*
X18484427Y-10130265D01*
X18528805Y-10104642D01*
X18595484Y-10086777D01*
X18732416Y-10007720D01*
X18767281Y-9972855D01*
X18783441Y-9956696D01*
X18837958Y-9928919D01*
X18853444Y-9927700D01*
X29487653Y-9927700D01*
X29545844Y-9946607D01*
G37*
%TD.AperFunction*%
%TA.AperFunction,Conductor*%
G36*
X67108691Y-9557507D02*
G01*
X67144655Y-9607007D01*
X67149500Y-9637600D01*
X67149500Y-10333860D01*
X67149501Y-10333863D01*
X67152414Y-10358990D01*
X67159877Y-10375891D01*
X67197794Y-10461765D01*
X67277235Y-10541206D01*
X67380009Y-10586585D01*
X67380011Y-10586585D01*
X67386821Y-10589592D01*
X67385860Y-10591766D01*
X67427665Y-10619134D01*
X67449383Y-10676335D01*
X67449500Y-10681154D01*
X67449500Y-12214500D01*
X67430593Y-12272691D01*
X67381093Y-12308655D01*
X67350500Y-12313500D01*
X44342155Y-12313500D01*
X44283964Y-12294593D01*
X44251781Y-12250297D01*
X44250593Y-12250822D01*
X44248161Y-12245315D01*
X44248000Y-12245093D01*
X44247868Y-12244651D01*
X44243040Y-12233716D01*
X44202206Y-12141235D01*
X44122765Y-12061794D01*
X44019991Y-12016415D01*
X44019990Y-12016414D01*
X44019988Y-12016414D01*
X43994869Y-12013500D01*
X43994865Y-12013500D01*
X43193801Y-12013500D01*
X43135610Y-11994593D01*
X43123797Y-11984504D01*
X42180455Y-11041162D01*
X41227094Y-10087801D01*
X41199319Y-10033287D01*
X41208890Y-9972855D01*
X41252155Y-9929590D01*
X41297100Y-9918800D01*
X41722525Y-9918800D01*
X41722527Y-9918800D01*
X41824388Y-9891507D01*
X41824390Y-9891505D01*
X41824392Y-9891505D01*
X41915708Y-9838783D01*
X41915708Y-9838782D01*
X41915713Y-9838780D01*
X42116893Y-9637600D01*
X42186898Y-9567596D01*
X42241414Y-9539819D01*
X42256901Y-9538600D01*
X67050500Y-9538600D01*
X67108691Y-9557507D01*
G37*
%TD.AperFunction*%
%TA.AperFunction,Conductor*%
G36*
X22447847Y-4855607D02*
G01*
X22459659Y-4865696D01*
X22510681Y-4916717D01*
X22510684Y-4916720D01*
X22647616Y-4995777D01*
X22800343Y-5036700D01*
X22800345Y-5036700D01*
X22958455Y-5036700D01*
X22958457Y-5036700D01*
X23111184Y-4995777D01*
X23248116Y-4916720D01*
X23273629Y-4891206D01*
X23299141Y-4865696D01*
X23353658Y-4837919D01*
X23369144Y-4836700D01*
X40516199Y-4836700D01*
X40574390Y-4855607D01*
X40586203Y-4865696D01*
X41282987Y-5562480D01*
X41851004Y-6130496D01*
X41878781Y-6185013D01*
X41869210Y-6245445D01*
X41825945Y-6288710D01*
X41781001Y-6299500D01*
X41605139Y-6299500D01*
X41605136Y-6299501D01*
X41580009Y-6302414D01*
X41477235Y-6347794D01*
X41397794Y-6427235D01*
X41352414Y-6530011D01*
X41349500Y-6555130D01*
X41349500Y-7444860D01*
X41349501Y-7444863D01*
X41352414Y-7469990D01*
X41377756Y-7527385D01*
X41397794Y-7572765D01*
X41477235Y-7652206D01*
X41580009Y-7697585D01*
X41580011Y-7697585D01*
X41586821Y-7700592D01*
X41585860Y-7702766D01*
X41627665Y-7730134D01*
X41649383Y-7787335D01*
X41649500Y-7792154D01*
X41649500Y-8931199D01*
X41647031Y-8938796D01*
X41648281Y-8946686D01*
X41637756Y-8967341D01*
X41630593Y-8989390D01*
X41620504Y-9001203D01*
X41532903Y-9088804D01*
X41478386Y-9116581D01*
X41462899Y-9117800D01*
X39719644Y-9117800D01*
X39661453Y-9098893D01*
X39649641Y-9088804D01*
X39598618Y-9037782D01*
X39598616Y-9037780D01*
X39461684Y-8958723D01*
X39308957Y-8917800D01*
X39150843Y-8917800D01*
X39043039Y-8946686D01*
X38998116Y-8958723D01*
X38861181Y-9037782D01*
X38801259Y-9097704D01*
X38746742Y-9125481D01*
X38731256Y-9126700D01*
X18853444Y-9126700D01*
X18795253Y-9107793D01*
X18783441Y-9097704D01*
X18732418Y-9046682D01*
X18732416Y-9046680D01*
X18595484Y-8967623D01*
X18442757Y-8926700D01*
X18284643Y-8926700D01*
X18131916Y-8967623D01*
X17994984Y-9046680D01*
X17883180Y-9158484D01*
X17804123Y-9295416D01*
X17785507Y-9364894D01*
X17763200Y-9448144D01*
X17763200Y-9606256D01*
X17772170Y-9639734D01*
X17768967Y-9700835D01*
X17746547Y-9735359D01*
X17429520Y-10052386D01*
X17429516Y-10052391D01*
X17414878Y-10077745D01*
X17369408Y-10118685D01*
X17308557Y-10125079D01*
X17259139Y-10098247D01*
X16997184Y-9836292D01*
X16578513Y-9417620D01*
X16578510Y-9417618D01*
X16578508Y-9417616D01*
X16487191Y-9364894D01*
X16487193Y-9364894D01*
X16447670Y-9354304D01*
X16385327Y-9337600D01*
X16385325Y-9337600D01*
X9652101Y-9337600D01*
X9593910Y-9318693D01*
X9557946Y-9269193D01*
X9557946Y-9208007D01*
X9582097Y-9168596D01*
X10664750Y-8085943D01*
X24249500Y-8085943D01*
X24249500Y-8244057D01*
X24290423Y-8396784D01*
X24369480Y-8533716D01*
X24481284Y-8645520D01*
X24618216Y-8724577D01*
X24770943Y-8765500D01*
X24770945Y-8765500D01*
X24929055Y-8765500D01*
X24929057Y-8765500D01*
X25081784Y-8724577D01*
X25218716Y-8645520D01*
X25244229Y-8620006D01*
X25269741Y-8594496D01*
X25324258Y-8566719D01*
X25339744Y-8565500D01*
X38758725Y-8565500D01*
X38758727Y-8565500D01*
X38860588Y-8538207D01*
X38860590Y-8538205D01*
X38860592Y-8538205D01*
X38951908Y-8485483D01*
X38951908Y-8485482D01*
X38951913Y-8485480D01*
X39871797Y-7565596D01*
X39926314Y-7537819D01*
X39941801Y-7536600D01*
X40013955Y-7536600D01*
X40013957Y-7536600D01*
X40166684Y-7495677D01*
X40303616Y-7416620D01*
X40415420Y-7304816D01*
X40494477Y-7167884D01*
X40535400Y-7015157D01*
X40535400Y-6857043D01*
X40494477Y-6704316D01*
X40415420Y-6567384D01*
X40303616Y-6455580D01*
X40166684Y-6376523D01*
X40013957Y-6335600D01*
X39855843Y-6335600D01*
X39703116Y-6376523D01*
X39566184Y-6455580D01*
X39454380Y-6567384D01*
X39375323Y-6704316D01*
X39337096Y-6846984D01*
X39334400Y-6857044D01*
X39334400Y-6929199D01*
X39315493Y-6987390D01*
X39305404Y-6999203D01*
X38569103Y-7735504D01*
X38514586Y-7763281D01*
X38499099Y-7764500D01*
X25339744Y-7764500D01*
X25281553Y-7745593D01*
X25269741Y-7735504D01*
X25218718Y-7684482D01*
X25218716Y-7684480D01*
X25081784Y-7605423D01*
X24929057Y-7564500D01*
X24770943Y-7564500D01*
X24618216Y-7605423D01*
X24481284Y-7684480D01*
X24369480Y-7796284D01*
X24290423Y-7933216D01*
X24249500Y-8085943D01*
X10664750Y-8085943D01*
X11274797Y-7475896D01*
X11329314Y-7448119D01*
X11344801Y-7446900D01*
X19065356Y-7446900D01*
X19123547Y-7465807D01*
X19135359Y-7475896D01*
X19155140Y-7495676D01*
X19170184Y-7510720D01*
X19307116Y-7589777D01*
X19459843Y-7630700D01*
X19459845Y-7630700D01*
X19617955Y-7630700D01*
X19617957Y-7630700D01*
X19770684Y-7589777D01*
X19907616Y-7510720D01*
X20019420Y-7398916D01*
X20098477Y-7261984D01*
X20139400Y-7109257D01*
X20139400Y-6951143D01*
X20134357Y-6932322D01*
X20137560Y-6871221D01*
X20176066Y-6823671D01*
X20229984Y-6807700D01*
X33731200Y-6807700D01*
X33789391Y-6826607D01*
X33825355Y-6876107D01*
X33830200Y-6906700D01*
X33830200Y-6912957D01*
X33871123Y-7065684D01*
X33950180Y-7202616D01*
X34061984Y-7314420D01*
X34198916Y-7393477D01*
X34351643Y-7434400D01*
X34351645Y-7434400D01*
X34509755Y-7434400D01*
X34509757Y-7434400D01*
X34662484Y-7393477D01*
X34799416Y-7314420D01*
X34911220Y-7202616D01*
X34990277Y-7065684D01*
X35031200Y-6912957D01*
X35031200Y-6754843D01*
X34990277Y-6602116D01*
X34911220Y-6465184D01*
X34799416Y-6353380D01*
X34662484Y-6274323D01*
X34509757Y-6233400D01*
X34509755Y-6233400D01*
X34437601Y-6233400D01*
X34379410Y-6214493D01*
X34367598Y-6204404D01*
X34249913Y-6086720D01*
X34249908Y-6086716D01*
X34158591Y-6033994D01*
X34158593Y-6033994D01*
X34119070Y-6023404D01*
X34056727Y-6006700D01*
X34056725Y-6006700D01*
X17437301Y-6006700D01*
X17379110Y-5987793D01*
X17343146Y-5938293D01*
X17343146Y-5877107D01*
X17367297Y-5837696D01*
X18339297Y-4865696D01*
X18393814Y-4837919D01*
X18409301Y-4836700D01*
X22389656Y-4836700D01*
X22447847Y-4855607D01*
G37*
%TD.AperFunction*%
%TA.AperFunction,Conductor*%
G36*
X69754591Y-5719406D02*
G01*
X69790555Y-5768906D01*
X69795400Y-5799499D01*
X69795400Y-9089500D01*
X69776493Y-9147691D01*
X69726993Y-9183655D01*
X69696400Y-9188500D01*
X68987901Y-9188500D01*
X68929710Y-9169593D01*
X68917897Y-9159504D01*
X68894211Y-9135818D01*
X68894211Y-9135817D01*
X68576013Y-8817620D01*
X68576008Y-8817616D01*
X68484691Y-8764894D01*
X68484693Y-8764894D01*
X68445170Y-8754304D01*
X68382827Y-8737600D01*
X68382825Y-8737600D01*
X42549500Y-8737600D01*
X42491309Y-8718693D01*
X42455345Y-8669193D01*
X42450500Y-8638600D01*
X42450500Y-7792155D01*
X42469407Y-7733964D01*
X42513702Y-7701781D01*
X42513178Y-7700593D01*
X42518684Y-7698161D01*
X42518907Y-7698000D01*
X42519348Y-7697868D01*
X42519988Y-7697585D01*
X42519991Y-7697585D01*
X42622765Y-7652206D01*
X42702206Y-7572765D01*
X42709435Y-7556392D01*
X42750232Y-7510797D01*
X42810040Y-7497889D01*
X42866013Y-7522601D01*
X42890563Y-7556389D01*
X42897793Y-7572763D01*
X42897794Y-7572765D01*
X42977235Y-7652206D01*
X43080009Y-7697585D01*
X43105135Y-7700500D01*
X43994864Y-7700499D01*
X44019991Y-7697585D01*
X44122765Y-7652206D01*
X44202206Y-7572765D01*
X44247585Y-7469991D01*
X44247585Y-7469982D01*
X44248567Y-7466378D01*
X44250447Y-7463505D01*
X44250592Y-7463179D01*
X44250646Y-7463202D01*
X44282084Y-7415190D01*
X44318468Y-7396737D01*
X44406288Y-7373207D01*
X44497613Y-7320480D01*
X44738198Y-7079894D01*
X44792713Y-7052119D01*
X44853145Y-7061690D01*
X44896410Y-7104955D01*
X44907200Y-7149900D01*
X44907200Y-7294757D01*
X44948123Y-7447484D01*
X45027180Y-7584416D01*
X45138984Y-7696220D01*
X45275916Y-7775277D01*
X45428643Y-7816200D01*
X45428645Y-7816200D01*
X45586755Y-7816200D01*
X45586757Y-7816200D01*
X45739484Y-7775277D01*
X45876416Y-7696220D01*
X45901929Y-7670706D01*
X45927441Y-7645196D01*
X45934557Y-7641570D01*
X45939253Y-7635107D01*
X45961304Y-7627942D01*
X45981958Y-7617419D01*
X45997444Y-7616200D01*
X46194100Y-7616200D01*
X46252291Y-7635107D01*
X46288255Y-7684607D01*
X46293100Y-7715200D01*
X46293100Y-7851957D01*
X46334023Y-8004684D01*
X46413080Y-8141616D01*
X46524884Y-8253420D01*
X46661816Y-8332477D01*
X46814543Y-8373400D01*
X46814545Y-8373400D01*
X46972655Y-8373400D01*
X46972657Y-8373400D01*
X47125384Y-8332477D01*
X47262316Y-8253420D01*
X47374120Y-8141616D01*
X47453177Y-8004684D01*
X47494100Y-7851957D01*
X47494100Y-7715200D01*
X47513007Y-7657009D01*
X47562507Y-7621045D01*
X47593100Y-7616200D01*
X67187025Y-7616200D01*
X67187027Y-7616200D01*
X67288888Y-7588907D01*
X67288890Y-7588905D01*
X67288892Y-7588905D01*
X67380208Y-7536183D01*
X67380208Y-7536182D01*
X67380213Y-7536180D01*
X69186897Y-5729494D01*
X69241414Y-5701718D01*
X69256901Y-5700499D01*
X69696400Y-5700499D01*
X69754591Y-5719406D01*
G37*
%TD.AperFunction*%
%TA.AperFunction,Conductor*%
G36*
X63080547Y-4245007D02*
G01*
X63092359Y-4255096D01*
X63131771Y-4294507D01*
X63143384Y-4306120D01*
X63280316Y-4385177D01*
X63353824Y-4404873D01*
X63405139Y-4438197D01*
X63427065Y-4495319D01*
X63411229Y-4554419D01*
X63363679Y-4592924D01*
X63328201Y-4599500D01*
X46304427Y-4599500D01*
X46198973Y-4599500D01*
X46136629Y-4616204D01*
X46097107Y-4626794D01*
X46005791Y-4679516D01*
X46005790Y-4679517D01*
X44300142Y-6385163D01*
X44245625Y-6412940D01*
X44185193Y-6403369D01*
X44160135Y-6385163D01*
X44122766Y-6347795D01*
X44122765Y-6347794D01*
X44019991Y-6302415D01*
X44019990Y-6302414D01*
X44019988Y-6302414D01*
X43994869Y-6299500D01*
X43994865Y-6299500D01*
X43193801Y-6299500D01*
X43186203Y-6297031D01*
X43178315Y-6298281D01*
X43157659Y-6287757D01*
X43135610Y-6280593D01*
X43123798Y-6270505D01*
X43094213Y-6240920D01*
X43094210Y-6240918D01*
X41248397Y-4395104D01*
X41220620Y-4340587D01*
X41230191Y-4280155D01*
X41273456Y-4236890D01*
X41318401Y-4226100D01*
X63022356Y-4226100D01*
X63080547Y-4245007D01*
G37*
%TD.AperFunction*%
%TA.AperFunction,Conductor*%
G36*
X83141859Y-603868D02*
G01*
X83299646Y-649326D01*
X83310117Y-652990D01*
X83436514Y-705346D01*
X83577457Y-763727D01*
X83587459Y-768544D01*
X83840711Y-908511D01*
X83850111Y-914417D01*
X84086106Y-1081864D01*
X84094783Y-1088784D01*
X84310555Y-1281609D01*
X84318390Y-1289444D01*
X84511213Y-1505213D01*
X84518135Y-1513893D01*
X84685582Y-1749888D01*
X84691488Y-1759288D01*
X84831455Y-2012540D01*
X84836272Y-2022542D01*
X84947007Y-2289878D01*
X84950674Y-2300357D01*
X84996131Y-2458139D01*
X85000000Y-2485546D01*
X85000000Y-51494452D01*
X84996131Y-51521859D01*
X84950674Y-51679642D01*
X84947007Y-51690121D01*
X84836272Y-51957457D01*
X84831455Y-51967459D01*
X84691488Y-52220711D01*
X84685582Y-52230111D01*
X84518135Y-52466106D01*
X84511213Y-52474786D01*
X84318398Y-52690547D01*
X84310547Y-52698398D01*
X84094786Y-52891213D01*
X84086106Y-52898135D01*
X83850111Y-53065582D01*
X83840711Y-53071488D01*
X83587459Y-53211455D01*
X83577457Y-53216272D01*
X83310121Y-53327007D01*
X83299642Y-53330674D01*
X83141860Y-53376131D01*
X83114453Y-53380000D01*
X2485547Y-53380000D01*
X2458140Y-53376131D01*
X2300357Y-53330674D01*
X2289878Y-53327007D01*
X2022542Y-53216272D01*
X2012540Y-53211455D01*
X1759288Y-53071488D01*
X1749888Y-53065582D01*
X1513893Y-52898135D01*
X1505213Y-52891213D01*
X1289444Y-52698390D01*
X1281609Y-52690555D01*
X1088784Y-52474783D01*
X1081864Y-52466106D01*
X1017586Y-52375515D01*
X914417Y-52230111D01*
X908511Y-52220711D01*
X768544Y-51967459D01*
X763727Y-51957457D01*
X652992Y-51690121D01*
X649325Y-51679641D01*
X603869Y-51521858D01*
X600000Y-51494452D01*
X600000Y-15400000D01*
X1900000Y-15400000D01*
X1900000Y-41100000D01*
X1900001Y-41100000D01*
X15049999Y-41100000D01*
X15050000Y-41100000D01*
X15050000Y-15400000D01*
X15049999Y-15400000D01*
X9099000Y-15400000D01*
X9040809Y-15381093D01*
X9004845Y-15331593D01*
X9000000Y-15301000D01*
X9000000Y-14750001D01*
X9000000Y-14750000D01*
X8999999Y-14750000D01*
X8895041Y-14750000D01*
X8836850Y-14731093D01*
X8800886Y-14681593D01*
X8800886Y-14620407D01*
X8803577Y-14613115D01*
X8850034Y-14500956D01*
X8865894Y-14462666D01*
X8900500Y-14288691D01*
X8900500Y-14111309D01*
X8865894Y-13937334D01*
X8821596Y-13830387D01*
X8798014Y-13773455D01*
X8798014Y-13773454D01*
X8699464Y-13625965D01*
X8574034Y-13500535D01*
X8426544Y-13401985D01*
X8262666Y-13334106D01*
X8088693Y-13299500D01*
X8088691Y-13299500D01*
X7941400Y-13299500D01*
X7883209Y-13280593D01*
X7847245Y-13231093D01*
X7847245Y-13169907D01*
X7871396Y-13130496D01*
X8191036Y-12810857D01*
X8707397Y-12294496D01*
X8761914Y-12266719D01*
X8777401Y-12265500D01*
X9510356Y-12265500D01*
X9568547Y-12284407D01*
X9580359Y-12294496D01*
X9613791Y-12327927D01*
X9631384Y-12345520D01*
X9768316Y-12424577D01*
X9921043Y-12465500D01*
X9921045Y-12465500D01*
X10079155Y-12465500D01*
X10079157Y-12465500D01*
X10231884Y-12424577D01*
X10368816Y-12345520D01*
X10480620Y-12233716D01*
X10559677Y-12096784D01*
X10600600Y-11944057D01*
X10600600Y-11785943D01*
X10559677Y-11633216D01*
X10480620Y-11496284D01*
X10368816Y-11384480D01*
X10231884Y-11305423D01*
X10079157Y-11264500D01*
X9921043Y-11264500D01*
X9768316Y-11305423D01*
X9655464Y-11370578D01*
X9631381Y-11384482D01*
X9580359Y-11435504D01*
X9525842Y-11463281D01*
X9510356Y-11464500D01*
X8623227Y-11464500D01*
X8517773Y-11464500D01*
X8455429Y-11481204D01*
X8415907Y-11491794D01*
X8324591Y-11544516D01*
X6631203Y-13237904D01*
X6576686Y-13265681D01*
X6561199Y-13266900D01*
X6489043Y-13266900D01*
X6336316Y-13307823D01*
X6199384Y-13386880D01*
X6087580Y-13498684D01*
X6008523Y-13635616D01*
X5967600Y-13788343D01*
X5967600Y-13946457D01*
X6008523Y-14099184D01*
X6087580Y-14236116D01*
X6199384Y-14347920D01*
X6336316Y-14426977D01*
X6489043Y-14467900D01*
X6489045Y-14467900D01*
X6647155Y-14467900D01*
X6647157Y-14467900D01*
X6799884Y-14426977D01*
X6936816Y-14347920D01*
X6951368Y-14333367D01*
X7005881Y-14305590D01*
X7066314Y-14315160D01*
X7109579Y-14358424D01*
X7118469Y-14384056D01*
X7134106Y-14462667D01*
X7201985Y-14626544D01*
X7201985Y-14626545D01*
X7300535Y-14774034D01*
X7300536Y-14774035D01*
X7425965Y-14899464D01*
X7456001Y-14919534D01*
X7493881Y-14967583D01*
X7500000Y-15001849D01*
X7500000Y-15301000D01*
X7481093Y-15359191D01*
X7431593Y-15395155D01*
X7401000Y-15400000D01*
X3999000Y-15400000D01*
X3940809Y-15381093D01*
X3904845Y-15331593D01*
X3900000Y-15301000D01*
X3900000Y-14750001D01*
X3900000Y-14750000D01*
X2000000Y-14750000D01*
X2000000Y-14750001D01*
X2000000Y-15301000D01*
X1981093Y-15359191D01*
X1950666Y-15386641D01*
X1927630Y-15400000D01*
X1900000Y-15400000D01*
X600000Y-15400000D01*
X600000Y-10834643D01*
X5687000Y-10834643D01*
X5687000Y-10992757D01*
X5727923Y-11145484D01*
X5806980Y-11282416D01*
X5918784Y-11394220D01*
X6055716Y-11473277D01*
X6208443Y-11514200D01*
X6208445Y-11514200D01*
X6366555Y-11514200D01*
X6366557Y-11514200D01*
X6519284Y-11473277D01*
X6656216Y-11394220D01*
X6768020Y-11282416D01*
X6847077Y-11145484D01*
X6859189Y-11100282D01*
X6861281Y-11092476D01*
X6894605Y-11041162D01*
X6951727Y-11019236D01*
X6956907Y-11019100D01*
X8469325Y-11019100D01*
X8469327Y-11019100D01*
X8571188Y-10991807D01*
X8571190Y-10991805D01*
X8571192Y-10991805D01*
X8662508Y-10939083D01*
X8662508Y-10939082D01*
X8662513Y-10939080D01*
X9433997Y-10167596D01*
X9441114Y-10163969D01*
X9445810Y-10157507D01*
X9467858Y-10150343D01*
X9488514Y-10139819D01*
X9504001Y-10138600D01*
X9542018Y-10138600D01*
X9600209Y-10157507D01*
X9636173Y-10207007D01*
X9637645Y-10263220D01*
X9636300Y-10268237D01*
X9636300Y-10268243D01*
X9636300Y-10426357D01*
X9677223Y-10579084D01*
X9756280Y-10716016D01*
X9868084Y-10827820D01*
X10005016Y-10906877D01*
X10157743Y-10947800D01*
X10157745Y-10947800D01*
X10315855Y-10947800D01*
X10315857Y-10947800D01*
X10468584Y-10906877D01*
X10605516Y-10827820D01*
X10639152Y-10794184D01*
X10656541Y-10776796D01*
X10711058Y-10749019D01*
X10726544Y-10747800D01*
X14688699Y-10747800D01*
X14746890Y-10766707D01*
X14758703Y-10776796D01*
X15302387Y-11320480D01*
X15302389Y-11320481D01*
X15302390Y-11320482D01*
X15302391Y-11320483D01*
X15393708Y-11373205D01*
X15393709Y-11373205D01*
X15393712Y-11373207D01*
X15481525Y-11396736D01*
X15532839Y-11430059D01*
X15551428Y-11466367D01*
X15552412Y-11469984D01*
X15552414Y-11469990D01*
X15552415Y-11469991D01*
X15597794Y-11572765D01*
X15677235Y-11652206D01*
X15780009Y-11697585D01*
X15780011Y-11697585D01*
X15786821Y-11700592D01*
X15785860Y-11702766D01*
X15827665Y-11730134D01*
X15849383Y-11787335D01*
X15849500Y-11792154D01*
X15849500Y-16607844D01*
X15830593Y-16666035D01*
X15786297Y-16698218D01*
X15786822Y-16699407D01*
X15781311Y-16701839D01*
X15781093Y-16701999D01*
X15780657Y-16702129D01*
X15677235Y-16747794D01*
X15597794Y-16827235D01*
X15552414Y-16930011D01*
X15549500Y-16955130D01*
X15549500Y-17844860D01*
X15549501Y-17844863D01*
X15552414Y-17869990D01*
X15577756Y-17927385D01*
X15597794Y-17972765D01*
X15677235Y-18052206D01*
X15692989Y-18059162D01*
X15738584Y-18099962D01*
X15752000Y-18149726D01*
X15752000Y-23050273D01*
X15733093Y-23108464D01*
X15692990Y-23140837D01*
X15677237Y-23147792D01*
X15597794Y-23227235D01*
X15552414Y-23330011D01*
X15549500Y-23355130D01*
X15549500Y-24244860D01*
X15549501Y-24244863D01*
X15552414Y-24269990D01*
X15561249Y-24289999D01*
X15597794Y-24372765D01*
X15677235Y-24452206D01*
X15780009Y-24497585D01*
X15780011Y-24497585D01*
X15786821Y-24500592D01*
X15785860Y-24502766D01*
X15827665Y-24530134D01*
X15849383Y-24587335D01*
X15849500Y-24592154D01*
X15849500Y-29407844D01*
X15830593Y-29466035D01*
X15786297Y-29498218D01*
X15786822Y-29499407D01*
X15781311Y-29501839D01*
X15781093Y-29501999D01*
X15780657Y-29502129D01*
X15677235Y-29547794D01*
X15597794Y-29627235D01*
X15552414Y-29730011D01*
X15549500Y-29755130D01*
X15549500Y-30644860D01*
X15549501Y-30644863D01*
X15552414Y-30669990D01*
X15577756Y-30727385D01*
X15597794Y-30772765D01*
X15677235Y-30852206D01*
X15780009Y-30897585D01*
X15780011Y-30897585D01*
X15786821Y-30900592D01*
X15785860Y-30902766D01*
X15827665Y-30930134D01*
X15849383Y-30987335D01*
X15849500Y-30992154D01*
X15849500Y-35807844D01*
X15830593Y-35866035D01*
X15786297Y-35898218D01*
X15786822Y-35899407D01*
X15781311Y-35901839D01*
X15781093Y-35901999D01*
X15780657Y-35902129D01*
X15677235Y-35947794D01*
X15597794Y-36027235D01*
X15552414Y-36130011D01*
X15549500Y-36155130D01*
X15549500Y-37044860D01*
X15549501Y-37044863D01*
X15552414Y-37069990D01*
X15576679Y-37124944D01*
X15597794Y-37172765D01*
X15677235Y-37252206D01*
X15780009Y-37297585D01*
X15780021Y-37297586D01*
X15783624Y-37298567D01*
X15786499Y-37300450D01*
X15786821Y-37300592D01*
X15786797Y-37300645D01*
X15834811Y-37332086D01*
X15853263Y-37368471D01*
X15873645Y-37444540D01*
X15876794Y-37456292D01*
X15929516Y-37547608D01*
X15929518Y-37547610D01*
X15929520Y-37547613D01*
X17320505Y-38938598D01*
X17348281Y-38993113D01*
X17349500Y-39008600D01*
X17349500Y-42207844D01*
X17330593Y-42266035D01*
X17286297Y-42298218D01*
X17286822Y-42299407D01*
X17281311Y-42301839D01*
X17281093Y-42301999D01*
X17280657Y-42302129D01*
X17177235Y-42347794D01*
X17097793Y-42427236D01*
X17090564Y-42443609D01*
X17049763Y-42489204D01*
X16989954Y-42502109D01*
X16933983Y-42477395D01*
X16909436Y-42443609D01*
X16902206Y-42427236D01*
X16902206Y-42427235D01*
X16822765Y-42347794D01*
X16719991Y-42302415D01*
X16719990Y-42302414D01*
X16719988Y-42302414D01*
X16694868Y-42299500D01*
X15805139Y-42299500D01*
X15805136Y-42299501D01*
X15780009Y-42302414D01*
X15677235Y-42347794D01*
X15597794Y-42427235D01*
X15552414Y-42530011D01*
X15549500Y-42555130D01*
X15549500Y-43444860D01*
X15549501Y-43444863D01*
X15552414Y-43469990D01*
X15557045Y-43480477D01*
X15597794Y-43572765D01*
X15677235Y-43652206D01*
X15780009Y-43697585D01*
X15805135Y-43700500D01*
X16606198Y-43700499D01*
X16664389Y-43719406D01*
X16676202Y-43729495D01*
X16894320Y-43947613D01*
X16894319Y-43947613D01*
X16968885Y-44022179D01*
X17031401Y-44058273D01*
X17031402Y-44058273D01*
X17060213Y-44074907D01*
X17162070Y-44102200D01*
X17162072Y-44102201D01*
X17162073Y-44102201D01*
X17273590Y-44102201D01*
X17273606Y-44102200D01*
X35208925Y-44102200D01*
X35208927Y-44102200D01*
X35310788Y-44074907D01*
X35310790Y-44074905D01*
X35310792Y-44074905D01*
X35402108Y-44022183D01*
X35402108Y-44022182D01*
X35402113Y-44022180D01*
X43123797Y-36300494D01*
X43178314Y-36272718D01*
X43193801Y-36271499D01*
X43994861Y-36271499D01*
X43994864Y-36271499D01*
X44019991Y-36268585D01*
X44122765Y-36223206D01*
X44202206Y-36143765D01*
X44247585Y-36040991D01*
X44247585Y-36040988D01*
X44250592Y-36034179D01*
X44252763Y-36035137D01*
X44280154Y-35993319D01*
X44337362Y-35971616D01*
X44342155Y-35971500D01*
X65589371Y-35971500D01*
X65647562Y-35990407D01*
X65675106Y-36020998D01*
X65714780Y-36089716D01*
X65826584Y-36201520D01*
X65963516Y-36280577D01*
X66116243Y-36321500D01*
X66116245Y-36321500D01*
X66258799Y-36321500D01*
X66316990Y-36340407D01*
X66352954Y-36389907D01*
X66352954Y-36451093D01*
X66328803Y-36490504D01*
X63865903Y-38953404D01*
X63811386Y-38981181D01*
X63795899Y-38982400D01*
X44268927Y-38982400D01*
X44163473Y-38982400D01*
X44073640Y-39006470D01*
X44061608Y-39009694D01*
X44023191Y-39031874D01*
X44023185Y-39031878D01*
X44015950Y-39036056D01*
X43970287Y-39062420D01*
X43895720Y-39136987D01*
X43895718Y-39136989D01*
X43892466Y-39140240D01*
X43892461Y-39140245D01*
X42476201Y-40556504D01*
X42421684Y-40584281D01*
X42406197Y-40585500D01*
X41605139Y-40585500D01*
X41605136Y-40585501D01*
X41580009Y-40588414D01*
X41477235Y-40633794D01*
X41397794Y-40713235D01*
X41352414Y-40816011D01*
X41349500Y-40841130D01*
X41349500Y-41730860D01*
X41349501Y-41730863D01*
X41352414Y-41755990D01*
X41377756Y-41813385D01*
X41397794Y-41858765D01*
X41477235Y-41938206D01*
X41580009Y-41983585D01*
X41580011Y-41983585D01*
X41586821Y-41986592D01*
X41585860Y-41988766D01*
X41627665Y-42016134D01*
X41649383Y-42073335D01*
X41649500Y-42078154D01*
X41649500Y-46207844D01*
X41630593Y-46266035D01*
X41586297Y-46298218D01*
X41586822Y-46299407D01*
X41581311Y-46301839D01*
X41581093Y-46301999D01*
X41580657Y-46302129D01*
X41477235Y-46347794D01*
X41397794Y-46427235D01*
X41352414Y-46530011D01*
X41349500Y-46555130D01*
X41349500Y-47444860D01*
X41349501Y-47444863D01*
X41352414Y-47469990D01*
X41377756Y-47527385D01*
X41397794Y-47572765D01*
X41477235Y-47652206D01*
X41580009Y-47697585D01*
X41605135Y-47700500D01*
X42494864Y-47700499D01*
X42519991Y-47697585D01*
X42622765Y-47652206D01*
X42702206Y-47572765D01*
X42709435Y-47556392D01*
X42750232Y-47510797D01*
X42810040Y-47497889D01*
X42866013Y-47522601D01*
X42890563Y-47556389D01*
X42897794Y-47572765D01*
X42977235Y-47652206D01*
X43080009Y-47697585D01*
X43105135Y-47700500D01*
X43994864Y-47700499D01*
X44019991Y-47697585D01*
X44122765Y-47652206D01*
X44202206Y-47572765D01*
X44247585Y-47469991D01*
X44247585Y-47469988D01*
X44250592Y-47463179D01*
X44252763Y-47464137D01*
X44280154Y-47422319D01*
X44337362Y-47400616D01*
X44342155Y-47400500D01*
X64941399Y-47400500D01*
X64999590Y-47419407D01*
X65011403Y-47429496D01*
X66902387Y-49320480D01*
X66902389Y-49320481D01*
X66902390Y-49320482D01*
X66902391Y-49320483D01*
X66993708Y-49373205D01*
X66993709Y-49373205D01*
X66993712Y-49373207D01*
X67081525Y-49396736D01*
X67132839Y-49430059D01*
X67151428Y-49466367D01*
X67152412Y-49469984D01*
X67152414Y-49469990D01*
X67152415Y-49469991D01*
X67197794Y-49572765D01*
X67277235Y-49652206D01*
X67380009Y-49697585D01*
X67405135Y-49700500D01*
X68294864Y-49700499D01*
X68319991Y-49697585D01*
X68422765Y-49652206D01*
X68502206Y-49572765D01*
X68509435Y-49556392D01*
X68550232Y-49510797D01*
X68610040Y-49497889D01*
X68666013Y-49522601D01*
X68690563Y-49556389D01*
X68697794Y-49572765D01*
X68777235Y-49652206D01*
X68880009Y-49697585D01*
X68905135Y-49700500D01*
X69794864Y-49700499D01*
X69819991Y-49697585D01*
X69922765Y-49652206D01*
X70002206Y-49572765D01*
X70047585Y-49469991D01*
X70050500Y-49444865D01*
X70050499Y-48555136D01*
X70047585Y-48530009D01*
X70002206Y-48427235D01*
X69922765Y-48347794D01*
X69819991Y-48302415D01*
X69819988Y-48302414D01*
X69813179Y-48299408D01*
X69814137Y-48297236D01*
X69772319Y-48269846D01*
X69750616Y-48212638D01*
X69750500Y-48207845D01*
X69750500Y-46292499D01*
X69769407Y-46234308D01*
X69779490Y-46222501D01*
X70735710Y-45266281D01*
X70735713Y-45266280D01*
X70810280Y-45191713D01*
X70863007Y-45100387D01*
X70890301Y-44998527D01*
X70890301Y-44893073D01*
X70890301Y-44887011D01*
X70890300Y-44886993D01*
X70890300Y-29433468D01*
X80779500Y-29433468D01*
X80779500Y-29566531D01*
X80805460Y-29697037D01*
X80856378Y-29819966D01*
X80856379Y-29819968D01*
X80856380Y-29819969D01*
X80930305Y-29930606D01*
X81024394Y-30024695D01*
X81135031Y-30098620D01*
X81257964Y-30149540D01*
X81388469Y-30175500D01*
X81388470Y-30175500D01*
X81521530Y-30175500D01*
X81521531Y-30175500D01*
X81652036Y-30149540D01*
X81774969Y-30098620D01*
X81885606Y-30024695D01*
X81979695Y-29930606D01*
X82053620Y-29819969D01*
X82104540Y-29697036D01*
X82130500Y-29566531D01*
X82130500Y-29433469D01*
X82104540Y-29302964D01*
X82053620Y-29180031D01*
X81979695Y-29069394D01*
X81885606Y-28975305D01*
X81883669Y-28974011D01*
X81774966Y-28901378D01*
X81652037Y-28850460D01*
X81521531Y-28824500D01*
X81388469Y-28824500D01*
X81388468Y-28824500D01*
X81257962Y-28850460D01*
X81135033Y-28901378D01*
X81024397Y-28975302D01*
X80930302Y-29069397D01*
X80856378Y-29180033D01*
X80805460Y-29302962D01*
X80779500Y-29433468D01*
X70890300Y-29433468D01*
X70890300Y-26433468D01*
X80779500Y-26433468D01*
X80779500Y-26566531D01*
X80805460Y-26697037D01*
X80856378Y-26819966D01*
X80927162Y-26925903D01*
X80930305Y-26930606D01*
X81024394Y-27024695D01*
X81135031Y-27098620D01*
X81135032Y-27098620D01*
X81135033Y-27098621D01*
X81189320Y-27121107D01*
X81257964Y-27149540D01*
X81388469Y-27175500D01*
X81388470Y-27175500D01*
X81521530Y-27175500D01*
X81521531Y-27175500D01*
X81652036Y-27149540D01*
X81774969Y-27098620D01*
X81885606Y-27024695D01*
X81979695Y-26930606D01*
X82053620Y-26819969D01*
X82104540Y-26697036D01*
X82130500Y-26566531D01*
X82130500Y-26433469D01*
X82104540Y-26302964D01*
X82053620Y-26180031D01*
X81979695Y-26069394D01*
X81885606Y-25975305D01*
X81774969Y-25901380D01*
X81774968Y-25901379D01*
X81774966Y-25901378D01*
X81652037Y-25850460D01*
X81521531Y-25824500D01*
X81388469Y-25824500D01*
X81388468Y-25824500D01*
X81257962Y-25850460D01*
X81135033Y-25901378D01*
X81024397Y-25975302D01*
X80930302Y-26069397D01*
X80856378Y-26180033D01*
X80805460Y-26302962D01*
X80779500Y-26433468D01*
X70890300Y-26433468D01*
X70890300Y-24409774D01*
X70890299Y-24409770D01*
X70880384Y-24372764D01*
X70880384Y-24372765D01*
X70863007Y-24307912D01*
X70863005Y-24307909D01*
X70863005Y-24307907D01*
X70810283Y-24216591D01*
X70810281Y-24216589D01*
X70810280Y-24216587D01*
X70062113Y-23468420D01*
X70062110Y-23468418D01*
X70062108Y-23468416D01*
X69970791Y-23415694D01*
X69970793Y-23415694D01*
X69931270Y-23405104D01*
X69868927Y-23388400D01*
X69868925Y-23388400D01*
X68349500Y-23388400D01*
X68291309Y-23369493D01*
X68255345Y-23319993D01*
X68250500Y-23289400D01*
X68250500Y-20459155D01*
X68269407Y-20400964D01*
X68313702Y-20368781D01*
X68313178Y-20367593D01*
X68318684Y-20365161D01*
X68318907Y-20365000D01*
X68319348Y-20364868D01*
X68319988Y-20364585D01*
X68319991Y-20364585D01*
X68422765Y-20319206D01*
X68502206Y-20239765D01*
X68509435Y-20223392D01*
X68550232Y-20177797D01*
X68610040Y-20164889D01*
X68666013Y-20189601D01*
X68690563Y-20223389D01*
X68697794Y-20239765D01*
X68777235Y-20319206D01*
X68880009Y-20364585D01*
X68880011Y-20364585D01*
X68886821Y-20367592D01*
X68885860Y-20369766D01*
X68927665Y-20397134D01*
X68949383Y-20454335D01*
X68949500Y-20459154D01*
X68949500Y-20670773D01*
X68949500Y-20776227D01*
X68959177Y-20812342D01*
X68976794Y-20878092D01*
X69029516Y-20969408D01*
X69029518Y-20969410D01*
X69029520Y-20969413D01*
X69386705Y-21326598D01*
X69414481Y-21381113D01*
X69415700Y-21396600D01*
X69415700Y-21468757D01*
X69456623Y-21621484D01*
X69535680Y-21758416D01*
X69647484Y-21870220D01*
X69784416Y-21949277D01*
X69937143Y-21990200D01*
X69937145Y-21990200D01*
X70095255Y-21990200D01*
X70095257Y-21990200D01*
X70247984Y-21949277D01*
X70384916Y-21870220D01*
X70496720Y-21758416D01*
X70575777Y-21621484D01*
X70616700Y-21468757D01*
X70616700Y-21310643D01*
X70575777Y-21157916D01*
X70496720Y-21020984D01*
X70384916Y-20909180D01*
X70247984Y-20830123D01*
X70095257Y-20789200D01*
X70095255Y-20789200D01*
X70023101Y-20789200D01*
X69964910Y-20770293D01*
X69953097Y-20760204D01*
X69779496Y-20586603D01*
X69775869Y-20579485D01*
X69769407Y-20574790D01*
X69762243Y-20552741D01*
X69751719Y-20532086D01*
X69750500Y-20516599D01*
X69750500Y-20459155D01*
X69769407Y-20400964D01*
X69813702Y-20368781D01*
X69813178Y-20367593D01*
X69818684Y-20365161D01*
X69818907Y-20365000D01*
X69819348Y-20364868D01*
X69819988Y-20364585D01*
X69819991Y-20364585D01*
X69922765Y-20319206D01*
X70002206Y-20239765D01*
X70047585Y-20136991D01*
X70050500Y-20111865D01*
X70050499Y-19222136D01*
X70047585Y-19197009D01*
X70002206Y-19094235D01*
X69964833Y-19056862D01*
X69937058Y-19002348D01*
X69946629Y-18941916D01*
X69964835Y-18916857D01*
X70162305Y-18719387D01*
X70516380Y-18365313D01*
X70524308Y-18351581D01*
X70569105Y-18273992D01*
X70569105Y-18273990D01*
X70569107Y-18273988D01*
X70596400Y-18172127D01*
X70596400Y-18066673D01*
X70596400Y-4509673D01*
X70581185Y-4452888D01*
X70581185Y-4452887D01*
X70581185Y-4452886D01*
X70569107Y-4407812D01*
X70569105Y-4407808D01*
X70516383Y-4316491D01*
X70516381Y-4316489D01*
X70516380Y-4316487D01*
X70177713Y-3977820D01*
X70177710Y-3977818D01*
X70177708Y-3977816D01*
X70086391Y-3925094D01*
X70086393Y-3925094D01*
X70046870Y-3914504D01*
X69984527Y-3897800D01*
X69984525Y-3897800D01*
X68873606Y-3897800D01*
X68873590Y-3897799D01*
X68867527Y-3897799D01*
X68762073Y-3897799D01*
X68762070Y-3897799D01*
X68660213Y-3925092D01*
X68660209Y-3925094D01*
X68568889Y-3977818D01*
X68499961Y-4046745D01*
X68276201Y-4270504D01*
X68221685Y-4298281D01*
X68206198Y-4299500D01*
X67405139Y-4299500D01*
X67405136Y-4299501D01*
X67380009Y-4302414D01*
X67293557Y-4340587D01*
X67277235Y-4347794D01*
X67197794Y-4427235D01*
X67152415Y-4530009D01*
X67152414Y-4530011D01*
X67149408Y-4536821D01*
X67147236Y-4535862D01*
X67119846Y-4577681D01*
X67062638Y-4599384D01*
X67057845Y-4599500D01*
X63695999Y-4599500D01*
X63637808Y-4580593D01*
X63601844Y-4531093D01*
X63601844Y-4469907D01*
X63637808Y-4420407D01*
X63670374Y-4404873D01*
X63743884Y-4385177D01*
X63880816Y-4306120D01*
X63992620Y-4194316D01*
X64071677Y-4057384D01*
X64112600Y-3904657D01*
X64112600Y-3746543D01*
X64071677Y-3593816D01*
X63992620Y-3456884D01*
X63880816Y-3345080D01*
X63743884Y-3266023D01*
X63591157Y-3225100D01*
X63433043Y-3225100D01*
X63280316Y-3266023D01*
X63143381Y-3345082D01*
X63092359Y-3396104D01*
X63037842Y-3423881D01*
X63022356Y-3425100D01*
X12174327Y-3425100D01*
X12068873Y-3425100D01*
X12006529Y-3441804D01*
X11967007Y-3452394D01*
X11875691Y-3505116D01*
X6033516Y-9347291D01*
X5980793Y-9438611D01*
X5980792Y-9438611D01*
X5980793Y-9438612D01*
X5953500Y-9540473D01*
X5953500Y-10357719D01*
X5934593Y-10415910D01*
X5922799Y-10428018D01*
X5923372Y-10428591D01*
X5806982Y-10544981D01*
X5806980Y-10544983D01*
X5806980Y-10544984D01*
X5727923Y-10681916D01*
X5687000Y-10834643D01*
X600000Y-10834643D01*
X600000Y-2485546D01*
X603869Y-2458139D01*
X649328Y-2300347D01*
X652988Y-2289888D01*
X763729Y-2022535D01*
X768544Y-2012540D01*
X809420Y-1938581D01*
X908515Y-1759280D01*
X914412Y-1749895D01*
X1081872Y-1513882D01*
X1088776Y-1505224D01*
X1281617Y-1289435D01*
X1289435Y-1281617D01*
X1505224Y-1088776D01*
X1513882Y-1081872D01*
X1749895Y-914412D01*
X1759280Y-908515D01*
X2012546Y-768541D01*
X2022535Y-763729D01*
X2289888Y-652988D01*
X2300353Y-649326D01*
X2388687Y-623877D01*
X2458141Y-603869D01*
X2485547Y-600000D01*
X83114453Y-600000D01*
X83141859Y-603868D01*
G37*
%TD.AperFunction*%
%TD*%
%TA.AperFunction,NonConductor*%
G36*
X17665290Y-4245007D02*
G01*
X17701254Y-4294507D01*
X17701254Y-4355693D01*
X17677103Y-4395104D01*
X16658703Y-5413504D01*
X16604186Y-5441281D01*
X16588699Y-5442500D01*
X16516543Y-5442500D01*
X16363816Y-5483423D01*
X16226884Y-5562480D01*
X16115080Y-5674284D01*
X16036023Y-5811216D01*
X16030966Y-5830091D01*
X15995100Y-5963944D01*
X15995100Y-6122056D01*
X15995947Y-6128489D01*
X15993955Y-6128751D01*
X15991234Y-6180678D01*
X15952728Y-6228228D01*
X15898809Y-6244200D01*
X10508401Y-6244200D01*
X10450210Y-6225293D01*
X10414246Y-6175793D01*
X10414246Y-6114607D01*
X10438397Y-6075196D01*
X12258497Y-4255096D01*
X12313014Y-4227319D01*
X12328501Y-4226100D01*
X17607099Y-4226100D01*
X17665290Y-4245007D01*
G37*
%TD.AperFunction*%
%TA.AperFunction,NonConductor*%
G36*
X67116036Y-5419407D02*
G01*
X67148218Y-5463702D01*
X67149407Y-5463178D01*
X67151838Y-5468684D01*
X67152000Y-5468907D01*
X67152131Y-5469348D01*
X67152415Y-5469991D01*
X67197794Y-5572765D01*
X67277235Y-5652206D01*
X67380009Y-5697585D01*
X67405135Y-5700500D01*
X67844099Y-5700499D01*
X67902289Y-5719406D01*
X67938253Y-5768906D01*
X67938253Y-5830091D01*
X67914102Y-5869502D01*
X66997403Y-6786203D01*
X66942886Y-6813981D01*
X66927399Y-6815200D01*
X45997444Y-6815200D01*
X45939253Y-6796293D01*
X45927441Y-6786204D01*
X45876418Y-6735182D01*
X45876416Y-6735180D01*
X45739484Y-6656123D01*
X45586757Y-6615200D01*
X45441900Y-6615200D01*
X45383709Y-6596293D01*
X45347745Y-6546793D01*
X45347745Y-6485607D01*
X45371894Y-6446198D01*
X46388597Y-5429496D01*
X46443114Y-5401719D01*
X46458601Y-5400500D01*
X67057845Y-5400500D01*
X67116036Y-5419407D01*
G37*
%TD.AperFunction*%
%TA.AperFunction,NonConductor*%
G36*
X21847847Y-13095807D02*
G01*
X21859659Y-13105896D01*
X21886064Y-13132300D01*
X21910684Y-13156920D01*
X22047616Y-13235977D01*
X22200343Y-13276900D01*
X22200345Y-13276900D01*
X22358455Y-13276900D01*
X22358457Y-13276900D01*
X22464480Y-13248491D01*
X22525578Y-13251693D01*
X22573128Y-13290198D01*
X22589100Y-13344118D01*
X22589100Y-14405329D01*
X22570193Y-14463520D01*
X22520693Y-14499484D01*
X22464478Y-14500956D01*
X22428895Y-14491422D01*
X22414257Y-14487500D01*
X22256143Y-14487500D01*
X22103416Y-14528423D01*
X21966484Y-14607480D01*
X21854680Y-14719284D01*
X21775623Y-14856216D01*
X21745783Y-14967583D01*
X21734700Y-15008944D01*
X21734700Y-15079500D01*
X21715793Y-15137691D01*
X21666293Y-15173655D01*
X21635700Y-15178500D01*
X18293844Y-15178500D01*
X18235653Y-15159593D01*
X18223841Y-15149504D01*
X18172818Y-15098482D01*
X18172816Y-15098480D01*
X18035884Y-15019423D01*
X17883157Y-14978500D01*
X17725043Y-14978500D01*
X17637903Y-15001849D01*
X17572315Y-15019423D01*
X17560798Y-15026073D01*
X17500950Y-15038792D01*
X17445055Y-15013905D01*
X17414463Y-14960916D01*
X17412300Y-14940335D01*
X17412300Y-14044801D01*
X17431207Y-13986610D01*
X17441296Y-13974797D01*
X18310197Y-13105896D01*
X18364714Y-13078119D01*
X18380201Y-13076900D01*
X21789656Y-13076900D01*
X21847847Y-13095807D01*
G37*
%TD.AperFunction*%
%TA.AperFunction,NonConductor*%
G36*
X21666290Y-15998407D02*
G01*
X21702254Y-16047907D01*
X21702254Y-16109093D01*
X21678103Y-16148504D01*
X19212958Y-18613647D01*
X19158441Y-18641424D01*
X19098009Y-18631853D01*
X19057217Y-18593143D01*
X18981320Y-18461684D01*
X18869516Y-18349880D01*
X18732584Y-18270823D01*
X18579857Y-18229900D01*
X18421743Y-18229900D01*
X18406040Y-18234107D01*
X18388783Y-18238731D01*
X18388774Y-18238733D01*
X18269016Y-18270823D01*
X18132084Y-18349880D01*
X18132083Y-18349880D01*
X18132076Y-18349885D01*
X18126934Y-18353831D01*
X18125207Y-18351581D01*
X18081210Y-18373968D01*
X18020783Y-18364362D01*
X17995776Y-18346184D01*
X17919094Y-18269501D01*
X17891318Y-18214986D01*
X17900889Y-18154554D01*
X17944154Y-18111289D01*
X17989099Y-18100499D01*
X18178381Y-18100499D01*
X18194864Y-18100499D01*
X18219991Y-18097585D01*
X18322765Y-18052206D01*
X18402206Y-17972765D01*
X18447585Y-17869991D01*
X18450500Y-17844865D01*
X18450499Y-17073099D01*
X18469406Y-17014909D01*
X18518906Y-16978945D01*
X18549499Y-16974100D01*
X18613955Y-16974100D01*
X18613957Y-16974100D01*
X18766684Y-16933177D01*
X18903616Y-16854120D01*
X19015420Y-16742316D01*
X19094477Y-16605384D01*
X19135400Y-16452657D01*
X19135400Y-16294543D01*
X19094477Y-16141816D01*
X19086500Y-16127999D01*
X19073779Y-16068150D01*
X19098667Y-16012255D01*
X19151655Y-15981663D01*
X19172237Y-15979500D01*
X21608099Y-15979500D01*
X21666290Y-15998407D01*
G37*
%TD.AperFunction*%
%TA.AperFunction,NonConductor*%
G36*
X20943126Y-20126908D02*
G01*
X20986391Y-20170173D01*
X20993656Y-20193567D01*
X20994321Y-20193389D01*
X20996000Y-20199655D01*
X20996000Y-20199657D01*
X21036923Y-20352384D01*
X21115980Y-20489316D01*
X21167005Y-20540341D01*
X21194781Y-20594856D01*
X21196000Y-20610343D01*
X21196000Y-21916099D01*
X21177093Y-21974290D01*
X21167004Y-21986103D01*
X19499503Y-23653604D01*
X19444986Y-23681381D01*
X19429499Y-23682600D01*
X19357343Y-23682600D01*
X19204616Y-23723523D01*
X19067684Y-23802580D01*
X19021201Y-23849062D01*
X18966687Y-23876838D01*
X18906255Y-23867267D01*
X18862990Y-23824002D01*
X18852200Y-23779057D01*
X18852200Y-22162100D01*
X18871107Y-22103909D01*
X18881190Y-22092102D01*
X20828179Y-20145112D01*
X20882694Y-20117337D01*
X20943126Y-20126908D01*
G37*
%TD.AperFunction*%
%TA.AperFunction,NonConductor*%
G36*
X68666013Y-25078601D02*
G01*
X68690563Y-25112389D01*
X68697794Y-25128765D01*
X68777235Y-25208206D01*
X68880009Y-25253585D01*
X68880021Y-25253586D01*
X68883624Y-25254567D01*
X68886499Y-25256450D01*
X68886821Y-25256592D01*
X68886797Y-25256645D01*
X68934811Y-25288086D01*
X68953263Y-25324471D01*
X68971690Y-25393243D01*
X68976794Y-25412292D01*
X69029516Y-25503608D01*
X69029518Y-25503610D01*
X69029520Y-25503613D01*
X69625705Y-26099798D01*
X69653481Y-26154313D01*
X69654700Y-26169800D01*
X69654700Y-28644500D01*
X69635793Y-28702691D01*
X69586293Y-28738655D01*
X69555700Y-28743500D01*
X68905139Y-28743500D01*
X68905136Y-28743501D01*
X68880009Y-28746414D01*
X68777235Y-28791794D01*
X68697793Y-28871236D01*
X68690564Y-28887609D01*
X68649763Y-28933204D01*
X68589954Y-28946109D01*
X68533983Y-28921395D01*
X68509436Y-28887609D01*
X68502206Y-28871236D01*
X68502206Y-28871235D01*
X68422765Y-28791794D01*
X68319991Y-28746415D01*
X68319988Y-28746414D01*
X68313179Y-28743408D01*
X68314137Y-28741236D01*
X68272319Y-28713846D01*
X68250616Y-28656638D01*
X68250500Y-28651845D01*
X68250500Y-25348155D01*
X68269407Y-25289964D01*
X68313702Y-25257781D01*
X68313178Y-25256593D01*
X68318684Y-25254161D01*
X68318907Y-25254000D01*
X68319348Y-25253868D01*
X68319988Y-25253585D01*
X68319991Y-25253585D01*
X68422765Y-25208206D01*
X68502206Y-25128765D01*
X68509435Y-25112392D01*
X68550232Y-25066797D01*
X68610040Y-25053889D01*
X68666013Y-25078601D01*
G37*
%TD.AperFunction*%
%TA.AperFunction,NonConductor*%
G36*
X45767790Y-27633707D02*
G01*
X45779603Y-27643796D01*
X47423304Y-29287496D01*
X47451081Y-29342013D01*
X47441510Y-29402445D01*
X47398245Y-29445710D01*
X47353300Y-29456500D01*
X44342155Y-29456500D01*
X44283964Y-29437593D01*
X44251781Y-29393297D01*
X44250593Y-29393822D01*
X44248161Y-29388315D01*
X44248000Y-29388093D01*
X44247868Y-29387651D01*
X44240235Y-29370363D01*
X44202206Y-29284235D01*
X44122765Y-29204794D01*
X44019991Y-29159415D01*
X44019990Y-29159414D01*
X44019988Y-29159414D01*
X43994869Y-29156500D01*
X43994865Y-29156500D01*
X43193801Y-29156500D01*
X43135610Y-29137593D01*
X43123797Y-29127504D01*
X43094211Y-29097918D01*
X43094211Y-29097917D01*
X42831113Y-28834820D01*
X42831108Y-28834816D01*
X42739791Y-28782094D01*
X42739793Y-28782094D01*
X42700270Y-28771504D01*
X42637927Y-28754800D01*
X42637925Y-28754800D01*
X42280200Y-28754800D01*
X42258152Y-28747636D01*
X42235255Y-28744010D01*
X42229606Y-28738361D01*
X42222009Y-28735893D01*
X42208380Y-28717134D01*
X42191991Y-28700745D01*
X42190741Y-28692857D01*
X42186045Y-28686393D01*
X42186045Y-28663205D01*
X42182419Y-28640313D01*
X42186045Y-28633196D01*
X42186045Y-28625207D01*
X42210196Y-28585797D01*
X42350495Y-28445497D01*
X42405012Y-28417719D01*
X42420499Y-28416500D01*
X42492655Y-28416500D01*
X42492657Y-28416500D01*
X42645384Y-28375577D01*
X42782316Y-28296520D01*
X42894120Y-28184716D01*
X42973177Y-28047784D01*
X43014100Y-27895057D01*
X43014100Y-27736943D01*
X43014099Y-27736942D01*
X43013253Y-27730511D01*
X43015244Y-27730248D01*
X43017966Y-27678322D01*
X43056472Y-27630772D01*
X43110391Y-27614800D01*
X45709599Y-27614800D01*
X45767790Y-27633707D01*
G37*
%TD.AperFunction*%
%TA.AperFunction,NonConductor*%
G36*
X63953035Y-27349988D02*
G01*
X63969121Y-27363013D01*
X67009118Y-30403010D01*
X67009120Y-30403013D01*
X67083687Y-30477580D01*
X67111076Y-30493393D01*
X67138464Y-30509206D01*
X67138465Y-30509206D01*
X67175013Y-30530307D01*
X67276870Y-30557600D01*
X67276872Y-30557601D01*
X67276873Y-30557601D01*
X67388390Y-30557601D01*
X67388406Y-30557600D01*
X68426525Y-30557600D01*
X68426527Y-30557600D01*
X68528388Y-30530307D01*
X68528390Y-30530305D01*
X68528392Y-30530305D01*
X68619708Y-30477583D01*
X68619708Y-30477582D01*
X68619713Y-30477580D01*
X68894211Y-30203081D01*
X68894213Y-30203080D01*
X68923800Y-30173492D01*
X68950536Y-30159870D01*
X68978312Y-30145718D01*
X68993800Y-30144499D01*
X69555700Y-30144499D01*
X69613891Y-30163406D01*
X69649855Y-30212906D01*
X69654700Y-30243499D01*
X69654700Y-33533500D01*
X69635793Y-33591691D01*
X69586293Y-33627655D01*
X69555700Y-33632500D01*
X69060875Y-33632500D01*
X69002684Y-33613593D01*
X68975140Y-33583002D01*
X68968780Y-33571987D01*
X68894213Y-33497419D01*
X68894213Y-33497420D01*
X64933313Y-29536520D01*
X64933310Y-29536518D01*
X64933309Y-29536517D01*
X64933308Y-29536516D01*
X64841991Y-29483794D01*
X64841993Y-29483794D01*
X64789936Y-29469846D01*
X64740127Y-29456500D01*
X64740125Y-29456500D01*
X63713300Y-29456500D01*
X63655109Y-29437593D01*
X63619145Y-29388093D01*
X63614300Y-29357500D01*
X63614300Y-27777743D01*
X63633207Y-27719552D01*
X63643290Y-27707745D01*
X63694320Y-27656716D01*
X63773377Y-27519784D01*
X63803492Y-27407391D01*
X63836813Y-27356080D01*
X63893935Y-27334153D01*
X63953035Y-27349988D01*
G37*
%TD.AperFunction*%
%TA.AperFunction,NonConductor*%
G36*
X42566948Y-33273105D02*
G01*
X42580093Y-33273105D01*
X42594817Y-33283802D01*
X42611803Y-33290323D01*
X42618959Y-33301343D01*
X42629593Y-33309069D01*
X42645125Y-33341634D01*
X42655723Y-33381184D01*
X42734780Y-33518116D01*
X42846584Y-33629920D01*
X42983516Y-33708977D01*
X43136243Y-33749900D01*
X43136245Y-33749900D01*
X43294355Y-33749900D01*
X43294357Y-33749900D01*
X43447084Y-33708977D01*
X43584016Y-33629920D01*
X43622245Y-33591691D01*
X43635041Y-33578896D01*
X43689558Y-33551119D01*
X43705044Y-33549900D01*
X65757799Y-33549900D01*
X65815990Y-33568807D01*
X65827803Y-33578896D01*
X66902387Y-34653480D01*
X66902389Y-34653481D01*
X66902390Y-34653482D01*
X66902391Y-34653483D01*
X66993708Y-34706205D01*
X66993709Y-34706205D01*
X66993712Y-34706207D01*
X67081525Y-34729736D01*
X67132839Y-34763059D01*
X67151428Y-34799367D01*
X67152412Y-34802984D01*
X67152414Y-34802990D01*
X67152415Y-34802991D01*
X67197794Y-34905765D01*
X67277235Y-34985206D01*
X67380009Y-35030585D01*
X67380011Y-35030585D01*
X67386821Y-35033592D01*
X67385860Y-35035766D01*
X67427665Y-35063134D01*
X67449383Y-35120335D01*
X67449500Y-35125154D01*
X67449500Y-35266300D01*
X67430593Y-35324491D01*
X67381093Y-35360455D01*
X67319907Y-35360455D01*
X67280498Y-35336305D01*
X66459713Y-34515520D01*
X66459710Y-34515518D01*
X66459708Y-34515516D01*
X66368391Y-34462794D01*
X66368393Y-34462794D01*
X66328870Y-34452204D01*
X66266527Y-34435500D01*
X66266525Y-34435500D01*
X42549500Y-34435500D01*
X42491309Y-34416593D01*
X42455345Y-34367093D01*
X42450500Y-34336500D01*
X42450500Y-33367260D01*
X42456123Y-33349952D01*
X42457076Y-33331781D01*
X42465345Y-33321569D01*
X42469407Y-33309069D01*
X42484131Y-33298371D01*
X42495581Y-33284232D01*
X42508272Y-33280831D01*
X42518907Y-33273105D01*
X42537107Y-33273105D01*
X42554681Y-33268396D01*
X42566948Y-33273105D01*
G37*
%TD.AperFunction*%
%TA.AperFunction,NonConductor*%
G36*
X27405482Y-28309352D02*
G01*
X27448747Y-28352617D01*
X27458318Y-28413049D01*
X27446274Y-28447061D01*
X27413623Y-28503614D01*
X27391603Y-28585797D01*
X27372700Y-28656343D01*
X27372700Y-28814457D01*
X27413623Y-28967184D01*
X27492680Y-29104116D01*
X27604484Y-29215920D01*
X27604486Y-29215921D01*
X27604490Y-29215925D01*
X27609630Y-29219869D01*
X27608399Y-29221472D01*
X27643171Y-29260072D01*
X27649580Y-29320921D01*
X27622743Y-29370363D01*
X18620903Y-38372204D01*
X18566386Y-38399981D01*
X18550899Y-38401200D01*
X17956901Y-38401200D01*
X17898710Y-38382293D01*
X17886897Y-38372204D01*
X16864835Y-37350142D01*
X16860468Y-37341572D01*
X16852879Y-37335668D01*
X16846875Y-37314892D01*
X16837058Y-37295625D01*
X16838562Y-37286127D01*
X16835892Y-37276888D01*
X16842404Y-37261868D01*
X16846629Y-37235193D01*
X16856700Y-37219350D01*
X16860480Y-37214490D01*
X16902206Y-37172765D01*
X16914367Y-37145222D01*
X16921860Y-37135591D01*
X16937573Y-37124944D01*
X16950232Y-37110797D01*
X16962296Y-37108193D01*
X16972513Y-37101271D01*
X16991483Y-37101893D01*
X17010040Y-37097889D01*
X17021331Y-37102873D01*
X17033666Y-37103279D01*
X17048647Y-37114934D01*
X17066013Y-37122601D01*
X17075777Y-37136040D01*
X17081959Y-37140849D01*
X17083733Y-37146989D01*
X17090563Y-37156389D01*
X17097794Y-37172765D01*
X17177235Y-37252206D01*
X17280009Y-37297585D01*
X17305135Y-37300500D01*
X18194864Y-37300499D01*
X18219991Y-37297585D01*
X18322765Y-37252206D01*
X18402206Y-37172765D01*
X18447585Y-37069991D01*
X18447585Y-37069982D01*
X18448567Y-37066378D01*
X18450447Y-37063505D01*
X18450592Y-37063179D01*
X18450646Y-37063202D01*
X18482084Y-37015190D01*
X18518468Y-36996737D01*
X18606288Y-36973207D01*
X18697613Y-36920480D01*
X27290535Y-28327556D01*
X27345050Y-28299781D01*
X27405482Y-28309352D01*
G37*
%TD.AperFunction*%
%TA.AperFunction,NonConductor*%
G36*
X68666013Y-39744601D02*
G01*
X68690563Y-39778389D01*
X68697794Y-39794765D01*
X68777235Y-39874206D01*
X68880009Y-39919585D01*
X68905135Y-39922500D01*
X69794864Y-39922499D01*
X69819991Y-39919585D01*
X69922765Y-39874206D01*
X69922769Y-39874201D01*
X69930334Y-39869021D01*
X69931623Y-39870902D01*
X69974813Y-39848897D01*
X70035245Y-39858468D01*
X70078510Y-39901733D01*
X70089300Y-39946678D01*
X70089300Y-43386322D01*
X70070393Y-43444513D01*
X70020893Y-43480477D01*
X69959707Y-43480477D01*
X69931058Y-43462921D01*
X69930334Y-43463979D01*
X69922766Y-43458795D01*
X69922765Y-43458794D01*
X69819991Y-43413415D01*
X69819990Y-43413414D01*
X69819988Y-43413414D01*
X69794868Y-43410500D01*
X68905139Y-43410500D01*
X68905136Y-43410501D01*
X68880009Y-43413414D01*
X68777235Y-43458794D01*
X68697793Y-43538236D01*
X68690564Y-43554609D01*
X68649763Y-43600204D01*
X68589954Y-43613109D01*
X68533983Y-43588395D01*
X68509436Y-43554609D01*
X68502206Y-43538236D01*
X68502206Y-43538235D01*
X68422765Y-43458794D01*
X68319991Y-43413415D01*
X68319988Y-43413414D01*
X68313179Y-43410408D01*
X68314137Y-43408236D01*
X68272319Y-43380846D01*
X68250616Y-43323638D01*
X68250500Y-43318845D01*
X68250500Y-40014155D01*
X68269407Y-39955964D01*
X68313702Y-39923781D01*
X68313178Y-39922593D01*
X68318684Y-39920161D01*
X68318907Y-39920000D01*
X68319348Y-39919868D01*
X68319988Y-39919585D01*
X68319991Y-39919585D01*
X68422765Y-39874206D01*
X68502206Y-39794765D01*
X68509435Y-39778392D01*
X68550232Y-39732797D01*
X68610040Y-39719889D01*
X68666013Y-39744601D01*
G37*
%TD.AperFunction*%
%TA.AperFunction,NonConductor*%
G36*
X67416741Y-36891870D02*
G01*
X67447336Y-36944857D01*
X67449500Y-36965444D01*
X67449500Y-38429844D01*
X67430593Y-38488035D01*
X67386297Y-38520218D01*
X67386822Y-38521407D01*
X67381311Y-38523839D01*
X67381093Y-38523999D01*
X67380657Y-38524129D01*
X67277235Y-38569794D01*
X67197794Y-38649235D01*
X67152414Y-38752011D01*
X67149500Y-38777130D01*
X67149500Y-39666860D01*
X67149501Y-39666863D01*
X67152414Y-39691990D01*
X67177756Y-39749385D01*
X67197794Y-39794765D01*
X67277235Y-39874206D01*
X67380009Y-39919585D01*
X67380011Y-39919585D01*
X67386821Y-39922592D01*
X67385860Y-39924766D01*
X67427665Y-39952134D01*
X67449383Y-40009335D01*
X67449500Y-40014154D01*
X67449500Y-43318844D01*
X67430593Y-43377035D01*
X67386297Y-43409218D01*
X67386822Y-43410407D01*
X67381311Y-43412839D01*
X67381093Y-43412999D01*
X67380657Y-43413129D01*
X67380009Y-43413414D01*
X67380009Y-43413415D01*
X67308793Y-43444860D01*
X67277235Y-43458794D01*
X67197794Y-43538235D01*
X67152414Y-43641011D01*
X67149500Y-43666130D01*
X67149500Y-43872799D01*
X67130593Y-43930990D01*
X67081093Y-43966954D01*
X67019907Y-43966954D01*
X66980496Y-43942803D01*
X64432296Y-41394603D01*
X64404519Y-41340086D01*
X64403300Y-41324599D01*
X64403300Y-39589801D01*
X64422207Y-39531610D01*
X64432296Y-39519797D01*
X66995297Y-36956796D01*
X67049814Y-36929019D01*
X67065301Y-36927800D01*
X67135855Y-36927800D01*
X67135857Y-36927800D01*
X67288584Y-36886877D01*
X67301000Y-36879708D01*
X67360845Y-36866986D01*
X67416741Y-36891870D01*
G37*
%TD.AperFunction*%
%TA.AperFunction,NonConductor*%
G36*
X68908691Y-46505007D02*
G01*
X68944655Y-46554507D01*
X68949500Y-46585100D01*
X68949500Y-48207844D01*
X68930593Y-48266035D01*
X68886297Y-48298218D01*
X68886822Y-48299407D01*
X68881311Y-48301839D01*
X68881093Y-48301999D01*
X68880657Y-48302129D01*
X68777235Y-48347794D01*
X68697793Y-48427236D01*
X68690564Y-48443609D01*
X68649763Y-48489204D01*
X68589954Y-48502109D01*
X68533983Y-48477395D01*
X68509436Y-48443609D01*
X68502206Y-48427236D01*
X68502206Y-48427235D01*
X68422765Y-48347794D01*
X68319991Y-48302415D01*
X68319990Y-48302414D01*
X68319988Y-48302414D01*
X68294868Y-48299500D01*
X67405139Y-48299500D01*
X67405136Y-48299501D01*
X67380009Y-48302414D01*
X67277233Y-48347795D01*
X67239864Y-48385164D01*
X67185347Y-48412941D01*
X67124915Y-48403369D01*
X67099857Y-48385164D01*
X66271082Y-47556389D01*
X65394213Y-46679520D01*
X65379172Y-46670836D01*
X65338232Y-46625367D01*
X65331836Y-46564517D01*
X65362429Y-46511529D01*
X65418324Y-46486642D01*
X65428673Y-46486100D01*
X68850500Y-46486100D01*
X68908691Y-46505007D01*
G37*
%TD.AperFunction*%
M02*
