%TF.GenerationSoftware,KiCad,Pcbnew,10.0.3*%
%TF.CreationDate,2026-09-16T00:48:09-04:00*%
%TF.ProjectId,NeuralCard,4e657572-616c-4436-9172-642e6b696361,v3.0.0-dev*%
%TF.SameCoordinates,Original*%
%TF.FileFunction,Drillmap*%
%TF.FilePolarity,Positive*%
%FSLAX45Y45*%
G04 Gerber Fmt 4.5, Leading zero omitted, Abs format (unit mm)*
G04 Created by KiCad (PCBNEW 10.0.3) date 2026-09-16 00:48:09*
%MOMM*%
%LPD*%
G01*
G04 APERTURE LIST*
%ADD10C,0.100000*%
%ADD11C,0.200000*%
%ADD12C,0.190000*%
G04 APERTURE END LIST*
D10*
X0Y-318000D02*
G75*
G02*
X318000Y0I318000J0D01*
G01*
X0Y-5080000D02*
X0Y-318000D01*
X318000Y0D02*
X8242000Y0D01*
X318000Y-5398000D02*
G75*
G02*
X0Y-5080000I0J318000D01*
G01*
X8242000Y0D02*
G75*
G02*
X8560000Y-318000I0J-318000D01*
G01*
X8242000Y-5398000D02*
X318000Y-5398000D01*
X8560000Y-318000D02*
X8560000Y-5080000D01*
X8560000Y-5080000D02*
G75*
G02*
X8242000Y-5398000I-318000J0D01*
G01*
D11*
D10*
X569080Y-1015380D02*
X599080Y-1045380D01*
X599080Y-1015380D02*
X569080Y-1045380D01*
X821430Y-955880D02*
X851430Y-985880D01*
X851430Y-955880D02*
X821430Y-985880D01*
X1008690Y-957690D02*
X1038690Y-987690D01*
X1038690Y-957690D02*
X1008690Y-987690D01*
X1353300Y-1359170D02*
X1383300Y-1389170D01*
X1383300Y-1359170D02*
X1353300Y-1389170D01*
X1669410Y-931180D02*
X1699410Y-961180D01*
X1699410Y-931180D02*
X1669410Y-961180D01*
X1678590Y-2933040D02*
X1708590Y-2963040D01*
X1708590Y-2933040D02*
X1678590Y-2963040D01*
X1745580Y-905030D02*
X1775580Y-935030D01*
X1775580Y-905030D02*
X1745580Y-935030D01*
X1763550Y-1202480D02*
X1793550Y-1232480D01*
X1793550Y-1202480D02*
X1763550Y-1232480D01*
X1869920Y-802780D02*
X1899920Y-832780D01*
X1899920Y-802780D02*
X1869920Y-832780D01*
X1887410Y-973700D02*
X1917410Y-1003700D01*
X1917410Y-973700D02*
X1887410Y-1003700D01*
X1912240Y-2390100D02*
X1942240Y-2420100D01*
X1942240Y-2390100D02*
X1912240Y-2420100D01*
X1916490Y-1235130D02*
X1946490Y-1265130D01*
X1946490Y-1235130D02*
X1916490Y-1265130D01*
X1922280Y-1121380D02*
X1952280Y-1151380D01*
X1952280Y-1121380D02*
X1922280Y-1151380D01*
X1922910Y-2131180D02*
X1952910Y-2161180D01*
X1952910Y-2131180D02*
X1922910Y-2161180D01*
X1926710Y-1881170D02*
X1956710Y-1911170D01*
X1956710Y-1881170D02*
X1926710Y-1911170D01*
X1972300Y-2055840D02*
X2002300Y-2085840D01*
X2002300Y-2055840D02*
X1972300Y-2085840D01*
X2089650Y-1275230D02*
X2119650Y-1305230D01*
X2119650Y-1275230D02*
X2089650Y-1305230D01*
X2131430Y-2599870D02*
X2161430Y-2629870D01*
X2161430Y-2599870D02*
X2131430Y-2629870D01*
X2174090Y-1260530D02*
X2204090Y-1290530D01*
X2204090Y-1260530D02*
X2174090Y-1290530D01*
X2373460Y-1299840D02*
X2403460Y-1329840D01*
X2403460Y-1299840D02*
X2373460Y-1329840D01*
X2431290Y-3229050D02*
X2461290Y-3259050D01*
X2461290Y-3229050D02*
X2431290Y-3259050D01*
X2432010Y-2055840D02*
X2462010Y-2085840D01*
X2462010Y-2055840D02*
X2432010Y-2085840D01*
X2432190Y-2390100D02*
X2462190Y-2420100D01*
X2462190Y-2390100D02*
X2432190Y-2420100D01*
X2452280Y-2599870D02*
X2482280Y-2629870D01*
X2482280Y-2599870D02*
X2452280Y-2629870D01*
X2492800Y-2203950D02*
X2522800Y-2233950D01*
X2522800Y-2203950D02*
X2492800Y-2233950D01*
X2509220Y-2656150D02*
X2539220Y-2686150D01*
X2539220Y-2656150D02*
X2509220Y-2686150D01*
X2520440Y-2126800D02*
X2550440Y-2156800D01*
X2550440Y-2126800D02*
X2520440Y-2156800D01*
X2619070Y-1345610D02*
X2649070Y-1375610D01*
X2649070Y-1345610D02*
X2619070Y-1375610D01*
X2648230Y-1235190D02*
X2678230Y-1265190D01*
X2678230Y-1235190D02*
X2648230Y-1265190D01*
X2736210Y-1306090D02*
X2766210Y-1336090D01*
X2766210Y-1306090D02*
X2736210Y-1336090D01*
X2742060Y-1180610D02*
X2772060Y-1210610D01*
X2772060Y-1180610D02*
X2742060Y-1210610D01*
X2853260Y-1028050D02*
X2883260Y-1058050D01*
X2883260Y-1028050D02*
X2853260Y-1058050D01*
X2936250Y-907060D02*
X2966250Y-937060D01*
X2966250Y-907060D02*
X2936250Y-937060D01*
X3479250Y-877120D02*
X3509250Y-907120D01*
X3509250Y-877120D02*
X3479250Y-907120D01*
X3484740Y-1097980D02*
X3514740Y-1127980D01*
X3514740Y-1097980D02*
X3484740Y-1127980D01*
X3523220Y-1543340D02*
X3553220Y-1573340D01*
X3553220Y-1543340D02*
X3523220Y-1573340D01*
X3847530Y-242360D02*
X3877530Y-272360D01*
X3877530Y-242360D02*
X3847530Y-272360D01*
X3860550Y-319610D02*
X3890550Y-349610D01*
X3890550Y-319610D02*
X3860550Y-349610D01*
X3881810Y-911250D02*
X3911810Y-941250D01*
X3911810Y-911250D02*
X3881810Y-941250D01*
X4166820Y-1097980D02*
X4196820Y-1127980D01*
X4196820Y-1097980D02*
X4166820Y-1127980D01*
X4203250Y-4241890D02*
X4233250Y-4271890D01*
X4233250Y-4241890D02*
X4203250Y-4271890D01*
X4436360Y-3580360D02*
X4466360Y-3610360D01*
X4466360Y-3580360D02*
X4436360Y-3610360D01*
X4489850Y-2214750D02*
X4519850Y-2244750D01*
X4519850Y-2214750D02*
X4489850Y-2244750D01*
X4493220Y-3887030D02*
X4523220Y-3917030D01*
X4523220Y-3887030D02*
X4493220Y-3917030D01*
X4617860Y-530340D02*
X4647860Y-560340D01*
X4647860Y-530340D02*
X4617860Y-560340D01*
X5147500Y-415160D02*
X5177500Y-445160D01*
X5177500Y-415160D02*
X5147500Y-445160D01*
X5205400Y-4598640D02*
X5235400Y-4628640D01*
X5235400Y-4598640D02*
X5205400Y-4628640D01*
X5693580Y-378140D02*
X5723580Y-408140D01*
X5723580Y-378140D02*
X5693580Y-408140D01*
X6120370Y-3887030D02*
X6150370Y-3917030D01*
X6150370Y-3887030D02*
X6120370Y-3917030D01*
X6632080Y-298530D02*
X6662080Y-328530D01*
X6662080Y-298530D02*
X6632080Y-328530D01*
X6935350Y-4598640D02*
X6965350Y-4628640D01*
X6965350Y-4598640D02*
X6935350Y-4628640D01*
X7331390Y-1724080D02*
X7361390Y-1754080D01*
X7361390Y-1724080D02*
X7331390Y-1754080D01*
X7370940Y-1522340D02*
X7400940Y-1552340D01*
X7400940Y-1522340D02*
X7370940Y-1552340D01*
X7550210Y-1604310D02*
X7580210Y-1634310D01*
X7580210Y-1604310D02*
X7550210Y-1634310D01*
X7595000Y-769220D02*
X7625000Y-799220D01*
X7625000Y-769220D02*
X7595000Y-799220D01*
X8181850Y-769220D02*
X8211850Y-799220D01*
X8211850Y-769220D02*
X8181850Y-799220D01*
X815000Y-1420000D02*
G75*
G02*
X785000Y-1420000I-15000J0D01*
G01*
X785000Y-1420000D02*
G75*
G02*
X815000Y-1420000I15000J0D01*
G01*
X865000Y-2280000D02*
G75*
G02*
X835000Y-2280000I-15000J0D01*
G01*
X835000Y-2280000D02*
G75*
G02*
X865000Y-2280000I15000J0D01*
G01*
X7999000Y-977000D02*
X7999000Y-1057000D01*
X7959000Y-1017000D02*
X8039000Y-1017000D01*
X8039001Y-977000D02*
X7958999Y-977000D01*
X7958999Y-1057000D02*
G75*
G02*
X7958999Y-977000I0J40000D01*
G01*
X7958999Y-1057000D02*
X8039001Y-1057000D01*
X8039001Y-1057000D02*
G75*
G03*
X8039001Y-977000I0J40000D01*
G01*
X7999000Y-1843000D02*
X7999000Y-1923000D01*
X7959000Y-1883000D02*
X8039000Y-1883000D01*
X8038999Y-1843000D02*
X7959001Y-1843000D01*
X7959001Y-1923000D02*
G75*
G02*
X7959001Y-1843000I0J40000D01*
G01*
X7959001Y-1923000D02*
X8038999Y-1923000D01*
X8038999Y-1923000D02*
G75*
G03*
X8038999Y-1843000I0J40000D01*
G01*
X8417000Y-977000D02*
X8417000Y-1057000D01*
X8377000Y-1017000D02*
X8457000Y-1017000D01*
X8447000Y-977000D02*
X8387000Y-977000D01*
X8387000Y-1057000D02*
G75*
G02*
X8387000Y-977000I0J40000D01*
G01*
X8387000Y-1057000D02*
X8447000Y-1057000D01*
X8447000Y-1057000D02*
G75*
G03*
X8447000Y-977000I0J40000D01*
G01*
X8417000Y-1843000D02*
X8417000Y-1923000D01*
X8377000Y-1883000D02*
X8457000Y-1883000D01*
X8447000Y-1843000D02*
X8387000Y-1843000D01*
X8387000Y-1923000D02*
G75*
G02*
X8387000Y-1843000I0J40000D01*
G01*
X8387000Y-1923000D02*
X8447000Y-1923000D01*
X8447000Y-1923000D02*
G75*
G03*
X8447000Y-1843000I0J40000D01*
G01*
D12*
X4997176Y-2867176D02*
X4997176Y-2732824D01*
X4862824Y-2732824D01*
X4862824Y-2867176D01*
X4997176Y-2867176D01*
X7537176Y-2867176D02*
X7537176Y-2732824D01*
X7402824Y-2732824D01*
X7402824Y-2867176D01*
X7537176Y-2867176D01*
D10*
X8049000Y-1197500D02*
X8086500Y-1160000D01*
X8049000Y-1122500D01*
X8011500Y-1160000D01*
X8049000Y-1197500D01*
X8049000Y-1777500D02*
X8086500Y-1740000D01*
X8049000Y-1702500D01*
X8011500Y-1740000D01*
X8049000Y-1777500D01*
X8103000Y-2607500D02*
X8188000Y-2692500D01*
X8188000Y-2607500D02*
X8103000Y-2692500D01*
X8188000Y-2650000D02*
G75*
G02*
X8103000Y-2650000I-42500J0D01*
G01*
X8103000Y-2650000D02*
G75*
G02*
X8188000Y-2650000I42500J0D01*
G01*
X8103000Y-2907500D02*
X8188000Y-2992500D01*
X8188000Y-2907500D02*
X8103000Y-2992500D01*
X8188000Y-2950000D02*
G75*
G02*
X8103000Y-2950000I-42500J0D01*
G01*
X8103000Y-2950000D02*
G75*
G02*
X8188000Y-2950000I42500J0D01*
G01*
D11*
X255777Y-5714484D02*
X255777Y-5514484D01*
X255777Y-5514484D02*
X303396Y-5514484D01*
X303396Y-5514484D02*
X331967Y-5524008D01*
X331967Y-5524008D02*
X351015Y-5543055D01*
X351015Y-5543055D02*
X360539Y-5562103D01*
X360539Y-5562103D02*
X370062Y-5600198D01*
X370062Y-5600198D02*
X370062Y-5628769D01*
X370062Y-5628769D02*
X360539Y-5666865D01*
X360539Y-5666865D02*
X351015Y-5685912D01*
X351015Y-5685912D02*
X331967Y-5704960D01*
X331967Y-5704960D02*
X303396Y-5714484D01*
X303396Y-5714484D02*
X255777Y-5714484D01*
X455777Y-5714484D02*
X455777Y-5581150D01*
X455777Y-5619246D02*
X465301Y-5600198D01*
X465301Y-5600198D02*
X474824Y-5590674D01*
X474824Y-5590674D02*
X493872Y-5581150D01*
X493872Y-5581150D02*
X512920Y-5581150D01*
X579586Y-5714484D02*
X579586Y-5581150D01*
X579586Y-5514484D02*
X570063Y-5524008D01*
X570063Y-5524008D02*
X579586Y-5533531D01*
X579586Y-5533531D02*
X589110Y-5524008D01*
X589110Y-5524008D02*
X579586Y-5514484D01*
X579586Y-5514484D02*
X579586Y-5533531D01*
X703396Y-5714484D02*
X684348Y-5704960D01*
X684348Y-5704960D02*
X674824Y-5685912D01*
X674824Y-5685912D02*
X674824Y-5514484D01*
X808158Y-5714484D02*
X789110Y-5704960D01*
X789110Y-5704960D02*
X779586Y-5685912D01*
X779586Y-5685912D02*
X779586Y-5514484D01*
X1036729Y-5714484D02*
X1036729Y-5514484D01*
X1036729Y-5514484D02*
X1103396Y-5657341D01*
X1103396Y-5657341D02*
X1170063Y-5514484D01*
X1170063Y-5514484D02*
X1170063Y-5714484D01*
X1351015Y-5714484D02*
X1351015Y-5609722D01*
X1351015Y-5609722D02*
X1341491Y-5590674D01*
X1341491Y-5590674D02*
X1322444Y-5581150D01*
X1322444Y-5581150D02*
X1284348Y-5581150D01*
X1284348Y-5581150D02*
X1265301Y-5590674D01*
X1351015Y-5704960D02*
X1331967Y-5714484D01*
X1331967Y-5714484D02*
X1284348Y-5714484D01*
X1284348Y-5714484D02*
X1265301Y-5704960D01*
X1265301Y-5704960D02*
X1255777Y-5685912D01*
X1255777Y-5685912D02*
X1255777Y-5666865D01*
X1255777Y-5666865D02*
X1265301Y-5647817D01*
X1265301Y-5647817D02*
X1284348Y-5638293D01*
X1284348Y-5638293D02*
X1331967Y-5638293D01*
X1331967Y-5638293D02*
X1351015Y-5628769D01*
X1446253Y-5581150D02*
X1446253Y-5781150D01*
X1446253Y-5590674D02*
X1465301Y-5581150D01*
X1465301Y-5581150D02*
X1503396Y-5581150D01*
X1503396Y-5581150D02*
X1522443Y-5590674D01*
X1522443Y-5590674D02*
X1531967Y-5600198D01*
X1531967Y-5600198D02*
X1541491Y-5619246D01*
X1541491Y-5619246D02*
X1541491Y-5676388D01*
X1541491Y-5676388D02*
X1531967Y-5695436D01*
X1531967Y-5695436D02*
X1522443Y-5704960D01*
X1522443Y-5704960D02*
X1503396Y-5714484D01*
X1503396Y-5714484D02*
X1465301Y-5714484D01*
X1465301Y-5714484D02*
X1446253Y-5704960D01*
X1627205Y-5695436D02*
X1636729Y-5704960D01*
X1636729Y-5704960D02*
X1627205Y-5714484D01*
X1627205Y-5714484D02*
X1617682Y-5704960D01*
X1617682Y-5704960D02*
X1627205Y-5695436D01*
X1627205Y-5695436D02*
X1627205Y-5714484D01*
X1627205Y-5590674D02*
X1636729Y-5600198D01*
X1636729Y-5600198D02*
X1627205Y-5609722D01*
X1627205Y-5609722D02*
X1617682Y-5600198D01*
X1617682Y-5600198D02*
X1627205Y-5590674D01*
X1627205Y-5590674D02*
X1627205Y-5609722D01*
D10*
X-35000Y-6028000D02*
X-5000Y-6058000D01*
X-5000Y-6028000D02*
X-35000Y-6058000D01*
D11*
X293872Y-5934484D02*
X312920Y-5934484D01*
X312920Y-5934484D02*
X331967Y-5944008D01*
X331967Y-5944008D02*
X341491Y-5953531D01*
X341491Y-5953531D02*
X351015Y-5972579D01*
X351015Y-5972579D02*
X360539Y-6010674D01*
X360539Y-6010674D02*
X360539Y-6058293D01*
X360539Y-6058293D02*
X351015Y-6096388D01*
X351015Y-6096388D02*
X341491Y-6115436D01*
X341491Y-6115436D02*
X331967Y-6124960D01*
X331967Y-6124960D02*
X312920Y-6134484D01*
X312920Y-6134484D02*
X293872Y-6134484D01*
X293872Y-6134484D02*
X274824Y-6124960D01*
X274824Y-6124960D02*
X265301Y-6115436D01*
X265301Y-6115436D02*
X255777Y-6096388D01*
X255777Y-6096388D02*
X246253Y-6058293D01*
X246253Y-6058293D02*
X246253Y-6010674D01*
X246253Y-6010674D02*
X255777Y-5972579D01*
X255777Y-5972579D02*
X265301Y-5953531D01*
X265301Y-5953531D02*
X274824Y-5944008D01*
X274824Y-5944008D02*
X293872Y-5934484D01*
X446253Y-6115436D02*
X455777Y-6124960D01*
X455777Y-6124960D02*
X446253Y-6134484D01*
X446253Y-6134484D02*
X436729Y-6124960D01*
X436729Y-6124960D02*
X446253Y-6115436D01*
X446253Y-6115436D02*
X446253Y-6134484D01*
X522443Y-5934484D02*
X646253Y-5934484D01*
X646253Y-5934484D02*
X579586Y-6010674D01*
X579586Y-6010674D02*
X608158Y-6010674D01*
X608158Y-6010674D02*
X627205Y-6020198D01*
X627205Y-6020198D02*
X636729Y-6029722D01*
X636729Y-6029722D02*
X646253Y-6048769D01*
X646253Y-6048769D02*
X646253Y-6096388D01*
X646253Y-6096388D02*
X636729Y-6115436D01*
X636729Y-6115436D02*
X627205Y-6124960D01*
X627205Y-6124960D02*
X608158Y-6134484D01*
X608158Y-6134484D02*
X551015Y-6134484D01*
X551015Y-6134484D02*
X531967Y-6124960D01*
X531967Y-6124960D02*
X522443Y-6115436D01*
X770062Y-5934484D02*
X789110Y-5934484D01*
X789110Y-5934484D02*
X808158Y-5944008D01*
X808158Y-5944008D02*
X817682Y-5953531D01*
X817682Y-5953531D02*
X827205Y-5972579D01*
X827205Y-5972579D02*
X836729Y-6010674D01*
X836729Y-6010674D02*
X836729Y-6058293D01*
X836729Y-6058293D02*
X827205Y-6096388D01*
X827205Y-6096388D02*
X817682Y-6115436D01*
X817682Y-6115436D02*
X808158Y-6124960D01*
X808158Y-6124960D02*
X789110Y-6134484D01*
X789110Y-6134484D02*
X770062Y-6134484D01*
X770062Y-6134484D02*
X751015Y-6124960D01*
X751015Y-6124960D02*
X741491Y-6115436D01*
X741491Y-6115436D02*
X731967Y-6096388D01*
X731967Y-6096388D02*
X722443Y-6058293D01*
X722443Y-6058293D02*
X722443Y-6010674D01*
X722443Y-6010674D02*
X731967Y-5972579D01*
X731967Y-5972579D02*
X741491Y-5953531D01*
X741491Y-5953531D02*
X751015Y-5944008D01*
X751015Y-5944008D02*
X770062Y-5934484D01*
X960539Y-5934484D02*
X979586Y-5934484D01*
X979586Y-5934484D02*
X998634Y-5944008D01*
X998634Y-5944008D02*
X1008158Y-5953531D01*
X1008158Y-5953531D02*
X1017682Y-5972579D01*
X1017682Y-5972579D02*
X1027205Y-6010674D01*
X1027205Y-6010674D02*
X1027205Y-6058293D01*
X1027205Y-6058293D02*
X1017682Y-6096388D01*
X1017682Y-6096388D02*
X1008158Y-6115436D01*
X1008158Y-6115436D02*
X998634Y-6124960D01*
X998634Y-6124960D02*
X979586Y-6134484D01*
X979586Y-6134484D02*
X960539Y-6134484D01*
X960539Y-6134484D02*
X941491Y-6124960D01*
X941491Y-6124960D02*
X931967Y-6115436D01*
X931967Y-6115436D02*
X922443Y-6096388D01*
X922443Y-6096388D02*
X912920Y-6058293D01*
X912920Y-6058293D02*
X912920Y-6010674D01*
X912920Y-6010674D02*
X922443Y-5972579D01*
X922443Y-5972579D02*
X931967Y-5953531D01*
X931967Y-5953531D02*
X941491Y-5944008D01*
X941491Y-5944008D02*
X960539Y-5934484D01*
X1112920Y-6134484D02*
X1112920Y-6001150D01*
X1112920Y-6020198D02*
X1122444Y-6010674D01*
X1122444Y-6010674D02*
X1141491Y-6001150D01*
X1141491Y-6001150D02*
X1170063Y-6001150D01*
X1170063Y-6001150D02*
X1189110Y-6010674D01*
X1189110Y-6010674D02*
X1198634Y-6029722D01*
X1198634Y-6029722D02*
X1198634Y-6134484D01*
X1198634Y-6029722D02*
X1208158Y-6010674D01*
X1208158Y-6010674D02*
X1227205Y-6001150D01*
X1227205Y-6001150D02*
X1255777Y-6001150D01*
X1255777Y-6001150D02*
X1274825Y-6010674D01*
X1274825Y-6010674D02*
X1284348Y-6029722D01*
X1284348Y-6029722D02*
X1284348Y-6134484D01*
X1379586Y-6134484D02*
X1379586Y-6001150D01*
X1379586Y-6020198D02*
X1389110Y-6010674D01*
X1389110Y-6010674D02*
X1408158Y-6001150D01*
X1408158Y-6001150D02*
X1436729Y-6001150D01*
X1436729Y-6001150D02*
X1455777Y-6010674D01*
X1455777Y-6010674D02*
X1465301Y-6029722D01*
X1465301Y-6029722D02*
X1465301Y-6134484D01*
X1465301Y-6029722D02*
X1474824Y-6010674D01*
X1474824Y-6010674D02*
X1493872Y-6001150D01*
X1493872Y-6001150D02*
X1522443Y-6001150D01*
X1522443Y-6001150D02*
X1541491Y-6010674D01*
X1541491Y-6010674D02*
X1551015Y-6029722D01*
X1551015Y-6029722D02*
X1551015Y-6134484D01*
X1941491Y-5924960D02*
X1770063Y-6182103D01*
X2198634Y-5934484D02*
X2217682Y-5934484D01*
X2217682Y-5934484D02*
X2236729Y-5944008D01*
X2236729Y-5944008D02*
X2246253Y-5953531D01*
X2246253Y-5953531D02*
X2255777Y-5972579D01*
X2255777Y-5972579D02*
X2265301Y-6010674D01*
X2265301Y-6010674D02*
X2265301Y-6058293D01*
X2265301Y-6058293D02*
X2255777Y-6096388D01*
X2255777Y-6096388D02*
X2246253Y-6115436D01*
X2246253Y-6115436D02*
X2236729Y-6124960D01*
X2236729Y-6124960D02*
X2217682Y-6134484D01*
X2217682Y-6134484D02*
X2198634Y-6134484D01*
X2198634Y-6134484D02*
X2179587Y-6124960D01*
X2179587Y-6124960D02*
X2170063Y-6115436D01*
X2170063Y-6115436D02*
X2160539Y-6096388D01*
X2160539Y-6096388D02*
X2151015Y-6058293D01*
X2151015Y-6058293D02*
X2151015Y-6010674D01*
X2151015Y-6010674D02*
X2160539Y-5972579D01*
X2160539Y-5972579D02*
X2170063Y-5953531D01*
X2170063Y-5953531D02*
X2179587Y-5944008D01*
X2179587Y-5944008D02*
X2198634Y-5934484D01*
X2351015Y-6115436D02*
X2360539Y-6124960D01*
X2360539Y-6124960D02*
X2351015Y-6134484D01*
X2351015Y-6134484D02*
X2341491Y-6124960D01*
X2341491Y-6124960D02*
X2351015Y-6115436D01*
X2351015Y-6115436D02*
X2351015Y-6134484D01*
X2484348Y-5934484D02*
X2503396Y-5934484D01*
X2503396Y-5934484D02*
X2522444Y-5944008D01*
X2522444Y-5944008D02*
X2531968Y-5953531D01*
X2531968Y-5953531D02*
X2541491Y-5972579D01*
X2541491Y-5972579D02*
X2551015Y-6010674D01*
X2551015Y-6010674D02*
X2551015Y-6058293D01*
X2551015Y-6058293D02*
X2541491Y-6096388D01*
X2541491Y-6096388D02*
X2531968Y-6115436D01*
X2531968Y-6115436D02*
X2522444Y-6124960D01*
X2522444Y-6124960D02*
X2503396Y-6134484D01*
X2503396Y-6134484D02*
X2484348Y-6134484D01*
X2484348Y-6134484D02*
X2465301Y-6124960D01*
X2465301Y-6124960D02*
X2455777Y-6115436D01*
X2455777Y-6115436D02*
X2446253Y-6096388D01*
X2446253Y-6096388D02*
X2436729Y-6058293D01*
X2436729Y-6058293D02*
X2436729Y-6010674D01*
X2436729Y-6010674D02*
X2446253Y-5972579D01*
X2446253Y-5972579D02*
X2455777Y-5953531D01*
X2455777Y-5953531D02*
X2465301Y-5944008D01*
X2465301Y-5944008D02*
X2484348Y-5934484D01*
X2741491Y-6134484D02*
X2627206Y-6134484D01*
X2684348Y-6134484D02*
X2684348Y-5934484D01*
X2684348Y-5934484D02*
X2665301Y-5963055D01*
X2665301Y-5963055D02*
X2646253Y-5982103D01*
X2646253Y-5982103D02*
X2627206Y-5991627D01*
X2931967Y-6134484D02*
X2817682Y-6134484D01*
X2874825Y-6134484D02*
X2874825Y-5934484D01*
X2874825Y-5934484D02*
X2855777Y-5963055D01*
X2855777Y-5963055D02*
X2836729Y-5982103D01*
X2836729Y-5982103D02*
X2817682Y-5991627D01*
X3046253Y-6020198D02*
X3027206Y-6010674D01*
X3027206Y-6010674D02*
X3017682Y-6001150D01*
X3017682Y-6001150D02*
X3008158Y-5982103D01*
X3008158Y-5982103D02*
X3008158Y-5972579D01*
X3008158Y-5972579D02*
X3017682Y-5953531D01*
X3017682Y-5953531D02*
X3027206Y-5944008D01*
X3027206Y-5944008D02*
X3046253Y-5934484D01*
X3046253Y-5934484D02*
X3084348Y-5934484D01*
X3084348Y-5934484D02*
X3103396Y-5944008D01*
X3103396Y-5944008D02*
X3112920Y-5953531D01*
X3112920Y-5953531D02*
X3122444Y-5972579D01*
X3122444Y-5972579D02*
X3122444Y-5982103D01*
X3122444Y-5982103D02*
X3112920Y-6001150D01*
X3112920Y-6001150D02*
X3103396Y-6010674D01*
X3103396Y-6010674D02*
X3084348Y-6020198D01*
X3084348Y-6020198D02*
X3046253Y-6020198D01*
X3046253Y-6020198D02*
X3027206Y-6029722D01*
X3027206Y-6029722D02*
X3017682Y-6039246D01*
X3017682Y-6039246D02*
X3008158Y-6058293D01*
X3008158Y-6058293D02*
X3008158Y-6096388D01*
X3008158Y-6096388D02*
X3017682Y-6115436D01*
X3017682Y-6115436D02*
X3027206Y-6124960D01*
X3027206Y-6124960D02*
X3046253Y-6134484D01*
X3046253Y-6134484D02*
X3084348Y-6134484D01*
X3084348Y-6134484D02*
X3103396Y-6124960D01*
X3103396Y-6124960D02*
X3112920Y-6115436D01*
X3112920Y-6115436D02*
X3122444Y-6096388D01*
X3122444Y-6096388D02*
X3122444Y-6058293D01*
X3122444Y-6058293D02*
X3112920Y-6039246D01*
X3112920Y-6039246D02*
X3103396Y-6029722D01*
X3103396Y-6029722D02*
X3084348Y-6020198D01*
X3198634Y-5934484D02*
X3198634Y-5972579D01*
X3274825Y-5934484D02*
X3274825Y-5972579D01*
X3570063Y-6210674D02*
X3560539Y-6201150D01*
X3560539Y-6201150D02*
X3541491Y-6172579D01*
X3541491Y-6172579D02*
X3531968Y-6153531D01*
X3531968Y-6153531D02*
X3522444Y-6124960D01*
X3522444Y-6124960D02*
X3512920Y-6077341D01*
X3512920Y-6077341D02*
X3512920Y-6039246D01*
X3512920Y-6039246D02*
X3522444Y-5991627D01*
X3522444Y-5991627D02*
X3531968Y-5963055D01*
X3531968Y-5963055D02*
X3541491Y-5944008D01*
X3541491Y-5944008D02*
X3560539Y-5915436D01*
X3560539Y-5915436D02*
X3570063Y-5905912D01*
X3741491Y-5934484D02*
X3646253Y-5934484D01*
X3646253Y-5934484D02*
X3636729Y-6029722D01*
X3636729Y-6029722D02*
X3646253Y-6020198D01*
X3646253Y-6020198D02*
X3665301Y-6010674D01*
X3665301Y-6010674D02*
X3712920Y-6010674D01*
X3712920Y-6010674D02*
X3731968Y-6020198D01*
X3731968Y-6020198D02*
X3741491Y-6029722D01*
X3741491Y-6029722D02*
X3751015Y-6048769D01*
X3751015Y-6048769D02*
X3751015Y-6096388D01*
X3751015Y-6096388D02*
X3741491Y-6115436D01*
X3741491Y-6115436D02*
X3731968Y-6124960D01*
X3731968Y-6124960D02*
X3712920Y-6134484D01*
X3712920Y-6134484D02*
X3665301Y-6134484D01*
X3665301Y-6134484D02*
X3646253Y-6124960D01*
X3646253Y-6124960D02*
X3636729Y-6115436D01*
X3922444Y-5934484D02*
X3884348Y-5934484D01*
X3884348Y-5934484D02*
X3865301Y-5944008D01*
X3865301Y-5944008D02*
X3855777Y-5953531D01*
X3855777Y-5953531D02*
X3836729Y-5982103D01*
X3836729Y-5982103D02*
X3827206Y-6020198D01*
X3827206Y-6020198D02*
X3827206Y-6096388D01*
X3827206Y-6096388D02*
X3836729Y-6115436D01*
X3836729Y-6115436D02*
X3846253Y-6124960D01*
X3846253Y-6124960D02*
X3865301Y-6134484D01*
X3865301Y-6134484D02*
X3903396Y-6134484D01*
X3903396Y-6134484D02*
X3922444Y-6124960D01*
X3922444Y-6124960D02*
X3931968Y-6115436D01*
X3931968Y-6115436D02*
X3941491Y-6096388D01*
X3941491Y-6096388D02*
X3941491Y-6048769D01*
X3941491Y-6048769D02*
X3931968Y-6029722D01*
X3931968Y-6029722D02*
X3922444Y-6020198D01*
X3922444Y-6020198D02*
X3903396Y-6010674D01*
X3903396Y-6010674D02*
X3865301Y-6010674D01*
X3865301Y-6010674D02*
X3846253Y-6020198D01*
X3846253Y-6020198D02*
X3836729Y-6029722D01*
X3836729Y-6029722D02*
X3827206Y-6048769D01*
X4179587Y-6134484D02*
X4179587Y-5934484D01*
X4265301Y-6134484D02*
X4265301Y-6029722D01*
X4265301Y-6029722D02*
X4255777Y-6010674D01*
X4255777Y-6010674D02*
X4236730Y-6001150D01*
X4236730Y-6001150D02*
X4208158Y-6001150D01*
X4208158Y-6001150D02*
X4189110Y-6010674D01*
X4189110Y-6010674D02*
X4179587Y-6020198D01*
X4389111Y-6134484D02*
X4370063Y-6124960D01*
X4370063Y-6124960D02*
X4360539Y-6115436D01*
X4360539Y-6115436D02*
X4351015Y-6096388D01*
X4351015Y-6096388D02*
X4351015Y-6039246D01*
X4351015Y-6039246D02*
X4360539Y-6020198D01*
X4360539Y-6020198D02*
X4370063Y-6010674D01*
X4370063Y-6010674D02*
X4389111Y-6001150D01*
X4389111Y-6001150D02*
X4417682Y-6001150D01*
X4417682Y-6001150D02*
X4436730Y-6010674D01*
X4436730Y-6010674D02*
X4446253Y-6020198D01*
X4446253Y-6020198D02*
X4455777Y-6039246D01*
X4455777Y-6039246D02*
X4455777Y-6096388D01*
X4455777Y-6096388D02*
X4446253Y-6115436D01*
X4446253Y-6115436D02*
X4436730Y-6124960D01*
X4436730Y-6124960D02*
X4417682Y-6134484D01*
X4417682Y-6134484D02*
X4389111Y-6134484D01*
X4570063Y-6134484D02*
X4551015Y-6124960D01*
X4551015Y-6124960D02*
X4541492Y-6105912D01*
X4541492Y-6105912D02*
X4541492Y-5934484D01*
X4722444Y-6124960D02*
X4703396Y-6134484D01*
X4703396Y-6134484D02*
X4665301Y-6134484D01*
X4665301Y-6134484D02*
X4646253Y-6124960D01*
X4646253Y-6124960D02*
X4636730Y-6105912D01*
X4636730Y-6105912D02*
X4636730Y-6029722D01*
X4636730Y-6029722D02*
X4646253Y-6010674D01*
X4646253Y-6010674D02*
X4665301Y-6001150D01*
X4665301Y-6001150D02*
X4703396Y-6001150D01*
X4703396Y-6001150D02*
X4722444Y-6010674D01*
X4722444Y-6010674D02*
X4731968Y-6029722D01*
X4731968Y-6029722D02*
X4731968Y-6048769D01*
X4731968Y-6048769D02*
X4636730Y-6067817D01*
X4808158Y-6124960D02*
X4827206Y-6134484D01*
X4827206Y-6134484D02*
X4865301Y-6134484D01*
X4865301Y-6134484D02*
X4884349Y-6124960D01*
X4884349Y-6124960D02*
X4893873Y-6105912D01*
X4893873Y-6105912D02*
X4893873Y-6096388D01*
X4893873Y-6096388D02*
X4884349Y-6077341D01*
X4884349Y-6077341D02*
X4865301Y-6067817D01*
X4865301Y-6067817D02*
X4836730Y-6067817D01*
X4836730Y-6067817D02*
X4817682Y-6058293D01*
X4817682Y-6058293D02*
X4808158Y-6039246D01*
X4808158Y-6039246D02*
X4808158Y-6029722D01*
X4808158Y-6029722D02*
X4817682Y-6010674D01*
X4817682Y-6010674D02*
X4836730Y-6001150D01*
X4836730Y-6001150D02*
X4865301Y-6001150D01*
X4865301Y-6001150D02*
X4884349Y-6010674D01*
X4960539Y-6210674D02*
X4970063Y-6201150D01*
X4970063Y-6201150D02*
X4989111Y-6172579D01*
X4989111Y-6172579D02*
X4998634Y-6153531D01*
X4998634Y-6153531D02*
X5008158Y-6124960D01*
X5008158Y-6124960D02*
X5017682Y-6077341D01*
X5017682Y-6077341D02*
X5017682Y-6039246D01*
X5017682Y-6039246D02*
X5008158Y-5991627D01*
X5008158Y-5991627D02*
X4998634Y-5963055D01*
X4998634Y-5963055D02*
X4989111Y-5944008D01*
X4989111Y-5944008D02*
X4970063Y-5915436D01*
X4970063Y-5915436D02*
X4960539Y-5905912D01*
D10*
X-5000Y-6307000D02*
G75*
G02*
X-35000Y-6307000I-15000J0D01*
G01*
X-35000Y-6307000D02*
G75*
G02*
X-5000Y-6307000I15000J0D01*
G01*
D11*
X293872Y-6198484D02*
X312920Y-6198484D01*
X312920Y-6198484D02*
X331967Y-6208008D01*
X331967Y-6208008D02*
X341491Y-6217531D01*
X341491Y-6217531D02*
X351015Y-6236579D01*
X351015Y-6236579D02*
X360539Y-6274674D01*
X360539Y-6274674D02*
X360539Y-6322293D01*
X360539Y-6322293D02*
X351015Y-6360388D01*
X351015Y-6360388D02*
X341491Y-6379436D01*
X341491Y-6379436D02*
X331967Y-6388960D01*
X331967Y-6388960D02*
X312920Y-6398484D01*
X312920Y-6398484D02*
X293872Y-6398484D01*
X293872Y-6398484D02*
X274824Y-6388960D01*
X274824Y-6388960D02*
X265301Y-6379436D01*
X265301Y-6379436D02*
X255777Y-6360388D01*
X255777Y-6360388D02*
X246253Y-6322293D01*
X246253Y-6322293D02*
X246253Y-6274674D01*
X246253Y-6274674D02*
X255777Y-6236579D01*
X255777Y-6236579D02*
X265301Y-6217531D01*
X265301Y-6217531D02*
X274824Y-6208008D01*
X274824Y-6208008D02*
X293872Y-6198484D01*
X446253Y-6379436D02*
X455777Y-6388960D01*
X455777Y-6388960D02*
X446253Y-6398484D01*
X446253Y-6398484D02*
X436729Y-6388960D01*
X436729Y-6388960D02*
X446253Y-6379436D01*
X446253Y-6379436D02*
X446253Y-6398484D01*
X522443Y-6198484D02*
X646253Y-6198484D01*
X646253Y-6198484D02*
X579586Y-6274674D01*
X579586Y-6274674D02*
X608158Y-6274674D01*
X608158Y-6274674D02*
X627205Y-6284198D01*
X627205Y-6284198D02*
X636729Y-6293722D01*
X636729Y-6293722D02*
X646253Y-6312769D01*
X646253Y-6312769D02*
X646253Y-6360388D01*
X646253Y-6360388D02*
X636729Y-6379436D01*
X636729Y-6379436D02*
X627205Y-6388960D01*
X627205Y-6388960D02*
X608158Y-6398484D01*
X608158Y-6398484D02*
X551015Y-6398484D01*
X551015Y-6398484D02*
X531967Y-6388960D01*
X531967Y-6388960D02*
X522443Y-6379436D01*
X770062Y-6198484D02*
X789110Y-6198484D01*
X789110Y-6198484D02*
X808158Y-6208008D01*
X808158Y-6208008D02*
X817682Y-6217531D01*
X817682Y-6217531D02*
X827205Y-6236579D01*
X827205Y-6236579D02*
X836729Y-6274674D01*
X836729Y-6274674D02*
X836729Y-6322293D01*
X836729Y-6322293D02*
X827205Y-6360388D01*
X827205Y-6360388D02*
X817682Y-6379436D01*
X817682Y-6379436D02*
X808158Y-6388960D01*
X808158Y-6388960D02*
X789110Y-6398484D01*
X789110Y-6398484D02*
X770062Y-6398484D01*
X770062Y-6398484D02*
X751015Y-6388960D01*
X751015Y-6388960D02*
X741491Y-6379436D01*
X741491Y-6379436D02*
X731967Y-6360388D01*
X731967Y-6360388D02*
X722443Y-6322293D01*
X722443Y-6322293D02*
X722443Y-6274674D01*
X722443Y-6274674D02*
X731967Y-6236579D01*
X731967Y-6236579D02*
X741491Y-6217531D01*
X741491Y-6217531D02*
X751015Y-6208008D01*
X751015Y-6208008D02*
X770062Y-6198484D01*
X960539Y-6198484D02*
X979586Y-6198484D01*
X979586Y-6198484D02*
X998634Y-6208008D01*
X998634Y-6208008D02*
X1008158Y-6217531D01*
X1008158Y-6217531D02*
X1017682Y-6236579D01*
X1017682Y-6236579D02*
X1027205Y-6274674D01*
X1027205Y-6274674D02*
X1027205Y-6322293D01*
X1027205Y-6322293D02*
X1017682Y-6360388D01*
X1017682Y-6360388D02*
X1008158Y-6379436D01*
X1008158Y-6379436D02*
X998634Y-6388960D01*
X998634Y-6388960D02*
X979586Y-6398484D01*
X979586Y-6398484D02*
X960539Y-6398484D01*
X960539Y-6398484D02*
X941491Y-6388960D01*
X941491Y-6388960D02*
X931967Y-6379436D01*
X931967Y-6379436D02*
X922443Y-6360388D01*
X922443Y-6360388D02*
X912920Y-6322293D01*
X912920Y-6322293D02*
X912920Y-6274674D01*
X912920Y-6274674D02*
X922443Y-6236579D01*
X922443Y-6236579D02*
X931967Y-6217531D01*
X931967Y-6217531D02*
X941491Y-6208008D01*
X941491Y-6208008D02*
X960539Y-6198484D01*
X1112920Y-6398484D02*
X1112920Y-6265150D01*
X1112920Y-6284198D02*
X1122444Y-6274674D01*
X1122444Y-6274674D02*
X1141491Y-6265150D01*
X1141491Y-6265150D02*
X1170063Y-6265150D01*
X1170063Y-6265150D02*
X1189110Y-6274674D01*
X1189110Y-6274674D02*
X1198634Y-6293722D01*
X1198634Y-6293722D02*
X1198634Y-6398484D01*
X1198634Y-6293722D02*
X1208158Y-6274674D01*
X1208158Y-6274674D02*
X1227205Y-6265150D01*
X1227205Y-6265150D02*
X1255777Y-6265150D01*
X1255777Y-6265150D02*
X1274825Y-6274674D01*
X1274825Y-6274674D02*
X1284348Y-6293722D01*
X1284348Y-6293722D02*
X1284348Y-6398484D01*
X1379586Y-6398484D02*
X1379586Y-6265150D01*
X1379586Y-6284198D02*
X1389110Y-6274674D01*
X1389110Y-6274674D02*
X1408158Y-6265150D01*
X1408158Y-6265150D02*
X1436729Y-6265150D01*
X1436729Y-6265150D02*
X1455777Y-6274674D01*
X1455777Y-6274674D02*
X1465301Y-6293722D01*
X1465301Y-6293722D02*
X1465301Y-6398484D01*
X1465301Y-6293722D02*
X1474824Y-6274674D01*
X1474824Y-6274674D02*
X1493872Y-6265150D01*
X1493872Y-6265150D02*
X1522443Y-6265150D01*
X1522443Y-6265150D02*
X1541491Y-6274674D01*
X1541491Y-6274674D02*
X1551015Y-6293722D01*
X1551015Y-6293722D02*
X1551015Y-6398484D01*
X1941491Y-6188960D02*
X1770063Y-6446103D01*
X2198634Y-6198484D02*
X2217682Y-6198484D01*
X2217682Y-6198484D02*
X2236729Y-6208008D01*
X2236729Y-6208008D02*
X2246253Y-6217531D01*
X2246253Y-6217531D02*
X2255777Y-6236579D01*
X2255777Y-6236579D02*
X2265301Y-6274674D01*
X2265301Y-6274674D02*
X2265301Y-6322293D01*
X2265301Y-6322293D02*
X2255777Y-6360388D01*
X2255777Y-6360388D02*
X2246253Y-6379436D01*
X2246253Y-6379436D02*
X2236729Y-6388960D01*
X2236729Y-6388960D02*
X2217682Y-6398484D01*
X2217682Y-6398484D02*
X2198634Y-6398484D01*
X2198634Y-6398484D02*
X2179587Y-6388960D01*
X2179587Y-6388960D02*
X2170063Y-6379436D01*
X2170063Y-6379436D02*
X2160539Y-6360388D01*
X2160539Y-6360388D02*
X2151015Y-6322293D01*
X2151015Y-6322293D02*
X2151015Y-6274674D01*
X2151015Y-6274674D02*
X2160539Y-6236579D01*
X2160539Y-6236579D02*
X2170063Y-6217531D01*
X2170063Y-6217531D02*
X2179587Y-6208008D01*
X2179587Y-6208008D02*
X2198634Y-6198484D01*
X2351015Y-6379436D02*
X2360539Y-6388960D01*
X2360539Y-6388960D02*
X2351015Y-6398484D01*
X2351015Y-6398484D02*
X2341491Y-6388960D01*
X2341491Y-6388960D02*
X2351015Y-6379436D01*
X2351015Y-6379436D02*
X2351015Y-6398484D01*
X2484348Y-6198484D02*
X2503396Y-6198484D01*
X2503396Y-6198484D02*
X2522444Y-6208008D01*
X2522444Y-6208008D02*
X2531968Y-6217531D01*
X2531968Y-6217531D02*
X2541491Y-6236579D01*
X2541491Y-6236579D02*
X2551015Y-6274674D01*
X2551015Y-6274674D02*
X2551015Y-6322293D01*
X2551015Y-6322293D02*
X2541491Y-6360388D01*
X2541491Y-6360388D02*
X2531968Y-6379436D01*
X2531968Y-6379436D02*
X2522444Y-6388960D01*
X2522444Y-6388960D02*
X2503396Y-6398484D01*
X2503396Y-6398484D02*
X2484348Y-6398484D01*
X2484348Y-6398484D02*
X2465301Y-6388960D01*
X2465301Y-6388960D02*
X2455777Y-6379436D01*
X2455777Y-6379436D02*
X2446253Y-6360388D01*
X2446253Y-6360388D02*
X2436729Y-6322293D01*
X2436729Y-6322293D02*
X2436729Y-6274674D01*
X2436729Y-6274674D02*
X2446253Y-6236579D01*
X2446253Y-6236579D02*
X2455777Y-6217531D01*
X2455777Y-6217531D02*
X2465301Y-6208008D01*
X2465301Y-6208008D02*
X2484348Y-6198484D01*
X2741491Y-6398484D02*
X2627206Y-6398484D01*
X2684348Y-6398484D02*
X2684348Y-6198484D01*
X2684348Y-6198484D02*
X2665301Y-6227055D01*
X2665301Y-6227055D02*
X2646253Y-6246103D01*
X2646253Y-6246103D02*
X2627206Y-6255627D01*
X2931967Y-6398484D02*
X2817682Y-6398484D01*
X2874825Y-6398484D02*
X2874825Y-6198484D01*
X2874825Y-6198484D02*
X2855777Y-6227055D01*
X2855777Y-6227055D02*
X2836729Y-6246103D01*
X2836729Y-6246103D02*
X2817682Y-6255627D01*
X3046253Y-6284198D02*
X3027206Y-6274674D01*
X3027206Y-6274674D02*
X3017682Y-6265150D01*
X3017682Y-6265150D02*
X3008158Y-6246103D01*
X3008158Y-6246103D02*
X3008158Y-6236579D01*
X3008158Y-6236579D02*
X3017682Y-6217531D01*
X3017682Y-6217531D02*
X3027206Y-6208008D01*
X3027206Y-6208008D02*
X3046253Y-6198484D01*
X3046253Y-6198484D02*
X3084348Y-6198484D01*
X3084348Y-6198484D02*
X3103396Y-6208008D01*
X3103396Y-6208008D02*
X3112920Y-6217531D01*
X3112920Y-6217531D02*
X3122444Y-6236579D01*
X3122444Y-6236579D02*
X3122444Y-6246103D01*
X3122444Y-6246103D02*
X3112920Y-6265150D01*
X3112920Y-6265150D02*
X3103396Y-6274674D01*
X3103396Y-6274674D02*
X3084348Y-6284198D01*
X3084348Y-6284198D02*
X3046253Y-6284198D01*
X3046253Y-6284198D02*
X3027206Y-6293722D01*
X3027206Y-6293722D02*
X3017682Y-6303246D01*
X3017682Y-6303246D02*
X3008158Y-6322293D01*
X3008158Y-6322293D02*
X3008158Y-6360388D01*
X3008158Y-6360388D02*
X3017682Y-6379436D01*
X3017682Y-6379436D02*
X3027206Y-6388960D01*
X3027206Y-6388960D02*
X3046253Y-6398484D01*
X3046253Y-6398484D02*
X3084348Y-6398484D01*
X3084348Y-6398484D02*
X3103396Y-6388960D01*
X3103396Y-6388960D02*
X3112920Y-6379436D01*
X3112920Y-6379436D02*
X3122444Y-6360388D01*
X3122444Y-6360388D02*
X3122444Y-6322293D01*
X3122444Y-6322293D02*
X3112920Y-6303246D01*
X3112920Y-6303246D02*
X3103396Y-6293722D01*
X3103396Y-6293722D02*
X3084348Y-6284198D01*
X3198634Y-6198484D02*
X3198634Y-6236579D01*
X3274825Y-6198484D02*
X3274825Y-6236579D01*
X3570063Y-6474674D02*
X3560539Y-6465150D01*
X3560539Y-6465150D02*
X3541491Y-6436579D01*
X3541491Y-6436579D02*
X3531968Y-6417531D01*
X3531968Y-6417531D02*
X3522444Y-6388960D01*
X3522444Y-6388960D02*
X3512920Y-6341341D01*
X3512920Y-6341341D02*
X3512920Y-6303246D01*
X3512920Y-6303246D02*
X3522444Y-6255627D01*
X3522444Y-6255627D02*
X3531968Y-6227055D01*
X3531968Y-6227055D02*
X3541491Y-6208008D01*
X3541491Y-6208008D02*
X3560539Y-6179436D01*
X3560539Y-6179436D02*
X3570063Y-6169912D01*
X3636729Y-6217531D02*
X3646253Y-6208008D01*
X3646253Y-6208008D02*
X3665301Y-6198484D01*
X3665301Y-6198484D02*
X3712920Y-6198484D01*
X3712920Y-6198484D02*
X3731968Y-6208008D01*
X3731968Y-6208008D02*
X3741491Y-6217531D01*
X3741491Y-6217531D02*
X3751015Y-6236579D01*
X3751015Y-6236579D02*
X3751015Y-6255627D01*
X3751015Y-6255627D02*
X3741491Y-6284198D01*
X3741491Y-6284198D02*
X3627206Y-6398484D01*
X3627206Y-6398484D02*
X3751015Y-6398484D01*
X3989110Y-6398484D02*
X3989110Y-6198484D01*
X4074825Y-6398484D02*
X4074825Y-6293722D01*
X4074825Y-6293722D02*
X4065301Y-6274674D01*
X4065301Y-6274674D02*
X4046253Y-6265150D01*
X4046253Y-6265150D02*
X4017682Y-6265150D01*
X4017682Y-6265150D02*
X3998634Y-6274674D01*
X3998634Y-6274674D02*
X3989110Y-6284198D01*
X4198634Y-6398484D02*
X4179587Y-6388960D01*
X4179587Y-6388960D02*
X4170063Y-6379436D01*
X4170063Y-6379436D02*
X4160539Y-6360388D01*
X4160539Y-6360388D02*
X4160539Y-6303246D01*
X4160539Y-6303246D02*
X4170063Y-6284198D01*
X4170063Y-6284198D02*
X4179587Y-6274674D01*
X4179587Y-6274674D02*
X4198634Y-6265150D01*
X4198634Y-6265150D02*
X4227206Y-6265150D01*
X4227206Y-6265150D02*
X4246253Y-6274674D01*
X4246253Y-6274674D02*
X4255777Y-6284198D01*
X4255777Y-6284198D02*
X4265301Y-6303246D01*
X4265301Y-6303246D02*
X4265301Y-6360388D01*
X4265301Y-6360388D02*
X4255777Y-6379436D01*
X4255777Y-6379436D02*
X4246253Y-6388960D01*
X4246253Y-6388960D02*
X4227206Y-6398484D01*
X4227206Y-6398484D02*
X4198634Y-6398484D01*
X4379587Y-6398484D02*
X4360539Y-6388960D01*
X4360539Y-6388960D02*
X4351015Y-6369912D01*
X4351015Y-6369912D02*
X4351015Y-6198484D01*
X4531968Y-6388960D02*
X4512920Y-6398484D01*
X4512920Y-6398484D02*
X4474825Y-6398484D01*
X4474825Y-6398484D02*
X4455777Y-6388960D01*
X4455777Y-6388960D02*
X4446253Y-6369912D01*
X4446253Y-6369912D02*
X4446253Y-6293722D01*
X4446253Y-6293722D02*
X4455777Y-6274674D01*
X4455777Y-6274674D02*
X4474825Y-6265150D01*
X4474825Y-6265150D02*
X4512920Y-6265150D01*
X4512920Y-6265150D02*
X4531968Y-6274674D01*
X4531968Y-6274674D02*
X4541492Y-6293722D01*
X4541492Y-6293722D02*
X4541492Y-6312769D01*
X4541492Y-6312769D02*
X4446253Y-6331817D01*
X4617682Y-6388960D02*
X4636730Y-6398484D01*
X4636730Y-6398484D02*
X4674825Y-6398484D01*
X4674825Y-6398484D02*
X4693873Y-6388960D01*
X4693873Y-6388960D02*
X4703396Y-6369912D01*
X4703396Y-6369912D02*
X4703396Y-6360388D01*
X4703396Y-6360388D02*
X4693873Y-6341341D01*
X4693873Y-6341341D02*
X4674825Y-6331817D01*
X4674825Y-6331817D02*
X4646253Y-6331817D01*
X4646253Y-6331817D02*
X4627206Y-6322293D01*
X4627206Y-6322293D02*
X4617682Y-6303246D01*
X4617682Y-6303246D02*
X4617682Y-6293722D01*
X4617682Y-6293722D02*
X4627206Y-6274674D01*
X4627206Y-6274674D02*
X4646253Y-6265150D01*
X4646253Y-6265150D02*
X4674825Y-6265150D01*
X4674825Y-6265150D02*
X4693873Y-6274674D01*
X4770063Y-6474674D02*
X4779587Y-6465150D01*
X4779587Y-6465150D02*
X4798634Y-6436579D01*
X4798634Y-6436579D02*
X4808158Y-6417531D01*
X4808158Y-6417531D02*
X4817682Y-6388960D01*
X4817682Y-6388960D02*
X4827206Y-6341341D01*
X4827206Y-6341341D02*
X4827206Y-6303246D01*
X4827206Y-6303246D02*
X4817682Y-6255627D01*
X4817682Y-6255627D02*
X4808158Y-6227055D01*
X4808158Y-6227055D02*
X4798634Y-6208008D01*
X4798634Y-6208008D02*
X4779587Y-6179436D01*
X4779587Y-6179436D02*
X4770063Y-6169912D01*
D10*
X-45000Y-6531000D02*
X-45000Y-6611000D01*
X-85000Y-6571000D02*
X-5000Y-6571000D01*
D11*
X293872Y-6462484D02*
X312920Y-6462484D01*
X312920Y-6462484D02*
X331967Y-6472008D01*
X331967Y-6472008D02*
X341491Y-6481531D01*
X341491Y-6481531D02*
X351015Y-6500579D01*
X351015Y-6500579D02*
X360539Y-6538674D01*
X360539Y-6538674D02*
X360539Y-6586293D01*
X360539Y-6586293D02*
X351015Y-6624388D01*
X351015Y-6624388D02*
X341491Y-6643436D01*
X341491Y-6643436D02*
X331967Y-6652960D01*
X331967Y-6652960D02*
X312920Y-6662484D01*
X312920Y-6662484D02*
X293872Y-6662484D01*
X293872Y-6662484D02*
X274824Y-6652960D01*
X274824Y-6652960D02*
X265301Y-6643436D01*
X265301Y-6643436D02*
X255777Y-6624388D01*
X255777Y-6624388D02*
X246253Y-6586293D01*
X246253Y-6586293D02*
X246253Y-6538674D01*
X246253Y-6538674D02*
X255777Y-6500579D01*
X255777Y-6500579D02*
X265301Y-6481531D01*
X265301Y-6481531D02*
X274824Y-6472008D01*
X274824Y-6472008D02*
X293872Y-6462484D01*
X446253Y-6643436D02*
X455777Y-6652960D01*
X455777Y-6652960D02*
X446253Y-6662484D01*
X446253Y-6662484D02*
X436729Y-6652960D01*
X436729Y-6652960D02*
X446253Y-6643436D01*
X446253Y-6643436D02*
X446253Y-6662484D01*
X570063Y-6548198D02*
X551015Y-6538674D01*
X551015Y-6538674D02*
X541491Y-6529150D01*
X541491Y-6529150D02*
X531967Y-6510103D01*
X531967Y-6510103D02*
X531967Y-6500579D01*
X531967Y-6500579D02*
X541491Y-6481531D01*
X541491Y-6481531D02*
X551015Y-6472008D01*
X551015Y-6472008D02*
X570063Y-6462484D01*
X570063Y-6462484D02*
X608158Y-6462484D01*
X608158Y-6462484D02*
X627205Y-6472008D01*
X627205Y-6472008D02*
X636729Y-6481531D01*
X636729Y-6481531D02*
X646253Y-6500579D01*
X646253Y-6500579D02*
X646253Y-6510103D01*
X646253Y-6510103D02*
X636729Y-6529150D01*
X636729Y-6529150D02*
X627205Y-6538674D01*
X627205Y-6538674D02*
X608158Y-6548198D01*
X608158Y-6548198D02*
X570063Y-6548198D01*
X570063Y-6548198D02*
X551015Y-6557722D01*
X551015Y-6557722D02*
X541491Y-6567246D01*
X541491Y-6567246D02*
X531967Y-6586293D01*
X531967Y-6586293D02*
X531967Y-6624388D01*
X531967Y-6624388D02*
X541491Y-6643436D01*
X541491Y-6643436D02*
X551015Y-6652960D01*
X551015Y-6652960D02*
X570063Y-6662484D01*
X570063Y-6662484D02*
X608158Y-6662484D01*
X608158Y-6662484D02*
X627205Y-6652960D01*
X627205Y-6652960D02*
X636729Y-6643436D01*
X636729Y-6643436D02*
X646253Y-6624388D01*
X646253Y-6624388D02*
X646253Y-6586293D01*
X646253Y-6586293D02*
X636729Y-6567246D01*
X636729Y-6567246D02*
X627205Y-6557722D01*
X627205Y-6557722D02*
X608158Y-6548198D01*
X770062Y-6462484D02*
X789110Y-6462484D01*
X789110Y-6462484D02*
X808158Y-6472008D01*
X808158Y-6472008D02*
X817682Y-6481531D01*
X817682Y-6481531D02*
X827205Y-6500579D01*
X827205Y-6500579D02*
X836729Y-6538674D01*
X836729Y-6538674D02*
X836729Y-6586293D01*
X836729Y-6586293D02*
X827205Y-6624388D01*
X827205Y-6624388D02*
X817682Y-6643436D01*
X817682Y-6643436D02*
X808158Y-6652960D01*
X808158Y-6652960D02*
X789110Y-6662484D01*
X789110Y-6662484D02*
X770062Y-6662484D01*
X770062Y-6662484D02*
X751015Y-6652960D01*
X751015Y-6652960D02*
X741491Y-6643436D01*
X741491Y-6643436D02*
X731967Y-6624388D01*
X731967Y-6624388D02*
X722443Y-6586293D01*
X722443Y-6586293D02*
X722443Y-6538674D01*
X722443Y-6538674D02*
X731967Y-6500579D01*
X731967Y-6500579D02*
X741491Y-6481531D01*
X741491Y-6481531D02*
X751015Y-6472008D01*
X751015Y-6472008D02*
X770062Y-6462484D01*
X960539Y-6462484D02*
X979586Y-6462484D01*
X979586Y-6462484D02*
X998634Y-6472008D01*
X998634Y-6472008D02*
X1008158Y-6481531D01*
X1008158Y-6481531D02*
X1017682Y-6500579D01*
X1017682Y-6500579D02*
X1027205Y-6538674D01*
X1027205Y-6538674D02*
X1027205Y-6586293D01*
X1027205Y-6586293D02*
X1017682Y-6624388D01*
X1017682Y-6624388D02*
X1008158Y-6643436D01*
X1008158Y-6643436D02*
X998634Y-6652960D01*
X998634Y-6652960D02*
X979586Y-6662484D01*
X979586Y-6662484D02*
X960539Y-6662484D01*
X960539Y-6662484D02*
X941491Y-6652960D01*
X941491Y-6652960D02*
X931967Y-6643436D01*
X931967Y-6643436D02*
X922443Y-6624388D01*
X922443Y-6624388D02*
X912920Y-6586293D01*
X912920Y-6586293D02*
X912920Y-6538674D01*
X912920Y-6538674D02*
X922443Y-6500579D01*
X922443Y-6500579D02*
X931967Y-6481531D01*
X931967Y-6481531D02*
X941491Y-6472008D01*
X941491Y-6472008D02*
X960539Y-6462484D01*
X1112920Y-6662484D02*
X1112920Y-6529150D01*
X1112920Y-6548198D02*
X1122444Y-6538674D01*
X1122444Y-6538674D02*
X1141491Y-6529150D01*
X1141491Y-6529150D02*
X1170063Y-6529150D01*
X1170063Y-6529150D02*
X1189110Y-6538674D01*
X1189110Y-6538674D02*
X1198634Y-6557722D01*
X1198634Y-6557722D02*
X1198634Y-6662484D01*
X1198634Y-6557722D02*
X1208158Y-6538674D01*
X1208158Y-6538674D02*
X1227205Y-6529150D01*
X1227205Y-6529150D02*
X1255777Y-6529150D01*
X1255777Y-6529150D02*
X1274825Y-6538674D01*
X1274825Y-6538674D02*
X1284348Y-6557722D01*
X1284348Y-6557722D02*
X1284348Y-6662484D01*
X1379586Y-6662484D02*
X1379586Y-6529150D01*
X1379586Y-6548198D02*
X1389110Y-6538674D01*
X1389110Y-6538674D02*
X1408158Y-6529150D01*
X1408158Y-6529150D02*
X1436729Y-6529150D01*
X1436729Y-6529150D02*
X1455777Y-6538674D01*
X1455777Y-6538674D02*
X1465301Y-6557722D01*
X1465301Y-6557722D02*
X1465301Y-6662484D01*
X1465301Y-6557722D02*
X1474824Y-6538674D01*
X1474824Y-6538674D02*
X1493872Y-6529150D01*
X1493872Y-6529150D02*
X1522443Y-6529150D01*
X1522443Y-6529150D02*
X1541491Y-6538674D01*
X1541491Y-6538674D02*
X1551015Y-6557722D01*
X1551015Y-6557722D02*
X1551015Y-6662484D01*
X1941491Y-6452960D02*
X1770063Y-6710103D01*
X2198634Y-6462484D02*
X2217682Y-6462484D01*
X2217682Y-6462484D02*
X2236729Y-6472008D01*
X2236729Y-6472008D02*
X2246253Y-6481531D01*
X2246253Y-6481531D02*
X2255777Y-6500579D01*
X2255777Y-6500579D02*
X2265301Y-6538674D01*
X2265301Y-6538674D02*
X2265301Y-6586293D01*
X2265301Y-6586293D02*
X2255777Y-6624388D01*
X2255777Y-6624388D02*
X2246253Y-6643436D01*
X2246253Y-6643436D02*
X2236729Y-6652960D01*
X2236729Y-6652960D02*
X2217682Y-6662484D01*
X2217682Y-6662484D02*
X2198634Y-6662484D01*
X2198634Y-6662484D02*
X2179587Y-6652960D01*
X2179587Y-6652960D02*
X2170063Y-6643436D01*
X2170063Y-6643436D02*
X2160539Y-6624388D01*
X2160539Y-6624388D02*
X2151015Y-6586293D01*
X2151015Y-6586293D02*
X2151015Y-6538674D01*
X2151015Y-6538674D02*
X2160539Y-6500579D01*
X2160539Y-6500579D02*
X2170063Y-6481531D01*
X2170063Y-6481531D02*
X2179587Y-6472008D01*
X2179587Y-6472008D02*
X2198634Y-6462484D01*
X2351015Y-6643436D02*
X2360539Y-6652960D01*
X2360539Y-6652960D02*
X2351015Y-6662484D01*
X2351015Y-6662484D02*
X2341491Y-6652960D01*
X2341491Y-6652960D02*
X2351015Y-6643436D01*
X2351015Y-6643436D02*
X2351015Y-6662484D01*
X2484348Y-6462484D02*
X2503396Y-6462484D01*
X2503396Y-6462484D02*
X2522444Y-6472008D01*
X2522444Y-6472008D02*
X2531968Y-6481531D01*
X2531968Y-6481531D02*
X2541491Y-6500579D01*
X2541491Y-6500579D02*
X2551015Y-6538674D01*
X2551015Y-6538674D02*
X2551015Y-6586293D01*
X2551015Y-6586293D02*
X2541491Y-6624388D01*
X2541491Y-6624388D02*
X2531968Y-6643436D01*
X2531968Y-6643436D02*
X2522444Y-6652960D01*
X2522444Y-6652960D02*
X2503396Y-6662484D01*
X2503396Y-6662484D02*
X2484348Y-6662484D01*
X2484348Y-6662484D02*
X2465301Y-6652960D01*
X2465301Y-6652960D02*
X2455777Y-6643436D01*
X2455777Y-6643436D02*
X2446253Y-6624388D01*
X2446253Y-6624388D02*
X2436729Y-6586293D01*
X2436729Y-6586293D02*
X2436729Y-6538674D01*
X2436729Y-6538674D02*
X2446253Y-6500579D01*
X2446253Y-6500579D02*
X2455777Y-6481531D01*
X2455777Y-6481531D02*
X2465301Y-6472008D01*
X2465301Y-6472008D02*
X2484348Y-6462484D01*
X2617682Y-6462484D02*
X2741491Y-6462484D01*
X2741491Y-6462484D02*
X2674825Y-6538674D01*
X2674825Y-6538674D02*
X2703396Y-6538674D01*
X2703396Y-6538674D02*
X2722444Y-6548198D01*
X2722444Y-6548198D02*
X2731968Y-6557722D01*
X2731968Y-6557722D02*
X2741491Y-6576769D01*
X2741491Y-6576769D02*
X2741491Y-6624388D01*
X2741491Y-6624388D02*
X2731968Y-6643436D01*
X2731968Y-6643436D02*
X2722444Y-6652960D01*
X2722444Y-6652960D02*
X2703396Y-6662484D01*
X2703396Y-6662484D02*
X2646253Y-6662484D01*
X2646253Y-6662484D02*
X2627206Y-6652960D01*
X2627206Y-6652960D02*
X2617682Y-6643436D01*
X2931967Y-6662484D02*
X2817682Y-6662484D01*
X2874825Y-6662484D02*
X2874825Y-6462484D01*
X2874825Y-6462484D02*
X2855777Y-6491055D01*
X2855777Y-6491055D02*
X2836729Y-6510103D01*
X2836729Y-6510103D02*
X2817682Y-6519627D01*
X3112920Y-6462484D02*
X3017682Y-6462484D01*
X3017682Y-6462484D02*
X3008158Y-6557722D01*
X3008158Y-6557722D02*
X3017682Y-6548198D01*
X3017682Y-6548198D02*
X3036729Y-6538674D01*
X3036729Y-6538674D02*
X3084348Y-6538674D01*
X3084348Y-6538674D02*
X3103396Y-6548198D01*
X3103396Y-6548198D02*
X3112920Y-6557722D01*
X3112920Y-6557722D02*
X3122444Y-6576769D01*
X3122444Y-6576769D02*
X3122444Y-6624388D01*
X3122444Y-6624388D02*
X3112920Y-6643436D01*
X3112920Y-6643436D02*
X3103396Y-6652960D01*
X3103396Y-6652960D02*
X3084348Y-6662484D01*
X3084348Y-6662484D02*
X3036729Y-6662484D01*
X3036729Y-6662484D02*
X3017682Y-6652960D01*
X3017682Y-6652960D02*
X3008158Y-6643436D01*
X3198634Y-6462484D02*
X3198634Y-6500579D01*
X3274825Y-6462484D02*
X3274825Y-6500579D01*
X3570063Y-6738674D02*
X3560539Y-6729150D01*
X3560539Y-6729150D02*
X3541491Y-6700579D01*
X3541491Y-6700579D02*
X3531968Y-6681531D01*
X3531968Y-6681531D02*
X3522444Y-6652960D01*
X3522444Y-6652960D02*
X3512920Y-6605341D01*
X3512920Y-6605341D02*
X3512920Y-6567246D01*
X3512920Y-6567246D02*
X3522444Y-6519627D01*
X3522444Y-6519627D02*
X3531968Y-6491055D01*
X3531968Y-6491055D02*
X3541491Y-6472008D01*
X3541491Y-6472008D02*
X3560539Y-6443436D01*
X3560539Y-6443436D02*
X3570063Y-6433912D01*
X3684348Y-6462484D02*
X3703396Y-6462484D01*
X3703396Y-6462484D02*
X3722444Y-6472008D01*
X3722444Y-6472008D02*
X3731968Y-6481531D01*
X3731968Y-6481531D02*
X3741491Y-6500579D01*
X3741491Y-6500579D02*
X3751015Y-6538674D01*
X3751015Y-6538674D02*
X3751015Y-6586293D01*
X3751015Y-6586293D02*
X3741491Y-6624388D01*
X3741491Y-6624388D02*
X3731968Y-6643436D01*
X3731968Y-6643436D02*
X3722444Y-6652960D01*
X3722444Y-6652960D02*
X3703396Y-6662484D01*
X3703396Y-6662484D02*
X3684348Y-6662484D01*
X3684348Y-6662484D02*
X3665301Y-6652960D01*
X3665301Y-6652960D02*
X3655777Y-6643436D01*
X3655777Y-6643436D02*
X3646253Y-6624388D01*
X3646253Y-6624388D02*
X3636729Y-6586293D01*
X3636729Y-6586293D02*
X3636729Y-6538674D01*
X3636729Y-6538674D02*
X3646253Y-6500579D01*
X3646253Y-6500579D02*
X3655777Y-6481531D01*
X3655777Y-6481531D02*
X3665301Y-6472008D01*
X3665301Y-6472008D02*
X3684348Y-6462484D01*
X3989110Y-6662484D02*
X3989110Y-6462484D01*
X4074825Y-6662484D02*
X4074825Y-6557722D01*
X4074825Y-6557722D02*
X4065301Y-6538674D01*
X4065301Y-6538674D02*
X4046253Y-6529150D01*
X4046253Y-6529150D02*
X4017682Y-6529150D01*
X4017682Y-6529150D02*
X3998634Y-6538674D01*
X3998634Y-6538674D02*
X3989110Y-6548198D01*
X4198634Y-6662484D02*
X4179587Y-6652960D01*
X4179587Y-6652960D02*
X4170063Y-6643436D01*
X4170063Y-6643436D02*
X4160539Y-6624388D01*
X4160539Y-6624388D02*
X4160539Y-6567246D01*
X4160539Y-6567246D02*
X4170063Y-6548198D01*
X4170063Y-6548198D02*
X4179587Y-6538674D01*
X4179587Y-6538674D02*
X4198634Y-6529150D01*
X4198634Y-6529150D02*
X4227206Y-6529150D01*
X4227206Y-6529150D02*
X4246253Y-6538674D01*
X4246253Y-6538674D02*
X4255777Y-6548198D01*
X4255777Y-6548198D02*
X4265301Y-6567246D01*
X4265301Y-6567246D02*
X4265301Y-6624388D01*
X4265301Y-6624388D02*
X4255777Y-6643436D01*
X4255777Y-6643436D02*
X4246253Y-6652960D01*
X4246253Y-6652960D02*
X4227206Y-6662484D01*
X4227206Y-6662484D02*
X4198634Y-6662484D01*
X4379587Y-6662484D02*
X4360539Y-6652960D01*
X4360539Y-6652960D02*
X4351015Y-6633912D01*
X4351015Y-6633912D02*
X4351015Y-6462484D01*
X4531968Y-6652960D02*
X4512920Y-6662484D01*
X4512920Y-6662484D02*
X4474825Y-6662484D01*
X4474825Y-6662484D02*
X4455777Y-6652960D01*
X4455777Y-6652960D02*
X4446253Y-6633912D01*
X4446253Y-6633912D02*
X4446253Y-6557722D01*
X4446253Y-6557722D02*
X4455777Y-6538674D01*
X4455777Y-6538674D02*
X4474825Y-6529150D01*
X4474825Y-6529150D02*
X4512920Y-6529150D01*
X4512920Y-6529150D02*
X4531968Y-6538674D01*
X4531968Y-6538674D02*
X4541492Y-6557722D01*
X4541492Y-6557722D02*
X4541492Y-6576769D01*
X4541492Y-6576769D02*
X4446253Y-6595817D01*
X4617682Y-6652960D02*
X4636730Y-6662484D01*
X4636730Y-6662484D02*
X4674825Y-6662484D01*
X4674825Y-6662484D02*
X4693873Y-6652960D01*
X4693873Y-6652960D02*
X4703396Y-6633912D01*
X4703396Y-6633912D02*
X4703396Y-6624388D01*
X4703396Y-6624388D02*
X4693873Y-6605341D01*
X4693873Y-6605341D02*
X4674825Y-6595817D01*
X4674825Y-6595817D02*
X4646253Y-6595817D01*
X4646253Y-6595817D02*
X4627206Y-6586293D01*
X4627206Y-6586293D02*
X4617682Y-6567246D01*
X4617682Y-6567246D02*
X4617682Y-6557722D01*
X4617682Y-6557722D02*
X4627206Y-6538674D01*
X4627206Y-6538674D02*
X4646253Y-6529150D01*
X4646253Y-6529150D02*
X4674825Y-6529150D01*
X4674825Y-6529150D02*
X4693873Y-6538674D01*
X4941492Y-6586293D02*
X5093873Y-6586293D01*
X5017682Y-6662484D02*
X5017682Y-6510103D01*
X5427206Y-6529150D02*
X5427206Y-6662484D01*
X5379587Y-6452960D02*
X5331968Y-6595817D01*
X5331968Y-6595817D02*
X5455777Y-6595817D01*
X5674825Y-6652960D02*
X5693873Y-6662484D01*
X5693873Y-6662484D02*
X5731968Y-6662484D01*
X5731968Y-6662484D02*
X5751015Y-6652960D01*
X5751015Y-6652960D02*
X5760539Y-6633912D01*
X5760539Y-6633912D02*
X5760539Y-6624388D01*
X5760539Y-6624388D02*
X5751015Y-6605341D01*
X5751015Y-6605341D02*
X5731968Y-6595817D01*
X5731968Y-6595817D02*
X5703396Y-6595817D01*
X5703396Y-6595817D02*
X5684349Y-6586293D01*
X5684349Y-6586293D02*
X5674825Y-6567246D01*
X5674825Y-6567246D02*
X5674825Y-6557722D01*
X5674825Y-6557722D02*
X5684349Y-6538674D01*
X5684349Y-6538674D02*
X5703396Y-6529150D01*
X5703396Y-6529150D02*
X5731968Y-6529150D01*
X5731968Y-6529150D02*
X5751015Y-6538674D01*
X5874825Y-6662484D02*
X5855777Y-6652960D01*
X5855777Y-6652960D02*
X5846254Y-6633912D01*
X5846254Y-6633912D02*
X5846254Y-6462484D01*
X5979587Y-6662484D02*
X5960539Y-6652960D01*
X5960539Y-6652960D02*
X5951015Y-6643436D01*
X5951015Y-6643436D02*
X5941492Y-6624388D01*
X5941492Y-6624388D02*
X5941492Y-6567246D01*
X5941492Y-6567246D02*
X5951015Y-6548198D01*
X5951015Y-6548198D02*
X5960539Y-6538674D01*
X5960539Y-6538674D02*
X5979587Y-6529150D01*
X5979587Y-6529150D02*
X6008158Y-6529150D01*
X6008158Y-6529150D02*
X6027206Y-6538674D01*
X6027206Y-6538674D02*
X6036730Y-6548198D01*
X6036730Y-6548198D02*
X6046254Y-6567246D01*
X6046254Y-6567246D02*
X6046254Y-6624388D01*
X6046254Y-6624388D02*
X6036730Y-6643436D01*
X6036730Y-6643436D02*
X6027206Y-6652960D01*
X6027206Y-6652960D02*
X6008158Y-6662484D01*
X6008158Y-6662484D02*
X5979587Y-6662484D01*
X6103396Y-6529150D02*
X6179587Y-6529150D01*
X6131968Y-6462484D02*
X6131968Y-6633912D01*
X6131968Y-6633912D02*
X6141492Y-6652960D01*
X6141492Y-6652960D02*
X6160539Y-6662484D01*
X6160539Y-6662484D02*
X6179587Y-6662484D01*
X6236730Y-6652960D02*
X6255777Y-6662484D01*
X6255777Y-6662484D02*
X6293873Y-6662484D01*
X6293873Y-6662484D02*
X6312920Y-6652960D01*
X6312920Y-6652960D02*
X6322444Y-6633912D01*
X6322444Y-6633912D02*
X6322444Y-6624388D01*
X6322444Y-6624388D02*
X6312920Y-6605341D01*
X6312920Y-6605341D02*
X6293873Y-6595817D01*
X6293873Y-6595817D02*
X6265301Y-6595817D01*
X6265301Y-6595817D02*
X6246254Y-6586293D01*
X6246254Y-6586293D02*
X6236730Y-6567246D01*
X6236730Y-6567246D02*
X6236730Y-6557722D01*
X6236730Y-6557722D02*
X6246254Y-6538674D01*
X6246254Y-6538674D02*
X6265301Y-6529150D01*
X6265301Y-6529150D02*
X6293873Y-6529150D01*
X6293873Y-6529150D02*
X6312920Y-6538674D01*
X6389111Y-6738674D02*
X6398635Y-6729150D01*
X6398635Y-6729150D02*
X6417682Y-6700579D01*
X6417682Y-6700579D02*
X6427206Y-6681531D01*
X6427206Y-6681531D02*
X6436730Y-6652960D01*
X6436730Y-6652960D02*
X6446254Y-6605341D01*
X6446254Y-6605341D02*
X6446254Y-6567246D01*
X6446254Y-6567246D02*
X6436730Y-6519627D01*
X6436730Y-6519627D02*
X6427206Y-6491055D01*
X6427206Y-6491055D02*
X6417682Y-6472008D01*
X6417682Y-6472008D02*
X6398635Y-6443436D01*
X6398635Y-6443436D02*
X6389111Y-6433912D01*
D12*
X-32824Y-6902176D02*
X-32824Y-6767824D01*
X-167176Y-6767824D01*
X-167176Y-6902176D01*
X-32824Y-6902176D01*
D11*
X360539Y-6926484D02*
X246253Y-6926484D01*
X303396Y-6926484D02*
X303396Y-6726484D01*
X303396Y-6726484D02*
X284348Y-6755055D01*
X284348Y-6755055D02*
X265301Y-6774103D01*
X265301Y-6774103D02*
X246253Y-6783627D01*
X446253Y-6907436D02*
X455777Y-6916960D01*
X455777Y-6916960D02*
X446253Y-6926484D01*
X446253Y-6926484D02*
X436729Y-6916960D01*
X436729Y-6916960D02*
X446253Y-6907436D01*
X446253Y-6907436D02*
X446253Y-6926484D01*
X551015Y-6926484D02*
X589110Y-6926484D01*
X589110Y-6926484D02*
X608158Y-6916960D01*
X608158Y-6916960D02*
X617682Y-6907436D01*
X617682Y-6907436D02*
X636729Y-6878865D01*
X636729Y-6878865D02*
X646253Y-6840769D01*
X646253Y-6840769D02*
X646253Y-6764579D01*
X646253Y-6764579D02*
X636729Y-6745531D01*
X636729Y-6745531D02*
X627205Y-6736008D01*
X627205Y-6736008D02*
X608158Y-6726484D01*
X608158Y-6726484D02*
X570063Y-6726484D01*
X570063Y-6726484D02*
X551015Y-6736008D01*
X551015Y-6736008D02*
X541491Y-6745531D01*
X541491Y-6745531D02*
X531967Y-6764579D01*
X531967Y-6764579D02*
X531967Y-6812198D01*
X531967Y-6812198D02*
X541491Y-6831246D01*
X541491Y-6831246D02*
X551015Y-6840769D01*
X551015Y-6840769D02*
X570063Y-6850293D01*
X570063Y-6850293D02*
X608158Y-6850293D01*
X608158Y-6850293D02*
X627205Y-6840769D01*
X627205Y-6840769D02*
X636729Y-6831246D01*
X636729Y-6831246D02*
X646253Y-6812198D01*
X770062Y-6726484D02*
X789110Y-6726484D01*
X789110Y-6726484D02*
X808158Y-6736008D01*
X808158Y-6736008D02*
X817682Y-6745531D01*
X817682Y-6745531D02*
X827205Y-6764579D01*
X827205Y-6764579D02*
X836729Y-6802674D01*
X836729Y-6802674D02*
X836729Y-6850293D01*
X836729Y-6850293D02*
X827205Y-6888388D01*
X827205Y-6888388D02*
X817682Y-6907436D01*
X817682Y-6907436D02*
X808158Y-6916960D01*
X808158Y-6916960D02*
X789110Y-6926484D01*
X789110Y-6926484D02*
X770062Y-6926484D01*
X770062Y-6926484D02*
X751015Y-6916960D01*
X751015Y-6916960D02*
X741491Y-6907436D01*
X741491Y-6907436D02*
X731967Y-6888388D01*
X731967Y-6888388D02*
X722443Y-6850293D01*
X722443Y-6850293D02*
X722443Y-6802674D01*
X722443Y-6802674D02*
X731967Y-6764579D01*
X731967Y-6764579D02*
X741491Y-6745531D01*
X741491Y-6745531D02*
X751015Y-6736008D01*
X751015Y-6736008D02*
X770062Y-6726484D01*
X960539Y-6726484D02*
X979586Y-6726484D01*
X979586Y-6726484D02*
X998634Y-6736008D01*
X998634Y-6736008D02*
X1008158Y-6745531D01*
X1008158Y-6745531D02*
X1017682Y-6764579D01*
X1017682Y-6764579D02*
X1027205Y-6802674D01*
X1027205Y-6802674D02*
X1027205Y-6850293D01*
X1027205Y-6850293D02*
X1017682Y-6888388D01*
X1017682Y-6888388D02*
X1008158Y-6907436D01*
X1008158Y-6907436D02*
X998634Y-6916960D01*
X998634Y-6916960D02*
X979586Y-6926484D01*
X979586Y-6926484D02*
X960539Y-6926484D01*
X960539Y-6926484D02*
X941491Y-6916960D01*
X941491Y-6916960D02*
X931967Y-6907436D01*
X931967Y-6907436D02*
X922443Y-6888388D01*
X922443Y-6888388D02*
X912920Y-6850293D01*
X912920Y-6850293D02*
X912920Y-6802674D01*
X912920Y-6802674D02*
X922443Y-6764579D01*
X922443Y-6764579D02*
X931967Y-6745531D01*
X931967Y-6745531D02*
X941491Y-6736008D01*
X941491Y-6736008D02*
X960539Y-6726484D01*
X1112920Y-6926484D02*
X1112920Y-6793150D01*
X1112920Y-6812198D02*
X1122444Y-6802674D01*
X1122444Y-6802674D02*
X1141491Y-6793150D01*
X1141491Y-6793150D02*
X1170063Y-6793150D01*
X1170063Y-6793150D02*
X1189110Y-6802674D01*
X1189110Y-6802674D02*
X1198634Y-6821722D01*
X1198634Y-6821722D02*
X1198634Y-6926484D01*
X1198634Y-6821722D02*
X1208158Y-6802674D01*
X1208158Y-6802674D02*
X1227205Y-6793150D01*
X1227205Y-6793150D02*
X1255777Y-6793150D01*
X1255777Y-6793150D02*
X1274825Y-6802674D01*
X1274825Y-6802674D02*
X1284348Y-6821722D01*
X1284348Y-6821722D02*
X1284348Y-6926484D01*
X1379586Y-6926484D02*
X1379586Y-6793150D01*
X1379586Y-6812198D02*
X1389110Y-6802674D01*
X1389110Y-6802674D02*
X1408158Y-6793150D01*
X1408158Y-6793150D02*
X1436729Y-6793150D01*
X1436729Y-6793150D02*
X1455777Y-6802674D01*
X1455777Y-6802674D02*
X1465301Y-6821722D01*
X1465301Y-6821722D02*
X1465301Y-6926484D01*
X1465301Y-6821722D02*
X1474824Y-6802674D01*
X1474824Y-6802674D02*
X1493872Y-6793150D01*
X1493872Y-6793150D02*
X1522443Y-6793150D01*
X1522443Y-6793150D02*
X1541491Y-6802674D01*
X1541491Y-6802674D02*
X1551015Y-6821722D01*
X1551015Y-6821722D02*
X1551015Y-6926484D01*
X1941491Y-6716960D02*
X1770063Y-6974103D01*
X2198634Y-6726484D02*
X2217682Y-6726484D01*
X2217682Y-6726484D02*
X2236729Y-6736008D01*
X2236729Y-6736008D02*
X2246253Y-6745531D01*
X2246253Y-6745531D02*
X2255777Y-6764579D01*
X2255777Y-6764579D02*
X2265301Y-6802674D01*
X2265301Y-6802674D02*
X2265301Y-6850293D01*
X2265301Y-6850293D02*
X2255777Y-6888388D01*
X2255777Y-6888388D02*
X2246253Y-6907436D01*
X2246253Y-6907436D02*
X2236729Y-6916960D01*
X2236729Y-6916960D02*
X2217682Y-6926484D01*
X2217682Y-6926484D02*
X2198634Y-6926484D01*
X2198634Y-6926484D02*
X2179587Y-6916960D01*
X2179587Y-6916960D02*
X2170063Y-6907436D01*
X2170063Y-6907436D02*
X2160539Y-6888388D01*
X2160539Y-6888388D02*
X2151015Y-6850293D01*
X2151015Y-6850293D02*
X2151015Y-6802674D01*
X2151015Y-6802674D02*
X2160539Y-6764579D01*
X2160539Y-6764579D02*
X2170063Y-6745531D01*
X2170063Y-6745531D02*
X2179587Y-6736008D01*
X2179587Y-6736008D02*
X2198634Y-6726484D01*
X2351015Y-6907436D02*
X2360539Y-6916960D01*
X2360539Y-6916960D02*
X2351015Y-6926484D01*
X2351015Y-6926484D02*
X2341491Y-6916960D01*
X2341491Y-6916960D02*
X2351015Y-6907436D01*
X2351015Y-6907436D02*
X2351015Y-6926484D01*
X2484348Y-6726484D02*
X2503396Y-6726484D01*
X2503396Y-6726484D02*
X2522444Y-6736008D01*
X2522444Y-6736008D02*
X2531968Y-6745531D01*
X2531968Y-6745531D02*
X2541491Y-6764579D01*
X2541491Y-6764579D02*
X2551015Y-6802674D01*
X2551015Y-6802674D02*
X2551015Y-6850293D01*
X2551015Y-6850293D02*
X2541491Y-6888388D01*
X2541491Y-6888388D02*
X2531968Y-6907436D01*
X2531968Y-6907436D02*
X2522444Y-6916960D01*
X2522444Y-6916960D02*
X2503396Y-6926484D01*
X2503396Y-6926484D02*
X2484348Y-6926484D01*
X2484348Y-6926484D02*
X2465301Y-6916960D01*
X2465301Y-6916960D02*
X2455777Y-6907436D01*
X2455777Y-6907436D02*
X2446253Y-6888388D01*
X2446253Y-6888388D02*
X2436729Y-6850293D01*
X2436729Y-6850293D02*
X2436729Y-6802674D01*
X2436729Y-6802674D02*
X2446253Y-6764579D01*
X2446253Y-6764579D02*
X2455777Y-6745531D01*
X2455777Y-6745531D02*
X2465301Y-6736008D01*
X2465301Y-6736008D02*
X2484348Y-6726484D01*
X2617682Y-6726484D02*
X2751015Y-6726484D01*
X2751015Y-6726484D02*
X2665301Y-6926484D01*
X2912920Y-6793150D02*
X2912920Y-6926484D01*
X2865301Y-6716960D02*
X2817682Y-6859817D01*
X2817682Y-6859817D02*
X2941491Y-6859817D01*
X3046253Y-6812198D02*
X3027206Y-6802674D01*
X3027206Y-6802674D02*
X3017682Y-6793150D01*
X3017682Y-6793150D02*
X3008158Y-6774103D01*
X3008158Y-6774103D02*
X3008158Y-6764579D01*
X3008158Y-6764579D02*
X3017682Y-6745531D01*
X3017682Y-6745531D02*
X3027206Y-6736008D01*
X3027206Y-6736008D02*
X3046253Y-6726484D01*
X3046253Y-6726484D02*
X3084348Y-6726484D01*
X3084348Y-6726484D02*
X3103396Y-6736008D01*
X3103396Y-6736008D02*
X3112920Y-6745531D01*
X3112920Y-6745531D02*
X3122444Y-6764579D01*
X3122444Y-6764579D02*
X3122444Y-6774103D01*
X3122444Y-6774103D02*
X3112920Y-6793150D01*
X3112920Y-6793150D02*
X3103396Y-6802674D01*
X3103396Y-6802674D02*
X3084348Y-6812198D01*
X3084348Y-6812198D02*
X3046253Y-6812198D01*
X3046253Y-6812198D02*
X3027206Y-6821722D01*
X3027206Y-6821722D02*
X3017682Y-6831246D01*
X3017682Y-6831246D02*
X3008158Y-6850293D01*
X3008158Y-6850293D02*
X3008158Y-6888388D01*
X3008158Y-6888388D02*
X3017682Y-6907436D01*
X3017682Y-6907436D02*
X3027206Y-6916960D01*
X3027206Y-6916960D02*
X3046253Y-6926484D01*
X3046253Y-6926484D02*
X3084348Y-6926484D01*
X3084348Y-6926484D02*
X3103396Y-6916960D01*
X3103396Y-6916960D02*
X3112920Y-6907436D01*
X3112920Y-6907436D02*
X3122444Y-6888388D01*
X3122444Y-6888388D02*
X3122444Y-6850293D01*
X3122444Y-6850293D02*
X3112920Y-6831246D01*
X3112920Y-6831246D02*
X3103396Y-6821722D01*
X3103396Y-6821722D02*
X3084348Y-6812198D01*
X3198634Y-6726484D02*
X3198634Y-6764579D01*
X3274825Y-6726484D02*
X3274825Y-6764579D01*
X3570063Y-7002674D02*
X3560539Y-6993150D01*
X3560539Y-6993150D02*
X3541491Y-6964579D01*
X3541491Y-6964579D02*
X3531968Y-6945531D01*
X3531968Y-6945531D02*
X3522444Y-6916960D01*
X3522444Y-6916960D02*
X3512920Y-6869341D01*
X3512920Y-6869341D02*
X3512920Y-6831246D01*
X3512920Y-6831246D02*
X3522444Y-6783627D01*
X3522444Y-6783627D02*
X3531968Y-6755055D01*
X3531968Y-6755055D02*
X3541491Y-6736008D01*
X3541491Y-6736008D02*
X3560539Y-6707436D01*
X3560539Y-6707436D02*
X3570063Y-6697912D01*
X3636729Y-6745531D02*
X3646253Y-6736008D01*
X3646253Y-6736008D02*
X3665301Y-6726484D01*
X3665301Y-6726484D02*
X3712920Y-6726484D01*
X3712920Y-6726484D02*
X3731968Y-6736008D01*
X3731968Y-6736008D02*
X3741491Y-6745531D01*
X3741491Y-6745531D02*
X3751015Y-6764579D01*
X3751015Y-6764579D02*
X3751015Y-6783627D01*
X3751015Y-6783627D02*
X3741491Y-6812198D01*
X3741491Y-6812198D02*
X3627206Y-6926484D01*
X3627206Y-6926484D02*
X3751015Y-6926484D01*
X3989110Y-6926484D02*
X3989110Y-6726484D01*
X4074825Y-6926484D02*
X4074825Y-6821722D01*
X4074825Y-6821722D02*
X4065301Y-6802674D01*
X4065301Y-6802674D02*
X4046253Y-6793150D01*
X4046253Y-6793150D02*
X4017682Y-6793150D01*
X4017682Y-6793150D02*
X3998634Y-6802674D01*
X3998634Y-6802674D02*
X3989110Y-6812198D01*
X4198634Y-6926484D02*
X4179587Y-6916960D01*
X4179587Y-6916960D02*
X4170063Y-6907436D01*
X4170063Y-6907436D02*
X4160539Y-6888388D01*
X4160539Y-6888388D02*
X4160539Y-6831246D01*
X4160539Y-6831246D02*
X4170063Y-6812198D01*
X4170063Y-6812198D02*
X4179587Y-6802674D01*
X4179587Y-6802674D02*
X4198634Y-6793150D01*
X4198634Y-6793150D02*
X4227206Y-6793150D01*
X4227206Y-6793150D02*
X4246253Y-6802674D01*
X4246253Y-6802674D02*
X4255777Y-6812198D01*
X4255777Y-6812198D02*
X4265301Y-6831246D01*
X4265301Y-6831246D02*
X4265301Y-6888388D01*
X4265301Y-6888388D02*
X4255777Y-6907436D01*
X4255777Y-6907436D02*
X4246253Y-6916960D01*
X4246253Y-6916960D02*
X4227206Y-6926484D01*
X4227206Y-6926484D02*
X4198634Y-6926484D01*
X4379587Y-6926484D02*
X4360539Y-6916960D01*
X4360539Y-6916960D02*
X4351015Y-6897912D01*
X4351015Y-6897912D02*
X4351015Y-6726484D01*
X4531968Y-6916960D02*
X4512920Y-6926484D01*
X4512920Y-6926484D02*
X4474825Y-6926484D01*
X4474825Y-6926484D02*
X4455777Y-6916960D01*
X4455777Y-6916960D02*
X4446253Y-6897912D01*
X4446253Y-6897912D02*
X4446253Y-6821722D01*
X4446253Y-6821722D02*
X4455777Y-6802674D01*
X4455777Y-6802674D02*
X4474825Y-6793150D01*
X4474825Y-6793150D02*
X4512920Y-6793150D01*
X4512920Y-6793150D02*
X4531968Y-6802674D01*
X4531968Y-6802674D02*
X4541492Y-6821722D01*
X4541492Y-6821722D02*
X4541492Y-6840769D01*
X4541492Y-6840769D02*
X4446253Y-6859817D01*
X4617682Y-6916960D02*
X4636730Y-6926484D01*
X4636730Y-6926484D02*
X4674825Y-6926484D01*
X4674825Y-6926484D02*
X4693873Y-6916960D01*
X4693873Y-6916960D02*
X4703396Y-6897912D01*
X4703396Y-6897912D02*
X4703396Y-6888388D01*
X4703396Y-6888388D02*
X4693873Y-6869341D01*
X4693873Y-6869341D02*
X4674825Y-6859817D01*
X4674825Y-6859817D02*
X4646253Y-6859817D01*
X4646253Y-6859817D02*
X4627206Y-6850293D01*
X4627206Y-6850293D02*
X4617682Y-6831246D01*
X4617682Y-6831246D02*
X4617682Y-6821722D01*
X4617682Y-6821722D02*
X4627206Y-6802674D01*
X4627206Y-6802674D02*
X4646253Y-6793150D01*
X4646253Y-6793150D02*
X4674825Y-6793150D01*
X4674825Y-6793150D02*
X4693873Y-6802674D01*
X4770063Y-7002674D02*
X4779587Y-6993150D01*
X4779587Y-6993150D02*
X4798634Y-6964579D01*
X4798634Y-6964579D02*
X4808158Y-6945531D01*
X4808158Y-6945531D02*
X4817682Y-6916960D01*
X4817682Y-6916960D02*
X4827206Y-6869341D01*
X4827206Y-6869341D02*
X4827206Y-6831246D01*
X4827206Y-6831246D02*
X4817682Y-6783627D01*
X4817682Y-6783627D02*
X4808158Y-6755055D01*
X4808158Y-6755055D02*
X4798634Y-6736008D01*
X4798634Y-6736008D02*
X4779587Y-6707436D01*
X4779587Y-6707436D02*
X4770063Y-6697912D01*
D10*
X-42500Y-7182500D02*
X-5000Y-7145000D01*
X-42500Y-7107500D01*
X-80000Y-7145000D01*
X-42500Y-7182500D01*
D11*
X293872Y-7036484D02*
X312920Y-7036484D01*
X312920Y-7036484D02*
X331967Y-7046008D01*
X331967Y-7046008D02*
X341491Y-7055531D01*
X341491Y-7055531D02*
X351015Y-7074579D01*
X351015Y-7074579D02*
X360539Y-7112674D01*
X360539Y-7112674D02*
X360539Y-7160293D01*
X360539Y-7160293D02*
X351015Y-7198388D01*
X351015Y-7198388D02*
X341491Y-7217436D01*
X341491Y-7217436D02*
X331967Y-7226960D01*
X331967Y-7226960D02*
X312920Y-7236484D01*
X312920Y-7236484D02*
X293872Y-7236484D01*
X293872Y-7236484D02*
X274824Y-7226960D01*
X274824Y-7226960D02*
X265301Y-7217436D01*
X265301Y-7217436D02*
X255777Y-7198388D01*
X255777Y-7198388D02*
X246253Y-7160293D01*
X246253Y-7160293D02*
X246253Y-7112674D01*
X246253Y-7112674D02*
X255777Y-7074579D01*
X255777Y-7074579D02*
X265301Y-7055531D01*
X265301Y-7055531D02*
X274824Y-7046008D01*
X274824Y-7046008D02*
X293872Y-7036484D01*
X446253Y-7217436D02*
X455777Y-7226960D01*
X455777Y-7226960D02*
X446253Y-7236484D01*
X446253Y-7236484D02*
X436729Y-7226960D01*
X436729Y-7226960D02*
X446253Y-7217436D01*
X446253Y-7217436D02*
X446253Y-7236484D01*
X522443Y-7036484D02*
X655777Y-7036484D01*
X655777Y-7036484D02*
X570063Y-7236484D01*
X827205Y-7036484D02*
X731967Y-7036484D01*
X731967Y-7036484D02*
X722443Y-7131722D01*
X722443Y-7131722D02*
X731967Y-7122198D01*
X731967Y-7122198D02*
X751015Y-7112674D01*
X751015Y-7112674D02*
X798634Y-7112674D01*
X798634Y-7112674D02*
X817682Y-7122198D01*
X817682Y-7122198D02*
X827205Y-7131722D01*
X827205Y-7131722D02*
X836729Y-7150769D01*
X836729Y-7150769D02*
X836729Y-7198388D01*
X836729Y-7198388D02*
X827205Y-7217436D01*
X827205Y-7217436D02*
X817682Y-7226960D01*
X817682Y-7226960D02*
X798634Y-7236484D01*
X798634Y-7236484D02*
X751015Y-7236484D01*
X751015Y-7236484D02*
X731967Y-7226960D01*
X731967Y-7226960D02*
X722443Y-7217436D01*
X960539Y-7036484D02*
X979586Y-7036484D01*
X979586Y-7036484D02*
X998634Y-7046008D01*
X998634Y-7046008D02*
X1008158Y-7055531D01*
X1008158Y-7055531D02*
X1017682Y-7074579D01*
X1017682Y-7074579D02*
X1027205Y-7112674D01*
X1027205Y-7112674D02*
X1027205Y-7160293D01*
X1027205Y-7160293D02*
X1017682Y-7198388D01*
X1017682Y-7198388D02*
X1008158Y-7217436D01*
X1008158Y-7217436D02*
X998634Y-7226960D01*
X998634Y-7226960D02*
X979586Y-7236484D01*
X979586Y-7236484D02*
X960539Y-7236484D01*
X960539Y-7236484D02*
X941491Y-7226960D01*
X941491Y-7226960D02*
X931967Y-7217436D01*
X931967Y-7217436D02*
X922443Y-7198388D01*
X922443Y-7198388D02*
X912920Y-7160293D01*
X912920Y-7160293D02*
X912920Y-7112674D01*
X912920Y-7112674D02*
X922443Y-7074579D01*
X922443Y-7074579D02*
X931967Y-7055531D01*
X931967Y-7055531D02*
X941491Y-7046008D01*
X941491Y-7046008D02*
X960539Y-7036484D01*
X1112920Y-7236484D02*
X1112920Y-7103150D01*
X1112920Y-7122198D02*
X1122444Y-7112674D01*
X1122444Y-7112674D02*
X1141491Y-7103150D01*
X1141491Y-7103150D02*
X1170063Y-7103150D01*
X1170063Y-7103150D02*
X1189110Y-7112674D01*
X1189110Y-7112674D02*
X1198634Y-7131722D01*
X1198634Y-7131722D02*
X1198634Y-7236484D01*
X1198634Y-7131722D02*
X1208158Y-7112674D01*
X1208158Y-7112674D02*
X1227205Y-7103150D01*
X1227205Y-7103150D02*
X1255777Y-7103150D01*
X1255777Y-7103150D02*
X1274825Y-7112674D01*
X1274825Y-7112674D02*
X1284348Y-7131722D01*
X1284348Y-7131722D02*
X1284348Y-7236484D01*
X1379586Y-7236484D02*
X1379586Y-7103150D01*
X1379586Y-7122198D02*
X1389110Y-7112674D01*
X1389110Y-7112674D02*
X1408158Y-7103150D01*
X1408158Y-7103150D02*
X1436729Y-7103150D01*
X1436729Y-7103150D02*
X1455777Y-7112674D01*
X1455777Y-7112674D02*
X1465301Y-7131722D01*
X1465301Y-7131722D02*
X1465301Y-7236484D01*
X1465301Y-7131722D02*
X1474824Y-7112674D01*
X1474824Y-7112674D02*
X1493872Y-7103150D01*
X1493872Y-7103150D02*
X1522443Y-7103150D01*
X1522443Y-7103150D02*
X1541491Y-7112674D01*
X1541491Y-7112674D02*
X1551015Y-7131722D01*
X1551015Y-7131722D02*
X1551015Y-7236484D01*
X1941491Y-7026960D02*
X1770063Y-7284103D01*
X2198634Y-7036484D02*
X2217682Y-7036484D01*
X2217682Y-7036484D02*
X2236729Y-7046008D01*
X2236729Y-7046008D02*
X2246253Y-7055531D01*
X2246253Y-7055531D02*
X2255777Y-7074579D01*
X2255777Y-7074579D02*
X2265301Y-7112674D01*
X2265301Y-7112674D02*
X2265301Y-7160293D01*
X2265301Y-7160293D02*
X2255777Y-7198388D01*
X2255777Y-7198388D02*
X2246253Y-7217436D01*
X2246253Y-7217436D02*
X2236729Y-7226960D01*
X2236729Y-7226960D02*
X2217682Y-7236484D01*
X2217682Y-7236484D02*
X2198634Y-7236484D01*
X2198634Y-7236484D02*
X2179587Y-7226960D01*
X2179587Y-7226960D02*
X2170063Y-7217436D01*
X2170063Y-7217436D02*
X2160539Y-7198388D01*
X2160539Y-7198388D02*
X2151015Y-7160293D01*
X2151015Y-7160293D02*
X2151015Y-7112674D01*
X2151015Y-7112674D02*
X2160539Y-7074579D01*
X2160539Y-7074579D02*
X2170063Y-7055531D01*
X2170063Y-7055531D02*
X2179587Y-7046008D01*
X2179587Y-7046008D02*
X2198634Y-7036484D01*
X2351015Y-7217436D02*
X2360539Y-7226960D01*
X2360539Y-7226960D02*
X2351015Y-7236484D01*
X2351015Y-7236484D02*
X2341491Y-7226960D01*
X2341491Y-7226960D02*
X2351015Y-7217436D01*
X2351015Y-7217436D02*
X2351015Y-7236484D01*
X2484348Y-7036484D02*
X2503396Y-7036484D01*
X2503396Y-7036484D02*
X2522444Y-7046008D01*
X2522444Y-7046008D02*
X2531968Y-7055531D01*
X2531968Y-7055531D02*
X2541491Y-7074579D01*
X2541491Y-7074579D02*
X2551015Y-7112674D01*
X2551015Y-7112674D02*
X2551015Y-7160293D01*
X2551015Y-7160293D02*
X2541491Y-7198388D01*
X2541491Y-7198388D02*
X2531968Y-7217436D01*
X2531968Y-7217436D02*
X2522444Y-7226960D01*
X2522444Y-7226960D02*
X2503396Y-7236484D01*
X2503396Y-7236484D02*
X2484348Y-7236484D01*
X2484348Y-7236484D02*
X2465301Y-7226960D01*
X2465301Y-7226960D02*
X2455777Y-7217436D01*
X2455777Y-7217436D02*
X2446253Y-7198388D01*
X2446253Y-7198388D02*
X2436729Y-7160293D01*
X2436729Y-7160293D02*
X2436729Y-7112674D01*
X2436729Y-7112674D02*
X2446253Y-7074579D01*
X2446253Y-7074579D02*
X2455777Y-7055531D01*
X2455777Y-7055531D02*
X2465301Y-7046008D01*
X2465301Y-7046008D02*
X2484348Y-7036484D01*
X2627206Y-7055531D02*
X2636729Y-7046008D01*
X2636729Y-7046008D02*
X2655777Y-7036484D01*
X2655777Y-7036484D02*
X2703396Y-7036484D01*
X2703396Y-7036484D02*
X2722444Y-7046008D01*
X2722444Y-7046008D02*
X2731968Y-7055531D01*
X2731968Y-7055531D02*
X2741491Y-7074579D01*
X2741491Y-7074579D02*
X2741491Y-7093627D01*
X2741491Y-7093627D02*
X2731968Y-7122198D01*
X2731968Y-7122198D02*
X2617682Y-7236484D01*
X2617682Y-7236484D02*
X2741491Y-7236484D01*
X2836729Y-7236484D02*
X2874825Y-7236484D01*
X2874825Y-7236484D02*
X2893872Y-7226960D01*
X2893872Y-7226960D02*
X2903396Y-7217436D01*
X2903396Y-7217436D02*
X2922444Y-7188865D01*
X2922444Y-7188865D02*
X2931967Y-7150769D01*
X2931967Y-7150769D02*
X2931967Y-7074579D01*
X2931967Y-7074579D02*
X2922444Y-7055531D01*
X2922444Y-7055531D02*
X2912920Y-7046008D01*
X2912920Y-7046008D02*
X2893872Y-7036484D01*
X2893872Y-7036484D02*
X2855777Y-7036484D01*
X2855777Y-7036484D02*
X2836729Y-7046008D01*
X2836729Y-7046008D02*
X2827206Y-7055531D01*
X2827206Y-7055531D02*
X2817682Y-7074579D01*
X2817682Y-7074579D02*
X2817682Y-7122198D01*
X2817682Y-7122198D02*
X2827206Y-7141246D01*
X2827206Y-7141246D02*
X2836729Y-7150769D01*
X2836729Y-7150769D02*
X2855777Y-7160293D01*
X2855777Y-7160293D02*
X2893872Y-7160293D01*
X2893872Y-7160293D02*
X2912920Y-7150769D01*
X2912920Y-7150769D02*
X2922444Y-7141246D01*
X2922444Y-7141246D02*
X2931967Y-7122198D01*
X3112920Y-7036484D02*
X3017682Y-7036484D01*
X3017682Y-7036484D02*
X3008158Y-7131722D01*
X3008158Y-7131722D02*
X3017682Y-7122198D01*
X3017682Y-7122198D02*
X3036729Y-7112674D01*
X3036729Y-7112674D02*
X3084348Y-7112674D01*
X3084348Y-7112674D02*
X3103396Y-7122198D01*
X3103396Y-7122198D02*
X3112920Y-7131722D01*
X3112920Y-7131722D02*
X3122444Y-7150769D01*
X3122444Y-7150769D02*
X3122444Y-7198388D01*
X3122444Y-7198388D02*
X3112920Y-7217436D01*
X3112920Y-7217436D02*
X3103396Y-7226960D01*
X3103396Y-7226960D02*
X3084348Y-7236484D01*
X3084348Y-7236484D02*
X3036729Y-7236484D01*
X3036729Y-7236484D02*
X3017682Y-7226960D01*
X3017682Y-7226960D02*
X3008158Y-7217436D01*
X3198634Y-7036484D02*
X3198634Y-7074579D01*
X3274825Y-7036484D02*
X3274825Y-7074579D01*
X3570063Y-7312674D02*
X3560539Y-7303150D01*
X3560539Y-7303150D02*
X3541491Y-7274579D01*
X3541491Y-7274579D02*
X3531968Y-7255531D01*
X3531968Y-7255531D02*
X3522444Y-7226960D01*
X3522444Y-7226960D02*
X3512920Y-7179341D01*
X3512920Y-7179341D02*
X3512920Y-7141246D01*
X3512920Y-7141246D02*
X3522444Y-7093627D01*
X3522444Y-7093627D02*
X3531968Y-7065055D01*
X3531968Y-7065055D02*
X3541491Y-7046008D01*
X3541491Y-7046008D02*
X3560539Y-7017436D01*
X3560539Y-7017436D02*
X3570063Y-7007912D01*
X3636729Y-7055531D02*
X3646253Y-7046008D01*
X3646253Y-7046008D02*
X3665301Y-7036484D01*
X3665301Y-7036484D02*
X3712920Y-7036484D01*
X3712920Y-7036484D02*
X3731968Y-7046008D01*
X3731968Y-7046008D02*
X3741491Y-7055531D01*
X3741491Y-7055531D02*
X3751015Y-7074579D01*
X3751015Y-7074579D02*
X3751015Y-7093627D01*
X3751015Y-7093627D02*
X3741491Y-7122198D01*
X3741491Y-7122198D02*
X3627206Y-7236484D01*
X3627206Y-7236484D02*
X3751015Y-7236484D01*
X3989110Y-7236484D02*
X3989110Y-7036484D01*
X4074825Y-7236484D02*
X4074825Y-7131722D01*
X4074825Y-7131722D02*
X4065301Y-7112674D01*
X4065301Y-7112674D02*
X4046253Y-7103150D01*
X4046253Y-7103150D02*
X4017682Y-7103150D01*
X4017682Y-7103150D02*
X3998634Y-7112674D01*
X3998634Y-7112674D02*
X3989110Y-7122198D01*
X4198634Y-7236484D02*
X4179587Y-7226960D01*
X4179587Y-7226960D02*
X4170063Y-7217436D01*
X4170063Y-7217436D02*
X4160539Y-7198388D01*
X4160539Y-7198388D02*
X4160539Y-7141246D01*
X4160539Y-7141246D02*
X4170063Y-7122198D01*
X4170063Y-7122198D02*
X4179587Y-7112674D01*
X4179587Y-7112674D02*
X4198634Y-7103150D01*
X4198634Y-7103150D02*
X4227206Y-7103150D01*
X4227206Y-7103150D02*
X4246253Y-7112674D01*
X4246253Y-7112674D02*
X4255777Y-7122198D01*
X4255777Y-7122198D02*
X4265301Y-7141246D01*
X4265301Y-7141246D02*
X4265301Y-7198388D01*
X4265301Y-7198388D02*
X4255777Y-7217436D01*
X4255777Y-7217436D02*
X4246253Y-7226960D01*
X4246253Y-7226960D02*
X4227206Y-7236484D01*
X4227206Y-7236484D02*
X4198634Y-7236484D01*
X4379587Y-7236484D02*
X4360539Y-7226960D01*
X4360539Y-7226960D02*
X4351015Y-7207912D01*
X4351015Y-7207912D02*
X4351015Y-7036484D01*
X4531968Y-7226960D02*
X4512920Y-7236484D01*
X4512920Y-7236484D02*
X4474825Y-7236484D01*
X4474825Y-7236484D02*
X4455777Y-7226960D01*
X4455777Y-7226960D02*
X4446253Y-7207912D01*
X4446253Y-7207912D02*
X4446253Y-7131722D01*
X4446253Y-7131722D02*
X4455777Y-7112674D01*
X4455777Y-7112674D02*
X4474825Y-7103150D01*
X4474825Y-7103150D02*
X4512920Y-7103150D01*
X4512920Y-7103150D02*
X4531968Y-7112674D01*
X4531968Y-7112674D02*
X4541492Y-7131722D01*
X4541492Y-7131722D02*
X4541492Y-7150769D01*
X4541492Y-7150769D02*
X4446253Y-7169817D01*
X4617682Y-7226960D02*
X4636730Y-7236484D01*
X4636730Y-7236484D02*
X4674825Y-7236484D01*
X4674825Y-7236484D02*
X4693873Y-7226960D01*
X4693873Y-7226960D02*
X4703396Y-7207912D01*
X4703396Y-7207912D02*
X4703396Y-7198388D01*
X4703396Y-7198388D02*
X4693873Y-7179341D01*
X4693873Y-7179341D02*
X4674825Y-7169817D01*
X4674825Y-7169817D02*
X4646253Y-7169817D01*
X4646253Y-7169817D02*
X4627206Y-7160293D01*
X4627206Y-7160293D02*
X4617682Y-7141246D01*
X4617682Y-7141246D02*
X4617682Y-7131722D01*
X4617682Y-7131722D02*
X4627206Y-7112674D01*
X4627206Y-7112674D02*
X4646253Y-7103150D01*
X4646253Y-7103150D02*
X4674825Y-7103150D01*
X4674825Y-7103150D02*
X4693873Y-7112674D01*
X4770063Y-7312674D02*
X4779587Y-7303150D01*
X4779587Y-7303150D02*
X4798634Y-7274579D01*
X4798634Y-7274579D02*
X4808158Y-7255531D01*
X4808158Y-7255531D02*
X4817682Y-7226960D01*
X4817682Y-7226960D02*
X4827206Y-7179341D01*
X4827206Y-7179341D02*
X4827206Y-7141246D01*
X4827206Y-7141246D02*
X4817682Y-7093627D01*
X4817682Y-7093627D02*
X4808158Y-7065055D01*
X4808158Y-7065055D02*
X4798634Y-7046008D01*
X4798634Y-7046008D02*
X4779587Y-7017436D01*
X4779587Y-7017436D02*
X4770063Y-7007912D01*
X5131968Y-7312674D02*
X5122444Y-7303150D01*
X5122444Y-7303150D02*
X5103396Y-7274579D01*
X5103396Y-7274579D02*
X5093873Y-7255531D01*
X5093873Y-7255531D02*
X5084349Y-7226960D01*
X5084349Y-7226960D02*
X5074825Y-7179341D01*
X5074825Y-7179341D02*
X5074825Y-7141246D01*
X5074825Y-7141246D02*
X5084349Y-7093627D01*
X5084349Y-7093627D02*
X5093873Y-7065055D01*
X5093873Y-7065055D02*
X5103396Y-7046008D01*
X5103396Y-7046008D02*
X5122444Y-7017436D01*
X5122444Y-7017436D02*
X5131968Y-7007912D01*
X5208158Y-7103150D02*
X5208158Y-7236484D01*
X5208158Y-7122198D02*
X5217682Y-7112674D01*
X5217682Y-7112674D02*
X5236730Y-7103150D01*
X5236730Y-7103150D02*
X5265301Y-7103150D01*
X5265301Y-7103150D02*
X5284349Y-7112674D01*
X5284349Y-7112674D02*
X5293873Y-7131722D01*
X5293873Y-7131722D02*
X5293873Y-7236484D01*
X5417682Y-7236484D02*
X5398634Y-7226960D01*
X5398634Y-7226960D02*
X5389111Y-7217436D01*
X5389111Y-7217436D02*
X5379587Y-7198388D01*
X5379587Y-7198388D02*
X5379587Y-7141246D01*
X5379587Y-7141246D02*
X5389111Y-7122198D01*
X5389111Y-7122198D02*
X5398634Y-7112674D01*
X5398634Y-7112674D02*
X5417682Y-7103150D01*
X5417682Y-7103150D02*
X5446254Y-7103150D01*
X5446254Y-7103150D02*
X5465301Y-7112674D01*
X5465301Y-7112674D02*
X5474825Y-7122198D01*
X5474825Y-7122198D02*
X5484349Y-7141246D01*
X5484349Y-7141246D02*
X5484349Y-7198388D01*
X5484349Y-7198388D02*
X5474825Y-7217436D01*
X5474825Y-7217436D02*
X5465301Y-7226960D01*
X5465301Y-7226960D02*
X5446254Y-7236484D01*
X5446254Y-7236484D02*
X5417682Y-7236484D01*
X5541492Y-7103150D02*
X5617682Y-7103150D01*
X5570063Y-7036484D02*
X5570063Y-7207912D01*
X5570063Y-7207912D02*
X5579587Y-7226960D01*
X5579587Y-7226960D02*
X5598634Y-7236484D01*
X5598634Y-7236484D02*
X5617682Y-7236484D01*
X5836730Y-7103150D02*
X5836730Y-7303150D01*
X5836730Y-7112674D02*
X5855777Y-7103150D01*
X5855777Y-7103150D02*
X5893873Y-7103150D01*
X5893873Y-7103150D02*
X5912920Y-7112674D01*
X5912920Y-7112674D02*
X5922444Y-7122198D01*
X5922444Y-7122198D02*
X5931968Y-7141246D01*
X5931968Y-7141246D02*
X5931968Y-7198388D01*
X5931968Y-7198388D02*
X5922444Y-7217436D01*
X5922444Y-7217436D02*
X5912920Y-7226960D01*
X5912920Y-7226960D02*
X5893873Y-7236484D01*
X5893873Y-7236484D02*
X5855777Y-7236484D01*
X5855777Y-7236484D02*
X5836730Y-7226960D01*
X6046253Y-7236484D02*
X6027206Y-7226960D01*
X6027206Y-7226960D02*
X6017682Y-7207912D01*
X6017682Y-7207912D02*
X6017682Y-7036484D01*
X6208158Y-7236484D02*
X6208158Y-7131722D01*
X6208158Y-7131722D02*
X6198634Y-7112674D01*
X6198634Y-7112674D02*
X6179587Y-7103150D01*
X6179587Y-7103150D02*
X6141492Y-7103150D01*
X6141492Y-7103150D02*
X6122444Y-7112674D01*
X6208158Y-7226960D02*
X6189111Y-7236484D01*
X6189111Y-7236484D02*
X6141492Y-7236484D01*
X6141492Y-7236484D02*
X6122444Y-7226960D01*
X6122444Y-7226960D02*
X6112920Y-7207912D01*
X6112920Y-7207912D02*
X6112920Y-7188865D01*
X6112920Y-7188865D02*
X6122444Y-7169817D01*
X6122444Y-7169817D02*
X6141492Y-7160293D01*
X6141492Y-7160293D02*
X6189111Y-7160293D01*
X6189111Y-7160293D02*
X6208158Y-7150769D01*
X6274825Y-7103150D02*
X6351015Y-7103150D01*
X6303396Y-7036484D02*
X6303396Y-7207912D01*
X6303396Y-7207912D02*
X6312920Y-7226960D01*
X6312920Y-7226960D02*
X6331968Y-7236484D01*
X6331968Y-7236484D02*
X6351015Y-7236484D01*
X6493873Y-7226960D02*
X6474825Y-7236484D01*
X6474825Y-7236484D02*
X6436730Y-7236484D01*
X6436730Y-7236484D02*
X6417682Y-7226960D01*
X6417682Y-7226960D02*
X6408158Y-7207912D01*
X6408158Y-7207912D02*
X6408158Y-7131722D01*
X6408158Y-7131722D02*
X6417682Y-7112674D01*
X6417682Y-7112674D02*
X6436730Y-7103150D01*
X6436730Y-7103150D02*
X6474825Y-7103150D01*
X6474825Y-7103150D02*
X6493873Y-7112674D01*
X6493873Y-7112674D02*
X6503396Y-7131722D01*
X6503396Y-7131722D02*
X6503396Y-7150769D01*
X6503396Y-7150769D02*
X6408158Y-7169817D01*
X6674825Y-7236484D02*
X6674825Y-7036484D01*
X6674825Y-7226960D02*
X6655777Y-7236484D01*
X6655777Y-7236484D02*
X6617682Y-7236484D01*
X6617682Y-7236484D02*
X6598634Y-7226960D01*
X6598634Y-7226960D02*
X6589111Y-7217436D01*
X6589111Y-7217436D02*
X6579587Y-7198388D01*
X6579587Y-7198388D02*
X6579587Y-7141246D01*
X6579587Y-7141246D02*
X6589111Y-7122198D01*
X6589111Y-7122198D02*
X6598634Y-7112674D01*
X6598634Y-7112674D02*
X6617682Y-7103150D01*
X6617682Y-7103150D02*
X6655777Y-7103150D01*
X6655777Y-7103150D02*
X6674825Y-7112674D01*
X6751015Y-7312674D02*
X6760539Y-7303150D01*
X6760539Y-7303150D02*
X6779587Y-7274579D01*
X6779587Y-7274579D02*
X6789111Y-7255531D01*
X6789111Y-7255531D02*
X6798634Y-7226960D01*
X6798634Y-7226960D02*
X6808158Y-7179341D01*
X6808158Y-7179341D02*
X6808158Y-7141246D01*
X6808158Y-7141246D02*
X6798634Y-7093627D01*
X6798634Y-7093627D02*
X6789111Y-7065055D01*
X6789111Y-7065055D02*
X6779587Y-7046008D01*
X6779587Y-7046008D02*
X6760539Y-7017436D01*
X6760539Y-7017436D02*
X6751015Y-7007912D01*
D10*
X-90000Y-7366500D02*
X-5000Y-7451500D01*
X-5000Y-7366500D02*
X-90000Y-7451500D01*
X-5000Y-7409000D02*
G75*
G02*
X-90000Y-7409000I-42500J0D01*
G01*
X-90000Y-7409000D02*
G75*
G02*
X-5000Y-7409000I42500J0D01*
G01*
D11*
X293872Y-7300484D02*
X312920Y-7300484D01*
X312920Y-7300484D02*
X331967Y-7310008D01*
X331967Y-7310008D02*
X341491Y-7319531D01*
X341491Y-7319531D02*
X351015Y-7338579D01*
X351015Y-7338579D02*
X360539Y-7376674D01*
X360539Y-7376674D02*
X360539Y-7424293D01*
X360539Y-7424293D02*
X351015Y-7462388D01*
X351015Y-7462388D02*
X341491Y-7481436D01*
X341491Y-7481436D02*
X331967Y-7490960D01*
X331967Y-7490960D02*
X312920Y-7500484D01*
X312920Y-7500484D02*
X293872Y-7500484D01*
X293872Y-7500484D02*
X274824Y-7490960D01*
X274824Y-7490960D02*
X265301Y-7481436D01*
X265301Y-7481436D02*
X255777Y-7462388D01*
X255777Y-7462388D02*
X246253Y-7424293D01*
X246253Y-7424293D02*
X246253Y-7376674D01*
X246253Y-7376674D02*
X255777Y-7338579D01*
X255777Y-7338579D02*
X265301Y-7319531D01*
X265301Y-7319531D02*
X274824Y-7310008D01*
X274824Y-7310008D02*
X293872Y-7300484D01*
X446253Y-7481436D02*
X455777Y-7490960D01*
X455777Y-7490960D02*
X446253Y-7500484D01*
X446253Y-7500484D02*
X436729Y-7490960D01*
X436729Y-7490960D02*
X446253Y-7481436D01*
X446253Y-7481436D02*
X446253Y-7500484D01*
X570063Y-7386198D02*
X551015Y-7376674D01*
X551015Y-7376674D02*
X541491Y-7367150D01*
X541491Y-7367150D02*
X531967Y-7348103D01*
X531967Y-7348103D02*
X531967Y-7338579D01*
X531967Y-7338579D02*
X541491Y-7319531D01*
X541491Y-7319531D02*
X551015Y-7310008D01*
X551015Y-7310008D02*
X570063Y-7300484D01*
X570063Y-7300484D02*
X608158Y-7300484D01*
X608158Y-7300484D02*
X627205Y-7310008D01*
X627205Y-7310008D02*
X636729Y-7319531D01*
X636729Y-7319531D02*
X646253Y-7338579D01*
X646253Y-7338579D02*
X646253Y-7348103D01*
X646253Y-7348103D02*
X636729Y-7367150D01*
X636729Y-7367150D02*
X627205Y-7376674D01*
X627205Y-7376674D02*
X608158Y-7386198D01*
X608158Y-7386198D02*
X570063Y-7386198D01*
X570063Y-7386198D02*
X551015Y-7395722D01*
X551015Y-7395722D02*
X541491Y-7405246D01*
X541491Y-7405246D02*
X531967Y-7424293D01*
X531967Y-7424293D02*
X531967Y-7462388D01*
X531967Y-7462388D02*
X541491Y-7481436D01*
X541491Y-7481436D02*
X551015Y-7490960D01*
X551015Y-7490960D02*
X570063Y-7500484D01*
X570063Y-7500484D02*
X608158Y-7500484D01*
X608158Y-7500484D02*
X627205Y-7490960D01*
X627205Y-7490960D02*
X636729Y-7481436D01*
X636729Y-7481436D02*
X646253Y-7462388D01*
X646253Y-7462388D02*
X646253Y-7424293D01*
X646253Y-7424293D02*
X636729Y-7405246D01*
X636729Y-7405246D02*
X627205Y-7395722D01*
X627205Y-7395722D02*
X608158Y-7386198D01*
X827205Y-7300484D02*
X731967Y-7300484D01*
X731967Y-7300484D02*
X722443Y-7395722D01*
X722443Y-7395722D02*
X731967Y-7386198D01*
X731967Y-7386198D02*
X751015Y-7376674D01*
X751015Y-7376674D02*
X798634Y-7376674D01*
X798634Y-7376674D02*
X817682Y-7386198D01*
X817682Y-7386198D02*
X827205Y-7395722D01*
X827205Y-7395722D02*
X836729Y-7414769D01*
X836729Y-7414769D02*
X836729Y-7462388D01*
X836729Y-7462388D02*
X827205Y-7481436D01*
X827205Y-7481436D02*
X817682Y-7490960D01*
X817682Y-7490960D02*
X798634Y-7500484D01*
X798634Y-7500484D02*
X751015Y-7500484D01*
X751015Y-7500484D02*
X731967Y-7490960D01*
X731967Y-7490960D02*
X722443Y-7481436D01*
X960539Y-7300484D02*
X979586Y-7300484D01*
X979586Y-7300484D02*
X998634Y-7310008D01*
X998634Y-7310008D02*
X1008158Y-7319531D01*
X1008158Y-7319531D02*
X1017682Y-7338579D01*
X1017682Y-7338579D02*
X1027205Y-7376674D01*
X1027205Y-7376674D02*
X1027205Y-7424293D01*
X1027205Y-7424293D02*
X1017682Y-7462388D01*
X1017682Y-7462388D02*
X1008158Y-7481436D01*
X1008158Y-7481436D02*
X998634Y-7490960D01*
X998634Y-7490960D02*
X979586Y-7500484D01*
X979586Y-7500484D02*
X960539Y-7500484D01*
X960539Y-7500484D02*
X941491Y-7490960D01*
X941491Y-7490960D02*
X931967Y-7481436D01*
X931967Y-7481436D02*
X922443Y-7462388D01*
X922443Y-7462388D02*
X912920Y-7424293D01*
X912920Y-7424293D02*
X912920Y-7376674D01*
X912920Y-7376674D02*
X922443Y-7338579D01*
X922443Y-7338579D02*
X931967Y-7319531D01*
X931967Y-7319531D02*
X941491Y-7310008D01*
X941491Y-7310008D02*
X960539Y-7300484D01*
X1112920Y-7500484D02*
X1112920Y-7367150D01*
X1112920Y-7386198D02*
X1122444Y-7376674D01*
X1122444Y-7376674D02*
X1141491Y-7367150D01*
X1141491Y-7367150D02*
X1170063Y-7367150D01*
X1170063Y-7367150D02*
X1189110Y-7376674D01*
X1189110Y-7376674D02*
X1198634Y-7395722D01*
X1198634Y-7395722D02*
X1198634Y-7500484D01*
X1198634Y-7395722D02*
X1208158Y-7376674D01*
X1208158Y-7376674D02*
X1227205Y-7367150D01*
X1227205Y-7367150D02*
X1255777Y-7367150D01*
X1255777Y-7367150D02*
X1274825Y-7376674D01*
X1274825Y-7376674D02*
X1284348Y-7395722D01*
X1284348Y-7395722D02*
X1284348Y-7500484D01*
X1379586Y-7500484D02*
X1379586Y-7367150D01*
X1379586Y-7386198D02*
X1389110Y-7376674D01*
X1389110Y-7376674D02*
X1408158Y-7367150D01*
X1408158Y-7367150D02*
X1436729Y-7367150D01*
X1436729Y-7367150D02*
X1455777Y-7376674D01*
X1455777Y-7376674D02*
X1465301Y-7395722D01*
X1465301Y-7395722D02*
X1465301Y-7500484D01*
X1465301Y-7395722D02*
X1474824Y-7376674D01*
X1474824Y-7376674D02*
X1493872Y-7367150D01*
X1493872Y-7367150D02*
X1522443Y-7367150D01*
X1522443Y-7367150D02*
X1541491Y-7376674D01*
X1541491Y-7376674D02*
X1551015Y-7395722D01*
X1551015Y-7395722D02*
X1551015Y-7500484D01*
X1941491Y-7290960D02*
X1770063Y-7548103D01*
X2198634Y-7300484D02*
X2217682Y-7300484D01*
X2217682Y-7300484D02*
X2236729Y-7310008D01*
X2236729Y-7310008D02*
X2246253Y-7319531D01*
X2246253Y-7319531D02*
X2255777Y-7338579D01*
X2255777Y-7338579D02*
X2265301Y-7376674D01*
X2265301Y-7376674D02*
X2265301Y-7424293D01*
X2265301Y-7424293D02*
X2255777Y-7462388D01*
X2255777Y-7462388D02*
X2246253Y-7481436D01*
X2246253Y-7481436D02*
X2236729Y-7490960D01*
X2236729Y-7490960D02*
X2217682Y-7500484D01*
X2217682Y-7500484D02*
X2198634Y-7500484D01*
X2198634Y-7500484D02*
X2179587Y-7490960D01*
X2179587Y-7490960D02*
X2170063Y-7481436D01*
X2170063Y-7481436D02*
X2160539Y-7462388D01*
X2160539Y-7462388D02*
X2151015Y-7424293D01*
X2151015Y-7424293D02*
X2151015Y-7376674D01*
X2151015Y-7376674D02*
X2160539Y-7338579D01*
X2160539Y-7338579D02*
X2170063Y-7319531D01*
X2170063Y-7319531D02*
X2179587Y-7310008D01*
X2179587Y-7310008D02*
X2198634Y-7300484D01*
X2351015Y-7481436D02*
X2360539Y-7490960D01*
X2360539Y-7490960D02*
X2351015Y-7500484D01*
X2351015Y-7500484D02*
X2341491Y-7490960D01*
X2341491Y-7490960D02*
X2351015Y-7481436D01*
X2351015Y-7481436D02*
X2351015Y-7500484D01*
X2484348Y-7300484D02*
X2503396Y-7300484D01*
X2503396Y-7300484D02*
X2522444Y-7310008D01*
X2522444Y-7310008D02*
X2531968Y-7319531D01*
X2531968Y-7319531D02*
X2541491Y-7338579D01*
X2541491Y-7338579D02*
X2551015Y-7376674D01*
X2551015Y-7376674D02*
X2551015Y-7424293D01*
X2551015Y-7424293D02*
X2541491Y-7462388D01*
X2541491Y-7462388D02*
X2531968Y-7481436D01*
X2531968Y-7481436D02*
X2522444Y-7490960D01*
X2522444Y-7490960D02*
X2503396Y-7500484D01*
X2503396Y-7500484D02*
X2484348Y-7500484D01*
X2484348Y-7500484D02*
X2465301Y-7490960D01*
X2465301Y-7490960D02*
X2455777Y-7481436D01*
X2455777Y-7481436D02*
X2446253Y-7462388D01*
X2446253Y-7462388D02*
X2436729Y-7424293D01*
X2436729Y-7424293D02*
X2436729Y-7376674D01*
X2436729Y-7376674D02*
X2446253Y-7338579D01*
X2446253Y-7338579D02*
X2455777Y-7319531D01*
X2455777Y-7319531D02*
X2465301Y-7310008D01*
X2465301Y-7310008D02*
X2484348Y-7300484D01*
X2617682Y-7300484D02*
X2741491Y-7300484D01*
X2741491Y-7300484D02*
X2674825Y-7376674D01*
X2674825Y-7376674D02*
X2703396Y-7376674D01*
X2703396Y-7376674D02*
X2722444Y-7386198D01*
X2722444Y-7386198D02*
X2731968Y-7395722D01*
X2731968Y-7395722D02*
X2741491Y-7414769D01*
X2741491Y-7414769D02*
X2741491Y-7462388D01*
X2741491Y-7462388D02*
X2731968Y-7481436D01*
X2731968Y-7481436D02*
X2722444Y-7490960D01*
X2722444Y-7490960D02*
X2703396Y-7500484D01*
X2703396Y-7500484D02*
X2646253Y-7500484D01*
X2646253Y-7500484D02*
X2627206Y-7490960D01*
X2627206Y-7490960D02*
X2617682Y-7481436D01*
X2808158Y-7300484D02*
X2931967Y-7300484D01*
X2931967Y-7300484D02*
X2865301Y-7376674D01*
X2865301Y-7376674D02*
X2893872Y-7376674D01*
X2893872Y-7376674D02*
X2912920Y-7386198D01*
X2912920Y-7386198D02*
X2922444Y-7395722D01*
X2922444Y-7395722D02*
X2931967Y-7414769D01*
X2931967Y-7414769D02*
X2931967Y-7462388D01*
X2931967Y-7462388D02*
X2922444Y-7481436D01*
X2922444Y-7481436D02*
X2912920Y-7490960D01*
X2912920Y-7490960D02*
X2893872Y-7500484D01*
X2893872Y-7500484D02*
X2836729Y-7500484D01*
X2836729Y-7500484D02*
X2817682Y-7490960D01*
X2817682Y-7490960D02*
X2808158Y-7481436D01*
X3112920Y-7300484D02*
X3017682Y-7300484D01*
X3017682Y-7300484D02*
X3008158Y-7395722D01*
X3008158Y-7395722D02*
X3017682Y-7386198D01*
X3017682Y-7386198D02*
X3036729Y-7376674D01*
X3036729Y-7376674D02*
X3084348Y-7376674D01*
X3084348Y-7376674D02*
X3103396Y-7386198D01*
X3103396Y-7386198D02*
X3112920Y-7395722D01*
X3112920Y-7395722D02*
X3122444Y-7414769D01*
X3122444Y-7414769D02*
X3122444Y-7462388D01*
X3122444Y-7462388D02*
X3112920Y-7481436D01*
X3112920Y-7481436D02*
X3103396Y-7490960D01*
X3103396Y-7490960D02*
X3084348Y-7500484D01*
X3084348Y-7500484D02*
X3036729Y-7500484D01*
X3036729Y-7500484D02*
X3017682Y-7490960D01*
X3017682Y-7490960D02*
X3008158Y-7481436D01*
X3198634Y-7300484D02*
X3198634Y-7338579D01*
X3274825Y-7300484D02*
X3274825Y-7338579D01*
X3570063Y-7576674D02*
X3560539Y-7567150D01*
X3560539Y-7567150D02*
X3541491Y-7538579D01*
X3541491Y-7538579D02*
X3531968Y-7519531D01*
X3531968Y-7519531D02*
X3522444Y-7490960D01*
X3522444Y-7490960D02*
X3512920Y-7443341D01*
X3512920Y-7443341D02*
X3512920Y-7405246D01*
X3512920Y-7405246D02*
X3522444Y-7357627D01*
X3522444Y-7357627D02*
X3531968Y-7329055D01*
X3531968Y-7329055D02*
X3541491Y-7310008D01*
X3541491Y-7310008D02*
X3560539Y-7281436D01*
X3560539Y-7281436D02*
X3570063Y-7271912D01*
X3636729Y-7319531D02*
X3646253Y-7310008D01*
X3646253Y-7310008D02*
X3665301Y-7300484D01*
X3665301Y-7300484D02*
X3712920Y-7300484D01*
X3712920Y-7300484D02*
X3731968Y-7310008D01*
X3731968Y-7310008D02*
X3741491Y-7319531D01*
X3741491Y-7319531D02*
X3751015Y-7338579D01*
X3751015Y-7338579D02*
X3751015Y-7357627D01*
X3751015Y-7357627D02*
X3741491Y-7386198D01*
X3741491Y-7386198D02*
X3627206Y-7500484D01*
X3627206Y-7500484D02*
X3751015Y-7500484D01*
X3989110Y-7500484D02*
X3989110Y-7300484D01*
X4074825Y-7500484D02*
X4074825Y-7395722D01*
X4074825Y-7395722D02*
X4065301Y-7376674D01*
X4065301Y-7376674D02*
X4046253Y-7367150D01*
X4046253Y-7367150D02*
X4017682Y-7367150D01*
X4017682Y-7367150D02*
X3998634Y-7376674D01*
X3998634Y-7376674D02*
X3989110Y-7386198D01*
X4198634Y-7500484D02*
X4179587Y-7490960D01*
X4179587Y-7490960D02*
X4170063Y-7481436D01*
X4170063Y-7481436D02*
X4160539Y-7462388D01*
X4160539Y-7462388D02*
X4160539Y-7405246D01*
X4160539Y-7405246D02*
X4170063Y-7386198D01*
X4170063Y-7386198D02*
X4179587Y-7376674D01*
X4179587Y-7376674D02*
X4198634Y-7367150D01*
X4198634Y-7367150D02*
X4227206Y-7367150D01*
X4227206Y-7367150D02*
X4246253Y-7376674D01*
X4246253Y-7376674D02*
X4255777Y-7386198D01*
X4255777Y-7386198D02*
X4265301Y-7405246D01*
X4265301Y-7405246D02*
X4265301Y-7462388D01*
X4265301Y-7462388D02*
X4255777Y-7481436D01*
X4255777Y-7481436D02*
X4246253Y-7490960D01*
X4246253Y-7490960D02*
X4227206Y-7500484D01*
X4227206Y-7500484D02*
X4198634Y-7500484D01*
X4379587Y-7500484D02*
X4360539Y-7490960D01*
X4360539Y-7490960D02*
X4351015Y-7471912D01*
X4351015Y-7471912D02*
X4351015Y-7300484D01*
X4531968Y-7490960D02*
X4512920Y-7500484D01*
X4512920Y-7500484D02*
X4474825Y-7500484D01*
X4474825Y-7500484D02*
X4455777Y-7490960D01*
X4455777Y-7490960D02*
X4446253Y-7471912D01*
X4446253Y-7471912D02*
X4446253Y-7395722D01*
X4446253Y-7395722D02*
X4455777Y-7376674D01*
X4455777Y-7376674D02*
X4474825Y-7367150D01*
X4474825Y-7367150D02*
X4512920Y-7367150D01*
X4512920Y-7367150D02*
X4531968Y-7376674D01*
X4531968Y-7376674D02*
X4541492Y-7395722D01*
X4541492Y-7395722D02*
X4541492Y-7414769D01*
X4541492Y-7414769D02*
X4446253Y-7433817D01*
X4617682Y-7490960D02*
X4636730Y-7500484D01*
X4636730Y-7500484D02*
X4674825Y-7500484D01*
X4674825Y-7500484D02*
X4693873Y-7490960D01*
X4693873Y-7490960D02*
X4703396Y-7471912D01*
X4703396Y-7471912D02*
X4703396Y-7462388D01*
X4703396Y-7462388D02*
X4693873Y-7443341D01*
X4693873Y-7443341D02*
X4674825Y-7433817D01*
X4674825Y-7433817D02*
X4646253Y-7433817D01*
X4646253Y-7433817D02*
X4627206Y-7424293D01*
X4627206Y-7424293D02*
X4617682Y-7405246D01*
X4617682Y-7405246D02*
X4617682Y-7395722D01*
X4617682Y-7395722D02*
X4627206Y-7376674D01*
X4627206Y-7376674D02*
X4646253Y-7367150D01*
X4646253Y-7367150D02*
X4674825Y-7367150D01*
X4674825Y-7367150D02*
X4693873Y-7376674D01*
X4770063Y-7576674D02*
X4779587Y-7567150D01*
X4779587Y-7567150D02*
X4798634Y-7538579D01*
X4798634Y-7538579D02*
X4808158Y-7519531D01*
X4808158Y-7519531D02*
X4817682Y-7490960D01*
X4817682Y-7490960D02*
X4827206Y-7443341D01*
X4827206Y-7443341D02*
X4827206Y-7405246D01*
X4827206Y-7405246D02*
X4817682Y-7357627D01*
X4817682Y-7357627D02*
X4808158Y-7329055D01*
X4808158Y-7329055D02*
X4798634Y-7310008D01*
X4798634Y-7310008D02*
X4779587Y-7281436D01*
X4779587Y-7281436D02*
X4770063Y-7271912D01*
X5131968Y-7576674D02*
X5122444Y-7567150D01*
X5122444Y-7567150D02*
X5103396Y-7538579D01*
X5103396Y-7538579D02*
X5093873Y-7519531D01*
X5093873Y-7519531D02*
X5084349Y-7490960D01*
X5084349Y-7490960D02*
X5074825Y-7443341D01*
X5074825Y-7443341D02*
X5074825Y-7405246D01*
X5074825Y-7405246D02*
X5084349Y-7357627D01*
X5084349Y-7357627D02*
X5093873Y-7329055D01*
X5093873Y-7329055D02*
X5103396Y-7310008D01*
X5103396Y-7310008D02*
X5122444Y-7281436D01*
X5122444Y-7281436D02*
X5131968Y-7271912D01*
X5208158Y-7367150D02*
X5208158Y-7500484D01*
X5208158Y-7386198D02*
X5217682Y-7376674D01*
X5217682Y-7376674D02*
X5236730Y-7367150D01*
X5236730Y-7367150D02*
X5265301Y-7367150D01*
X5265301Y-7367150D02*
X5284349Y-7376674D01*
X5284349Y-7376674D02*
X5293873Y-7395722D01*
X5293873Y-7395722D02*
X5293873Y-7500484D01*
X5417682Y-7500484D02*
X5398634Y-7490960D01*
X5398634Y-7490960D02*
X5389111Y-7481436D01*
X5389111Y-7481436D02*
X5379587Y-7462388D01*
X5379587Y-7462388D02*
X5379587Y-7405246D01*
X5379587Y-7405246D02*
X5389111Y-7386198D01*
X5389111Y-7386198D02*
X5398634Y-7376674D01*
X5398634Y-7376674D02*
X5417682Y-7367150D01*
X5417682Y-7367150D02*
X5446254Y-7367150D01*
X5446254Y-7367150D02*
X5465301Y-7376674D01*
X5465301Y-7376674D02*
X5474825Y-7386198D01*
X5474825Y-7386198D02*
X5484349Y-7405246D01*
X5484349Y-7405246D02*
X5484349Y-7462388D01*
X5484349Y-7462388D02*
X5474825Y-7481436D01*
X5474825Y-7481436D02*
X5465301Y-7490960D01*
X5465301Y-7490960D02*
X5446254Y-7500484D01*
X5446254Y-7500484D02*
X5417682Y-7500484D01*
X5541492Y-7367150D02*
X5617682Y-7367150D01*
X5570063Y-7300484D02*
X5570063Y-7471912D01*
X5570063Y-7471912D02*
X5579587Y-7490960D01*
X5579587Y-7490960D02*
X5598634Y-7500484D01*
X5598634Y-7500484D02*
X5617682Y-7500484D01*
X5836730Y-7367150D02*
X5836730Y-7567150D01*
X5836730Y-7376674D02*
X5855777Y-7367150D01*
X5855777Y-7367150D02*
X5893873Y-7367150D01*
X5893873Y-7367150D02*
X5912920Y-7376674D01*
X5912920Y-7376674D02*
X5922444Y-7386198D01*
X5922444Y-7386198D02*
X5931968Y-7405246D01*
X5931968Y-7405246D02*
X5931968Y-7462388D01*
X5931968Y-7462388D02*
X5922444Y-7481436D01*
X5922444Y-7481436D02*
X5912920Y-7490960D01*
X5912920Y-7490960D02*
X5893873Y-7500484D01*
X5893873Y-7500484D02*
X5855777Y-7500484D01*
X5855777Y-7500484D02*
X5836730Y-7490960D01*
X6046253Y-7500484D02*
X6027206Y-7490960D01*
X6027206Y-7490960D02*
X6017682Y-7471912D01*
X6017682Y-7471912D02*
X6017682Y-7300484D01*
X6208158Y-7500484D02*
X6208158Y-7395722D01*
X6208158Y-7395722D02*
X6198634Y-7376674D01*
X6198634Y-7376674D02*
X6179587Y-7367150D01*
X6179587Y-7367150D02*
X6141492Y-7367150D01*
X6141492Y-7367150D02*
X6122444Y-7376674D01*
X6208158Y-7490960D02*
X6189111Y-7500484D01*
X6189111Y-7500484D02*
X6141492Y-7500484D01*
X6141492Y-7500484D02*
X6122444Y-7490960D01*
X6122444Y-7490960D02*
X6112920Y-7471912D01*
X6112920Y-7471912D02*
X6112920Y-7452865D01*
X6112920Y-7452865D02*
X6122444Y-7433817D01*
X6122444Y-7433817D02*
X6141492Y-7424293D01*
X6141492Y-7424293D02*
X6189111Y-7424293D01*
X6189111Y-7424293D02*
X6208158Y-7414769D01*
X6274825Y-7367150D02*
X6351015Y-7367150D01*
X6303396Y-7300484D02*
X6303396Y-7471912D01*
X6303396Y-7471912D02*
X6312920Y-7490960D01*
X6312920Y-7490960D02*
X6331968Y-7500484D01*
X6331968Y-7500484D02*
X6351015Y-7500484D01*
X6493873Y-7490960D02*
X6474825Y-7500484D01*
X6474825Y-7500484D02*
X6436730Y-7500484D01*
X6436730Y-7500484D02*
X6417682Y-7490960D01*
X6417682Y-7490960D02*
X6408158Y-7471912D01*
X6408158Y-7471912D02*
X6408158Y-7395722D01*
X6408158Y-7395722D02*
X6417682Y-7376674D01*
X6417682Y-7376674D02*
X6436730Y-7367150D01*
X6436730Y-7367150D02*
X6474825Y-7367150D01*
X6474825Y-7367150D02*
X6493873Y-7376674D01*
X6493873Y-7376674D02*
X6503396Y-7395722D01*
X6503396Y-7395722D02*
X6503396Y-7414769D01*
X6503396Y-7414769D02*
X6408158Y-7433817D01*
X6674825Y-7500484D02*
X6674825Y-7300484D01*
X6674825Y-7490960D02*
X6655777Y-7500484D01*
X6655777Y-7500484D02*
X6617682Y-7500484D01*
X6617682Y-7500484D02*
X6598634Y-7490960D01*
X6598634Y-7490960D02*
X6589111Y-7481436D01*
X6589111Y-7481436D02*
X6579587Y-7462388D01*
X6579587Y-7462388D02*
X6579587Y-7405246D01*
X6579587Y-7405246D02*
X6589111Y-7386198D01*
X6589111Y-7386198D02*
X6598634Y-7376674D01*
X6598634Y-7376674D02*
X6617682Y-7367150D01*
X6617682Y-7367150D02*
X6655777Y-7367150D01*
X6655777Y-7367150D02*
X6674825Y-7376674D01*
X6751015Y-7576674D02*
X6760539Y-7567150D01*
X6760539Y-7567150D02*
X6779587Y-7538579D01*
X6779587Y-7538579D02*
X6789111Y-7519531D01*
X6789111Y-7519531D02*
X6798634Y-7490960D01*
X6798634Y-7490960D02*
X6808158Y-7443341D01*
X6808158Y-7443341D02*
X6808158Y-7405246D01*
X6808158Y-7405246D02*
X6798634Y-7357627D01*
X6798634Y-7357627D02*
X6789111Y-7329055D01*
X6789111Y-7329055D02*
X6779587Y-7310008D01*
X6779587Y-7310008D02*
X6760539Y-7281436D01*
X6760539Y-7281436D02*
X6751015Y-7271912D01*
M02*
