%TF.GenerationSoftware,KiCad,Pcbnew,10.0.3*%
%TF.CreationDate,2026-08-03T21:39:11-04:00*%
%TF.ProjectId,NeuralCard,4e657572-616c-4436-9172-642e6b696361,rev?*%
%TF.SameCoordinates,Original*%
%TF.FileFunction,Copper,L1,Top*%
%TF.FilePolarity,Positive*%
%FSLAX46Y46*%
G04 Gerber Fmt 4.6, Leading zero omitted, Abs format (unit mm)*
G04 Created by KiCad (PCBNEW 10.0.3) date 2026-08-03 21:39:11*
%MOMM*%
%LPD*%
G01*
G04 APERTURE LIST*
%TA.AperFunction,EtchedComponent*%
%ADD10C,0.300000*%
%TD*%
%TA.AperFunction,SMDPad,CuDef*%
%ADD11R,0.800000X0.800000*%
%TD*%
%TA.AperFunction,ComponentPad*%
%ADD12C,1.200000*%
%TD*%
%TA.AperFunction,ViaPad*%
%ADD13C,0.600000*%
%TD*%
%TA.AperFunction,Conductor*%
%ADD14C,0.200000*%
%TD*%
G04 APERTURE END LIST*
%TO.C,ANT1*%
D10*
X8500000Y-22200000D02*
X8000000Y-14800000D01*
%TD*%
D11*
%TO.P,D9,1*%
%TO.N,CP5*%
X43550000Y-18429000D03*
%TO.P,D9,2*%
%TO.N,CP2*%
X42050000Y-18429000D03*
%TD*%
%TO.P,D23,1*%
%TO.N,CP3*%
X69350000Y-44111000D03*
%TO.P,D23,2*%
%TO.N,CP5*%
X67850000Y-44111000D03*
%TD*%
%TO.P,D3,1*%
%TO.N,CP4*%
X17750000Y-23800000D03*
%TO.P,D3,2*%
%TO.N,CP1*%
X16250000Y-23800000D03*
%TD*%
%TO.P,D18,1*%
%TO.N,CP3*%
X69350000Y-19667000D03*
%TO.P,D18,2*%
%TO.N,CP4*%
X67850000Y-19667000D03*
%TD*%
%TO.P,D10,1*%
%TO.N,CP6*%
X43550000Y-24143000D03*
%TO.P,D10,2*%
%TO.N,CP2*%
X42050000Y-24143000D03*
%TD*%
%TO.P,D17,1*%
%TO.N,CP2*%
X69350000Y-14778000D03*
%TO.P,D17,2*%
%TO.N,CP4*%
X67850000Y-14778000D03*
%TD*%
%TO.P,D19,1*%
%TO.N,CP5*%
X69350000Y-24556000D03*
%TO.P,D19,2*%
%TO.N,CP4*%
X67850000Y-24556000D03*
%TD*%
%TO.P,D14,1*%
%TO.N,CP5*%
X43550000Y-47000000D03*
%TO.P,D14,2*%
%TO.N,CP3*%
X42050000Y-47000000D03*
%TD*%
%TO.P,D13,1*%
%TO.N,CP4*%
X43550000Y-41286000D03*
%TO.P,D13,2*%
%TO.N,CP3*%
X42050000Y-41286000D03*
%TD*%
%TO.P,D15,1*%
%TO.N,CP6*%
X69350000Y-5000000D03*
%TO.P,D15,2*%
%TO.N,CP3*%
X67850000Y-5000000D03*
%TD*%
%TO.P,D16,1*%
%TO.N,CP1*%
X69350000Y-9889000D03*
%TO.P,D16,2*%
%TO.N,CP4*%
X67850000Y-9889000D03*
%TD*%
%TO.P,D20,1*%
%TO.N,CP6*%
X69350000Y-29444000D03*
%TO.P,D20,2*%
%TO.N,CP4*%
X67850000Y-29444000D03*
%TD*%
%TO.P,D1,1*%
%TO.N,CP2*%
X17750000Y-11000000D03*
%TO.P,D1,2*%
%TO.N,CP1*%
X16250000Y-11000000D03*
%TD*%
%TO.P,D4,1*%
%TO.N,CP5*%
X17750000Y-30200000D03*
%TO.P,D4,2*%
%TO.N,CP1*%
X16250000Y-30200000D03*
%TD*%
%TO.P,D6,1*%
%TO.N,CP1*%
X17750000Y-43000000D03*
%TO.P,D6,2*%
%TO.N,CP2*%
X16250000Y-43000000D03*
%TD*%
%TO.P,D24,1*%
%TO.N,CP4*%
X69350000Y-49000000D03*
%TO.P,D24,2*%
%TO.N,CP5*%
X67850000Y-49000000D03*
%TD*%
%TO.P,D21,1*%
%TO.N,CP1*%
X69350000Y-34333000D03*
%TO.P,D21,2*%
%TO.N,CP5*%
X67850000Y-34333000D03*
%TD*%
%TO.P,D22,1*%
%TO.N,CP2*%
X69350000Y-39222000D03*
%TO.P,D22,2*%
%TO.N,CP5*%
X67850000Y-39222000D03*
%TD*%
%TO.P,D7,1*%
%TO.N,CP3*%
X43550000Y-7000000D03*
%TO.P,D7,2*%
%TO.N,CP2*%
X42050000Y-7000000D03*
%TD*%
%TO.P,D11,1*%
%TO.N,CP1*%
X43550000Y-29857000D03*
%TO.P,D11,2*%
%TO.N,CP3*%
X42050000Y-29857000D03*
%TD*%
%TO.P,D2,1*%
%TO.N,CP3*%
X17750000Y-17400000D03*
%TO.P,D2,2*%
%TO.N,CP1*%
X16250000Y-17400000D03*
%TD*%
%TO.P,D5,1*%
%TO.N,CP6*%
X17750000Y-36600000D03*
%TO.P,D5,2*%
%TO.N,CP1*%
X16250000Y-36600000D03*
%TD*%
%TO.P,D12,1*%
%TO.N,CP2*%
X43550000Y-35571000D03*
%TO.P,D12,2*%
%TO.N,CP3*%
X42050000Y-35571000D03*
%TD*%
%TO.P,D8,1*%
%TO.N,CP4*%
X43550000Y-12714000D03*
%TO.P,D8,2*%
%TO.N,CP2*%
X42050000Y-12714000D03*
%TD*%
D12*
%TO.P,ANT1,2*%
%TO.N,NFC_ANT_B*%
X8000000Y-14200000D03*
%TO.P,ANT1,3*%
%TO.N,N/C*%
X8500000Y-22800000D03*
%TD*%
D13*
%TO.N,CP5*%
X33762900Y-29841400D03*
X33925100Y-12731800D03*
X69851800Y-26728100D03*
X43365300Y-46062600D03*
X69646700Y-32693600D03*
X67554300Y-43183800D03*
X63359000Y-38549200D03*
X42977000Y-17519100D03*
%TO.N,CP2*%
X25465000Y-41247800D03*
X66834100Y-35348900D03*
X17002000Y-9528800D03*
X26450400Y-20062100D03*
X68598500Y-12731800D03*
%TO.N,CP3*%
X66470800Y-7340000D03*
X69850900Y-18138100D03*
X19097900Y-15583400D03*
X68526000Y-21389700D03*
X67036600Y-40535400D03*
%TO.N,CP4*%
X21595200Y-20444000D03*
X43365300Y-11810000D03*
%TO.N,CP1*%
X68366200Y-31023300D03*
X69350000Y-10797500D03*
X10177300Y-10347300D03*
%TO.N,CP6*%
X48718600Y-21267900D03*
X49348400Y-4510100D03*
X44842400Y-4381900D03*
%TO.N,+3V3*%
X42171000Y-26476000D03*
X21555500Y-35309400D03*
%TO.N,SDA*%
X53155000Y-3387700D03*
X27636000Y-3832100D03*
X7679800Y-10616100D03*
%TO.N,EN*%
X25264200Y-29657800D03*
X43601900Y-25046000D03*
%TO.N,GND*%
X43000000Y-2400000D03*
X49874533Y-10754251D03*
X19515285Y-37700850D03*
X46971116Y-16897202D03*
X71959395Y-38529712D03*
X31385172Y-20287750D03*
X24000000Y-8000000D03*
X56747924Y-13642187D03*
X65139356Y-36750118D03*
X43000000Y-51600000D03*
X55991625Y-10298491D03*
X54501300Y-41188808D03*
X59181409Y-46035157D03*
X48000000Y-27000000D03*
X83000000Y-51000000D03*
X4950000Y-14684853D03*
X45076170Y-10588544D03*
X83000000Y-12000000D03*
X74238475Y-5729416D03*
X36355615Y-26605528D03*
X12987575Y-14271949D03*
X83000000Y-27000000D03*
X62469356Y-49356082D03*
X43525387Y-33364645D03*
X52000000Y-40000000D03*
X68517837Y-6881868D03*
X31076968Y-26342583D03*
X2600000Y-12000000D03*
%TO.N,NFC_ANT_A*%
X4144800Y-9285300D03*
X9205700Y-10343600D03*
%TO.N,IO0*%
X49199600Y-19194900D03*
X42494400Y-19344900D03*
X10617400Y-45300100D03*
X39467700Y-35776300D03*
%TO.N,CHX5*%
X25172900Y-21196900D03*
X32604400Y-14328800D03*
%TO.N,CHX4*%
X24972900Y-20378000D03*
X21294800Y-19391900D03*
%TO.N,CHX6*%
X41056600Y-17968000D03*
X24670600Y-24776200D03*
%TO.N,SCL*%
X56394800Y-5302800D03*
X18696200Y-13299200D03*
X7146900Y-9149200D03*
X21987900Y-12629500D03*
%TO.N,IMU_INT*%
X21726800Y-23364900D03*
X17771500Y-24758500D03*
X17835300Y-7819700D03*
X24097300Y-6651400D03*
%TO.N,NFC_GPO*%
X29584300Y-4409100D03*
X6555500Y-10699000D03*
%TD*%
%TO.N,CP5*%
D14*
X66860900Y-47881800D02*
X66860900Y-48712600D01*
X66860900Y-47881800D02*
X45133500Y-47881800D01*
X43185200Y-17727300D02*
X43550000Y-17727300D01*
X33319800Y-30284500D02*
X18476700Y-30284500D01*
X67850000Y-35034700D02*
X70051700Y-37236400D01*
X18451700Y-30144300D02*
X18451700Y-30200000D01*
X45133500Y-47881800D02*
X44251700Y-47000000D01*
X69862400Y-39978900D02*
X68606900Y-39978900D01*
X67850000Y-34333000D02*
X67850000Y-35034700D01*
X43550000Y-47000000D02*
X44251700Y-47000000D01*
X18350900Y-30200000D02*
X18392200Y-30200000D01*
X69350000Y-24556000D02*
X69350000Y-26226300D01*
X66860900Y-47881800D02*
X70051700Y-44691000D01*
X70051700Y-44691000D02*
X70051700Y-43531200D01*
X67850000Y-49000000D02*
X67148300Y-49000000D01*
X67850000Y-39222000D02*
X67148300Y-39222000D01*
X69646700Y-32693600D02*
X70051700Y-33098600D01*
X33925100Y-14670900D02*
X18451700Y-30144300D01*
X70051700Y-33098600D02*
X70051700Y-34923200D01*
X69863800Y-35111100D02*
X68628100Y-35111100D01*
X70051700Y-43531200D02*
X69906000Y-43385500D01*
X70051700Y-39789600D02*
X69862400Y-39978900D01*
X67148300Y-39222000D02*
X66475500Y-38549200D01*
X42977000Y-17519100D02*
X43185200Y-17727300D01*
X43550000Y-18429000D02*
X43550000Y-17727300D01*
X18392200Y-30200000D02*
X18451700Y-30200000D01*
X69906000Y-43385500D02*
X67850000Y-43385500D01*
X68606900Y-39978900D02*
X67850000Y-39222000D01*
X17750000Y-30200000D02*
X18350900Y-30200000D01*
X66860900Y-48712600D02*
X67148300Y-49000000D01*
X68628100Y-35111100D02*
X67850000Y-34333000D01*
X43550000Y-46247300D02*
X43550000Y-47000000D01*
X67554300Y-43183800D02*
X67648300Y-43183800D01*
X67850000Y-43385500D02*
X67850000Y-44111000D01*
X33762900Y-29841400D02*
X33319800Y-30284500D01*
X70051700Y-37236400D02*
X70051700Y-39789600D01*
X66475500Y-38549200D02*
X63359000Y-38549200D01*
X18476700Y-30284500D02*
X18392200Y-30200000D01*
X69350000Y-26226300D02*
X69851800Y-26728100D01*
X33925100Y-12731800D02*
X33925100Y-14670900D01*
X70051700Y-34923200D02*
X69863800Y-35111100D01*
X67648300Y-43183800D02*
X67850000Y-43385500D01*
X43365300Y-46062600D02*
X43550000Y-46247300D01*
%TO.N,CP2*%
X17048300Y-17945700D02*
X17204300Y-18101700D01*
X26450400Y-18101700D02*
X27298000Y-18101700D01*
X23011100Y-43701700D02*
X17214800Y-43701700D01*
X42050000Y-9155000D02*
X42050000Y-7000000D01*
X16250000Y-43000000D02*
X16951700Y-43000000D01*
X41892700Y-18586300D02*
X41892700Y-23284000D01*
X17214800Y-43701700D02*
X16951700Y-43438600D01*
X17750000Y-11000000D02*
X17750000Y-11701700D01*
X69350000Y-14076300D02*
X68600100Y-13326400D01*
X26450400Y-18101700D02*
X26450400Y-20062100D01*
X43550000Y-35571000D02*
X66612000Y-35571000D01*
X17750000Y-11000000D02*
X17750000Y-10276800D01*
X42050000Y-12094600D02*
X42050000Y-9155000D01*
X69350000Y-39222000D02*
X68648300Y-39222000D01*
X41892700Y-23284000D02*
X42050000Y-23441300D01*
X16951700Y-43438600D02*
X16951700Y-43000000D01*
X42050000Y-18429000D02*
X41892700Y-18586300D01*
X17204300Y-18101700D02*
X26450400Y-18101700D01*
X68648300Y-37607300D02*
X66612000Y-35571000D01*
X33305100Y-12094600D02*
X42050000Y-12094600D01*
X42050000Y-18429000D02*
X42050000Y-12714000D01*
X17750000Y-10276800D02*
X17002000Y-9528800D01*
X25465000Y-41247800D02*
X23011100Y-43701700D01*
X66612000Y-35571000D02*
X66834100Y-35348900D01*
X17750000Y-11701700D02*
X17048300Y-12403400D01*
X17048300Y-12403400D02*
X17048300Y-17945700D01*
X68600100Y-13326400D02*
X68600100Y-12731800D01*
X68372600Y-9155000D02*
X42050000Y-9155000D01*
X69350000Y-14778000D02*
X69350000Y-14076300D01*
X27298000Y-18101700D02*
X33305100Y-12094600D01*
X42050000Y-12714000D02*
X42050000Y-12094600D01*
X42050000Y-24143000D02*
X42050000Y-23441300D01*
X68600100Y-12731800D02*
X68598500Y-12731800D01*
X68648300Y-39222000D02*
X68648300Y-37607300D01*
X68600100Y-9382500D02*
X68372600Y-9155000D01*
X68600100Y-12731800D02*
X68600100Y-9382500D01*
%TO.N,CP3*%
X67036600Y-40535400D02*
X66952600Y-40619400D01*
X43550000Y-7000000D02*
X65148400Y-7000000D01*
X42050000Y-35571000D02*
X42050000Y-41286000D01*
X66470800Y-7340000D02*
X65639600Y-6508800D01*
X68648300Y-44111000D02*
X68648300Y-44549600D01*
X42848300Y-6561400D02*
X42585200Y-6298300D01*
X67850000Y-5000000D02*
X67148300Y-5000000D01*
X42050000Y-35571000D02*
X42050000Y-29857000D01*
X42050000Y-44861900D02*
X42050000Y-47000000D01*
X17750000Y-17400000D02*
X17750000Y-16698300D01*
X38527300Y-6298300D02*
X29242200Y-15583400D01*
X66952600Y-40619400D02*
X66952600Y-44861900D01*
X68648300Y-44549600D02*
X68336000Y-44861900D01*
X65148400Y-7000000D02*
X65639600Y-6508800D01*
X69350000Y-19667000D02*
X69350000Y-18639000D01*
X66952600Y-44861900D02*
X42050000Y-44861900D01*
X43550000Y-7000000D02*
X42848300Y-7000000D01*
X68336000Y-44861900D02*
X66952600Y-44861900D01*
X69350000Y-20565700D02*
X69350000Y-19667000D01*
X65639600Y-6508700D02*
X67148300Y-5000000D01*
X17750000Y-16698300D02*
X18864900Y-15583400D01*
X65639600Y-6508800D02*
X65639600Y-6508700D01*
X69350000Y-18639000D02*
X69850900Y-18138100D01*
X69350000Y-44111000D02*
X68648300Y-44111000D01*
X42585200Y-6298300D02*
X38527300Y-6298300D01*
X42050000Y-41286000D02*
X42050000Y-44861900D01*
X18864900Y-15583400D02*
X19097900Y-15583400D01*
X68526000Y-21389700D02*
X69350000Y-20565700D01*
X29242200Y-15583400D02*
X19097900Y-15583400D01*
X42848300Y-7000000D02*
X42848300Y-6561400D01*
%TO.N,CP4*%
X43550000Y-11994700D02*
X43550000Y-12503400D01*
X67850000Y-29444000D02*
X67850000Y-30145700D01*
X70508100Y-47140200D02*
X70508100Y-40420700D01*
X17750000Y-23800000D02*
X18451700Y-23800000D01*
X67850000Y-19667000D02*
X67850000Y-24556000D01*
X69350000Y-48298300D02*
X70508100Y-47140200D01*
X67773000Y-40420700D02*
X67279400Y-39927100D01*
X53150500Y-39927100D02*
X51791600Y-41286000D01*
X67279400Y-39927100D02*
X53150500Y-39927100D01*
X43365300Y-11810000D02*
X43550000Y-11994700D01*
X67850000Y-24556000D02*
X67850000Y-29444000D01*
X70508100Y-40420700D02*
X67773000Y-40420700D01*
X69350000Y-49000000D02*
X69350000Y-48298300D01*
X67850000Y-9889000D02*
X67850000Y-12503400D01*
X43550000Y-12503400D02*
X67850000Y-12503400D01*
X18451700Y-23587500D02*
X21595200Y-20444000D01*
X70508100Y-32277500D02*
X68376300Y-30145700D01*
X18451700Y-23800000D02*
X18451700Y-23587500D01*
X67850000Y-12503400D02*
X67850000Y-14778000D01*
X70508100Y-40420700D02*
X70508100Y-32277500D01*
X43550000Y-12503400D02*
X43550000Y-12714000D01*
X67850000Y-19667000D02*
X67850000Y-14778000D01*
X68376300Y-30145700D02*
X67850000Y-30145700D01*
X51791600Y-41286000D02*
X43550000Y-41286000D01*
%TO.N,CP1*%
X42848300Y-29418400D02*
X42521400Y-29091500D01*
X68366200Y-31023300D02*
X68648300Y-31305400D01*
X16250000Y-30200000D02*
X16951700Y-30200000D01*
X44251700Y-29857000D02*
X45418000Y-31023300D01*
X16250000Y-23800000D02*
X16250000Y-24501700D01*
X16951700Y-25203400D02*
X16951700Y-30200000D01*
X41532500Y-29091500D02*
X31822300Y-38801700D01*
X69350000Y-9889000D02*
X69350000Y-10797500D01*
X42848300Y-29857000D02*
X42848300Y-29418400D01*
X16250000Y-17400000D02*
X16250000Y-23800000D01*
X16250000Y-24501700D02*
X16951700Y-25203400D01*
X16250000Y-11000000D02*
X15548300Y-11000000D01*
X15548300Y-11000000D02*
X14895600Y-10347300D01*
X42521400Y-29091500D02*
X41532500Y-29091500D01*
X68648300Y-31305400D02*
X68648300Y-34333000D01*
X45418000Y-31023300D02*
X68366200Y-31023300D01*
X43550000Y-29857000D02*
X44251700Y-29857000D01*
X14895600Y-10347300D02*
X10177300Y-10347300D01*
X17750000Y-43000000D02*
X17750000Y-38801700D01*
X17750000Y-38801700D02*
X16250000Y-37301700D01*
X16250000Y-11000000D02*
X16250000Y-17400000D01*
X31822300Y-38801700D02*
X17750000Y-38801700D01*
X43550000Y-29857000D02*
X42848300Y-29857000D01*
X16250000Y-36600000D02*
X16250000Y-37301700D01*
X69350000Y-34333000D02*
X68648300Y-34333000D01*
X16250000Y-36600000D02*
X16250000Y-30200000D01*
%TO.N,CP6*%
X69350000Y-5000000D02*
X69350000Y-5701700D01*
X69350000Y-28742300D02*
X70453500Y-27638800D01*
X68385200Y-4298300D02*
X49432000Y-4298300D01*
X32907500Y-36600000D02*
X44232800Y-25274700D01*
X69350000Y-5000000D02*
X68648300Y-5000000D01*
X68648300Y-4561400D02*
X68385200Y-4298300D01*
X44232800Y-24825800D02*
X43550000Y-24143000D01*
X70051700Y-6403400D02*
X69350000Y-5701700D01*
X45843500Y-24143000D02*
X43550000Y-24143000D01*
X70051800Y-17488100D02*
X70051700Y-17488100D01*
X49348400Y-4381900D02*
X49348400Y-4510100D01*
X17750000Y-36600000D02*
X32907500Y-36600000D01*
X49348400Y-4381900D02*
X44842400Y-4381900D01*
X70051700Y-17488100D02*
X70051700Y-6403400D01*
X68648300Y-5000000D02*
X68648300Y-4561400D01*
X48718600Y-21267900D02*
X45843500Y-24143000D01*
X44232800Y-25274700D02*
X44232800Y-24825800D01*
X69350000Y-29444000D02*
X69350000Y-28742300D01*
X70453500Y-27638800D02*
X70453500Y-17889800D01*
X49432000Y-4298300D02*
X49348400Y-4381900D01*
X70453500Y-17889800D02*
X70051800Y-17488100D01*
%TO.N,+3V3*%
X33337600Y-35309400D02*
X21555500Y-35309400D01*
X42171000Y-26476000D02*
X33337600Y-35309400D01*
%TO.N,SDA*%
X7679800Y-10616100D02*
X6994100Y-11301800D01*
X6994100Y-11301800D02*
X4660000Y-11301800D01*
X28080400Y-3387700D02*
X27636000Y-3832100D01*
X3135900Y-8868700D02*
X8172500Y-3832100D01*
X3135900Y-9777700D02*
X3135900Y-8868700D01*
X4660000Y-11301800D02*
X3135900Y-9777700D01*
X8172500Y-3832100D02*
X27636000Y-3832100D01*
X53155000Y-3387700D02*
X28080400Y-3387700D01*
%TO.N,EN*%
X29876000Y-25046000D02*
X43601900Y-25046000D01*
X25264200Y-29657800D02*
X29876000Y-25046000D01*
%TO.N,NFC_ANT_A*%
X4673900Y-9814400D02*
X4144800Y-9285300D01*
X8676500Y-9814400D02*
X4673900Y-9814400D01*
X9205700Y-10343600D02*
X8676500Y-9814400D01*
%TO.N,IO0*%
X42494400Y-19344900D02*
X42644400Y-19194900D01*
X42644400Y-19194900D02*
X49199600Y-19194900D01*
X10617400Y-45300100D02*
X29943900Y-45300100D01*
X29943900Y-45300100D02*
X39467700Y-35776300D01*
%TO.N,CHX5*%
X32604400Y-14759000D02*
X32604400Y-14328800D01*
X25172900Y-21196900D02*
X26166500Y-21196900D01*
X26166500Y-21196900D02*
X32604400Y-14759000D01*
%TO.N,CHX4*%
X23986800Y-19391900D02*
X21294800Y-19391900D01*
X24972900Y-20378000D02*
X23986800Y-19391900D01*
%TO.N,CHX6*%
X24670600Y-24776200D02*
X31478800Y-17968000D01*
X31478800Y-17968000D02*
X41056600Y-17968000D01*
%TO.N,SCL*%
X21987900Y-12629500D02*
X21987900Y-11082900D01*
X27768000Y-5302800D02*
X21987900Y-11082900D01*
X21987900Y-11082900D02*
X19793700Y-8888700D01*
X21987900Y-12629500D02*
X21318200Y-13299200D01*
X7407400Y-8888700D02*
X7146900Y-9149200D01*
X56394800Y-5302800D02*
X27768000Y-5302800D01*
X19793700Y-8888700D02*
X7407400Y-8888700D01*
X21318200Y-13299200D02*
X18696200Y-13299200D01*
%TO.N,IMU_INT*%
X24097300Y-6651400D02*
X19003600Y-6651400D01*
X19003600Y-6651400D02*
X17835300Y-7819700D01*
X17771500Y-24758500D02*
X20333200Y-24758500D01*
X20333200Y-24758500D02*
X21726800Y-23364900D01*
%TO.N,NFC_GPO*%
X4642500Y-10699000D02*
X3543000Y-9599500D01*
X3543000Y-9599500D02*
X3543000Y-9031900D01*
X6555500Y-10699000D02*
X4642500Y-10699000D01*
X3543000Y-9031900D02*
X8141100Y-4433800D01*
X29559600Y-4433800D02*
X29584300Y-4409100D01*
X8141100Y-4433800D02*
X29559600Y-4433800D01*
%TD*%
%TA.AperFunction,Conductor*%
%TO.N,GND*%
G36*
X69183991Y-44830406D02*
G01*
X69219955Y-44879906D01*
X69219955Y-44941092D01*
X69195804Y-44980503D01*
X66724003Y-47452304D01*
X66669486Y-47480081D01*
X66653999Y-47481300D01*
X45340400Y-47481300D01*
X45282209Y-47462393D01*
X45270396Y-47452304D01*
X44905561Y-47087469D01*
X44497613Y-46679520D01*
X44497610Y-46679518D01*
X44497608Y-46679516D01*
X44406291Y-46626794D01*
X44406293Y-46626794D01*
X44350673Y-46611891D01*
X44318473Y-46603263D01*
X44267160Y-46569940D01*
X44248569Y-46533626D01*
X44247585Y-46530010D01*
X44247585Y-46530009D01*
X44202206Y-46427235D01*
X44122765Y-46347794D01*
X44019991Y-46302415D01*
X44019988Y-46302414D01*
X44013179Y-46299408D01*
X44014266Y-46296944D01*
X43973302Y-46270112D01*
X43951601Y-46212904D01*
X43954859Y-46182489D01*
X43965799Y-46141659D01*
X43965800Y-46141657D01*
X43965800Y-45983544D01*
X43965800Y-45983543D01*
X43924877Y-45830816D01*
X43845820Y-45693884D01*
X43734016Y-45582080D01*
X43597084Y-45503023D01*
X43444357Y-45462100D01*
X43286243Y-45462100D01*
X43133516Y-45503023D01*
X42996584Y-45582080D01*
X42884780Y-45693884D01*
X42805723Y-45830816D01*
X42764800Y-45983543D01*
X42764800Y-46141657D01*
X42764801Y-46141659D01*
X42796613Y-46260385D01*
X42793410Y-46321487D01*
X42754905Y-46369037D01*
X42695804Y-46384872D01*
X42655591Y-46373987D01*
X42641887Y-46366916D01*
X42622765Y-46347794D01*
X42519991Y-46302415D01*
X42515976Y-46301949D01*
X42504105Y-46295824D01*
X42489585Y-46281155D01*
X42472319Y-46269846D01*
X42468545Y-46259899D01*
X42461062Y-46252339D01*
X42457937Y-46231936D01*
X42450616Y-46212638D01*
X42450500Y-46207845D01*
X42450500Y-45361400D01*
X42469407Y-45303209D01*
X42518907Y-45267245D01*
X42549500Y-45262400D01*
X68388725Y-45262400D01*
X68388727Y-45262400D01*
X68490588Y-45235107D01*
X68490590Y-45235105D01*
X68490592Y-45235105D01*
X68581908Y-45182383D01*
X68581908Y-45182382D01*
X68581913Y-45182380D01*
X68923796Y-44840495D01*
X68930912Y-44836869D01*
X68935609Y-44830406D01*
X68957659Y-44823241D01*
X68978313Y-44812718D01*
X68993800Y-44811499D01*
X69125800Y-44811499D01*
X69183991Y-44830406D01*
G37*
%TD.AperFunction*%
%TA.AperFunction,Conductor*%
G36*
X66399768Y-40346507D02*
G01*
X66435732Y-40396007D01*
X66437204Y-40452221D01*
X66436100Y-40456340D01*
X66436100Y-40456343D01*
X66436100Y-40614457D01*
X66477023Y-40767184D01*
X66538837Y-40874249D01*
X66552100Y-40923749D01*
X66552100Y-44362400D01*
X66533193Y-44420591D01*
X66483693Y-44456555D01*
X66453100Y-44461400D01*
X42549500Y-44461400D01*
X42491309Y-44442493D01*
X42455345Y-44392993D01*
X42450500Y-44362400D01*
X42450500Y-42078155D01*
X42469407Y-42019964D01*
X42513702Y-41987781D01*
X42513178Y-41986593D01*
X42518684Y-41984161D01*
X42518907Y-41984000D01*
X42519348Y-41983868D01*
X42519988Y-41983585D01*
X42519991Y-41983585D01*
X42622765Y-41938206D01*
X42702206Y-41858765D01*
X42709435Y-41842392D01*
X42750232Y-41796797D01*
X42810040Y-41783889D01*
X42866013Y-41808601D01*
X42890563Y-41842389D01*
X42897793Y-41858763D01*
X42897794Y-41858765D01*
X42977235Y-41938206D01*
X43080009Y-41983585D01*
X43105135Y-41986500D01*
X43994864Y-41986499D01*
X44019991Y-41983585D01*
X44122765Y-41938206D01*
X44202206Y-41858765D01*
X44247585Y-41755991D01*
X44247585Y-41755988D01*
X44250592Y-41749179D01*
X44252763Y-41750137D01*
X44280154Y-41708319D01*
X44337362Y-41686616D01*
X44342155Y-41686500D01*
X51844325Y-41686500D01*
X51844327Y-41686500D01*
X51946188Y-41659207D01*
X51946190Y-41659205D01*
X51946192Y-41659205D01*
X52037508Y-41606483D01*
X52037508Y-41606482D01*
X52037513Y-41606480D01*
X53287397Y-40356596D01*
X53341914Y-40328819D01*
X53357401Y-40327600D01*
X66341577Y-40327600D01*
X66399768Y-40346507D01*
G37*
%TD.AperFunction*%
%TA.AperFunction,Conductor*%
G36*
X66463290Y-35990407D02*
G01*
X66475103Y-36000496D01*
X68218804Y-37744197D01*
X68246581Y-37798714D01*
X68247800Y-37814201D01*
X68247800Y-38422500D01*
X68228893Y-38480691D01*
X68179393Y-38516655D01*
X68148800Y-38521500D01*
X67405139Y-38521500D01*
X67405136Y-38521501D01*
X67380009Y-38524414D01*
X67277233Y-38569795D01*
X67239864Y-38607164D01*
X67185347Y-38634941D01*
X67124915Y-38625369D01*
X67099858Y-38607164D01*
X66721413Y-38228720D01*
X66721408Y-38228716D01*
X66630091Y-38175994D01*
X66630093Y-38175994D01*
X66590570Y-38165404D01*
X66528227Y-38148700D01*
X66528225Y-38148700D01*
X63848744Y-38148700D01*
X63790553Y-38129793D01*
X63778741Y-38119704D01*
X63727718Y-38068682D01*
X63727716Y-38068680D01*
X63590784Y-37989623D01*
X63438057Y-37948700D01*
X63279943Y-37948700D01*
X63127216Y-37989623D01*
X62990284Y-38068680D01*
X62878480Y-38180484D01*
X62799423Y-38317416D01*
X62758500Y-38470143D01*
X62758500Y-38628257D01*
X62799423Y-38780984D01*
X62878480Y-38917916D01*
X62990284Y-39029720D01*
X63127216Y-39108777D01*
X63279943Y-39149700D01*
X63279945Y-39149700D01*
X63438055Y-39149700D01*
X63438057Y-39149700D01*
X63590784Y-39108777D01*
X63727716Y-39029720D01*
X63764323Y-38993113D01*
X63778741Y-38978696D01*
X63833258Y-38950919D01*
X63848744Y-38949700D01*
X66268599Y-38949700D01*
X66326790Y-38968607D01*
X66338603Y-38978696D01*
X66717503Y-39357596D01*
X66745280Y-39412113D01*
X66735709Y-39472545D01*
X66692444Y-39515810D01*
X66647499Y-39526600D01*
X53203227Y-39526600D01*
X53097773Y-39526600D01*
X53035429Y-39543304D01*
X52995907Y-39553894D01*
X52904591Y-39606616D01*
X51654703Y-40856504D01*
X51600186Y-40884281D01*
X51584699Y-40885500D01*
X44342155Y-40885500D01*
X44283964Y-40866593D01*
X44251781Y-40822297D01*
X44250593Y-40822822D01*
X44248161Y-40817315D01*
X44248000Y-40817093D01*
X44247868Y-40816651D01*
X44247585Y-40816009D01*
X44202206Y-40713235D01*
X44122765Y-40633794D01*
X44019991Y-40588415D01*
X44019990Y-40588414D01*
X44019988Y-40588414D01*
X43994868Y-40585500D01*
X43105139Y-40585500D01*
X43105136Y-40585501D01*
X43080009Y-40588414D01*
X42977235Y-40633794D01*
X42897793Y-40713236D01*
X42890564Y-40729609D01*
X42849763Y-40775204D01*
X42789954Y-40788109D01*
X42733983Y-40763395D01*
X42709436Y-40729609D01*
X42702206Y-40713236D01*
X42702206Y-40713235D01*
X42622765Y-40633794D01*
X42519991Y-40588415D01*
X42519988Y-40588414D01*
X42513179Y-40585408D01*
X42514137Y-40583236D01*
X42472319Y-40555846D01*
X42450616Y-40498638D01*
X42450500Y-40493845D01*
X42450500Y-36363155D01*
X42469407Y-36304964D01*
X42513702Y-36272781D01*
X42513178Y-36271593D01*
X42518684Y-36269161D01*
X42518907Y-36269000D01*
X42519348Y-36268868D01*
X42519988Y-36268585D01*
X42519991Y-36268585D01*
X42622765Y-36223206D01*
X42702206Y-36143765D01*
X42709435Y-36127392D01*
X42750232Y-36081797D01*
X42810040Y-36068889D01*
X42866013Y-36093601D01*
X42890563Y-36127389D01*
X42894728Y-36136822D01*
X42897794Y-36143765D01*
X42977235Y-36223206D01*
X43080009Y-36268585D01*
X43105135Y-36271500D01*
X43994864Y-36271499D01*
X44019991Y-36268585D01*
X44122765Y-36223206D01*
X44202206Y-36143765D01*
X44247585Y-36040991D01*
X44247585Y-36040988D01*
X44250592Y-36034179D01*
X44252763Y-36035137D01*
X44280154Y-35993319D01*
X44337362Y-35971616D01*
X44342155Y-35971500D01*
X66405099Y-35971500D01*
X66463290Y-35990407D01*
G37*
%TD.AperFunction*%
%TA.AperFunction,Conductor*%
G36*
X32876289Y-37019407D02*
G01*
X32912253Y-37068907D01*
X32912253Y-37130093D01*
X32888102Y-37169504D01*
X31685403Y-38372204D01*
X31630886Y-38399981D01*
X31615399Y-38401200D01*
X17956901Y-38401200D01*
X17898710Y-38382293D01*
X17886897Y-38372204D01*
X16864835Y-37350142D01*
X16860468Y-37341572D01*
X16852879Y-37335668D01*
X16846875Y-37314892D01*
X16837058Y-37295625D01*
X16838562Y-37286127D01*
X16835892Y-37276888D01*
X16842404Y-37261868D01*
X16846629Y-37235193D01*
X16856700Y-37219350D01*
X16860480Y-37214490D01*
X16902206Y-37172765D01*
X16914367Y-37145222D01*
X16921860Y-37135591D01*
X16937573Y-37124944D01*
X16950232Y-37110797D01*
X16962296Y-37108193D01*
X16972513Y-37101271D01*
X16991483Y-37101893D01*
X17010040Y-37097889D01*
X17021331Y-37102873D01*
X17033666Y-37103279D01*
X17048647Y-37114934D01*
X17066013Y-37122601D01*
X17075777Y-37136040D01*
X17081959Y-37140849D01*
X17083733Y-37146989D01*
X17090563Y-37156389D01*
X17097794Y-37172765D01*
X17177235Y-37252206D01*
X17280009Y-37297585D01*
X17305135Y-37300500D01*
X18194864Y-37300499D01*
X18219991Y-37297585D01*
X18322765Y-37252206D01*
X18402206Y-37172765D01*
X18447585Y-37069991D01*
X18447585Y-37069988D01*
X18450592Y-37063179D01*
X18452763Y-37064137D01*
X18480154Y-37022319D01*
X18537362Y-37000616D01*
X18542155Y-37000500D01*
X32818098Y-37000500D01*
X32876289Y-37019407D01*
G37*
%TD.AperFunction*%
%TA.AperFunction,Conductor*%
G36*
X43117712Y-25448305D02*
G01*
X43123438Y-25447145D01*
X43146366Y-25457615D01*
X43170347Y-25465407D01*
X43178295Y-25472195D01*
X43179095Y-25472561D01*
X43180675Y-25474011D01*
X43233184Y-25526520D01*
X43245873Y-25533846D01*
X43253892Y-25541205D01*
X43283981Y-25594481D01*
X43277008Y-25655267D01*
X43256957Y-25684148D01*
X42809477Y-26131628D01*
X42754960Y-26159405D01*
X42694528Y-26149834D01*
X42653736Y-26111123D01*
X42652333Y-26108693D01*
X42651520Y-26107284D01*
X42539716Y-25995480D01*
X42402784Y-25916423D01*
X42250057Y-25875500D01*
X42091943Y-25875500D01*
X41939216Y-25916423D01*
X41802284Y-25995480D01*
X41690480Y-26107284D01*
X41611423Y-26244216D01*
X41570500Y-26396944D01*
X41570500Y-26469099D01*
X41551593Y-26527290D01*
X41541504Y-26539103D01*
X33200703Y-34879904D01*
X33146186Y-34907681D01*
X33130699Y-34908900D01*
X22045244Y-34908900D01*
X21987053Y-34889993D01*
X21975241Y-34879904D01*
X21924218Y-34828882D01*
X21924216Y-34828880D01*
X21787284Y-34749823D01*
X21634557Y-34708900D01*
X21476443Y-34708900D01*
X21323716Y-34749823D01*
X21186784Y-34828880D01*
X21074980Y-34940684D01*
X20995923Y-35077616D01*
X20955000Y-35230343D01*
X20955000Y-35388457D01*
X20995923Y-35541184D01*
X21074980Y-35678116D01*
X21186784Y-35789920D01*
X21323716Y-35868977D01*
X21476443Y-35909900D01*
X21476445Y-35909900D01*
X21634555Y-35909900D01*
X21634557Y-35909900D01*
X21787284Y-35868977D01*
X21924216Y-35789920D01*
X21949729Y-35764406D01*
X21975241Y-35738896D01*
X22029758Y-35711119D01*
X22045244Y-35709900D01*
X32992199Y-35709900D01*
X33050390Y-35728807D01*
X33086354Y-35778307D01*
X33086354Y-35839493D01*
X33062203Y-35878904D01*
X32770603Y-36170504D01*
X32716086Y-36198281D01*
X32700599Y-36199500D01*
X18542155Y-36199500D01*
X18483964Y-36180593D01*
X18451781Y-36136297D01*
X18450593Y-36136822D01*
X18448161Y-36131315D01*
X18448000Y-36131093D01*
X18447868Y-36130651D01*
X18447585Y-36130009D01*
X18402206Y-36027235D01*
X18322765Y-35947794D01*
X18219991Y-35902415D01*
X18219990Y-35902414D01*
X18219988Y-35902414D01*
X18194868Y-35899500D01*
X17305139Y-35899500D01*
X17305136Y-35899501D01*
X17280009Y-35902414D01*
X17177235Y-35947794D01*
X17097793Y-36027236D01*
X17090564Y-36043609D01*
X17049763Y-36089204D01*
X16989954Y-36102109D01*
X16933983Y-36077395D01*
X16909436Y-36043609D01*
X16902206Y-36027236D01*
X16902206Y-36027235D01*
X16822765Y-35947794D01*
X16719991Y-35902415D01*
X16719988Y-35902414D01*
X16713179Y-35899408D01*
X16714137Y-35897236D01*
X16672319Y-35869846D01*
X16650616Y-35812638D01*
X16650500Y-35807845D01*
X16650500Y-30992155D01*
X16669407Y-30933964D01*
X16713702Y-30901781D01*
X16713178Y-30900593D01*
X16718684Y-30898161D01*
X16718907Y-30898000D01*
X16719348Y-30897868D01*
X16719988Y-30897585D01*
X16719991Y-30897585D01*
X16822765Y-30852206D01*
X16902206Y-30772765D01*
X16909435Y-30756392D01*
X16950232Y-30710797D01*
X17010040Y-30697889D01*
X17066013Y-30722601D01*
X17090563Y-30756389D01*
X17097794Y-30772765D01*
X17177235Y-30852206D01*
X17280009Y-30897585D01*
X17305135Y-30900500D01*
X18194864Y-30900499D01*
X18219991Y-30897585D01*
X18322765Y-30852206D01*
X18402206Y-30772765D01*
X18414902Y-30744010D01*
X18455702Y-30698416D01*
X18505466Y-30685000D01*
X33372525Y-30685000D01*
X33372527Y-30685000D01*
X33474388Y-30657707D01*
X33474390Y-30657705D01*
X33474392Y-30657705D01*
X33565708Y-30604983D01*
X33565708Y-30604982D01*
X33565713Y-30604980D01*
X33662380Y-30508313D01*
X33699798Y-30470896D01*
X33754314Y-30443119D01*
X33769801Y-30441900D01*
X33841955Y-30441900D01*
X33841957Y-30441900D01*
X33994684Y-30400977D01*
X34131616Y-30321920D01*
X34243420Y-30210116D01*
X34322477Y-30073184D01*
X34363400Y-29920457D01*
X34363400Y-29762343D01*
X34322477Y-29609616D01*
X34243420Y-29472684D01*
X34131616Y-29360880D01*
X33994684Y-29281823D01*
X33841957Y-29240900D01*
X33683843Y-29240900D01*
X33531116Y-29281823D01*
X33394184Y-29360880D01*
X33282380Y-29472684D01*
X33203323Y-29609616D01*
X33164332Y-29755135D01*
X33162400Y-29762344D01*
X33162400Y-29785000D01*
X33143493Y-29843191D01*
X33093993Y-29879155D01*
X33063400Y-29884000D01*
X25954292Y-29884000D01*
X25896101Y-29865093D01*
X25860137Y-29815593D01*
X25858666Y-29759376D01*
X25864699Y-29736859D01*
X25864700Y-29736856D01*
X25864700Y-29664701D01*
X25883607Y-29606510D01*
X25893696Y-29594697D01*
X30012897Y-25475496D01*
X30067414Y-25447719D01*
X30082901Y-25446500D01*
X43112156Y-25446500D01*
X43117712Y-25448305D01*
G37*
%TD.AperFunction*%
%TA.AperFunction,Conductor*%
G36*
X42866013Y-30379601D02*
G01*
X42890563Y-30413389D01*
X42897794Y-30429765D01*
X42977235Y-30509206D01*
X43080009Y-30554585D01*
X43105135Y-30557500D01*
X43994864Y-30557499D01*
X44019991Y-30554585D01*
X44122765Y-30509206D01*
X44160136Y-30471834D01*
X44214650Y-30444058D01*
X44275082Y-30453629D01*
X44300142Y-30471835D01*
X45172087Y-31343780D01*
X45172089Y-31343781D01*
X45172090Y-31343782D01*
X45172091Y-31343783D01*
X45263408Y-31396505D01*
X45263406Y-31396505D01*
X45263410Y-31396506D01*
X45263412Y-31396507D01*
X45365273Y-31423800D01*
X67876456Y-31423800D01*
X67934647Y-31442707D01*
X67946459Y-31452796D01*
X67997481Y-31503817D01*
X67997484Y-31503820D01*
X68134416Y-31582877D01*
X68174423Y-31593596D01*
X68225737Y-31626920D01*
X68247664Y-31684041D01*
X68247800Y-31689223D01*
X68247800Y-33533500D01*
X68228893Y-33591691D01*
X68179393Y-33627655D01*
X68148800Y-33632500D01*
X67405139Y-33632500D01*
X67405136Y-33632501D01*
X67380009Y-33635414D01*
X67277235Y-33680794D01*
X67197794Y-33760235D01*
X67152414Y-33863011D01*
X67149500Y-33888130D01*
X67149500Y-34682708D01*
X67130593Y-34740899D01*
X67081093Y-34776863D01*
X67024878Y-34778335D01*
X66952346Y-34758900D01*
X66913157Y-34748400D01*
X66755043Y-34748400D01*
X66602316Y-34789323D01*
X66465384Y-34868380D01*
X66353580Y-34980184D01*
X66283069Y-35102315D01*
X66272281Y-35121000D01*
X66226811Y-35161941D01*
X66186544Y-35170500D01*
X44342155Y-35170500D01*
X44283964Y-35151593D01*
X44251781Y-35107297D01*
X44250593Y-35107822D01*
X44248161Y-35102315D01*
X44248000Y-35102093D01*
X44247868Y-35101651D01*
X44247585Y-35101009D01*
X44202206Y-34998235D01*
X44122765Y-34918794D01*
X44019991Y-34873415D01*
X44019990Y-34873414D01*
X44019988Y-34873414D01*
X43994868Y-34870500D01*
X43105139Y-34870500D01*
X43105136Y-34870501D01*
X43080009Y-34873414D01*
X42977235Y-34918794D01*
X42897793Y-34998236D01*
X42890564Y-35014609D01*
X42849763Y-35060204D01*
X42789954Y-35073109D01*
X42733983Y-35048395D01*
X42709436Y-35014609D01*
X42702206Y-34998236D01*
X42702206Y-34998235D01*
X42622765Y-34918794D01*
X42519991Y-34873415D01*
X42519988Y-34873414D01*
X42513179Y-34870408D01*
X42514137Y-34868236D01*
X42472319Y-34840846D01*
X42450616Y-34783638D01*
X42450500Y-34778845D01*
X42450500Y-30649155D01*
X42469407Y-30590964D01*
X42513702Y-30558781D01*
X42513178Y-30557593D01*
X42518684Y-30555161D01*
X42518907Y-30555000D01*
X42519348Y-30554868D01*
X42519988Y-30554585D01*
X42519991Y-30554585D01*
X42622765Y-30509206D01*
X42702206Y-30429765D01*
X42709435Y-30413392D01*
X42750232Y-30367797D01*
X42810040Y-30354889D01*
X42866013Y-30379601D01*
G37*
%TD.AperFunction*%
%TA.AperFunction,Conductor*%
G36*
X67408691Y-12922807D02*
G01*
X67444655Y-12972307D01*
X67449500Y-13002900D01*
X67449500Y-13985844D01*
X67430593Y-14044035D01*
X67386297Y-14076218D01*
X67386822Y-14077407D01*
X67381311Y-14079839D01*
X67381093Y-14079999D01*
X67380657Y-14080129D01*
X67380009Y-14080414D01*
X67380009Y-14080415D01*
X67354064Y-14091871D01*
X67277235Y-14125794D01*
X67197794Y-14205235D01*
X67152414Y-14308011D01*
X67149500Y-14333130D01*
X67149500Y-15222860D01*
X67149501Y-15222863D01*
X67152414Y-15247990D01*
X67175821Y-15301000D01*
X67197794Y-15350765D01*
X67277235Y-15430206D01*
X67380009Y-15475585D01*
X67380011Y-15475585D01*
X67386821Y-15478592D01*
X67385860Y-15480766D01*
X67427665Y-15508134D01*
X67449383Y-15565335D01*
X67449500Y-15570154D01*
X67449500Y-18874844D01*
X67430593Y-18933035D01*
X67386297Y-18965218D01*
X67386822Y-18966407D01*
X67381311Y-18968839D01*
X67381093Y-18968999D01*
X67380657Y-18969129D01*
X67277235Y-19014794D01*
X67197794Y-19094235D01*
X67152414Y-19197011D01*
X67149500Y-19222130D01*
X67149500Y-20111860D01*
X67149501Y-20111863D01*
X67152414Y-20136990D01*
X67177756Y-20194385D01*
X67197794Y-20239765D01*
X67277235Y-20319206D01*
X67380009Y-20364585D01*
X67380011Y-20364585D01*
X67386821Y-20367592D01*
X67385860Y-20369766D01*
X67427665Y-20397134D01*
X67449383Y-20454335D01*
X67449500Y-20459154D01*
X67449500Y-23763844D01*
X67430593Y-23822035D01*
X67386297Y-23854218D01*
X67386822Y-23855407D01*
X67381311Y-23857839D01*
X67381093Y-23857999D01*
X67380657Y-23858129D01*
X67277235Y-23903794D01*
X67197794Y-23983235D01*
X67152414Y-24086011D01*
X67149500Y-24111130D01*
X67149500Y-25000860D01*
X67149501Y-25000863D01*
X67152414Y-25025990D01*
X67175812Y-25078980D01*
X67197794Y-25128765D01*
X67277235Y-25208206D01*
X67380009Y-25253585D01*
X67380011Y-25253585D01*
X67386821Y-25256592D01*
X67385860Y-25258766D01*
X67427665Y-25286134D01*
X67449383Y-25343335D01*
X67449500Y-25348154D01*
X67449500Y-28651844D01*
X67430593Y-28710035D01*
X67386297Y-28742218D01*
X67386822Y-28743407D01*
X67381311Y-28745839D01*
X67381093Y-28745999D01*
X67380657Y-28746129D01*
X67277235Y-28791794D01*
X67197794Y-28871235D01*
X67152414Y-28974011D01*
X67149500Y-28999130D01*
X67149500Y-29888860D01*
X67149501Y-29888863D01*
X67152414Y-29913990D01*
X67155269Y-29920455D01*
X67197794Y-30016765D01*
X67277235Y-30096206D01*
X67380009Y-30141585D01*
X67380021Y-30141586D01*
X67383624Y-30142567D01*
X67386499Y-30144450D01*
X67386821Y-30144592D01*
X67386797Y-30144645D01*
X67434811Y-30176086D01*
X67453263Y-30212471D01*
X67465328Y-30257500D01*
X67476794Y-30300289D01*
X67476794Y-30300290D01*
X67522585Y-30379601D01*
X67529520Y-30391613D01*
X67591705Y-30453798D01*
X67619481Y-30508313D01*
X67609910Y-30568745D01*
X67566645Y-30612010D01*
X67521700Y-30622800D01*
X45624901Y-30622800D01*
X45566710Y-30603893D01*
X45554897Y-30593804D01*
X45034276Y-30073183D01*
X44497613Y-29536520D01*
X44497610Y-29536518D01*
X44497609Y-29536517D01*
X44497608Y-29536516D01*
X44406291Y-29483794D01*
X44406293Y-29483794D01*
X44350673Y-29468891D01*
X44318473Y-29460263D01*
X44267160Y-29426940D01*
X44248569Y-29390626D01*
X44247585Y-29387010D01*
X44247585Y-29387009D01*
X44202206Y-29284235D01*
X44122765Y-29204794D01*
X44019991Y-29159415D01*
X44019990Y-29159414D01*
X44019988Y-29159414D01*
X43994869Y-29156500D01*
X43994865Y-29156500D01*
X43193801Y-29156500D01*
X43135610Y-29137593D01*
X43123797Y-29127504D01*
X43094213Y-29097920D01*
X43094213Y-29097919D01*
X42767313Y-28771020D01*
X42767308Y-28771016D01*
X42675991Y-28718294D01*
X42675993Y-28718294D01*
X42636470Y-28707704D01*
X42574127Y-28691000D01*
X42574125Y-28691000D01*
X41621900Y-28691000D01*
X41563709Y-28672093D01*
X41527745Y-28622593D01*
X41527745Y-28561407D01*
X41551896Y-28521996D01*
X42924353Y-27149539D01*
X44553280Y-25520613D01*
X44581023Y-25472561D01*
X44606005Y-25429292D01*
X44606005Y-25429290D01*
X44606007Y-25429288D01*
X44633300Y-25327427D01*
X44633300Y-25221973D01*
X44633300Y-24773073D01*
X44611843Y-24692995D01*
X44607635Y-24677287D01*
X44605180Y-24668126D01*
X44608380Y-24607025D01*
X44646884Y-24559473D01*
X44700806Y-24543500D01*
X45896225Y-24543500D01*
X45896227Y-24543500D01*
X45998088Y-24516207D01*
X45998090Y-24516205D01*
X45998092Y-24516205D01*
X46089408Y-24463483D01*
X46089408Y-24463482D01*
X46089413Y-24463480D01*
X48655497Y-21897396D01*
X48710014Y-21869619D01*
X48725501Y-21868400D01*
X48797655Y-21868400D01*
X48797657Y-21868400D01*
X48950384Y-21827477D01*
X49087316Y-21748420D01*
X49199120Y-21636616D01*
X49278177Y-21499684D01*
X49319100Y-21346957D01*
X49319100Y-21188843D01*
X49278177Y-21036116D01*
X49199120Y-20899184D01*
X49087316Y-20787380D01*
X48950384Y-20708323D01*
X48797657Y-20667400D01*
X48639543Y-20667400D01*
X48486816Y-20708323D01*
X48349884Y-20787380D01*
X48238080Y-20899184D01*
X48159023Y-21036116D01*
X48137125Y-21117843D01*
X48118100Y-21188844D01*
X48118100Y-21260999D01*
X48099193Y-21319190D01*
X48089104Y-21331003D01*
X45706603Y-23713504D01*
X45652086Y-23741281D01*
X45636599Y-23742500D01*
X44342155Y-23742500D01*
X44283964Y-23723593D01*
X44251781Y-23679297D01*
X44250593Y-23679822D01*
X44248161Y-23674315D01*
X44248000Y-23674093D01*
X44247868Y-23673651D01*
X44247585Y-23673009D01*
X44202206Y-23570235D01*
X44122765Y-23490794D01*
X44019991Y-23445415D01*
X44019990Y-23445414D01*
X44019988Y-23445414D01*
X43994868Y-23442500D01*
X43105139Y-23442500D01*
X43105136Y-23442501D01*
X43080009Y-23445414D01*
X42977235Y-23490794D01*
X42897793Y-23570236D01*
X42890564Y-23586609D01*
X42849763Y-23632204D01*
X42789954Y-23645109D01*
X42733983Y-23620395D01*
X42709436Y-23586609D01*
X42702206Y-23570236D01*
X42702206Y-23570235D01*
X42622765Y-23490794D01*
X42519991Y-23445415D01*
X42519989Y-23445414D01*
X42519985Y-23445413D01*
X42516368Y-23444429D01*
X42513495Y-23442547D01*
X42513179Y-23442408D01*
X42513202Y-23442355D01*
X42465184Y-23410906D01*
X42446736Y-23374525D01*
X42441541Y-23355137D01*
X42441541Y-23355136D01*
X42423207Y-23286712D01*
X42423205Y-23286709D01*
X42423205Y-23286707D01*
X42370483Y-23195391D01*
X42370479Y-23195385D01*
X42322196Y-23147102D01*
X42294419Y-23092585D01*
X42293200Y-23077099D01*
X42293200Y-20041691D01*
X42312107Y-19983500D01*
X42361607Y-19947536D01*
X42408678Y-19946305D01*
X42408909Y-19944553D01*
X42415342Y-19945400D01*
X42415343Y-19945400D01*
X42573455Y-19945400D01*
X42573457Y-19945400D01*
X42726184Y-19904477D01*
X42863116Y-19825420D01*
X42974920Y-19713616D01*
X43014593Y-19644898D01*
X43060062Y-19603959D01*
X43100329Y-19595400D01*
X48709856Y-19595400D01*
X48768047Y-19614307D01*
X48779859Y-19624396D01*
X48830881Y-19675417D01*
X48830884Y-19675420D01*
X48967816Y-19754477D01*
X49120543Y-19795400D01*
X49120545Y-19795400D01*
X49278655Y-19795400D01*
X49278657Y-19795400D01*
X49431384Y-19754477D01*
X49568316Y-19675420D01*
X49680120Y-19563616D01*
X49759177Y-19426684D01*
X49800100Y-19273957D01*
X49800100Y-19115843D01*
X49759177Y-18963116D01*
X49680120Y-18826184D01*
X49568316Y-18714380D01*
X49431384Y-18635323D01*
X49278657Y-18594400D01*
X49120543Y-18594400D01*
X48967816Y-18635323D01*
X48830881Y-18714382D01*
X48779859Y-18765404D01*
X48725342Y-18793181D01*
X48709856Y-18794400D01*
X44349500Y-18794400D01*
X44291309Y-18775493D01*
X44255345Y-18725993D01*
X44250500Y-18695400D01*
X44250499Y-17984139D01*
X44250499Y-17984136D01*
X44247585Y-17959009D01*
X44202206Y-17856235D01*
X44122765Y-17776794D01*
X44019991Y-17731415D01*
X44019987Y-17731414D01*
X44016369Y-17730430D01*
X44013493Y-17728547D01*
X44013179Y-17728408D01*
X44013202Y-17728355D01*
X43965184Y-17696908D01*
X43946736Y-17660528D01*
X43923207Y-17572713D01*
X43921247Y-17569319D01*
X43882866Y-17502841D01*
X43870480Y-17481387D01*
X43795913Y-17406820D01*
X43781495Y-17398496D01*
X43704589Y-17354094D01*
X43704588Y-17354093D01*
X43704587Y-17354093D01*
X43602727Y-17326800D01*
X43602725Y-17326800D01*
X43596459Y-17325121D01*
X43596891Y-17323505D01*
X43548980Y-17300650D01*
X43531398Y-17278346D01*
X43457520Y-17150384D01*
X43345716Y-17038580D01*
X43208784Y-16959523D01*
X43056057Y-16918600D01*
X42897943Y-16918600D01*
X42745216Y-16959523D01*
X42608284Y-17038580D01*
X42608281Y-17038582D01*
X42602665Y-17041825D01*
X42601770Y-17040275D01*
X42552087Y-17057866D01*
X42493422Y-17040486D01*
X42456177Y-16991943D01*
X42450500Y-16958900D01*
X42450500Y-13506155D01*
X42469407Y-13447964D01*
X42513702Y-13415781D01*
X42513178Y-13414593D01*
X42518684Y-13412161D01*
X42518907Y-13412000D01*
X42519348Y-13411868D01*
X42519988Y-13411585D01*
X42519991Y-13411585D01*
X42622765Y-13366206D01*
X42702206Y-13286765D01*
X42709435Y-13270392D01*
X42750232Y-13224797D01*
X42810040Y-13211889D01*
X42866013Y-13236601D01*
X42890563Y-13270389D01*
X42897794Y-13286765D01*
X42977235Y-13366206D01*
X43080009Y-13411585D01*
X43105135Y-13414500D01*
X43994864Y-13414499D01*
X44019991Y-13411585D01*
X44122765Y-13366206D01*
X44202206Y-13286765D01*
X44247585Y-13183991D01*
X44250500Y-13158865D01*
X44250500Y-13002900D01*
X44269407Y-12944709D01*
X44318907Y-12908745D01*
X44349500Y-12903900D01*
X67350500Y-12903900D01*
X67408691Y-12922807D01*
G37*
%TD.AperFunction*%
%TA.AperFunction,Conductor*%
G36*
X40625047Y-18387407D02*
G01*
X40636859Y-18397496D01*
X40687881Y-18448517D01*
X40687884Y-18448520D01*
X40824816Y-18527577D01*
X40977543Y-18568500D01*
X40977545Y-18568500D01*
X41135655Y-18568500D01*
X41135657Y-18568500D01*
X41224878Y-18544593D01*
X41285978Y-18547796D01*
X41333528Y-18586301D01*
X41349500Y-18640220D01*
X41349500Y-18873859D01*
X41349501Y-18873864D01*
X41352414Y-18898990D01*
X41377756Y-18956385D01*
X41397794Y-19001765D01*
X41463205Y-19067176D01*
X41490981Y-19121691D01*
X41492200Y-19137178D01*
X41492200Y-23336726D01*
X41506802Y-23391224D01*
X41503599Y-23452325D01*
X41481179Y-23486849D01*
X41397795Y-23570233D01*
X41352414Y-23673011D01*
X41349500Y-23698130D01*
X41349500Y-23698132D01*
X41349501Y-24546500D01*
X41330594Y-24604691D01*
X41281094Y-24640655D01*
X41250501Y-24645500D01*
X29928727Y-24645500D01*
X29823273Y-24645500D01*
X29760929Y-24662204D01*
X29721407Y-24672794D01*
X29630091Y-24725516D01*
X25327303Y-29028304D01*
X25272786Y-29056081D01*
X25257299Y-29057300D01*
X25185143Y-29057300D01*
X25032416Y-29098223D01*
X24895484Y-29177280D01*
X24783680Y-29289084D01*
X24704623Y-29426016D01*
X24675015Y-29536517D01*
X24663700Y-29578744D01*
X24663700Y-29736859D01*
X24669734Y-29759376D01*
X24666533Y-29820478D01*
X24628028Y-29868028D01*
X24574108Y-29884000D01*
X19517401Y-29884000D01*
X19459210Y-29865093D01*
X19423246Y-29815593D01*
X19423246Y-29754407D01*
X19447397Y-29714996D01*
X20574682Y-28587711D01*
X24035674Y-25126717D01*
X24090189Y-25098942D01*
X24150621Y-25108513D01*
X24184707Y-25140861D01*
X24186131Y-25139770D01*
X24190074Y-25144909D01*
X24190078Y-25144913D01*
X24190080Y-25144916D01*
X24301884Y-25256720D01*
X24438816Y-25335777D01*
X24591543Y-25376700D01*
X24591545Y-25376700D01*
X24749655Y-25376700D01*
X24749657Y-25376700D01*
X24902384Y-25335777D01*
X25039316Y-25256720D01*
X25151120Y-25144916D01*
X25230177Y-25007984D01*
X25271100Y-24855257D01*
X25271100Y-24783100D01*
X25290007Y-24724909D01*
X25300096Y-24713096D01*
X31615696Y-18397496D01*
X31670213Y-18369719D01*
X31685700Y-18368500D01*
X40566856Y-18368500D01*
X40625047Y-18387407D01*
G37*
%TD.AperFunction*%
%TA.AperFunction,Conductor*%
G36*
X67108691Y-9574407D02*
G01*
X67144655Y-9623907D01*
X67149500Y-9654500D01*
X67149500Y-10333860D01*
X67149501Y-10333863D01*
X67152414Y-10358990D01*
X67163596Y-10384314D01*
X67197794Y-10461765D01*
X67277235Y-10541206D01*
X67380009Y-10586585D01*
X67380011Y-10586585D01*
X67386821Y-10589592D01*
X67385860Y-10591766D01*
X67427665Y-10619134D01*
X67449383Y-10676335D01*
X67449500Y-10681154D01*
X67449500Y-12003900D01*
X67430593Y-12062091D01*
X67381093Y-12098055D01*
X67350500Y-12102900D01*
X44204878Y-12102900D01*
X44157991Y-12091093D01*
X44145169Y-12084198D01*
X44122765Y-12061794D01*
X44019991Y-12016415D01*
X44018874Y-12016285D01*
X44011710Y-12012433D01*
X43993087Y-11992967D01*
X43973013Y-11975004D01*
X43972171Y-11971104D01*
X43969414Y-11968222D01*
X43965790Y-11941530D01*
X43960108Y-11915195D01*
X43961319Y-11908600D01*
X43961183Y-11907592D01*
X43961672Y-11906681D01*
X43962971Y-11899616D01*
X43965799Y-11889059D01*
X43965800Y-11889057D01*
X43965800Y-11730944D01*
X43957986Y-11701781D01*
X43924877Y-11578216D01*
X43845820Y-11441284D01*
X43734016Y-11329480D01*
X43597084Y-11250423D01*
X43444357Y-11209500D01*
X43286243Y-11209500D01*
X43133516Y-11250423D01*
X42996584Y-11329480D01*
X42884780Y-11441284D01*
X42805723Y-11578216D01*
X42764800Y-11730943D01*
X42764800Y-11889057D01*
X42780489Y-11947610D01*
X42784388Y-11962160D01*
X42781185Y-12023262D01*
X42742680Y-12070812D01*
X42683579Y-12086647D01*
X42646395Y-12077260D01*
X42630889Y-12069918D01*
X42622765Y-12061794D01*
X42519991Y-12016415D01*
X42517208Y-12016092D01*
X42507134Y-12011322D01*
X42490942Y-11996044D01*
X42472319Y-11983846D01*
X42469143Y-11975474D01*
X42462632Y-11969331D01*
X42458513Y-11947454D01*
X42450616Y-11926638D01*
X42450500Y-11921845D01*
X42450500Y-9654500D01*
X42469407Y-9596309D01*
X42518907Y-9560345D01*
X42549500Y-9555500D01*
X67050500Y-9555500D01*
X67108691Y-9574407D01*
G37*
%TD.AperFunction*%
%TA.AperFunction,Conductor*%
G36*
X27489291Y-4853207D02*
G01*
X27525255Y-4902707D01*
X27525255Y-4963893D01*
X27501105Y-5003301D01*
X26098921Y-6405486D01*
X22057903Y-10446503D01*
X22003386Y-10474280D01*
X21942954Y-10464709D01*
X21917898Y-10446505D01*
X20039613Y-8568220D01*
X20039610Y-8568218D01*
X20039608Y-8568216D01*
X19948291Y-8515494D01*
X19948293Y-8515494D01*
X19908770Y-8504904D01*
X19846427Y-8488200D01*
X19846425Y-8488200D01*
X18247897Y-8488200D01*
X18189706Y-8469293D01*
X18153742Y-8419793D01*
X18153742Y-8358607D01*
X18189706Y-8309107D01*
X18198399Y-8303463D01*
X18198780Y-8303242D01*
X18204016Y-8300220D01*
X18315820Y-8188416D01*
X18394877Y-8051484D01*
X18435800Y-7898757D01*
X18435800Y-7826600D01*
X18454707Y-7768409D01*
X18464796Y-7756596D01*
X19140496Y-7080896D01*
X19195013Y-7053119D01*
X19210500Y-7051900D01*
X23607556Y-7051900D01*
X23665747Y-7070807D01*
X23677559Y-7080896D01*
X23704880Y-7108216D01*
X23728584Y-7131920D01*
X23865516Y-7210977D01*
X24018243Y-7251900D01*
X24018245Y-7251900D01*
X24176355Y-7251900D01*
X24176357Y-7251900D01*
X24329084Y-7210977D01*
X24466016Y-7131920D01*
X24577820Y-7020116D01*
X24656877Y-6883184D01*
X24697800Y-6730457D01*
X24697800Y-6572343D01*
X24656877Y-6419616D01*
X24577820Y-6282684D01*
X24466016Y-6170880D01*
X24329084Y-6091823D01*
X24176357Y-6050900D01*
X24018243Y-6050900D01*
X23898750Y-6082918D01*
X23865516Y-6091823D01*
X23728581Y-6170882D01*
X23677559Y-6221904D01*
X23623042Y-6249681D01*
X23607556Y-6250900D01*
X19062406Y-6250900D01*
X19062390Y-6250899D01*
X19056327Y-6250899D01*
X18950873Y-6250899D01*
X18950870Y-6250899D01*
X18849013Y-6278192D01*
X18849009Y-6278194D01*
X18757687Y-6330919D01*
X18683119Y-6405486D01*
X18683120Y-6405487D01*
X17898403Y-7190204D01*
X17843886Y-7217981D01*
X17828399Y-7219200D01*
X17756243Y-7219200D01*
X17603516Y-7260123D01*
X17466584Y-7339180D01*
X17354780Y-7450984D01*
X17275723Y-7587916D01*
X17234800Y-7740643D01*
X17234800Y-7898757D01*
X17275723Y-8051484D01*
X17354780Y-8188416D01*
X17466584Y-8300220D01*
X17466586Y-8300221D01*
X17472201Y-8303463D01*
X17513143Y-8348931D01*
X17519540Y-8409782D01*
X17488948Y-8462770D01*
X17433053Y-8487657D01*
X17422703Y-8488200D01*
X7466206Y-8488200D01*
X7466190Y-8488199D01*
X7460127Y-8488199D01*
X7354673Y-8488199D01*
X7354670Y-8488199D01*
X7252813Y-8515492D01*
X7218271Y-8535436D01*
X7168770Y-8548700D01*
X7067843Y-8548700D01*
X6915116Y-8589623D01*
X6778184Y-8668680D01*
X6666380Y-8780484D01*
X6587323Y-8917416D01*
X6546400Y-9070143D01*
X6546400Y-9228257D01*
X6562750Y-9289279D01*
X6559549Y-9350378D01*
X6521044Y-9397928D01*
X6467124Y-9413900D01*
X4880801Y-9413900D01*
X4873203Y-9411431D01*
X4865314Y-9412681D01*
X4844658Y-9402156D01*
X4822610Y-9394993D01*
X4810797Y-9384904D01*
X4774296Y-9348403D01*
X4746519Y-9293886D01*
X4745300Y-9278399D01*
X4745300Y-9206244D01*
X4745300Y-9206243D01*
X4704377Y-9053516D01*
X4625320Y-8916584D01*
X4513516Y-8804780D01*
X4513028Y-8804498D01*
X4512757Y-8804197D01*
X4508370Y-8800831D01*
X4508994Y-8800017D01*
X4472090Y-8759025D01*
X4465699Y-8698175D01*
X4492528Y-8648763D01*
X8277997Y-4863296D01*
X8332514Y-4835519D01*
X8348001Y-4834300D01*
X27431100Y-4834300D01*
X27489291Y-4853207D01*
G37*
%TD.AperFunction*%
%TA.AperFunction,Conductor*%
G36*
X68666013Y-5522601D02*
G01*
X68690563Y-5556389D01*
X68697794Y-5572765D01*
X68777235Y-5652206D01*
X68880009Y-5697585D01*
X68880021Y-5697586D01*
X68883624Y-5698567D01*
X68886499Y-5700450D01*
X68886821Y-5700592D01*
X68886797Y-5700645D01*
X68934811Y-5732086D01*
X68953263Y-5768471D01*
X68973645Y-5844540D01*
X68976794Y-5856292D01*
X69029516Y-5947608D01*
X69029518Y-5947610D01*
X69029520Y-5947613D01*
X69344695Y-6262787D01*
X69622204Y-6540296D01*
X69649981Y-6594813D01*
X69651200Y-6610300D01*
X69651200Y-9089500D01*
X69632293Y-9147691D01*
X69582793Y-9183655D01*
X69552200Y-9188500D01*
X69007709Y-9188500D01*
X68949518Y-9169593D01*
X68921973Y-9139001D01*
X68920580Y-9136587D01*
X68886266Y-9102273D01*
X68846013Y-9062019D01*
X68846013Y-9062020D01*
X68846011Y-9062018D01*
X68846011Y-9062017D01*
X68618513Y-8834520D01*
X68618508Y-8834516D01*
X68527191Y-8781794D01*
X68527193Y-8781794D01*
X68487670Y-8771204D01*
X68425327Y-8754500D01*
X68425325Y-8754500D01*
X42549500Y-8754500D01*
X42491309Y-8735593D01*
X42455345Y-8686093D01*
X42450500Y-8655500D01*
X42450500Y-7792155D01*
X42469407Y-7733964D01*
X42513702Y-7701781D01*
X42513178Y-7700593D01*
X42518684Y-7698161D01*
X42518907Y-7698000D01*
X42519348Y-7697868D01*
X42519988Y-7697585D01*
X42519991Y-7697585D01*
X42622765Y-7652206D01*
X42702206Y-7572765D01*
X42709435Y-7556392D01*
X42750232Y-7510797D01*
X42810040Y-7497889D01*
X42866013Y-7522601D01*
X42890563Y-7556389D01*
X42897794Y-7572765D01*
X42977235Y-7652206D01*
X43080009Y-7697585D01*
X43105135Y-7700500D01*
X43994864Y-7700499D01*
X44019991Y-7697585D01*
X44122765Y-7652206D01*
X44202206Y-7572765D01*
X44247585Y-7469991D01*
X44247585Y-7469988D01*
X44250592Y-7463179D01*
X44252763Y-7464137D01*
X44280154Y-7422319D01*
X44337362Y-7400616D01*
X44342155Y-7400500D01*
X65201125Y-7400500D01*
X65201127Y-7400500D01*
X65302988Y-7373207D01*
X65302990Y-7373205D01*
X65302992Y-7373205D01*
X65394313Y-7320480D01*
X65408900Y-7305893D01*
X65569597Y-7145194D01*
X65583564Y-7138077D01*
X65594653Y-7126989D01*
X65610140Y-7124536D01*
X65624110Y-7117418D01*
X65639597Y-7119870D01*
X65655085Y-7117418D01*
X65669056Y-7124536D01*
X65684542Y-7126989D01*
X65709602Y-7145195D01*
X65841304Y-7276897D01*
X65869081Y-7331414D01*
X65870300Y-7346901D01*
X65870300Y-7419057D01*
X65911223Y-7571784D01*
X65990280Y-7708716D01*
X66102084Y-7820520D01*
X66239016Y-7899577D01*
X66391743Y-7940500D01*
X66391745Y-7940500D01*
X66549855Y-7940500D01*
X66549857Y-7940500D01*
X66702584Y-7899577D01*
X66839516Y-7820520D01*
X66951320Y-7708716D01*
X67030377Y-7571784D01*
X67071300Y-7419057D01*
X67071300Y-7260943D01*
X67030377Y-7108216D01*
X66951320Y-6971284D01*
X66839516Y-6859480D01*
X66702584Y-6780423D01*
X66549857Y-6739500D01*
X66549855Y-6739500D01*
X66477701Y-6739500D01*
X66470103Y-6737031D01*
X66462214Y-6738281D01*
X66441558Y-6727756D01*
X66419510Y-6720593D01*
X66407697Y-6710504D01*
X66275946Y-6578753D01*
X66248169Y-6524236D01*
X66257740Y-6463804D01*
X66275940Y-6438752D01*
X67099857Y-5614834D01*
X67154374Y-5587058D01*
X67214806Y-5596629D01*
X67239861Y-5614832D01*
X67277235Y-5652206D01*
X67380009Y-5697585D01*
X67405135Y-5700500D01*
X68294864Y-5700499D01*
X68319991Y-5697585D01*
X68422765Y-5652206D01*
X68502206Y-5572765D01*
X68509435Y-5556392D01*
X68550232Y-5510797D01*
X68610040Y-5497889D01*
X68666013Y-5522601D01*
G37*
%TD.AperFunction*%
%TA.AperFunction,Conductor*%
G36*
X83141859Y-603868D02*
G01*
X83299646Y-649326D01*
X83310117Y-652990D01*
X83436514Y-705346D01*
X83577457Y-763727D01*
X83587459Y-768544D01*
X83840711Y-908511D01*
X83850111Y-914417D01*
X84086106Y-1081864D01*
X84094783Y-1088784D01*
X84310555Y-1281609D01*
X84318390Y-1289444D01*
X84511213Y-1505213D01*
X84518135Y-1513893D01*
X84685582Y-1749888D01*
X84691488Y-1759288D01*
X84831455Y-2012540D01*
X84836272Y-2022542D01*
X84947007Y-2289878D01*
X84950674Y-2300357D01*
X84996131Y-2458139D01*
X85000000Y-2485546D01*
X85000000Y-51494452D01*
X84996131Y-51521859D01*
X84950674Y-51679642D01*
X84947007Y-51690121D01*
X84836272Y-51957457D01*
X84831455Y-51967459D01*
X84691488Y-52220711D01*
X84685582Y-52230111D01*
X84518135Y-52466106D01*
X84511213Y-52474786D01*
X84318398Y-52690547D01*
X84310547Y-52698398D01*
X84094786Y-52891213D01*
X84086106Y-52898135D01*
X83850111Y-53065582D01*
X83840711Y-53071488D01*
X83587459Y-53211455D01*
X83577457Y-53216272D01*
X83310121Y-53327007D01*
X83299642Y-53330674D01*
X83141860Y-53376131D01*
X83114453Y-53380000D01*
X2485547Y-53380000D01*
X2458140Y-53376131D01*
X2300357Y-53330674D01*
X2289878Y-53327007D01*
X2022542Y-53216272D01*
X2012540Y-53211455D01*
X1759288Y-53071488D01*
X1749888Y-53065582D01*
X1513893Y-52898135D01*
X1505213Y-52891213D01*
X1289444Y-52698390D01*
X1281609Y-52690555D01*
X1088784Y-52474783D01*
X1081864Y-52466106D01*
X1017586Y-52375515D01*
X914417Y-52230111D01*
X908511Y-52220711D01*
X768544Y-51967459D01*
X763727Y-51957457D01*
X652992Y-51690121D01*
X649325Y-51679641D01*
X603869Y-51521858D01*
X600000Y-51494452D01*
X600000Y-45221043D01*
X10016900Y-45221043D01*
X10016900Y-45379157D01*
X10057823Y-45531884D01*
X10136880Y-45668816D01*
X10248684Y-45780620D01*
X10385616Y-45859677D01*
X10538343Y-45900600D01*
X10538345Y-45900600D01*
X10696455Y-45900600D01*
X10696457Y-45900600D01*
X10849184Y-45859677D01*
X10986116Y-45780620D01*
X11011629Y-45755106D01*
X11037141Y-45729596D01*
X11091658Y-45701819D01*
X11107144Y-45700600D01*
X29996625Y-45700600D01*
X29996627Y-45700600D01*
X30098488Y-45673307D01*
X30098490Y-45673305D01*
X30098492Y-45673305D01*
X30189808Y-45620583D01*
X30189808Y-45620582D01*
X30189813Y-45620580D01*
X39404597Y-36405796D01*
X39459114Y-36378019D01*
X39474601Y-36376800D01*
X39546755Y-36376800D01*
X39546757Y-36376800D01*
X39699484Y-36335877D01*
X39836416Y-36256820D01*
X39948220Y-36145016D01*
X40027277Y-36008084D01*
X40068200Y-35855357D01*
X40068200Y-35697243D01*
X40027277Y-35544516D01*
X39948220Y-35407584D01*
X39836416Y-35295780D01*
X39699484Y-35216723D01*
X39546757Y-35175800D01*
X39388643Y-35175800D01*
X39235916Y-35216723D01*
X39098984Y-35295780D01*
X38987180Y-35407584D01*
X38908123Y-35544516D01*
X38871659Y-35680604D01*
X38867200Y-35697244D01*
X38867200Y-35769399D01*
X38848293Y-35827590D01*
X38838204Y-35839403D01*
X29807003Y-44870604D01*
X29752486Y-44898381D01*
X29736999Y-44899600D01*
X11107144Y-44899600D01*
X11048953Y-44880693D01*
X11037141Y-44870604D01*
X10986118Y-44819582D01*
X10986116Y-44819580D01*
X10849184Y-44740523D01*
X10696457Y-44699600D01*
X10538343Y-44699600D01*
X10385616Y-44740523D01*
X10248684Y-44819580D01*
X10136880Y-44931384D01*
X10057823Y-45068316D01*
X10016900Y-45221043D01*
X600000Y-45221043D01*
X600000Y-15400000D01*
X1900000Y-15400000D01*
X1900000Y-41100000D01*
X1900001Y-41100000D01*
X15049999Y-41100000D01*
X15050000Y-41100000D01*
X15050000Y-15400000D01*
X15049999Y-15400000D01*
X9099000Y-15400000D01*
X9040809Y-15381093D01*
X9004845Y-15331593D01*
X9000000Y-15301000D01*
X9000000Y-14750001D01*
X9000000Y-14750000D01*
X8999999Y-14750000D01*
X8895041Y-14750000D01*
X8836850Y-14731093D01*
X8800886Y-14681593D01*
X8800886Y-14620407D01*
X8803577Y-14613115D01*
X8865342Y-14463998D01*
X8865894Y-14462666D01*
X8900500Y-14288691D01*
X8900500Y-14111309D01*
X8865894Y-13937334D01*
X8800609Y-13779720D01*
X8798014Y-13773455D01*
X8798014Y-13773454D01*
X8699464Y-13625965D01*
X8574034Y-13500535D01*
X8426544Y-13401985D01*
X8262666Y-13334106D01*
X8088693Y-13299500D01*
X8088691Y-13299500D01*
X7911309Y-13299500D01*
X7911306Y-13299500D01*
X7737334Y-13334106D01*
X7737332Y-13334106D01*
X7573455Y-13401985D01*
X7573454Y-13401985D01*
X7425965Y-13500535D01*
X7300535Y-13625965D01*
X7201985Y-13773454D01*
X7201985Y-13773455D01*
X7134106Y-13937332D01*
X7134106Y-13937334D01*
X7099500Y-14111306D01*
X7099500Y-14288693D01*
X7134106Y-14462665D01*
X7134106Y-14462667D01*
X7201985Y-14626544D01*
X7201985Y-14626545D01*
X7300535Y-14774034D01*
X7300536Y-14774035D01*
X7425965Y-14899464D01*
X7456001Y-14919534D01*
X7493881Y-14967583D01*
X7500000Y-15001849D01*
X7500000Y-15301000D01*
X7481093Y-15359191D01*
X7431593Y-15395155D01*
X7401000Y-15400000D01*
X3999000Y-15400000D01*
X3940809Y-15381093D01*
X3904845Y-15331593D01*
X3900000Y-15301000D01*
X3900000Y-14750001D01*
X3900000Y-14750000D01*
X2000000Y-14750000D01*
X2000000Y-14750001D01*
X2000000Y-15301000D01*
X1993633Y-15320595D01*
X1991519Y-15341092D01*
X1984391Y-15349038D01*
X1981093Y-15359191D01*
X1964423Y-15371302D01*
X1950666Y-15386641D01*
X1927630Y-15400000D01*
X1900000Y-15400000D01*
X600000Y-15400000D01*
X600000Y-8815973D01*
X2735400Y-8815973D01*
X2735400Y-9724973D01*
X2735400Y-9830427D01*
X2745141Y-9866780D01*
X2762694Y-9932292D01*
X2815416Y-10023608D01*
X2815418Y-10023610D01*
X2815420Y-10023613D01*
X4414087Y-11622280D01*
X4414089Y-11622281D01*
X4414091Y-11622283D01*
X4505408Y-11675005D01*
X4505406Y-11675005D01*
X4505410Y-11675006D01*
X4505412Y-11675007D01*
X4607273Y-11702300D01*
X4607275Y-11702300D01*
X7046825Y-11702300D01*
X7046827Y-11702300D01*
X7148688Y-11675007D01*
X7148690Y-11675005D01*
X7148692Y-11675005D01*
X7240008Y-11622283D01*
X7240008Y-11622282D01*
X7240013Y-11622280D01*
X7505216Y-11357077D01*
X7616698Y-11245596D01*
X7671214Y-11217819D01*
X7686701Y-11216600D01*
X7758855Y-11216600D01*
X7758857Y-11216600D01*
X7911584Y-11175677D01*
X8048516Y-11096620D01*
X8160320Y-10984816D01*
X8239377Y-10847884D01*
X8280300Y-10695157D01*
X8280300Y-10537043D01*
X8239377Y-10384316D01*
X8227301Y-10363399D01*
X8225101Y-10353052D01*
X8218883Y-10344493D01*
X8218883Y-10323794D01*
X8214580Y-10303550D01*
X8218883Y-10293886D01*
X8218883Y-10283307D01*
X8231050Y-10266560D01*
X8239468Y-10247655D01*
X8248628Y-10242366D01*
X8254847Y-10233807D01*
X8274532Y-10227410D01*
X8292456Y-10217063D01*
X8313038Y-10214900D01*
X8469599Y-10214900D01*
X8527790Y-10233807D01*
X8539603Y-10243896D01*
X8576204Y-10280497D01*
X8603981Y-10335014D01*
X8605200Y-10350501D01*
X8605200Y-10422657D01*
X8646123Y-10575384D01*
X8725180Y-10712316D01*
X8836984Y-10824120D01*
X8973916Y-10903177D01*
X9126643Y-10944100D01*
X9126645Y-10944100D01*
X9284755Y-10944100D01*
X9284757Y-10944100D01*
X9437484Y-10903177D01*
X9574416Y-10824120D01*
X9619648Y-10778887D01*
X9674163Y-10751112D01*
X9734595Y-10760683D01*
X9759650Y-10778886D01*
X9808584Y-10827820D01*
X9945516Y-10906877D01*
X10098243Y-10947800D01*
X10098245Y-10947800D01*
X10256355Y-10947800D01*
X10256357Y-10947800D01*
X10409084Y-10906877D01*
X10546016Y-10827820D01*
X10571529Y-10802306D01*
X10597041Y-10776796D01*
X10651558Y-10749019D01*
X10667044Y-10747800D01*
X14688699Y-10747800D01*
X14746890Y-10766707D01*
X14758703Y-10776796D01*
X15302387Y-11320480D01*
X15302389Y-11320481D01*
X15302390Y-11320482D01*
X15302391Y-11320483D01*
X15393708Y-11373205D01*
X15393709Y-11373205D01*
X15393712Y-11373207D01*
X15481525Y-11396736D01*
X15532839Y-11430059D01*
X15551428Y-11466367D01*
X15552412Y-11469984D01*
X15552414Y-11469990D01*
X15552415Y-11469991D01*
X15597794Y-11572765D01*
X15677235Y-11652206D01*
X15780009Y-11697585D01*
X15780011Y-11697585D01*
X15786821Y-11700592D01*
X15785860Y-11702766D01*
X15827665Y-11730134D01*
X15849383Y-11787335D01*
X15849500Y-11792154D01*
X15849500Y-16607844D01*
X15830593Y-16666035D01*
X15786297Y-16698218D01*
X15786822Y-16699407D01*
X15781311Y-16701839D01*
X15781093Y-16701999D01*
X15780657Y-16702129D01*
X15677235Y-16747794D01*
X15597794Y-16827235D01*
X15552414Y-16930011D01*
X15549500Y-16955130D01*
X15549500Y-17844860D01*
X15549501Y-17844863D01*
X15552414Y-17869990D01*
X15568454Y-17906316D01*
X15597794Y-17972765D01*
X15677235Y-18052206D01*
X15780009Y-18097585D01*
X15780011Y-18097585D01*
X15786821Y-18100592D01*
X15785860Y-18102766D01*
X15827665Y-18130134D01*
X15849383Y-18187335D01*
X15849500Y-18192154D01*
X15849500Y-23007844D01*
X15830593Y-23066035D01*
X15786297Y-23098218D01*
X15786822Y-23099407D01*
X15781311Y-23101839D01*
X15781093Y-23101999D01*
X15780657Y-23102129D01*
X15677235Y-23147794D01*
X15597794Y-23227235D01*
X15552414Y-23330011D01*
X15549500Y-23355130D01*
X15549500Y-24244860D01*
X15549501Y-24244863D01*
X15552414Y-24269990D01*
X15577756Y-24327385D01*
X15597794Y-24372765D01*
X15677235Y-24452206D01*
X15780009Y-24497585D01*
X15780021Y-24497586D01*
X15783624Y-24498567D01*
X15786499Y-24500450D01*
X15786821Y-24500592D01*
X15786797Y-24500645D01*
X15834811Y-24532086D01*
X15853263Y-24568471D01*
X15865192Y-24612991D01*
X15876794Y-24656292D01*
X15929516Y-24747608D01*
X15929518Y-24747610D01*
X15929520Y-24747613D01*
X16248705Y-25066797D01*
X16522204Y-25340296D01*
X16549981Y-25394813D01*
X16551200Y-25410300D01*
X16551200Y-29400500D01*
X16532293Y-29458691D01*
X16482793Y-29494655D01*
X16452200Y-29499500D01*
X15805139Y-29499500D01*
X15805136Y-29499501D01*
X15780009Y-29502414D01*
X15677235Y-29547794D01*
X15597794Y-29627235D01*
X15552414Y-29730011D01*
X15549500Y-29755130D01*
X15549500Y-30644860D01*
X15549501Y-30644863D01*
X15552414Y-30669990D01*
X15577756Y-30727385D01*
X15597794Y-30772765D01*
X15677235Y-30852206D01*
X15780009Y-30897585D01*
X15780011Y-30897585D01*
X15786821Y-30900592D01*
X15785860Y-30902766D01*
X15827665Y-30930134D01*
X15849383Y-30987335D01*
X15849500Y-30992154D01*
X15849500Y-35807844D01*
X15830593Y-35866035D01*
X15786297Y-35898218D01*
X15786822Y-35899407D01*
X15781311Y-35901839D01*
X15781093Y-35901999D01*
X15780657Y-35902129D01*
X15677235Y-35947794D01*
X15597794Y-36027235D01*
X15552414Y-36130011D01*
X15549500Y-36155130D01*
X15549500Y-37044860D01*
X15549501Y-37044863D01*
X15552414Y-37069990D01*
X15576679Y-37124944D01*
X15597794Y-37172765D01*
X15677235Y-37252206D01*
X15780009Y-37297585D01*
X15780021Y-37297586D01*
X15783624Y-37298567D01*
X15786499Y-37300450D01*
X15786821Y-37300592D01*
X15786797Y-37300645D01*
X15834811Y-37332086D01*
X15853263Y-37368471D01*
X15869163Y-37427813D01*
X15876794Y-37456292D01*
X15929516Y-37547608D01*
X15929518Y-37547610D01*
X15929520Y-37547613D01*
X17320505Y-38938598D01*
X17348281Y-38993113D01*
X17349500Y-39008600D01*
X17349500Y-42207844D01*
X17330593Y-42266035D01*
X17286297Y-42298218D01*
X17286822Y-42299407D01*
X17281311Y-42301839D01*
X17281093Y-42301999D01*
X17280657Y-42302129D01*
X17177235Y-42347794D01*
X17097793Y-42427236D01*
X17090564Y-42443609D01*
X17049763Y-42489204D01*
X16989954Y-42502109D01*
X16933983Y-42477395D01*
X16909436Y-42443609D01*
X16902206Y-42427236D01*
X16902206Y-42427235D01*
X16822765Y-42347794D01*
X16719991Y-42302415D01*
X16719990Y-42302414D01*
X16719988Y-42302414D01*
X16694868Y-42299500D01*
X15805139Y-42299500D01*
X15805136Y-42299501D01*
X15780009Y-42302414D01*
X15677235Y-42347794D01*
X15597794Y-42427235D01*
X15552414Y-42530011D01*
X15549500Y-42555130D01*
X15549500Y-43444860D01*
X15549501Y-43444863D01*
X15552414Y-43469990D01*
X15577756Y-43527385D01*
X15597794Y-43572765D01*
X15677235Y-43652206D01*
X15780009Y-43697585D01*
X15805135Y-43700500D01*
X16606198Y-43700499D01*
X16664389Y-43719406D01*
X16676202Y-43729495D01*
X16894320Y-43947613D01*
X16894319Y-43947613D01*
X16968885Y-44022179D01*
X17031401Y-44058273D01*
X17031402Y-44058273D01*
X17060213Y-44074907D01*
X17162070Y-44102200D01*
X17162072Y-44102201D01*
X17162073Y-44102201D01*
X17273590Y-44102201D01*
X17273606Y-44102200D01*
X23063825Y-44102200D01*
X23063827Y-44102200D01*
X23165688Y-44074907D01*
X23165690Y-44074905D01*
X23165692Y-44074905D01*
X23257008Y-44022183D01*
X23257008Y-44022182D01*
X23257013Y-44022180D01*
X25401896Y-41877295D01*
X25456413Y-41849519D01*
X25471900Y-41848300D01*
X25544055Y-41848300D01*
X25544057Y-41848300D01*
X25696784Y-41807377D01*
X25833716Y-41728320D01*
X25945520Y-41616516D01*
X26024577Y-41479584D01*
X26065500Y-41326857D01*
X26065500Y-41168743D01*
X26024577Y-41016016D01*
X25945520Y-40879084D01*
X25833716Y-40767280D01*
X25696784Y-40688223D01*
X25544057Y-40647300D01*
X25385943Y-40647300D01*
X25233216Y-40688223D01*
X25096284Y-40767280D01*
X24984480Y-40879084D01*
X24905423Y-41016016D01*
X24864500Y-41168744D01*
X24864500Y-41240899D01*
X24845593Y-41299090D01*
X24835504Y-41310903D01*
X22874203Y-43272204D01*
X22819686Y-43299981D01*
X22804199Y-43301200D01*
X18549500Y-43301200D01*
X18491309Y-43282293D01*
X18455345Y-43232793D01*
X18450500Y-43202200D01*
X18450499Y-42555139D01*
X18450499Y-42555136D01*
X18447585Y-42530009D01*
X18402206Y-42427235D01*
X18322765Y-42347794D01*
X18219991Y-42302415D01*
X18219988Y-42302414D01*
X18213179Y-42299408D01*
X18214137Y-42297236D01*
X18172319Y-42269846D01*
X18150616Y-42212638D01*
X18150500Y-42207845D01*
X18150500Y-39301200D01*
X18169407Y-39243009D01*
X18218907Y-39207045D01*
X18249500Y-39202200D01*
X31875025Y-39202200D01*
X31875027Y-39202200D01*
X31976888Y-39174907D01*
X31976890Y-39174905D01*
X31976892Y-39174905D01*
X32068208Y-39122183D01*
X32068208Y-39122182D01*
X32068213Y-39122180D01*
X41180498Y-30009892D01*
X41235013Y-29982117D01*
X41295445Y-29991688D01*
X41338710Y-30034953D01*
X41349500Y-30079898D01*
X41349500Y-30301860D01*
X41349501Y-30301863D01*
X41352414Y-30326990D01*
X41377756Y-30384385D01*
X41397794Y-30429765D01*
X41477235Y-30509206D01*
X41580009Y-30554585D01*
X41580011Y-30554585D01*
X41586821Y-30557592D01*
X41585860Y-30559766D01*
X41627665Y-30587134D01*
X41649383Y-30644335D01*
X41649500Y-30649154D01*
X41649500Y-34778844D01*
X41630593Y-34837035D01*
X41586297Y-34869218D01*
X41586822Y-34870407D01*
X41581311Y-34872839D01*
X41581093Y-34872999D01*
X41580657Y-34873129D01*
X41477235Y-34918794D01*
X41397794Y-34998235D01*
X41352414Y-35101011D01*
X41349500Y-35126130D01*
X41349500Y-36015860D01*
X41349501Y-36015863D01*
X41352414Y-36040990D01*
X41377756Y-36098385D01*
X41397794Y-36143765D01*
X41477235Y-36223206D01*
X41580009Y-36268585D01*
X41580011Y-36268585D01*
X41586821Y-36271592D01*
X41585860Y-36273766D01*
X41627665Y-36301134D01*
X41649383Y-36358335D01*
X41649500Y-36363154D01*
X41649500Y-40493844D01*
X41630593Y-40552035D01*
X41586297Y-40584218D01*
X41586822Y-40585407D01*
X41581311Y-40587839D01*
X41581093Y-40587999D01*
X41580657Y-40588129D01*
X41477235Y-40633794D01*
X41397794Y-40713235D01*
X41352414Y-40816011D01*
X41349500Y-40841130D01*
X41349500Y-41730860D01*
X41349501Y-41730863D01*
X41352414Y-41755990D01*
X41377756Y-41813385D01*
X41397794Y-41858765D01*
X41477235Y-41938206D01*
X41580009Y-41983585D01*
X41580011Y-41983585D01*
X41586821Y-41986592D01*
X41585860Y-41988766D01*
X41627665Y-42016134D01*
X41649383Y-42073335D01*
X41649500Y-42078154D01*
X41649500Y-46207844D01*
X41630593Y-46266035D01*
X41586297Y-46298218D01*
X41586822Y-46299407D01*
X41581311Y-46301839D01*
X41581093Y-46301999D01*
X41580657Y-46302129D01*
X41477235Y-46347794D01*
X41397794Y-46427235D01*
X41352414Y-46530011D01*
X41349500Y-46555130D01*
X41349500Y-47444860D01*
X41349501Y-47444863D01*
X41352414Y-47469990D01*
X41377756Y-47527385D01*
X41397794Y-47572765D01*
X41477235Y-47652206D01*
X41580009Y-47697585D01*
X41605135Y-47700500D01*
X42494864Y-47700499D01*
X42519991Y-47697585D01*
X42622765Y-47652206D01*
X42702206Y-47572765D01*
X42709435Y-47556392D01*
X42750232Y-47510797D01*
X42810040Y-47497889D01*
X42866013Y-47522601D01*
X42890563Y-47556389D01*
X42897794Y-47572765D01*
X42977235Y-47652206D01*
X43080009Y-47697585D01*
X43105135Y-47700500D01*
X43994864Y-47700499D01*
X44019991Y-47697585D01*
X44122765Y-47652206D01*
X44160136Y-47614834D01*
X44214650Y-47587058D01*
X44275082Y-47596629D01*
X44300142Y-47614835D01*
X44813018Y-48127710D01*
X44813020Y-48127713D01*
X44887587Y-48202280D01*
X44929154Y-48226279D01*
X44962567Y-48245570D01*
X44962570Y-48245571D01*
X44962573Y-48245573D01*
X44978913Y-48255007D01*
X45080774Y-48282301D01*
X45080776Y-48282301D01*
X45192290Y-48282301D01*
X45192306Y-48282300D01*
X66361400Y-48282300D01*
X66419591Y-48301207D01*
X66455555Y-48350707D01*
X66460400Y-48381300D01*
X66460400Y-48659873D01*
X66460400Y-48765327D01*
X66484470Y-48855159D01*
X66487694Y-48867192D01*
X66540416Y-48958508D01*
X66540418Y-48958510D01*
X66540420Y-48958513D01*
X66902387Y-49320480D01*
X66902389Y-49320481D01*
X66902391Y-49320483D01*
X66993708Y-49373205D01*
X66993709Y-49373205D01*
X66993712Y-49373207D01*
X67081525Y-49396736D01*
X67132839Y-49430059D01*
X67151428Y-49466367D01*
X67152412Y-49469984D01*
X67152414Y-49469990D01*
X67152415Y-49469991D01*
X67197794Y-49572765D01*
X67277235Y-49652206D01*
X67380009Y-49697585D01*
X67405135Y-49700500D01*
X68294864Y-49700499D01*
X68319991Y-49697585D01*
X68422765Y-49652206D01*
X68502206Y-49572765D01*
X68509435Y-49556392D01*
X68550232Y-49510797D01*
X68610040Y-49497889D01*
X68666013Y-49522601D01*
X68690563Y-49556389D01*
X68697794Y-49572765D01*
X68777235Y-49652206D01*
X68880009Y-49697585D01*
X68905135Y-49700500D01*
X69794864Y-49700499D01*
X69819991Y-49697585D01*
X69922765Y-49652206D01*
X70002206Y-49572765D01*
X70047585Y-49469991D01*
X70050500Y-49444865D01*
X70050499Y-48555136D01*
X70047585Y-48530009D01*
X70002206Y-48427235D01*
X69964832Y-48389861D01*
X69937057Y-48335347D01*
X69946628Y-48274915D01*
X69964828Y-48249862D01*
X70754010Y-47460681D01*
X70754013Y-47460680D01*
X70828580Y-47386113D01*
X70881307Y-47294787D01*
X70894403Y-47245913D01*
X70908601Y-47192927D01*
X70908601Y-47087473D01*
X70908600Y-47087469D01*
X70908600Y-40367973D01*
X70908600Y-32224773D01*
X70881307Y-32122913D01*
X70864094Y-32093100D01*
X70828580Y-32031587D01*
X70754013Y-31957019D01*
X70754013Y-31957020D01*
X69110496Y-30313503D01*
X69082719Y-30258986D01*
X69092290Y-30198554D01*
X69135555Y-30155289D01*
X69180500Y-30144499D01*
X69794861Y-30144499D01*
X69794864Y-30144499D01*
X69819991Y-30141585D01*
X69922765Y-30096206D01*
X70002206Y-30016765D01*
X70047585Y-29913991D01*
X70050500Y-29888865D01*
X70050499Y-29433468D01*
X80779500Y-29433468D01*
X80779500Y-29566531D01*
X80805460Y-29697037D01*
X80856378Y-29819966D01*
X80923523Y-29920457D01*
X80930305Y-29930606D01*
X81024394Y-30024695D01*
X81135031Y-30098620D01*
X81257964Y-30149540D01*
X81388469Y-30175500D01*
X81388470Y-30175500D01*
X81521530Y-30175500D01*
X81521531Y-30175500D01*
X81652036Y-30149540D01*
X81774969Y-30098620D01*
X81885606Y-30024695D01*
X81979695Y-29930606D01*
X82053620Y-29819969D01*
X82104540Y-29697036D01*
X82130500Y-29566531D01*
X82130500Y-29433469D01*
X82104540Y-29302964D01*
X82053620Y-29180031D01*
X81979695Y-29069394D01*
X81885606Y-28975305D01*
X81883669Y-28974011D01*
X81774966Y-28901378D01*
X81652037Y-28850460D01*
X81521531Y-28824500D01*
X81388469Y-28824500D01*
X81388468Y-28824500D01*
X81257962Y-28850460D01*
X81135033Y-28901378D01*
X81024397Y-28975302D01*
X80930302Y-29069397D01*
X80856378Y-29180033D01*
X80805460Y-29302962D01*
X80779500Y-29433468D01*
X70050499Y-29433468D01*
X70050499Y-28999136D01*
X70047585Y-28974009D01*
X70002206Y-28871235D01*
X69964832Y-28833861D01*
X69937057Y-28779347D01*
X69946628Y-28718915D01*
X69964828Y-28693862D01*
X70699410Y-27959281D01*
X70699413Y-27959280D01*
X70773980Y-27884713D01*
X70826707Y-27793387D01*
X70854001Y-27691527D01*
X70854001Y-27586073D01*
X70854001Y-27580011D01*
X70854000Y-27579993D01*
X70854000Y-26433468D01*
X80779500Y-26433468D01*
X80779500Y-26566531D01*
X80805460Y-26697037D01*
X80856378Y-26819966D01*
X80856379Y-26819968D01*
X80856380Y-26819969D01*
X80930305Y-26930606D01*
X81024394Y-27024695D01*
X81135031Y-27098620D01*
X81257964Y-27149540D01*
X81388469Y-27175500D01*
X81388470Y-27175500D01*
X81521530Y-27175500D01*
X81521531Y-27175500D01*
X81652036Y-27149540D01*
X81774969Y-27098620D01*
X81885606Y-27024695D01*
X81979695Y-26930606D01*
X82053620Y-26819969D01*
X82104540Y-26697036D01*
X82130500Y-26566531D01*
X82130500Y-26433469D01*
X82104540Y-26302964D01*
X82053620Y-26180031D01*
X81979695Y-26069394D01*
X81885606Y-25975305D01*
X81774969Y-25901380D01*
X81774968Y-25901379D01*
X81774966Y-25901378D01*
X81652037Y-25850460D01*
X81521531Y-25824500D01*
X81388469Y-25824500D01*
X81388468Y-25824500D01*
X81257962Y-25850460D01*
X81135033Y-25901378D01*
X81024397Y-25975302D01*
X80930302Y-26069397D01*
X80856378Y-26180033D01*
X80805460Y-26302962D01*
X80779500Y-26433468D01*
X70854000Y-26433468D01*
X70854000Y-17950514D01*
X70854001Y-17950501D01*
X70854001Y-17837072D01*
X70854000Y-17837070D01*
X70826708Y-17735216D01*
X70826707Y-17735213D01*
X70816942Y-17718299D01*
X70816942Y-17718298D01*
X70773983Y-17643891D01*
X70773979Y-17643886D01*
X70699413Y-17569319D01*
X70699413Y-17569320D01*
X70481196Y-17351103D01*
X70453419Y-17296586D01*
X70452200Y-17281099D01*
X70452200Y-6464114D01*
X70452201Y-6464101D01*
X70452201Y-6350672D01*
X70452200Y-6350670D01*
X70451429Y-6347794D01*
X70424907Y-6248813D01*
X70389981Y-6188320D01*
X70372180Y-6157487D01*
X70297613Y-6082920D01*
X70297610Y-6082918D01*
X69964832Y-5750139D01*
X69937057Y-5695626D01*
X69946628Y-5635194D01*
X69964832Y-5610138D01*
X70002206Y-5572765D01*
X70047585Y-5469991D01*
X70050500Y-5444865D01*
X70050499Y-4555136D01*
X70047585Y-4530009D01*
X70002206Y-4427235D01*
X69922765Y-4347794D01*
X69819991Y-4302415D01*
X69819990Y-4302414D01*
X69819988Y-4302414D01*
X69794869Y-4299500D01*
X69794865Y-4299500D01*
X68993801Y-4299500D01*
X68935610Y-4280593D01*
X68923797Y-4270504D01*
X68894211Y-4240918D01*
X68894211Y-4240917D01*
X68631113Y-3977820D01*
X68631108Y-3977816D01*
X68539791Y-3925094D01*
X68539793Y-3925094D01*
X68481966Y-3909600D01*
X68437927Y-3897800D01*
X68437925Y-3897800D01*
X53725365Y-3897800D01*
X53667174Y-3878893D01*
X53631210Y-3829393D01*
X53631210Y-3768207D01*
X53639628Y-3749300D01*
X53714577Y-3619484D01*
X53755500Y-3466757D01*
X53755500Y-3308643D01*
X53714577Y-3155916D01*
X53635520Y-3018984D01*
X53523716Y-2907180D01*
X53386784Y-2828123D01*
X53234057Y-2787200D01*
X53075943Y-2787200D01*
X52923216Y-2828123D01*
X52786281Y-2907182D01*
X52735259Y-2958204D01*
X52680742Y-2985981D01*
X52665256Y-2987200D01*
X28139206Y-2987200D01*
X28139190Y-2987199D01*
X28133127Y-2987199D01*
X28027674Y-2987199D01*
X27925813Y-3014493D01*
X27925811Y-3014493D01*
X27925807Y-3014495D01*
X27834487Y-3067219D01*
X27759922Y-3141783D01*
X27759918Y-3141789D01*
X27721708Y-3180000D01*
X27699105Y-3202603D01*
X27644589Y-3230381D01*
X27629101Y-3231600D01*
X27556943Y-3231600D01*
X27404216Y-3272523D01*
X27267281Y-3351582D01*
X27216259Y-3402604D01*
X27161742Y-3430381D01*
X27146256Y-3431600D01*
X8225227Y-3431600D01*
X8119773Y-3431600D01*
X8057429Y-3448304D01*
X8017907Y-3458894D01*
X7926591Y-3511616D01*
X2815416Y-8622791D01*
X2762694Y-8714108D01*
X2762693Y-8714110D01*
X2757333Y-8734110D01*
X2757334Y-8734111D01*
X2751871Y-8754500D01*
X2735400Y-8815973D01*
X600000Y-8815973D01*
X600000Y-2485546D01*
X603869Y-2458139D01*
X649328Y-2300347D01*
X652988Y-2289888D01*
X763729Y-2022535D01*
X768544Y-2012540D01*
X809420Y-1938581D01*
X908515Y-1759280D01*
X914412Y-1749895D01*
X1081872Y-1513882D01*
X1088776Y-1505224D01*
X1281617Y-1289435D01*
X1289435Y-1281617D01*
X1505224Y-1088776D01*
X1513882Y-1081872D01*
X1749895Y-914412D01*
X1759280Y-908515D01*
X2012546Y-768541D01*
X2022535Y-763729D01*
X2289888Y-652988D01*
X2300353Y-649326D01*
X2388687Y-623877D01*
X2458141Y-603869D01*
X2485547Y-600000D01*
X83114453Y-600000D01*
X83141859Y-603868D01*
G37*
%TD.AperFunction*%
%TD*%
M02*
