M48
; DRILL file KiCad 10.0.3 date 2026-07-31T15:20:20
; FORMAT={-:-/ absolute / metric / decimal}
; #@! TF.CreationDate,2026-07-31T15:20:20-04:00
; #@! TF.GenerationSoftware,Kicad,Pcbnew,10.0.3
; #@! TF.FileFunction,MixedPlating,1,2
FMAT,2
METRIC
; #@! TA.AperFunction,Plated,PTH,ViaDrill
T1C0.300
; #@! TA.AperFunction,Plated,PTH,ComponentDrill
T2C0.300
; #@! TA.AperFunction,NonPlated,NPTH,ComponentDrill
T3C0.850
%
G90
G05
T1
X63.256Y-48.443
X64.113Y-48.296
X65.606Y-50.71
X65.973Y-46.845
X67.444Y-46.514
X68.756Y-42.543
X69.675Y-45.783
X70.912Y-48.196
X71.03Y-46.269
X77.671Y-40.438
X77.822Y-45.969
X78.115Y-43.606
X78.22Y-68.577
X78.771Y-57.73
X78.861Y-45.075
X79.662Y-39.875
X79.887Y-74.854
X80.015Y-49.572
X80.393Y-57.73
X80.444Y-60.586
X80.684Y-48.276
X80.721Y-59.635
X80.88Y-52.027
X80.971Y-44.2
X81.665Y-72.666
X82.103Y-51.395
X82.556Y-45.383
X82.921Y-49.778
X83.455Y-81.415
X84.656Y-44.443
X84.746Y-48.316
X85.539Y-58.647
X85.589Y-60.083
X85.719Y-57.73
X85.836Y-61.444
X86.003Y-56.867
X86.514Y-68.068
X90.843Y-41.348
X92.078Y-46.724
X92.715Y-44.511
X97.086Y-43.705
X97.521Y-70.507
X97.54Y-52.027
X99.803Y-45.933
X100.04Y-71.786
X100.366Y-77.853
X100.499Y-42.327
X101.089Y-75.631
X102.644Y-76.065
X102.73Y-59.463
X103.425Y-65.381
X103.656Y-38.843
X103.656Y-88.043
X103.773Y-41.208
X103.807Y-79.363
X103.824Y-50.079
X104.021Y-53.962
X104.025Y-59.671
X105.551Y-64.566
X105.609Y-73.177
X105.925Y-50.288
X106.472Y-60.756
X108.47Y-76.628
X108.656Y-63.443
X110.325Y-51.697
X112.656Y-76.443
X112.725Y-82.61
X114.565Y-46.797
X114.565Y-50.904
X116.934Y-42.546
X118.526Y-63.386
X121.42Y-72.602
X121.492Y-39.681
X123.687Y-67.734
X123.871Y-63.977
X123.963Y-80.342
X124.168Y-40.267
X124.502Y-85.593
X129.576Y-68.391
X129.62Y-63.443
X129.68Y-52.693
X129.757Y-47.241
X134.447Y-42.396
X143.656Y-48.443
X143.656Y-87.443
T2
X68.656Y-50.643
X69.156Y-59.243
T3
X142.111Y-62.943
X142.111Y-65.943
M30
