%TF.GenerationSoftware,KiCad,Pcbnew,10.0.3*%
%TF.CreationDate,2026-07-31T15:20:20-04:00*%
%TF.ProjectId,NeuralCard,4e657572-616c-4436-9172-642e6b696361,rev?*%
%TF.SameCoordinates,Original*%
%TF.FileFunction,Soldermask,Top*%
%TF.FilePolarity,Negative*%
%FSLAX46Y46*%
G04 Gerber Fmt 4.6, Leading zero omitted, Abs format (unit mm)*
G04 Created by KiCad (PCBNEW 10.0.3) date 2026-07-31 15:20:20*
%MOMM*%
%LPD*%
G01*
G04 APERTURE LIST*
%ADD10C,0.350000*%
%ADD11R,0.800000X0.800000*%
%ADD12C,0.850000*%
G04 APERTURE END LIST*
D10*
X64656200Y-86743400D02*
X142656200Y-86743400D01*
D11*
%TO.C,D6*%
X78406200Y-79443400D03*
X76906200Y-79443400D03*
%TD*%
%TO.C,D16*%
X130006200Y-46332400D03*
X128506200Y-46332400D03*
%TD*%
%TO.C,D23*%
X130006200Y-80554400D03*
X128506200Y-80554400D03*
%TD*%
%TO.C,D11*%
X104206200Y-66300400D03*
X102706200Y-66300400D03*
%TD*%
%TO.C,D14*%
X104206200Y-83443400D03*
X102706200Y-83443400D03*
%TD*%
%TO.C,D9*%
X104206200Y-54872400D03*
X102706200Y-54872400D03*
%TD*%
%TO.C,D10*%
X104206200Y-60586400D03*
X102706200Y-60586400D03*
%TD*%
%TO.C,D8*%
X104206200Y-49157400D03*
X102706200Y-49157400D03*
%TD*%
%TO.C,D18*%
X130006200Y-56110400D03*
X128506200Y-56110400D03*
%TD*%
%TO.C,D1*%
X78406200Y-47443400D03*
X76906200Y-47443400D03*
%TD*%
%TO.C,D7*%
X104206200Y-43443400D03*
X102706200Y-43443400D03*
%TD*%
%TO.C,D12*%
X104206200Y-72014400D03*
X102706200Y-72014400D03*
%TD*%
%TO.C,D5*%
X78406200Y-73043400D03*
X76906200Y-73043400D03*
%TD*%
%TO.C,D24*%
X130006200Y-85443400D03*
X128506200Y-85443400D03*
%TD*%
%TO.C,D2*%
X78406200Y-53843400D03*
X76906200Y-53843400D03*
%TD*%
%TO.C,D17*%
X130006200Y-51221400D03*
X128506200Y-51221400D03*
%TD*%
%TO.C,D13*%
X104206200Y-77729400D03*
X102706200Y-77729400D03*
%TD*%
%TO.C,D22*%
X130006200Y-75665400D03*
X128506200Y-75665400D03*
%TD*%
%TO.C,D20*%
X130006200Y-65887400D03*
X128506200Y-65887400D03*
%TD*%
%TO.C,D15*%
X130006200Y-41443400D03*
X128506200Y-41443400D03*
%TD*%
%TO.C,D21*%
X130006200Y-70776400D03*
X128506200Y-70776400D03*
%TD*%
%TO.C,D19*%
X130006200Y-60999400D03*
X128506200Y-60999400D03*
%TD*%
%TO.C,D3*%
X78406200Y-60243400D03*
X76906200Y-60243400D03*
%TD*%
%TO.C,D4*%
X78406200Y-66643400D03*
X76906200Y-66643400D03*
%TD*%
D12*
%TO.C,SW3*%
X142111200Y-62943400D03*
X142111200Y-65943400D03*
%TD*%
M02*
