%TF.GenerationSoftware,KiCad,Pcbnew,10.0.3*%
%TF.CreationDate,2026-08-03T21:39:11-04:00*%
%TF.ProjectId,NeuralCard,4e657572-616c-4436-9172-642e6b696361,rev?*%
%TF.SameCoordinates,Original*%
%TF.FileFunction,Soldermask,Bot*%
%TF.FilePolarity,Negative*%
%FSLAX46Y46*%
G04 Gerber Fmt 4.6, Leading zero omitted, Abs format (unit mm)*
G04 Created by KiCad (PCBNEW 10.0.3) date 2026-08-03 21:39:11*
%MOMM*%
%LPD*%
G01*
G04 APERTURE LIST*
G04 Aperture macros list*
%AMRoundRect*
0 Rectangle with rounded corners*
0 $1 Rounding radius*
0 $2 $3 $4 $5 $6 $7 $8 $9 X,Y pos of 4 corners*
0 Add a 4 corners polygon primitive as box body*
4,1,4,$2,$3,$4,$5,$6,$7,$8,$9,$2,$3,0*
0 Add four circle primitives for the rounded corners*
1,1,$1+$1,$2,$3*
1,1,$1+$1,$4,$5*
1,1,$1+$1,$6,$7*
1,1,$1+$1,$8,$9*
0 Add four rect primitives between the rounded corners*
20,1,$1+$1,$2,$3,$4,$5,0*
20,1,$1+$1,$4,$5,$6,$7,0*
20,1,$1+$1,$6,$7,$8,$9,0*
20,1,$1+$1,$8,$9,$2,$3,0*%
G04 Aperture macros list end*
%ADD10RoundRect,0.200000X-0.200000X-0.275000X0.200000X-0.275000X0.200000X0.275000X-0.200000X0.275000X0*%
%ADD11RoundRect,0.225000X0.250000X-0.225000X0.250000X0.225000X-0.250000X0.225000X-0.250000X-0.225000X0*%
%ADD12R,1.000000X0.750000*%
%ADD13C,0.850000*%
%ADD14RoundRect,0.150000X-0.500000X0.150000X-0.500000X-0.150000X0.500000X-0.150000X0.500000X0.150000X0*%
%ADD15RoundRect,0.175000X-0.175000X0.350000X-0.175000X-0.350000X0.175000X-0.350000X0.175000X0.350000X0*%
%ADD16R,1.500000X0.900000*%
%ADD17R,0.900000X1.500000*%
%ADD18R,0.900000X0.900000*%
%ADD19RoundRect,0.225000X-0.225000X-0.250000X0.225000X-0.250000X0.225000X0.250000X-0.225000X0.250000X0*%
%ADD20RoundRect,0.250000X-0.250000X-0.475000X0.250000X-0.475000X0.250000X0.475000X-0.250000X0.475000X0*%
%ADD21R,0.675000X0.280000*%
%ADD22R,0.280000X0.675000*%
%ADD23C,2.000000*%
%ADD24O,0.574000X1.888000*%
%ADD25RoundRect,0.250000X0.475000X-0.250000X0.475000X0.250000X-0.475000X0.250000X-0.475000X-0.250000X0*%
%ADD26R,1.500000X2.200000*%
%ADD27R,4.200000X3.800000*%
G04 APERTURE END LIST*
D10*
%TO.C,R11*%
X59539000Y-4500000D03*
X61189000Y-4500000D03*
%TD*%
%TO.C,R9*%
X46448000Y-4500000D03*
X48098000Y-4500000D03*
%TD*%
D11*
%TO.C,C4*%
X44000000Y-22775000D03*
X44000000Y-21225000D03*
%TD*%
D10*
%TO.C,R1*%
X7175000Y-4500000D03*
X8825000Y-4500000D03*
%TD*%
D11*
%TO.C,C3*%
X44000000Y-17775000D03*
X44000000Y-16225000D03*
%TD*%
D10*
%TO.C,R10*%
X52993000Y-4500000D03*
X54643000Y-4500000D03*
%TD*%
%TO.C,R5*%
X33357000Y-4500000D03*
X35007000Y-4500000D03*
%TD*%
%TO.C,R4*%
X26811000Y-4500000D03*
X28461000Y-4500000D03*
%TD*%
D12*
%TO.C,SW2*%
X21000000Y-49150000D03*
X27000000Y-49150000D03*
X21000000Y-45450000D03*
X27000000Y-45450000D03*
%TD*%
D13*
%TO.C,SW3*%
X81455000Y-26500000D03*
X81455000Y-29500000D03*
D14*
X79505000Y-25750000D03*
X79505000Y-28750000D03*
X79505000Y-30250000D03*
D15*
X82555000Y-24325000D03*
X80355000Y-24325000D03*
X82555000Y-31675000D03*
X80355000Y-31675000D03*
%TD*%
D16*
%TO.C,U1*%
X23250000Y-35890000D03*
X23250000Y-34620000D03*
X23250000Y-33350000D03*
X23250000Y-32080000D03*
X23250000Y-30810000D03*
X23250000Y-29540000D03*
X23250000Y-28270000D03*
X23250000Y-27000000D03*
X23250000Y-25730000D03*
X23250000Y-24460000D03*
X23250000Y-23190000D03*
X23250000Y-21920000D03*
X23250000Y-20650000D03*
X23250000Y-19380000D03*
D17*
X25010000Y-18110000D03*
X26280000Y-18110000D03*
X27550000Y-18110000D03*
X28830000Y-18110000D03*
X30100000Y-18110000D03*
X31370000Y-18110000D03*
X32640000Y-18110000D03*
X33910000Y-18110000D03*
X35180000Y-18110000D03*
X36450000Y-18110000D03*
X37720000Y-18110000D03*
X38990000Y-18140000D03*
D16*
X40750000Y-19380000D03*
X40750000Y-20650000D03*
X40750000Y-21920000D03*
X40750000Y-23190000D03*
X40750000Y-24460000D03*
X40750000Y-25730000D03*
X40750000Y-27000000D03*
X40750000Y-28270000D03*
X40750000Y-29540000D03*
X40750000Y-30810000D03*
X40750000Y-32080000D03*
X40750000Y-33350000D03*
X40750000Y-34620000D03*
X40750000Y-35890000D03*
D18*
X29100000Y-26770000D03*
X29100000Y-28170000D03*
X29100000Y-29570000D03*
X30500000Y-26770000D03*
X30500000Y-28170000D03*
X30500000Y-29570000D03*
X31900000Y-26770000D03*
X31900000Y-28170000D03*
X31900000Y-29570000D03*
%TD*%
D19*
%TO.C,C2*%
X20225000Y-21500000D03*
X21775000Y-21500000D03*
%TD*%
D20*
%TO.C,C9*%
X72505000Y-4500000D03*
X74405000Y-4500000D03*
%TD*%
D21*
%TO.C,U2*%
X20240000Y-10250000D03*
X20240000Y-9750000D03*
X20240000Y-9250000D03*
X20240000Y-8750000D03*
D22*
X21000000Y-8490000D03*
X21500000Y-8490000D03*
X22000000Y-8490000D03*
D21*
X22760000Y-8750000D03*
X22760000Y-9250000D03*
X22760000Y-9750000D03*
X22760000Y-10250000D03*
D22*
X22000000Y-10510000D03*
X21500000Y-10510000D03*
X21000000Y-10510000D03*
%TD*%
D10*
%TO.C,R3*%
X20266000Y-4500000D03*
X21916000Y-4500000D03*
%TD*%
%TO.C,R6*%
X39902000Y-4500000D03*
X41552000Y-4500000D03*
%TD*%
D23*
%TO.C,FID3*%
X81000000Y-50500000D03*
%TD*%
D19*
%TO.C,C1*%
X20225000Y-16500000D03*
X21775000Y-16500000D03*
%TD*%
%TO.C,C12*%
X10125000Y-12900000D03*
X11675000Y-12900000D03*
%TD*%
D11*
%TO.C,C11*%
X10800000Y-8775000D03*
X10800000Y-7225000D03*
%TD*%
D19*
%TO.C,C5*%
X24725000Y-9500000D03*
X26275000Y-9500000D03*
%TD*%
D10*
%TO.C,R12*%
X66084000Y-4500000D03*
X67734000Y-4500000D03*
%TD*%
D23*
%TO.C,FID1*%
X3500000Y-3000000D03*
%TD*%
D24*
%TO.C,U4*%
X4300000Y-6900000D03*
X5570000Y-6900000D03*
X6830000Y-6900000D03*
X8100000Y-6900000D03*
X8100000Y-12300000D03*
X6830000Y-12300000D03*
X5570000Y-12300000D03*
X4300000Y-12300000D03*
%TD*%
D10*
%TO.C,R14*%
X61175000Y-51900000D03*
X62825000Y-51900000D03*
%TD*%
D23*
%TO.C,FID2*%
X3500000Y-50500000D03*
%TD*%
D20*
%TO.C,C10*%
X79050000Y-4500000D03*
X80950000Y-4500000D03*
%TD*%
D10*
%TO.C,R2*%
X13720000Y-4500000D03*
X15370000Y-4500000D03*
%TD*%
D25*
%TO.C,C8*%
X44000000Y-27950000D03*
X44000000Y-26050000D03*
%TD*%
D26*
%TO.C,J1*%
X66000000Y-50000000D03*
X68540000Y-50000000D03*
X71080000Y-50000000D03*
X73620000Y-50000000D03*
X76160000Y-50000000D03*
X78700000Y-50000000D03*
%TD*%
D12*
%TO.C,SW1*%
X9000000Y-49150000D03*
X15000000Y-49150000D03*
X9000000Y-45450000D03*
X15000000Y-45450000D03*
%TD*%
D27*
%TO.C,BT1*%
X76390000Y-28000000D03*
X47610000Y-28000000D03*
%TD*%
M02*
